<?xml version="1.0" encoding="UTF-8"?>
<svg width="363" height="600" version="1.1" xmlns="http://www.w3.org/2000/svg">
 <path d="m335.11 4.27c13.072 0 23.629 10.572 23.629 23.661v544.14c0 13.089-10.558 23.661-23.629 23.661m-307.21 0c-13.072 0-23.635-10.572-23.635-23.661v-544.14c0-13.089 10.564-23.661 23.635-23.661m307.21 0c13.072 0 23.629 10.572 23.629 23.661v544.14c0 13.089-10.558 23.661-23.629 23.661m-307.21 0c-13.072 0-23.635-10.572-23.635-23.661v-544.14c0-13.089 10.564-23.661 23.635-23.661" fill="none"/>
 <path d="m335.21 4.14c13.084 0 23.647 10.579 23.647 23.667v544.38c0 13.095-10.564 23.673-23.647 23.673h-307.43c-13.078 0-23.647-10.579-23.647-23.673v-544.38c0-13.089 10.57-23.667 23.647-23.667z"/>
 <path d="m335.21 0c15.371 0 27.785 12.425 27.785 27.809v544.38c0 15.384-12.415 27.815-27.785 27.815h-307.43c-15.371 0-27.785-12.431-27.785-27.815v-544.38c0-15.384 12.415-27.809 27.785-27.809z"/>
 <path d="m335.21 8.28c2.6513 0 5.1832 0.50822 7.6017 1.5298 2.3349 0.986 4.401 2.3846 6.1984 4.1837 1.8034 1.7988 3.1948 3.8667 4.18 6.2036 1.021 2.4204 1.5287 4.9545 1.5287 7.6081v544.38c0 2.6535-0.50764 5.1936-1.5287 7.6081-0.98533 2.3369-2.3767 4.4048-4.18 6.2097-1.7974 1.799-3.8635 3.1914-6.1984 4.1776-2.4184 1.0216-4.9503 1.5298-7.6017 1.5298h-307.43c-2.6513 0-5.1832-0.5082-7.6017-1.5298-2.3348-0.986-4.401-2.3786-6.1984-4.1776-1.7974-1.8049-3.1947-3.8728-4.1801-6.2097-1.021-2.4145-1.5286-4.9546-1.5286-7.6081v-544.38c0-2.6536 0.5076-5.1876 1.5286-7.6081 0.98534-2.3369 2.3827-4.4048 4.1801-6.2036 1.7974-1.799 3.8636-3.1975 6.1984-4.1837 2.4184-1.0216 4.9503-1.5298 7.6017-1.5298z" fill="#fff"/>
 <path d="m335.21 22.6c2.8842 0 5.2011 2.3189 5.2011 5.2056v544.38c0 2.8927-2.3169 5.2115-5.2011 5.2115h-307.43c-2.8842 0-5.2011-2.3188-5.2011-5.2115v-544.38c0-2.8866 2.3169-5.2056 5.2011-5.2056z" fill="#164194"/>
 <g fill="#fff">
  <path d="m37.62 469.58h287.75v84.395h-287.75z"/>
  <path d="m37.62 166.38h287.75v84.395h-287.75z"/>
  <path d="m37.62 267.78h287.75v84.395h-287.75z"/>
 </g>
 <path d="m67.61 239.88h119.06v-15.85c0.0314-0.3218-0.0475-0.6455-0.20288-0.9555-0.29245-0.4896-0.85398-0.7166-1.3914-0.7285l-1.9706-0.036 0.0779-1.4874-4.6458-1.3384-4.2039 1.1774v1.6078h-1.5466c-0.44786-0.1188-0.92554-0.036-1.2958 0.2268-0.48377 0.3353-0.7644 0.9148-0.71057 1.5129v-31.443h-2.0602v-2.3428c0.0592-0.2865-0.0134-0.5794-0.19124-0.8184-0.2387-0.2626-0.59126-0.2743-0.90167-0.2743-3.7799-1.0521-7.7868-1.0944-11.549 0-0.36411 0.1188-0.77628 0.068-1.0629 0.3286-0.27454 0.2743-0.36411 0.6759-0.36411 1.0334v2.1158h-2.0064v33.158l-6.694-5.7914-6.8911 5.2713v2.0201c-0.13704-0.359-0.3762-0.6624-0.65082-0.9148-0.28081-0.2273-0.6031-0.3474-0.92555-0.4659-0.31664-0.085-0.6331-0.085-0.94351-0.1018-0.3883-0.013-0.76446 0.068-1.1406 0.036-0.25664 0-0.49561 0-0.72854-0.085-0.28081-0.051-0.49561-0.2457-0.74041-0.3712-0.39411-0.1968-0.78218-0.3828-1.1525-0.5557-0.82402-0.3474-1.6005-0.8538-2.4722-0.825-0.77037 0.036-1.4094 0.5015-2.096 0.7708-0.51356 0.2152-0.97334 0.5015-1.4869 0.6522-0.48378 0.1354-0.9315 0.1968-1.4152 0.2085-0.62105 0.036-1.2183-0.1695-1.8213-0.1524-0.41785-0.014-0.83011 0-1.2242 0.1188-0.39994 0.1187-0.77033 0.3048-1.0867 0.5319v-2.1695l-3.8636-6.8013h-18.303v-8.8153l-6.8135-31.012-6.5507 31.245v8.6661l-9.1304-8.6004-8.9154 8.6422z"/>
 <path d="m248.41 169.38c21.647 0 39.197 17.565 39.197 39.23 0 21.659-17.55 39.224-39.197 39.224s-39.197-17.565-39.197-39.224c0-21.665 17.55-39.23 39.197-39.23" fill="#e30613"/>
 <path d="m248.41 179.38c-16.117 0-29.189 13.083-29.189 29.214s13.072 29.214 29.189 29.214 29.189-13.083 29.189-29.214-13.072-29.214-29.189-29.214" fill="#fff"/>
 <path d="m248.4 270.78c21.641 0 39.197 17.565 39.197 39.23 0 21.659-17.556 39.224-39.197 39.224-21.647 0-39.197-17.565-39.197-39.224 0-21.665 17.55-39.23 39.197-39.23" fill="#e30613"/>
 <path d="m248.4 280.78c-16.117 0-29.189 13.083-29.189 29.214s13.072 29.214 29.189 29.214 29.189-13.083 29.189-29.214-13.072-29.214-29.189-29.214" fill="#fff"/>
 <path d="m248.4 472.58c21.641 0 39.197 17.565 39.197 39.23 0 21.659-17.556 39.224-39.197 39.224-21.647 0-39.197-17.565-39.197-39.224 0-21.665 17.55-39.23 39.197-39.23" fill="#e30613"/>
 <path d="m248.4 482.58c-16.117 0-29.189 13.083-29.189 29.214s13.072 29.214 29.189 29.214 29.189-13.083 29.189-29.214-13.072-29.214-29.189-29.214" fill="#fff"/>
 <path d="m177.44 128.79h8.0257l-4.0904-13.961zm-1.3914 4.5242-1.2421 4.3809h-4.413l8.79-31.174h4.389l9.0587 31.174h-4.5682l-1.3496-4.3809z" fill="#fff"/>
 <g fill="#ecc915">
  <path d="m202.97 113.07-2.729 2.038 1.0928-3.2871-2.6155-2.0081h3.2306l1.033-3.0122 0.97924 3.0122h3.2784l-2.6155 2.014 1.021 3.1557z"/>
  <path d="m181.55 100.56-2.729 2.038 1.0867-3.2812-2.6096-2.014h3.2306l1.0331-3.0122 0.9792 3.0122h3.2784l-2.6155 2.014 1.0212 3.1557z"/>
  <path d="m194.24 103.52-2.729 2.038 1.0869-3.2872-2.6096-2.0081h3.2306l1.0331-3.0122 0.97921 3.0122h3.2783l-2.6155 2.014 1.021 3.1557z"/>
  <path d="m194.24 146.08-2.729 2.0381 1.0869-3.2872-2.6096-2.008h3.2306l1.0331-3.0122 0.97921 3.0122h3.2783l-2.6155 2.014 1.021 3.1557z"/>
  <path d="m202.97 137.79-2.729 2.0381 1.0928-3.2871-2.6155-2.0081h3.2306l1.033-3.0122 0.97924 3.0122h3.2784l-2.6155 2.014 1.021 3.1557z"/>
  <path d="m206.23 125.53-2.729 2.0381 1.0869-3.2871-2.6096-2.0081h3.2306l1.033-3.0122 0.97924 3.0122h3.2783l-2.6155 2.014 1.021 3.1557z"/>
  <path d="m156.77 125.53-2.729 2.0381 1.0869-3.2871-2.6096-2.0081h3.2306l1.0331-3.0122 0.97921 3.0122h3.2783l-2.6155 2.014 1.021 3.1557z"/>
  <path d="m181.55 150.28-2.729 2.0381 1.0867-3.2872-2.6096-2.008h3.2306l1.0331-3.0122 0.9792 3.0122h3.2784l-2.6155 2.014 1.0212 3.1556z"/>
  <path d="m160.05 113.07-2.7289 2.038 1.0869-3.2871-2.6096-2.0081h3.2306l1.033-3.0122 0.97925 3.0122h3.2783l-2.6155 2.014 1.021 3.1557z"/>
  <path d="m160.05 137.79-2.7289 2.0381 1.0869-3.2871-2.6096-2.0081h3.2306l1.033-3.0122 0.97925 3.0122h3.2783l-2.6155 2.014 1.021 3.1557z"/>
  <path d="m168.84 103.52-2.729 2.038 1.0867-3.2872-2.6095-2.0081h3.2306l1.0331-3.0122 0.97921 3.0122h3.2783l-2.6155 2.014 1.021 3.1557z"/>
  <path d="m168.84 146.08-2.729 2.0381 1.0867-3.2872-2.6095-2.008h3.2306l1.0331-3.0122 0.97921 3.0122h3.2783l-2.6155 2.014 1.021 3.1557z"/>
 </g>
 <path d="m150.96 275.38 8.9572 69.185h3.9114l-8.9573-69.185zm-25.522 69.185h3.9053v-69.185h-3.9053zm-12.271-19.538 0.8122-10.566h-3.9054l-0.81215 10.566zm31.93 0.051-0.76441-10.824h-3.9054l0.76445 10.824zm0.59717 8.6779h-3.9053l0.77037 10.812h3.9053zm-3.3858-47.562-0.77036-10.806h-3.9054l0.77036 10.806zm1.3853 19.549-0.77036-10.824h-3.9054l0.77037 10.824zm-31.141 28.012h-3.9113l-0.82396 10.812h3.9053zm2.09-28.012 0.83011-10.824h-3.9054l-0.83602 10.824zm1.5108-19.549 0.83006-10.806h-3.9053l-0.83012 10.806zm-16.738-10.812-8.9572 69.185h3.9114l8.9572-69.185z"/>
 <path d="m92.67 546.28h68.911v-68.976h-68.911z" fill="#164194"/>
 <path d="m37.62 368.38h287.75v84.389h-287.75z" fill="#fff"/>
 <path d="m248.4 371.28c21.641 0 39.197 17.565 39.197 39.23 0 21.659-17.556 39.224-39.197 39.224-21.647 0-39.197-17.565-39.197-39.224 0-21.665 17.55-39.23 39.197-39.23" fill="#e30613"/>
 <path d="m248.4 381.38c-16.117 0-29.189 13.083-29.189 29.214s13.072 29.214 29.189 29.214 29.189-13.083 29.189-29.214-13.072-29.214-29.189-29.214" fill="#fff"/>
 <path d="m92.67 444.98h68.911v-68.976h-68.911z" fill="#164194"/>
 <path d="m245.53 195.98v-3.8548h-13.758v16.597h3.3321c0.47172-0.1846 0.89576-0.3339 1.3196-0.4236 0.41785-0.051 0.75241-0.1017 1.0749-0.1017 1.3614-0.051 2.4483 0.4236 3.2425 1.4112 0.80624 0.986 1.2182 2.7252 1.2182 5.1697-0.0475 2.4504-0.50765 4.1417-1.4512 5.0742-0.93759 0.9504-2.108 1.4095-3.6187 1.362-0.79419 0-1.6482-0.1353-2.5319-0.3644-0.89576-0.2456-1.6482-0.5201-2.305-0.8538l-1.4093 3.5739c0.61514 0.3761 1.5466 0.7472 2.7708 1.1707 1.2241 0.3761 2.4961 0.5625 3.8098 0.6099 1.6362 0 3.141-0.3286 4.5563-1.0334 1.4512-0.6997 2.6215-1.8348 3.5231-3.4246 0.88376-1.601 1.3137-3.7593 1.3614-6.4426-0.0475-3.1498-0.71062-5.5941-2.0662-7.3394-1.3137-1.787-3.2485-2.6715-5.637-2.7193-0.38203 0-0.84789 0.051-1.3197 0.1354-0.51356 0.1017-0.97938 0.1914-1.4093 0.3352v-8.8871zm21.748 12.646c0.0475-6.114-0.61514-10.483-1.9288-13.119-1.266-2.6296-3.4276-3.9026-6.3835-3.8548-3.0096-0.051-5.1654 1.2249-6.4373 3.8548-1.3137 2.6358-1.9766 7.0047-1.9288 13.119-0.0475 6.1139 0.6151 10.441 1.9288 13.065 1.2719 2.5819 3.4276 3.8489 6.4373 3.8012 2.9559 0.051 5.1175-1.2198 6.3835-3.8012 1.3137-2.6237 1.9765-6.9508 1.9288-13.065m-4.6578 0c0 3.6217-0.0949 6.3889-0.32246 8.2715-0.28663 1.9305-0.65697 3.1975-1.1764 3.9087-0.5613 0.6505-1.266 0.9809-2.1557 0.9318-0.94355 0.051-1.6482-0.3286-2.1617-1.0826-0.56727-0.8013-0.94947-2.1097-1.1824-4.0402-0.22707-1.9244-0.31664-4.5601-0.31664-7.9906 0-3.4784 0.0896-6.1558 0.36411-8.0863 0.2387-1.9246 0.61513-3.2931 1.1824-4.0402 0.51361-0.7522 1.2183-1.1351 2.1139-1.0876 0.84197-0.051 1.5466 0.2864 2.1079 0.9927 0.51952 0.7048 0.9376 1.9783 1.1764 3.8967 0.23288 1.9305 0.37037 4.7096 0.37037 8.3254"/>
 <path d="m230.66 324.68h4.1024v-29.303h-4.3114l-6.3119 5.1818 2.4662 2.9405 4.0546-3.4366zm42.027-14.613c0.0403-5.4387-0.54334-9.3295-1.7138-11.678-1.1285-2.3428-3.0455-3.4723-5.6849-3.4365-2.6752-0.036-4.604 1.0944-5.7326 3.4365-1.1703 2.3488-1.7556 6.2396-1.7138 11.678-0.0403 5.4446 0.54339 9.2995 1.7138 11.642 1.1286 2.301 3.0574 3.4246 5.7326 3.3827 2.6394 0.036 4.5563-1.0825 5.6849-3.3827 1.1703-2.3428 1.7556-6.1977 1.7138-11.642m-4.1322 0c0 3.2273-0.0828 5.6957-0.29873 7.3631-0.24498 1.7212-0.58517 2.8509-1.0451 3.4843-0.50157 0.5794-1.1287 0.8725-1.9228 0.8301-0.83602 0.036-1.463-0.2864-1.9228-0.9622-0.50765-0.7115-0.83602-1.8766-1.051-3.5979-0.20287-1.7153-0.28663-4.064-0.28663-7.1181 0-3.1018 0.0828-5.4805 0.32829-7.1959 0.21497-1.7151 0.54943-2.9344 1.051-3.6038 0.45973-0.6691 1.0808-1.0097 1.881-0.9622 0.74644-0.051 1.3794 0.2505 1.881 0.8792 0.45973 0.6269 0.84193 1.7572 1.045 3.4723 0.20915 1.7154 0.34037 4.1897 0.34037 7.4111m-14.23 0c0.0403-5.4387-0.54339-9.3295-1.7138-11.678-1.1346-2.3428-3.0514-3.4723-5.6789-3.4365-2.6752-0.036-4.61 1.0944-5.7326 3.4365-1.1764 2.3488-1.7556 6.2396-1.7198 11.678-0.0359 5.4446 0.54334 9.2995 1.7198 11.642 1.1226 2.301 3.0574 3.4246 5.7326 3.3827 2.6275 0.036 4.5443-1.0825 5.6789-3.3827 1.1705-2.3428 1.7556-6.1977 1.7138-11.642m-4.1382 0c0 3.2273-0.0828 5.6957-0.29246 7.3631-0.25079 1.7212-0.58517 2.8509-1.0451 3.4843-0.49565 0.5794-1.1287 0.8725-1.9168 0.8301-0.83602 0.036-1.4689-0.2864-1.9288-0.9622-0.50156-0.7115-0.83602-1.8766-1.0451-3.5979-0.20289-1.7153-0.29246-4.064-0.29246-7.1181 0-3.1018 0.0896-5.4805 0.33455-7.1959 0.21498-1.7151 0.54335-2.9344 1.0451-3.6038 0.45974-0.6691 1.0869-1.0097 1.887-0.9622 0.7465-0.051 1.3794 0.2505 1.875 0.8792 0.45974 0.6269 0.83603 1.7572 1.0451 3.4723 0.20288 1.7154 0.33411 4.1897 0.33411 7.4111"/>
 <path d="m231.43 526.58h4.1442v-29.572h-4.3532l-6.3716 5.2295 2.4901 2.9642 4.0904-3.4664zm40.558-14.744c0.0403-5.4926-0.54943-9.4191-1.7317-11.792-1.1406-2.3667-3.0753-3.5023-5.7386-3.4663-2.6991-0.036-4.6518 1.0995-5.7864 3.4663-1.1764 2.3727-1.7735 6.2992-1.7257 11.792-0.0475 5.4924 0.54943 9.3773 1.7257 11.744 1.1347 2.3249 3.0873 3.4603 5.7864 3.4185 2.6633 0.036 4.598-1.0928 5.7386-3.4185 1.1824-2.3667 1.7735-6.2516 1.7317-11.744m-4.18 0c0 3.2512-0.0779 5.7435-0.29246 7.4348-0.25662 1.7273-0.59127 2.8688-1.0569 3.5082-0.50765 0.5913-1.1406 0.8793-1.9407 0.842-0.84197 0.036-1.4809-0.2932-1.9467-0.9809-0.50156-0.7115-0.84193-1.8946-1.0569-3.6218-0.20289-1.7392-0.2929-4.0999-0.2929-7.1838 0-3.1318 0.0896-5.5404 0.34037-7.2676 0.20915-1.7272 0.5493-2.9584 1.057-3.6397 0.45973-0.6692 1.0928-1.0097 1.8989-0.969 0.75831-0.036 1.3914 0.2577 1.8989 0.8911 0.46581 0.6268 0.84193 1.7751 1.0569 3.5023 0.20915 1.7333 0.33455 4.2254 0.33455 7.4827m-14.182 5.869c-0.0828-2.5282-0.63292-4.3449-1.6839-5.4029-1.0569-1.0996-2.2453-1.7331-3.4993-1.9424 1.1764-0.3406 2.2334-1.0215 3.1111-2.0738 0.93151-1.0995 1.4033-2.4922 1.4392-4.2255-0.0359-1.9423-0.38202-3.4664-1.051-4.5661-0.68079-1.0995-1.5228-1.8586-2.5797-2.2771-1.0451-0.4186-2.1438-0.6387-3.3261-0.6387-1.2242 0-2.4065 0.2578-3.5053 0.6811-1.0928 0.4182-2.1079 1.0571-3.0812 1.8229l1.7795 2.785c0.7942-0.5913 1.5586-1.0165 2.311-1.2723 0.72258-0.2506 1.4391-0.3761 2.1139-0.3761 0.42413-0.036 0.9315 0.036 1.4332 0.1695 0.51357 0.1694 0.93151 0.5082 1.3137 1.0943 0.32829 0.5981 0.54335 1.5248 0.54335 2.7912 0 1.6077-0.34037 2.7492-1.0092 3.5082-0.6747 0.7658-1.5228 1.0944-2.6155 1.0944h-1.057v3.4305h1.266c0.71654-0.036 1.3496 0.085 1.9408 0.3353 0.59126 0.2577 1.0928 0.8014 1.4271 1.5603 0.38203 0.759 0.54944 1.9484 0.54944 3.5084-0.0403 2.0738-0.50151 3.5083-1.3435 4.3509-0.88377 0.8065-1.8989 1.2317-3.1231 1.1842-0.88968 0-1.6421-0.1187-2.4065-0.376-0.71649-0.2578-1.3078-0.5913-1.7735-0.9742l-1.8153 2.9584c0.639 0.5082 1.4809 0.969 2.5737 1.3926 1.0569 0.3828 2.3707 0.5912 3.8396 0.6335 2.2811 0 4.2218-0.7589 5.7864-2.2352 1.5585-1.5247 2.3588-3.8071 2.4423-6.9328"/>
 <path d="m230.66 425.18h4.1024v-29.303h-4.3114l-6.3118 5.1816 2.4662 2.9406 4.0546-3.4366zm42.027-14.613c0.0403-5.4387-0.54335-9.3295-1.7138-11.678-1.1287-2.3428-3.0455-3.4723-5.6848-3.4365-2.6752-0.036-4.604 1.0944-5.7326 3.4365-1.1704 2.3488-1.7556 6.2396-1.7198 11.678-0.0359 5.4446 0.5493 9.2995 1.7198 11.642 1.1287 2.301 3.0574 3.4246 5.7326 3.3827 2.6394 0.036 4.5562-1.0825 5.6848-3.3827 1.1703-2.3428 1.7556-6.1977 1.7138-11.642m-4.1323 0c0 3.2273-0.0828 5.6957-0.29871 7.3631-0.24498 1.7213-0.58518 2.8509-1.0451 3.4843-0.50151 0.5794-1.1285 0.8725-1.9228 0.8369-0.83601 0.036-1.463-0.2931-1.9228-0.969-0.50764-0.7116-0.83601-1.8766-1.051-3.5979-0.20289-1.7153-0.28664-4.0641-0.28664-7.1181 0-3.1018 0.0828-5.4806 0.32829-7.1959 0.21497-1.7151 0.54944-2.9344 1.051-3.5979 0.45973-0.6759 1.0808-1.0164 1.881-0.969 0.7465-0.051 1.3794 0.2506 1.881 0.8793 0.45972 0.6268 0.84197 1.7571 1.0451 3.4723 0.20916 1.7212 0.34038 4.1896 0.34038 7.411m-14.23 0c0.0403-5.4387-0.54335-9.3295-1.7138-11.678-1.1346-2.3428-3.0514-3.4724-5.6789-3.4366-2.6752-0.036-4.61 1.0944-5.7326 3.4366-1.1764 2.3487-1.7556 6.2395-1.7138 11.678-0.0403 5.4447 0.53743 9.2996 1.7138 11.642 1.1226 2.301 3.0574 3.4245 5.7326 3.3827 2.6275 0.036 4.5443-1.0826 5.6789-3.3827 1.1703-2.3428 1.7556-6.1977 1.7138-11.642m-4.1322 0c0 3.2274-0.0896 5.6958-0.29873 7.3631-0.25081 1.7213-0.58513 2.851-1.045 3.4844-0.49565 0.5794-1.1285 0.8725-1.9168 0.8369-0.83607 0.036-1.4689-0.2932-1.9288-0.9691-0.50155-0.7115-0.83601-1.8766-1.0451-3.5978-0.20288-1.7153-0.29245-4.0641-0.29245-7.1181 0-3.1019 0.0896-5.4806 0.33454-7.1959 0.21498-1.7152 0.54335-2.9345 1.045-3.5979 0.45978-0.676 1.0867-1.0165 1.887-0.969 0.74645-0.051 1.3794 0.2505 1.875 0.8792 0.45977 0.6269 0.83606 1.7572 1.0451 3.4724 0.20287 1.7212 0.34037 4.1896 0.34037 7.411"/>
 <g fill="#fff">
  <path d="m128.76 501.98h8.0257l-3.8098-20.004h-4.6578z"/>
  <path d="m117.36 501.98h8.0436l0.66284-19.974h-4.807z"/>
  <path d="m129.87 541.68h14.69l-6.2939-33.738h-9.1662z"/>
  <path d="m109.59 541.68h14.929l0.54948-33.786h-8.9095z"/>
  <path d="m98.6 503.38v2.8687h2.8604v9.969h6.5507v-9.8435h38.217v9.9511h6.5686v-9.7718h2.8604v-3.1735z"/>
  <path d="m146.91 404.28-3.5172-10.77h-32.551l-3.5172 10.77zm-3.6784-16.161c2.6812 0 4.8906 1.9244 5.3325 4.4526l4.2577 13.047c1.8153 1.3028 2.9977 3.4366 2.9977 5.8392v7.1837c0 1.9843-1.6063 3.5919-3.5888 3.5919v8.9708c0 0.9928-0.80624 1.7991-1.7974 1.7991h-3.5829c-0.99124 0-1.7974-0.8064-1.7974-1.7991v-8.9708h-35.871v8.9708c0 0.9928-0.80624 1.7991-1.7974 1.7991h-3.5829c-0.99125 0-1.7974-0.8064-1.7974-1.7991v-8.9708c-1.9766 0-3.5888-1.6077-3.5888-3.5919v-7.1837c0-2.4026 1.1824-4.5363 3.0037-5.8392l4.2576-13.047c0.44205-2.5282 2.6454-4.4526 5.3326-4.4526z"/>
  <path d="m47.22 57.93c0 2.3726-0.3762 3.9683-1.1226 4.7633-0.72854 0.78949-1.6421 1.1418-2.8185 1.0944h-2.09v-11.338h2.09c1.1405-0.0359 2.0542 0.31018 2.8185 1.064 0.71057 0.74032 1.0869 2.2114 1.1226 4.4166m268.98 21.916v-14.87c0.0475-1.8527 0.41785-3.1676 1.1704-3.9206 0.75241-0.75219 1.5526-1.1469 2.4304-1.1063 0.70467-0.0359 1.2958 0.26267 1.7198 0.84198 0.45382 0.57433 0.66288 1.6264 0.66288 3.1257v15.928h4.1084v-15.706c0-2.7254-0.50155-4.6677-1.4153-5.8572-0.97329-1.2435-2.3468-1.8168-4.1979-1.8168-0.87785 0-1.7138 0.22008-2.508 0.71154-0.75241 0.43703-1.4271 1.1063-1.9706 1.9783v-10.19h-4.1024v30.881zm-12.17-3.2573c-0.53743 0.0359-1.0869-0.13537-1.5884-0.48455-0.4956-0.35904-0.91964-1.1113-1.2601-2.301-0.33455-1.1537-0.49559-2.9585-0.49559-5.3371 0-2.4265 0.12539-4.1956 0.4062-5.4207 0.29873-1.2012 0.6747-1.9903 1.2242-2.3428 0.50155-0.39984 1.0869-0.56757 1.7616-0.53198 0.49561 0 1.039 0.0359 1.5407 0.17975 0.54926 0.13537 1.1764 0.39983 1.9348 0.78949l1.26-3.3468c-0.67474-0.34739-1.4392-0.66407-2.2632-0.9267-0.84193-0.26939-1.7675-0.39983-2.7289-0.39983-2.4662-0.0359-4.3592 0.9267-5.5654 2.8209-1.2241 1.9423-1.8094 4.9845-1.8094 9.1801 0 3.2692 0.34037 5.7255 1.0151 7.4586 0.62105 1.7213 1.5048 2.8689 2.5916 3.4844 1.0928 0.60312 2.3527 0.91993 3.7262 0.87246 0.96737 0 1.893-0.11878 2.723-0.39983 0.83602-0.25774 1.5884-0.55568 2.311-0.95552l-1.26-3.2632c-0.75833 0.34739-1.3855 0.57429-1.881 0.74202-0.55539 0.13537-1.0987 0.18468-1.6421 0.18468m-16.565-26.913c0 0.87927 0.29872 1.584 0.80606 2.1577 0.54335 0.53198 1.2062 0.8488 2.0482 0.8488 0.84194 0 1.5107-0.31691 2.0482-0.8488 0.50765-0.57429 0.79424-1.2791 0.79424-2.1577 0-0.88434-0.28664-1.5891-0.79424-2.1634-0.53744-0.5252-1.2062-0.84202-2.0482-0.84202-0.84197 0-1.5048 0.31691-2.0482 0.84202-0.50765 0.57429-0.80606 1.2791-0.80606 2.1634m-1.7138 7.2377v3.5201h2.52v19.412h4.0964v-22.932zm-2.3288 12.915v-2.5102c0.0541-3.4843-0.45381-6.1797-1.5407-8.0324-1.051-1.8407-2.8484-2.8209-5.4519-2.8209-2.5558 0-4.4368 0.98089-5.6908 2.9583-1.2121 1.9903-1.8034 5.1101-1.8034 9.3893 0.0475 3.1377 0.41786 5.5702 1.2182 7.1957 0.7524 1.6738 1.7556 2.8209 2.9798 3.4546 1.2062 0.54888 2.5558 0.86569 3.9352 0.81827 1.1764-0.0507 2.293-0.21516 3.35-0.5201 0.99717-0.35232 1.887-0.70477 2.5499-1.0995l-1.2183-3.2274c-0.7942 0.40656-1.5407 0.70473-2.2572 0.93176-0.7524 0.22009-1.475 0.31019-2.1796 0.31019-0.80014 0.0359-1.5048-0.0847-2.096-0.31019-0.627-0.26267-1.1226-0.89621-1.5048-1.8586-0.37038-1.0165-0.63291-2.558-0.66879-4.6797zm-7.0702-9.8793c1.1287-0.0359 1.9586 0.39983 2.4184 1.3689 0.50765 0.97412 0.76441 2.7852 0.80015 5.4746h-6.491c0.0828-1.9903 0.26289-3.4843 0.54926-4.4466 0.29245-0.98094 0.67469-1.6433 1.1285-1.9483 0.45973-0.31019 1.0151-0.48957 1.5944-0.44892m-12.498 0.66919c0.29872 0 0.66288 0.0358 1.039 0.0847 0.37621 0.0847 0.84194 0.26267 1.3496 0.48451l0.8719-4.1835c-0.42413-0.1914-0.79419-0.27433-1.1704-0.40656-0.3762-0.0847-0.84194-0.13537-1.3853-0.13537-1.1705 0.0507-2.1378 0.39984-2.8424 1.1469-0.71062 0.74036-1.2182 1.7274-1.5884 2.8748l-0.68079-3.574h-2.8424v22.932h4.1024v-12.963c0-1.8527 0.20915-3.3588 0.71057-4.5004 0.46587-1.1537 1.2958-1.7212 2.4364-1.7631m-13.34 0c0.29873 0 0.66879 0.0359 1.039 0.0847 0.38829 0.0847 0.85398 0.26267 1.3496 0.4845l0.87176-4.1835c-0.40621-0.1914-0.78219-0.27432-1.1704-0.40656-0.3762-0.0847-0.84193-0.13536-1.3855-0.13536-1.1704 0.0507-2.1318 0.39983-2.8364 1.1469-0.71652 0.74037-1.2122 1.7274-1.5944 2.8748l-0.66878-3.574h-2.8484v22.932h4.1024v-12.963c0-1.8527 0.20915-3.3588 0.71061-4.5003 0.45974-1.1537 1.3017-1.7212 2.4304-1.7631m-11.411 9.2099v-2.5102c0.0403-3.4843-0.46582-6.1797-1.5526-8.0324-1.051-1.8407-2.8544-2.8209-5.446-2.8209-2.5558 0-4.4308 0.98089-5.6908 2.9583-1.2122 1.9903-1.7974 5.11-1.7974 9.3893 0.0359 3.1377 0.41203 5.5702 1.2062 7.1957 0.7644 1.6738 1.7616 2.8209 2.9738 3.4546 1.2242 0.54888 2.5558 0.86569 3.9352 0.81827 1.1764-0.0507 2.311-0.21516 3.35-0.5201 1.0092-0.35231 1.881-0.70477 2.5558-1.0995l-1.2121-3.2274c-0.78828 0.40656-1.5526 0.70473-2.2632 0.93176-0.7524 0.22009-1.463 0.31019-2.1676 0.31019-0.80015 0.0359-1.5167-0.0847-2.096-0.31019-0.63291-0.26267-1.1347-0.89621-1.5108-1.8586-0.38202-1.0165-0.63304-2.558-0.67469-4.6797zm-7.0822-9.8793c1.1287-0.0359 1.9706 0.39983 2.4304 1.3689 0.50765 0.97412 0.75241 2.7852 0.80015 5.4746h-6.4969c0.0896-1.9903 0.25079-3.4843 0.54334-4.4466 0.28663-0.98089 0.6747-1.6433 1.1405-1.9483 0.45978-0.31018 0.99721-0.48957 1.5825-0.44892m-18.529 14.17c0 1.8049 0.42413 3.2992 1.2121 4.4107 0.84193 1.1469 2.1378 1.7035 3.8994 1.7512 0.71057 0 1.4212-0.0847 2.09-0.26939 0.71062-0.16944 1.3855-0.42359 2.096-0.74032l-1.0451-3.1676c-0.45973 0.16943-0.88377 0.34738-1.26 0.3949-0.34037 0.0847-0.70471 0.13537-1.051 0.13537-0.66875 0-1.1287-0.22726-1.4152-0.70478-0.29873-0.45402-0.42413-1.0995-0.42413-1.996v-13.495h4.5204v-3.5201h-4.5204v-4.8649h-4.1024v4.8649h-2.6388l-0.38202 3.5201h3.0216zm-12.176 6.162c1.2242 0 2.311-0.21516 3.4097-0.69294 1.0331-0.53193 1.9109-1.2858 2.5916-2.3369 0.66879-1.0165 0.99717-2.3906 1.0451-4.0641-0.0475-1.4112-0.2929-2.6117-0.83603-3.4843-0.54334-0.91993-1.2242-1.6315-2.0124-2.2053-0.78832-0.57433-1.5885-1.0521-2.4364-1.5061-0.90764-0.43704-1.6721-0.9267-2.293-1.4587-0.62701-0.4845-0.91969-1.0995-0.97334-1.8408 0-0.79455 0.26289-1.4163 0.71062-1.8527 0.45973-0.48962 1.0928-0.70477 1.8094-0.70477 0.66283 0 1.3853 0.0847 2.096 0.29808 0.70466 0.26939 1.5048 0.62176 2.3826 1.1469l1.3794-3.2992c-0.50157-0.40656-1.254-0.80132-2.2154-1.2079-1.0033-0.38773-2.2572-0.55569-3.7322-0.60988-0.96147 0-1.9228 0.18467-2.926 0.53869-1.0092 0.38818-1.8512 1.0521-2.5021 1.9842-0.72852 0.91992-1.0629 2.1993-1.0987 3.8369 0.0359 1.9783 0.59127 3.4306 1.5407 4.3629 0.97334 0.92669 2.0602 1.6789 3.2306 2.2532 1.0032 0.48962 1.8452 1.0046 2.508 1.6315 0.72262 0.57429 1.051 1.4163 1.0987 2.4743 0 1.0165-0.29245 1.7631-0.80624 2.2412-0.53743 0.53704-1.2957 0.7522-2.2154 0.7522-0.62105 0-1.3376-0.0359-2.0482-0.21516-0.71653-0.18467-1.5048-0.53704-2.3886-1.0165l-1.3435 3.299c0.59122 0.39983 1.3794 0.7539 2.3945 1.1181 1.0032 0.34066 2.2154 0.50822 3.6307 0.55568m-17.443 0c3.0216 0 5.2011-1.2723 6.5507-3.8788 1.3316-2.5998 2.0004-6.5743 1.9586-12.001 0.0403-5.4148-0.62697-9.3952-1.9586-11.989-1.3496-2.6058-3.5292-3.8848-6.5507-3.8848-2.9977 0-5.1713 1.2791-6.5208 3.8848-1.3317 2.5938-2.0064 6.5742-1.9706 11.989-0.0359 5.4267 0.63901 9.4012 1.9706 12.001 1.3496 2.6058 3.5232 3.8788 6.5208 3.8788m1.2301-37.001c0 0.74713 0.24498 1.4112 0.74036 1.8945 0.46586 0.53198 1.0928 0.79456 1.8154 0.79456 0.70467 0 1.3257-0.26267 1.7914-0.79456 0.50764-0.4845 0.76423-1.1469 0.76423-1.8945 0-0.76407-0.25664-1.4095-0.76423-1.9064-0.46582-0.52521-1.0869-0.78949-1.7914-0.78949-0.72263 0-1.3496 0.26267-1.8154 0.78949-0.49561 0.49638-0.74036 1.1418-0.74036 1.9064m-1.2301 33.26c-0.95538 0.0507-1.7496-0.3048-2.3767-1.0165-0.62105-0.7539-1.0808-1.9782-1.3794-3.7473-0.3341-1.7572-0.45381-4.2435-0.45381-7.3751 0-3.1257 0.12002-5.5941 0.45381-7.3631 0.29873-1.7692 0.75832-3.0004 1.3794-3.7474 0.627-0.70478 1.4212-1.0572 2.3767-1.0165 0.97329-0.0358 1.7616 0.31019 2.4005 1.0165 0.62105 0.74708 1.0869 1.9782 1.3855 3.7474 0.32829 1.769 0.45382 4.2374 0.45382 7.3631 0 3.1316-0.1254 5.618-0.45382 7.3751-0.29872 1.769-0.76441 2.9942-1.3855 3.7473-0.63901 0.71154-1.4271 1.064-2.4005 1.0165m-6.3118-33.26c0 0.74713 0.25081 1.4112 0.75833 1.8945 0.46581 0.53198 1.0869 0.79456 1.7974 0.79456 0.70467 0 1.3317-0.26267 1.7855-0.79456 0.51948-0.4845 0.76441-1.1469 0.76441-1.8945 0-0.76407-0.24453-1.4095-0.76441-1.9064-0.45381-0.52521-1.0808-0.78949-1.7855-0.78949-0.71057 0-1.3316 0.26267-1.7974 0.78949-0.50766 0.49638-0.75833 1.1418-0.75833 1.9064m-24.083 36.565v-10.842l5.4459 10.842h4.7294l-6.8194-12.736 6.288-10.196h-4.5264l-5.1175 8.9529v-16.902h-4.0964v30.881zm-13.92-30.17c0 0.87923 0.29872 1.584 0.79419 2.1577 0.55538 0.53193 1.2182 0.84875 2.0602 0.84875 0.83011 0 1.5048-0.31691 2.0482-0.84875 0.50766-0.57433 0.79424-1.2791 0.79424-2.1577 0-0.88438-0.28663-1.5891-0.79424-2.1634-0.54334-0.52516-1.2182-0.84198-2.0482-0.84198-0.84193 0-1.5048 0.31691-2.0602 0.84198-0.49561 0.57433-0.79419 1.2791-0.79419 2.1634m-1.7079 7.2377v3.5201h2.5021v19.412h4.1084v-22.932zm-1.8751 19.191c-0.45377 0.13537-0.84193 0.16944-1.1703 0.16944-0.37621 0-0.6331-0.0847-0.78828-0.34739-0.17333-0.26267-0.26289-0.71665-0.26289-1.4163v-25.544h-4.1024v25.897c0.0403 1.8527 0.42412 3.1855 1.2242 4.0223 0.7404 0.79456 1.7019 1.1842 2.8424 1.1842 0.50151 0 1.0092-0.0507 1.5048-0.18468 0.50151-0.0677 1.0092-0.2035 1.5525-0.3828zm-21.915 3.7414c0.0359-0.25774 0.0828-0.48451 0.15585-0.74709 0.0895-0.26939 0.1254-0.53197 0.21497-0.7539 0.42995 0.61495 0.9256 1.0639 1.5885 1.4163 0.63287 0.34067 1.4332 0.52014 2.3468 0.52014 2.3468 0.0507 4.1502-0.95722 5.3684-3.0302 1.2121-2.0799 1.8392-5.343 1.8392-9.7896 0-2.9644-0.24498-5.2175-0.74649-6.8013-0.50765-1.6382-1.2242-2.7313-2.108-3.311-0.87172-0.62175-1.887-0.92669-3.0574-0.88434-1.0869 0-1.9646 0.26268-2.6752 0.7539-0.71058 0.43525-1.266 1.0639-1.672 1.8049v-10.059h-4.1084v30.881zm4.3532-19.806c1.1287-0.0359 1.893 0.52516 2.3468 1.7272 0.41785 1.1351 0.62696 3.2094 0.62696 6.1201 0 3.4125-0.25663 5.6956-0.83602 7.0224-0.63287 1.2858-1.5943 1.8408-3.0156 1.8049-0.41785 0-0.79424-0.0359-1.1704-0.17258-0.38202-0.13537-0.71057-0.3048-1.051-0.56756v-11.607c0-1.0571 0.25079-2.0201 0.70466-2.9165 0.50765-0.88434 1.3078-1.3621 2.3946-1.4112m-26.197-3.1257v15.7c0 2.5102 0.46587 4.4107 1.3435 5.7316 0.9256 1.2791 2.3468 1.9364 4.3174 1.9364 1.0032 0 1.881-0.2694 2.6812-0.78272 0.79423-0.48962 1.4571-1.2435 2.0005-2.2471l0.71062 2.5939h2.8544v-22.932h-4.1084v14.995c0 1.7272-0.32828 2.9524-0.96146 3.7532-0.63306 0.78949-1.4212 1.1419-2.3826 1.1419-0.79423 0.0507-1.3794-0.30481-1.7556-0.96225-0.41786-0.66918-0.59109-1.8109-0.59109-3.4544v-15.473zm-4.2457 9.6582c0-3.7115-0.54339-6.3053-1.5884-7.8473-1.0451-1.5485-2.4722-2.301-4.3234-2.2592-1.2898 0.0507-2.3289 0.34739-3.129 0.9267-0.75837 0.61499-1.3496 1.3333-1.7258 2.2412l-0.74649-2.7193h-2.8484v30.869h4.0964v-10.005c0.42995 0.40656 0.88377 0.65735 1.4332 0.88434 0.53743 0.22009 1.1704 0.29808 1.8333 0.29808 2.2632-0.0359 3.989-1.0927 5.1952-3.2153 1.1764-2.1097 1.8034-5.1697 1.8034-9.174m-7.1598-6.5324c1.1287 0 1.881 0.5794 2.3468 1.6738 0.42412 1.147 0.63291 2.9165 0.63291 5.2952 0 2.9226-0.29873 5.0323-0.88972 6.4069-0.58513 1.3147-1.5943 1.9842-3.0156 1.9842-0.41203 0-0.80014-0.0507-1.1644-0.1914-0.34037-0.0847-0.72263-0.25057-1.0151-0.51333v-10.369c0-1.069 0.26289-2.032 0.72853-2.8746 0.49561-0.88434 1.2958-1.3621 2.3767-1.4112m-11.376 9.7896v-2.5102c0.0542-3.4843-0.45381-6.1797-1.5407-8.0325-1.051-1.8407-2.8544-2.8209-5.4579-2.8209-2.5558 0-4.4309 0.98093-5.6849 2.9584-1.2182 1.9902-1.8034 5.11-1.8034 9.3893 0.0475 3.1377 0.41786 5.5702 1.2183 7.1957 0.75241 1.6738 1.7556 2.8209 2.9738 3.4546 1.2121 0.54888 2.5558 0.8657 3.9412 0.81827 1.1703-0.0507 2.293-0.21515 3.344-0.52014 1.0033-0.35232 1.887-0.70473 2.5558-1.0995l-1.2182-3.2274c-0.79423 0.40655-1.5407 0.70477-2.2692 0.9318-0.74649 0.22009-1.463 0.31019-2.1676 0.31019-0.80014 0.0359-1.5048-0.0847-2.096-0.31019-0.62696-0.26267-1.1226-0.89621-1.5048-1.8586-0.38203-1.0165-0.63901-2.558-0.66879-4.6798zm-7.0822-9.8792c1.1347-0.0359 1.9706 0.39983 2.4304 1.3689 0.50765 0.97412 0.76441 2.7852 0.80015 5.4746h-6.497c0.0896-1.9903 0.25662-3.4844 0.54943-4.4466 0.29873-0.98094 0.68079-1.6434 1.1346-1.9483 0.45978-0.31018 1.0033-0.48962 1.5825-0.44896m-10.695-2.0201c0-3.1914-0.75241-5.4805-2.2154-6.897-1.463-1.4044-3.6366-2.1097-6.5387-2.0679h-6.0611v30.881h4.3472v-12.485h2.0602l5.0638 12.485h4.6518l-5.6192-13.316c1.2242-0.62176 2.2214-1.5891 3.0156-3.0063 0.8301-1.3688 1.26-3.2572 1.2957-5.5941"/>
 </g>
 <path d="m103.8 412.38c0-2.4802 2.0064-4.4884 4.4846-4.4884s4.4846 2.0082 4.4846 4.4884c0 2.4803-2.0064 4.4885-4.4846 4.4885s-4.4846-2.0082-4.4846-4.4885" fill="#164194"/>
 <path d="m141.47 412.38c0-2.4802 2.0064-4.4884 4.4846-4.4884s4.4846 2.0082 4.4846 4.4884c0 2.4803-2.0064 4.4885-4.4846 4.4885-2.4781 0-4.4846-2.0082-4.4846-4.4885" fill="#164194"/>
</svg>
