<?xml version="1.0" encoding="UTF-8"?>
<!-- Created with Inkscape (http://www.inkscape.org/) -->
<svg width="470mm" height="310mm" version="1.1" viewBox="0 0 470 310" xml:space="preserve" xmlns="http://www.w3.org/2000/svg"><rect x="3.8045" y="3.5461" width="462.7" height="302.87" ry="26.851" fill="#fff" stroke="#818181" stroke-linecap="round" stroke-linejoin="round" stroke-width="7.3"/><path d="m241.87 293.45c-2.5929-0.58093-5.098-1.6088-5.098-2.0918 0-0.8715 1.3383-5.1428 1.6113-5.1428 0.13589 0 1.3533 0.32159 2.7054 0.71465 3.0314 0.88125 6.8287 0.65372 8.0864-0.48453 1.268-1.1475 1.7773-3.4146 1.7801-7.924l2e-3 -3.9258-1.2779 1.368c-1.5281 1.6359-3.0446 2.2722-5.4148 2.2722-3.6547 0-6.2697-2.1106-7.7247-6.2346-1.1394-3.2294-1.6695-10.443-1.1463-15.598 1.0162-10.013 4.1427-14.254 10.53-14.284 2.4131-0.0111 2.9262 0.15001 4.4995 1.4134l1.7758 1.426 0.27445-1.0935c0.24581-0.97938 0.5049-1.0935 2.4825-1.0935h2.2081l-8e-3 19.616c-8e-3 21.405-0.25477 24.166-2.4524 27.487-1.6642 2.5148-4.8291 3.8823-8.8442 3.8214-1.7067-0.0259-3.5021-0.13649-3.9897-0.24574zm6.6435-21.938c2.1992-1.7299 2.4442-3.0474 2.4442-13.143v-9.2563l-1.731-0.78058c-1.4553-0.65627-1.9837-0.69721-3.3173-0.25706-3.3729 1.1131-4.4737 4.9449-4.1664 14.502 0.21308 6.6248 0.65036 8.2167 2.5393 9.2441 1.6196 0.88091 2.8312 0.79251 4.2312-0.30871zm-105.58 9.3769c-6.5637-1.3432-9.4325-7.0643-9.4438-18.834-9e-3 -9.1341 1.2775-14.389 4.2501-17.361 3.8241-3.8241 10.018-3.8045 13.725 0.0434 2.4755 2.5699 3.3673 5.8621 3.6406 13.439l0.21184 5.8738h-15.631v2.1361c0 2.8705 1.1578 6.5982 2.451 7.8914 1.3664 1.3665 4.9514 1.4394 8.2944 0.16879 1.2827-0.48751 2.366-0.88649 2.4073-0.88661 0.30727-9.1e-4 1.5092 4.5944 1.3263 5.071-0.31197 0.81297-4.4213 2.3033-7.1645 2.5983-1.2191 0.13111-3.0491 0.068-4.0667-0.14023zm6.3564-25.454c-0.34799-4.1168-1.3872-6.8322-2.8238-7.3783-3.9091-1.4862-6.0024 0.96897-6.639 7.787l-0.26958 2.8869h10.011zm51.566 25.465c-2.5608-0.44041-6.3064-2.1927-6.0606-2.8353 0.10392-0.27163 0.55493-1.5251 1.0022-2.7854l0.8133-2.2915 1.2164 0.62905c0.66904 0.34597 2.2219 0.84468 3.4508 1.1082 4.4155 0.94695 7.0176-1.1311 6.5551-5.2348-0.27505-2.4402-1.2746-3.5452-5.952-6.5797-4.2009-2.7253-5.7583-4.753-6.3112-8.2169-0.80378-5.0354 0.93318-9.4562 4.5233-11.513 2.5774-1.4763 8.0001-1.5271 10.964-0.10277 3.3338 1.6021 3.2599 1.4531 2.1771 4.3867-0.53206 1.4415-1 2.6639-1.0398 2.7165-0.0399 0.0526-1.044-0.39625-2.2316-0.99743-4.0767-2.0639-7.6242-1.2096-8.3478 2.0101-0.48858 2.1742 0.64492 3.5943 5.4699 6.853 4.1262 2.7868 4.7617 3.3968 5.9296 5.6919 1.1306 2.2217 1.305 3.0453 1.2856 6.0687-0.0237 3.6839-0.8639 6.0686-2.9516 8.3773-1.9901 2.2008-6.5785 3.388-10.493 2.7148zm99.749 0.0255c-2.177-0.43356-3.3434-1.148-4.5818-2.8065-2.003-2.6823-2.7907-7.1055-2.0694-11.621 1.0409-6.5158 3.4436-8.575 10.546-9.0386l4.3064-0.28106 0.1463-1.5398c0.25215-2.6539-0.37316-5.3769-1.4916-6.4953-0.84738-0.84738-1.5182-1.0526-3.4405-1.0526-1.3133 0-3.3671 0.29707-4.564 0.66016-1.1969 0.36309-2.318 0.66232-2.4915 0.66496-0.31418 5e-3 -1.6796-4.1353-1.6796-5.0927 0-0.72562 4.4037-2.0073 7.9054-2.3009 3.757-0.31496 7.3602 0.64149 9.0461 2.4013 2.5516 2.6633 2.7105 3.7947 2.8968 20.624l0.17055 15.405h-4.398l-0.51949-2.0631-0.5195-2.0631-1.0974 1.615c-1.716 2.5253-4.8034 3.6538-8.1649 2.9844zm6.1986-7.0468c1.6037-1.6037 2.2186-3.864 2.2218-8.1662l2e-3 -3.4356h-2.6818c-5.0258 0-6.416 1.7636-6.1134 7.7556 0.20142 3.9887 0.9813 5.1002 3.5784 5.1002 1.3173 0 2.0425-0.30386 2.9926-1.254zm-278.44 6.3507c-1.7894-0.97244-2.7058-3.3873-2.7058-7.1303 0-5.3672 1.6784-7.1591 7.1307-7.6134l2.8208-0.23505-0.20535-2.1371c-0.11294-1.1754-0.45918-2.443-0.76942-2.8168-0.65117-0.78461-4.1789-0.92753-5.9812-0.2423-1.0147 0.38577-1.2011 0.30394-1.5804-0.69382-0.82292-2.1644-0.56466-2.7075 1.5394-3.2374 4.6172-1.1626 8.489-0.28232 9.8513 2.2398 0.68663 1.2712 0.81931 2.9039 0.95753 11.782l0.16045 10.307h-1.593c-1.2814 0-1.593-0.16835-1.593-0.86045 0-1.1228-0.81525-1.6146-1.1651-0.70282-0.68551 1.7864-4.6295 2.5562-6.8669 1.3402zm5.7927-4.2877c1.0405-1.1168 1.477-2.9953 1.2741-5.4832l-0.14303-1.7537-1.9587 0.0438c-2.5922 0.0579-3.5826 1.2318-3.5826 4.2459 0 1.2081 0.20651 2.5824 0.4589 3.054 0.63226 1.1814 2.806 1.1226 3.9514-0.10681zm13.429 4.3917c-2.432-1.4118-2.5343-1.9268-2.6846-13.513l-0.13937-10.75h4.0468v9.5602c0 5.3436 0.19009 9.9154 0.43099 10.366 0.59696 1.1154 1.6057 1.4159 2.8502 0.84884 1.8182-0.82844 2.0385-2.0935 2.0385-11.708v-9.0669h3.9897v24.382h-1.341c-1.1403 0-1.3815-0.2024-1.6114-1.3523l-0.27045-1.3523-1.1644 1.3948c-0.91466 1.0956-1.5912 1.4353-3.1541 1.5834-1.1738 0.11124-2.4002-0.0498-2.9909-0.39267zm279.21-0.21415c-0.83603-0.4263-1.9332-1.3382-2.4382-2.0263-0.89774-1.2235-0.92083-1.777-1.0402-24.936l-0.12208-23.685h5.7537l0.12669 21.876c0.1368 23.623 0.14597 23.711 2.4112 23.142 0.84368-0.21175 1.0676-0.0439 1.2932 0.96893 0.44792 2.0115 0.6215 2.7333 0.86754 3.6075 0.19117 0.67926-0.12783 0.92198-1.7479 1.3299-2.6556 0.6687-3.3192 0.63263-5.104-0.27747zm22.62 0.21581c-2.2725-1.1679-2.9242-2.7225-2.9242-6.9755 0-3.2862 0.15072-4.1283 0.92648-5.1763 1.2437-1.6802 2.8591-2.4053 5.9907-2.6893l2.6139-0.23702v-2.1233c0-2.9882-0.7929-3.6701-3.9581-3.404-1.3584 0.11416-2.7831 0.34265-3.166 0.50775-0.52422 0.22602-0.82068-0.10537-1.2-1.3414-0.2771-0.90289-0.41779-1.7808-0.31264-1.951 0.10516-0.17014 1.0885-0.56058 2.1852-0.86763 2.7426-0.76788 7.0383-0.41183 8.2694 0.6854 1.9553 1.7427 2.172 3.1093 2.172 13.701v9.9886h-1.3215c-1.0408 0-1.3807-0.23601-1.6004-1.1113l-0.27892-1.1113-1.5182 1.333c-1.6689 1.4653-3.9467 1.7646-5.8776 0.7723zm5.688-4.5971c0.72686-0.92405 0.91879-1.8038 0.91879-4.2114v-3.0433h-1.3091c-2.1041 0-3.4953 0.8769-4.048 2.5515-0.55473 1.6808-0.30193 4.2634 0.51353 5.2459 0.86417 1.0413 2.9003 0.75975 3.9247-0.54264zm13.324 4.3363c-1.1842-0.62978-1.795-1.4315-2.6174-3.4356-0.92585-2.2562-1.0747-3.3425-1.087-7.9338-0.0239-8.9106 1.7347-12.532 6.2987-12.97 2.4305-0.23354 5.3921 0.54235 5.3921 1.4127 0 0.31043-0.21799 1.1898-0.48443 1.9541-0.41728 1.197-0.60425 1.3255-1.3487 0.92712-0.47534-0.25439-1.6039-0.40112-2.5079-0.32606-1.3699 0.11374-1.7765 0.39488-2.4413 1.688-1.1436 2.2243-0.94196 12.494 0.2819 14.36 0.69946 1.0667 1.0428 1.2144 2.4382 1.0487 0.89323-0.10604 1.9494-0.33706 2.347-0.51336 0.54635-0.24225 0.84414 0.0271 1.2191 1.1027 0.70819 2.0315 0.66421 2.1526-1.0412 2.8651-2.0963 0.8759-4.5958 0.80647-6.4491-0.17914zm34.636 0.0986c-1.9546-1.369-2.2683-3.0452-2.2683-12.119v-8.437h-1.6033c-1.4463 0-1.5771-0.0976-1.336-0.99743 0.14702-0.54859 0.27003-1.3465 0.27336-1.7732 4e-3 -0.5651 0.36722-0.77578 1.336-0.77578h1.3299v-5.3197h3.9897v5.3197h4.433v3.5464h-4.433v8.1469c0 9.014 0.0964 9.3343 2.7278 9.067 1.2199-0.12395 1.4902 0.0245 1.7514 0.96168 0.52601 1.8879 0.43925 2.1151-0.9989 2.6165-1.9895 0.69354-4.005 0.60201-5.2017-0.23622zm13.422-0.0952c-2.2909-1.0756-3.6462-3.6869-4.1992-8.0907-0.49165-3.9155 0.14599-10.513 1.2295-12.722 2.3395-4.769 9.194-4.9212 11.454-0.25419 0.59168 1.2218 0.88266 3.0209 1.0122 6.2586l0.18185 4.5439h-10.188l0.21746 2.1057c0.1196 1.1581 0.55653 2.7042 0.97097 3.4356 0.69833 1.2325 0.93002 1.3269 3.1637 1.2886 1.3256-0.0227 2.821-0.18562 3.323-0.36205 0.7161-0.25166 1.0266-0.0711 1.4407 0.8379 0.78353 1.7197 0.65679 2.2452-0.69115 2.8661-2.1718 1.0003-5.8896 1.0438-7.9156 0.0926zm5.8306-13.844c0.16208-0.26227 0.15745-1.5753-0.0103-2.9179-0.77734-6.2216-5.9923-5.1001-5.9944 1.2891l-6.9e-4 2.1057h2.8553c1.5704 0 2.9879-0.21458 3.15-0.47684zm-357.99 3.8016v-10.418h-1.3299c-1.256 0-1.3299-0.0985-1.3299-1.7732 0-1.6747 0.07388-1.7732 1.3299-1.7732 1.3015 0 1.3299-0.0477 1.3299-2.2308 0-2.6781 0.86331-4.9283 2.2683-5.9124 1.9952-1.3975 8.3232-0.61992 7.7213 0.94881-0.13237 0.34495-0.3608 1.1058-0.50764 1.6909-0.26444 1.0536-0.74031 1.115-3.114 0.40194-0.27678-0.0831-0.92511 0.14431-1.4407 0.50547-0.71528 0.501-0.9375 1.1235-0.9375 2.6264v1.9697h3.9897v3.5464h-3.9897v20.835h-3.9897zm23.495-15.121v-25.538l6.5387 0.17804c7.1154 0.19373 9.6044 0.87322 12.159 3.3193 4.1227 3.948 5.0394 15.967 1.7534 22.989-2.0445 4.369-5.6198 6.4145-11.212 6.4145h-2.5894v18.175h-6.6496zm12.176 0.96985c1.9774-0.82622 2.8507-2.6161 3.331-6.8271 0.47159-4.1348-0.0434-8.8529-1.1816-10.824-1.0438-1.8082-3.3386-2.9954-5.7914-2.9963l-1.884-6.9e-4v21.279h2.0091c1.105 0 2.6877-0.28351 3.517-0.63003zm16.639 8.635v-15.933l-3.7681-0.27264-0.26396-5.5413h3.9012l0.2939-3.8235c0.54577-7.1003 3.0107-9.8973 8.7348-9.9116 2.6374-7e-3 7.061 1.032 7.061 1.6578 0 0.19755-1.3758 4.9117-1.5459 5.2973-0.0221 0.0502-0.92385-0.21323-2.0038-0.58531-2.902-0.99982-4.7743-0.51552-5.5943 1.4471-0.35968 0.86083-0.59389 2.4947-0.52048 3.6309l0.13349 2.0657 6.4279 0.2605v5.7241h-6.6496v31.918h-6.2063zm46.547-0.0255v-15.959h-3.5464v-5.763h9.7527v37.681h-6.2063zm15.516 0v-15.959h-3.9897v-5.712l3.7681-0.27263 0.25769-3.9897c0.44803-6.9366 2.8381-9.531 8.7799-9.531 2.854 0 6.6997 1.1237 6.6997 1.9576 0 0.43947-1.2856 4.6668-1.5219 5.0045-0.035 0.05-0.85389-0.19063-1.8198-0.53467-2.5352-0.90298-3.6496-0.80622-4.8795 0.42366-0.93362 0.93363-1.0881 1.5001-1.0881 3.9898v2.9016h6.2063v5.763h-6.2063v31.918h-6.2063zm43.444 0.0255v-15.933l-3.7681-0.27264-0.26396-5.5413h10.238v37.681h-6.2063zm43.444-2.907v-18.84h4.3551l0.29958 1.7732c0.16477 0.97527 0.44402 1.7732 0.62056 1.7732 0.17653 0 0.77717-0.61703 1.3347-1.3712 3.2265-4.3641 10.687-3.8451 13.339 0.92789l1.1083 1.9949 0.13124 16.291 0.13123 16.291h-6.2471v-14.873c0-12.186-0.11716-15.099-0.64856-16.127-1.0579-2.0458-2.9822-2.373-5.3498-0.9098-2.6886 1.6617-2.8677 2.7967-2.8677 18.176v13.733h-6.2063zm114.82 2.4382v-16.402h3.9897v10.275l1.3639-1.1477c2.5915-2.1806 6.4046-1.2123 7.6689 1.9474 0.58963 1.4736 0.71991 3.6026 0.71991 11.765v9.9654h-3.9898v-9.6541c0-8.0202-0.11679-9.8208-0.69009-10.639-0.89328-1.2753-2.0576-1.2483-3.6074 0.0838l-1.2438 1.0691-0.13526 9.5702-0.13526 9.5702h-3.9409zm50.537 4.2114v-12.191h1.3215c1.0491 0 1.3803 0.23458 1.6071 1.138l0.28562 1.138 1.2249-1.1736c2.6364-2.5258 7.0318-1.8496 8.4632 1.3019 0.72065 1.5867 0.82189 3.0365 0.83044 11.892l0.01 10.085h-3.9897v-9.6541c0-8.0202-0.11679-9.8208-0.69009-10.639-0.94052-1.3428-2.2297-1.2368-3.777 0.31056l-1.2958 1.2958v18.687h-3.9897zm-266.27-33.022c-2.5799-1.0411-3.2713-5.5198-1.2271-7.9492 1.8786-2.2325 5.2366-1.8036 6.6056 0.84372 2.1482 4.1542-1.3242 8.7416-5.3785 7.1055zm57.964-0.69541c-1.6048-1.3503-2.1234-3.4808-1.389-5.706 0.6509-1.9722 1.9538-2.9118 4.0379-2.9118 4.0856 0 5.7106 6.1828 2.3249 8.8459-1.5554 1.2235-3.3463 1.1413-4.9739-0.22821zm-55.462-33.443v-3.1031l29.48-0.01-1.441-1.1357c-2.3606-1.8605-3.7491-4.6929-3.9966-8.1534-0.19472-2.7215-0.0805-3.2985 1.1344-5.7298l1.351-2.7035h-6.5788v-5.3196h-10.196l-0.0159 3.8789-0.016 3.8789-1.1331-1.3299c-0.62321-0.73145-1.6564-2.4271-2.2959-3.7681-1.4946-3.134-1.6741-8.6152-0.363-11.083 0.92499-1.7408 2.4598-3.5464 3.0145-3.5464 0.20132 0 0.36603 1.5959 0.36603 3.5464v3.5464h10.639v-10.482l-7.0929-9.6883c-3.9011-5.3286-7.0929-9.8786-7.0929-10.111 0-0.23261 3.0287-7.4785 6.7305-16.102l6.7305-15.679h13.425l2.8889-15.906-1.5881-2.8399c-0.87347-1.5619-1.5881-2.9703-1.5881-3.1297 0-0.15943 0.65511-0.28988 1.4558-0.28988 1.455 0 1.4565-0.0023 2.7264-4.2295 1.3603-4.5278 4.7173-11.609 7.5567-15.941 0.959-1.4629 3.2484-4.1794 5.0875-6.0368 2.92-2.9488 4.0464-3.7216 8.8852-6.0954 3.4941-1.7142 7.1676-3.1301 9.9432-3.8326 2.421-0.61274 4.4832-1.1954 4.5827-1.2948 0.0994-0.09943 0.73858-1.7917 1.4204-3.7606 4.0992-11.838 12.352-18.621 24.302-19.975 6.9431-0.78653 11.435 0.81991 15.175 5.4272 5.9969 7.3869 5.0063 18.051-2.1855 23.527-3.4835 2.6521-7.4332 3.8771-12.12 3.759l-3.8772-0.09767-1.2538 1.9735c-2.4111 3.7948-5.5126 5.8358-11.447 7.533-3.8409 1.0984-6.2761 1.3464-14.787 1.5057-7.9415 0.14869-9.7915 0.52485-15.072 3.0647-5.2016 2.5017-9.7122 8.0454-10.501 12.906-0.24578 1.5145-0.20767 1.5672 1.1336 1.5672 0.76335 0 1.3879 0.08115 1.3879 0.18033 0 0.09918-0.58314 1.4801-1.2959 3.0686l-1.2959 2.8883 1.4062 7.7986 1.4062 7.7986 27.018-0.23415 0.3293-1.9298c0.68763-4.0298 4.3059-8.2287 8.2484-9.572 7.6873-2.6193 16.187 2.0316 17.614 9.6384l0.308 1.6418h13.471 13.471v-20.392h51.423v13.299h-8.4228v16.402h9.7527v51.423h11.049l0.12746-4.092 0.12747-4.092 1.2368 1.3214c0.68026 0.72674 1.8772 2.6147 2.6598 4.1956 2.367 4.7809 1.6973 8.7632-2.0846 12.396l-1.5904 1.5277v-2.9684-2.9684h-11.526v7.9795h-5.8317c-5.737 0-5.8191 0.0139-5.0558 0.85727 1.154 1.2752 1.9813 3.9565 1.9922 6.4573 0.012 2.7401-1.247 5.6456-3.4098 7.8687l-1.6173 1.6624h35.644v6.2063h-199.93zm65.166-2.8607c0-0.1105-0.89104-0.59506-1.9801-1.0768-6.0412-2.6723-10.576-7.5998-12.454-13.533l-0.99503-3.143-3.1463-0.13025c-1.7305-0.0716-3.1454 0.0281-3.1444 0.22165 1e-3 0.19355 0.48957 1.3132 1.0857 2.4881 0.5961 1.1749 1.2091 2.9716 1.3622 3.9927 0.4166 2.7781-1.1558 6.5835-3.8221 9.2498l-2.1319 2.1319h12.613c6.9372 0 12.613-0.0904 12.613-0.2009zm48.606-1.1643c-6.3781-2.588-11.114-8.1048-12.935-15.069-0.99654-3.811-0.70262-10.289 0.62206-13.711 0.51921-1.341 0.94411-2.5878 0.94423-2.7707 1.3e-4 -0.18286-2.5931-0.33247-5.7627-0.33247-3.1696 0-5.763 0.0623-5.763 0.13838 0 0.0761 0.37532 0.92394 0.83404 1.884 1.9949 4.1753 2.4076 11.073 0.94572 15.806-1.7121 5.543-6.2749 10.958-11.513 13.664l-2.4575 1.2694 37.238-6e-3zm36.869-0.74053c-2.4086-2.514-3.1757-4.349-3.197-7.647-0.0175-2.6989 0.29637-3.7438 2.2968-7.647 0.0937-0.18287-1.1492-0.33248-2.7619-0.33248-2.3972 0-2.9802 0.14157-3.1947 0.77578-0.14431 0.42668-0.97874 2.2604-1.8543 4.075-2.2704 4.7054-5.8758 8.4132-10.367 10.661l-3.5506 1.7771h24.221zm10.279-88.328v-7.9795h-27.928v15.959h27.928zm-204.92 47.34c-9.028-9.146-15.56-20.751-18.346-32.595-1.5394-6.545-1.9395-18.429-0.86604-25.723 2.2395-15.218 8.8147-27.915 20.035-38.687 3.8333-3.6803 8.9283-7.8209 9.1942-7.472 1.376 1.8055 2.0911 3.1901 1.7832 3.4524-0.21284 0.1813-1.7173 1.3671-3.3432 2.6351-4.1901 3.2678-10.851 10.417-13.757 14.765-4.5651 6.8307-7.376 13.375-9.285 21.616-1.2929 5.5818-1.6266 18.209-0.64508 24.406 1.9559 12.349 8.1911 24.427 17.725 34.334 1.8573 1.9299 3.3768 3.6381 3.3768 3.796s-0.58613 0.84862-1.3025 1.535l-1.3025 1.2479zm4.5969-6.8274c-6.4028-6.8435-10.766-14.068-13.58-22.488-2.0907-6.2541-2.8761-11.292-2.8761-18.448 0-19.705 8.1024-36.265 23.572-48.177 1.3834-1.0653 2.614-1.9368 2.7345-1.9368s0.66793 0.72611 1.2164 1.6136l0.99725 1.6136-1.2936 0.93113c-3.0675 2.208-7.716 6.5765-10.467 9.8363-5.3916 6.3889-8.9104 13.299-11.333 22.255-1.0859 4.015-1.1666 4.9567-1.1666 13.623 0 8.6478 0.0823 9.6134 1.1574 13.587 2.6304 9.7204 7.1625 17.598 14.684 25.522l3.0383 3.2012-1.0417 1.3181c-0.57293 0.72496-1.2731 1.3292-1.5558 1.3426-0.28278 0.0135-2.1216-1.6936-4.0863-3.7935zm5.4196-6.1105c-6.3179-6.7098-10.791-14.868-12.788-23.324-1.0241-4.3351-1.3888-14.732-0.68556-19.542 1.111-7.598 3.862-14.905 7.8589-20.874 2.584-3.859 8.2201-9.9017 11.817-12.669l2.6346-2.0272 1.2624 1.5144 1.2624 1.5144-1.4354 1.0718c-3.6416 2.7191-11.255 11.057-13.348 14.619-6.8512 11.656-8.4164 26.804-4.095 39.631 2.3341 6.9284 5.6422 12.338 10.812 17.682l3.2938 3.4043-1.2073 1.5829c-0.66402 0.87057-1.2638 1.5828-1.333 1.5828-0.0691 0-1.8907-1.8745-4.048-4.1656zm6.123-4.9169c-7.5708-8.0932-11.447-17.398-11.912-28.598-0.46803-11.26 2.7086-20.791 9.9412-29.828 2.3267-2.9072 8.3089-8.2836 9.2148-8.2816 0.24382 5.25e-4 0.89702 0.64584 1.4516 1.434l1.0083 1.4331-1.6732 1.2942c-3.262 2.5232-7.9851 7.7084-10.074 11.059-9.6482 15.48-7.6398 35.159 4.9633 48.632l2.71 2.897-1.1093 1.4175c-0.61013 0.7796-1.2715 1.4175-1.4697 1.4175-0.1982 0-1.5711-1.2943-3.0509-2.8762z"/></svg>
