<?xml version="1.0" encoding="utf-8"?>
<!-- Generator: Adobe Illustrator 15.0.2, SVG Export Plug-In . SVG Version: 6.00 Build 0)  -->
<!DOCTYPE svg PUBLIC "-//W3C//DTD SVG 1.1//EN" "http://www.w3.org/Graphics/SVG/1.1/DTD/svg11.dtd">
<svg version="1.1" id="Vrstva_1" xmlns="http://www.w3.org/2000/svg" xmlns:xlink="http://www.w3.org/1999/xlink" x="0px" y="0px"
	 width="1500px" height="1000px" viewBox="0 0 1500 1000" enable-background="new 0 0 1500 1000" xml:space="preserve">
<g>
	<path fill-rule="evenodd" clip-rule="evenodd" fill="#009FE3" d="M5,961.121V36.783C5,24.01,15.292,13.621,28.137,13.621h1441.716
		c12.773,0,23.209,10.389,23.209,23.162v924.338c0,12.799-10.436,23.183-23.209,23.183H28.137C15.292,984.304,5,973.92,5,961.121"/>
	<rect x="51.975" y="60.541" fill-rule="evenodd" clip-rule="evenodd" fill="#FFFFFF" width="1394.146" height="876.822"/>
	<path fill-rule="evenodd" clip-rule="evenodd" d="M1260.518,586.131l84.688-142.343v-38.182h-122.021v35.273h78.457
		l-85.094,146.096v34.43h125.745v-35.273H1260.518z M1137.677,621.404h40.677V469.529c0-24.094-4.585-41.542-14.116-52.327
		c-9.523-10.368-23.234-15.754-41.487-15.754c-9.963,0-19.503,2.052-28.241,6.632c-8.704,4.567-16.192,12.052-22.431,22.015
		l-6.611-24.488h-28.232v215.798h40.677V479.07c0-8.321,1.249-15.349,3.31-21.187c2.102-5.805,5.006-10.363,8.729-14.095
		c3.757-3.356,7.464-5.813,11.626-7.463c4.129-1.254,8.273-2.103,12.436-2.103c7.084,0,12.858,2.508,17.417,7.463
		c4.162,5.412,6.248,15.37,6.248,29.896V621.404z M888.686,527.219h102.883v-23.67c0-16.189-1.199-30.714-3.31-43.589
		c-2.474-12.863-6.23-23.635-11.617-32.369c-5.403-8.713-12.858-14.944-21.597-19.511c-8.679-4.58-19.908-6.632-32.767-6.632
		c-25.741,0-44.383,9.139-56.431,27.388c-12.048,18.684-17.855,48.157-17.855,88.817c0,22.432,2.482,40.686,7.066,54.784
		c4.559,14.142,10.342,24.932,17.822,32.792c7.464,7.894,16.193,13.297,25.733,16.176c9.574,2.879,19.503,4.129,29.896,4.129
		c11.642,0,22.837-1.646,33.196-4.923c10.384-3.343,19.072-6.644,25.303-10.392l-12.039-30.302
		c-15.771,7.869-30.267,11.617-43.962,11.617c-5.833,0-11.236-0.396-16.192-1.654c-4.981-0.845-9.135-3.302-12.892-7.886
		c-3.706-4.154-7.041-10.368-9.135-19.098C890.332,554.176,889.074,542.583,888.686,527.219z M921.443,434.222
		c5.809,0,10.764,0.849,14.529,2.904c3.724,2.102,7.033,5.416,9.532,9.97c2.507,4.585,4.585,11.212,5.842,19.528
		c1.249,8.687,1.646,19.072,2.043,31.947h-64.315c0.405-14.121,1.654-25.315,3.715-34.057c1.705-8.688,3.748-14.944,6.652-19.503
		c2.938-4.581,6.239-7.434,9.963-8.687C913.17,435.071,916.867,434.222,921.443,434.222z M761.252,586.975v33.197
		c0,16.15-2.921,26.949-8.337,33.18c-5.775,6.238-15.32,9.135-28.562,9.135c-6.235,0-12.892-0.844-20.777-2.094
		c-7.856-1.249-16.599-3.707-26.135-7.041l-9.966,32.369c7.894,2.904,17.003,5.809,27.793,8.747
		c10.815,2.447,21.605,3.706,31.985,3.706c26.122,0,44.788-6.645,56.811-19.916c11.634-13.711,17.426-34.472,17.426-63.084V405.606
		h-27.792l-4.981,15.771c-3.758-5.429-9.136-10.393-15.341-14.116c-6.666-3.761-14.526-5.813-23.243-5.813
		c-11.186,0-21.575,2.052-30.267,5.813c-8.73,4.133-16.189,10.363-22.424,19.08c-6.209,8.73-11.211,19.925-14.551,33.619
		c-3.301,13.694-4.951,30.301-4.951,49.807c0,18.676,1.253,34.473,4.158,46.917c2.904,12.85,6.632,22.812,12.043,30.697
		c5.378,7.886,11.583,13.289,19.072,16.598c7.062,3.335,15.345,4.981,24.083,4.981c11.187,0,19.904-2.06,26.94-6.23
		C751.264,598.576,756.677,593.206,761.252,586.975z M729.736,575.333c-11.618,0-19.528-4.956-23.652-15.341
		c-4.555-9.945-6.666-25.345-6.666-46.079c0-27.384,2.508-47.288,7.886-60.185c5.412-12.44,15.395-18.658,30.292-18.658
		c4.184,0,8.291,0.806,12.47,2.507c3.706,1.65,7.429,3.71,11.187,6.209v97.952c0,8.713-2.921,16.599-8.337,23.226
		C747.562,572.031,739.697,575.333,729.736,575.333z M517.668,527.219h102.895v-23.67c0-16.189-1.198-30.714-3.3-43.589
		c-2.482-12.863-6.235-23.635-11.622-32.369c-5.403-8.713-12.862-14.944-21.604-19.511c-8.688-4.58-19.9-6.632-32.762-6.632
		c-25.738,0-44.396,9.139-56.431,27.388c-12.043,18.684-17.853,48.157-17.853,88.817c0,22.432,2.508,40.686,7.062,54.784
		c4.56,14.142,10.334,24.932,17.819,32.792c7.463,7.894,16.201,13.297,25.737,16.176c9.562,2.879,19.503,4.129,29.896,4.129
		c11.638,0,22.824-1.646,33.192-4.923c10.389-3.343,19.076-6.644,25.311-10.392l-12.043-30.302
		c-15.771,7.869-30.268,11.617-43.961,11.617c-5.809,0-11.237-0.396-16.193-1.654c-4.989-0.845-9.135-3.302-12.896-7.886
		c-3.702-4.154-7.029-10.368-9.139-19.098C519.327,554.176,518.073,542.583,517.668,527.219z M550.442,434.222
		c5.809,0,10.791,0.849,14.514,2.904c3.735,2.102,7.041,5.416,9.543,9.97c2.504,4.585,4.585,11.212,5.83,19.528
		c1.254,8.687,1.659,19.072,2.056,31.947h-64.312c0.397-14.121,1.65-25.315,3.703-34.057c1.701-8.688,3.761-14.944,6.691-19.503
		c2.895-4.581,6.209-7.434,9.932-8.687C542.152,435.071,545.858,434.222,550.442,434.222z M422.19,440.431
		c2.904,0,6.64,0.448,10.363,0.857c3.753,0.844,8.313,2.499,13.272,4.555l8.734-39.415c-4.153-1.245-7.885-2.499-11.638-3.728
		c-3.71-0.856-8.291-1.254-13.693-1.254c-12.043,0-21.153,3.736-27.785,10.791c-7.062,7.463-12.444,16.598-16.201,26.991
		l-6.632-33.623h-28.246v215.798h40.686V499.4c0-17.029,2.508-31.121,7.062-42.345C402.692,445.843,410.974,440.431,422.19,440.431z
		 M305.555,536.759c0-13.702-1.651-25.312-5.404-34.059c-3.706-8.687-8.291-15.34-13.694-20.33
		c-5.387-4.956-10.79-8.717-16.598-11.187c-6.23-2.11-11.187-3.76-15.37-5.014c4.183-1.204,8.738-3.306,13.719-6.606
		c4.555-2.93,9.114-7.088,13.268-12.466c4.175-4.964,7.48-11.22,10.384-18.261c2.482-7.053,3.736-15.344,3.736-24.483
		c0-14.116-2.085-25.733-5.838-35.278c-4.107-9.561-9.532-17.025-16.594-22.808c-7.042-5.412-15.349-9.586-24.885-12.043
		c-9.536-2.098-19.502-3.356-30.292-3.356h-64.76v290.538h70.163c10.798,0,21.158-1.232,31.099-3.731
		c9.536-2.052,18.274-6.61,26.16-12.841c7.459-6.256,13.694-14.952,18.249-26.164C303.457,567.869,305.555,553.779,305.555,536.759z
		 M261.974,537.577c0,10.368-1.254,19.106-3.302,25.319c-2.507,6.23-5.412,11.195-8.738,14.538
		c-3.71,3.732-7.463,5.792-11.646,7.041c-4.555,1.25-8.283,1.655-11.993,1.655h-29.887v-99.999h29.887
		c4.964,0,9.544,0.819,14.099,2.073c4.154,1.65,7.885,4.559,11.187,8.265c2.908,3.752,5.416,9.14,7.488,15.796
		C261.121,518.91,261.974,527.219,261.974,537.577z M253.261,407.261c0,9.941-0.823,17.827-2.929,23.635
		c-2.052,6.231-4.956,10.393-7.86,13.293c-3.327,2.908-6.632,4.981-9.958,5.83c-3.735,0.802-6.666,1.254-9.122,1.254h-26.983
		v-85.951h25.333c9.519,0,17.404,2.93,23.238,9.135C250.332,380.691,253.261,391.481,253.261,407.261z"/>
</g>
</svg>
