<?xml version="1.0" encoding="UTF-8" standalone="no"?>
<!-- Created with Inkscape (http://www.inkscape.org/) -->

<svg
   width="108.95672mm"
   height="108.95672mm"
   viewBox="0 0 108.95672 108.95672"
   version="1.1"
   id="svg2263"
   xmlns="http://www.w3.org/2000/svg"
   xmlns:svg="http://www.w3.org/2000/svg">
  <defs
     id="defs2260" />
  <g
     id="layer1"
     transform="translate(-174.70446,-75.732683)">
    <g
       id="g10357"
       transform="translate(177.05129,3.3804541)">
      <circle
         style="fill:#f9f9f9;fill-opacity:1;stroke:#999999;stroke-width:0.79375;stroke-opacity:1"
         id="path10028"
         cx="52.131531"
         cy="126.83059"
         r="54.081486" />
      <path
         id="path6510"
         style="fill:#bb2726;fill-opacity:1;stroke-width:0.296598"
         d="M 52.131787,75.438117 A 51.392351,51.392351 0 0 0 0.73905988,126.83033 51.392351,51.392351 0 0 0 52.131787,178.22306 51.392351,51.392351 0 0 0 103.524,126.83033 51.392351,51.392351 0 0 0 52.131787,75.438117 Z m 0,12.250415 A 39.141849,39.141844 0 0 1 91.273583,126.83033 39.141849,39.141844 0 0 1 52.131787,165.97213 39.141849,39.141844 0 0 1 12.98999,126.83033 39.141849,39.141844 0 0 1 52.131787,87.688532 Z" />
    </g>
    <path
       style="fill:#000000;fill-opacity:1;stroke-width:0.126414"
       d="m 195.3174,139.74502 v -0.69528 h 34.25822 34.25821 v 0.69528 0.69528 H 229.57562 195.3174 Z m 39.94685,-1.7433 c -0.29769,-0.15014 -0.31971,-0.23206 -0.37924,-1.41115 l -0.0632,-1.25176 -0.66587,-0.14955 c -0.79574,-0.17872 -1.12239,-0.44593 -1.29214,-1.05701 -0.17887,-0.64393 -0.16546,-6.56251 0.0161,-7.10458 0.19261,-0.57504 0.56095,-0.96369 1.24663,-1.31534 0.31288,-0.16045 0.71886,-0.45347 0.90218,-0.65116 0.18332,-0.19768 0.94028,-1.53674 1.68212,-2.97568 0.93864,-1.82067 1.48349,-2.73451 1.79169,-3.00511 l 0.44287,-0.38886 7.88508,0.0344 7.88507,0.0344 0.39674,0.37924 c 0.23533,0.22495 0.92867,1.43355 1.70422,2.97073 1.37126,2.71791 1.64197,3.08282 2.75879,3.71876 1.0976,0.625 1.09745,0.62439 1.09586,4.75098 -0.001,2.6256 -0.0442,3.68852 -0.1593,3.91884 -0.20246,0.40518 -0.90667,0.75804 -1.51335,0.75829 l -0.47405,1.9e-4 v 1.17677 c 0,1.67403 0.007,1.66755 -1.86695,1.66755 -1.09215,0 -1.56527,-0.0478 -1.71659,-0.1735 -0.16845,-0.13991 -0.20888,-0.41539 -0.20888,-1.42309 v -1.2496 l -8.0589,0.0325 -8.0589,0.0325 -0.0632,1.2609 c -0.0596,1.18887 -0.0813,1.27 -0.37924,1.42029 -0.41649,0.21007 -2.49104,0.21007 -2.90752,0 z m 21.31915,-13.39478 c -1.0532,-2.31096 -1.65699,-3.58457 -1.77232,-3.73846 -0.069,-0.092 -0.34022,-0.27687 -0.60283,-0.41084 -0.45433,-0.23178 -0.81498,-0.24359 -7.44032,-0.24359 -6.62534,0 -6.98599,0.0118 -7.44032,0.24359 -0.26261,0.13397 -0.53727,0.31885 -0.61036,0.41084 -0.20764,0.26135 -2.06245,4.29498 -2.06245,4.48518 0,0.14069 1.74298,0.16978 10.17314,0.16978 h 10.17315 z"
       id="path2396" />
    <path
       id="path2396-4"
       style="fill:#bb2726;fill-opacity:1;stroke-width:0.126414"
       d="m 204.39323,118.31695 -0.44287,0.38913 c -0.3082,0.2706 -0.85298,1.18431 -1.79162,3.00498 -0.74184,1.43894 -1.49875,2.77785 -1.68207,2.97553 -0.18332,0.19769 -0.58939,0.49119 -0.90227,0.65164 -0.68568,0.35165 -1.05383,0.74013 -1.24644,1.31517 -0.18156,0.54207 -0.1954,6.46054 -0.0165,7.10447 0.16975,0.61108 0.49669,0.87858 1.29243,1.0573 l 0.66559,0.14935 0.0636,1.2516 c 0.0595,1.17909 0.0816,1.26114 0.37931,1.41128 0.41648,0.21007 2.49083,0.21007 2.90732,0 0.29794,-0.15029 0.3197,-0.23171 0.3793,-1.42058 l 0.063,-1.26091 8.05894,-0.032 8.05894,-0.0326 v 1.24954 c 0,1.0077 0.0403,1.28326 0.20877,1.42317 0.15132,0.1257 0.62454,0.17311 1.71669,0.17311 1.87396,0 1.86707,0.007 1.86707,-1.66708 v -1.17719 h 0.47388 c 0.60668,-2.5e-4 1.31114,-0.35291 1.5136,-0.75809 0.1151,-0.23032 0.15816,-1.29354 0.15916,-3.91914 0.002,-4.12659 0.002,-4.12613 -1.09605,-4.75113 -1.11682,-0.63594 -1.38723,-1.00073 -2.75849,-3.71864 -0.77555,-1.53718 -1.46896,-2.74593 -1.70429,-2.97088 l -0.39688,-0.37878 -7.88478,-0.0346 z m 7.82277,1.52291 c 6.62535,0 6.98553,0.0116 7.43986,0.24339 0.26261,0.13398 0.53406,0.31883 0.60306,0.41083 0.11533,0.15389 0.71931,1.42783 1.77251,3.73879 l 0.41754,0.91623 h -10.17302 c -8.43016,0 -10.17354,-0.0288 -10.17354,-0.1695 0,-0.1902 1.85528,-4.22417 2.06292,-4.48552 0.0731,-0.092 0.34769,-0.27685 0.6103,-0.41083 0.45433,-0.23178 0.81504,-0.24339 7.44037,-0.24339 z" />
  </g>
</svg>
