<?xml version="1.0" encoding="UTF-8" standalone="no"?>
<!-- Created with Inkscape (http://www.inkscape.org/) -->
<svg
   xmlns:svg="http://www.w3.org/2000/svg"
   xmlns="http://www.w3.org/2000/svg"
   version="1.0"
   width="380"
   height="1200"
   id="svg2614">
  <defs
     id="defs2616" />
  <g
     transform="translate(739.1791,1088.325)"
     id="layer1">
    <rect
       width="337.40054"
       height="1158.6207"
       x="378.27731"
       y="-1062.8608"
       transform="scale(-1,1)"
       style="opacity:1;fill:white;fill-opacity:1;fill-rule:evenodd;stroke:black;stroke-width:0.25;stroke-linejoin:round;stroke-miterlimit:4;stroke-dasharray:none;stroke-opacity:1"
       id="rect2624" />
    <path
       d="M -715.81619,-157.36225 L -715.81619,-296.25585 L -382.7749,-483.52453 L -382.7749,-344.64276 L -715.81619,-157.36225"
       style="fill:#ee1c23;fill-rule:nonzero;stroke:none"
       id="path111" />
    <path
       d="M -731.64759,-1080.6748 C -726.78176,-1085.6057 -720.32116,-1088.3254 -713.45313,-1088.3254 L -384.89351,-1088.3254 C -370.7151,-1088.3254 -359.17914,-1076.6189 -359.17914,-1062.2163 L -359.17914,85.565546 C -359.17914,92.542153 -361.85651,99.093068 -366.71069,104.03582 C -371.56488,108.96674 -378.02548,111.67461 -384.89351,111.67461 L -713.45313,111.67461 C -720.32116,111.67461 -726.78176,108.96674 -731.64759,104.03582 C -736.50177,99.093068 -739.17914,92.542153 -739.17914,85.565546 L -739.17914,-1062.2163 C -739.17914,-1069.1929 -736.50177,-1075.7438 -731.64759,-1080.6748 z M -394.11297,-1052.8629 L -704.23367,-1052.8629 L -704.23367,76.212163 L -394.11297,76.212163 L -394.11297,-1052.8629 z "
       style="fill:black;fill-rule:nonzero;stroke:none"
       id="path113" />
  </g>
</svg>
