<?xml version="1.0" encoding="UTF-8" standalone="no"?>
<!-- Created with Inkscape (http://www.inkscape.org/) -->
<svg
   xmlns:svg="http://www.w3.org/2000/svg"
   xmlns="http://www.w3.org/2000/svg"
   version="1.0"
   width="1000"
   height="874.93243"
   id="svg4742">
  <defs
     id="defs4744" />
  <g
     transform="translate(-219.4896,201.4121)"
     id="layer1">
    <path
       d="M 693.93664,-183.14829 C 707.98241,-207.50005 730.95182,-207.50005 744.99759,-183.14829 L 1213.4944,629.22309 C 1227.5402,653.57485 1216.0493,673.508 1187.9701,673.508 L 251.01349,673.52034 C 222.93428,673.52034 211.44341,653.59954 225.47684,629.24777 L 693.93664,-183.14829 z "
       style="fill:#ee1c23;fill-rule:nonzero;stroke:none"
       id="path4755" />
    <path
       d="M 380.32592,569.33725 L 1058.6453,569.32491 L 719.47329,-18.82017 L 380.32592,569.33725"
       style="fill:white;fill-rule:nonzero;stroke:none"
       id="path309" />
    <path
       d="M 858.17836,312.50205 L 791.93614,233.92966 L 725.68157,312.50205 L 764.70857,312.50205 L 764.70857,516.01763 L 819.1637,516.01763 L 819.1637,312.50205 L 858.17836,312.50205 M 574.48587,442.6908 L 640.74044,521.27553 L 706.98267,442.6908 L 667.95567,442.6908 L 667.95567,239.17522 L 613.51288,239.17522 L 613.51288,442.6908 L 574.48587,442.6908"
       style="fill:black;fill-rule:nonzero;stroke:none"
       id="path311" />
  </g>
</svg>
