<?xml version="1.0" encoding="UTF-8" standalone="no"?>
<!-- Created with Inkscape (http://www.inkscape.org/) -->
<svg
   xmlns:svg="http://www.w3.org/2000/svg"
   xmlns="http://www.w3.org/2000/svg"
   version="1.0"
   width="1000"
   height="874.9325"
   id="svg4566">
  <defs
     id="defs4568" />
  <g
     transform="translate(840.5104,795.6979)"
     id="layer1">
    <path
       d="M -366.06336,-777.43399 C -352.02993,-801.78576 -329.04818,-801.78576 -315.00241,-777.43399 L 153.49442,34.937384 C 167.54019,59.289148 156.04931,79.222294 127.97011,79.222294 L -808.98651,79.234637 C -837.06572,79.234637 -848.55659,59.313833 -834.52316,34.962069 L -366.06336,-777.43399 z "
       style="fill:#ee1c23;fill-rule:nonzero;stroke:none"
       id="path4578" />
    <path
       d="M -679.67408,-24.948453 L -1.3546595,-24.960795 L -340.52671,-613.10587 L -679.67408,-24.948453"
       style="fill:white;fill-rule:nonzero;stroke:none"
       id="path147" />
    <path
       d="M -216.65733,-325.08116 L -251.05589,-344.70575 L -369.9389,-267.39229 C -416.51952,-295.71834 -445.22819,-310.92431 -445.27756,-310.94899 C -456.86717,-317.56458 -471.22151,-314.84922 -479.68846,-305.18504 C -480.89803,-303.80268 -481.98417,-302.28455 -482.9222,-300.63066 C -483.87257,-298.96442 -484.62547,-297.24881 -485.19322,-295.50852 C -489.19219,-283.28944 -484.20582,-269.53989 -472.61621,-262.9243 C -472.56684,-262.89962 -444.87026,-245.91633 -396.78385,-220.21923 L -402.64654,-78.416187 L -368.23564,-58.779261 L -326.44392,-184.09272 C -303.85713,-172.9351 -279.12275,-161.12332 -252.49996,-149.00298 L -251.68536,-104.74275 L -220.44648,-86.920174 L -220.21197,-150.71859 L -165.50998,-183.42623 L -196.74887,-201.2488 L -235.20811,-179.39023 C -259.1896,-196.15135 -281.93684,-211.43137 -303.04252,-225.20561 L -216.65733,-325.08116"
       style="fill:black;fill-rule:nonzero;stroke:none"
       id="path149" />
  </g>
</svg>
