<?xml version="1.0" encoding="utf-8"?>
<!-- Generator: Adobe Illustrator 15.0.2, SVG Export Plug-In . SVG Version: 6.00 Build 0)  -->
<!DOCTYPE svg PUBLIC "-//W3C//DTD SVG 1.1//EN" "http://www.w3.org/Graphics/SVG/1.1/DTD/svg11.dtd">
<svg version="1.1" id="svg4714" xmlns:svg="http://www.w3.org/2000/svg"
	 xmlns="http://www.w3.org/2000/svg" xmlns:xlink="http://www.w3.org/1999/xlink" x="0px" y="0px" width="1000px"
	 height="873.008px" viewBox="0 0 1000 873.008" enable-background="new 0 0 1000 873.008" xml:space="preserve">
<path fill-rule="evenodd" clip-rule="evenodd" fill="#E20613" d="M33.409,872.969c-11.988,0-23.208-2.571-28.852-12.846
	c-4.43-8.226-3.84-18.032,0.712-26.047L474.881,17.829c5.521-9.706,14.448-17.598,25.936-17.454
	c10.196,0.111,19.146,6.323,24.222,15.039l469.689,816.793c4.319,7.547,7.915,19.347,2.649,28.496
	c-4.797,8.37-14.203,12.311-23.631,12.311L33.409,872.969z"/>
<polygon fill-rule="evenodd" clip-rule="evenodd" fill="#FFFFFF" points="165.536,767.112 837.424,767.301 501.251,184.663 "/>
<polygon fill-rule="evenodd" clip-rule="evenodd" fill="#1D1D1B" points="835.81,766.411 164.745,766.622 668.375,475.92 "/>
<path fill-rule="evenodd" clip-rule="evenodd" fill="#1D1D1B" d="M622.024,437.374c-4.319-7.514-8.949-12.022-13.937-13.78
	c-4.986-1.748-10.475-0.813-16.273,2.526c-5.766,3.317-9.306,7.636-10.285,12.823c-0.936,5.165,0.623,11.442,4.942,18.945
	c4.296,7.446,8.994,11.999,13.947,13.758c4.976,1.748,10.475,0.769,16.24-2.538c5.811-3.35,9.351-7.636,10.318-12.812
	C627.946,451.121,626.321,444.809,622.024,437.374 M577.945,489.746l-4.898-117.345l-11.376,6.567l4.954,117.322L577.945,489.746z
	 M597.926,451.276c-2.293-3.974-3.662-7.324-4.241-10.085c-0.623-2.571,0.501-4.741,3.184-6.311
	c2.727-1.592,5.187-1.469,7.257,0.278c1.981,1.948,4.163,4.831,6.457,8.793c2.293,3.985,3.695,7.324,4.318,9.896
	c0.557,2.772-0.579,4.954-3.317,6.546c-2.671,1.547-5.12,1.436-7.124-0.546C602.444,458.133,600.229,455.25,597.926,451.276z
	 M553.145,410.87c-4.33-7.525-9.005-12-13.936-13.758c-4.998-1.748-10.441-0.846-16.241,2.505c-5.81,3.328-9.35,7.625-10.318,12.801
	c-0.935,5.187,0.612,11.454,4.932,18.967c4.341,7.424,9.016,11.989,13.958,13.747c4.987,1.759,10.475,0.847,16.273-2.493
	c5.8-3.361,9.295-7.636,10.274-12.823C559.022,424.65,557.464,418.294,553.145,410.87z M529.068,424.762
	c-2.327-4.018-3.729-7.324-4.274-10.085c-0.624-2.571,0.545-4.742,3.228-6.311c2.694-1.547,5.188-1.48,7.169,0.312
	c2.025,1.915,4.163,4.797,6.5,8.805c2.305,3.974,3.707,7.28,4.297,9.851c0.579,2.727-0.557,4.976-3.25,6.545
	c-2.672,1.547-5.21,1.402-7.146-0.512C533.521,431.607,531.384,428.736,529.068,424.762z M519.306,463.699
	c-4.864-8.371-9.383-15.339-13.702-20.749c-4.318-5.409-8.348-9.472-12.311-12.155c-4.085-2.604-7.948-4.007-11.877-3.929
	c-3.929,0.033-7.858,1.235-11.944,3.618c-4.296,2.46-7.324,5.265-9.328,8.649c-1.981,3.351-2.75,7.402-2.36,12.188
	c0.189,4.864,1.636,10.352,4.163,16.819c2.571,6.423,6.3,13.858,11.142,22.229c4.82,8.371,9.417,15.372,13.613,20.682
	c4.341,5.365,8.382,9.417,12.478,11.988c3.963,2.683,7.736,3.93,11.677,3.896c3.896-0.045,7.87-1.292,12.11-3.74
	c4.119-2.382,7.124-5.188,9.15-8.526c1.981-3.396,2.805-7.291,2.604-12.145c-0.345-4.764-1.825-10.285-4.363-16.675
	C527.91,479.504,524.126,472.069,519.306,463.699z M506.06,471.334c4.397,7.592,7.759,13.691,10.052,18.566
	c2.338,4.987,3.94,8.905,4.631,11.955c0.79,3.161,0.712,5.41,0.089,6.969c-0.746,1.636-2.037,3.038-3.784,4.096
	c-1.826,1.047-3.696,1.425-5.488,0.924c-1.87-0.301-4.052-1.592-6.378-3.896c-2.338-2.26-4.998-5.677-8.059-10.118
	c-3.017-4.286-6.545-10.085-10.641-17.164c-4.163-7.214-7.48-13.246-9.818-18.233c-2.293-4.864-3.929-8.883-4.742-12.021
	c-0.779-3.161-0.746-5.577-0.167-7.48c0.545-1.669,1.803-3.116,3.617-4.163c1.647-0.935,3.518-1.291,5.31-1.168
	c1.703,0.233,3.774,1.48,6.111,3.739c2.337,2.216,5.053,5.477,8.137,9.874C498.034,457.777,501.663,463.743,506.06,471.334z
	 M427.641,476.232l43.411,75.225l13.124-7.592l-52.016-90.129l-13.636,7.87l-10.352,27.271l12.968,4.675L427.641,476.232z"/>
</svg>
