<?xml version="1.0" encoding="UTF-8" standalone="no"?>
<!DOCTYPE svg PUBLIC "-//W3C//DTD SVG 1.1//EN" "http://www.w3.org/Graphics/SVG/1.1/DTD/svg11.dtd">
<svg
    xmlns:svg="http://www.w3.org/2000/svg"
    xmlns="http://www.w3.org/2000/svg"
    version="1.1"
    width="687"
    height="601"
    id="svg3372">
  <defs id="defs3374" />
  <path
      d="m 327.11221,14.377025 c 9.60041,-16.6592257 25.32238,-16.6592257 34.93121,0 L 682.54564,570.12654 c 9.60878,16.65923 1.74782,30.29565 -17.46137,30.29565 l -640.979195,0.008 c -19.2091622,0 -27.0786316,-13.62798 -17.4698091,-30.2872 L 327.11221,14.377025 z"
      id="path1881"
      style="fill:#ee1c23;fill-rule:nonzero;stroke:none;"
  />
  <path
      d="M 111.18937,527.8938 575.23288,527.8858 343.20265,125.53082 111.18937,527.89383"
      id="path231"
      style="fill:#ffffff;fill-rule:nonzero;stroke:none;"
  />
  <path
      d="m 387.41313,269.7243 19.47186,24.96963 8.20509,0 c 4.78627,0 8.67452,2.62366 8.67452,5.86021 l 0,32.48257 c 0,3.23655 -3.88825,5.86022 -8.67452,5.86022 0,0 -2.39831,0.22725 -6.30694,0.58534 l 0,10.39139 c 0,2.69253 -3.22489,4.88237 -7.21518,4.88237 l -5.52108,0 c -3.99031,0 -7.22541,-2.18984 -7.22541,-4.88237 l 0,-8.61474 c -36.22185,0.0445 -44.70508,0.008 -89.82766,0 l 0,8.61474 c 0,2.69253 -3.23512,4.88237 -7.22542,4.88237 l -5.51085,0 c -3.9903,0 -7.22542,-2.18984 -7.22542,-4.88237 l 0,-10.39139 c -3.90864,-0.35809 -6.30694,-0.58534 -6.30694,-0.58534 -4.78627,0 -8.66436,-2.62367 -8.66436,-5.86022 l 0,-32.48257 c 0,-3.23655 3.87809,-5.86021 8.66436,-5.86021 l 8.20511,0 19.47184,-24.96963 z m 10.82788,24.96963 -15.44069,-19.80493 -77.78537,0 -15.44068,19.80493 108.66674,0"
      id="path3018"
      style="fill:#ff0000;fill-rule:nonzero;stroke:none;"
  />
  <path
      d="m 288.55536,437.23459 16.2792,21.38126 6.85977,0 c 4.0015,0 7.25223,2.24662 7.25223,5.01805 l 0,27.81451 c 0,2.77143 -3.25073,5.01806 -7.25223,5.01806 0,0 -2.00508,0.19459 -5.27284,0.50121 l 0,8.89805 c 0,2.30559 -2.69613,4.18073 -6.03216,4.18073 l -4.61583,0 c -3.33605,0 -6.04072,-1.87514 -6.04072,-4.18073 l 0,-7.37671 c -30.28283,0.0381 -37.37512,0.006 -75.0993,0 l 0,7.37671 c 0,2.30559 -2.70468,4.18073 -6.04072,4.18073 l -4.60728,0 c -3.33604,0 -6.04072,-1.87514 -6.04072,-4.18073 l 0,-8.89805 c -3.26777,-0.30662 -5.27284,-0.50121 -5.27284,-0.50121 -4.0015,0 -7.24373,-2.24663 -7.24373,-5.01806 l 0,-27.81451 c 0,-2.77143 3.24223,-5.01805 7.24373,-5.01805 l 6.85978,0 16.27919,-21.38126 z m 9.05251,21.38126 -12.909,-16.95877 -65.03148,0 -12.909,16.95877 90.84948,0"
      id="path136"
      style="fill:#000000;fill-rule:nonzero;stroke:none;"
  />
  <path
      d="m 471.75508,437.23459 16.27921,21.38126 6.85977,0 c 4.0015,0 7.25222,2.24662 7.25222,5.01805 l 0,27.81451 c 0,2.77143 -3.25072,5.01806 -7.25222,5.01806 0,0 -2.00509,0.19459 -5.27284,0.50121 l 0,8.89805 c 0,2.30559 -2.69613,4.18073 -6.03217,4.18073 l -4.61583,0 c -3.33605,0 -6.04071,-1.87514 -6.04071,-4.18073 l 0,-7.37671 c -30.28283,0.0381 -37.37513,0.006 -75.0993,0 l 0,7.37671 c 0,2.30559 -2.70469,4.18073 -6.04073,4.18073 l -4.60728,0 c -3.33604,0 -6.04072,-1.87514 -6.04072,-4.18073 l 0,-8.89805 c -3.26777,-0.30662 -5.27284,-0.50121 -5.27284,-0.50121 -4.0015,0 -7.24373,-2.24663 -7.24373,-5.01806 l 0,-27.81451 c 0,-2.77143 3.24223,-5.01805 7.24373,-5.01805 l 6.85979,0 16.27919,-21.38126 z m 9.05251,21.38126 -12.90899,-16.95877 -65.03149,0 -12.909,16.95877 90.84948,0"
      id="path3002"
      style="fill:#000000;fill-rule:nonzero;stroke:none;"
  />
  <rect
      width="49.375698"
      height="55.547657"
      x="317.46814"
      y="359.62503"
      id="rect3004"
      style="fill:#ff0000;fill-opacity:1;stroke:none;"
  />
  <path
      d="m 341.80689,438.25986 -68.99588,-48.62085 137.99961,0 0.69154,0.48791 -69.69527,48.13294 z"
      id="rect3006"
      style="fill:#ff0000;fill-opacity:1;stroke:none;"
  />
  <path
      d="m 542.06899,159.08046 a 21.264368,21.609196 0 1 1 -42.52873,0 21.264368,21.609196 0 1 1 42.52873,0 z"
      transform="matrix(0.59775046,0,0,0.58821188,-22.587812,227.42035)"
      id="path3020"
      style="fill:#ffffff;fill-opacity:1;stroke:none;"
  />
  <path
      d="m 542.06899,159.08046 a 21.264368,21.609196 0 1 1 -42.52873,0 21.264368,21.609196 0 1 1 42.52873,0 z"
      transform="matrix(0.59775046,0,0,0.58821188,87.521866,227.42035)"
      id="path3022"
      style="fill:#ffffff;fill-opacity:1;stroke:none;"
  />
</svg>
