<?xml version="1.0" encoding="UTF-8" standalone="no"?>
<!-- Created with Inkscape (http://www.inkscape.org/) -->
<svg
   xmlns:svg="http://www.w3.org/2000/svg"
   xmlns="http://www.w3.org/2000/svg"
   version="1.0"
   width="1001.6309"
   height="875.28577"
   id="svg2402">
  <defs
     id="defs2404"><clipPath
   id="id26">
      <path
   d="M 346.28,699.28 L 427.28,699.28 L 427.28,627.28 L 346.28,627.28 L 346.28,699.28 z "
   id="path24" />

    </clipPath>

        
      </defs>
  <g
     transform="translate(773.5553,807.4781)"
     id="layer1">
    <path
       d="M -247.14349,-789.20694 C -261.20728,-813.56854 -284.223,-813.56854 -298.29914,-789.20694 L -767.55315,23.492501 C -781.61694,47.854099 -770.10908,67.795295 -741.9815,67.795295 L 196.50183,67.807643 C 224.62941,67.807643 236.13727,47.878794 222.07348,23.517196 L -247.14349,-789.20694 z "
       style="fill:#ee1c23;fill-rule:nonzero;stroke:none"
       id="path2418" />
    <path
       d="M 66.97666,-36.41752 L -612.44398,-36.429868 L -272.71514,-624.81246 L 66.97666,-36.41752"
       style="fill:white;fill-rule:nonzero;stroke:none"
       id="path243" />
    <path
       d="M -242.65497,-289.78913 C -233.62896,-296.92598 -222.23222,-301.19821 -209.82299,-301.19821 C -180.59647,-301.19821 -156.88929,-277.49103 -156.88929,-248.26451 L -156.88929,-76.96774 L -189.41258,-103.25555 L -221.87414,-76.96774 L -221.93588,-224.28568 L -279.40111,-178.76047 C -288.55061,-171.20381 -300.28072,-166.67228 -313.07273,-166.67228 C -342.31159,-166.67228 -366.00643,-190.36712 -366.00643,-219.60598 L -366.00643,-352.4897 L -333.54487,-380.61729 L -301.02157,-352.4897 L -301.02157,-243.43664 L -242.65497,-289.78913"
       style="fill:black;fill-rule:nonzero;stroke:none"
       id="path245" />
  </g>
</svg>
