<?xml version="1.0" encoding="UTF-8" standalone="no"?>
<!-- Created with Inkscape (http://www.inkscape.org/) -->
<svg
   xmlns:svg="http://www.w3.org/2000/svg"
   xmlns="http://www.w3.org/2000/svg"
   version="1.0"
   width="1000"
   height="873.00842"
   id="svg4547">
  <defs
     id="defs4549" />
  <g
     transform="translate(806.314,793.7738)"
     id="layer1">
    <path
       d="M -331.87782,-775.5501 C -317.82599,-799.84831 -294.84553,-799.84831 -280.80601,-775.5501 L 187.69503,35.034791 C 201.73454,59.333002 190.24431,79.222314 162.15297,79.222314 L -774.78754,79.234629 C -802.86657,79.234629 -814.36912,59.357633 -800.31729,35.059422 L -331.87782,-775.5501 z "
       style="fill:#ee1c23;fill-rule:nonzero;stroke:none"
       id="path4564" />
    <path
       d="M -645.47623,-24.719351 L 32.841656,-24.731666 L -306.33576,-611.58335 L -645.47623,-24.719351"
       style="fill:white;fill-rule:nonzero;stroke:none"
       id="path131" />
    <path
       d="M -323.24475,-159.32627 C -323.24475,-158.30409 -323.24475,-156.24743 -323.24475,-155.22525 C -326.32359,-151.12424 -332.49359,-149.06757 -334.53794,-144.96656 C -337.6291,-137.77438 -338.65127,-129.57235 -345.84344,-125.45902 C -353.03562,-122.38018 -362.28445,-115.20032 -360.22779,-105.9638 C -369.46431,-97.749454 -379.74764,-90.569597 -388.98416,-82.35525 C -392.07532,-80.3109 -394.89553,-73.635973 -396.9522,-70.557132 L -571.84267,-70.557132 L -571.84267,-48.069279 L -12.331096,-48.081594 L -271.28624,-496.12682 C -282.14839,-476.44687 -297.56722,-459.00831 -307.83823,-439.50078 C -307.16089,-440.78158 -296.53273,-439.50078 -291.39722,-436.42194 C -286.26172,-432.32092 -284.20505,-427.18542 -282.14839,-421.02773 C -280.09172,-410.76904 -278.04737,-401.53251 -280.09172,-391.27382 C -283.18288,-381.0028 -287.28389,-371.76628 -296.53273,-365.6086 C -301.66824,-362.52976 -306.80374,-362.52976 -309.88258,-359.45092 C -312.97374,-355.3499 -316.05258,-351.24889 -318.10925,-347.13556 C -320.16591,-342.01236 -319.13142,-336.87686 -319.13142,-331.74135 C -319.13142,-321.48265 -320.16591,-310.18947 -319.13142,-299.93077 C -318.10925,-297.8741 -316.05258,-295.82975 -315.03041,-293.77309 C -307.83823,-277.35671 -319.13142,-257.84917 -308.86041,-243.48946 C -311.93925,-229.11743 -311.93925,-215.77989 -311.93925,-201.40786 C -311.93925,-199.3512 -313.99591,-198.32902 -315.03041,-197.30685 C -316.05258,-191.14917 -315.03041,-184.99149 -317.07476,-179.85598 C -318.10925,-175.75496 -320.16591,-172.67612 -322.21026,-168.56279 C -322.21026,-165.48395 -323.24475,-162.40511 -323.24475,-159.32627 C -324.26693,-158.30409 -324.26693,-157.28192 -326.32359,-157.28192"
       style="fill:black;fill-rule:nonzero;stroke:none"
       id="path133" />
    <path
       d="M -348.41735,-405.37491 C -346.86562,-400.75665 -341.47149,-402.29607 -339.93207,-399.99309 C -338.39265,-397.67781 -338.39265,-393.83541 -339.16852,-390.75657 C -339.93207,-389.21715 -342.24736,-389.21715 -343.78678,-389.21715 C -343.02323,-382.2836 -346.86562,-371.50766 -340.70794,-368.42882 C -332.99852,-364.58643 -322.98613,-369.96824 -314.51316,-373.82295 C -312.19787,-375.36237 -309.11903,-375.36237 -306.80374,-376.12592 C -303.7249,-378.44121 -300.64606,-380.74418 -297.56722,-383.05947 C -296.01548,-384.59889 -296.79135,-387.67773 -296.01548,-389.21715 C -292.93664,-399.21723 -295.25193,-409.22962 -299.10664,-419.22969 C -301.40961,-423.84795 -304.50077,-427.70266 -308.34316,-430.00563 C -313.73729,-433.86034 -322.98613,-433.86034 -327.60439,-429.24208 C -331.4591,-426.16324 -335.31381,-423.84795 -339.16852,-420.76911 C -341.47149,-418.46614 -341.47149,-414.61143 -343.02323,-412.30846 C -344.56265,-410.76904 -346.10207,-408.45375 -349.18091,-409.22962 L -348.41735,-405.37491"
       style="fill:black;fill-rule:nonzero;stroke:none"
       id="path135" />
    <path
       d="M -427.76524,-346.11338 C -420.06814,-369.20469 -390.01865,-376.90179 -368.44213,-367.66527 C -366.90271,-366.8894 -366.12685,-363.047 -366.12685,-360.73172 C -365.36329,-353.03461 -360.74503,-345.33751 -363.82387,-337.64041 C -364.58743,-333.79802 -366.12685,-329.94331 -368.44213,-326.86447 C -369.98156,-326.10092 -370.75742,-323.78563 -372.29684,-323.02207 C -376.9151,-320.70679 -381.54568,-318.40381 -386.16394,-315.32497 C -386.93981,-313.78555 -387.70336,-311.47026 -389.24278,-311.47026 C -394.63691,-311.47026 -400.03104,-310.70671 -405.42517,-312.24613 C -409.27988,-313.00968 -415.43756,-312.24613 -416.97698,-314.54911 C -420.06814,-319.16737 -416.21343,-326.86447 -419.29227,-333.02215 C -420.83169,-335.33744 -423.91053,-335.33744 -425.46227,-336.87686 C -426.22582,-339.17983 -425.46227,-341.49512 -425.46227,-343.79809 C -427.00169,-343.79809 -426.22582,-346.11338 -427.76524,-346.11338"
       style="fill:black;fill-rule:nonzero;stroke:none"
       id="path137" />
    <path
       d="M -410.8193,-289.15483 C -408.20844,-291.11297 -406.20104,-293.77309 -403.88575,-294.53664 C -400.03104,-296.07606 -398.49162,-299.1549 -394.63691,-299.93077 C -395.41278,-300.69432 -393.09749,-301.47019 -393.87336,-302.23374 C -387.70336,-302.23374 -382.30923,-302.23374 -376.15155,-302.23374 C -370.75742,-291.4578 -372.29684,-279.9183 -373.83626,-269.14236 C -373.83626,-266.82707 -375.37568,-262.98468 -376.9151,-260.66939 C -380.00626,-255.28758 -388.47923,-259.12997 -392.32162,-255.28758 C -393.09749,-255.28758 -395.41278,-254.51171 -395.41278,-252.97229 C -402.34633,-252.97229 -409.27988,-249.89345 -416.21343,-252.97229 C -416.97698,-253.74816 -418.52872,-256.05113 -419.29227,-257.59055 C -420.06814,-266.06352 -420.06814,-274.52418 -420.06814,-282.99714 C -416.21343,-282.99714 -413.89814,-286.83954 -410.8193,-289.15483"
       style="fill:black;fill-rule:nonzero;stroke:none"
       id="path139" />
    <path
       d="M -457.81472,-275.30004 C -460.86893,-274.86901 -464.74827,-276.0636 -467.82711,-274.52418 C -472.45769,-272.2212 -477.85182,-270.68178 -480.93066,-266.06352 C -483.24595,-261.44526 -487.86421,-257.59055 -489.40363,-252.20874 C -491.71892,-241.43279 -490.94305,-231.4204 -489.40363,-220.64446 C -489.40363,-216.80207 -487.10066,-215.26265 -484.0095,-212.94736 C -472.45769,-207.56555 -459.35414,-207.56555 -447.80233,-203.71084 C -437.01408,-199.86844 -425.46227,-201.40786 -414.67401,-202.17142 C -408.50401,-202.17142 -401.57046,-206.02613 -400.03104,-212.94736 C -400.03104,-216.80207 -398.49162,-221.42033 -402.34633,-222.18388 C -407.74046,-223.7233 -412.35872,-222.18388 -417.75285,-222.95975 C -420.83169,-223.7233 -424.6864,-226.03859 -427.76524,-227.57801 C -432.39582,-229.11743 -432.39582,-235.27511 -434.69879,-239.89337 C -438.5535,-249.1299 -438.5535,-259.12997 -440.09292,-269.14236 C -440.86878,-270.68178 -441.63234,-272.98475 -442.40821,-272.98475 C -447.80233,-273.76062 -452.4206,-276.0636 -457.81472,-275.30004"
       style="fill:black;fill-rule:nonzero;stroke:none"
       id="path141" />
    <path
       d="M -504.81015,-152.90996 C -507.92594,-153.53805 -511.7437,-153.68583 -514.83486,-152.90996 C -519.45312,-150.60699 -522.53196,-145.98873 -525.62311,-142.13402 C -527.92609,-139.05518 -529.46551,-135.21279 -531.00493,-132.13395 C -532.55666,-124.43685 -534.85964,-117.5033 -532.55666,-109.80619 C -532.55666,-108.26677 -530.24137,-106.72735 -528.70195,-105.9638 C -526.38667,-104.42438 -524.84725,-99.806119 -521.7684,-99.806119 C -512.51957,-97.490831 -503.27073,-99.030251 -495.57363,-94.41199 C -491.71892,-92.109017 -489.40363,-89.793729 -485.54892,-89.030177 C -474.77298,-86.714888 -463.98472,-85.175468 -453.19646,-89.030177 C -450.11762,-89.793729 -447.80233,-92.87257 -444.72349,-94.41199 C -441.63234,-96.727279 -440.09292,-100.56967 -438.5535,-103.64851 C -436.23821,-110.58206 -437.78994,-117.5033 -437.78994,-124.43685 C -444.72349,-127.51569 -452.4206,-127.51569 -459.35414,-129.81866 C -463.20885,-131.35808 -467.82711,-132.8975 -472.45769,-135.21279 C -475.53653,-136.75221 -477.85182,-139.83105 -480.15479,-142.90989 C -484.0095,-145.98873 -489.40363,-146.75228 -494.03421,-145.98873 C -494.03421,-147.52815 -496.33718,-146.75228 -495.57363,-148.2917 C -499.41602,-148.2917 -500.96776,-152.14641 -504.81015,-152.90996"
       style="fill:black;fill-rule:nonzero;stroke:none"
       id="path143" />
  </g>
</svg>
