<?xml version="1.0" encoding="UTF-8" standalone="no"?>
<!-- Created with Inkscape (http://www.inkscape.org/) -->
<svg
   xmlns:svg="http://www.w3.org/2000/svg"
   xmlns="http://www.w3.org/2000/svg"
   version="1.0"
   width="999.99994"
   height="874.94293"
   id="svg4625">
  <defs
     id="defs4627" />
  <g
     transform="translate(-309.4895,307.1364)"
     id="layer1">
    <path
       d="M 783.93108,-288.87252 C 797.97682,-313.22423 820.95851,-313.22423 835.00426,-288.87252 L 1303.5,523.49706 C 1317.5334,547.84877 1306.0549,567.78188 1277.9635,567.78188 L 341.0089,567.80656 C 312.92976,567.80656 301.43891,547.87346 315.48465,523.52175 L 783.93108,-288.87252 z "
       style="fill:#ee1c23;fill-rule:nonzero;stroke:none"
       id="path4658" />
    <path
       d="M 470.32105,463.61136 L 1148.639,463.59901 L 809.46767,-124.54477 L 470.32105,463.61136"
       style="fill:white;fill-rule:nonzero;stroke:none"
       id="path203" />
    <path
       d="M 973.12893,288.80484 C 960.02122,275.67244 942.59364,268.45209 924.04289,268.45209 C 915.05757,268.45209 906.4672,270.19238 898.58036,273.31503 L 880.83188,235.76921 C 882.01676,233.75738 883.09055,231.89367 884.04092,230.22743 L 898.17306,229.56094 C 901.19697,229.41283 903.54204,226.83325 903.40627,223.797 C 903.25816,220.76075 900.67858,218.41568 897.64233,218.55145 L 896.0625,218.6255 C 903.89997,212.1457 896.86476,199.13673 894.59374,194.22442 C 891.84137,188.25066 880.68377,168.92234 870.8715,150.68016 C 861.05923,132.43798 850.37064,113.83786 835.69543,101.44601 C 821.03257,89.054166 801.25992,84.524476 801.25992,84.524476 C 797.5942,84.524476 794.84183,79.007388 793.91614,75.341672 C 792.08946,68.911241 792.08946,61.567466 787.49806,55.149378 C 782.00565,47.805603 772.83519,44.127544 763.66473,45.966574 L 758.15998,48.718946 C 749.91521,56.062721 739.70798,71.552531 741.65809,73.502643 C 743.6082,75.452755 744.41046,73.502643 746.24949,74.415986 C 749.00187,77.180702 749.91521,80.846418 752.66758,83.59879 C 755.40761,87.276849 753.43282,94.95387 756.66654,95.027925 C 758.50557,95.077295 758.85116,95.311802 760.91236,91.868251 C 761.8257,93.694938 762.97355,94.731706 764.57807,95.990639 C 766.76269,97.027407 765.63953,97.397681 766.1826,97.718586 C 767.82415,98.656614 767.56495,100.81655 768.93497,101.50773 C 773.52637,102.42107 778.33994,98.28634 782.00565,100.12537 C 784.75803,101.9644 788.42374,99.212026 790.25043,101.9644 C 791.17611,105.63011 793.0028,109.30817 792.08946,112.06055 C 792.08946,112.06055 789.44817,108.69105 791.64513,113.24542 C 788.65825,118.77485 786.90562,129.22893 784.6346,137.412 C 781.70943,147.94013 782.40061,159.93702 782.73386,166.83646 C 776.61199,169.51478 769.03371,174.26664 761.44308,180.45022 C 755.96302,184.93054 751.22351,189.54662 747.5578,193.84181 L 747.54545,193.82946 L 742.26287,199.39592 C 740.51024,199.66746 731.2287,201.38306 727.39019,207.77647 C 726.09423,209.94874 724.90935,213.57743 726.68666,218.48974 L 726.9582,219.25497 L 733.98107,226.27784 L 731.79645,233.85612 C 727.50127,224.59926 714.99834,225.03125 714.99834,225.03125 L 715.8006,246.55653 C 715.8006,246.55653 715.45501,252.12299 719.58974,252.12299 C 723.30483,252.12299 725.89675,250.3827 727.72343,247.98826 L 720.60182,272.68556 C 713.03588,269.9085 704.9639,268.45209 696.66976,268.45209 C 658.38339,268.45209 627.24332,299.62919 627.24332,337.95258 C 627.24332,356.51567 634.46367,373.96794 647.58372,387.10033 C 660.69143,400.22039 678.11901,407.45308 696.66976,407.45308 C 715.20816,407.45308 732.63574,400.22039 745.74345,387.10033 C 758.86351,373.96794 766.08386,356.51567 766.08386,337.95258 C 766.08386,319.3895 758.86351,301.93723 745.74345,288.80484 C 740.75709,283.80613 735.12892,279.6714 729.05642,276.45002 L 733.78359,260.08389 L 790.23809,310.77445 C 789.58393,311.47797 788.97915,312.2432 788.42374,313.09483 C 787.80662,314.32908 787.80662,317.37767 788.42374,317.37767 C 791.63279,318.53787 794.76778,318.38976 797.84105,317.5875 L 801.07478,320.50032 C 798.79142,324.25243 797.48312,328.6587 797.48312,333.36118 C 797.48312,339.98909 800.0627,346.22205 804.7405,350.91219 C 809.43064,355.60233 815.65125,358.18191 822.27916,358.18191 C 828.89473,358.18191 835.12768,355.60233 839.80548,350.91219 C 839.90422,350.81345 839.99062,350.71471 840.08936,350.61597 C 840.1881,350.67768 840.29918,350.75174 840.39792,350.81345 C 839.15133,352.62779 837.06545,355.23205 833.65892,358.99651 C 822.04465,371.85737 826.1547,373.62235 829.51185,375.15281 C 832.88135,376.68328 842.96515,369.41356 845.40896,366.35263 C 847.85278,363.29169 852.2467,360.13202 852.2467,360.13202 C 852.2467,360.13202 851.98751,357.77461 854.43132,356.5527 C 855.40637,356.07134 856.36909,356.25648 857.19603,356.66378 C 860.35571,368.05589 866.37884,378.50997 874.95686,387.10033 C 888.07691,400.22039 905.50449,407.45308 924.04289,407.45308 C 942.59364,407.45308 960.02122,400.22039 973.12893,387.10033 C 986.24899,373.96794 993.46934,356.51567 993.46934,337.95258 C 993.46934,319.3895 986.24899,301.93723 973.12893,288.80484 z M 739.26365,295.29698 C 750.64342,306.68909 756.91339,321.83331 756.91339,337.95258 C 756.91339,371.21556 729.88337,398.27028 696.66976,398.27028 C 680.57517,398.27028 665.44329,392.0003 654.06352,380.60819 C 642.68376,369.21608 636.41378,354.05952 636.41378,337.95258 C 636.41378,321.83331 642.68376,306.68909 654.06352,295.29698 C 665.44329,283.90487 680.57517,277.62255 696.66976,277.62255 C 704.08759,277.62255 711.30794,278.98022 718.04693,281.53512 L 712.28299,301.55462 L 692.38692,335.6322 C 691.1033,337.81682 691.84385,340.6309 694.02847,341.91452 C 696.21309,343.19814 699.01483,342.45759 700.29845,340.26063 L 720.49074,305.68935 C 720.67588,305.3561 720.82399,305.01051 720.93507,304.64024 L 726.45216,285.50939 C 731.08059,288.15068 735.38811,291.42144 739.26365,295.29698 z M 916.64975,333.02794 L 864.25593,330.65818 C 865.84811,317.30362 871.79718,304.9488 881.449,295.29698 C 885.29985,291.43378 889.59504,288.17537 894.21112,285.53408 L 916.64975,333.02794 z M 774.14349,196.05111 C 784.79505,187.34966 794.53327,187.02876 798.81611,174.18024 C 802.39543,168.42864 802.81507,163.14606 805.53042,153.37082 C 806.02412,151.5935 809.4183,145.90362 809.81326,144.18802 C 812.9359,148.81645 814.17015,149.68042 818.67516,155.66652 C 842.52082,187.33732 845.26085,196.9768 845.26085,196.9768 C 845.26085,196.9768 844.27346,202.85182 839.08962,204.38228 C 833.89343,205.91275 828.31463,208.02331 822.63709,210.63992 C 811.6276,215.73736 802.38308,221.83455 796.42167,227.49975 L 743.16387,227.49975 L 747.05175,214.05879 L 748.92781,214.9351 L 756.03708,208.14674 C 761.51714,205.35734 767.82415,201.21027 774.14349,196.05111 z M 733.3516,215.26835 C 732.83322,213.35527 733.26521,212.24444 733.67251,211.56561 C 734.75865,209.75126 737.22714,208.49233 739.48581,207.69007 C 739.4241,208.18377 739.4241,208.64044 739.47347,209.07243 C 738.99212,209.57847 738.6095,210.19559 738.41202,210.91145 L 736.30146,218.2182 L 733.3516,215.26835 z M 797.96448,305.36844 L 736.70876,250.3827 C 736.67173,250.35802 736.6347,250.33333 736.59767,250.30865 L 740.01654,238.42284 C 740.34979,238.48455 740.67069,238.52158 741.01628,238.52158 L 789.23835,238.52158 C 789.12726,239.52132 789.25069,240.45935 789.6333,241.28629 C 790.20106,242.49586 789.37411,246.34671 790.86755,247.00086 C 790.99098,253.69049 793.9902,259.07181 796.07608,267.90902 C 799.34684,281.80665 804.23446,293.43327 808.72712,299.03675 C 805.56744,301.85084 801.66722,303.48004 797.96448,305.36844 z M 822.27916,352.67716 C 817.12,352.67716 812.28175,350.66534 808.62838,347.02431 C 804.98735,343.37093 802.98787,338.52034 802.98787,333.36118 C 802.98787,330.12745 803.77778,327.01715 805.25888,324.25243 L 819.21823,336.78005 C 819.9958,337.48357 821.00788,337.90322 822.06934,337.94024 L 827.88265,338.21178 C 830.48691,341.96389 833.25162,344.97546 835.69543,347.18476 C 832.2272,350.57894 827.50003,352.67716 822.27916,352.67716 z M 811.38075,317.42704 C 812.71374,316.50136 814.14547,315.77315 815.65125,315.23008 C 816.73739,317.93309 817.89758,321.50006 819.05777,324.3018 L 811.38075,317.42704 z M 839.18836,245.19886 C 831.70881,257.31917 824.87108,271.27852 821.60032,281.74494 C 821.42753,277.61021 820.79806,272.94475 819.60084,267.81028 C 817.92226,260.71336 815.7253,248.13637 813.47897,242.71802 C 820.31671,241.40972 826.46326,241.85405 834.51056,238.52158 L 844.34751,238.52158 C 842.00244,241.38503 839.90422,244.03867 839.18836,245.19886 z M 855.07312,330.23854 L 852.22201,330.11511 L 847.95151,322.33935 C 847.3961,318.27867 845.33491,313.05781 844.27346,308.57749 C 843.10092,303.59113 846.54447,301.81381 842.21226,291.68063 C 848.93891,283.11495 854.38195,277.2893 862.68843,264.9098 C 867.11938,258.29423 871.40222,251.48118 875.17902,245.26057 L 890.29856,277.25228 C 871.16772,287.95321 857.59099,307.45432 855.07312,330.23854 z M 924.04289,398.27028 C 907.96064,398.27028 892.82877,392.0003 881.449,380.60819 C 873.9818,373.12865 868.73625,364.04458 865.99622,354.13357 L 866.04559,354.10889 C 866.04559,354.09655 867.88462,352.26986 865.44081,347.98702 C 865.15693,347.49332 864.799,346.95025 864.41638,346.39484 C 864.10782,344.23491 863.91034,342.03795 863.84863,339.82864 L 923.84541,342.53164 C 925.44994,342.6057 926.9804,341.82812 927.86906,340.49514 C 928.75772,339.14981 928.88115,337.44654 928.18997,335.99013 L 902.49293,281.60917 C 909.28129,279.00491 916.56335,277.62255 924.04289,277.62255 C 940.13749,277.62255 955.26936,283.90487 966.64913,295.29698 C 978.02889,306.68909 984.29887,321.83331 984.29887,337.95258 C 984.29887,371.21556 957.26885,398.27028 924.04289,398.27028"
       style="fill:black;fill-rule:nonzero;stroke:none"
       id="path205" />
    <path
       d="M 662.61686,432.16272 L 699.48384,432.16272 L 699.48384,415.63614 L 662.61686,415.63614 L 662.61686,432.16272 z M 712.72732,432.16272 L 749.5943,432.16272 L 749.5943,415.63614 L 712.72732,415.63614 L 712.72732,432.16272 z M 762.82544,432.16272 L 799.69242,432.16272 L 799.69242,415.63614 L 762.82544,415.63614 L 762.82544,432.16272 z M 812.92356,432.16272 L 849.79054,432.16272 L 849.79054,415.63614 L 812.92356,415.63614 L 812.92356,432.16272 z M 863.02168,432.16272 L 899.88866,432.16272 L 899.88866,415.63614 L 863.02168,415.63614 L 863.02168,432.16272 z M 913.13214,432.16272 L 949.99913,432.16272 L 949.99913,415.63614 L 913.13214,415.63614 L 913.13214,432.16272 z M 963.23026,432.16272 L 1000.0972,432.16272 L 1000.0972,415.63614 L 963.23026,415.63614 L 963.23026,432.16272 z M 1013.3284,432.16272 L 1050.1954,432.16272 L 1050.1954,415.63614 L 1013.3284,415.63614 L 1013.3284,432.16272 z M 612.51874,432.16272 L 649.38572,432.16272 L 649.38572,415.63614 L 612.51874,415.63614 L 612.51874,432.16272 z M 562.42062,432.16272 L 599.2876,432.16272 L 599.2876,415.63614 L 562.42062,415.63614 L 562.42062,432.16272 z M 670.42965,362.16853 L 695.36145,362.16853 L 695.36145,347.93765 L 670.42965,347.93765 L 670.42965,362.16853 z M 712.78903,362.16853 L 737.72084,362.16853 L 737.72084,347.93765 L 712.78903,347.93765 L 712.78903,362.16853 z M 755.14842,362.16853 L 780.08023,362.16853 L 780.08023,347.93765 L 755.14842,347.93765 L 755.14842,362.16853 z M 797.50781,362.16853 L 822.43961,362.16853 L 822.43961,347.93765 L 797.50781,347.93765 L 797.50781,362.16853 z M 839.86719,362.16853 L 864.799,362.16853 L 864.799,347.93765 L 839.86719,347.93765 L 839.86719,362.16853 z M 882.22658,362.16853 L 907.15838,362.16853 L 907.15838,347.93765 L 882.22658,347.93765 L 882.22658,362.16853 z M 924.58596,362.16853 L 949.51777,362.16853 L 949.51777,347.93765 L 924.58596,347.93765 L 924.58596,362.16853 z M 966.94535,362.16853 L 991.87716,362.16853 L 991.87716,347.93765 L 966.94535,347.93765 L 966.94535,362.16853 z M 628.07026,362.16853 L 653.00207,362.16853 L 653.00207,347.93765 L 628.07026,347.93765 L 628.07026,362.16853 z M 585.71088,362.16853 L 610.64268,362.16853 L 610.64268,347.93765 L 585.71088,347.93765 L 585.71088,362.16853 z M 1009.3047,362.16853 L 1034.2365,362.16853 L 1034.2365,347.93765 L 1009.3047,347.93765 L 1009.3047,362.16853 z "
       style="fill:black;fill-rule:nonzero;stroke:none"
       id="path207" />
  </g>
</svg>
