<?xml version="1.0" encoding="UTF-8" standalone="no"?>
<!-- Created with Inkscape (http://www.inkscape.org/) -->
<svg
   xmlns:svg="http://www.w3.org/2000/svg"
   xmlns="http://www.w3.org/2000/svg"
   version="1.0"
   width="1000"
   height="873.01959"
   id="svg4760">
  <defs
     id="defs4762" />
  <g
     transform="translate(-309.4004,305.2131)"
     id="layer1">
    <path
       d="M 783.8398,-286.98017 C 797.89166,-311.29075 820.87218,-311.29075 834.91172,-286.98017 L 1303.4015,523.6065 C 1317.4533,547.90477 1305.9631,567.78181 1277.8717,567.78181 L 340.9291,567.80644 C 312.8377,567.80644 301.34744,547.9294 315.3993,523.63114 L 783.8398,-286.98017 z "
       style="fill:#ee1c23;fill-rule:nonzero;stroke:none"
       id="path4774" />
    <path
       d="M 470.2407,463.85223 L 1148.5601,463.8276 L 809.38192,-123.01306 L 470.2407,463.85223"
       style="fill:white;fill-rule:nonzero;stroke:none"
       id="path299" />
    <path
       d="M 809.38192,156.80492 C 840.67533,156.80492 866.03272,131.45985 866.03272,100.20339 C 866.03272,68.946925 840.67533,43.601852 809.38192,43.601852 C 778.08851,43.601852 752.71881,68.946925 752.71881,100.20339 C 752.71881,131.45985 778.08851,156.80492 809.38192,156.80492"
       style="fill:#ee1c23;fill-rule:nonzero;stroke:none"
       id="path301" />
    <path
       d="M 809.38192,289.19537 C 840.67533,289.19537 866.03272,263.85029 866.03272,232.59383 C 866.03272,201.33737 840.67533,175.9923 809.38192,175.9923 C 778.08851,175.9923 752.71881,201.33737 752.71881,232.59383 C 752.71881,263.85029 778.08851,289.19537 809.38192,289.19537"
       style="fill:#fff100;fill-rule:nonzero;stroke:none"
       id="path303" />
    <path
       d="M 809.38192,421.58581 C 840.67533,421.58581 866.03272,396.24074 866.03272,364.98428 C 866.03272,333.72782 840.67533,308.38274 809.38192,308.38274 C 778.08851,308.38274 752.71881,333.72782 752.71881,364.98428 C 752.71881,396.24074 778.08851,421.58581 809.38192,421.58581"
       style="fill:#0b8f4b;fill-rule:nonzero;stroke:none"
       id="path305" />
  </g>
</svg>
