<?xml version="1.0" encoding="UTF-8" standalone="no"?>
<!-- Created with Inkscape (http://www.inkscape.org/) -->
<svg
   xmlns:svg="http://www.w3.org/2000/svg"
   xmlns="http://www.w3.org/2000/svg"
   version="1.0"
   width="380.00003"
   height="1199.9995"
   id="svg2525">
  <defs
     id="defs2527"><clipPath
   id="id16">
      <path
   d="M 77.18,458.44 L 159.26,458.44 L 159.26,284.56 L 77.18,284.56 L 77.18,458.44 z "
   id="path42" />

    </clipPath>

        
      </defs>
  <g
     transform="translate(498.9769,1078.255)"
     id="layer1">
    <g
       transform="matrix(-0.944841,0,0,0.960453,-590.4307,4.814583)"
       id="g2594">
      <rect
         width="361.63812"
         height="1211.9019"
         x="118.25579"
         y="-1106.7209"
         transform="scale(-1,1)"
         style="opacity:1;fill:white;fill-opacity:1;fill-rule:evenodd;stroke:black;stroke-width:0.25;stroke-linejoin:round;stroke-miterlimit:4;stroke-dasharray:none;stroke-opacity:1"
         id="rect2552" />
      <path
         d="M -474.24757,-601.79784 L -474.24757,-746.4053 L -121.76844,-941.39507 L -121.76844,-796.78761 L -474.24757,-601.79784"
         style="fill:#ee1c23;fill-rule:nonzero;stroke:none"
         id="path91" />
      <path
         d="M -474.24757,-307.77993 L -474.24757,-452.38738 L -121.76844,-647.37715 L -121.76844,-502.76969 L -474.24757,-307.77993"
         style="fill:#ee1c23;fill-rule:nonzero;stroke:none"
         id="path93" />
      <path
         d="M -474.24757,-13.761983 L -474.24757,-158.36946 L -121.76844,-353.35923 L -121.76844,-208.75177 L -474.24757,-13.761983"
         style="fill:#ee1c23;fill-rule:nonzero;stroke:none"
         id="path95" />
      <path
         d="M -490.99652,-1119.7098 C -485.84868,-1124.8453 -479.01363,-1127.6655 -471.74754,-1127.6655 L -124.00984,-1127.6655 C -108.99736,-1127.6655 -96.792801,-1115.4733 -96.792801,-1100.4854 L -96.792801,94.564297 C -96.792801,101.83038 -99.625341,108.65312 -104.76087,113.78864 C -109.9087,118.92416 -116.74375,121.74439 -124.00984,121.74439 L -471.74754,121.74439 C -479.01363,121.74439 -485.84868,118.92416 -490.99652,113.78864 C -496.14436,108.65312 -498.9769,101.83038 -498.9769,94.564297 L -498.9769,-1100.4854 C -498.9769,-1107.7515 -496.14436,-1114.5743 -490.99652,-1119.7098 z M -133.77595,-1090.744 L -461.99375,-1090.744 L -461.99375,84.835129 L -133.77595,84.835129 L -133.77595,-1090.744 z "
         style="fill:black;fill-rule:nonzero;stroke:none"
         id="path97" />
    </g>
  </g>
</svg>
