<?xml version="1.0" encoding="UTF-8" standalone="no"?>
<!-- Created with Inkscape (http://www.inkscape.org/) -->
<svg
   xmlns:svg="http://www.w3.org/2000/svg"
   xmlns="http://www.w3.org/2000/svg"
   version="1.0"
   width="1000.0005"
   height="874.93304"
   id="svg2701">
  <defs
     id="defs2703" />
  <g
     transform="translate(69.08184,727.127)"
     id="layer1">
    <path
       d="M 405.36546,-708.86308 C 419.41124,-733.21486 442.38066,-733.21486 456.42644,-708.86308 L 924.92352,103.50875 C 938.9693,127.86056 927.47841,147.79377 899.39919,147.79377 L -37.557922,147.80607 C -65.637137,147.80607 -77.128023,127.88526 -63.094586,103.53345 L 405.36546,-708.86308 z "
       style="fill:#ee1c23;fill-rule:nonzero;stroke:none"
       id="path3613" />
    <path
       d="M 91.754577,43.622915 L 770.07436,43.610615 L 430.90213,-544.53487 L 91.754577,43.622915"
       style="fill:white;fill-rule:nonzero;stroke:none"
       id="path111" />
    <path
       d="M 451.67457,-152.47489 L 446.15746,-143.19338 C 441.68948,-135.68908 444.14563,-125.98788 451.63755,-121.50757 C 459.12945,-117.03957 468.83067,-119.49567 473.29865,-126.99998 L 479.02558,-136.62708 C 488.67743,-133.10948 499.77334,-136.81228 505.21639,-145.98279 L 530.98755,-189.25561 C 536.23312,-198.05581 534.55454,-209.04062 527.59337,-215.95242 L 538.45477,-234.18233 C 548.09428,-250.38804 542.77466,-271.43205 526.59362,-281.08386 L 433.07441,-336.89673 C 416.89337,-346.56091 395.88642,-341.22895 386.23457,-325.03558 L 375.38551,-306.79337 C 366.00519,-309.63207 355.55109,-305.87997 350.30551,-297.07977 L 324.5467,-253.80694 C 319.09131,-244.64884 321.11548,-233.12093 328.79252,-226.28313 L 323.05325,-216.65592 C 318.59761,-209.15172 321.04142,-199.45051 328.54567,-194.97021 C 336.03758,-190.50221 345.73879,-192.95831 350.20677,-200.46262 L 355.72388,-209.74412 L 451.67457,-152.47489 M 506.75921,-229.15893 L 517.27502,-246.82104 C 518.57098,-249.00574 518.9536,-251.57294 518.32413,-254.04144 C 517.70701,-256.50994 516.15185,-258.58345 513.97957,-259.87945 L 420.46036,-315.69228 C 418.27573,-317.00058 415.70849,-317.37088 413.25233,-316.74138 C 410.78383,-316.12428 408.71028,-314.58148 407.41432,-312.39687 L 396.8985,-294.73467 L 506.75921,-229.15893"
       style="fill:black;fill-rule:evenodd;stroke:none"
       id="path113" />
    <path
       d="M 329.87866,-169.8902 C 329.87866,-169.8902 238.96371,-173.3584 237.4209,-139.41648 C 235.89043,-105.47466 285.58139,-96.21776 367.25178,-82.332452 C 448.92219,-68.447045 582.97422,-46.847733 581.44375,-19.077019 C 579.90093,8.6935963 538.29432,2.5223931 524.42134,-2.1061094 C 524.42134,-2.1061094 520.61984,0.3500919 524.03872,4.4477941 C 528.11175,9.3353967 541.76256,15.8399 575.27249,13.322099 C 636.911,8.6935963 621.50754,-37.590829 598.39001,-49.933335 C 575.27249,-62.275842 482.81472,-79.246751 401.14433,-91.589257 C 319.48627,-103.93176 271.7084,-106.68417 271.7084,-139.41648 C 271.7084,-156.38749 322.55955,-164.1016 328.7308,-164.1016 C 334.88972,-164.1016 329.87866,-169.8902 329.87866,-169.8902"
       style="fill:black;fill-rule:nonzero;stroke:none"
       id="path117" />
    <path
       d="M 429.39634,-126.04958 C 429.39634,-126.04958 353.3788,-134.78808 323.07794,-113.18867 C 284.98894,-86.047554 297.91156,-74.099948 315.88225,-61.757441 C 333.86529,-49.414935 367.25178,-45.304833 364.16616,-30.395125 C 361.08053,-15.473017 333.86529,-14.967017 290.71587,-30.395125 C 277.23784,-35.208727 285.58139,-25.248322 285.58139,-25.248322 C 285.58139,-25.248322 319.01725,4.7809943 379.06357,-8.795713 C 410.90726,-15.991417 399.61385,-48.390534 366.7334,-58.67184 C 350.25614,-63.830943 317.42507,-80.789552 337.45697,-95.699359 C 357.48886,-110.62147 393.96099,-121.92717 426.82909,-121.42117 C 426.82909,-121.42117 437.61645,-123.98837 429.39634,-126.04958"
       style="fill:black;fill-rule:nonzero;stroke:none"
       id="path119" />
  </g>
</svg>
