<?xml version="1.0" encoding="UTF-8" standalone="no"?>
<!-- Created with Inkscape (http://www.inkscape.org/) -->
<svg
   xmlns:svg="http://www.w3.org/2000/svg"
   xmlns="http://www.w3.org/2000/svg"
   version="1.0"
   width="999.99994"
   height="873.01569"
   id="svg4776">
  <defs
     id="defs4778" />
  <g
     transform="translate(-679.4002,648.0664)"
     id="layer1">
    <path
       d="M 1153.8419,-629.83354 C 1167.8814,-654.14401 1190.8618,-654.14401 1204.9136,-629.83354 L 1673.4013,180.74956 C 1687.4531,205.04772 1675.9629,224.92467 1647.8716,224.92467 L 710.9332,224.9493 C 682.84192,224.9493 671.35171,205.07235 685.39119,180.77419 L 1153.8419,-629.83354 z "
       style="fill:#ee1c23;fill-rule:nonzero;stroke:none"
       id="path4789" />
    <path
       d="M 840.23191,120.99555 L 1518.5483,120.97092 L 1179.3716,-465.86715 L 840.23191,120.99555"
       style="fill:white;fill-rule:nonzero;stroke:none"
       id="path317" />
    <path
       d="M 1179.3716,84.837723 C 1204.655,84.837723 1225.1354,64.369635 1225.1354,39.123196 C 1225.1354,13.876757 1204.655,-6.591331 1179.3716,-6.591331 C 1154.1006,-6.591331 1133.6078,13.876757 1133.6078,39.123196 C 1133.6078,64.369635 1154.1006,84.837723 1179.3716,84.837723 M 1179.3716,-34.202314 C 1196.3175,-34.202314 1210.2585,-47.084156 1211.8964,-63.586706 L 1211.9334,-63.586706 L 1225.2216,-280.25041 L 1225.0246,-280.29967 C 1225.0615,-281.05091 1225.1354,-281.80214 1225.1354,-282.56569 C 1225.1354,-307.81213 1204.655,-328.28022 1179.3716,-328.28022 C 1154.1006,-328.28022 1133.6078,-307.81213 1133.6078,-282.56569 C 1133.6078,-281.80214 1133.6941,-281.05091 1133.731,-280.29967 L 1133.534,-280.25041 L 1146.8222,-63.586706 L 1146.8591,-63.586706 C 1148.4971,-47.084156 1162.4257,-34.202314 1179.3716,-34.202314"
       style="fill:black;fill-rule:nonzero;stroke:none"
       id="path319" />
  </g>
</svg>
