<?xml version="1.0" encoding="UTF-8" standalone="no"?>
<!-- Created with Inkscape (http://www.inkscape.org/) -->
<svg
   xmlns:svg="http://www.w3.org/2000/svg"
   xmlns="http://www.w3.org/2000/svg"
   version="1.0"
   width="1000.0001"
   height="874.92786"
   id="svg2389">
  <defs
     id="defs2391">
    <clipPath
       id="id24">
      <path
         d="M 166.82,699.28 L 248.72,699.28 L 248.72,627.28 L 166.82,627.28 L 166.82,699.28 z "
         id="path12" />
    </clipPath>
  </defs>
  <path
     d="M 525.54972,18.263384 C 511.51636,-6.0882505 488.53474,-6.0882505 474.48904,18.263384 L 5.9946986,830.63044 C -8.0509714,854.98208 3.4398186,874.91512 31.518869,874.91512 L 968.47052,874.92746 C 996.54957,874.92746 1008.0527,855.00676 994.00702,830.65513 L 525.54972,18.263384 z "
     style="fill:#ee1c23;fill-rule:nonzero;stroke:none"
     id="path1881" />
  <path
     d="M 839.15877,770.74492 L 160.84296,770.73258 L 500.01321,182.59063 L 839.15877,770.74492"
     style="fill:white;fill-rule:nonzero;stroke:none"
     id="path231" />
  <path
     d="M 385.62274,473.73741 L 419.00904,435.16729 L 433.26455,435.16729 C 536.76825,435.16729 620.67214,519.18227 620.67214,622.80939 L 620.67214,735.03919 L 582.15139,703.80047 L 543.55659,735.03919 L 543.55659,622.80939 C 543.55659,561.81306 494.17449,512.38159 433.26455,512.38159 L 419.00904,512.38159 L 385.62274,473.73741"
     style="fill:black;fill-rule:nonzero;stroke:none"
     id="path233" />
</svg>
