<?xml version="1.0" encoding="UTF-8" standalone="no"?>
<!-- Created with Inkscape (http://www.inkscape.org/) -->
<svg
   xmlns:svg="http://www.w3.org/2000/svg"
   xmlns="http://www.w3.org/2000/svg"
   version="1.0"
   width="1086.0006"
   height="683.55798"
   id="svg2626">
  <defs
     id="defs2628" />
  <g
     transform="translate(1608.589,2123.311)"
     id="layer1">
    <path
       d="M -628.75985,-1439.7527 L -1065.5826,-1691.7862 L -1502.4182,-1439.7527 L -1608.5894,-1468.0184 L -1580.2071,-1574.3839 L -1221.1475,-1781.5317 L -1580.2071,-1988.6795 L -1608.4987,-2094.76 L -1502.4182,-2123.3107 L -1065.5826,-1871.2772 L -628.75985,-2123.3107 L -522.67945,-2094.76 L -550.97105,-1988.6795 L -910.03065,-1781.5317 L -550.97105,-1574.3839 L -522.58875,-1468.0184 L -628.75985,-1439.7527 z "
       style="fill:#ee1c23;fill-rule:nonzero;stroke:none"
       id="path2652" />
    <path
       d="M -613.92755,-1997.2421 L -652.81545,-2064.5512 L -1065.5826,-1826.4044 L -1478.3626,-2064.5512 L -1517.2505,-1997.2421 L -1143.3715,-1781.5317 L -1517.2505,-1565.8213 L -1478.3626,-1498.5121 L -1065.5826,-1736.659 L -652.81545,-1498.5121 L -613.92755,-1565.8213 L -987.80655,-1781.5317 L -613.92755,-1997.2421"
       style="fill:white;fill-rule:nonzero;stroke:none"
       id="path197" />
  </g>
</svg>
