<?xml version="1.0" encoding="UTF-8" standalone="no"?>
<!-- Created with Inkscape (http://www.inkscape.org/) -->
<svg
   xmlns:svg="http://www.w3.org/2000/svg"
   xmlns="http://www.w3.org/2000/svg"
   version="1.0"
   width="1000"
   height="873.00836"
   id="svg2686">
  <defs
     id="defs2688" />
  <g
     transform="translate(-309.4003,305.2023)"
     id="layer1">
    <path
       d="M 783.83646,-286.97865 C 797.88829,-311.27686 820.86875,-311.27686 834.90827,-286.97865 L 1303.4093,523.60623 C 1317.4488,547.90444 1305.9586,567.79375 1277.8672,567.79375 L 340.92674,567.80607 C 312.84771,567.80607 301.34516,547.92907 315.39699,523.63086 L 783.83646,-286.97865 z "
       style="fill:#ee1c23;fill-rule:nonzero;stroke:none"
       id="path2699" />
    <path
       d="M 470.23805,463.85209 L 1148.5559,463.83977 L 809.37852,-123.01191 L 470.23805,463.85209"
       style="fill:white;fill-rule:nonzero;stroke:none"
       id="path103" />
    <path
       d="M 710.47384,114.71155 C 711.4837,114.12041 712.1241,113.81253 712.1241,113.81253 C 712.1241,113.81253 707.38268,116.02929 710.47384,114.71155"
       style="fill:black;fill-rule:nonzero;stroke:none"
       id="path105" />
    <path
       d="M 1071.5603,431.10554 L 1071.4002,431.10554 C 1068.5923,421.65966 1058.937,416.84435 1056.1907,408.58074 C 1055.2055,404.66446 1053.2473,400.74817 1051.2892,397.8048 C 1051.2892,396.83188 1050.304,395.84666 1048.3458,393.88851 C 1043.4443,389.97223 1046.3877,382.13966 1042.4591,377.23814 C 1041.4862,377.23814 1039.5157,376.26523 1038.5428,375.28 C 1037.5576,365.48929 1030.6979,359.61486 1024.8235,351.78229 C 1023.8383,350.79706 1019.922,349.82414 1017.9515,347.866 C 1011.0919,341.00634 1014.0352,330.24272 1008.1485,322.39783 C 1006.1903,320.43969 1004.2322,319.46677 1001.2888,317.50863 C 998.34545,315.55049 998.34545,310.64897 996.38731,306.73269 C 994.42917,301.84349 988.55474,302.8164 987.56951,296.94197 C 986.58428,293.9986 986.58428,289.1094 983.65322,287.15126 C 975.80834,283.23498 966.97822,285.19312 959.14565,288.12417 C 953.25891,290.08232 947.38448,295.95675 944.44111,301.84349 C 941.49774,306.73269 938.55436,311.6342 937.58145,317.50863 C 937.58145,320.43969 934.63808,323.38306 930.70948,324.35597 C 931.69471,326.31412 929.73656,327.29934 929.73656,328.27226 C 918.8621,332.80431 913.84975,341.51127 905.41372,348.21083 L 872.87653,309.18345 L 860.78285,287.53304 L 860.29023,286.38771 L 859.2188,285.74731 L 826.5954,266.16588 L 827.78999,263.64123 C 827.78999,263.64123 825.83185,230.35281 827.78999,219.57686 C 829.74813,208.80092 834.64965,175.51249 837.59302,158.86212 C 840.53639,142.21175 824.84662,119.68695 824.84662,119.68695 L 827.88851,114.48987 C 833.38116,119.2436 837.27282,118.06133 837.27282,118.06133 L 841.1891,117.0761 L 841.1891,116.10318 L 844.13248,116.10318 L 844.78519,113.49233 L 847.39605,112.1869 C 847.39605,112.1869 848.70148,114.14504 849.6867,114.79775 C 850.65962,115.45047 852.29756,115.77067 853.28279,114.14504 C 854.2557,112.5071 854.58822,105.97995 853.9355,104.02181 C 853.28279,102.06367 854.58822,100.10553 856.86656,99.785327 C 859.15722,99.452812 858.17199,98.147384 859.80993,94.883813 C 861.44788,91.620242 865.36416,88.67687 864.39125,82.149727 C 862.64247,70.511709 841.1891,61.915586 836.60779,59.957443 C 832.03879,57.9993 828.1225,59.957443 819.9451,65.511672 C 809.58788,72.543744 809.14453,85.006892 809.88345,92.112856 L 804.26765,97.17447 C 804.26765,97.162155 799.53855,95.388743 791.05326,97.704031 C 785.03105,94.723713 767.53092,89.157169 736.63167,103.0489 C 719.68573,110.65979 712.81376,113.70169 710.47384,114.71155 C 706.23736,117.1623 695.26437,124.69931 694.47618,137.32255 C 693.71263,149.65023 694.14367,175.29082 694.37766,185.67267 L 693.29391,186.10371 L 687.87515,182.85245 L 690.37517,179.18247 C 691.58207,177.38443 691.12641,174.9583 689.32836,173.73908 C 687.54263,172.51986 685.10419,172.98785 683.88497,174.78589 L 674.57456,188.49289 C 673.35534,190.27862 673.82332,192.71706 675.60905,193.93628 C 677.40709,195.14318 679.84553,194.6752 681.06475,192.88947 L 683.46625,189.34265 L 687.69042,191.87961 C 686.49583,196.76881 686.33573,204.34276 696.28654,205.27873 C 691.22493,216.20245 687.6781,231.39961 689.57467,251.89238 L 695.46141,309.67606 L 690.5599,352.7552 C 690.5599,352.7552 683.70024,388.01408 684.67315,408.58074 L 686.151,408.51916 L 686.151,423.18676 C 669.3159,425.35427 652.39459,421.78281 634.6851,426.20403 C 633.87228,426.20403 633.39198,426.54886 632.89937,426.94295 C 630.5964,425.34195 628.1949,423.75327 625.80572,422.04143 C 624.82049,420.08329 619.91898,421.06852 617.96083,418.12515 C 616.9756,416.167 618.94606,412.25072 617.96083,410.29258 C 612.07409,405.39106 608.1578,400.50186 602.27106,395.60035 C 601.29815,393.64221 599.34,391.68406 596.39663,390.71115 C 594.43849,390.71115 596.39663,386.79486 595.4114,384.83672 C 594.43849,384.83672 593.45326,383.85149 592.48035,383.85149 C 589.53698,380.92044 587.57883,376.99183 583.65023,379.93521 C 577.7758,383.85149 572.87429,386.79486 565.0294,388.75301 C 559.14266,389.72592 562.08603,397.55849 559.14266,402.46001 L 556.19929,402.46001 C 556.19929,405.39106 556.19929,409.30735 555.22637,411.27781 C 549.33963,415.19409 546.40857,421.06852 541.50706,425.95772 C 540.02922,426.94295 539.30261,428.90109 538.80999,431.10554 L 538.74842,431.10554 L 535.65726,442.8544 L 1074.8115,442.8544 L 1071.5603,431.10554 z M 787.60496,191.17764 L 803.68882,172.27355 L 808.18393,222.52024 L 806.22579,231.32572 L 803.31936,238.87504 C 788.94733,222.59413 779.76007,216.64581 779.76007,216.64581 L 787.60496,191.17764 z M 727.80156,138.29547 C 732.45676,137.37182 739.52578,135.78313 745.68346,134.36687 C 737.76468,144.5763 729.21782,157.49512 720.16603,173.78834 L 718.01084,147.11327 C 718.01084,147.11327 718.01084,140.25361 727.80156,138.29547 z M 735.24004,430.87155 C 735.22772,430.95776 735.22772,431.03165 735.2154,431.10554 L 692.66583,431.10554 C 692.62888,430.82229 692.59193,430.52672 692.54267,430.21883 L 735.24004,430.87155 z M 777.80193,327.29934 C 771.91519,348.83891 763.09739,388.99931 757.21064,402.70631 C 757.21064,402.70631 758.14661,403.13735 759.75992,403.82701 C 754.58747,409.2704 756.73034,416.41331 756.73034,416.41331 L 755.74512,419.83698 L 764.0703,424.24588 L 765.05553,422.78035 C 769.46443,419.83698 772.90042,426.69664 772.90042,426.69664 L 775.4497,431.10554 L 759.41509,431.10554 C 759.43972,430.21883 759.1811,429.19666 759.1811,428.16217 C 755.2525,428.16217 751.33622,426.20403 752.30913,421.31483 C 751.27464,421.31483 750.30172,421.26556 749.36576,421.22862 C 747.86328,412.60786 743.49133,411.58569 740.54796,412.00441 C 737.12429,412.49703 727.80156,412.00441 727.80156,412.00441 L 726.36066,406.80733 L 730.74493,406.6226 C 730.74493,406.6226 728.78679,390.95746 733.6883,367.44743 C 738.58981,343.94972 740.54796,325.3412 739.57504,312.60712 C 738.58981,299.88535 743.49133,252.87761 743.49133,252.87761 C 743.49133,252.87761 780.7453,278.33346 789.5631,294.98383 C 789.5631,294.98383 783.67636,305.75977 777.80193,327.29934 z M 792.6912,414.12265 C 794.34146,414.33202 795.93014,414.45517 797.40799,414.45517 C 800.35136,414.45517 802.3095,413.46994 803.28242,404.66446 C 803.28242,404.66446 817.98696,331.21563 823.8737,317.50863 C 828.43039,306.88047 835.95507,295.03309 829.47719,277.02803 L 854.10792,291.81878 L 864.39125,315.16871 L 866.50949,320.9323 L 871.10312,330.29198 L 893.06141,357.54588 C 892.54417,360.36609 891.46042,362.92769 889.55153,365.48929 C 884.65002,372.34894 877.77805,379.19628 879.74851,388.99931 C 869.94548,390.95746 862.10059,399.76294 855.24093,406.6226 C 851.31233,410.53888 844.45268,414.45517 841.5093,419.35668 C 839.55116,422.28774 839.55116,427.18925 836.60779,427.18925 C 828.77522,429.1474 821.91556,428.16217 814.07067,428.16217 C 814.07067,430.12031 812.11253,431.10554 810.89331,431.10554 L 810.63469,427.18925 C 809.16916,420.3296 801.32427,422.28774 801.32427,422.28774 L 792.99909,417.39854 C 793.13456,416.22858 792.97446,415.1202 792.6912,414.12265"
       style="fill:black;fill-rule:nonzero;stroke:none"
       id="path107" />
  </g>
</svg>
