<?xml version="1.0" encoding="UTF-8" standalone="no"?>
<!-- Created with Inkscape (http://www.inkscape.org/) -->
<svg
   xmlns:svg="http://www.w3.org/2000/svg"
   xmlns="http://www.w3.org/2000/svg"
   version="1.0"
   width="1001.6309"
   height="875.28577"
   id="svg2402">
  <defs
     id="defs2404"><clipPath
   id="id26">
      <path
   d="M 346.28,699.28 L 427.28,699.28 L 427.28,627.28 L 346.28,627.28 L 346.28,699.28 z "
   id="path24" />

    </clipPath>

        
      </defs>
  <g
     transform="translate(773.5553,807.4781)"
     id="layer1">
    <path
       d="M -298.33618,-789.20694 C -284.27239,-813.56854 -261.25667,-813.56854 -247.18053,-789.20694 L 222.07348,23.492501 C 236.13727,47.854099 224.62941,67.795295 196.50183,67.795295 L -741.9815,67.807643 C -770.10908,67.807643 -781.61694,47.878794 -767.55315,23.517196 L -298.33618,-789.20694 z "
       style="fill:#ee1c23;fill-rule:nonzero;stroke:none"
       id="path2418" />
    <path
       d="M -612.45633,-36.41752 L 66.964308,-36.429868 L -272.76453,-624.81246 L -612.45633,-36.41752"
       style="fill:white;fill-rule:nonzero;stroke:none"
       id="path243" />
    <path
       d="M -302.8247,-289.78913 C -311.85071,-296.92598 -323.24745,-301.19821 -335.65668,-301.19821 C -364.8832,-301.19821 -388.59038,-277.49103 -388.59038,-248.26451 L -388.59038,-76.96774 L -356.06709,-103.25555 L -323.60553,-76.96774 L -323.54379,-224.28568 L -266.07856,-178.76047 C -256.92906,-171.20381 -245.19895,-166.67228 -232.40694,-166.67228 C -203.16808,-166.67228 -179.47324,-190.36712 -179.47324,-219.60598 L -179.47324,-352.4897 L -211.9348,-380.61729 L -244.4581,-352.4897 L -244.4581,-243.43664 L -302.8247,-289.78913"
       style="fill:black;fill-rule:nonzero;stroke:none"
       id="path245" />
  </g>
</svg>
