<?xml version="1.0" encoding="UTF-8" standalone="no"?>
<!-- Created with Inkscape (http://www.inkscape.org/) -->
<svg
   xmlns:svg="http://www.w3.org/2000/svg"
   xmlns="http://www.w3.org/2000/svg"
   version="1.0"
   width="1000.0002"
   height="873.51575"
   id="svg2484">
  <defs
     id="defs2486"><clipPath
   id="id21">
      <path
   d="M 345.74,578.86 L 427.82,578.86 L 427.82,506.86 L 345.74,506.86 L 345.74,578.86 z "
   id="path18" />

    </clipPath>

        
      </defs>
  <g
     transform="translate(774.8613,791.4246)"
     id="layer1">
    <path
       d="M -300.15227,-773.18125 C -286.09243,-797.50564 -263.09885,-797.50564 -249.05132,-773.18125 L 219.71704,37.866142 C 233.76456,62.178218 222.26777,82.066555 194.1604,82.066555 L -743.31471,82.0912 C -771.42208,82.0912 -782.91887,62.202862 -768.85902,37.890787 L -300.15227,-773.18125 z "
       style="fill:#ee1c23;fill-rule:nonzero;stroke:none"
       id="path2500" />
    <path
       d="M -613.92961,-21.922094 L 64.775306,-21.946739 L -274.59564,-609.12094 L -613.92961,-21.922094"
       style="fill:white;fill-rule:nonzero;stroke:none"
       id="path171" />
    <path
       d="M -105.00548,-113.2058 L -126.11372,-113.2058 L -126.11372,-208.64268 L -105.44908,-208.64268 L -105.44908,-229.1841 L -126.11372,-229.1841 L -126.11372,-256.6507 C -126.11372,-256.6507 -131.83131,-275.45467 -139.98873,-275.45467 C -148.14615,-275.45467 -153.86374,-256.6507 -153.86374,-256.6507 L -153.86374,-229.1841 L -193.4186,-229.1841 L -193.4186,-256.6507 C -193.4186,-256.6507 -199.13619,-275.45467 -207.29361,-275.45467 C -215.45103,-275.45467 -221.16862,-256.6507 -221.16862,-256.6507 L -221.16862,-229.1841 L -260.72348,-229.1841 L -260.72348,-256.6507 C -260.72348,-256.6507 -266.44107,-275.45467 -274.59849,-275.45467 C -282.75591,-275.45467 -288.4735,-256.6507 -288.4735,-256.6507 L -288.4735,-229.1841 L -328.02836,-229.1841 L -328.02836,-256.6507 C -328.02836,-256.6507 -333.74595,-275.45467 -341.90337,-275.45467 C -350.06079,-275.45467 -355.77838,-256.6507 -355.77838,-256.6507 L -355.77838,-229.1841 L -395.33324,-229.1841 L -395.33324,-256.6507 C -395.33324,-256.6507 -401.05083,-275.45467 -409.20825,-275.45467 C -417.36567,-275.45467 -423.08326,-256.6507 -423.08326,-256.6507 L -423.08326,-229.1841 L -444.64743,-229.1841 L -444.64743,-208.64268 L -423.08326,-208.64268 L -423.08326,-113.2058 L -444.20383,-113.2058 L -444.20383,-92.676698 L -423.08326,-92.676698 L -423.08326,-46.393812 L -395.33324,-46.393812 L -395.33324,-92.676698 L -355.77838,-92.676698 L -355.77838,-46.393812 L -328.02836,-46.393812 L -328.02836,-92.676698 L -288.4735,-92.676698 L -288.4735,-46.393812 L -260.72348,-46.393812 L -260.72348,-92.676698 L -221.16862,-92.676698 L -221.16862,-46.393812 L -193.4186,-46.393812 L -193.4186,-92.676698 L -153.86374,-92.676698 L -153.86374,-46.393812 L -126.11372,-46.393812 L -126.11372,-92.676698 L -105.00548,-92.676698 L -105.00548,-113.2058 z M -395.33324,-208.64268 L -355.77838,-208.64268 L -355.77838,-113.2058 L -395.33324,-113.2058 L -395.33324,-208.64268 z M -328.02836,-208.64268 L -288.4735,-208.64268 L -288.4735,-113.2058 L -328.02836,-113.2058 L -328.02836,-208.64268 z M -260.72348,-208.64268 L -221.16862,-208.64268 L -221.16862,-113.2058 L -260.72348,-113.2058 L -260.72348,-208.64268 z M -193.4186,-208.64268 L -153.86374,-208.64268 L -153.86374,-113.2058 L -193.4186,-113.2058 L -193.4186,-208.64268 z "
       style="fill:black;fill-rule:nonzero;stroke:none"
       id="path173" />
  </g>
</svg>
