<?xml version="1.0" encoding="UTF-8" standalone="no"?>
<!-- Created with Inkscape (http://www.inkscape.org/) -->
<svg
   xmlns:svg="http://www.w3.org/2000/svg"
   xmlns="http://www.w3.org/2000/svg"
   version="1.0"
   width="1000.0004"
   height="874.93866"
   id="svg2502">
  <defs
     id="defs2504"><clipPath
   id="id22">
      <path
   d="M 435.38,578.86 L 517.28,578.86 L 517.28,506.86 L 435.38,506.86 L 435.38,578.86 z "
   id="path27" />

    </clipPath>

        
        
        
        
      </defs>
  <g
     transform="translate(774.7948,787.135)"
     id="layer1">
    <path
       d="M -300.35571,-768.87136 C -286.31004,-793.22296 -263.32845,-793.22296 -249.28278,-768.87136 L 219.2108,43.494381 C 233.25647,67.845976 221.76568,87.778984 193.67433,87.778984 L -743.26346,87.803669 C -771.3548,87.803669 -782.8456,67.870661 -768.79992,43.519066 L -300.35571,-768.87136 z "
       style="fill:#ee1c23;fill-rule:nonzero;stroke:none"
       id="path2523" />
    <path
       d="M -613.96426,-16.39104 L 64.362797,-16.403383 L -274.81925,-604.54438 L -613.96426,-16.39104"
       style="fill:white;fill-rule:nonzero;stroke:none"
       id="path177" />
    <path
       d="M -162.51557,-54.664885 C -152.53055,-55.232636 -144.60672,-63.489715 -144.60672,-73.6105 C -144.60672,-83.743626 -152.53055,-92.000705 -162.51557,-92.556114 L -123.97019,-92.556114 L -123.97019,-225.23713 L -145.54474,-225.23713 L -145.54474,-255.06876 L -125.95732,-255.06876 L -125.95732,-283.86362 L -230.74447,-283.86362 L -230.74447,-268.4356 L -230.80618,-268.4356 L -230.80618,-238.61631 L -282.66903,-238.61631 C -283.23678,-252.58793 -295.33235,-263.77016 -310.21731,-263.77016 C -325.08992,-263.77016 -337.1855,-252.58793 -337.76559,-238.61631 L -390.92439,-238.61631 L -393.78783,-278.46999 L -389.51736,-278.46999 L -389.51736,-286.184 L -396.40443,-286.184 C -395.88604,-296.24307 -390.38133,-310.90587 -377.19962,-311.63407 C -363.32674,-312.41164 -355.62507,-318.58285 -355.62507,-318.58285 C -301.6887,-307.78323 -293.2218,-338.63928 -293.2218,-338.63928 C -257.00913,-337.86171 -247.76466,-353.28974 -246.98709,-367.95253 C -246.22186,-382.60298 -248.52989,-403.43699 -279.34892,-404.97979 C -324.80605,-407.2508 -332.50772,-357.91814 -332.50772,-357.91814 C -392.60296,-342.49012 -389.51736,-321.66846 -389.51736,-321.66846 C -405.62421,-308.6472 -408.77153,-292.15773 -409.40099,-286.184 L -417.26312,-286.184 L -417.26312,-278.46999 L -412.01759,-278.46999 L -416.51023,-236.81432 L -445.20635,-236.81432 L -468.31137,-169.69624 L -443.45373,-138.43289 L -443.45373,-90.963942 L -417.02861,-90.963942 C -424.47109,-88.396719 -429.81536,-81.336854 -429.81536,-73.018063 C -429.81536,-64.205576 -423.81694,-56.824808 -415.69563,-54.664885 L -480.50568,-54.664885 L -480.50568,-46.272039 L -80.895144,-46.272039 L -80.895144,-54.664885 L -162.51557,-54.664885 z M -214.37842,-255.06876 L -158.89924,-255.06876 L -158.89924,-225.23713 L -214.37842,-225.23713 L -214.37842,-255.06876 z M -164.66315,-54.664885 L -405.98214,-54.664885 C -397.86083,-56.824808 -391.86242,-64.205576 -391.86242,-73.018063 C -391.86242,-81.336854 -397.21903,-88.396719 -404.64916,-90.963942 L -383.40786,-90.963942 C -379.32252,-70.278046 -361.10511,-54.664885 -339.23434,-54.664885 C -314.36436,-54.664885 -294.19685,-74.857084 -294.19685,-99.764088 C -294.19685,-108.88514 -296.92452,-117.35204 -301.57761,-124.44893 L -272.64698,-124.44893 C -277.30007,-117.35204 -280.01541,-108.88514 -280.01541,-99.764088 C -280.01541,-74.857084 -259.86023,-54.664885 -234.97792,-54.664885 C -212.56408,-54.664885 -194.02577,-71.092646 -190.56989,-92.556114 L -164.66315,-92.556114 C -174.63582,-92.000705 -182.55966,-83.743626 -182.55966,-73.6105 C -182.55966,-63.489715 -174.63582,-55.232636 -164.66315,-54.664885"
       style="fill:black;fill-rule:nonzero;stroke:none"
       id="path179" />
    <path
       d="M -428.05039,-111.06974 L -461.6588,-111.06974 L -461.6588,-127.43579 L -466.21315,-127.43579 C -468.42245,-127.43579 -470.2121,-118.63565 -470.2121,-107.799 C -470.2121,-96.950016 -468.42245,-88.162213 -466.21315,-88.162213 L -461.6588,-88.162213 L -461.6588,-104.51592 L -428.05039,-104.51592 L -428.05039,-111.06974"
       style="fill:black;fill-rule:nonzero;stroke:none"
       id="path181" />
    <path
       d="M -135.16476,-116.85834 L -101.55635,-116.85834 L -101.55635,-133.22439 L -97.002002,-133.22439 C -94.792709,-133.22439 -93.003058,-124.42424 -93.003058,-113.5876 C -93.003058,-102.73861 -94.792709,-93.950808 -97.002002,-93.950808 L -101.55635,-93.950808 L -101.55635,-110.30451 L -135.16476,-110.30451 L -135.16476,-116.85834"
       style="fill:black;fill-rule:nonzero;stroke:none"
       id="path183" />
  </g>
</svg>
