<?xml version="1.0" encoding="UTF-8" standalone="no"?>
<!-- Created with Inkscape (http://www.inkscape.org/) -->
<svg
   xmlns:svg="http://www.w3.org/2000/svg"
   xmlns="http://www.w3.org/2000/svg"
   version="1.0"
   width="1000"
   height="873.02509"
   id="svg4580">
  <defs
     id="defs4582" />
  <g
     transform="translate(-105.1148,748.0757)"
     id="layer1">
    <path
       d="M 579.56029,-729.85194 C 593.59988,-754.15027 616.58046,-754.15027 630.62005,-729.85194 L 1099.1235,80.749346 C 1113.1631,105.04768 1101.6728,124.92478 1073.5936,124.92478 L 136.636,124.94941 C 108.55683,124.94941 97.066537,105.07231 111.10612,80.761662 L 579.56029,-729.85194 z "
       style="fill:#ee1c23;fill-rule:nonzero;stroke:none"
       id="path4607" />
    <path
       d="M 265.94797,20.982585 L 944.26931,20.970269 L 605.09017,-565.87204 L 265.94797,20.982585"
       style="fill:white;fill-rule:nonzero;stroke:none"
       id="path199" />
    <path
       d="M 691.6553,-113.2063 C 669.57374,-142.4308 660.18939,-172.2095 660.18939,-172.2095 C 658.10808,-184.70961 653.80999,-197.20977 651.83953,-202.56698 C 654.65976,-202.54235 656.32234,-202.54235 656.32234,-202.54235 C 656.32234,-202.54235 654.49966,-211.36019 647.31977,-231.76685 C 640.13987,-252.17351 636.45756,-267.60474 638.66202,-273.94719 C 640.86648,-280.28963 639.96746,-293.81197 639.96746,-293.81197 C 652.9356,-293.25777 661.56871,-277.26003 661.56871,-277.26003 C 661.01452,-273.39299 661.96281,-245.00593 661.56871,-242.24728 C 661.17462,-239.48862 664.32737,-238.93443 664.32737,-238.93443 C 664.32737,-238.93443 665.16482,-238.87285 666.48257,-238.77433 C 666.74119,-235.26443 667.01213,-228.94662 666.26089,-224.04508 C 665.1525,-216.8775 663.77317,-212.46858 668.46535,-214.11885 C 669.69689,-214.54989 670.44814,-214.85777 670.90381,-215.06713 C 670.76834,-214.11885 670.36193,-211.77892 669.3028,-209.43898 C 667.92347,-206.39707 667.64022,-204.58671 669.84468,-203.36748 C 672.06146,-202.14825 680.17732,-204.89459 682.54188,-216.32331 C 684.90645,-227.76434 684.95571,-230.90477 683.0345,-233.93437 C 681.74138,-235.96641 680.36205,-236.89007 680.0788,-237.86299 C 681.81527,-237.77678 683.25618,-237.7152 684.05668,-237.7152 C 687.64047,-237.7152 685.68232,-241.61919 685.12812,-247.40744 C 684.57393,-253.19569 684.47541,-282.76503 684.47541,-282.76503 C 684.47541,-282.76503 686.96312,-282.76503 678.67484,-293.79965 C 670.39887,-304.82196 642.52906,-329.63754 630.94025,-336.53418 C 626.86384,-338.96032 623.73572,-335.9923 620.71845,-338.20908 C 615.48439,-342.05149 609.43752,-342.07612 609.43752,-342.07612 L 607.88577,-344.19437 C 607.88577,-344.74857 608.42765,-344.74857 608.98184,-344.74857 C 608.42765,-348.0491 606.22319,-351.36195 606.77738,-354.6748 C 607.33158,-357.97534 608.98184,-361.28819 608.98184,-365.14291 C 608.98184,-366.2513 610.64443,-365.14291 611.19862,-365.69711 C 612.29469,-368.45576 612.84889,-372.86469 610.64443,-375.06915 C 609.53604,-375.62334 607.28232,-373.28341 606.4695,-374.21938 C 603.89557,-377.15045 605.12712,-385.54957 600.15168,-386.10377 C 590.76733,-386.65796 572.79912,-387.35994 571.45674,-386.65796 C 570.10205,-385.94367 570.90255,-366.8055 562.07239,-361.28819 C 561.51819,-360.73399 559.85561,-359.63792 560.964,-359.08372 C 563.16846,-357.97534 566.48131,-359.08372 568.14389,-357.42114 C 568.69809,-356.32507 567.0355,-354.6748 569.23997,-353.56641 C 569.79416,-353.01222 568.69809,-351.36195 568.14389,-350.80776 C 567.5897,-348.6033 567.0355,-345.29045 568.69809,-343.64018 C 569.79416,-341.98991 573.6612,-344.19437 574.76959,-341.98991 C 575.86566,-339.78545 576.41986,-337.0268 577.52825,-334.82234 C 578.07013,-333.71395 580.82878,-333.71395 583.04556,-333.15975 C 584.14163,-332.61787 583.59975,-331.50949 583.59975,-330.95529 C 582.49136,-329.30502 580.2869,-330.95529 579.73271,-330.41341 C 579.73271,-330.41341 567.1094,-320.99211 558.83343,-303.07317 C 550.54515,-285.15422 546.40717,-276.60732 542.82338,-273.02353 C 539.22727,-269.43974 516.8132,-253.79915 516.8132,-253.79915 C 516.8132,-253.79915 511.73924,-248.86066 513.32793,-244.58721 C 506.59139,-242.30886 491.35721,-236.17577 494.60848,-228.18306 C 498.74647,-217.97357 505.93868,-219.78394 510.88948,-222.93669 C 514.8181,-225.46135 519.1285,-233.38017 520.7295,-236.53292 C 522.76155,-235.37527 525.0399,-234.74718 527.44141,-235.0797 C 533.51291,-235.90483 556.9738,-258.50364 556.9738,-258.50364 C 556.9738,-258.50364 565.53302,-266.50867 573.80899,-270.91759 C 573.80899,-270.91759 579.95439,-225.6584 581.09972,-218.77408 C 581.99875,-213.40455 582.7623,-208.23207 583.05787,-206.20003 C 577.67603,-197.60386 565.0404,-176.13812 555.40974,-149.95553 C 542.86032,-115.7679 527.72466,-81.777329 523.85762,-72.40529 C 523.85762,-72.40529 525.07685,-71.690995 527.08426,-70.545661 C 524.80591,-69.511165 521.33296,-68.587508 516.13585,-68.513615 C 503.99284,-68.341199 494.05429,-68.193414 494.05429,-68.193414 C 494.05429,-68.193414 491.29563,-67.996367 490.4705,-65.791906 C 489.63305,-63.587445 491.29563,-61.690869 491.29563,-61.690869 L 512.92152,-49.769537 L 526.61628,-49.252289 L 526.61628,-43.734978 L 542.47854,-40.360552 C 542.47854,-40.360552 544.52291,-39.633942 545.0771,-42.392597 C 545.47119,-44.35075 548.26679,-53.870574 549.83085,-59.178522 C 553.18065,-57.81151 556.25951,-56.78933 558.63638,-56.419867 C 558.63638,-56.419867 567.66359,-83.033502 571.27201,-93.403091 C 574.88043,-103.76036 585.6318,-131.32229 590.22545,-140.9899 C 594.83142,-150.65751 609.41288,-170.0543 613.26761,-175.57161 C 613.32919,-175.65782 613.37845,-175.74403 613.42771,-175.84255 C 626.05102,-162.24632 627.41804,-152.89891 634.49941,-138.57607 C 641.81477,-123.79756 644.64732,-120.74334 657.33221,-102.54114 C 670.02941,-84.351253 681.16256,-66.3461 681.16256,-66.3461 C 682.24631,-66.838717 683.28081,-67.331334 684.29067,-67.836267 C 682.38178,-61.481507 678.05907,-48.365579 674.32749,-45.459138 C 669.36438,-41.60441 666.8274,-40.434444 666.81508,-38.845754 C 666.81508,-37.257064 667.64022,-36.555085 669.57374,-36.727501 C 671.50726,-36.899917 691.37204,-36.284146 691.37204,-36.284146 C 691.37204,-36.284146 699.66033,-44.560112 701.31059,-51.45675 C 701.31059,-51.45675 704.31556,-53.932151 705.69488,-53.107017 C 707.07421,-52.281884 706.65549,-53.082387 706.65549,-53.082387 L 710.14075,-57.245001 C 710.14075,-57.245001 710.39938,-62.614526 708.46585,-65.373182 C 708.46585,-65.373182 707.02495,-73.26737 702.28351,-79.018674 C 708.23186,-83.649274 711.10136,-87.048331 711.10136,-87.048331 C 711.10136,-87.048331 713.72454,-83.98179 691.6553,-113.2063"
       style="fill:black;fill-rule:nonzero;stroke:none"
       id="path165" />
    <path
       d="M 459.82972,-15.335606 L 480.13786,-15.335606 L 480.13786,-24.707645 L 459.82972,-24.707645 L 459.82972,-15.335606 z M 744.19291,-15.335606 L 764.50104,-15.335606 L 764.50104,-24.707645 L 744.19291,-24.707645 L 744.19291,-15.335606 z M 703.57663,-15.335606 L 723.88477,-15.335606 L 723.88477,-24.707645 L 703.57663,-24.707645 L 703.57663,-15.335606 z M 662.94804,-15.335606 L 683.25618,-15.335606 L 683.25618,-24.707645 L 662.94804,-24.707645 L 662.94804,-15.335606 z M 622.31945,-15.335606 L 642.62759,-15.335606 L 642.62759,-24.707645 L 622.31945,-24.707645 L 622.31945,-15.335606 z M 581.70318,-15.335606 L 602.01131,-15.335606 L 602.01131,-24.707645 L 581.70318,-24.707645 L 581.70318,-15.335606 z M 541.07459,-15.335606 L 561.38272,-15.335606 L 561.38272,-24.707645 L 541.07459,-24.707645 L 541.07459,-15.335606 z M 500.45831,-15.335606 L 520.76645,-15.335606 L 520.76645,-24.707645 L 500.45831,-24.707645 L 500.45831,-15.335606 z M 496.82526,-107.14711 L 515.66786,-107.14711 L 515.66786,-114.86888 L 496.82526,-114.86888 L 496.82526,-107.14711 z M 722.89953,-107.14711 L 741.74214,-107.14711 L 741.74214,-114.86888 L 722.89953,-114.86888 L 722.89953,-107.14711 z M 685.21433,-107.14711 L 704.05693,-107.14711 L 704.05693,-114.86888 L 685.21433,-114.86888 L 685.21433,-107.14711 z M 647.54144,-107.14711 L 666.38404,-107.14711 L 666.38404,-114.86888 L 647.54144,-114.86888 L 647.54144,-107.14711 z M 609.86856,-107.14711 L 628.71116,-107.14711 L 628.71116,-114.86888 L 609.86856,-114.86888 L 609.86856,-107.14711 z M 572.18335,-107.14711 L 591.02595,-107.14711 L 591.02595,-114.86888 L 572.18335,-114.86888 L 572.18335,-107.14711 z M 534.51046,-107.14711 L 553.35307,-107.14711 L 553.35307,-114.86888 L 534.51046,-114.86888 L 534.51046,-107.14711 z "
       style="fill:black;fill-rule:nonzero;stroke:none"
       id="path167" />
  </g>
</svg>
