<?xml version="1.0" encoding="UTF-8" standalone="no"?>
<!-- Created with Inkscape (http://www.inkscape.org/) -->
<svg
   xmlns:svg="http://www.w3.org/2000/svg"
   xmlns="http://www.w3.org/2000/svg"
   version="1.0"
   width="380"
   height="1200"
   id="svg2601">
  <defs
     id="defs2603" />
  <g
     transform="translate(782.0363,1125.508)"
     id="layer1">
    <rect
       width="351.29535"
       height="1162.6943"
       x="414.4715"
       y="-1106.8551"
       transform="scale(-1,1)"
       style="opacity:1;fill:white;fill-opacity:1;fill-rule:evenodd;stroke:black;stroke-width:0.25;stroke-linejoin:round;stroke-miterlimit:4;stroke-dasharray:none;stroke-opacity:1"
       id="rect2612" />
    <path
       d="M -758.67334,-408.96617 L -758.67334,-547.86283 L -425.63205,-735.13725 L -425.63205,-596.25241 L -758.67334,-408.96617"
       style="fill:#ee1c23;fill-rule:nonzero;stroke:none"
       id="path105" />
    <path
       d="M -758.67334,-126.5812 L -758.67334,-265.46604 L -425.63205,-452.74045 L -425.63205,-313.85562 L -758.67334,-126.5812"
       style="fill:#ee1c23;fill-rule:nonzero;stroke:none"
       id="path107" />
    <path
       d="M -774.4931,-1117.8634 C -769.63891,-1122.7864 -763.17831,-1125.5082 -756.31028,-1125.5082 L -427.75066,-1125.5082 C -413.57225,-1125.5082 -402.03629,-1113.7925 -402.03629,-1099.4023 L -402.03629,48.38576 C -402.03629,55.367871 -404.71366,61.923955 -409.56784,66.846934 C -414.42203,71.781748 -420.88263,74.491754 -427.75066,74.491754 L -756.31028,74.491754 C -763.17831,74.491754 -769.63891,71.781748 -774.4931,66.846934 C -779.35892,61.923955 -782.03629,55.367871 -782.03629,48.38576 L -782.03629,-1099.4023 C -782.03629,-1106.3725 -779.35892,-1112.9286 -774.4931,-1117.8634 z M -436.97012,-1090.0415 L -747.09082,-1090.0415 L -747.09082,39.036832 L -436.97012,39.036832 L -436.97012,-1090.0415 z "
       style="fill:black;fill-rule:nonzero;stroke:none"
       id="path109" />
  </g>
</svg>
