<?xml version="1.0" encoding="UTF-8" standalone="no"?>
<svg xmlns="http://www.w3.org/2000/svg" width="999.99994" height="873.00647" version="1.0">
  <path fill="#ee1c23" d="M474.4417 18.223613c14.0395-24.298158 37.0199-24.298158 51.0717 0L994.0011 828.80671c14.0518 24.29816 2.5616 44.18742-25.5297 44.18742l-936.9384.01232c-28.09128 0-39.58149-19.87695-25.54201-44.17511L474.4417 18.223613z"/>
  <path fill="#fff" d="m160.8317 769.0527 678.3287-.01232L499.9837 182.19l-339.152 586.8627"/>
  <path d="M500.9567 473.11518c2.5-5.82516 4.3226-11.69957 8.0172-16.00994 8.6331-10.46804 20.9607-16.6257 28.9657-28.32527.6158-1.23154 0-3.07884-1.2315-3.6946-1.2316 0-3.0789.61576-3.6946 0-4.9385-4.92614-4.9385-11.69957-9.2488-17.85724-1.8473-1.8473 0-5.5419-.6158-8.00497-.6158-.61577-.6158-1.8473-.6158-1.8473-.6157-6.15767 2.4631-12.31534 3.6946-18.473.6158-1.8473-4.3103-1.8473-3.0788-4.31037.6158-1.8473 3.0788-2.46307 4.3104-2.46307 3.7069-1.8473 6.7857-3.07883 10.4803-3.6946 4.9385-1.8473 9.8646-1.8473 14.7907-2.46307 1.2316 0 3.7069.61577 4.9385 1.23154 1.8473 2.46306 4.3103 3.07883 6.7734 4.92613.6158 0 2.4754.61577 3.0912.61577 2.463 1.8473 5.5419 3.07883 7.3892 5.5419 3.0788 5.5419 6.17 9.85227 9.2488 15.39417.6158 1.23153-.6158 1.8473-1.2315 2.46307-2.4631 0-4.3227.61576-6.7858 0-1.2315 8.00497-4.3104 14.7784-7.3892 22.1676-.6158 1.23154.6158 1.8473 1.2315 2.46307-.6157 0-1.2315 0-1.2315.61577 0 1.23153-.6158 2.46306 0 3.07883.6158 1.23153 1.2315 1.8473 1.2315 3.07883 2.4631 5.5419 8.6208 6.15767 12.9435 9.85227 4.9261 4.31037 9.2488 8.62074 12.9434 14.77841 5.5419 8.00496 10.4803 15.39417 14.7907 24.0149 3.0788 7.3892 3.6946 16.00994 6.1577 23.39914 3.0911 7.3892 3.0911 15.39417 4.3226 23.39914 7.3892 0 15.4065-.61577 22.808 0 1.2316 0 1.8473 1.8473 1.8473 2.46306.6158 9.23651.6158 18.47301-2.463 27.09374-1.8596 7.38921 0 15.39417-1.2316 22.78337 0 1.84731-3.0911 1.23154-4.9384 1.23154-13.5592-.61577-27.7341-.61577-41.2933.61577 1.2315.61576 1.2315 1.8473 1.8473 2.46306 1.2315 5.5419.6157 11.0838 3.0788 16.00994 3.0788 6.15767 4.3227 13.54687 8.0173 19.70454-6.17 3.6946-13.5592 2.46306-19.7292 6.15766 2.4631 3.69461 3.0912 8.62074 6.17 11.69957 13.5592 15.39417 14.7907 35.09871 19.7169 54.18748 1.2315 3.6946 8.633 2.46307 9.2488 7.3892 1.2315 4.31037 4.3103 6.77344 4.9261 10.46804 0 4.92613 1.2439 11.0838-3.6946 14.16264-1.2315 1.23153-3.0788 3.6946-4.9261 3.07883-1.8473 0-5.0124 2.38917-6.8597 3.62071h36.3672l.1478 13.00499h-339.386v-13.00499h24.3474c.6158 0-.6158-3.00494 0-3.62071 3.0788-3.6946 6.17-6.77344 9.8646-8.00497 5.5419-1.23153 12.9434-1.23153 14.7907-6.15767 1.2315-4.31036-.6158-9.2365-.6158-14.16263 0-16.00994-1.2315-32.63564-.6157-48.64558 0-2.46307 2.463-4.31037 1.8473-6.77343 0-.61577 1.8473-.61577 1.2315-1.84731-2.4631-3.07883-6.7734-3.07883-8.6207-6.15766 11.0838-14.77841 17.2537-32.01988 26.5026-48.64558l-1.2316-1.23153c-6.17 3.6946-12.3276 7.3892-18.4976 10.46803-3.6946 1.23154-8.6331.61577-11.7119 3.07884-3.6946 3.07883-.6158 9.85226-4.9261 12.31533-3.0912 1.8473-9.2488 1.23154-11.7119-1.23153-3.0788-3.07884-2.4631-9.85227-1.8473-14.77841 0-5.5419 6.1577-8.00496 9.8523-12.31533v-1.8473c11.0961-11.69957 22.808-21.55184 33.9041-32.63564 0 .61577.6157.61577 1.2315.61577 3.0788-1.84731 6.17-3.69461 7.4015-6.77344 2.4631-6.77343 6.7735-12.31534 11.7119-17.24147 1.8473-1.23153 4.3104-1.23153 6.7734-2.46307.6158-.61576.6158-1.8473 1.2316-2.46306 1.8473-.61577 6.17.61576 5.5542-1.8473 0-1.84731-1.2315-4.92614-3.7069-6.15767-1.8473 0-3.0789 0-4.9262-.61577v-1.23153c-4.9261-1.8473-5.5419-7.3892-6.7734-11.69957-1.2438-3.6946-2.4754-8.00497-2.4754-12.31534-.6157-1.23153 0-2.46307.6158-3.6946-.6158-.61577 0-2.46307-1.8473-1.8473 1.2315-3.6946-3.0788-5.5419-1.8473-9.2365 2.4631-6.15767 8.0173-9.85227 13.5592-11.69957 7.4015-1.8473 16.0222-3.6946 23.4238-.61577 6.7857 3.07884 10.4803 10.46804 12.9434 18.47301 1.2315 4.31036 3.6946 9.2365 8.633 12.31533.6158 0 1.2316 0 1.2316-.61576.6157-1.8473-3.0789-2.46307-1.2316-4.31037 3.6946-1.8473 7.3892-.61577 11.0961-.61577 1.8473 0 6.7735-1.23153 4.9262 2.46307-1.2316 3.07883-3.6946 6.77343-5.5419 9.85227 4.9261 3.6946 9.8522 6.77343 13.5592 12.31533.6157 1.8473-1.8473 1.8473-2.4754 1.8473-4.9262 0-9.8523-3.6946-14.7907-1.23153-3.0789 1.23153-1.2316 8.62074-3.6946 8.00497-4.3104 0-9.2489-3.6946-12.9435-8.00497 3.0789-3.6946 4.3104-8.00497 7.4016-11.69957-3.0912-1.8473-6.7858-1.23153-9.8646 0-2.4631 1.23153-.6158 6.15767-2.4631 9.2365-1.2315 2.46307-3.0911 5.5419-3.7069 8.62074-.6158 1.23153 1.8473.61576 3.7069.61576 3.6946-.61576 5.5419 2.46307 7.3892 4.92614 4.9385 8.00497 11.7119 14.16264 15.4065 22.1676 6.17-3.6946 11.0961-9.2365 16.0346-14.16263-1.8473-1.23154-3.707-3.07884-5.5543-4.31037v-1.8473c3.0789-3.07883 6.7858-4.31037 10.4804-6.77344 6.17-3.6946 11.7119-8.00496 14.7907-14.16263 4.3227-8.00497 8.6331-16.00994 12.3277-24.63067zm96.7739 36.946c-2.1922-3.27587-3.0789-7.3892-6.17-9.85226-4.3104 4.92613-1.2315 10.46803-1.8473 16.00993 0 .61577 2.4754 1.8473 3.7069 1.23154 1.8473-1.23154 3.6946.61576 5.5419 0 .6158-.61577 2.4631-.61577 1.8473-1.8473-1.2315-1.8473-1.8473-3.69461-3.0788-5.54191zM449.183 577.79553c-1.1084-5.56653-3.6946-9.85227-8.6331-12.9311-.6157 3.07883.6158 6.77343 0 9.85227-.6157 2.46307-1.8473 4.92613-.6157 7.3892 1.8596 5.5419 4.9384 10.46804 9.2488 14.16264.6158 1.23153 4.9261.61576 4.9261-.61577.6281-6.15767-3.6946-11.69957-4.9261-17.85724zm-36.515 148.32591c.5542-.24631-.1601-1.15764.1478-1.77341.6158-1.23153 0-3.07883 0-4.31037 2.4631-2.46306 6.17-2.46306 9.2488-3.6946 6.1577-1.8473 10.4804-8.00497 11.7119-14.16263 1.2315-3.69461-1.2315-7.38921-3.0788-11.08381-4.3227-8.62073-10.4804-16.00993-16.6504-24.0149-1.2315-1.8473-1.2315-4.31037-1.8473-6.77344-.6157-1.23153-1.8473-1.23153-2.463-2.46306-1.2316-4.31037-4.9262-8.00497-5.5419-12.93111-1.2439-4.31036-6.17-3.07883-9.8646-3.6946-7.6971-1.28079-9.2488 5.5419-8.0173 10.46804 3.6946 17.85723 0 33.86717-7.3892 49.26134 3.0788 5.5419 1.2315 12.31534 4.3104 17.85724.6157 1.8473-1.2316 4.31037-.6158 6.15767.468.46798-.3941.94828.1478 1.15764h29.9016zm140.6781-100.91186c-2.5-5.24634-3.0788-11.08381-6.7734-16.00994-3.0789 3.6946-4.9262 8.62073-6.7858 12.9311-3.6946 6.77344-9.8523 11.0838-14.7907 17.24147 3.0788 9.85227 0 19.08877-3.6946 28.32527-1.8473 4.92614-3.6946 9.23651-6.17 14.16264-2.4631 4.31037-3.0788 9.2365-4.9261 13.54687-2.4631 9.2365 0 18.473-.6158 28.32527 0 1.23154.3079 2.38918.3079 2.38918h73.658l-.6157-2.38918c.6157 0-.6158-3.6946.6157-5.5419 4.3104-3.6946 9.8646-4.31037 13.5592-8.62073 1.8473-2.46307 4.9261-6.15767 4.3104-8.62074-1.8473-7.3892-6.7735-14.16263-11.7119-20.93607-1.2315-1.23153-2.4631-3.07883-3.6946-4.92613-3.0788-4.92614-6.1577-9.23651-9.8646-14.16264-8.005-12.31534-16.638-22.78337-22.808-35.71447zm-73.9536-84.36006c-3.2143 1.601-5.5542 3.69461-8.633 6.15767-2.4631 2.46307-6.17 4.31037-6.7858 6.77344-.6158 2.46306 3.0912 5.5419 4.3227 8.00497 3.0788 4.92613 3.6946 10.46803 4.9261 16.00993.6158 1.23154 1.8473 3.07884 2.4631 4.31037v2.46307c.6158.61576 1.2315 1.23153 1.8473 1.8473 1.8596 0 3.7069-.61577 4.3227 0 8.6207 10.46803 11.0961 22.78337 15.4065 34.48294 0 1.23153 0 2.46307.6157 3.6946.6158 3.07883 4.3104 1.23153 5.5419-.61577 1.8596-3.07883 4.3227-5.5419 3.7069-9.2365-1.2315-1.8473-4.9384-3.07883-4.9384-4.31037 3.7069-17.85723 9.2488-33.86717 14.803-51.10864 1.8473-5.5419 4.9262-11.69957 8.005-17.24147 1.2315-3.07884-1.8473-5.5419-3.0788-8.62074-.6158-.61576-1.8473-1.8473-2.4631-2.46306-3.0788-4.92614-3.7069-11.08381-7.4015-15.39417-3.6946 4.31036-6.7735 8.62073-10.4804 13.54687-1.8473 3.07883-1.8473 6.77343-3.6946 8.00496-4.9261 3.07884-10.4803-.61576-15.4065 1.8473-.6157 0-1.8473 1.23154-3.0788 1.8473zm-9.8646 101.60153c-6.3301 4.06406-12.9434 4.31036-19.7291 3.6946-1.2316 0 1.8473-3.07884 1.2315-3.07884-4.3104-2.46306-9.8646-3.07883-14.7907-2.46306-.6158 0-1.8473 1.23153-1.2316 1.8473 2.4631 2.46306 5.5419 4.92613 6.7858 8.00496 1.8473 3.07884 2.4631 6.15767 3.0788 9.23651 4.9262 13.54687 6.7735 28.32527 12.9434 41.25637 1.8473 3.07884 3.0789 6.15767 4.3104 9.2365 0 1.23154.6158 3.6946 0 3.6946-5.5419 3.07884-11.0961 7.38921-17.8695 6.77344-1.2316 0-3.0912 3.62071-4.3227 5.46801h21.7365c3.0789-1.23154 4.7661-9.16261 7.8572-12.24145 1.2316-.61576 2.4631.61577 3.6946 0 2.4631-1.23153 6.17 0 9.2488-1.23153 2.4631-.61577 4.9262-4.31037 5.5419-6.77343 5.5543-16.00994 6.7858-32.01988 10.4804-48.64558 2.4631-9.85227.6158-18.473 1.8473-28.32527 0-1.23154-3.0788 0-4.3104.61576-9.2488 3.6946-17.8818 7.3892-26.5026 12.93111"/>
</svg>