<?xml version="1.0" encoding="UTF-8" standalone="no"?>
<!-- Created with Inkscape (http://www.inkscape.org/) -->
<svg
   xmlns:svg="http://www.w3.org/2000/svg"
   xmlns="http://www.w3.org/2000/svg"
   version="1.0"
   width="1000"
   height="873.00842"
   id="svg4714">
  <defs
     id="defs4716" />
  <g
     transform="translate(-167.9717,742.3452)"
     id="layer1">
    <path
       d="M 642.4202,-724.12158 C 656.45972,-748.41979 679.44018,-748.41979 693.4797,-724.12158 L 1161.9807,86.463352 C 1176.0203,110.76156 1164.53,130.65087 1136.4387,130.65087 L 199.49817,130.66319 C 171.41914,130.66319 159.91659,110.78619 173.96842,86.487983 L 642.4202,-724.12158 z "
       style="fill:#ee1c23;fill-rule:nonzero;stroke:none"
       id="path4726" />
    <path
       d="M 328.80948,26.70921 L 1007.1274,26.696895 L 667.94995,-560.15484 L 328.80948,26.70921"
       style="fill:white;fill-rule:nonzero;stroke:none"
       id="path257" />
    <path
       d="M 844.65078,-65.483598 C 839.58917,-76.481217 840.36503,-94.116817 842.34781,-104.64645 C 842.34781,-104.64645 858.14842,-190.18896 824.55211,-209.72113 C 806.32537,-223.98232 783.48037,-225.23849 766.91621,-221.77787 C 747.05153,-217.63991 727.33463,-215.27536 704.99456,-213.56352 C 700.70882,-213.23101 689.19395,-212.03642 677.98697,-211.58075 C 653.61487,-210.59552 650.64687,-215.53398 640.76994,-217.17192 C 623.0974,-220.1153 577.53056,-217.17192 577.53056,-217.17192 L 577.59213,-217.0734 C 572.97387,-218.24336 570.58469,-220.2015 565.44918,-221.56851 C 559.55013,-223.13256 554.66093,-226.16214 552.7151,-228.58827 C 549.20522,-232.97254 547.01309,-239.99229 535.58443,-237.3568 C 531.37257,-236.38389 527.27156,-232.65234 523.774,-228.32964 C 521.96364,-229.14246 519.94392,-230.22621 518.02272,-231.65479 C 513.77392,-234.83216 503.52754,-231.21144 503.52754,-231.21144 C 503.52754,-231.21144 508.79851,-228.14491 510.11626,-224.63503 C 511.12612,-221.9626 511.87736,-218.52661 515.86753,-216.26059 C 515.58428,-215.76797 515.33797,-215.29999 515.1163,-214.86895 C 514.90693,-214.88127 514.70989,-214.89358 514.51284,-214.89358 C 509.88227,-214.89358 506.12608,-211.00193 506.12608,-206.21125 C 506.12608,-205.78021 506.16303,-205.36149 506.2246,-204.95508 C 501.9758,-202.18413 502.65315,-200.50924 502.65315,-200.50924 C 502.65315,-200.50924 505.28864,-200.06589 502.65315,-196.99936 C 500.01766,-193.92052 495.62108,-185.15198 495.62108,-185.15198 L 493.87229,-184.70863 C 493.17032,-183.84655 491.64321,-181.8022 490.06685,-179.64701 C 490.01759,-179.65933 489.96832,-179.65933 489.91906,-179.65933 C 488.03481,-179.65933 486.50771,-177.99675 486.50771,-175.94009 C 486.50771,-175.59526 486.54465,-175.27506 486.61855,-174.96718 C 485.70721,-173.72332 485.09144,-172.86125 485.09144,-172.86125 C 483.7737,-169.79472 486.40918,-168.47698 486.40918,-168.47698 L 488.15797,-163.64936 C 490.79345,-159.70844 496.93882,-159.70844 496.93882,-159.70844 C 497.82553,-157.51631 505.28864,-156.6296 508.36748,-157.07295 C 511.21233,-157.47936 513.61382,-158.53848 515.49807,-159.70844 L 525.92918,-159.70844 C 525.92918,-159.70844 529.00803,-159.70844 535.15339,-151.37094 C 542.76429,-141.05067 570.28912,-83.587181 570.28912,-83.587181 C 574.40245,-76.013233 580.58477,-72.023055 587.65378,-70.323535 C 588.3065,-68.057508 589.11931,-65.545174 590.04296,-63.180625 C 593.66368,-53.968733 592.67845,-30.939004 592.67845,-28.303516 C 592.67845,-25.668029 592.02574,-24.6828 592.02574,-24.6828 C 590.00602,-19.76897 586.92718,-15.002924 585.16608,-12.453644 C 583.99612,-12.256598 583.18331,-11.80093 582.94932,-11.086639 C 582.78922,-10.569394 582.94932,-9.9782562 583.38035,-9.3624881 L 581.79167,-4.8181191 L 580.81876,-5.2737876 C 580.81876,-5.2737876 581.15127,-4.608758 578.51578,1.3149317 C 575.8803,7.2386213 582.80153,6.2410769 582.80153,6.2410769 C 582.80153,6.2410769 587.73999,6.5735917 593.9962,6.5735917 C 599.63663,6.5735917 596.98883,2.8420367 596.41001,2.0907996 C 596.27454,0.16960292 596.26222,-2.6752459 597.00114,-4.8673806 C 597.7647,-5.1136878 598.28194,-5.5077795 598.45436,-6.0496554 C 598.61446,-6.5299546 598.47899,-7.0841459 598.10953,-7.6506526 C 599.15633,-10.581709 600.64649,-16.234461 599.26717,-21.727113 C 599.26717,-21.727113 600.91743,-24.6828 600.91743,-28.303516 C 600.91743,-28.303516 608.15886,-40.483411 614.09487,-66.801341 L 615.04315,-71.961479 C 615.37567,-72.047686 615.69587,-72.133894 616.02838,-72.220101 C 615.52345,-62.737272 615.84365,-46.160793 616.39784,-43.106583 C 617.05056,-39.485866 613.09732,-31.924233 613.09732,-31.924233 C 613.09732,-31.924233 614.41507,-29.953775 610.79435,-25.015315 C 608.57759,-21.985735 607.34605,-18.833002 606.73028,-16.850229 C 606.01599,-16.603922 605.52338,-16.222145 605.35096,-15.692585 C 605.19086,-15.19997 605.33865,-14.645779 605.70811,-14.066957 L 603.88543,-11.197477 L 603.88543,-11.148216 C 603.91006,-10.938855 603.87312,-9.7812104 601.91497,-4.608758 C 599.68589,1.3149317 605.56032,0.32970264 605.56032,0.32970264 C 605.56032,0.31738728 609.75986,0.64990208 615.0801,0.64990208 C 620.40033,0.64990208 617.03824,-3.9560437 617.03824,-3.9560437 L 616.80425,-4.0791973 C 617.27223,-5.5200948 618.2082,-7.7738063 619.88309,-9.6580568 C 620.3757,-9.9043641 620.72053,-10.236879 620.856,-10.655601 C 620.856,-10.655601 624.95702,-18.106396 623.30676,-23.044856 C 621.66882,-27.971002 623.97179,-31.591718 624.95702,-34.559721 C 625.94225,-37.515408 627.44472,-47.306122 631.87825,-57.256935 C 633.82408,-61.628889 636.47188,-71.702856 636.68124,-79.609319 C 639.84629,-80.927063 642.21084,-81.936923 643.40543,-82.269437 C 650.64687,-84.239896 646.04092,-84.239896 663.8243,-81.604408 C 687.34665,-78.131475 715.51188,-78.082214 732.06373,-78.46399 C 733.89872,-74.387605 736.65736,-69.96639 740.77069,-65.951581 C 740.56133,-65.286552 740.43818,-64.584576 740.43818,-63.845654 C 740.43818,-60.237253 743.14756,-57.330827 746.49734,-57.330827 C 748.02444,-57.330827 749.41608,-57.946595 750.48751,-58.94414 C 752.11314,-58.09438 753.84961,-57.306197 755.72154,-56.591905 C 755.65997,-56.062345 755.61071,-55.520469 755.61071,-54.953962 C 755.61071,-51.099254 757.28559,-47.971151 759.34226,-47.971151 C 761.3004,-47.971151 762.9014,-50.803685 763.04918,-54.399771 C 765.74625,-53.784003 768.66499,-53.316019 771.79309,-53.02045 C 772.31034,-49.682987 774.35469,-47.182968 776.79313,-47.182968 C 779.15768,-47.182968 781.14045,-49.510572 781.73159,-52.67562 C 783.43111,-52.700251 785.16758,-52.786458 786.96562,-52.909612 L 786.7932,-52.219952 C 786.7932,-52.219952 787.22424,-48.26672 787.6676,-43.882451 C 788.11095,-39.485866 784.15772,-28.525193 784.15772,-28.525193 C 784.15772,-28.525193 779.76113,-28.956231 781.95327,-23.254218 C 783.56658,-19.066994 783.28333,-18.672903 783.0247,-18.746795 L 782.83997,-18.869948 C 773.61577,-19.313301 773.17241,-3.5126906 773.17241,-3.5126906 L 787.22424,-3.9560437 L 790.30308,-14.042326 C 790.30308,-14.042326 792.93857,-18.426595 790.30308,-22.379827 C 790.30308,-22.379827 796.7317,-35.815888 799.34256,-45.05241 C 802.65539,-37.515408 803.91156,-30.273975 803.91156,-30.273975 L 794.69967,-13.611288 C 786.34985,-0.0028121638 789.42869,6.5735917 789.42869,6.5735917 L 801.71942,5.6992009 C 801.71942,0.42822554 804.79827,-1.7639091 804.79827,-1.7639091 L 804.79827,-5.7048253 C 809.18253,-3.9560437 806.11601,-16.234461 806.11601,-16.234461 C 806.9904,-19.313301 817.089,-48.26672 817.089,-48.26672 C 820.16784,-52.219952 817.53235,-54.412086 817.53235,-54.412086 C 817.53235,-54.412086 813.57912,-71.518126 811.38698,-83.808858 C 809.18253,-96.087275 817.31067,-109.90511 817.31067,-109.90511 C 820.14321,-116.97413 823.64077,-127.54071 826.75656,-139.05558 C 837.72955,-122.42984 837.72955,-103.32871 837.72955,-103.32871 C 837.72955,-103.32871 835.75909,-83.587181 832.45857,-72.392516 C 829.17037,-61.210167 835.42657,-47.059814 837.39703,-41.136125 C 839.37981,-35.212435 838.39458,-27.650802 838.39458,-27.650802 C 838.39458,-27.650802 839.36749,-25.902021 840.69755,-27.971002 C 841.83056,-29.732099 843.16062,-35.101597 844.9833,-37.515408 C 848.92421,-42.786383 850.24196,-53.316019 844.65078,-65.483598"
       style="fill:black;fill-rule:nonzero;stroke:none"
       id="path259" />
  </g>
</svg>
