<?xml version="1.0" encoding="utf-8"?>
<!-- Generator: Adobe Illustrator 15.0.2, SVG Export Plug-In . SVG Version: 6.00 Build 0)  -->
<!DOCTYPE svg PUBLIC "-//W3C//DTD SVG 1.1//EN" "http://www.w3.org/Graphics/SVG/1.1/DTD/svg11.dtd">
<svg version="1.1" id="svg4714" xmlns:svg="http://www.w3.org/2000/svg"
	 xmlns="http://www.w3.org/2000/svg" xmlns:xlink="http://www.w3.org/1999/xlink" x="0px" y="0px" width="1000px"
	 height="873.008px" viewBox="0 0 1000 873.008" enable-background="new 0 0 1000 873.008" xml:space="preserve">
<g>
	<path fill-rule="evenodd" clip-rule="evenodd" fill="#E20613" d="M36.672,869.868c-11.923,0-23.083-2.558-28.695-12.775
		c-4.406-8.182-3.831-17.935,0.708-25.906L475.742,19.361c5.502-9.648,14.381-17.503,25.807-17.359
		c10.146,0.116,19.041,6.282,24.09,14.957l467.145,812.366c4.295,7.507,7.815,19.241,2.635,28.342
		c-4.761,8.325-14.126,12.245-23.503,12.245L36.672,869.868z"/>
	<polygon fill-rule="evenodd" clip-rule="evenodd" fill="#FFFFFF" points="167.27,764.584 835.511,764.773 501.16,185.291 	"/>
	<polygon fill-rule="evenodd" clip-rule="evenodd" fill="#1D1D1B" points="167.507,763.887 834.913,764.097 334.029,474.97 	"/>
	<path fill-rule="evenodd" clip-rule="evenodd" fill="#1D1D1B" d="M555.508,547.928c4.306-7.484,5.889-13.718,4.915-18.865
		c-0.952-5.147-4.484-9.41-10.258-12.742c-5.734-3.333-11.187-4.219-16.151-2.469c-4.922,1.727-9.555,6.188-13.861,13.661
		c-4.295,7.395-5.851,13.717-4.921,18.865c0.974,5.136,4.534,9.365,10.269,12.687c5.768,3.344,11.192,4.273,16.142,2.524
		C546.612,559.851,551.212,555.323,555.508,547.928 M488.473,535.993l98.641-62.583l-11.303-6.498l-98.603,62.583L488.473,535.993z
		 M531.544,534.089c2.275-3.941,4.489-6.81,6.588-8.669c1.893-1.826,4.328-1.938,7.002-0.388c2.712,1.551,3.831,3.72,3.371,6.354
		c-0.692,2.68-2.087,6.001-4.379,9.953c-2.291,3.952-4.455,6.81-6.349,8.636c-2.131,1.859-4.566,1.981-7.29,0.421
		c-2.663-1.54-3.78-3.709-3.094-6.433C527.907,541.374,529.252,538.052,531.544,534.089z M544.093,475.435
		c4.295-7.483,5.841-13.705,4.91-18.863c-0.963-5.159-4.444-9.411-10.218-12.732c-5.769-3.344-11.231-4.273-16.186-2.523
		c-4.922,1.782-9.571,6.243-13.866,13.706c-4.263,7.395-5.853,13.705-4.922,18.819c0.969,5.148,4.489,9.443,10.263,12.776
		c5.769,3.332,11.188,4.229,16.153,2.48C535.137,487.359,539.831,482.82,544.093,475.435z M520.152,461.608
		c2.286-3.996,4.423-6.853,6.555-8.713c1.887-1.826,4.372-1.903,7.035-0.354c2.673,1.55,3.841,3.72,3.299,6.354
		c-0.653,2.668-2.048,5.956-4.34,9.941c-2.28,3.963-4.456,6.831-6.382,8.613c-2.064,1.86-4.534,2.004-7.214,0.465
		c-2.673-1.55-3.829-3.809-3.138-6.432C516.433,468.837,517.872,465.561,520.152,461.608z M481.731,472.524
		c4.804-8.336,8.557-15.688,11.076-22.108c2.513-6.388,3.991-11.89,4.34-16.617c0.238-4.838-0.499-8.868-2.514-12.194
		c-1.976-3.366-5.003-6.155-9.061-8.525c-4.263-2.441-8.176-3.669-12.084-3.669c-3.875-0.083-7.755,1.273-11.669,3.985
		c-4.102,2.596-8.125,6.576-12.421,11.956c-4.263,5.392-8.796,12.333-13.64,20.647c-4.793,8.325-8.513,15.754-10.993,22.042
		c-2.486,6.377-3.958,11.88-4.151,16.684c-0.338,4.728,0.465,8.636,2.452,12.012c1.971,3.321,5.032,6.111,9.25,8.559
		c4.102,2.357,7.976,3.553,11.89,3.642c3.908,0.022,7.661-1.206,11.768-3.809c3.925-2.667,7.943-6.697,12.206-12.033
		C472.404,487.813,476.938,480.849,481.731,472.524z M468.568,464.941c-4.34,7.539-7.949,13.462-10.999,17.879
		c-3.139,4.507-5.702,7.827-7.977,9.953c-2.325,2.247-4.295,3.299-5.967,3.521c-1.776,0.166-3.636-0.222-5.38-1.229
		c-1.827-1.04-3.1-2.436-3.559-4.262c-0.67-1.783-0.625-4.262,0.193-7.44c0.77-3.121,2.392-7.118,4.683-11.956
		c2.209-4.728,5.458-10.649,9.521-17.691c4.146-7.174,7.672-13.02,10.816-17.513c3.05-4.418,5.69-7.816,8.016-10.064
		c2.319-2.253,4.406-3.448,6.343-3.875c1.699-0.354,3.56,0,5.386,1.041c1.622,0.974,2.873,2.402,3.637,3.997
		c0.658,1.583,0.625,3.985-0.155,7.129c-0.769,3.089-2.198,7.086-4.489,11.923C476.278,451.301,472.947,457.378,468.568,464.941z
		 M425.342,399.833l-43.176,74.784l13.047,7.551l51.784-89.642l-13.556-7.821l-28.662,4.633l2.402,13.529L425.342,399.833z"/>
</g>
</svg>
