<?xml version="1.0" encoding="UTF-8" standalone="no"?>
<!-- Created with Inkscape (http://www.inkscape.org/) -->
<svg
   xmlns:svg="http://www.w3.org/2000/svg"
   xmlns="http://www.w3.org/2000/svg"
   version="1.0"
   width="1000"
   height="873.01721"
   id="svg2660">
  <defs
     id="defs2662" />
  <g
     transform="translate(766.3141,793.7822)"
     id="layer1">
    <path
       d="M -291.87235,-775.54777 C -277.83286,-799.85825 -254.85245,-799.85825 -240.80065,-775.56009 L 227.68704,35.035326 C 241.73884,59.333484 230.24863,79.210436 202.15735,79.210436 L -734.78109,79.235067 C -762.87237,79.235067 -774.36258,59.358115 -760.3231,35.059957 L -291.87235,-775.54777 z "
       style="fill:#ee1c23;fill-rule:nonzero;stroke:none"
       id="path2673" />
    <path
       d="M -605.48238,-24.718684 L 72.846326,-24.743314 L -266.33034,-611.58139 L -605.48238,-24.718684"
       style="fill:white;fill-rule:nonzero;stroke:none"
       id="path361" />
    <path
       d="M -348.11649,-407.8611 L -348.11649,-285.69297 C -348.11649,-285.69297 -352.48843,-275.22493 -366.3555,-263.67315 C -380.22257,-252.13368 -387.1561,-231.03751 -387.1561,-231.03751 L -387.1561,-56.369097 L -325.51785,-56.369097 L -325.51785,-224.9291 C -325.51785,-224.9291 -323.20256,-245.97601 -309.33549,-257.51548 C -295.46843,-269.06726 -292.64821,-279.58456 -292.64821,-279.58456 L -292.64821,-407.8611 L -348.11649,-407.8611 M -242.37701,-56.369097 L -184.85208,-56.369097 L -184.85208,-407.87342 L -242.37701,-407.87342 L -242.37701,-56.369097 z "
       style="fill:black;fill-rule:nonzero;stroke:none"
       id="path363" />
  </g>
</svg>
