<?xml version="1.0" encoding="UTF-8" standalone="no"?>
<!-- Created with Inkscape (http://www.inkscape.org/) -->
<svg
   xmlns:svg="http://www.w3.org/2000/svg"
   xmlns="http://www.w3.org/2000/svg"
   version="1.0"
   width="1000"
   height="873.01721"
   id="svg2660">
  <defs
     id="defs2662" />
  <g
     transform="translate(766.3141,793.7822)"
     id="layer1">
    <path
       d="M -240.75581,-775.54777 C -254.7953,-799.85825 -277.77571,-799.85825 -291.82751,-775.56009 L -760.3152,35.035326 C -774.367,59.333484 -762.87679,79.210436 -734.78551,79.210436 L 202.15293,79.235067 C 230.24421,79.235067 241.73442,59.358115 227.69494,35.059957 L -240.75581,-775.54777 z "
       style="fill:#ee1c23;fill-rule:nonzero;stroke:none"
       id="path2673" />
    <path
       d="M 72.854225,-24.718684 L -605.47448,-24.743314 L -266.29782,-611.58139 L 72.854225,-24.718684"
       style="fill:white;fill-rule:nonzero;stroke:none"
       id="path361" />
    <path
       d="M -184.51167,-407.8611 L -184.51167,-285.69297 C -184.51167,-285.69297 -180.13973,-275.22493 -166.27266,-263.67315 C -152.40559,-252.13368 -145.47206,-231.03751 -145.47206,-231.03751 L -145.47206,-56.369097 L -207.11031,-56.369097 L -207.11031,-224.9291 C -207.11031,-224.9291 -209.4256,-245.97601 -223.29267,-257.51548 C -237.15973,-269.06726 -239.97995,-279.58456 -239.97995,-279.58456 L -239.97995,-407.8611 L -184.51167,-407.8611 M -290.25115,-56.369097 L -347.77608,-56.369097 L -347.77608,-407.87342 L -290.25115,-407.87342 L -290.25115,-56.369097 z "
       style="fill:black;fill-rule:nonzero;stroke:none"
       id="path363" />
  </g>
</svg>
