<?xml version="1.0" encoding="UTF-8" standalone="no"?>
<!-- Created with Inkscape (http://www.inkscape.org/) -->
<svg
   xmlns:svg="http://www.w3.org/2000/svg"
   xmlns="http://www.w3.org/2000/svg"
   version="1.0"
   width="1000"
   height="873.0188"
   id="svg4519">
  <defs
     id="defs4521" />
  <g
     transform="translate(794.8855,810.9265)"
     id="layer1">
    <path
       d="M -320.44378,-792.70288 C -306.40429,-817.00104 -283.42388,-817.00104 -269.37208,-792.70288 L 199.11561,17.892533 C 213.16741,42.190691 201.6772,62.067643 173.58592,62.067643 L -763.35252,62.092274 C -791.4438,62.092274 -802.93401,42.215322 -788.89453,17.904849 L -320.44378,-792.70288 z "
       style="fill:#ee1c23;fill-rule:nonzero;stroke:none"
       id="path4532" />
    <path
       d="M -634.05381,-41.873792 L 44.274896,-41.886107 L -294.90177,-628.72418 L -634.05381,-41.873792"
       style="fill:white;fill-rule:nonzero;stroke:none"
       id="path123" />
    <path
       d="M -92.092819,-234.06692 C -92.69627,-236.00043 -93.730759,-237.07187 -94.654409,-237.68763 L -286.61355,-412.92255 C -286.88449,-413.19349 -287.15542,-413.45211 -287.45099,-413.6861 L -287.8574,-414.05556 L -287.90666,-413.99398 C -288.32538,-414.30187 -288.71947,-414.62206 -289.17514,-414.86837 C -292.37713,-416.55557 -296.12099,-416.55557 -300.24663,-415.17626 L -300.25894,-415.23783 L -417.94429,-369.78193 L -389.21261,-247.04729 L -389.12641,-247.07192 C -389.08946,-246.91182 -389.06483,-246.71477 -389.01557,-246.54236 C -387.7594,-242.51525 -385.62885,-239.6704 -382.66086,-238.10635 C -381.23228,-237.35512 -379.65591,-236.9364 -377.96871,-236.83788 L -126.53881,-177.40406 C -125.50433,-176.98534 -124.0388,-176.72672 -122.10529,-177.33017 C -114.85156,-179.55925 -106.02146,-192.18247 -100.66429,-202.30567 C -95.319437,-212.42888 -89.851428,-226.82551 -92.092819,-234.06692 z M -410.56741,-365.89028 L -320.59156,-400.755 C -334.96356,-386.43226 -350.43162,-363.87057 -362.72233,-340.63153 C -376.09678,-315.36046 -385.19781,-290.81599 -388.69537,-271.99816 L -410.56741,-365.89028 z "
       style="fill:black;fill-rule:nonzero;stroke:none"
       id="path4542" />
    <path
       d="M -376.97117,-242.93397 L -379.56971,-243.54973 L -379.58202,-243.47584 C -379.6436,-243.50047 -379.71749,-243.51279 -379.77907,-243.54973 C -381.24459,-244.3256 -382.3776,-245.93891 -383.11652,-248.36503 C -387.77172,-263.42669 -377.14358,-300.18796 -357.27895,-337.76205 C -337.402,-375.32383 -312.993,-404.81906 -297.91903,-409.46194 C -295.49291,-410.21317 -293.52245,-410.20086 -292.05693,-409.42499 C -291.82294,-409.30184 -291.62589,-409.11711 -291.40422,-408.95701 L -290.70224,-408.31661 C -289.88943,-407.42991 -289.21209,-406.21069 -288.70716,-404.6097 C -284.06428,-389.53573 -294.6801,-352.77445 -314.55705,-315.21267 C -338.32565,-270.27401 -364.97603,-242.90934 -376.97117,-242.93397 z "
       style="fill:white;fill-rule:nonzero;stroke:none"
       id="path4538" />
    <path
       d="M -234.4581,-356.7523 L -185.49233,-312.01069 C -184.71646,-300.36038 -191.20664,-278.96864 -203.1402,-256.39463 C -215.06145,-233.85756 -229.0763,-216.46831 -239.15025,-210.52 L -303.63334,-225.7787 C -287.19237,-235.1753 -271.53958,-257.36754 -257.06906,-284.85537 C -242.59854,-312.35552 -232.88174,-337.92215 -234.4581,-356.7523 z "
       style="fill:white;fill-rule:nonzero;stroke:none"
       id="path4536" />
    <path
       d="M -141.55121,-187.44106 L -188.27559,-198.48792 C -180.66472,-202.13326 -169.45776,-215.69244 -159.98727,-233.58663 C -150.50446,-251.53007 -145.61527,-268.46366 -146.92069,-276.77651 L -111.40327,-244.3256 C -111.40327,-244.3256 -110.61508,-233.89451 -121.50184,-213.30327 C -132.30239,-192.88444 -141.55121,-187.44106 -141.55121,-187.44106"
       style="fill:white;fill-rule:nonzero;stroke:none"
       id="path125" />
    <path
       d="M -417.94429,-63.450261 L -406.51566,-63.450261 L -406.51566,-369.79424 L -417.94429,-369.79424 L -417.94429,-63.450261 z "
       style="fill:black;fill-rule:nonzero;stroke:none"
       id="path127" />
  </g>
</svg>
