<?xml version="1.0" encoding="UTF-8" standalone="no"?>
<!-- Created with Inkscape (http://www.inkscape.org/) -->
<svg
   xmlns:svg="http://www.w3.org/2000/svg"
   xmlns="http://www.w3.org/2000/svg"
   version="1.0"
   width="999.99976"
   height="873.53583"
   id="svg2466">
  <defs
     id="defs2468"><clipPath
   id="id20">
      <path
   d="M 256.28,578.86 L 338.36,578.86 L 338.36,506.86 L 256.28,506.86 L 256.28,578.86 z "
   id="path15" />

    </clipPath>

        
      </defs>
  <g
     transform="translate(-257.2073,538.9518)"
     id="layer1">
    <path
       d="M 731.93034,-520.71737 C 745.97814,-545.02992 768.97216,-545.02992 783.03228,-520.71737 L 1251.7975,290.34581 C 1265.8453,314.67068 1254.3606,334.55941 1226.2526,334.55941 L 288.74695,334.58405 C 260.65135,334.58405 249.15434,314.68301 263.20214,290.37046 L 731.93034,-520.71737 z "
       style="fill:#ee1c23;fill-rule:nonzero;stroke:none"
       id="path2482" />
    <path
       d="M 418.13456,230.55641 L 1096.8527,230.54409 L 757.47515,-356.64155 L 418.13456,230.55641"
       style="fill:white;fill-rule:nonzero;stroke:none"
       id="path165" />
    <path
       d="M 866.69196,12.001119 L 810.67327,12.001119 L 810.67327,-68.601222 L 757.47646,-120.13447 L 704.29198,-68.601222 L 704.29198,12.001119 L 646.72064,12.001119 L 646.72064,59.246093 L 704.29198,59.246093 L 704.29198,179.39176 L 757.47646,127.85851 L 810.67327,179.39176 L 810.67327,59.246093 L 866.69196,59.246093 L 866.69196,12.001119"
       style="fill:black;fill-rule:nonzero;stroke:none"
       id="path167" />
  </g>
</svg>
