<?xml version="1.0" encoding="UTF-8" standalone="no"?>
<!-- Created with Inkscape (http://www.inkscape.org/) -->
<svg
   xmlns:svg="http://www.w3.org/2000/svg"
   xmlns="http://www.w3.org/2000/svg"
   version="1.0"
   width="606.58801"
   height="1086.8827"
   id="svg2626">
  <defs
     id="defs2628" />
  <g
     transform="translate(1171.969,1612.529)"
     id="layer1">
    <path
       d="M -565.38108,-1511.6766 L -599.11232,-1612.5286 L -699.56582,-1578.8899 L -868.6687,-1237.9975 L -1037.7716,-1578.8899 L -1138.2251,-1612.5286 L -1171.9691,-1511.6766 L -952.44163,-1069.1385 L -1171.9691,-626.6004 L -1138.4931,-525.64595 L -1037.7716,-559.38703 L -868.6687,-900.27948 L -699.56582,-559.38703 L -598.84431,-525.64595 L -565.38108,-626.6004 L -784.90853,-1069.1385 L -565.38108,-1511.6766"
       style="fill:#ee1c23;fill-rule:nonzero;stroke:none"
       id="path211" />
    <path
       d="M -620.52777,-1484.95 L -687.62013,-1518.5502 L -868.6687,-1153.568 L -1049.7173,-1518.5502 L -1116.8224,-1484.95 L -910.55516,-1069.1385 L -1116.8224,-653.33982 L -1049.7173,-619.72674 L -868.6687,-984.70899 L -687.62013,-619.72674 L -620.52777,-653.33982 L -826.78224,-1069.1385 L -620.52777,-1484.95"
       style="fill:white;fill-rule:nonzero;stroke:none"
       id="path213" />
  </g>
</svg>
