<?xml version="1.0" encoding="UTF-8" standalone="no"?>
<!-- Created with Inkscape (http://www.inkscape.org/) -->
<svg
   xmlns:svg="http://www.w3.org/2000/svg"
   xmlns="http://www.w3.org/2000/svg"
   version="1.0"
   width="750"
   height="1650"
   id="svg2637">
  <defs
     id="defs2639" />
  <path
     d="M 713.92046,1650.0003 C 723.55614,1650.0003 732.6175,1646.314 739.43267,1639.6059 C 746.24783,1632.9102 750,1623.9953 750,1614.5161 L 750,35.4845 C 750,26.0053 746.24783,17.0904 739.43267,10.3948 C 732.6175,3.6867 723.55614,0.0003 713.92046,0.0003 L 36.07954,0.0003 C 16.18283,0.0003 0,15.9118 0,35.4845 L 0,1614.5161 C 0,1623.9953 3.75217,1632.9102 10.56733,1639.6059 C 17.3825,1646.314 26.44386,1650.0003 36.07954,1650.0003 L 713.92046,1650.0003 z "
     style="fill:black;fill-rule:nonzero;stroke:none"
     id="path1878" />
  <path
     d="M 36.07954,1641.2233 C 28.83045,1641.2233 22.00252,1638.4523 16.88476,1633.3992 C 11.75425,1628.3587 8.92097,1621.6506 8.92097,1614.5161 L 8.92097,35.4845 C 8.92097,28.35 11.75425,21.6419 16.88476,16.6014 C 22.00252,11.5483 28.83045,8.7773 36.07954,8.7773 L 713.92046,8.7773 C 721.16955,8.7773 727.99748,11.5483 733.128,16.6014 C 738.24575,21.6419 741.07903,28.35 741.07903,35.4845 L 741.07903,1614.5161 C 741.07903,1629.2364 728.89085,1641.2233 713.92046,1641.2233 L 36.07954,1641.2233"
     style="fill:white;fill-rule:nonzero;stroke:none"
     id="path203" />
  <path
     d="M 660.29252,632.37032 L 564.01235,657.37222 L 546.4767,687.07608 L 456.52673,534.6447 L 685.97063,145.874 L 660.29252,51.2329 L 564.01235,76.2473 L 375,396.5074 L 185.98765,76.2473 L 89.70748,51.2329 L 64.02937,145.874 L 293.47327,534.6573 L 203.5233,687.07608 L 185.98765,657.37222 L 89.70748,632.37032 L 64.02937,726.99887 L 121.99656,825.21345 L 64.02937,923.42803 L 89.45223,1018.1444 L 185.98765,993.05469 L 203.5233,963.36336 L 293.47327,1115.7822 L 64.02937,1504.5529 L 89.45223,1599.2692 L 185.98765,1574.1921 L 375,1253.9195 L 564.01235,1574.1921 L 660.54777,1599.2692 L 685.97063,1504.5529 L 456.52673,1115.7822 L 546.4767,963.36336 L 564.01235,993.05469 L 660.54777,1018.1444 L 685.97063,923.42803 L 628.00344,825.21345 L 685.97063,726.99887 L 660.29252,632.37032 z M 375,977.64479 L 285.05003,825.21345 L 375,672.79466 L 464.94997,825.21345 L 375,977.64479"
     style="fill:#ee1c23;fill-rule:nonzero;stroke:none"
     id="path205" />
  <path
     d="M 571.64432,713.51992 L 546.4767,756.15104 L 415.76337,534.6573 L 632.61069,167.2021 L 571.64432,132.3825 L 375,465.5823 L 178.35568,132.3825 L 117.38931,167.2021 L 334.23663,534.6447 L 203.5233,756.15104 L 178.35568,713.51992 L 117.38931,748.32697 L 162.75993,825.21345 L 117.38931,902.09994 L 178.36844,936.91953 L 203.5233,894.28841 L 334.23663,1115.7822 L 117.38931,1483.2374 L 178.35568,1518.0444 L 375,1184.8571 L 571.64432,1518.0444 L 632.61069,1483.2374 L 415.76337,1115.7822 L 546.4767,894.28841 L 571.64432,936.91953 L 632.61069,902.09994 L 587.24007,825.21345 L 632.61069,748.32697 L 571.64432,713.51992 z M 375,1046.7072 L 244.28666,825.21345 L 375,603.7197 L 505.71334,825.21345 L 375,1046.7072"
     style="fill:white;fill-rule:nonzero;stroke:none"
     id="path207" />
</svg>
