<?xml version="1.0" encoding="UTF-8" standalone="no"?>
<!-- Created with Inkscape (http://www.inkscape.org/) -->
<svg
   xmlns:svg="http://www.w3.org/2000/svg"
   xmlns="http://www.w3.org/2000/svg"
   version="1.0"
   width="1086"
   height="1057.644"
   id="svg2626">
  <defs
     id="defs2628" />
  <g
     transform="translate(2712.564,4300.627)"
     id="layer1">
    <path
       d="M -2013.9951,-3584.7804 L -1845.387,-3682.0523 L -1732.7271,-3617.0447 L -1626.5641,-3645.3229 L -1654.9459,-3751.6801 L -1689.8374,-3771.8049 L -1654.9459,-3791.9426 L -1626.6547,-3898.015 L -1732.7271,-3926.565 L -1845.387,-3861.5575 L -2013.9951,-3958.8423 L -1654.9459,-4166.0045 L -1626.6547,-4272.0769 L -1732.7271,-4300.6269 L -2169.5576,-4048.5949 L -2606.4011,-4300.6269 L -2712.4735,-4272.0769 L -2684.1694,-4166.0045 L -2325.1202,-3958.8423 L -2493.7282,-3861.5575 L -2606.4011,-3926.565 L -2712.4735,-3898.015 L -2684.1694,-3791.9426 L -2649.2908,-3771.8049 L -2684.1694,-3751.6801 L -2712.5641,-3645.3229 L -2606.4011,-3617.0447 L -2493.7282,-3682.0523 L -2325.1202,-3584.7804 L -2684.1694,-3377.6182 L -2712.5641,-3271.2481 L -2606.4011,-3242.9828 L -2169.5576,-3495.0278 L -1732.7271,-3242.9828 L -1626.5641,-3271.2481 L -1654.9459,-3377.6182 L -2013.9951,-3584.7804 z M -2338.1657,-3771.8049 L -2169.5576,-3869.0897 L -2000.9496,-3771.8049 L -2169.5576,-3674.533 L -2338.1657,-3771.8049"
       style="fill:#ee1c23;fill-rule:nonzero;stroke:none"
       id="path199" />
    <path
       d="M -1756.7863,-3867.8084 L -1845.387,-3816.6876 L -2091.7764,-3958.8423 L -1717.8956,-4174.5591 L -1756.7863,-4241.8704 L -2169.5576,-4003.7121 L -2582.3419,-4241.8704 L -2621.2326,-4174.5591 L -2247.3389,-3958.8423 L -2493.7282,-3816.6876 L -2582.3419,-3867.8084 L -2621.2326,-3800.4972 L -2571.5095,-3771.8049 L -2621.2326,-3743.1254 L -2582.3419,-3675.8013 L -2493.7282,-3726.935 L -2247.3389,-3584.7804 L -2621.2326,-3369.0635 L -2582.3419,-3301.7394 L -2169.5576,-3539.8976 L -1756.7863,-3301.7394 L -1717.8956,-3369.0635 L -2091.7764,-3584.7804 L -1845.387,-3726.935 L -1756.7863,-3675.8013 L -1717.8956,-3743.1254 L -1767.6058,-3771.8049 L -1717.8956,-3800.4972 L -1756.7863,-3867.8084 z M -2169.5576,-3629.6502 L -2415.947,-3771.8049 L -2169.5576,-3913.9595 L -1923.1683,-3771.8049 L -2169.5576,-3629.6502"
       style="fill:white;fill-rule:nonzero;stroke:none"
       id="path201" />
  </g>
</svg>
