<?xml version="1.0" encoding="UTF-8" standalone="no"?>
<!-- Created with Inkscape (http://www.inkscape.org/) -->
<svg
   xmlns:svg="http://www.w3.org/2000/svg"
   xmlns="http://www.w3.org/2000/svg"
   version="1.0"
   width="750"
   height="1150"
   id="svg2626">
  <defs
     id="defs2628" />
  <path
     d="M 713.92076,1150.0001 C 723.55644,1150.0001 732.6178,1146.2369 739.43297,1139.376 C 746.24813,1132.5408 750.0003,1123.4271 750.0003,1113.7374 L 750.0003,36.2628 C 750.0003,26.5731 746.24813,17.4723 739.43297,10.6242 C 732.6178,3.7761 723.55644,0.0001 713.92076,0.0001 L 36.0798,0.0001 C 16.1831,0.0001 0.0003,16.269 0.0003,36.2628 L 0.0003,1113.7374 C 0.0003,1123.4271 3.7525,1132.5408 10.5676,1139.376 C 17.3828,1146.2369 26.4442,1150.0001 36.0798,1150.0001 L 713.92076,1150.0001 z "
     style="fill:black;fill-rule:nonzero;stroke:none"
     id="path1878" />
  <path
     d="M 36.0798,1141.04 C 28.8307,1141.04 22.0028,1138.1984 16.8723,1133.04 C 11.7418,1127.8815 8.9213,1121.0335 8.9213,1113.7374 L 8.9213,36.2628 C 8.9213,28.9796 11.7418,22.1187 16.8723,16.9603 C 22.0028,11.8146 28.8307,8.973 36.0798,8.973 L 713.92076,8.973 C 721.16985,8.973 727.98502,11.8146 733.11554,16.9603 C 738.24605,22.1187 741.07933,28.9796 741.07933,36.2628 L 741.07933,1113.7374 C 741.07933,1128.7903 728.89116,1141.04 713.92076,1141.04 L 36.0798,1141.04"
     style="fill:white;fill-rule:nonzero;stroke:none"
     id="path209" />
  <path
     d="M 678.28792,132.4684 L 644.55668,31.6164 L 544.10318,65.2551 L 375.0003,406.1475 L 205.8974,65.2551 L 105.4439,31.6164 L 71.6999,132.4684 L 291.22737,575.0065 L 71.6999,1017.5446 L 105.1759,1118.499 L 205.8974,1084.758 L 375.0003,743.86552 L 544.10318,1084.758 L 644.82469,1118.499 L 678.28792,1017.5446 L 458.76047,575.0065 L 678.28792,132.4684"
     style="fill:#ee1c23;fill-rule:nonzero;stroke:none"
     id="path211" />
  <path
     d="M 623.14123,159.195 L 556.04887,125.5948 L 375.0003,490.577 L 193.9517,125.5948 L 126.8466,159.195 L 333.11384,575.0065 L 126.8466,990.80518 L 193.9517,1024.4183 L 375.0003,659.43601 L 556.04887,1024.4183 L 623.14123,990.80518 L 416.88676,575.0065 L 623.14123,159.195"
     style="fill:white;fill-rule:nonzero;stroke:none"
     id="path213" />
</svg>
