<?xml version="1.0" encoding="UTF-8" standalone="no"?>
<!-- Created with Inkscape (http://www.inkscape.org/) -->
<svg
   xmlns:svg="http://www.w3.org/2000/svg"
   xmlns="http://www.w3.org/2000/svg"
   version="1.0"
   width="1000"
   height="873.02362"
   id="svg2645">
  <defs
     id="defs2647" />
  <g
     transform="translate(794.8852,808.0742)"
     id="layer1">
    <path
       d="M -320.43971,-789.83972 C -306.40012,-814.15037 -283.41954,-814.15037 -269.36764,-789.85204 L 199.12348,20.749288 C 213.16306,45.047624 201.67277,64.924721 173.5936,64.924721 L -763.364,64.949352 C -791.44317,64.949352 -802.93346,45.072255 -788.89388,20.773919 L -320.43971,-789.83972 z "
       style="fill:#ee1c23;fill-rule:nonzero;stroke:none"
       id="path2658" />
    <path
       d="M -634.05203,-39.005158 L 44.269314,-39.029789 L -294.90983,-625.87214 L -634.05203,-39.005158"
       style="fill:white;fill-rule:nonzero;stroke:none"
       id="path353" />
    <path
       d="M -368.16198,-437.54466 L -368.16198,-315.37563 C -368.16198,-315.37563 -372.53396,-304.90752 -386.40113,-293.35565 C -400.2683,-281.81609 -407.20188,-260.71977 -407.20188,-260.71977 L -407.20188,-86.050085 L -345.56318,-86.050085 L -345.56318,-254.61132 C -345.56318,-254.61132 -343.26019,-275.65838 -329.38071,-287.19794 C -315.51354,-298.74981 -312.69331,-309.26718 -312.69331,-309.26718 L -312.69331,-437.54466 L -368.16198,-437.54466"
       style="fill:black;fill-rule:nonzero;stroke:none"
       id="path355" />
    <path
       d="M -221.52221,-437.54466 L -221.52221,-315.37563 C -221.52221,-315.37563 -217.15023,-304.90752 -203.28306,-293.35565 C -189.41589,-281.81609 -182.48231,-260.71977 -182.48231,-260.71977 L -182.48231,-86.050085 L -244.12101,-86.050085 L -244.12101,-254.61132 C -244.12101,-254.61132 -246.43631,-275.65838 -260.30348,-287.19794 C -274.17065,-298.74981 -276.99089,-309.26718 -276.99089,-309.26718 L -276.99089,-437.54466 L -221.52221,-437.54466"
       style="fill:black;fill-rule:nonzero;stroke:none"
       id="path357" />
  </g>
</svg>
