<?xml version="1.0" encoding="UTF-8" standalone="no"?>
<!-- Created with Inkscape (http://www.inkscape.org/) -->
<svg
   xmlns:svg="http://www.w3.org/2000/svg"
   xmlns="http://www.w3.org/2000/svg"
   version="1.0"
   width="621.94128"
   height="1548.0364"
   id="svg2637">
  <defs
     id="defs2639" />
  <g
     transform="translate(705.3536,1497.751)"
     id="layer1">
    <path
       d="M -109.09048,-916.61368 L -205.37065,-891.61178 L -222.9063,-861.90792 L -312.85627,-1014.3393 L -83.412371,-1403.11 L -109.09048,-1497.7511 L -205.37065,-1472.7367 L -394.383,-1152.4766 L -583.39535,-1472.7367 L -679.67552,-1497.7511 L -705.35363,-1403.11 L -475.90973,-1014.3267 L -565.8597,-861.90792 L -583.39535,-891.61178 L -679.67552,-916.61368 L -705.35363,-821.98513 L -647.38644,-723.77055 L -705.35363,-625.55597 L -679.93077,-530.83964 L -583.39535,-555.92931 L -565.8597,-585.62064 L -475.90973,-433.20184 L -705.35363,-44.431088 L -679.93077,50.285233 L -583.39535,25.208103 L -394.383,-295.06447 L -205.37065,25.208103 L -108.83523,50.285233 L -83.412371,-44.431088 L -312.85627,-433.20184 L -222.9063,-585.62064 L -205.37065,-555.92931 L -108.83523,-530.83964 L -83.412371,-625.55597 L -141.37956,-723.77055 L -83.412371,-821.98513 L -109.09048,-916.61368 z M -394.383,-571.33921 L -484.33297,-723.77055 L -394.383,-876.18934 L -304.43303,-723.77055 L -394.383,-571.33921"
       style="fill:#ee1c23;fill-rule:nonzero;stroke:none"
       id="path205" />
    <path
       d="M -197.73868,-835.46408 L -222.9063,-792.83296 L -353.61963,-1014.3267 L -136.77231,-1381.7819 L -197.73868,-1416.6015 L -394.383,-1083.4017 L -591.02732,-1416.6015 L -651.99369,-1381.7819 L -435.14637,-1014.3393 L -565.8597,-792.83296 L -591.02732,-835.46408 L -651.99369,-800.65703 L -606.62307,-723.77055 L -651.99369,-646.88406 L -591.01456,-612.06447 L -565.8597,-654.69559 L -435.14637,-433.20184 L -651.99369,-65.746649 L -591.02732,-30.939592 L -394.383,-364.12688 L -197.73868,-30.939592 L -136.77231,-65.746649 L -353.61963,-433.20184 L -222.9063,-654.69559 L -197.73868,-612.06447 L -136.77231,-646.88406 L -182.14293,-723.77055 L -136.77231,-800.65703 L -197.73868,-835.46408 z M -394.383,-502.27679 L -525.09634,-723.77055 L -394.383,-945.2643 L -263.66966,-723.77055 L -394.383,-502.27679"
       style="fill:white;fill-rule:nonzero;stroke:none"
       id="path207" />
  </g>
</svg>
