<?xml version="1.0" encoding="UTF-8" standalone="no"?>
<!-- Created with Inkscape (http://www.inkscape.org/) -->
<svg
   xmlns:svg="http://www.w3.org/2000/svg"
   xmlns="http://www.w3.org/2000/svg"
   version="1.0"
   width="1000"
   height="874.93237"
   id="svg4728">
  <defs
     id="defs4730" />
  <g
     transform="translate(-1108.061,138.5549)"
     id="layer1">
    <path
       d="M 1582.5081,-120.29116 C 1596.5415,-144.64292 1619.5232,-144.64292 1633.569,-120.29116 L 2102.0658,692.08022 C 2116.1116,716.43198 2104.6207,736.36513 2076.5415,736.36513 L 1139.5849,736.37747 C 1111.5057,736.37747 1100.0148,716.45667 1114.0483,692.1049 L 1582.5081,-120.29116 z "
       style="fill:#ee1c23;fill-rule:nonzero;stroke:none"
       id="path4740" />
    <path
       d="M 1268.8973,632.19438 L 1947.2168,632.18204 L 1608.0447,44.03696 L 1268.8973,632.19438"
       style="fill:white;fill-rule:nonzero;stroke:none"
       id="path263" />
    <path
       d="M 1863.695,594.25352 L 1857.0424,593.77216 L 1856.5734,590.45203 L 1849.4394,589.48931 C 1844.2186,580.93595 1837.5659,570.95087 1837.5659,570.95087 C 1835.1962,570.46951 1833.0856,571.49394 1832.3451,569.05012 C 1827.5932,553.35045 1812.8686,531.94855 1811.4369,529.56645 C 1810.0175,527.19668 1809.0671,527.19668 1809.0671,527.19668 C 1795.2929,530.0478 1781.5186,521.96346 1774.866,511.49702 C 1767.5592,500.00614 1767.263,489.14474 1766.794,471.54433 C 1766.4237,457.95523 1758.6973,453.73409 1755.1921,452.51218 C 1757.5248,453.04291 1761.3139,453.59832 1763.4615,452.52453 C 1766.3127,451.0928 1763.9429,449.67341 1763.9429,449.67341 C 1760.1414,446.80995 1747.7866,436.82486 1747.7866,436.82486 C 1727.8411,428.08636 1721.8179,419.73049 1699.3422,421.13753 C 1691.7392,421.60655 1689.8385,428.2715 1672.2628,423.5073 C 1655.1314,418.87886 1607.6621,421.60655 1607.6621,421.60655 C 1600.5405,421.60655 1598.1584,418.75543 1598.1584,418.75543 C 1598.1584,418.75543 1589.136,411.62146 1583.9028,405.91922 C 1578.6819,400.20464 1578.2129,401.15502 1578.2129,401.15502 C 1578.2129,401.15502 1573.1401,399.46409 1571.0789,395.92179 C 1562.5379,381.18484 1549.2327,363.11542 1545.4312,357.40083 C 1541.6297,351.6986 1541.6297,342.18253 1541.6297,342.18253 C 1541.6297,342.18253 1541.8518,337.62814 1540.0745,333.04907 C 1545.6163,333.43169 1554.0462,333.93773 1556.8357,333.62917 C 1561.1062,333.14781 1563.0069,332.19744 1563.0069,332.19744 C 1563.0069,332.19744 1566.327,327.91459 1568.2278,323.16272 C 1570.1285,318.39852 1558.255,320.78062 1558.255,320.78062 C 1558.255,320.78062 1558.255,324.58211 1552.0838,324.58211 C 1548.0354,324.58211 1541.1236,326.22367 1536.8408,327.34683 C 1537.4949,320.87936 1534.9771,315.07838 1534.9771,315.07838 C 1534.9771,315.07838 1543.5304,305.56231 1547.3319,297.47797 C 1549.1092,293.68882 1552.2442,286.14755 1555.6137,278.16195 C 1557.8354,276.18715 1561.5381,273.84207 1567.7588,271.3242 C 1585.3345,264.19023 1582.4834,259.42603 1582.4834,259.42603 C 1582.4834,259.42603 1580.5826,261.74642 1572.9796,262.28949 C 1567.9562,262.64742 1564.5621,262.72147 1563.2044,260.6973 C 1564.3522,258.17943 1565.4137,255.94544 1566.327,254.1928 C 1571.5603,244.20772 1575.8308,241.83795 1575.8308,241.83795 C 1575.8308,241.83795 1573.461,240.88758 1572.0293,242.30697 C 1570.6099,243.7387 1558.255,258.95701 1548.2823,280.82793 C 1544.4314,289.2702 1541.2964,294.66388 1538.6675,298.51474 C 1535.8534,299.51448 1533.0763,298.9097 1533.0763,298.9097 C 1532.126,287.01153 1531.6569,286.54251 1530.7066,274.64433 C 1530.6325,273.7063 1529.7562,275.59471 1529.2872,275.59471 C 1525.0043,287.01153 1525.0043,297.95933 1528.8058,309.84516 C 1528.9539,310.30183 1529.1761,310.67211 1529.4229,311.0177 C 1529.3736,311.1041 1529.3242,311.19049 1529.2872,311.26455 C 1526.2879,316.88039 1522.4247,320.43503 1520.2154,323.77985 C 1518.7837,323.92796 1517.8827,324.1131 1517.8827,324.1131 C 1517.8827,324.1131 1516.451,327.44557 1506.0092,326.96422 C 1497.3448,326.56926 1492.235,335.04856 1489.3839,335.52991 C 1486.5327,335.99893 1474.6592,340.76314 1474.6592,340.76314 C 1474.6592,340.76314 1471.3268,340.28178 1470.3764,344.08327 C 1469.426,347.89711 1475.1283,348.36612 1475.1283,348.36612 C 1471.8081,355.50009 1485.101,355.50009 1485.101,355.50009 C 1481.7809,359.30158 1497.9249,357.88219 1497.9249,357.88219 C 1497.9249,357.88219 1497.4559,360.25195 1506.0092,360.73331 C 1514.5502,361.20233 1521.6842,373.1005 1521.6842,373.1005 C 1522.1532,378.33372 1531.1756,394.97142 1531.1756,394.97142 C 1537.3592,419.23679 1533.2244,433.13445 1535.4584,454.42527 C 1535.7917,457.60964 1536.4088,460.5595 1537.2728,463.29953 C 1524.7822,466.00254 1513.4147,462.90457 1507.4286,462.50961 C 1500.307,462.0406 1495.5551,463.94134 1495.5551,463.94134 C 1490.3342,466.79246 1483.2003,467.26148 1483.2003,467.26148 C 1476.0786,466.3111 1473.7089,473.44507 1473.7089,473.44507 C 1473.7089,473.44507 1472.2771,473.44507 1485.101,490.57647 C 1497.9249,507.69553 1512.1805,523.38285 1512.1805,523.38285 C 1515.5006,530.51682 1526.9051,533.38028 1526.9051,533.38028 C 1527.8554,536.70041 1535.9274,539.55153 1535.9274,539.55153 L 1537.3592,542.41499 L 1553.5032,541.46462 L 1550.183,536.70041 L 1549.2327,531.46719 L 1539.7289,531.46719 C 1543.0614,526.71533 1533.0763,529.09743 1533.0763,529.09743 C 1528.8058,526.71533 1513.1308,512.44739 1509.8107,503.88169 C 1506.4782,495.32834 1499.8256,483.4425 1499.8256,483.4425 C 1499.8256,483.4425 1506.0092,480.57904 1519.7834,485.81226 C 1535.1499,491.65027 1554.2437,490.97143 1564.4016,490.02106 C 1589.0249,499.57416 1621.5968,495.24194 1630.4587,489.61376 C 1644.7143,480.57904 1662.29,485.34325 1662.29,485.34325 C 1664.6598,496.27871 1675.1139,494.37796 1675.1139,494.37796 C 1675.1139,494.37796 1679.767,491.1936 1682.7169,490.57647 C 1691.7392,488.66338 1706.4638,498.66081 1706.4638,498.66081 C 1725.9403,518.63099 1753.9702,530.0478 1784.8388,537.65079 C 1815.7197,545.26611 1819.0398,559.05269 1822.8413,564.28591 C 1826.6428,569.51914 1828.5436,570.46951 1828.5436,570.46951 C 1828.5436,570.46951 1829.0126,567.61839 1832.8141,577.13446 C 1836.6156,586.63819 1842.3178,597.58599 1842.3178,597.58599 C 1847.0697,604.2386 1850.8712,601.38749 1850.8712,601.38749 L 1856.092,603.75725 L 1864.164,604.2386 L 1863.695,594.25352"
       style="fill:black;fill-rule:nonzero;stroke:none"
       id="path265" />
  </g>
</svg>
