<?xml version="1.0" encoding="UTF-8" standalone="no"?>
<!-- Created with Inkscape (http://www.inkscape.org/) -->
<svg
   xmlns:svg="http://www.w3.org/2000/svg"
   xmlns="http://www.w3.org/2000/svg"
   version="1.0"
   width="1000.0001"
   height="873.00818"
   id="svg2420">
  <defs
     id="defs2422"><clipPath
   id="id18">
      <path
   d="M 77.18,578.86 L 159.26,578.86 L 159.26,506.86 L 77.18,506.86 L 77.18,578.86 z "
   id="path48" />

    </clipPath>

        
      </defs>
  <g
     transform="translate(786.3144,802.3451)"
     id="layer1">
    <path
       d="M -311.86606,-784.12145 C -297.82654,-808.41966 -274.84608,-808.41966 -260.80657,-784.12145 L 207.69435,26.463229 C 221.73386,50.761435 210.24363,70.650741 182.16461,70.650741 L -754.78798,70.663056 C -782.867,70.663056 -794.36954,50.786065 -780.31772,26.48786 L -311.86606,-784.12145 z "
       style="fill:#ee1c23;fill-rule:nonzero;stroke:none"
       id="path2436" />
    <path
       d="M -625.4767,-33.290897 L 52.841016,-33.303213 L -286.33631,-620.15475 L -625.4767,-33.290897"
       style="fill:white;fill-rule:nonzero;stroke:none"
       id="path149" />
    <path
       d="M -158.1327,-129.41212 L -239.1185,-210.32403 L -158.1327,-291.23594 L -205.33747,-338.40376 L -286.33559,-257.49185 L -367.33371,-338.40376 L -414.5508,-291.23594 L -333.55268,-210.32403 L -414.5508,-129.41212 L -367.33371,-82.24429 L -286.33559,-163.1562 L -205.33747,-82.24429 L -158.1327,-129.41212"
       style="fill:black;fill-rule:nonzero;stroke:none"
       id="path151" />
  </g>
</svg>
