<?xml version="1.0" encoding="UTF-8" standalone="no"?>
<!-- Created with Inkscape (http://www.inkscape.org/) -->
<svg
   xmlns:svg="http://www.w3.org/2000/svg"
   xmlns="http://www.w3.org/2000/svg"
   version="1.0"
   width="1500"
   height="1500"
   id="svg24532">
  <defs
     id="defs24534" />
  <g
     transform="translate(-543.8588,1168.804)"
     id="layer1">
    <path
       d="M 2001.2933,326.70699 C 2022.3117,326.70699 2039.3702,309.61658 2039.3702,288.53227 L 2039.3702,-1126.1232 C 2039.3702,-1147.2255 2022.3117,-1164.3159 2001.2933,-1164.3159 L 586.42433,-1164.3159 C 565.40583,-1164.3159 548.34734,-1147.2255 548.34734,-1126.1232 L 548.34734,288.53227 C 548.34734,309.61658 565.40583,326.70699 586.42433,326.70699 L 2001.2933,326.70699"
       style="fill:#fff100;fill-rule:nonzero;stroke:none"
       id="path21449" />
    <path
       d="M 2001.2933,326.70699 C 2022.3117,326.70699 2039.3702,309.61658 2039.3702,288.53227 L 2039.3702,-1126.1232 C 2039.3702,-1147.2255 2022.3117,-1164.3159 2001.2933,-1164.3159 L 586.42433,-1164.3159 C 565.40583,-1164.3159 548.34734,-1147.2255 548.34734,-1126.1232 L 548.34734,288.53227 C 548.34734,309.61658 565.40583,326.70699 586.42433,326.70699 L 2001.2933,326.70699 z "
       style="fill:none;stroke:black;stroke-width:8.977108;stroke-linecap:butt;stroke-linejoin:miter;stroke-miterlimit:4"
       id="path21451" />
    <path
       d="M 1718.8247,-542.83605 L 1718.3231,-543.12387 C 1717.9289,-543.33978 1717.445,-543.60963 1717.445,-543.60963 C 1717.445,-543.60963 1357.2279,-745.27658 1333.6112,-758.4991 C 1293.9753,-781.29236 1291.8967,-815.05951 1291.7891,-818.8553 C 1291.7891,-819.08919 1291.8251,-819.3051 1291.8251,-819.53899 L 1291.8251,-880.61483 L 1342.5346,-867.33819 C 1346.9426,-865.93504 1351.9418,-866.70861 1355.8123,-869.83887 C 1361.9225,-874.80411 1362.8722,-883.79902 1357.9266,-889.93351 L 1247.7812,-1067.2962 L 1137.6357,-889.93351 C 1132.6902,-883.79902 1133.6398,-874.80411 1139.75,-869.83887 C 1143.6205,-866.69064 1148.6197,-865.93504 1153.0277,-867.33819 L 1202.268,-880.21896 L 1202.268,-818.33359 L 1202.2501,-817.81188 L 1202.2501,-817.99183 C 1202.2501,-817.99183 1202.2501,-817.70401 1202.2142,-817.12837 L 1202.268,-817.12837 C 1202.9847,-776.75895 1226.028,-717.1224 1288.5459,-680.89071 L 1288.528,-680.85475 L 1289.5135,-680.29691 L 1289.5135,-680.31488 L 1673.7954,-465.19152 C 1673.7954,-465.19152 1674.0283,-465.06549 1674.1538,-464.97561 C 1674.2075,-464.95763 1674.3867,-464.84958 1674.3867,-464.84958 C 1799.0463,-393.39366 1830.2246,-272.3575 1829.1494,-209.55473 L 1829.1315,-209.55473 L 1829.0599,-205.56083 L 1829.1315,-205.54285 L 1829.1315,-32.048049 L 1918.6707,-32.048049 L 1918.6707,-208.4572 C 1919.7817,-292.00252 1879.2677,-450.87146 1718.8247,-542.83605"
       style="fill:black;fill-rule:nonzero;stroke:none"
       id="path21453" />
    <path
       d="M 1669.4591,-211.15582 L 1669.4233,-211.15582 C 1668.6886,-251.52523 1645.6453,-311.16178 1583.1274,-347.39348 L 1583.1453,-347.42943 L 1582.1598,-347.9871 L 1582.1598,-347.96912 L 1197.8779,-563.09267 C 1197.8779,-563.09267 1197.6629,-563.21851 1197.5196,-563.30858 C 1197.4837,-563.32656 1197.2866,-563.43442 1197.2866,-563.43442 C 1072.6271,-634.89034 1041.4488,-755.92669 1042.5417,-818.72946 L 1042.6134,-822.74116 L 1042.5596,-822.74116 L 1042.5596,-880.21896 L 1091.782,-867.33819 C 1096.2079,-865.93504 1101.2072,-866.70861 1105.0776,-869.83887 C 1111.1878,-874.80411 1112.1376,-883.79902 1107.1741,-889.93351 L 997.04649,-1067.2962 L 886.90098,-889.93351 C 881.95545,-883.79902 882.88722,-874.80411 889.01537,-869.83887 C 892.86787,-866.69064 897.88507,-865.93504 902.29303,-867.33819 L 953.00262,-880.61483 L 953.00262,-819.84479 C 951.89166,-736.29965 992.40557,-577.41254 1152.8664,-485.44814 L 1153.3503,-485.16032 C 1153.7445,-484.9444 1154.2282,-484.67456 1154.2282,-484.67456 C 1154.2282,-484.67456 1514.4634,-283.02558 1538.0622,-269.80288 C 1576.4079,-247.74724 1579.5974,-215.54522 1579.8662,-209.98637 L 1579.8662,-32.048049 L 1669.4233,-32.048049 L 1669.4233,-209.95042 L 1669.4412,-210.47213 L 1669.4412,-210.29217 C 1669.4412,-210.29217 1669.4412,-210.58017 1669.4591,-211.15582"
       style="fill:black;fill-rule:nonzero;stroke:none"
       id="path21455" />
    <path
       d="M 852.37188,-652.37662 C 848.50146,-655.50688 843.50218,-656.28045 839.07629,-654.8773 L 788.83259,-641.72651 L 788.83259,-1064.292 L 699.27554,-1064.292 L 699.27554,-641.85253 L 649.58731,-654.8773 C 645.17934,-656.28045 640.16214,-655.50688 636.30965,-652.35864 C 630.1815,-647.39341 629.24973,-638.3985 634.19526,-632.26382 L 744.34076,-454.9193 L 854.46835,-632.26382 C 859.4318,-638.3985 858.48211,-647.41138 852.37188,-652.37662"
       style="fill:black;fill-rule:nonzero;stroke:none"
       id="path21457" />
    <path
       d="M 1491.8143,-894.30513 L 1491.8143,-1064.292 L 1424.6376,-1064.292 L 1424.6376,-894.30513 C 1424.6376,-875.70352 1439.6712,-860.62805 1458.2169,-860.62805 C 1476.7806,-860.62805 1491.8143,-875.70352 1491.8143,-894.30513"
       style="fill:black;fill-rule:nonzero;stroke:none"
       id="path21459" />
    <path
       d="M 1425.3005,-202.03488 L 1425.3005,-32.048049 L 1492.4594,-32.048049 L 1492.4594,-202.03488 C 1492.4594,-220.65446 1477.4256,-235.72993 1458.88,-235.72993 C 1440.3342,-235.72993 1425.3005,-220.63648 1425.3005,-202.03488"
       style="fill:black;fill-rule:nonzero;stroke:none"
       id="path21461" />
    <path
       d="M 1204.4003,63.946036 C 1179.834,63.946036 1159.9085,83.932994 1159.9085,108.5792 L 1159.9085,179.99917 C 1159.9085,204.64538 1179.834,224.63216 1204.4003,224.63216 C 1228.9846,224.63216 1248.91,204.64538 1248.91,179.99917 L 1248.91,108.5792 C 1248.91,83.932994 1228.9846,63.946036 1204.4003,63.946036 z M 1226.6551,179.99917 L 1226.6551,179.99917 C 1226.6551,192.32228 1216.6925,202.30668 1204.4003,202.30668 C 1192.1082,202.30668 1182.1454,192.32228 1182.1454,179.99917 L 1182.1454,108.5792 C 1182.1454,96.2561 1192.1082,86.25354 1204.4003,86.25354 C 1216.6925,86.25354 1226.6551,96.2561 1226.6551,108.5792 L 1226.6551,179.99917"
       style="fill:black;fill-rule:nonzero;stroke:none"
       id="path21463" />
    <path
       d="M 1495.7206,107.06801 C 1482.425,107.06801 1470.4912,112.93266 1462.3382,122.19741 C 1454.1853,112.93266 1442.2515,107.06801 1428.956,107.06801 C 1421.233,107.06801 1413.5101,110.01831 1406.7189,114.91163 L 1406.7189,109.29867 L 1384.464,109.29867 L 1384.464,220.8903 L 1406.7189,220.8903 L 1406.7189,151.70099 C 1406.7189,139.37789 1416.6817,129.39349 1428.956,129.39349 C 1441.2481,129.39349 1451.2108,139.37789 1451.2108,151.70099 L 1451.2108,220.8903 L 1473.4657,220.8903 L 1473.4657,151.70099 C 1473.4657,139.37789 1483.4284,129.39349 1495.7206,129.39349 C 1508.0127,129.39349 1517.9754,139.37789 1517.9754,151.70099 L 1517.9754,220.8903 L 1540.2124,220.8903 L 1540.2124,151.70099 C 1540.2124,127.05478 1520.287,107.06801 1495.7206,107.06801"
       style="fill:black;fill-rule:nonzero;stroke:none"
       id="path21465" />
    <path
       d="M 1134.0519,166.59669 C 1134.0519,141.95048 1114.1265,121.96371 1089.5422,121.96371 C 1081.443,121.96371 1073.971,124.19437 1067.3052,130.18504 L 1067.3052,88.484382 L 1129.6081,88.484382 L 1129.6081,66.176878 L 1045.0504,66.176878 L 1045.0504,155.44285 L 1067.3052,155.44285 C 1071.1578,148.78664 1081.3176,144.28919 1089.5601,144.28919 C 1101.8344,144.28919 1111.797,154.27359 1111.797,166.59669 L 1111.797,179.99917 C 1111.797,192.32228 1101.8344,202.30668 1089.5601,202.32465 C 1078.0384,202.32465 1068.4341,193.49154 1067.3052,182.22983 L 1045.0504,182.22983 C 1046.1613,205.88655 1065.6926,224.63216 1089.5601,224.63216 C 1114.1265,224.63216 1134.0519,204.64538 1134.0519,179.99917 L 1134.0519,166.59669"
       style="fill:black;fill-rule:nonzero;stroke:none"
       id="path21467" />
    <path
       d="M 1314.8504,63.946036 C 1290.2661,63.946036 1270.3407,83.932994 1270.3407,108.5792 L 1270.3407,179.99917 C 1270.3407,204.64538 1290.2661,224.63216 1314.8504,224.63216 C 1339.4347,224.63216 1359.3601,204.64538 1359.3601,179.99917 L 1359.3601,108.5792 C 1359.3601,83.932994 1339.4347,63.946036 1314.8504,63.946036 z M 1337.1053,179.99917 L 1337.1053,179.99917 C 1337.1053,192.32228 1327.1425,202.30668 1314.8504,202.30668 C 1302.5583,202.30668 1292.5955,192.32228 1292.5955,179.99917 L 1292.5955,108.5792 C 1292.5955,96.2561 1302.5583,86.25354 1314.8504,86.25354 C 1327.1425,86.25354 1337.1053,96.2561 1337.1053,108.5792 L 1337.1053,179.99917"
       style="fill:black;fill-rule:nonzero;stroke:none"
       id="path21469" />
  </g>
</svg>
