<?xml version="1.0" encoding="utf-8"?>
<!-- Generator: Adobe Illustrator 15.0.2, SVG Export Plug-In . SVG Version: 6.00 Build 0)  -->
<!DOCTYPE svg PUBLIC "-//W3C//DTD SVG 1.1//EN" "http://www.w3.org/Graphics/SVG/1.1/DTD/svg11.dtd">
<svg version="1.1" id="Vrstva_1" xmlns="http://www.w3.org/2000/svg" xmlns:xlink="http://www.w3.org/1999/xlink" x="0px" y="0px"
	 width="2200px" height="460px" viewBox="0 0 2200 460" enable-background="new 0 0 2200 460" xml:space="preserve">
<g>
	<path fill-rule="evenodd" clip-rule="evenodd" fill="#009FE3" d="M59.538,3.673h2072.504c26.367,0,47.546,21.162,47.546,47.53
		V412.47c0,26.368-21.179,47.53-47.546,47.53H59.538C33.17,460,12,438.838,12,412.47V51.203C12,24.835,33.17,3.673,59.538,3.673"/>
	<path fill-rule="evenodd" clip-rule="evenodd" fill="#FFFFFF" d="M59.538,32.183h2072.504c10.647,0,19.017,8.373,19.017,19.02
		V412.47c0,10.648-8.369,19.001-19.017,19.001H59.538c-10.648,0-19.009-8.353-19.009-19.001V51.203
		C40.529,40.555,48.89,32.183,59.538,32.183"/>
	<path fill-rule="evenodd" clip-rule="evenodd" fill="#009FE3" d="M2035.609,232.181c0-18.501-0.87-34.422-2.544-47.514
		c-1.993-13.126-4.839-23.657-8.856-31.926c-4.252-8.253-9.359-14.247-15.636-17.914c-6.581-3.716-14.247-5.423-23.389-5.423
		c-9.073,0-16.791,1.707-23.32,5.423c-6.563,3.667-11.687,9.661-15.688,17.914c-4.251,8.269-7.098,18.8-8.788,31.926
		c-2.028,13.092-2.847,29.013-2.847,47.514c0,18.55,0.818,34.503,2.847,47.293c1.69,13.127,4.537,23.674,8.788,31.91
		c4.001,8.27,9.125,13.961,15.688,17.629c6.529,3.683,14.247,5.357,23.32,5.357c9.142,0,16.808-1.675,23.389-5.357
		c6.276-3.668,11.384-9.359,15.636-17.629c4.018-8.236,6.863-18.783,8.856-31.91C2034.739,266.684,2035.609,250.73,2035.609,232.181
		 M2007.418,232.181c0,16.807-0.302,30.252-1.123,40.48c-0.87,10.528-2.025,18.498-3.716,24.19
		c-1.977,5.994-4.251,9.71-7.098,11.687c-2.846,1.992-6.279,3.147-10.297,3.147c-4.251,0-7.668-1.155-10.515-3.716
		c-2.846-2.278-5.141-6.581-6.812-12.507c-1.743-6.011-2.847-14.247-3.719-24.561c-0.87-9.927-1.172-23.019-1.172-38.722
		c0-15.94,0.587-29.016,1.457-39.546c0.87-10.278,1.977-18.547,3.735-24.476c1.672-6.01,3.949-10.028,6.795-12.572
		c2.847-2.259,6.279-3.433,10.229-3.433c4.018,0,7.451,1.174,10.297,3.148c2.544,1.976,4.836,5.994,6.796,11.971
		c1.759,5.994,3.147,13.961,4.018,24.19C2007.116,201.993,2007.418,215.386,2007.418,232.181z M1876.731,151.87
		c3.132,0,5.978,0.283,9.109,0.87c3.146,0.587,6.578,1.742,10.528,3.716l8.557-19.653c-3.131-1.675-7.1-3.434-11.922-5.108
		c-5.171-1.454-11.115-2.292-17.979-2.292c-10.229,0-19.354,3.112-27.321,9.09c-8.272,6.277-15.119,14.834-20.543,25.647
		c-5.691,10.816-9.943,23.606-12.789,38.154c-2.847,14.532-4.254,30.185-4.254,46.979c0,28.224,3.969,49.27,11.653,63.516
		c7.733,14.532,20.809,21.581,39.31,21.581c6.847,0,13.377-1.104,19.37-3.901c5.976-2.561,11.401-6.562,16.221-11.987
		c4.588-5.391,8.255-12.488,11.102-21.345c2.577-8.538,4.018-18.783,4.018-31.04c0-11.115-1.172-20.49-3.434-28.493
		c-2.259-7.97-5.406-14.481-9.122-19.371c-3.667-4.838-8.272-8.503-13.092-11.115c-4.839-2.262-9.946-3.381-15.07-3.381
		c-6.276,0-12.271,1.691-17.963,4.838c-5.708,3.431-10.813,7.951-15.1,13.377c0.854-10.531,2.596-19.958,4.854-28.73
		c1.992-8.555,4.839-16.005,8.27-21.983c3.131-5.942,7.1-10.813,11.403-14.195C1866.788,153.61,1871.592,151.87,1876.731,151.87z
		 M1863.926,227.342c3.129,0,6.276,0.584,8.837,1.992c2.563,1.438,4.54,3.431,6.565,6.563c1.707,3.147,3.096,7.399,3.966,12.825
		c0.872,5.39,1.44,11.952,1.44,19.637c0,13.945-1.739,24.242-5.156,31.34c-3.667,7.116-9.658,10.547-18.216,10.547
		c-4.251,0-7.968-0.821-11.099-2.577c-3.148-1.675-5.407-4.822-7.399-9.645c-2.025-4.603-3.716-10.833-4.589-19.085
		c-0.802-8.036-1.389-18.55-1.389-31.34v-3.434c3.132-4.838,6.563-8.84,10.816-11.984
		C1851.954,229.098,1857.345,227.342,1863.926,227.342z M1780.835,89.221h285.228v285.211h-285.228V89.221z"/>
	<polygon fill-rule="evenodd" clip-rule="evenodd" points="269.243,84.486 383.331,198.546 383.331,292.666 302.518,211.855 
		302.518,379.187 235.979,379.187 235.979,211.855 155.166,292.666 155.166,198.546 	"/>
	<path fill-rule="evenodd" clip-rule="evenodd" d="M1029.054,330.353h29.081V228.981c0-16.541-3.732-29.029-11.4-37.282
		c-7.685-8.272-19.958-12.29-36.766-12.29c-7.97,0-15.652,1.707-22.752,5.14c-7.432,3.716-13.711,9.106-18.55,16.204l-3.95-18.499
		h-21.932v148.097h29.029v-97.085c0-5.407,1.155-9.995,3.132-13.964c1.992-4.001,4.251-7.432,7.383-9.993
		c2.862-2.544,6.295-4.254,10.012-5.692c3.683-1.106,7.097-1.69,10.531-1.69c9.123,0,15.636,1.99,19.938,5.975
		c4.251,4.254,6.244,11.703,6.244,22.519V330.353z M855.913,309.859c-5.692,0-10.833-0.568-15.405-1.672
		c-4.537-0.873-8.554-3.148-11.683-6.279c-3.382-3.164-5.961-7.451-7.97-13.394c-1.976-5.692-3.381-13.426-3.683-22.801h88.563
		v-16.207c0-10.531-0.854-19.955-2.846-28.795c-2.025-8.554-5.105-15.938-9.408-22.217c-4.251-5.978-10.229-10.816-17.664-14.247
		c-7.399-3.131-16.541-4.838-27.64-4.838c-40.147,0-60.086,26.468-60.086,79.739c0,15.119,2.009,27.341,5.709,36.766
		c3.718,9.661,8.554,17.378,14.532,22.804c5.994,5.391,13.091,9.356,21.062,11.4c7.685,1.908,15.938,3.028,24.19,3.028
		c9.712,0,18.852-1.12,27.091-3.33c8.269-2.277,14.782-4.604,19.955-6.847l-8.84-21.062c-5.692,2.259-11.384,4.234-17.395,5.691
		C868.417,309.005,862.141,309.859,855.913,309.859z M847.658,201.928c11.083,0,19.069,3.43,23.908,9.943
		c4.822,6.562,7.081,17.963,7.081,34.202h-61.173c0.233-8.555,1.405-15.652,2.846-21.344c1.405-5.708,3.365-10.281,5.942-13.679
		c2.563-3.148,5.409-5.692,9.125-7.133C839.103,202.513,843.072,201.928,847.658,201.928z M717.241,135.563
		c0,5.426,2.042,9.962,5.708,13.679c3.735,3.7,8.255,5.692,13.679,5.692c5.39,0,10.278-1.992,13.945-5.692
		c3.719-3.716,5.426-8.253,5.426-13.679c0-5.407-1.707-10.229-5.426-13.945c-3.667-3.735-8.555-5.41-13.945-5.41
		c-5.423,0-9.944,1.674-13.679,5.41C719.282,125.334,717.241,130.156,717.241,135.563z M751.16,182.255h-50.428v22.801h21.398
		v125.296h29.029V182.255z M659.433,330.353l27.053-199.326h-25.881l-23.674,171.15l-32.745-145.838h-28.779l-32.462,146.374
		l-22.217-171.687h-27.909l27.056,199.326h40.179l29.029-136.696l28.496,136.696H659.433z"/>
	<path fill-rule="evenodd" clip-rule="evenodd" d="M1642.886,330.353h16.005v-55.783c0-3.433,0.283-6.38,1.088-8.639
		c0.82-2.294,1.808-4.069,2.946-5.374c1.123-1.308,2.295-2.262,3.716-2.762c1.525-0.538,2.813-0.805,3.918-0.805
		c3.099,0,5.374,0.954,6.866,3.097c1.454,2.109,2.275,6.162,2.275,12.156v58.109h15.921v-58.882c0-9.609-1.623-16.473-4.871-20.86
		c-3.232-4.401-8.639-6.478-16.123-6.478c-3.731,0-7.282,0.77-10.579,2.411c-3.249,1.658-5.978,4.251-8.272,7.633
		c-3.43-6.662-9.459-10.044-17.761-10.044c-3.566,0-7,0.77-10.248,2.277c-3.229,1.591-6.026,4.385-8.152,8.12l-2.428-8.808h-11.05
		v84.63h15.938v-54.829c0-3.751,0.354-6.646,1.174-9.125c0.77-2.411,1.772-4.202,2.896-5.708c1.155-1.441,2.443-2.396,3.9-2.896
		c1.306-0.538,2.612-0.805,3.784-0.805c3.08,0,5.342,0.954,6.796,3.097c1.44,2.109,2.262,6.162,2.262,12.156V330.353z
		 M1538.1,330.353h15.938v-39.998l21.162,39.998h18.382l-26.518-46.994l24.392-37.636h-17.563l-19.854,33.05v-62.315H1538.1V330.353
		z M1409.257,286.438c0,15.604,4.167,27.341,12.222,34.874c8.084,7.584,19.033,11.452,32.696,11.452
		c13.426,0,24.392-3.868,32.712-11.452c8.003-7.533,12.153-19.271,12.153-34.874c0-6.127-0.72-11.484-2.392-16.122
		c-1.759-4.638-3.7-8.555-6.328-12.238c-2.664-3.365-5.611-6.562-9.041-9.258c-3.434-2.646-6.815-5.105-10.229-7.533
		c1.908-1.256,4.388-3.18,7.029-5.659c2.713-2.158,5.176-5.105,7.584-8.772c2.479-3.398,4.388-7.299,6.095-11.936
		c1.691-4.638,2.411-9.794,2.411-15.655c0-8.286-1.221-15.117-3.382-20.708c-2.177-5.407-5.357-9.811-9.021-12.942
		c-3.687-3.181-8.087-5.407-12.708-6.614c-4.891-1.221-9.762-1.941-14.883-1.941c-5.108,0-9.995,0.72-14.616,1.941
		c-4.888,1.207-9.275,3.433-12.942,6.614c-3.684,3.131-6.864,7.535-9.038,12.942c-2.227,5.591-3.434,12.422-3.434,20.961
		c0,4.871,0.486,9.275,1.69,13.409c1.256,4.17,2.697,7.834,4.638,11.034c1.977,3.382,4.153,6.328,6.613,9.006
		c2.477,2.661,4.872,4.888,7.585,7.064c-2.713,1.743-5.41,3.684-8.305,6.144c-2.946,2.396-5.608,5.342-8.071,9.009
		c-2.71,3.648-4.637,8.035-6.328,13.192C1410.244,273.499,1409.257,279.591,1409.257,286.438z M1474.717,286.438
		c0,8.02-1.509,14.649-4.403,19.757c-3.2,5.121-8.538,7.584-16.139,7.584c-7.818,0-13.176-2.463-16.123-7.35
		c-2.914-4.871-4.403-11.437-4.403-19.991c0-10.998,1.256-19.068,3.667-24.677c2.477-5.357,5.676-9.524,9.525-12.455
		c4.387,2.931,8.304,5.406,11.737,7.584c3.431,2.227,6.328,4.621,8.788,7.098c2.46,2.664,4.404,5.61,5.592,9.024
		C1474.214,276.628,1474.717,281.048,1474.717,286.438z M1437.082,199.75c0-7.532,1.204-13.426,3.664-17.579
		c2.479-4.135,6.866-6.312,13.429-6.312c6.562,0,11.267,2.177,13.679,6.312c2.207,4.153,3.43,10.047,3.43,17.579
		c0,9.509-1.223,16.606-3.683,21.497c-2.46,5.105-5.358,9.041-8.538,11.719c-4.151-3.164-7.835-5.877-10.479-8.538
		c-2.946-2.46-5.124-4.872-6.848-7.568c-1.707-2.411-2.931-5.122-3.684-7.834C1437.315,206.364,1437.082,203.184,1437.082,199.75z
		 M1345.572,178.271c2.661,0,5.339,0.286,8.003,1.006c2.476,0.72,4.653,1.924,6.627,3.615c1.69,1.743,3.181,4.404,4.403,7.584
		c1.188,3.181,1.675,7.351,1.675,12.456c0,6.581-1.44,12.708-4.151,17.83c-2.645,5.124-6.078,10.245-10.229,14.866
		c-4.17,4.654-8.791,9.512-13.679,14.448c-4.871,4.874-9.259,10.248-13.429,16.323c-4.15,6.144-7.817,13.192-10.479,21.01
		c-2.713,7.837-4.151,17.112-4.151,27.825v15.119h79.538v-21.698h-55.163c0-7.334,1.474-13.896,4.187-19.789
		c2.678-5.842,6.31-11.449,10.463-16.622c4.15-5.124,8.555-9.979,13.426-15.12c4.891-4.887,9.561-9.995,13.662-15.586
		c4.167-5.407,7.601-11.501,10.295-18.08c2.647-6.597,4.153-13.945,4.153-22.451c0-14.198-3.917-25.147-11.501-32.748
		c-7.584-7.532-18.55-11.199-32.696-11.199c-7.802,0-15.168,1.44-21.733,4.637c-6.863,3.132-12.472,6.562-16.858,10.246
		l10.783,17.093c4.871-3.665,9.742-6.611,14.396-8.321C1337.735,179.04,1341.905,178.271,1345.572,178.271z"/>
</g>
</svg>
