<?xml version="1.0" encoding="UTF-8" standalone="no"?>
<!-- Created with Inkscape (http://www.inkscape.org/) -->
<svg
   xmlns:svg="http://www.w3.org/2000/svg"
   xmlns="http://www.w3.org/2000/svg"
   version="1.0"
   width="959.99994"
   height="1200"
   id="svg2710">
  <defs
     id="defs2712" />
  <g
     transform="translate(-710.3276,743.5528)"
     id="layer1">
    <path
       d="M 746.96638,456.44718 C 726.73613,456.44718 710.32764,441.35361 710.32764,422.72142 L 710.32764,-709.82706 C 710.32764,-728.45925 726.73613,-743.55282 746.96638,-743.55282 L 1633.7037,-743.55282 C 1653.9339,-743.55282 1670.3276,-728.45925 1670.3276,-709.82706 L 1670.3276,422.72142 C 1670.3276,441.35361 1653.9339,456.44718 1633.7037,456.44718 L 746.96638,456.44718 z "
       style="fill:#176fc1;fill-rule:nonzero;stroke:none"
       id="path2726" />
    <path
       d="M 852.48537,109.67617 L 1528.1847,109.67617 L 1528.1847,-618.42182 L 852.48537,-618.42182 L 852.48537,109.67617 z "
       style="fill:white;fill-rule:nonzero;stroke:none"
       id="path95" />
    <path
       d="M 1394.9247,-537.31941 L 1135.886,-537.31941 C 1115.6557,-537.31941 1099.262,-522.22584 1099.262,-503.59365 L 1099.262,-480.57902 C 1061.7379,-472.9846 1046.3476,-442.8519 1043.4111,-425.86653 L 1043.2193,-424.72329 L 1043.2636,-423.56643 C 1045.4179,-369.95636 1036.0185,-317.70729 1014.5045,-263.7978 C 992.66583,-209.05809 952.20532,-139.79644 923.53473,-99.66034 C 911.15458,-82.334719 904.92762,-47.479326 915.95023,-19.115937 C 924.30203,2.4151963 941.25649,17.386275 964.95436,24.177701 C 991.48536,31.799341 1014.2389,29.68978 1032.5804,17.930678 C 1068.6731,-5.2064437 1072.0375,-57.428288 1072.1555,-59.646729 L 1072.185,-59.959761 L 1072.185,-365.08395 L 1099.262,-365.08395 L 1099.262,-16.067281 L 1127.8736,-16.067281 L 1127.8736,19.618327 L 1402.9519,19.618327 L 1402.9519,-16.067281 L 1431.5634,-16.067281 L 1431.5634,-503.59365 C 1431.5634,-522.22584 1415.1697,-537.31941 1394.9247,-537.31941 z M 1046.3328,-60.653875 C 1046.082,-57.305797 1042.4963,-17.373848 1017.7655,-1.5725546 C 1006.1527,5.8449343 991.38207,6.8384696 972.64215,1.4624913 C 956.76487,-3.0832725 945.88982,-12.705593 940.2826,-27.132269 C 931.75373,-49.098924 937.72984,-76.237407 945.13727,-86.581061 C 974.61944,-127.86041 1016.2604,-199.16357 1038.7778,-255.60454 C 1041.4781,-262.38235 1043.9866,-269.13295 1046.3328,-275.88354 L 1046.3328,-60.653875 z M 1373.4107,-340.16391 C 1373.4107,-326.86687 1361.6946,-316.07409 1347.2486,-316.07409 L 1183.5768,-316.07409 C 1169.1309,-316.07409 1157.4147,-326.86687 1157.4147,-340.16391 L 1157.4147,-456.85666 C 1157.4147,-470.16731 1169.1309,-480.94649 1183.5768,-480.94649 L 1347.2486,-480.94649 C 1361.6946,-480.94649 1373.4107,-470.16731 1373.4107,-456.85666 L 1373.4107,-340.16391"
       style="fill:black;fill-rule:nonzero;stroke:none"
       id="path97" />
    <path
       d="M 1295.1457,242.2791 L 1326.0297,242.2791 L 1326.0297,255.94361 L 1326.6347,255.94361 C 1332.9945,247.0154 1341.4791,240.60506 1355.7037,240.60506 C 1369.0282,240.60506 1377.8079,247.85922 1383.2528,254.82758 C 1390.8226,247.0154 1398.9973,240.60506 1415.3468,240.60506 C 1430.7961,240.60506 1448.9606,249.80547 1448.9606,275.17464 L 1448.9606,383.60608 L 1418.0766,383.60608 L 1418.0766,285.76327 C 1418.0766,275.46045 1412.6317,269.0365 1402.9371,269.0365 C 1391.4276,269.0365 1387.5025,276.00485 1387.5025,288.55334 L 1387.5025,383.60608 L 1356.6185,383.60608 L 1356.6185,285.76327 C 1356.6185,275.46045 1351.1589,269.0365 1341.4791,269.0365 C 1329.9695,269.0365 1326.0297,276.00485 1326.0297,288.55334 L 1326.0297,383.60608 L 1295.1457,383.60608 L 1295.1457,242.2791"
       style="fill:white;fill-rule:nonzero;stroke:none"
       id="path99" />
    <path
       d="M 964.95436,342.43561 C 964.95436,351.35021 970.70914,357.76055 980.09385,357.76055 C 989.47856,357.76055 995.23334,351.63602 995.23334,341.8776 L 995.23334,314.39886 C 995.23334,299.07392 990.68854,295.72585 970.70914,295.72585 L 970.70914,270.64248 C 989.18345,270.64248 995.23334,268.12462 995.23334,253.35769 L 995.23334,227.71632 C 995.23334,219.63194 989.47856,213.77961 980.09385,213.77961 C 969.20404,213.77961 964.95436,221.85038 964.95436,227.71632 L 934.0704,227.43051 C 934.0704,204.02118 955.27453,185.33456 980.69884,185.33456 C 997.35818,185.33456 1008.8677,193.14674 1014.3126,199.27127 C 1022.4874,208.19948 1026.1173,215.99805 1026.1173,241.36722 C 1026.1173,268.68263 1024.6122,273.14674 1007.038,282.90516 C 1026.1173,293.77961 1026.1173,299.22363 1026.1173,327.38287 C 1026.1173,353.58226 1024.3023,359.43459 1017.9426,368.07699 C 1010.3728,378.39342 998.56816,386.19199 979.79874,386.19199 C 960.11445,386.19199 934.0704,375.04534 934.0704,343.82384 L 964.95436,342.43561"
       style="fill:white;fill-rule:nonzero;stroke:none"
       id="path101" />
    <path
       d="M 1054.4633,227.02221 C 1054.4633,200.53701 1075.9625,184.38185 1100.4867,184.38185 C 1125.0109,184.38185 1146.5102,200.53701 1146.5102,227.02221 L 1146.5102,343.55164 C 1146.5102,370.02323 1125.0109,386.19199 1100.4867,386.19199 C 1075.9625,386.19199 1054.4633,370.02323 1054.4633,343.55164 L 1054.4633,227.02221 z M 1085.3472,343.55164 C 1085.3472,351.63602 1091.707,357.76055 1100.4867,357.76055 C 1109.2664,357.76055 1115.6262,351.63602 1115.6262,343.55164 L 1115.6262,227.02221 C 1115.6262,218.93782 1109.2664,212.81329 1100.4867,212.81329 C 1091.707,212.81329 1085.3472,218.93782 1085.3472,227.02221 L 1085.3472,343.55164"
       style="fill:white;fill-rule:nonzero;stroke:none"
       id="path103" />
    <path
       d="M 1176.2284,227.02221 C 1176.2284,200.53701 1197.7277,184.38185 1222.2519,184.38185 C 1246.7761,184.38185 1268.2753,200.53701 1268.2753,227.02221 L 1268.2753,343.55164 C 1268.2753,370.02323 1246.7761,386.19199 1222.2519,386.19199 C 1197.7277,386.19199 1176.2284,370.02323 1176.2284,343.55164 L 1176.2284,227.02221 z M 1207.1124,343.55164 C 1207.1124,351.63602 1213.4722,357.76055 1222.2519,357.76055 C 1231.0316,357.76055 1237.3914,351.63602 1237.3914,343.55164 L 1237.3914,227.02221 C 1237.3914,218.93782 1231.0316,212.81329 1222.2519,212.81329 C 1213.4722,212.81329 1207.1124,218.93782 1207.1124,227.02221 L 1207.1124,343.55164"
       style="fill:white;fill-rule:nonzero;stroke:none"
       id="path105" />
  </g>
</svg>
