<?xml version="1.0" encoding="utf-8"?>
<!-- Generator: Adobe Illustrator 15.0.2, SVG Export Plug-In . SVG Version: 6.00 Build 0)  -->
<!DOCTYPE svg PUBLIC "-//W3C//DTD SVG 1.1//EN" "http://www.w3.org/Graphics/SVG/1.1/DTD/svg11.dtd">
<svg version="1.1" id="svg2552" xmlns:svg="http://www.w3.org/2000/svg"
	 xmlns="http://www.w3.org/2000/svg" xmlns:xlink="http://www.w3.org/1999/xlink" x="0px" y="0px" width="960px" height="960px"
	 viewBox="0 0 960 960" enable-background="new 0 0 960 960" xml:space="preserve">
<g id="layer1" transform="translate(738.1553,886.5339)">
	<path id="path2579" fill="#009FE3" d="M-701.52,73.466c-20.227,0-36.635-16.407-36.635-36.636v-886.744
		c0-20.229,16.409-36.621,36.635-36.621h886.73c20.226,0,36.635,16.392,36.635,36.621V36.83c0,20.229-16.409,36.636-36.635,36.636
		H-701.52z"/>
	<path id="path143" fill="#FFFFFF" d="M-701.032-36.337l885.783-0.044l-442.906-767.042L-701.032-36.337"/>
	<path id="path147" d="M-493.68-56.669h33.292v-15.374h-33.292V-56.669z M-27.617-56.669H5.674v-15.374h-33.291V-56.669z
		 M-94.2-56.669h33.292v-15.374H-94.2V-56.669z M-160.782-56.669h33.291v-15.374h-33.291V-56.669z M-227.364-56.669h33.291v-15.374
		h-33.291V-56.669z M-293.933-56.669h33.292v-15.374h-33.292V-56.669z M-360.515-56.669h33.291v-15.374h-33.291V-56.669z
		 M-427.097-56.669h33.291v-15.374h-33.291V-56.669z M-433.03-207.267h30.879v-12.659h-30.879V-207.267z M-62.536-207.267h30.879
		v-12.659h-30.879V-207.267z M-124.28-207.267h30.88v-12.659h-30.88V-207.267z M-186.039-207.267h30.88v-12.659h-30.88V-207.267z
		 M-247.783-207.267h30.88v-12.659h-30.88V-207.267z M-309.527-207.267h30.88v-12.659h-30.88V-207.267z M-371.286-207.267h30.879
		v-12.659h-30.879V-207.267z"/>
	<path id="path145" d="M-113.745-217.226c-36.177-47.938-51.55-96.775-51.55-96.775c-3.418-20.508-10.461-41.017-13.687-49.811
		c4.616,0.044,7.354,0.059,7.354,0.059s-3.004-14.474-14.767-47.937c-11.763-33.479-17.8-58.797-14.189-69.199
		c3.625-10.402,2.131-32.578,2.131-32.578c21.262,0.9,35.407,27.148,35.407,27.148c-0.902,6.33,0.65,52.91,0,57.439
		c-0.637,4.529,4.527,5.43,4.527,5.43s1.376,0.104,3.536,0.251c0.415,5.754,0.873,16.127-0.37,24.168
		c-1.805,11.759-4.068,18.988,3.626,16.273c2.012-0.708,3.255-1.194,3.979-1.549c-0.207,1.549-0.873,5.386-2.634,9.236
		c-2.249,4.987-2.707,7.953,0.903,9.959c3.625,1.992,16.941-2.493,20.817-21.261c3.877-18.753,3.951-23.917,0.784-28.89
		c-2.115-3.319-4.364-4.854-4.823-6.447c2.841,0.162,5.193,0.251,6.511,0.251c5.874,0,2.663-6.403,1.76-15.905
		c-0.902-9.502-1.064-58-1.064-58s4.068,0-9.499-18.089c-13.568-18.089-59.259-58.796-78.257-70.098
		c-6.673-3.984-11.793,0.885-16.734-2.745c-8.597-6.3-18.495-6.344-18.495-6.344l-2.56-3.482c0-0.9,0.917-0.9,1.819-0.9
		c-0.902-5.43-4.527-10.859-3.625-16.289c0.903-5.43,3.625-10.859,3.625-17.189c0-1.8,2.708,0,3.61-0.9
		c1.82-4.515,2.723-11.759-0.902-15.374c-1.805-0.915-5.504,2.921-6.836,1.402c-4.217-4.825-2.204-18.591-10.343-19.491
		c-15.388-0.915-44.847-2.066-47.051-0.915c-2.205,1.166-0.903,32.563-15.374,41.608c-0.902,0.915-3.625,2.715-1.805,3.629
		c3.61,1.8,9.041,0,11.748,2.715c0.918,1.8-1.805,4.515,1.82,6.33c0.902,0.9-0.902,3.615-1.82,4.515
		c-0.902,3.629-1.805,9.044,0.918,11.759c1.805,2.715,8.138-0.9,9.942,2.715c1.806,3.615,2.723,8.145,4.527,11.759
		c0.903,1.815,5.431,1.815,9.041,2.715c1.805,0.9,0.902,2.715,0.902,3.615c-1.806,2.715-5.415,0-6.333,0.915
		c0-0.015-20.685,15.433-34.253,44.839c-13.567,29.391-20.359,43.393-26.233,49.28c-5.889,5.872-42.627,31.544-42.627,31.544
		s-8.331,8.101-5.712,15.109c-11.038,3.747-35.999,13.795-30.687,26.912c6.791,16.731,18.584,13.78,26.691,8.587
		c6.437-4.116,13.509-17.13,16.128-22.279c3.314,1.889,7.058,2.921,11.009,2.391c9.942-1.357,48.397-38.45,48.397-38.45
		s14.012-13.117,27.58-20.347c0,0,10.076,74.229,11.955,85.531c1.479,8.794,2.737,17.293,3.211,20.627
		c-8.818,14.105-29.533,49.295-45.306,92.26c-20.581,56.082-45.395,111.839-51.727,127.213c0,0,2.012,1.181,5.297,3.04
		c-3.729,1.696-9.426,3.216-17.948,3.334c-19.9,0.28-36.191,0.531-36.191,0.531s-4.527,0.325-5.874,3.954
		c-1.361,3.615,1.346,6.729,1.346,6.729l35.451,19.535l22.446,0.87v9.044l26.012,5.519c0,0,3.329,1.21,4.231-3.319
		c0.651-3.231,5.237-18.842,7.813-27.532c5.475,2.228,10.52,3.91,14.411,4.529c0,0,14.811-43.673,20.729-60.67
		c5.903-16.997,23.525-62.22,31.057-78.066c7.546-15.846,31.441-47.687,37.774-56.73c0.089-0.147,0.178-0.295,0.252-0.442
		c20.685,22.309,22.934,37.623,34.534,61.127c11.984,24.242,16.615,29.259,37.434,59.106c20.804,29.849,39.047,59.387,39.047,59.387
		c1.761-0.811,3.462-1.622,5.135-2.449c-3.152,10.417-10.225,31.944-16.335,36.695c-8.153,6.344-12.296,8.247-12.311,10.858
		c0,2.612,1.347,3.763,4.513,3.482s35.732,0.708,35.732,0.708s13.568-13.56,16.275-24.876c0,0,4.928-4.058,7.191-2.7
		c2.249,1.357,1.583,0.03,1.583,0.03l5.711-6.817c0,0,0.415-8.823-2.752-13.338c0,0-2.367-12.939-10.12-22.397
		c9.735-7.568,14.44-13.16,14.44-13.16S-77.554-169.29-113.745-217.226"/>
</g>
</svg>
