<?xml version="1.0" encoding="utf-8"?>
<!-- Generator: Adobe Illustrator 15.0.2, SVG Export Plug-In . SVG Version: 6.00 Build 0)  -->
<!DOCTYPE svg PUBLIC "-//W3C//DTD SVG 1.1//EN" "http://www.w3.org/Graphics/SVG/1.1/DTD/svg11.dtd">
<svg version="1.1" id="Vrstva_1" xmlns="http://www.w3.org/2000/svg" xmlns:xlink="http://www.w3.org/1999/xlink" x="0px" y="0px"
	 width="900px" height="1200px" viewBox="0 0 900 1200" enable-background="new 0 0 900 1200" xml:space="preserve">
<g>
	<path fill-rule="evenodd" clip-rule="evenodd" fill="#009FE3" d="M11.409,1148.091c0,26.47,21.412,47.906,47.907,47.906h785.791
		c26.48,0,47.894-21.437,47.894-47.906V55.439c0-26.494-21.413-47.912-47.894-47.912H59.316c-26.495,0-47.907,21.418-47.907,47.912
		V1148.091z"/>
	<polygon fill-rule="evenodd" clip-rule="evenodd" fill="#FFFFFF" points="672.304,755.424 672.304,125.69 576.071,125.69 
		576.071,391.979 328.748,391.979 328.748,125.69 231.599,125.69 231.599,755.424 328.748,755.424 328.748,471.167 576.071,471.167 
		576.071,755.424 	"/>
	<path fill-rule="evenodd" clip-rule="evenodd" fill="#FFFFFF" d="M721.534,1087.492h101.449v-28.879h-69.186V869.711h-32.264
		V1087.492z M652.988,1038.02l9.356,49.473h34.213l-48.194-217.781h-42.392l-47.616,217.781h33.636l9.008-49.473H652.988z
		 M605.72,1011.575l21.074-116.406l21.569,116.406H605.72z M517.313,897.698h44.835v-27.987H440.204v27.987h44.739v189.794h32.371
		V897.698z M356.29,1087.492h66.584v-23.279h-17.137V892.978h17.137v-23.267H356.29v23.267h17.124v171.235H356.29V1087.492z
		 M336.419,938.162c0-24.254-5.6-41.68-16.546-52.627c-11.2-10.622-27.074-15.824-47.269-15.824h-46.642v217.781h32.274v-77.46
		h14.62c9.719,0,18.39-1.227,26.169-4.045c7.804-2.433,14.368-6.576,19.968-12.429c5.6-5.588,9.874-13.139,13.054-22.136
		C334.818,962.403,336.419,951.203,336.419,938.162z M303.423,938.74c0,9.393-0.64,16.811-1.855,22.784
		c-1.566,5.854-3.492,10.478-5.937,13.969c-2.481,3.422-5.25,5.903-8.755,7.117c-3.419,1.313-7.454,1.952-11.501,1.952h-17.137
		v-89.682h17.137c4.047,0,8.082,0.625,11.501,2.19c3.505,1.494,6.274,4.034,8.755,7.443c2.445,3.407,4.371,8.079,5.937,13.68
		C302.783,923.794,303.423,930.719,303.423,938.74z M131.921,1062.034c-7.793,0-14.946-1.229-21.184-3.421
		c-6.179-2.191-12.404-5.01-18.631-8.43l-10.91,25.471c7.78,4.733,15.571,8.431,23.941,10.946
		c8.418,2.745,17.775,3.951,28.386,3.951c10.223,0,19.618-1.555,27.396-4.913c7.804-3.409,13.982-7.781,19.245-13.633
		c5.009-5.601,8.755-12.465,11.585-20.256c2.42-7.78,3.649-16.499,3.649-25.556c0-10.862-1.555-19.87-4.384-27.36
		c-2.77-7.456-6.467-13.693-10.851-19.052c-4.625-5.204-9.647-9.586-15.247-12.982c-5.587-3.469-11.188-6.237-16.546-9.068
		c-3.999-2.181-8.022-4.371-12.067-6.804c-3.998-2.192-7.502-4.975-10.575-7.804c-3.155-2.771-5.6-6.239-7.441-9.983
		c-1.952-3.746-2.831-8.033-2.831-13.044c0-9.645,2.831-16.798,8.094-22.158c5.25-4.961,11.825-7.393,19.22-7.393
		c7.551,0,14.355,0.926,20.593,3.105c6.225,2.096,12.417,5.274,18.98,8.671l10.223-24.833c-2.131-1.312-4.625-2.828-8.02-4.382
		c-3.409-1.602-7.153-3.156-11.2-4.674c-4.384-1.301-9.009-2.527-13.73-3.492c-4.913-0.843-9.935-1.468-15.245-1.468
		c-6.466,0-13.367,0.866-20.484,2.77c-7.153,2.19-13.73,5.263-19.631,9.935c-5.924,4.733-10.897,10.563-14.692,17.763
		c-3.986,7.407-5.829,16.512-5.829,27.373c0,9.646,1.206,17.427,3.975,24.002c2.577,6.479,5.996,11.825,9.984,16.45
		c4.034,4.636,8.418,8.431,13.679,11.2c4.962,3.179,9.984,5.949,15.332,8.768c4.624,2.433,9.02,5.009,13.295,7.454
		c4.371,2.42,8.128,5.25,11.524,8.768c3.42,3.407,5.95,7.056,8.092,11.776c2.18,4.674,3.108,9.936,3.108,16.463
		c0,12.802-2.771,22.146-8.708,27.409C148.13,1059.204,140.676,1062.034,131.921,1062.034z"/>
	<path fill-rule="evenodd" clip-rule="evenodd" fill="#009FE3" d="M11.409,1148.091c0,26.47,21.412,47.906,47.907,47.906h785.791
		c26.48,0,47.894-21.437,47.894-47.906V55.439c0-26.494-21.413-47.912-47.894-47.912H59.316c-26.495,0-47.907,21.418-47.907,47.912
		V1148.091z"/>
	<polygon fill-rule="evenodd" clip-rule="evenodd" fill="#FFFFFF" points="672.304,755.424 672.304,125.69 576.071,125.69 
		576.071,391.979 328.748,391.979 328.748,125.69 231.599,125.69 231.599,755.424 328.748,755.424 328.748,471.167 576.071,471.167 
		576.071,755.424 	"/>
	<path fill-rule="evenodd" clip-rule="evenodd" fill="#FFFFFF" d="M721.534,1087.492h101.449v-28.879h-69.186V869.711h-32.264
		V1087.492z M652.988,1038.02l9.356,49.473h34.213l-48.194-217.781h-42.392l-47.616,217.781h33.636l9.008-49.473H652.988z
		 M605.72,1011.575l21.074-116.406l21.569,116.406H605.72z M517.313,897.698h44.835v-27.987H440.204v27.987h44.739v189.794h32.371
		V897.698z M356.29,1087.492h66.584v-23.279h-17.137V892.978h17.137v-23.267H356.29v23.267h17.124v171.235H356.29V1087.492z
		 M336.419,938.162c0-24.254-5.6-41.68-16.546-52.627c-11.2-10.622-27.074-15.824-47.269-15.824h-46.642v217.781h32.274v-77.46
		h14.62c9.719,0,18.39-1.227,26.169-4.045c7.804-2.433,14.368-6.576,19.968-12.429c5.6-5.588,9.874-13.139,13.054-22.136
		C334.818,962.403,336.419,951.203,336.419,938.162z M303.423,938.74c0,9.393-0.64,16.811-1.855,22.784
		c-1.566,5.854-3.492,10.478-5.937,13.969c-2.481,3.422-5.25,5.903-8.755,7.117c-3.419,1.313-7.454,1.952-11.501,1.952h-17.137
		v-89.682h17.137c4.047,0,8.082,0.625,11.501,2.19c3.505,1.494,6.274,4.034,8.755,7.443c2.445,3.407,4.371,8.079,5.937,13.68
		C302.783,923.794,303.423,930.719,303.423,938.74z M131.921,1062.034c-7.793,0-14.946-1.229-21.184-3.421
		c-6.179-2.191-12.404-5.01-18.631-8.43l-10.91,25.471c7.78,4.733,15.571,8.431,23.941,10.946
		c8.418,2.745,17.775,3.951,28.386,3.951c10.223,0,19.618-1.555,27.396-4.913c7.804-3.409,13.982-7.781,19.245-13.633
		c5.009-5.601,8.755-12.465,11.585-20.256c2.42-7.78,3.649-16.499,3.649-25.556c0-10.862-1.555-19.87-4.384-27.36
		c-2.77-7.456-6.467-13.693-10.851-19.052c-4.625-5.204-9.647-9.586-15.247-12.982c-5.587-3.469-11.188-6.237-16.546-9.068
		c-3.999-2.181-8.022-4.371-12.067-6.804c-3.998-2.192-7.502-4.975-10.575-7.804c-3.155-2.771-5.6-6.239-7.441-9.983
		c-1.952-3.746-2.831-8.033-2.831-13.044c0-9.645,2.831-16.798,8.094-22.158c5.25-4.961,11.825-7.393,19.22-7.393
		c7.551,0,14.355,0.926,20.593,3.105c6.225,2.096,12.417,5.274,18.98,8.671l10.223-24.833c-2.131-1.312-4.625-2.828-8.02-4.382
		c-3.409-1.602-7.153-3.156-11.2-4.674c-4.384-1.301-9.009-2.527-13.73-3.492c-4.913-0.843-9.935-1.468-15.245-1.468
		c-6.466,0-13.367,0.866-20.484,2.77c-7.153,2.19-13.73,5.263-19.631,9.935c-5.924,4.733-10.897,10.563-14.692,17.763
		c-3.986,7.407-5.829,16.512-5.829,27.373c0,9.646,1.206,17.427,3.975,24.002c2.577,6.479,5.996,11.825,9.984,16.45
		c4.034,4.636,8.418,8.431,13.679,11.2c4.962,3.179,9.984,5.949,15.332,8.768c4.624,2.433,9.02,5.009,13.295,7.454
		c4.371,2.42,8.128,5.25,11.524,8.768c3.42,3.407,5.95,7.056,8.092,11.776c2.18,4.674,3.108,9.936,3.108,16.463
		c0,12.802-2.771,22.146-8.708,27.409C148.13,1059.204,140.676,1062.034,131.921,1062.034z"/>
</g>
</svg>
