<?xml version="1.0" encoding="utf-8"?>
<!-- Generator: Adobe Illustrator 15.0.2, SVG Export Plug-In . SVG Version: 6.00 Build 0)  -->
<!DOCTYPE svg PUBLIC "-//W3C//DTD SVG 1.1//EN" "http://www.w3.org/Graphics/SVG/1.1/DTD/svg11.dtd">
<svg version="1.1" id="Vrstva_1" xmlns="http://www.w3.org/2000/svg" xmlns:xlink="http://www.w3.org/1999/xlink" x="0px" y="0px"
	 width="1500px" height="1000px" viewBox="0 0 1500 1000" enable-background="new 0 0 1500 1000" xml:space="preserve">
<g>
	<path fill-rule="evenodd" clip-rule="evenodd" fill="#009FE3" d="M7,961.152V39.105C7,26.367,17.258,16,30.076,16h1438.141
		c12.733,0,23.16,10.367,23.16,23.105v922.047c0,12.76-10.427,23.127-23.16,23.127H30.076C17.258,984.279,7,973.912,7,961.152"/>
	<rect x="53.842" y="62.804" fill-rule="evenodd" clip-rule="evenodd" fill="#FFFFFF" width="1390.701" height="874.65"/>
	<polygon fill-rule="evenodd" clip-rule="evenodd" fill="#E30613" points="976.942,440.452 1444.821,148.255 1444.896,62.336 
		1317.484,62.336 494.662,575.521 54.145,850.55 54.145,936.46 181.734,936.46 	"/>
	<path fill-rule="evenodd" clip-rule="evenodd" d="M1259.399,607.582l84.479-141.995v-38.083h-121.72v35.186h78.264l-84.875,145.739
		v34.34h125.434v-35.187H1259.399z M1136.854,642.769h40.584V491.261c0-24.023-4.572-41.427-14.081-52.189
		c-9.5-10.342-23.177-15.715-41.376-15.715c-9.946,0-19.454,2.047-28.179,6.616c-8.691,4.556-16.153,12.013-22.368,21.955
		l-6.603-24.423h-28.163v215.265h40.576V500.782c0-8.295,1.246-15.307,3.302-21.126c2.097-5.798,4.994-10.342,8.716-14.069
		c3.748-3.343,7.437-5.794,11.589-7.44c4.118-1.25,8.262-2.097,12.405-2.097c7.065,0,12.835,2.501,17.382,7.445
		c4.145,5.398,6.216,15.332,6.216,29.821V642.769z M888.488,548.807h102.628v-23.598c0-16.157-1.196-30.647-3.293-43.486
		c-2.477-12.831-6.216-23.577-11.589-32.293c-5.39-8.687-12.834-14.902-21.551-19.458c-8.666-4.569-19.851-6.616-32.686-6.616
		c-25.678,0-44.272,9.117-56.291,27.32c-12.009,18.637-17.803,48.038-17.803,88.592c0,22.381,2.476,40.585,7.04,54.641
		c4.548,14.119,10.316,24.882,17.787,32.723c7.437,7.875,16.152,13.261,25.661,16.137c9.542,2.871,19.463,4.118,29.821,4.118
		c11.605,0,22.781-1.646,33.105-4.914c10.367-3.327,19.033-6.624,25.257-10.367l-12.018-30.226
		c-15.724,7.849-30.191,11.592-43.852,11.592c-5.812,0-11.21-0.399-16.153-1.646c-4.969-0.846-9.112-3.297-12.86-7.865
		c-3.697-4.148-7.015-10.343-9.112-19.059C890.131,575.706,888.884,564.143,888.488,548.807z M921.173,456.049
		c5.795,0,10.738,0.847,14.485,2.897c3.715,2.097,7.016,5.39,9.517,9.946c2.493,4.569,4.565,11.184,5.82,19.479
		c1.237,8.658,1.642,19.024,2.038,31.868h-64.149c0.396-14.086,1.651-25.253,3.697-33.969c1.701-8.67,3.739-14.915,6.646-19.458
		c2.922-4.569,6.215-7.416,9.929-8.666C912.911,456.896,916.601,456.049,921.173,456.049z M761.379,608.429v33.114
		c0,16.106-2.923,26.878-8.32,33.098c-5.77,6.215-15.286,9.116-28.491,9.116c-6.224,0-12.86-0.854-20.726-2.097
		c-7.84-1.251-16.557-3.701-26.074-7.02l-9.938,32.289c7.866,2.896,16.953,5.794,27.716,8.716
		c10.788,2.447,21.551,3.702,31.918,3.702c26.04,0,44.677-6.624,56.662-19.863c11.605-13.686,17.383-34.391,17.383-62.936V427.504
		h-27.716l-4.978,15.732c-3.748-5.416-9.112-10.367-15.312-14.085c-6.644-3.748-14.477-5.794-23.167-5.794
		c-11.159,0-21.526,2.047-30.192,5.794c-8.716,4.123-16.161,10.342-22.376,19.037c-6.19,8.708-11.192,19.875-14.511,33.536
		c-3.293,13.66-4.943,30.222-4.943,49.684c0,18.625,1.255,34.382,4.152,46.8c2.897,12.818,6.611,22.751,12.009,30.617
		c5.365,7.87,11.555,13.265,19.025,16.565c7.049,3.318,15.311,4.969,24.027,4.969c11.159,0,19.85-2.055,26.865-6.219
		C751.407,619.987,756.806,614.644,761.379,608.429z M729.932,596.811c-11.588,0-19.479-4.943-23.598-15.307
		c-4.547-9.916-6.645-25.277-6.645-45.962c0-27.319,2.501-47.17,7.866-60.034c5.398-12.414,15.361-18.612,30.217-18.612
		c4.177,0,8.271,0.8,12.439,2.501c3.697,1.646,7.419,3.697,11.167,6.19v97.709c0,8.696-2.923,16.558-8.32,23.173
		C747.719,593.514,739.87,596.811,729.932,596.811z M518.395,548.807h102.644v-23.598c0-16.157-1.204-30.647-3.31-43.486
		c-2.459-12.831-6.215-23.577-11.58-32.293c-5.398-8.687-12.843-14.902-21.551-19.458c-8.666-4.569-19.85-6.616-32.693-6.616
		c-25.661,0-44.273,9.117-56.291,27.32c-12.001,18.637-17.795,48.038-17.795,88.592c0,22.381,2.493,40.585,7.032,54.641
		c4.548,14.119,10.316,24.882,17.787,32.723c7.445,7.875,16.162,13.261,25.669,16.137c9.542,2.871,19.463,4.118,29.813,4.118
		c11.622,0,22.781-1.646,33.114-4.914c10.376-3.327,19.042-6.624,25.257-10.367l-12.018-30.226
		c-15.724,7.849-30.192,11.592-43.852,11.592c-5.794,0-11.209-0.399-16.162-1.646c-4.969-0.846-9.104-3.297-12.852-7.865
		c-3.697-4.148-7.023-10.343-9.121-19.059C520.037,575.706,518.799,564.143,518.395,548.807z M551.087,456.049
		c5.794,0,10.763,0.847,14.477,2.897c3.731,2.097,7.024,5.39,9.525,9.946c2.484,4.569,4.564,11.184,5.811,19.479
		c1.247,8.658,1.643,19.024,2.055,31.868h-64.157c0.396-14.086,1.65-25.253,3.688-33.969c1.701-8.67,3.756-14.915,6.67-19.458
		c2.897-4.569,6.198-7.416,9.913-8.666C542.817,456.896,546.515,456.049,551.087,456.049z M423.153,462.244
		c2.897,0,6.619,0.446,10.333,0.851c3.748,0.846,8.295,2.493,13.239,4.548l8.717-39.317c-4.144-1.251-7.866-2.493-11.614-3.718
		c-3.697-0.851-8.27-1.251-13.66-1.251c-12.009,0-21.105,3.718-27.716,10.763c-7.049,7.445-12.414,16.557-16.162,26.924
		l-6.611-33.54H351.5v215.265h40.584V521.065c0-16.991,2.493-31.047,7.041-42.239C403.698,467.642,411.969,462.244,423.153,462.244z
		 M306.806,558.332c0-13.673-1.651-25.253-5.39-33.97c-3.697-8.67-8.27-15.311-13.66-20.288
		c-5.373-4.939-10.763-8.691-16.557-11.154c-6.215-2.105-11.167-3.752-15.336-5.007c4.169-1.196,8.708-3.293,13.686-6.586
		c4.548-2.922,9.095-7.074,13.23-12.435c4.177-4.952,7.47-11.197,10.367-18.216c2.476-7.036,3.723-15.307,3.723-24.419
		c0-14.085-2.072-25.674-5.82-35.194c-4.093-9.542-9.508-16.982-16.557-22.751c-7.015-5.398-15.302-9.567-24.819-12.014
		c-9.517-2.097-19.454-3.343-30.217-3.343h-64.603v289.814h69.993c10.763,0,21.096-1.226,31.017-3.719
		c9.517-2.055,18.233-6.599,26.099-12.817c7.445-6.245,13.66-14.907,18.208-26.096C304.709,589.366,306.806,575.31,306.806,558.332z
		 M263.333,559.148c0,10.342-1.247,19.059-3.301,25.253c-2.493,6.215-5.39,11.167-8.717,14.511
		c-3.697,3.718-7.436,5.772-11.613,7.02c-4.548,1.242-8.262,1.65-11.959,1.65H197.93v-99.756h29.813
		c4.952,0,9.517,0.821,14.064,2.072c4.135,1.65,7.866,4.543,11.159,8.244c2.897,3.739,5.39,9.112,7.47,15.758
		C262.482,540.523,263.333,548.807,263.333,559.148z M254.642,429.15c0,9.921-0.825,17.782-2.922,23.581
		c-2.046,6.215-4.943,10.363-7.84,13.264c-3.318,2.897-6.62,4.964-9.946,5.811c-3.714,0.804-6.636,1.25-9.087,1.25H197.93v-85.738
		h25.265c9.5,0,17.366,2.922,23.177,9.117C251.719,402.651,254.642,413.414,254.642,429.15z"/>
</g>
</svg>
