<?xml version="1.0" encoding="UTF-8" standalone="no"?>
<!-- Created with Inkscape (http://www.inkscape.org/) -->
<svg
   xmlns:dc="http://purl.org/dc/elements/1.1/"
   xmlns:cc="http://web.resource.org/cc/"
   xmlns:rdf="http://www.w3.org/1999/02/22-rdf-syntax-ns#"
   xmlns:svg="http://www.w3.org/2000/svg"
   xmlns="http://www.w3.org/2000/svg"
   xmlns:sodipodi="http://sodipodi.sourceforge.net/DTD/sodipodi-0.dtd"
   xmlns:inkscape="http://www.inkscape.org/namespaces/inkscape"
   version="1.0"
   width="2500"
   height="2500"
   id="svg22325"
   sodipodi:version="0.32"
   inkscape:version="0.44"
   sodipodi:docname="Hinweiszeichen_15a-b.svg"
   sodipodi:docbase="F:\Diverses\Wikipedia\AT-StVZVO">
  <metadata
     id="metadata22506">
    <rdf:RDF>
      <cc:Work
         rdf:about="">
        <dc:format>image/svg+xml</dc:format>
        <dc:type
           rdf:resource="http://purl.org/dc/dcmitype/StillImage" />
      </cc:Work>
    </rdf:RDF>
  </metadata>
  <sodipodi:namedview
     inkscape:window-height="480"
     inkscape:window-width="640"
     inkscape:pageshadow="2"
     inkscape:pageopacity="0.0"
     guidetolerance="10.0"
     gridtolerance="10.0"
     objecttolerance="10.0"
     borderopacity="1.0"
     bordercolor="#666666"
     pagecolor="#ffffff"
     id="base"
     inkscape:zoom="0.30880001"
     inkscape:cx="1250"
     inkscape:cy="1229.3717"
     inkscape:current-layer="svg22325" />
  <defs
     id="defs22327" />
  <path
     style="opacity:1;fill:white;fill-opacity:1;fill-rule:evenodd;stroke:none;stroke-width:0.25;stroke-linejoin:round;stroke-miterlimit:4;stroke-dasharray:none;stroke-opacity:1"
     d="M 13.25 802.0625 L 13.25 1462.6875 L 13.25 2033.0625 L 13.25 2405.4688 C 13.25 2450.3197 52.24838 2486.4375 100.6875 2486.4375 L 2392.6563 2486.4375 C 2441.0953 2486.4375 2480.0938 2450.3198 2480.0938 2405.4688 L 2480.0938 2033.0625 L 2480.0938 1462.6875 L 2480.0938 802.0625 L 13.25 802.0625 z "
     id="rect22554" />
  <path
     id="path21057"
     style="fill:#176fc1;fill-rule:nonzero;stroke:none"
     d="M 2484.7532,812.2766 L 2484.7532,101.3058 C 2484.7532,53.777 2445.9007,15.2471 2397.9675,15.2471 L 102.03252,15.2471 C 54.099366,15.2471 15.246778,53.777 15.246778,101.3058 L 15.246778,812.2766 L 2484.7532,812.2766" />
  <path
     id="path21059"
     style="fill:white;fill-rule:nonzero;stroke:none"
     d="M 784.80962,90.3851 L 784.80962,228.4247 L 668.82322,228.4247 L 668.82322,90.3851 L 622.4205,90.3851 L 622.4205,412.4978 L 668.82322,412.4978 L 668.82322,274.4371 L 784.80962,274.4371 L 784.80962,412.4978 L 831.21234,412.4978 L 831.21234,90.3851 L 784.80962,90.3851" />
  <path
     id="path21061"
     style="fill:black;fill-rule:nonzero;stroke:none"
     d="M 369.55218,1557.4098 L 407.16002,1557.3887 L 334.88278,1306.4098 L 298.72376,1306.4098 L 226.44651,1557.4288 L 264.05435,1557.4098 L 274.37967,1521.5705 L 359.24727,1521.5705 L 369.55218,1557.4098 z M 284.70499,1485.71 L 316.80326,1374.2068 L 348.92195,1485.71 L 284.70499,1485.71" />
  <path
     id="path21063"
     style="fill:black;fill-rule:nonzero;stroke:none"
     d="M 364.6548,1782.0763 C 379.67345,1768.9296 389.16213,1749.7153 389.16213,1728.275 C 389.16213,1688.6743 356.77817,1656.5562 316.84408,1656.5562 L 226.44651,1656.5562 L 226.44651,1907.5964 L 316.84408,1907.5964 C 356.77817,1907.5964 389.16213,1875.4782 389.16213,1835.8754 C 389.16213,1814.4373 379.67345,1795.223 364.6548,1782.0763 z M 316.84408,1871.7359 L 262.60554,1871.7359 L 262.60554,1800.015 L 316.84408,1800.015 C 336.82132,1800.015 353.0031,1816.055 353.0031,1835.8754 C 353.0031,1855.6768 336.82132,1871.7359 316.84408,1871.7359 z M 316.84408,1764.1355 L 262.60554,1764.1355 L 262.60554,1692.4146 L 316.84408,1692.4146 C 336.82132,1692.4146 353.0031,1708.4736 353.0031,1728.275 C 353.0031,1748.0975 336.82132,1764.1355 316.84408,1764.1355" />
  <path
     id="path21065"
     style="fill:black;fill-rule:nonzero;stroke:none"
     d="M 407.24165,2257.7618 L 321.33335,2108.3749 L 398.18148,2006.7428 L 353.0031,2006.7005 L 262.60554,2126.2544 L 262.60554,2006.7216 L 226.44651,2006.7216 L 226.44651,2257.7618 L 262.60554,2257.7618 L 262.60554,2186.0409 L 297.68306,2139.644 L 365.61387,2257.7618 L 407.24165,2257.7618" />
  <path
     id="path21067"
     style="fill:black;fill-rule:nonzero;stroke:none"
     d="M 392.77395,1207.2634 L 336.86214,1112.1022 C 367.20552,1100.3916 388.7132,1071.1457 388.7132,1036.9241 C 388.7132,992.3456 352.2889,956.2232 307.3554,956.2232 C 290.82672,956.2232 226.44651,956.2232 226.44651,956.2232 L 226.44651,1207.2634 L 262.60554,1207.2634 L 262.60554,1117.0167 C 262.60554,1117.0167 282.11346,1117.4221 298.19321,1117.5636 L 350.92171,1207.2634 L 392.77395,1207.2634 z M 262.60554,992.0837 C 262.60554,992.0837 291.8062,992.0837 307.3554,992.0837 C 332.31165,992.0837 352.55418,1012.1681 352.55418,1036.9241 C 352.55418,1061.68 332.31165,1081.7433 307.3554,1081.7433 C 284.54175,1081.7433 262.60554,1081.7433 262.60554,1081.7433 L 262.60554,992.0837" />
  <path
     id="path21069"
     style="fill:black;fill-rule:nonzero;stroke:none"
     d="M 1032.7194,1656.5562 L 1032.7194,1764.1355 L 942.32177,1764.1355 L 942.32177,1656.5562 L 906.16274,1656.5562 L 906.16274,1907.5964 L 942.32177,1907.5964 L 942.32177,1800.015 L 1032.7194,1800.015 L 1032.7194,1907.5964 L 1068.8784,1907.5964 L 1068.8784,1656.5562 L 1032.7194,1656.5562" />
  <path
     id="path21071"
     style="fill:white;fill-rule:nonzero;stroke:none"
     d="M 906.7137,493.4817 C 866.7796,493.4817 834.39565,525.5998 834.39565,565.2005 L 834.39565,679.9624 C 834.39565,719.5842 866.7796,751.6813 906.7137,751.6813 C 946.64779,751.6813 979.03175,719.5842 979.03175,679.9624 L 979.03175,565.2005 C 979.03175,525.5998 946.64779,493.4817 906.7137,493.4817 z M 942.87272,679.9624 L 942.87272,679.9624 C 942.87272,699.7829 926.69095,715.8208 906.7137,715.8208 C 886.73645,715.8208 870.55467,699.7829 870.55467,679.9624 L 870.55467,565.2005 C 870.55467,545.4012 886.73645,529.3421 906.7137,529.3421 C 926.69095,529.3421 942.87272,545.4012 942.87272,565.2005 L 942.87272,679.9624" />
  <path
     id="path21073"
     style="fill:white;fill-rule:nonzero;stroke:none"
     d="M 808.90884,655.8316 C 808.90884,616.2309 776.52488,584.1128 736.59078,584.1128 C 723.40866,584.1128 711.26722,587.6925 700.43176,597.3186 L 700.43176,530.3115 L 801.66479,530.3115 L 801.66479,494.4532 L 664.27273,494.4532 L 664.27273,637.9119 L 700.43176,637.9119 C 706.67593,627.2129 723.2046,619.9732 736.59078,619.9732 C 756.54763,619.9732 772.74982,636.0323 772.74982,655.8316 L 772.74982,677.3521 C 772.74982,697.1535 756.54763,713.2126 736.59078,713.2126 C 717.85829,713.2126 702.26828,699.0141 700.43176,680.9318 L 664.27273,680.9318 C 666.06845,718.976 697.79942,749.073 736.59078,749.073 C 776.52488,749.073 808.90884,716.9739 808.90884,677.3521 L 808.90884,655.8316" />
  <path
     id="path21075"
     style="fill:black;fill-rule:nonzero;stroke:none"
     d="M 2075.6379,2074.7002 C 2035.6834,2074.7002 2003.3198,2106.8184 2003.3198,2146.4191 L 2003.3198,2189.4601 C 2003.3198,2229.0608 2035.6834,2261.1789 2075.6379,2261.1789 C 2106.6752,2261.1789 2133.1414,2241.783 2143.4055,2214.5392 L 2101.4921,2214.5202 C 2094.9418,2221.1727 2085.7592,2225.3205 2075.6379,2225.3205 C 2055.6607,2225.3205 2039.4789,2209.2615 2039.4789,2189.4601 L 2039.4789,2185.8804 L 2147.9356,2185.8804 L 2147.9356,2146.4191 C 2147.9356,2106.8184 2115.572,2074.7002 2075.6379,2074.7002 z M 2111.7969,2150.0199 L 2039.4789,2150.0199 L 2039.4789,2146.4191 C 2039.4789,2126.6198 2055.6607,2110.5607 2075.6379,2110.5607 C 2095.5948,2110.5607 2111.7969,2126.6198 2111.7969,2146.4191 L 2111.7969,2150.0199" />
  <path
     id="path21077"
     style="fill:black;fill-rule:nonzero;stroke:none"
     d="M 1177.6819,1724.6953 C 1145.3388,1724.6953 1117.7094,1745.8505 1108.486,1774.8957 L 1148.767,1774.8957 C 1155.358,1766.2791 1165.9282,1760.5558 1177.6819,1760.5558 C 1197.6592,1760.5558 1213.841,1776.6148 1213.841,1796.4162 C 1205.5562,1801.5334 1159.6025,1800.015 1159.6025,1800.015 C 1127.647,1800.015 1101.7521,1822.1015 1101.7521,1853.7951 C 1101.7521,1885.4888 1127.647,1911.1761 1159.6025,1911.1761 C 1159.6025,1911.1761 1195.4554,1914.9987 1213.841,1895.1571 L 1213.841,1907.5964 L 1250,1907.5964 L 1250,1796.4162 C 1250,1756.8134 1217.616,1724.6953 1177.6819,1724.6953 z M 1213.841,1853.7951 C 1206.2908,1882.4138 1159.6025,1875.3156 1159.6025,1875.3156 C 1149.624,1875.3156 1137.9112,1866.3758 1137.9112,1853.7951 C 1137.9112,1841.7001 1149.624,1832.2746 1159.6025,1832.2746 C 1159.6025,1832.2746 1209.9027,1833.6516 1213.841,1825.1152 L 1213.841,1853.7951" />
  <path
     id="path21079"
     style="fill:black;fill-rule:nonzero;stroke:none"
     d="M 1641.199,2074.8607 C 1628.6495,2074.8607 1616.0999,2079.6147 1605.04,2087.4626 L 1605.04,2078.4405 L 1568.881,2078.4405 L 1568.881,2257.7618 L 1605.04,2257.7618 L 1605.04,2146.5817 C 1605.04,2126.7803 1621.2422,2110.7212 1641.199,2110.7212 C 1661.1763,2110.7212 1677.3581,2126.7803 1677.3581,2146.5817 L 1677.3581,2257.7618 L 1713.5171,2257.7618 L 1713.5171,2146.5817 C 1713.5171,2106.9789 1681.1536,2074.8607 1641.199,2074.8607" />
  <path
     id="path21081"
     style="fill:black;fill-rule:nonzero;stroke:none"
     d="M 612.1564,2075.3866 C 572.2019,2075.3866 539.83834,2107.5048 539.83834,2147.1076 L 539.83834,2190.1486 C 539.83834,2229.7704 572.2019,2261.8674 612.1564,2261.8674 C 643.19358,2261.8674 669.65986,2242.4715 679.92396,2215.2277 L 638.0105,2215.2065 C 631.46025,2221.8823 622.27766,2226.0069 612.1564,2226.0069 C 592.17914,2226.0069 575.99737,2209.9478 575.99737,2190.1486 L 575.99737,2186.5667 L 684.47445,2186.5667 L 684.47445,2147.1076 C 684.47445,2107.5048 652.09049,2075.3866 612.1564,2075.3866 z M 648.31542,2150.7084 L 575.99737,2150.7084 L 575.99737,2147.1076 C 575.99737,2127.3062 592.17914,2111.2471 612.1564,2111.2471 C 632.11324,2111.2471 648.31542,2127.3062 648.31542,2147.1076 L 648.31542,2150.7084" />
  <path
     id="path21083"
     style="fill:black;fill-rule:nonzero;stroke:none"
     d="M 1771.6327,2215.065 C 1777.8565,2221.5571 1789.6307,2225.8253 1803.078,2225.8253 C 1823.0553,2225.8253 1839.237,2216.1991 1839.237,2204.3048 C 1839.237,2192.4337 1823.0553,2182.8054 1803.078,2182.8054 C 1765.1437,2182.8054 1734.3922,2158.7168 1734.3922,2129.0063 C 1734.3922,2099.2936 1765.1437,2075.205 1803.078,2075.205 C 1837.7882,2075.205 1866.4787,2095.6526 1871.1312,2121.8257 L 1832.8909,2121.7856 C 1827.8506,2115.4752 1816.403,2111.0655 1803.078,2111.0655 C 1785.121,2111.0655 1770.5512,2119.095 1770.5512,2129.0063 C 1770.5512,2138.8964 1785.121,2146.9259 1803.078,2146.9259 C 1843.0325,2146.9259 1875.3961,2172.6323 1875.3961,2204.3048 C 1875.3961,2235.9984 1843.0325,2261.6858 1803.078,2261.6858 C 1767.6128,2261.6858 1737.9224,2241.8231 1731.7599,2215.065 L 1771.6327,2215.065" />
  <path
     id="path21085"
     style="fill:black;fill-rule:nonzero;stroke:none"
     d="M 493.98658,1724.6953 C 461.62302,1724.6953 434.01401,1745.8505 424.7702,1774.8957 L 465.05119,1774.8957 C 471.66266,1766.2791 482.21245,1760.5558 493.98658,1760.5558 C 513.94342,1760.5558 530.1456,1776.6148 530.1456,1796.4162 C 521.84045,1801.5334 475.90706,1800.015 475.90706,1800.015 C 443.95162,1800.015 418.0567,1822.1015 418.0567,1853.7951 C 418.0567,1885.4888 443.95162,1911.1761 475.90706,1911.1761 C 475.90706,1911.1761 511.7396,1914.9987 530.1456,1895.1571 L 530.1456,1907.5964 L 566.30462,1907.5964 L 566.30462,1796.4162 C 566.30462,1756.8134 533.92067,1724.6953 493.98658,1724.6953 z M 530.1456,1853.7951 C 522.59547,1882.4138 475.90706,1875.3156 475.90706,1875.3156 C 465.90823,1875.3156 454.21572,1866.3758 454.21572,1853.7951 C 454.21572,1841.7001 465.90823,1832.2746 475.90706,1832.2746 C 475.90706,1832.2746 526.20729,1833.6516 530.1456,1825.1152 L 530.1456,1853.7951" />
  <path
     id="path21087"
     style="fill:black;fill-rule:nonzero;stroke:none"
     d="M 600.23942,1839.4551 L 600.23942,1839.4551 C 600.23942,1879.0579 632.62338,1911.1761 672.55748,1911.1761 C 685.73961,1911.1761 698.08509,1907.6555 708.7165,1901.5478 L 708.7165,1907.5964 L 744.87553,1907.5964 L 744.87553,1656.5562 L 708.7165,1656.5562 L 708.7165,1734.3236 C 698.08509,1728.2138 685.73961,1724.6953 672.55748,1724.6953 C 632.62338,1724.6953 600.23942,1756.8134 600.23942,1796.4162 L 600.23942,1839.4551 z M 636.39845,1796.4162 C 636.39845,1776.6148 652.60064,1760.5558 672.55748,1760.5558 C 692.53472,1760.5558 708.7165,1776.6148 708.7165,1796.4162 L 708.7165,1839.4551 C 708.7165,1859.2565 692.53472,1875.3156 672.55748,1875.3156 C 652.60064,1875.3156 636.39845,1859.2565 636.39845,1839.4551 L 636.39845,1796.4162" />
  <path
     id="path21089"
     style="fill:black;fill-rule:nonzero;stroke:none"
     d="M 925.60944,1374.5299 C 913.05989,1374.5299 900.48994,1379.2817 889.45042,1387.1296 L 889.45042,1378.1096 L 853.29139,1378.1096 L 853.29139,1557.4288 L 889.45042,1557.4288 L 889.45042,1446.2487 C 889.45042,1426.4494 905.6526,1410.3903 925.60944,1410.3903 C 945.58669,1410.3903 961.76846,1426.4494 961.76846,1446.2487 L 961.76846,1557.4288 L 997.9275,1557.4288 L 997.9275,1446.2487 C 997.9275,1406.648 965.54353,1374.5299 925.60944,1374.5299" />
  <path
     id="path21091"
     style="fill:black;fill-rule:nonzero;stroke:none"
     d="M 2281.5322,2080.7467 C 2270.9824,2074.7805 2258.4125,2074.8607 2245.3732,2074.8607 C 2232.8236,2074.8607 2220.274,2079.6147 2209.2346,2087.4626 L 2209.2346,2078.4405 L 2173.0755,2078.4405 L 2173.0755,2257.7618 L 2209.2346,2257.7618 L 2209.2346,2146.5817 C 2209.2346,2126.7803 2225.4163,2110.7212 2245.3732,2110.7212 C 2265.3504,2110.7212 2281.5322,2116.1826 2281.5322,2116.1826 L 2281.5322,2080.7467" />
  <path
     id="path21093"
     style="fill:black;fill-rule:nonzero;stroke:none"
     d="M 1473.6064,2261.3415 C 1486.1764,2261.3415 1498.726,2256.5897 1509.7654,2248.7418 L 1509.7654,2257.7618 L 1545.9245,2257.7618 L 1545.9245,2078.4405 L 1509.7654,2078.4405 L 1509.7654,2189.6227 C 1509.7654,2209.422 1493.5837,2225.481 1473.6064,2225.481 C 1453.6496,2225.481 1437.4474,2209.422 1437.4474,2189.6227 L 1437.4474,2078.4616 L 1401.2884,2078.4616 L 1401.2884,2189.6227 C 1401.3088,2229.2445 1433.6724,2261.3415 1473.6064,2261.3415" />
  <path
     id="path21095"
     style="fill:black;fill-rule:nonzero;stroke:none"
     d="M 1311.6662,2074.8607 C 1290.0565,2074.8607 1270.6915,2084.2673 1257.4277,2099.1732 C 1244.1844,2084.2673 1224.7988,2074.8607 1203.1891,2074.8607 C 1190.6396,2074.8607 1178.0901,2079.6147 1167.0301,2087.4626 L 1167.0301,2078.4405 L 1130.8711,2078.4405 L 1130.8711,2257.7618 L 1167.0301,2257.7618 L 1167.0301,2146.5817 C 1167.0301,2126.7803 1183.2323,2110.7212 1203.1891,2110.7212 C 1223.1664,2110.7212 1239.3482,2126.7803 1239.3482,2146.5817 L 1239.3482,2257.7618 L 1275.5072,2257.7618 L 1275.5072,2146.5817 C 1275.5072,2126.7803 1291.689,2110.7212 1311.6662,2110.7212 C 1331.6435,2110.7212 1347.8253,2126.7803 1347.8253,2146.5817 L 1347.8253,2257.7618 L 1383.9843,2257.7618 L 1383.9843,2146.5817 C 1383.9843,2106.9789 1351.6003,2074.8607 1311.6662,2074.8607" />
  <path
     id="path21097"
     style="fill:black;fill-rule:nonzero;stroke:none"
     d="M 750.4259,1374.57 C 710.4714,1374.57 678.10785,1406.6881 678.10785,1446.3099 L 678.10785,1489.3298 C 678.10785,1528.9516 710.4714,1561.0508 750.4259,1561.0508 C 781.46308,1561.0508 807.92936,1541.6528 818.19346,1514.4089 L 776.28001,1514.3899 C 769.72975,1521.0636 760.54716,1525.1903 750.4259,1525.1903 C 730.44865,1525.1903 714.26687,1509.1502 714.26687,1489.3298 L 714.26687,1485.7501 L 822.74396,1485.7501 L 822.74396,1446.3099 C 822.74396,1406.6881 790.35999,1374.57 750.4259,1374.57 z M 786.58492,1449.8897 L 714.26687,1449.8897 L 714.26687,1446.3099 C 714.26687,1426.4895 730.44865,1410.4495 750.4259,1410.4495 C 770.38274,1410.4495 786.58492,1426.4895 786.58492,1446.3099 L 786.58492,1449.8897" />
  <path
     id="path21099"
     style="fill:black;fill-rule:nonzero;stroke:none"
     d="M 427.2597,1342.2491 L 463.41873,1342.2491 L 463.41873,1306.3886 L 427.2597,1306.3886 L 427.2597,1342.2491 z " />
  <path
     id="path21101"
     style="fill:black;fill-rule:nonzero;stroke:none"
     d="M 427.2597,1557.4288 L 463.41873,1557.4288 L 463.41873,1378.1286 L 427.2597,1378.1286 L 427.2597,1557.4288 z " />
  <path
     id="path21103"
     style="fill:black;fill-rule:nonzero;stroke:none"
     d="M 1418.3681,1871.776 L 1418.3681,1871.776 C 1414.3889,1871.776 1411.1444,1868.5807 1411.1444,1864.6166 L 1411.1444,1656.6153 L 1374.9853,1656.6153 L 1374.9853,1864.6166 L 1375.0465,1864.6166 C 1375.0465,1888.361 1394.4525,1907.5964 1418.3681,1907.5964 L 1429.2239,1907.5964 L 1429.2239,1871.776 L 1418.3681,1871.776" />
  <path
     id="path21105"
     style="fill:black;fill-rule:nonzero;stroke:none"
     d="M 1011.3953,2214.4378 C 1017.619,2220.932 1029.3932,2225.1981 1042.8406,2225.1981 C 1062.8179,2225.1981 1078.9996,2215.5719 1078.9996,2203.6775 C 1078.9996,2191.8064 1062.8179,2182.1592 1042.8406,2182.1592 C 1004.9063,2182.1592 974.15477,2158.0705 974.15477,2128.379 C 974.15477,2098.6664 1004.9063,2074.5777 1042.8406,2074.5777 C 1077.5508,2074.5777 1106.2413,2095.0275 1110.8939,2121.1985 L 1072.6535,2121.1583 C 1067.6132,2114.8479 1056.1655,2110.4382 1042.8406,2110.4382 C 1024.8836,2110.4382 1010.3138,2118.4678 1010.3138,2128.379 C 1010.3138,2138.2691 1024.8836,2146.2987 1042.8406,2146.2987 C 1082.7951,2146.2987 1115.1587,2171.986 1115.1587,2203.6775 C 1115.1587,2235.3712 1082.7951,2261.0585 1042.8406,2261.0585 C 1007.3754,2261.0585 977.68497,2241.1769 971.52243,2214.4378 L 1011.3953,2214.4378" />
  <path
     id="path21107"
     style="fill:black;fill-rule:nonzero;stroke:none"
     d="M 1187.8848,1024.3623 C 1155.5416,1024.3623 1127.9327,1045.5196 1118.6889,1074.5628 L 1158.9699,1074.5628 C 1165.5609,1065.9482 1176.1311,1060.2228 1187.8848,1060.2228 C 1207.8621,1060.2228 1224.0438,1076.2819 1224.0438,1096.0833 C 1215.7592,1101.2005 1169.8053,1099.663 1169.8053,1099.663 C 1137.8499,1099.663 1111.955,1121.7706 1111.955,1153.4642 C 1111.955,1185.1579 1137.8499,1210.8431 1169.8053,1210.8431 C 1169.8053,1210.8431 1205.6583,1214.6657 1224.0438,1194.8242 L 1224.0438,1207.2634 L 1260.2029,1207.2634 L 1260.2029,1096.0833 C 1260.2029,1056.4826 1227.8189,1024.3623 1187.8848,1024.3623 z M 1224.0438,1153.4642 C 1216.4938,1182.0829 1169.8053,1174.9826 1169.8053,1174.9826 C 1159.8269,1174.9826 1148.114,1166.0429 1148.114,1153.4642 C 1148.114,1141.3692 1159.8269,1131.9437 1169.8053,1131.9437 C 1169.8053,1131.9437 1220.1259,1133.3186 1224.0438,1124.7843 L 1224.0438,1153.4642" />
  <path
     id="path21109"
     style="fill:black;fill-rule:nonzero;stroke:none"
     d="M 563.34579,1095.1941 L 563.34579,1095.1941 C 563.34579,1055.5913 530.98224,1023.4732 491.02774,1023.4732 C 451.09365,1023.4732 418.7301,1055.5913 418.7301,1095.1941 L 418.7301,1138.233 C 418.7301,1177.8358 451.09365,1209.954 491.02774,1209.954 C 530.98224,1209.954 563.34579,1177.8358 563.34579,1138.233 L 563.34579,1095.1941 z M 491.02774,1174.0935 C 471.07089,1174.0935 454.86871,1158.0344 454.86871,1138.233 L 454.86871,1095.1941 C 454.86871,1075.3927 471.07089,1059.3337 491.02774,1059.3337 C 511.00499,1059.3337 527.18677,1075.3927 527.18677,1095.1941 L 527.18677,1138.233 C 527.18677,1158.0344 511.00499,1174.0935 491.02774,1174.0935" />
  <path
     id="path21111"
     style="fill:white;fill-rule:nonzero;stroke:none"
     d="M 1286.9957,325.0621 L 1286.9957,325.0621 C 1286.9957,375.8897 1328.5418,417.0892 1379.8012,417.0892 C 1396.6971,417.0892 1412.532,412.5992 1426.1835,404.7513 L 1426.1835,412.4978 L 1472.5862,412.4978 L 1472.5862,90.3851 L 1426.1835,90.3851 L 1426.1835,190.1587 C 1412.532,182.3298 1396.6971,177.8209 1379.8012,177.8209 C 1328.5418,177.8209 1286.9957,219.0203 1286.9957,269.8458 L 1286.9957,325.0621 z M 1333.3984,269.8458 C 1333.3984,244.4225 1354.1714,223.8333 1379.8012,223.8333 C 1405.4104,223.8333 1426.1835,244.4225 1426.1835,269.8458 L 1426.1835,325.0621 C 1426.1835,350.4854 1405.4104,371.0767 1379.8012,371.0767 C 1354.1714,371.0767 1333.3984,350.4854 1333.3984,325.0621 L 1333.3984,269.8458" />
  <path
     id="path21113"
     style="fill:black;fill-rule:nonzero;stroke:none"
     d="M 1007.253,1024.3623 C 994.68298,1024.3623 982.13343,1029.1163 971.0939,1036.9642 L 971.0939,1027.9442 L 934.93488,1027.9442 L 934.93488,1207.2634 L 971.0939,1207.2634 L 971.0939,1096.0833 C 971.0939,1076.2819 987.27568,1060.2228 1007.253,1060.2228 C 1027.2098,1060.2228 1043.412,1076.2819 1043.412,1096.0833 L 1043.412,1207.2634 L 1079.571,1207.2634 L 1079.571,1096.0833 C 1079.571,1056.4826 1047.1871,1024.3623 1007.253,1024.3623" />
  <path
     id="path21115"
     style="fill:black;fill-rule:nonzero;stroke:none"
     d="M 528.92125,2080.7467 C 518.35107,2074.7805 505.78111,2074.8607 492.76223,2074.8607 C 480.19228,2074.8607 467.64273,2079.6147 456.6032,2087.4626 L 456.6032,2078.4405 L 420.44418,2078.4405 L 420.44418,2257.7618 L 456.6032,2257.7618 L 456.6032,2146.5817 C 456.6032,2126.7803 472.78498,2110.7212 492.76223,2110.7212 C 512.71908,2110.7212 528.92125,2116.1826 528.92125,2116.1826 L 528.92125,2080.7467" />
  <path
     id="path21117"
     style="fill:black;fill-rule:nonzero;stroke:none"
     d="M 1363.9254,1210.8431 C 1376.4749,1210.8431 1389.0246,1206.0913 1400.0641,1198.2434 L 1400.0641,1207.2634 L 1436.2231,1207.2634 L 1436.2231,1027.9442 L 1400.0641,1027.9442 L 1400.0641,1139.1243 C 1400.0641,1158.9236 1383.8823,1174.9826 1363.9254,1174.9826 C 1343.9482,1174.9826 1327.7664,1158.9236 1327.7664,1139.1243 L 1327.746,1027.9442 L 1291.587,1027.9442 L 1291.6074,1139.1243 C 1291.6074,1178.725 1323.9709,1210.8431 1363.9254,1210.8431" />
  <path
     id="path21119"
     style="fill:black;fill-rule:nonzero;stroke:none"
     d="M 882.28799,2074.8607 C 860.67828,2074.8607 841.31321,2084.2673 828.04945,2099.1732 C 814.8061,2084.2673 795.42062,2074.8607 773.81091,2074.8607 C 761.26136,2074.8607 748.71181,2079.6147 737.67229,2087.4626 L 737.67229,2078.4405 L 701.51327,2078.4405 L 701.51327,2257.7618 L 737.67229,2257.7618 L 737.67229,2146.5817 C 737.67229,2126.7803 753.85407,2110.7212 773.81091,2110.7212 C 793.78817,2110.7212 809.96994,2126.7803 809.96994,2146.5817 L 809.96994,2257.7618 L 846.12896,2257.7618 L 846.12896,2146.5817 C 846.12896,2126.7803 862.33114,2110.7212 882.28799,2110.7212 C 902.26524,2110.7212 918.44702,2126.7803 918.44702,2146.5817 L 918.44702,2257.7618 L 954.60604,2257.7618 L 954.60604,2146.5817 C 954.60604,2106.9789 922.24249,2074.8607 882.28799,2074.8607" />
  <path
     id="path21121"
     style="fill:black;fill-rule:nonzero;stroke:none"
     d="M 830.27368,1023.9188 C 790.31918,1023.9188 757.95562,1056.037 757.95562,1095.6588 L 757.95562,1138.6787 C 757.95562,1178.3005 790.31918,1210.3975 830.27368,1210.3975 C 861.31086,1210.3975 887.77714,1191.0016 898.04124,1163.7578 L 856.12779,1163.7387 C 849.55714,1170.4124 840.39495,1174.5391 830.27368,1174.5391 C 810.29643,1174.5391 794.11466,1158.4991 794.11466,1138.6787 L 794.11466,1135.0989 L 902.57133,1135.0989 L 902.57133,1095.6588 C 902.57133,1056.037 870.20778,1023.9188 830.27368,1023.9188 z M 866.43271,1099.2385 L 794.11466,1099.2385 L 794.11466,1095.6588 C 794.11466,1075.8384 810.29643,1059.7983 830.27368,1059.7983 C 850.23052,1059.7983 866.43271,1075.8384 866.43271,1095.6588 L 866.43271,1099.2385" />
  <path
     id="path21123"
     style="fill:black;fill-rule:nonzero;stroke:none"
     d="M 606.27953,1378.5552 L 606.27953,1384.5805 C 595.64812,1378.4728 583.30263,1374.9734 570.12051,1374.9734 C 530.18642,1374.9734 497.80245,1407.0725 497.80245,1446.6943 L 497.80245,1486.1345 C 497.80245,1525.7563 530.18642,1557.8554 570.12051,1557.8554 C 583.30263,1557.8554 595.64812,1554.356 606.27953,1548.2462 L 606.27953,1557.8554 C 606.27953,1577.6758 590.09775,1597.3146 570.12051,1597.3146 C 555.2447,1597.3146 542.34825,1588.5375 536.79788,1575.7941 L 499.06762,1575.7941 C 505.67908,1608.6409 535.06339,1633.1751 570.12051,1633.1751 C 610.0546,1633.1751 642.43856,1597.4772 642.43856,1557.8554 L 642.43856,1378.5552 L 606.27953,1378.5552 z M 570.12051,1521.995 C 550.16366,1521.995 533.96148,1505.9359 533.96148,1486.1345 L 533.96148,1446.6943 C 533.96148,1426.8929 550.16366,1410.8338 570.12051,1410.8338 C 590.09775,1410.8338 606.27953,1426.8929 606.27953,1446.6943 L 606.27953,1486.1345 C 606.27953,1505.9359 590.09775,1521.995 570.12051,1521.995" />
  <path
     id="path21125"
     style="fill:white;fill-rule:nonzero;stroke:none"
     d="M 1174.4782,136.3976 L 1220.8809,136.3976 L 1220.8809,90.3851 L 1174.4782,90.3851 L 1174.4782,136.3976 z " />
  <path
     id="path21127"
     style="fill:white;fill-rule:nonzero;stroke:none"
     d="M 1174.4782,412.4978 L 1220.8809,412.4978 L 1220.8809,182.4122 L 1174.4782,182.4122 L 1174.4782,412.4978 z " />
  <path
     id="path21129"
     style="fill:black;fill-rule:nonzero;stroke:none"
     d="M 1328.4398,1871.776 L 1328.4398,1871.776 C 1324.4403,1871.776 1321.2162,1868.5807 1321.2162,1864.6166 L 1321.2162,1656.6153 L 1285.0572,1656.6153 L 1285.0572,1864.6166 L 1285.1184,1864.6166 C 1285.1184,1888.361 1304.5038,1907.5964 1328.4398,1907.5964 L 1339.2957,1907.5964 L 1339.2957,1871.776 L 1328.4398,1871.776" />
  <path
     id="path21131"
     style="fill:black;fill-rule:nonzero;stroke:none"
     d="M 1981.9754,2078.4405 L 1956.6518,2078.4405 L 1956.6518,2006.7216 L 1920.5133,2024.6624 L 1920.5133,2078.4405 L 1895.1897,2078.4405 L 1895.1897,2114.322 L 1920.5133,2114.322 L 1920.5133,2257.7618 L 1956.6518,2257.7618 L 1956.6518,2114.322 L 1981.9754,2114.322 L 1981.9754,2078.4405" />
  <path
     id="path21133"
     style="fill:black;fill-rule:nonzero;stroke:none"
     d="M 624.97122,1163.3544 C 631.19498,1169.8464 642.9487,1174.1146 656.41651,1174.1146 C 676.39377,1174.1146 692.57554,1164.4652 692.57554,1152.5941 C 692.57554,1140.7019 676.39377,1131.0736 656.41651,1131.0736 C 618.48219,1131.0736 587.71028,1106.985 587.71028,1077.2745 C 587.71028,1047.5618 618.48219,1023.4943 656.41651,1023.4943 C 691.12673,1023.4943 719.81724,1043.942 724.44935,1070.1129 L 686.22934,1070.0728 C 681.18912,1063.7624 669.74148,1059.3527 656.41651,1059.3527 C 638.43903,1059.3527 623.86931,1067.3822 623.86931,1077.2745 C 623.86931,1087.1836 638.43903,1095.2132 656.41651,1095.2132 C 696.35061,1095.2132 728.73456,1120.9005 728.73456,1152.5941 C 728.73456,1184.2666 696.35061,1209.973 656.41651,1209.973 C 620.93088,1209.973 591.24048,1190.0913 585.09834,1163.3544 L 624.97122,1163.3544" />
  <path
     id="path21135"
     style="fill:white;fill-rule:nonzero;stroke:none"
     d="M 1009.0282,177.8209 C 967.52289,177.8209 932.07807,204.9422 920.22232,242.2388 L 971.91014,242.2388 C 980.37853,231.1744 993.94837,223.8333 1009.0282,223.8333 C 1034.658,223.8333 1055.431,244.4225 1055.431,269.8458 C 1044.7996,276.4202 985.82687,274.4371 985.82687,274.4371 C 944.83167,274.4371 911.59068,302.8151 911.59068,343.4675 C 911.59068,384.141 944.83167,417.0892 985.82687,417.0892 C 985.82687,417.0892 1031.8215,422.0036 1055.431,396.5401 L 1055.431,412.4978 L 1101.8133,412.4978 L 1101.8133,269.8458 C 1101.8133,219.0203 1060.2672,177.8209 1009.0282,177.8209 z M 1055.431,343.4675 C 1045.7383,380.1981 985.82687,371.0767 985.82687,371.0767 C 973.01204,371.0767 957.9934,359.6089 957.9934,343.4675 C 957.9934,327.9554 973.01204,315.8604 985.82687,315.8604 C 985.82687,315.8604 1050.3908,317.6197 1055.431,306.6567 L 1055.431,343.4675" />
  <path
     id="path21137"
     style="fill:black;fill-rule:nonzero;stroke:none"
     d="M 1491.686,2054.8376 L 1527.845,2054.8376 L 1527.845,2018.9792 L 1491.686,2018.9792 L 1491.686,2054.8376 z " />
  <path
     id="path21139"
     style="fill:black;fill-rule:nonzero;stroke:none"
     d="M 1419.3679,2054.8376 L 1455.5269,2054.8376 L 1455.5269,2018.9792 L 1419.3679,2018.9792 L 1419.3679,2054.8376 z " />
  <path
     id="path21141"
     style="fill:white;fill-rule:nonzero;stroke:none"
     d="M 1369.1085,563.6039 C 1347.5192,563.6039 1328.1338,573.0083 1314.8903,587.8952 C 1301.6266,573.0083 1282.2411,563.6039 1260.6518,563.6039 C 1248.0819,563.6039 1235.5323,568.3367 1224.4928,576.1846 L 1224.4928,567.1836 L 1188.3338,567.1836 L 1188.3338,746.4838 L 1224.4928,746.4838 L 1224.4928,635.3227 C 1224.4928,615.5023 1240.6746,599.4644 1260.6518,599.4644 C 1280.6087,599.4644 1296.8109,615.5023 1296.8109,635.3227 L 1296.8109,746.4838 L 1332.9699,746.4838 L 1332.9699,635.3227 C 1332.9699,615.5023 1349.1517,599.4644 1369.1085,599.4644 C 1389.0858,599.4644 1405.2676,615.5023 1405.2676,635.3227 L 1405.2676,746.4838 L 1441.4266,746.4838 L 1441.4266,635.3227 C 1441.4266,595.7009 1409.063,563.6039 1369.1085,563.6039" />
  <path
     id="path21143"
     style="fill:white;fill-rule:nonzero;stroke:none"
     d="M 1081.632,490.8122 C 1041.6775,490.8122 1009.314,522.9303 1009.314,562.531 L 1009.314,677.2909 C 1009.314,716.9127 1041.6775,749.0118 1081.632,749.0118 C 1121.5661,749.0118 1153.9296,716.9127 1153.9296,677.2909 L 1153.9296,562.531 C 1153.9296,522.9303 1121.5661,490.8122 1081.632,490.8122 z M 1117.7706,677.2909 L 1117.7706,677.2909 C 1117.7706,697.0923 1101.5888,713.1513 1081.632,713.1513 C 1061.6548,713.1513 1045.473,697.0923 1045.473,677.2909 L 1045.473,562.531 C 1045.473,542.7317 1061.6548,526.6706 1081.632,526.6706 C 1101.5888,526.6706 1117.7706,542.7317 1117.7706,562.531 L 1117.7706,677.2909" />
  <path
     id="path21145"
     style="fill:white;fill-rule:nonzero;stroke:none"
     d="M 2030.3575,203.5673 C 2020.2566,206.4797 2014.4615,216.9759 2017.4202,227.0097 C 2019.2976,233.3201 2024.2153,237.9515 2030.1126,239.7509 L 2108.5524,268.169 L 1970.6911,466.6412 L 1970.6911,746.4838 L 2062.5374,746.4838 L 2062.5374,494.979 L 2184.0538,320.0272 L 2238.4352,382.7873 C 2242.2307,387.6405 2248.3116,390.574 2254.9434,390.0882 C 2265.432,389.2984 2273.3087,380.2382 2272.5128,369.8222 L 2286.001,93.9036 L 2030.3575,203.5673" />
  <path
     id="path21147"
     style="fill:none;stroke:black;stroke-width:30.49355698;stroke-linecap:butt;stroke-linejoin:miter;stroke-miterlimit:4"
     d="M 2397.9675,2484.7535 C 2445.9007,2484.7535 2484.7532,2446.2236 2484.7532,2398.6947 L 2484.7532,101.3058 C 2484.7532,53.777 2445.9007,15.2471 2397.9675,15.2471 L 102.03252,15.2471 C 54.099366,15.2471 15.246778,53.777 15.246778,101.3058 L 15.246778,2398.6947 C 15.246778,2446.2236 54.099366,2484.7535 102.03252,2484.7535 L 2397.9675,2484.7535 z " />
</svg>
