<?xml version="1.0" encoding="UTF-8" standalone="no"?>
<!-- Created with Inkscape (http://www.inkscape.org/) -->
<svg
   xmlns:svg="http://www.w3.org/2000/svg"
   xmlns="http://www.w3.org/2000/svg"
   version="1.0"
   width="2200"
   height="460"
   id="svg15659">
  <defs
     id="defs15661" />
  <g
     transform="translate(615.4557,3.06425)"
     id="layer1">
    <path
       d="M 1566.3099,16.847504 C 1554.5312,5.3868721 1538.9043,-0.92959804 1522.2703,-0.92959804 L -553.18172,-0.92959804 C -587.52862,-0.92959804 -615.45571,26.278466 -615.45571,59.733011 L -615.45571,396.27314 C -615.45571,412.4755 -608.98195,427.71551 -597.22128,439.17615 C -585.46061,450.61928 -569.81569,456.93575 -553.18172,456.93575 L 1522.2703,456.93575 C 1538.9043,456.93575 1554.5312,450.61928 1566.3099,439.17615 C 1578.0705,427.71551 1584.5443,412.4755 1584.5443,396.27314 L 1584.5443,59.733011 C 1584.5443,43.530653 1578.0705,28.290638 1566.3099,16.847504"
       style="fill:#176fc1;fill-rule:nonzero;stroke:none"
       id="path11457" />
    <path
       d="M -144.11191,-3.06425 L -553.18172,-0.92959804 C -587.52862,-0.92959804 -615.45571,26.278466 -615.45571,59.733011 L -615.45571,396.27314 C -615.45571,412.4755 -608.98195,427.71551 -597.22128,439.17615 C -585.46061,450.61928 -569.81569,456.93575 -553.18172,456.93575 L -144.11191,456.79577 L -144.11191,-3.06425"
       style="fill:#176fc1;fill-rule:nonzero;stroke:none"
       id="path11459" />
    <path
       d="M 1349.0612,416.84979 L 1543.382,228.24804 L 1349.0612,39.156366 L -102.7158,39.156366 L -102.7158,416.84979 L 1349.0612,416.84979"
       style="fill:white;fill-rule:nonzero;stroke:none"
       id="path11461" />
    <path
       d="M 285.02655,282.82164 L 285.02655,302.89087 C 285.02655,313.24918 291.33847,319.05823 301.62456,319.05823 C 314.57208,319.05823 317.5572,311.91939 318.22256,304.81555 L 352.08393,304.81555 C 352.08393,318.39334 347.10273,328.76915 338.47105,337.48273 C 329.51568,346.54625 317.23352,352.04035 301.62456,352.04035 C 281.05238,352.04035 265.44342,342.66188 257.4771,328.4367 C 252.83757,320.03807 251.16518,308.38497 251.16518,295.13963 L 251.16518,241.14343 C 251.16518,227.8806 252.83757,216.24499 257.4771,207.82887 C 265.44342,193.60368 281.05238,184.24271 301.62456,184.24271 C 332.82449,184.24271 352.08393,206.55157 352.08393,235.31688 L 352.08393,282.82164 L 285.02655,282.82164 z M 285.02655,254.72122 L 318.22256,254.72122 L 318.22256,235.96428 C 318.22256,223.68128 311.91065,217.20734 301.62456,217.20734 C 291.33847,217.20734 285.02655,223.68128 285.02655,235.96428 L 285.02655,254.72122"
       style="fill:black;fill-rule:nonzero;stroke:none"
       id="path11473" />
    <path
       d="M 179.30643,184.83761 L 213.1678,184.83761 L 213.1678,348.76839 L 179.30643,348.76839 L 179.30643,184.83761 z M 179.30643,118.55842 L 213.1678,118.55842 L 213.1678,151.54054 L 179.30643,151.54054 L 179.30643,118.55842 z "
       style="fill:black;fill-rule:nonzero;stroke:none"
       id="path11475" />
    <path
       d="M 1151.3777,244.17044 L 1166.7529,244.17044 L 1166.7529,306.75774 L 1167.0586,306.75774 L 1185.6167,274.28303 L 1200.9919,274.28303 L 1182.7395,304.55309 L 1204.7683,348.76839 L 1188.0264,348.76839 L 1174.1438,316.59113 L 1166.7529,327.91179 L 1166.7529,348.76839 L 1151.3777,348.76839 L 1151.3777,244.17044"
       style="fill:black;fill-rule:nonzero;stroke:none"
       id="path11477" />
    <path
       d="M 1218.8127,274.28303 L 1234.2059,274.28303 L 1234.2059,281.49185 L 1234.5116,281.49185 C 1237.6765,276.78512 1241.9025,273.40817 1248.9876,273.40817 C 1255.6233,273.40817 1259.993,277.22255 1262.7084,280.89695 C 1266.4848,276.78512 1270.5489,273.40817 1278.695,273.40817 C 1286.3916,273.40817 1295.4369,278.25488 1295.4369,291.6227 L 1295.4369,348.76839 L 1280.0437,348.76839 L 1280.0437,297.20429 C 1280.0437,291.76268 1277.3283,288.38573 1272.509,288.38573 C 1266.7725,288.38573 1264.8124,292.06013 1264.8124,298.67405 L 1264.8124,348.76839 L 1249.4372,348.76839 L 1249.4372,297.20429 C 1249.4372,291.76268 1246.7218,288.38573 1241.9025,288.38573 C 1236.166,288.38573 1234.2059,292.06013 1234.2059,298.67405 L 1234.2059,348.76839 L 1218.8127,348.76839 L 1218.8127,274.28303"
       style="fill:black;fill-rule:nonzero;stroke:none"
       id="path11479" />
    <path
       d="M 389.14622,184.83761 L 423.00759,184.83761 L 422.98961,192.8688 L 423.65497,192.8688 C 435.37967,181.46066 435.30774,181.46066 450.89871,181.46066 C 467.82041,181.46066 490.38866,193.56869 490.38866,222.99889 L 490.38866,348.76839 L 456.52729,348.76839 L 456.52729,235.28189 C 456.52729,223.31384 450.55704,215.87755 439.92928,215.87755 C 427.32343,215.87755 423.00759,223.96123 423.00759,238.51886 L 423.00759,348.76839 L 389.14622,348.76839 L 389.14622,184.83761"
       style="fill:black;fill-rule:nonzero;stroke:none"
       id="path11481" />
    <path
       d="M 895.53824,137.00041 C 904.4037,125.81974 918.19641,119.41578 933.30185,119.41578 C 948.40729,119.41578 962.2,125.81974 971.06546,137.00041 C 979.93092,147.88364 983.20376,155.87984 983.20376,180.83077 C 983.20376,207.68889 982.55639,215.86006 966.4619,228.33552 C 982.55639,240.16359 983.20376,248.64971 983.20376,283.20658 C 983.20376,311.02704 980.91996,318.70829 974.01462,328.61167 C 966.4619,339.80985 952.66919,348.76839 933.30185,348.76839 C 913.93451,348.76839 900.14181,339.80985 892.58908,328.61167 C 885.68374,318.70829 883.38196,311.02704 883.38196,283.20658 C 883.38196,248.64971 884.04731,240.16359 900.14181,228.33552 C 884.04731,215.86006 883.38196,207.68889 883.38196,180.83077 C 883.38196,155.87984 886.67278,147.88364 895.53824,137.00041 z M 949.72003,168.02286 C 949.72003,159.08181 941.84362,152.03046 933.30185,152.03046 C 924.76008,152.03046 916.88367,159.08181 916.88367,168.02286 L 916.88367,200.18261 C 916.88367,209.14115 924.76008,216.175 933.30185,216.175 C 941.84362,216.175 949.72003,209.14115 949.72003,200.18261 L 949.72003,168.02286 z M 949.72003,256.48843 C 949.72003,247.52989 941.84362,240.49604 933.30185,240.49604 C 924.76008,240.49604 916.88367,247.52989 916.88367,256.48843 L 916.88367,300.14381 C 916.88367,309.10235 924.76008,316.13621 933.30185,316.13621 C 941.84362,316.13621 949.72003,309.10235 949.72003,300.14381 L 949.72003,256.48843"
       style="fill:black;fill-rule:nonzero;stroke:none"
       id="path11483" />
    <path
       d="M 107.37574,348.76839 L 75.51045,348.76839 L 49.615403,199.39524 L 48.950044,199.39524 L 23.396669,348.76839 L -8.4686248,348.76839 L -50.548076,118.55842 L -14.690629,118.55842 L 9.1184276,264.69459 L 9.7837865,264.69459 L 36.326209,118.55842 L 62.221256,118.55842 L 89.770708,268.26401 L 90.436067,268.26401 L 113.59775,118.55842 L 149.43721,118.55842 L 107.37574,348.76839"
       style="fill:black;fill-rule:nonzero;stroke:none"
       id="path11487" />
    <path
       d="M 786.81501,316.25869 L 848.20785,185.92244 L 848.17189,185.81745 C 850.72542,179.9909 852.14606,173.56945 852.14606,166.83305 C 852.14606,140.07991 829.88351,118.38345 802.40599,118.38345 C 774.94645,118.38345 752.6839,140.07991 752.6839,166.83305 L 785.61017,166.83305 C 785.61017,157.78702 793.12693,150.45572 802.40599,150.45572 C 811.70303,150.45572 819.21978,157.78702 819.21978,166.83305 C 819.21978,166.83305 820.67638,171.69726 818.17679,178.04872 L 753.43917,316.25869 L 753.43917,348.76839 L 854.21406,348.76839 L 854.21406,316.25869 L 786.81501,316.25869"
       style="fill:black;fill-rule:nonzero;stroke:none"
       id="path11489" />
    <path
       d="M 1024.8157,170.59494 C 1024.8157,140.7623 1047.7076,122.56527 1073.8184,122.56527 C 1099.9113,122.56527 1122.8032,140.7623 1122.8032,170.59494 L 1122.8032,301.82354 C 1122.8032,331.63868 1099.9113,349.85321 1073.8184,349.85321 C 1047.7076,349.85321 1024.8157,331.63868 1024.8157,301.82354 L 1024.8157,170.59494 z M 1057.706,301.82354 C 1057.706,310.92206 1064.4675,317.83343 1073.8184,317.83343 C 1083.1515,317.83343 1089.9309,310.92206 1089.9309,301.82354 L 1089.9309,170.59494 C 1089.9309,161.49642 1083.1515,154.58505 1073.8184,154.58505 C 1064.4675,154.58505 1057.706,161.49642 1057.706,170.59494 L 1057.706,301.82354"
       style="fill:black;fill-rule:nonzero;stroke:none"
       id="path11493" />
    <path
       d="M -470.44345,91.612814 L -516.11943,138.48767 L -516.11943,196.77067 L -470.44345,150.17577 L -470.44345,374.73415 L -428.92146,374.73415 L -428.92146,91.612814 L -470.44345,91.612814"
       style="fill:white;fill-rule:nonzero;stroke:none"
       id="path11525" />
    <path
       d="M -395.2579,91.612814 L -395.2579,172.50213 L -353.73591,172.50213 L -353.73591,132.06622 L -275.2955,132.06622 L -395.70747,374.73415 L -349.58192,374.73415 L -229.16995,132.06622 L -229.16995,91.612814 L -395.2579,91.612814"
       style="fill:white;fill-rule:nonzero;stroke:none"
       id="path11527" />
  </g>
</svg>
