<?xml version="1.0" encoding="utf-8"?>
<!-- Generator: Adobe Illustrator 15.0.2, SVG Export Plug-In . SVG Version: 6.00 Build 0)  -->
<!DOCTYPE svg PUBLIC "-//W3C//DTD SVG 1.1//EN" "http://www.w3.org/Graphics/SVG/1.1/DTD/svg11.dtd">
<svg version="1.1" id="Vrstva_1" xmlns="http://www.w3.org/2000/svg" xmlns:xlink="http://www.w3.org/1999/xlink" x="0px" y="0px"
	 width="2200px" height="460px" viewBox="0 0 2200 460" enable-background="new 0 0 2200 460" xml:space="preserve">
<g>
	<path fill-rule="evenodd" clip-rule="evenodd" fill="#009FE3" d="M70.216,3h2058.446c26.188,0,47.222,21.037,47.222,47.226v358.799
		c0,26.188-21.033,47.225-47.222,47.225H70.216c-26.19,0-47.216-21.037-47.216-47.225V50.226C23,24.037,44.025,3,70.216,3"/>
	<path fill-rule="evenodd" clip-rule="evenodd" fill="#FFFFFF" d="M70.216,31.336h2058.446c10.572,0,18.89,8.298,18.89,18.89
		v358.799c0,10.576-8.317,18.889-18.89,18.889H70.216c-10.574,0-18.882-8.313-18.882-18.889V50.226
		C51.334,39.634,59.642,31.336,70.216,31.336"/>
	<polygon fill-rule="evenodd" clip-rule="evenodd" points="278.499,83.266 391.812,196.586 391.812,290.051 311.546,209.789 
		311.546,375.984 245.458,375.984 245.458,209.789 165.195,290.051 165.195,196.586 	"/>
	<path fill-rule="evenodd" clip-rule="evenodd" d="M1033.153,327.316h28.884V226.631c0-16.41-3.706-28.814-11.324-37.031
		c-7.631-8.213-19.819-12.188-36.514-12.188c-7.916,0-15.546,1.681-22.599,5.09c-7.38,3.69-13.619,9.061-18.423,16.113
		l-3.925-18.376h-21.781v147.078h28.833v-96.429c0-5.352,1.145-9.925,3.107-13.85c1.982-3.991,4.226-7.399,7.334-9.929
		c2.845-2.541,6.254-4.222,9.944-5.652c3.659-1.114,7.052-1.697,10.461-1.697c9.061,0,15.531,1.978,19.803,5.954
		c4.222,4.222,6.2,11.605,6.2,22.348V327.316z M861.187,306.962c-5.653,0-10.758-0.548-15.296-1.662
		c-4.508-0.863-8.498-3.111-11.606-6.234c-3.358-3.127-5.922-7.384-7.916-13.303c-1.962-5.637-3.358-13.321-3.659-22.648h87.962
		v-16.098c0-10.457-0.849-19.819-2.827-28.583c-2.013-8.499-5.07-15.848-9.342-22.063c-4.226-5.953-10.16-10.761-17.544-14.17
		c-7.349-3.108-16.429-4.789-27.453-4.789c-39.876,0-59.679,26.289-59.679,79.182c0,15.034,1.997,27.172,5.672,36.519
		c3.69,9.593,8.498,17.258,14.432,22.645c5.954,5.355,13.002,9.296,20.918,11.324c7.634,1.913,15.832,3.012,24.029,3.012
		c9.644,0,18.724-1.099,26.902-3.309c8.217-2.264,14.683-4.558,19.822-6.802l-8.779-20.917c-5.652,2.244-11.305,4.206-17.278,5.652
		C873.609,306.113,867.375,306.962,861.187,306.962z M852.989,199.76c11.008,0,18.939,3.409,23.744,9.878
		c4.789,6.536,7.037,17.856,7.037,33.969H823.01c0.231-8.494,1.396-15.546,2.826-21.199c1.396-5.672,3.343-10.21,5.903-13.584
		c2.545-3.111,5.371-5.656,9.061-7.087C844.491,200.342,848.435,199.76,852.989,199.76z M723.458,133.846
		c0,5.39,2.028,9.894,5.668,13.603c3.709,3.674,8.198,5.652,13.588,5.652c5.352,0,10.21-1.978,13.85-5.652
		c3.69-3.709,5.386-8.213,5.386-13.603c0-5.352-1.696-10.156-5.386-13.85c-3.64-3.69-8.498-5.371-13.85-5.371
		c-5.39,0-9.878,1.681-13.588,5.371C725.486,123.689,723.458,128.494,723.458,133.846z M757.146,180.238h-50.083v22.648h21.249
		v124.43h28.833V180.238z M666.042,327.316l26.871-197.975h-25.71l-23.509,170.005l-32.527-144.846h-28.583l-32.242,145.362
		l-22.063-170.521h-27.723l26.875,197.975h39.907l28.833-135.754l28.298,135.754H666.042z"/>
	<path fill-rule="evenodd" clip-rule="evenodd" d="M2010.618,327.316h15.882v-55.407c0-3.408,0.281-6.335,1.095-8.579
		c0.817-2.264,1.781-4.041,2.927-5.337c1.099-1.299,2.264-2.247,3.693-2.745c1.496-0.517,2.792-0.782,3.875-0.782
		c3.093,0,5.337,0.948,6.817,3.062c1.446,2.112,2.26,6.119,2.26,12.088v57.701h15.813v-58.465c0-9.563-1.612-16.38-4.82-20.736
		c-3.227-4.373-8.583-6.436-16.032-6.436c-3.689,0-7.229,0.783-10.507,2.41c-3.208,1.631-5.938,4.226-8.197,7.568
		c-3.408-6.62-9.396-9.979-17.644-9.979c-3.56,0-6.968,0.783-10.191,2.279c-3.192,1.58-5.988,4.356-8.101,8.047l-2.391-8.729
		h-10.993v84.04h15.828v-54.459c0-3.725,0.351-6.601,1.164-9.061c0.768-2.395,1.781-4.157,2.877-5.657
		c1.148-1.445,2.444-2.394,3.895-2.892c1.295-0.517,2.575-0.782,3.74-0.782c3.057,0,5.305,0.948,6.751,3.062
		c1.446,2.112,2.26,6.119,2.26,12.088V327.316z M1906.527,327.316h15.828v-39.726l21.018,39.726h18.276l-26.339-46.678
		l24.227-37.362h-17.459l-19.723,32.809v-61.874h-15.828V327.316z M1778.574,283.716c0,15.496,4.141,27.152,12.138,34.62
		c8.016,7.53,18.89,11.375,32.458,11.375c13.337,0,24.245-3.845,32.492-11.375c7.962-7.468,12.072-19.124,12.072-34.62
		c0-6.104-0.717-11.406-2.379-16.029c-1.731-4.607-3.659-8.498-6.285-12.138c-2.645-3.358-5.571-6.52-8.964-9.211
		c-3.409-2.63-6.768-5.074-10.176-7.484c1.912-1.23,4.357-3.158,7.002-5.603c2.691-2.147,5.12-5.089,7.53-8.729
		c2.444-3.377,4.357-7.252,6.038-11.856c1.678-4.607,2.41-9.728,2.41-15.531c0-8.248-1.215-15.034-3.358-20.571
		c-2.163-5.386-5.336-9.744-8.98-12.851c-3.64-3.177-8.012-5.391-12.619-6.586c-4.854-1.214-9.679-1.928-14.783-1.928
		c-5.07,0-9.909,0.713-14.518,1.928c-4.854,1.195-9.211,3.409-12.851,6.586c-3.644,3.107-6.817,7.465-8.98,12.851
		c-2.209,5.537-3.408,12.323-3.408,20.802c0,4.858,0.481,9.211,1.696,13.337c1.245,4.141,2.676,7.781,4.588,10.939
		c1.963,3.362,4.126,6.289,6.566,8.964c2.464,2.645,4.844,4.854,7.535,7.017c-2.691,1.713-5.371,3.641-8.232,6.085
		c-2.942,2.395-5.568,5.321-8.031,8.965c-2.691,3.604-4.589,7.962-6.285,13.086C1779.538,270.864,1778.574,276.898,1778.574,283.716
		z M1843.574,283.716c0,7.966-1.496,14.532-4.372,19.606c-3.162,5.086-8.483,7.546-16.032,7.546c-7.746,0-13.087-2.46-16.014-7.3
		c-2.876-4.839-4.356-11.354-4.356-19.853c0-10.939,1.249-18.955,3.644-24.527c2.444-5.306,5.622-9.442,9.442-12.354
		c4.357,2.911,8.268,5.355,11.676,7.515c3.389,2.214,6.285,4.607,8.71,7.053c2.444,2.641,4.376,5.567,5.571,8.976
		C1843.073,273.972,1843.574,278.345,1843.574,283.716z M1806.212,197.601c0-7.469,1.18-13.337,3.64-17.443
		c2.445-4.126,6.802-6.285,13.318-6.285c6.535,0,11.189,2.159,13.603,6.285c2.194,4.106,3.394,9.975,3.394,17.443
		c0,9.443-1.199,16.51-3.659,21.35c-2.429,5.089-5.306,8.98-8.479,11.656c-4.11-3.158-7.785-5.853-10.396-8.479
		c-2.942-2.463-5.105-4.858-6.817-7.534c-1.681-2.394-2.892-5.089-3.659-7.781C1806.443,204.167,1806.212,201.009,1806.212,197.601z
		 M1715.32,176.267c2.629,0,5.305,0.297,7.95,1.014c2.44,0.698,4.604,1.893,6.566,3.59c1.681,1.712,3.162,4.357,4.372,7.515
		c1.199,3.177,1.666,7.303,1.666,12.389c0,6.52-1.431,12.624-4.11,17.709c-2.641,5.07-6.054,10.16-10.175,14.768
		c-4.142,4.604-8.729,9.442-13.584,14.348c-4.839,4.839-9.196,10.16-13.338,16.198c-4.121,6.1-7.765,13.102-10.391,20.867
		c-2.695,7.781-4.126,16.992-4.126,27.634v15.019h78.985v-21.534h-54.775c0-7.299,1.446-13.819,4.142-19.673
		c2.66-5.803,6.285-11.374,10.411-16.494c4.105-5.09,8.479-9.925,13.317-15.015c4.854-4.854,9.512-9.944,13.568-15.496
		c4.142-5.371,7.55-11.41,10.226-17.96c2.63-6.551,4.141-13.85,4.141-22.298c0-14.101-3.905-24.974-11.424-32.523
		c-7.531-7.469-18.423-11.124-32.474-11.124c-7.766,0-15.08,1.446-21.601,4.604c-6.801,3.111-12.369,6.52-16.726,10.179
		l10.691,16.977c4.854-3.644,9.694-6.57,14.298-8.247C1707.539,177.03,1711.661,176.267,1715.32,176.267z"/>
</g>
</svg>
