<?xml version="1.0" encoding="UTF-8" standalone="no"?>
<!-- Created with Inkscape (http://www.inkscape.org/) -->
<svg
   xmlns:svg="http://www.w3.org/2000/svg"
   xmlns="http://www.w3.org/2000/svg"
   version="1.0"
   width="1740.0004"
   height="459.99994"
   id="svg17773">
  <defs
     id="defs17775" />
  <g
     transform="translate(1685.517,1414.448)"
     id="layer1">
    <path
       d="M 38.049625,-1394.6137 C 28.855919,-1406.0134 16.610575,-1412.2896 3.6023206,-1412.2896 L -1634.636,-1412.2896 C -1661.5059,-1412.2896 -1683.3587,-1385.2154 -1683.3587,-1351.9289 L -1683.3587,-1016.967 C -1683.3587,-1000.8441 -1678.2899,-985.69786 -1669.0833,-974.28216 C -1659.8896,-962.88247 -1647.6442,-956.60624 -1634.636,-956.60624 L 3.6023206,-956.60624 C 16.610575,-956.60624 28.855919,-962.88247 38.049625,-974.28216 C 47.256263,-985.69786 52.325085,-1000.8441 52.325085,-1016.967 L 52.325085,-1351.9289 C 52.325085,-1368.0518 47.256263,-1383.214 38.049625,-1394.6137 z "
       style="fill:white;fill-opacity:1;stroke:black;stroke-width:4.31656504;stroke-linecap:butt;stroke-linejoin:miter;stroke-miterlimit:4"
       id="path17802" />
    <path
       d="M -131.92403,-996.50515 L 20.127717,-1184.2158 L -131.92403,-1372.3907 L -1651.1614,-1372.3907 L -1651.1614,-996.50515 L -131.92403,-996.50515"
       style="fill:#176fc1;fill-rule:nonzero;stroke:none"
       id="path17844" />
    <path
       d="M -1045.9931,-1147.6631 C -1044.1957,-1118.9878 -1022.9765,-1096.4286 -997.11516,-1096.4286 C -970.07713,-1096.4286 -948.14671,-1121.1813 -948.14671,-1151.6978 C -948.14671,-1182.2304 -970.07713,-1206.9831 -997.11516,-1206.9831 C -1012.1406,-1206.9831 -1024.3213,-1219.6477 -1024.3213,-1235.2902 C -1024.3213,-1250.9168 -1012.1406,-1263.5973 -997.11516,-1263.5973 C -984.37845,-1263.5973 -973.63306,-1254.3271 -970.65901,-1242.0308 L -948.53463,-1242.0308 C -951.52162,-1269.3292 -972.12018,-1290.5595 -997.11516,-1290.5595 C -1024.1532,-1290.5595 -1046.0836,-1265.8068 -1046.0836,-1235.2902 C -1046.0836,-1204.7576 -1024.1532,-1180.0049 -997.11516,-1180.0049 L -997.11516,-1180.0209 C -982.08972,-1180.0209 -969.90903,-1167.3404 -969.90903,-1151.6978 C -969.90903,-1136.0713 -982.08972,-1123.3907 -997.11516,-1123.3907 C -1010.8346,-1123.3907 -1022.1748,-1133.9579 -1024.0497,-1147.6791 L -1045.9931,-1147.6631"
       style="fill:white;fill-rule:nonzero;stroke:none"
       id="path17847" />
    <path
       d="M -583.90267,-1183.7034 L -583.90267,-1183.7034 C -583.90267,-1213.4835 -603.38919,-1237.6278 -627.42731,-1237.6278 C -635.36674,-1237.6278 -642.78894,-1234.986 -649.18962,-1230.3909 L -649.18962,-1288.8624 L -670.96487,-1288.8624 L -670.96487,-1100.111 L -649.18962,-1100.111 L -649.18962,-1104.6581 C -642.78894,-1100.063 -635.36674,-1097.4212 -627.42731,-1097.4212 C -603.38919,-1097.4212 -583.90267,-1121.5655 -583.90267,-1151.3456 L -583.90267,-1183.7034 z M -605.66499,-1151.3456 C -605.66499,-1136.4556 -615.41471,-1124.3834 -627.42731,-1124.3834 C -639.45283,-1124.3834 -649.18962,-1136.4556 -649.18962,-1151.3456 L -649.18962,-1183.7034 C -649.18962,-1198.5935 -639.45283,-1210.6656 -627.42731,-1210.6656 C -615.41471,-1210.6656 -605.66499,-1198.5935 -605.66499,-1183.7034 L -605.66499,-1151.3456"
       style="fill:white;fill-rule:nonzero;stroke:none"
       id="path17849" />
    <path
       d="M -391.44258,-1233.1928 C -397.80447,-1237.6918 -405.36891,-1237.6278 -413.2049,-1237.6278 C -420.76934,-1237.6278 -428.32085,-1234.0574 -434.98014,-1228.1654 L -434.98014,-1234.938 L -456.74246,-1234.938 L -456.74246,-1100.111 L -434.98014,-1100.111 L -434.98014,-1183.7034 C -434.98014,-1198.5935 -425.23042,-1210.6656 -413.2049,-1210.6656 C -401.1923,-1210.6656 -391.44258,-1206.5668 -391.44258,-1206.5668 L -391.44258,-1233.1928"
       style="fill:white;fill-rule:nonzero;stroke:none"
       id="path17851" />
    <path
       d="M -523.76212,-1097.4212 C -516.19768,-1097.4212 -508.64617,-1100.9916 -501.99981,-1106.8836 L -501.99981,-1100.111 L -480.23749,-1100.111 L -480.23749,-1234.938 L -501.99981,-1234.938 L -501.99981,-1151.3456 C -501.99981,-1136.4556 -511.7366,-1124.3834 -523.76212,-1124.3834 C -535.77472,-1124.3834 -545.52444,-1136.4556 -545.52444,-1151.3456 L -545.52444,-1234.938 L -567.28676,-1234.938 L -567.28676,-1151.3456 C -567.28676,-1121.5655 -547.80024,-1097.4212 -523.76212,-1097.4212"
       style="fill:white;fill-rule:nonzero;stroke:none"
       id="path17853" />
    <path
       d="M -318.47481,-1233.6731 L -318.47481,-1229.1421 C -324.87549,-1233.7372 -332.31062,-1236.379 -340.23713,-1236.379 C -364.27524,-1236.379 -383.76176,-1212.2347 -383.76176,-1182.4546 L -383.76176,-1152.7866 C -383.76176,-1123.0065 -364.27524,-1098.8622 -340.23713,-1098.8622 C -332.31062,-1098.8622 -324.87549,-1101.504 -318.47481,-1106.0991 L -318.47481,-1098.8622 C -318.47481,-1083.9722 -328.22453,-1069.1942 -340.23713,-1069.1942 C -349.19808,-1069.1942 -356.95648,-1075.7906 -360.29259,-1085.3811 L -383.01178,-1085.3811 C -379.02914,-1060.6925 -361.33998,-1042.248 -340.23713,-1042.248 C -316.19901,-1042.248 -296.71249,-1069.0821 -296.71249,-1098.8622 L -296.71249,-1233.6731 L -318.47481,-1233.6731 z M -340.23713,-1125.8244 C -352.26265,-1125.8244 -361.99944,-1137.8965 -361.99944,-1152.7866 L -361.99944,-1182.4546 C -361.99944,-1197.3446 -352.26265,-1209.4168 -340.23713,-1209.4168 C -328.22453,-1209.4168 -318.47481,-1197.3446 -318.47481,-1182.4546 L -318.47481,-1152.7866 C -318.47481,-1137.8965 -328.22453,-1125.8244 -340.23713,-1125.8244"
       style="fill:white;fill-rule:nonzero;stroke:none"
       id="path17855" />
    <path
       d="M -800.32329,-1127.0412 L -800.32329,-1127.0412 C -802.7284,-1127.0412 -804.68093,-1129.4588 -804.68093,-1132.4368 L -804.68093,-1288.8143 L -826.44325,-1288.8143 L -826.44325,-1132.4368 L -826.40446,-1132.4208 C -826.40446,-1114.5848 -814.72806,-1100.111 -800.32329,-1100.111 L -793.80624,-1100.111 L -793.80624,-1127.0412 L -800.32329,-1127.0412"
       style="fill:white;fill-rule:nonzero;stroke:none"
       id="path17857" />
    <path
       d="M -887.43722,-1237.6278 C -906.89788,-1237.6278 -923.52672,-1221.7291 -929.08691,-1199.8743 L -904.8419,-1199.8743 C -900.87218,-1206.3587 -894.51029,-1210.6656 -887.43722,-1210.6656 C -875.4117,-1210.6656 -865.6749,-1198.5935 -865.6749,-1183.7034 C -870.65321,-1179.8448 -898.31191,-1180.9976 -898.31191,-1180.9976 C -917.53982,-1180.9976 -933.13421,-1164.3944 -933.13421,-1140.5543 C -933.13421,-1116.7303 -917.53982,-1097.4212 -898.31191,-1097.4212 C -898.31191,-1097.4212 -876.74355,-1094.5393 -865.6749,-1109.4613 L -865.6749,-1100.111 L -843.91258,-1100.111 L -843.91258,-1183.7034 C -843.91258,-1213.4835 -863.3991,-1237.6278 -887.43722,-1237.6278 z M -865.6749,-1140.5543 C -870.21357,-1119.0518 -898.31191,-1124.3834 -898.31191,-1124.3834 C -904.32467,-1124.3834 -911.37189,-1131.1079 -911.37189,-1140.5543 C -911.37189,-1149.6485 -904.32467,-1156.7412 -898.31191,-1156.7412 C -898.31191,-1156.7412 -868.04121,-1155.7165 -865.6749,-1162.1369 L -865.6749,-1140.5543"
       style="fill:white;fill-rule:nonzero;stroke:none"
       id="path17859" />
    <path
       d="M -690.36088,-1234.938 L -775.23779,-1234.938 L -775.23779,-1207.9758 L -719.45488,-1207.9758 L -777.41015,-1127.0732 L -777.41015,-1100.111 L -690.36088,-1100.111 L -690.36088,-1127.0732 L -748.32907,-1127.0732 L -690.36088,-1207.9758 L -690.36088,-1234.938"
       style="fill:white;fill-rule:nonzero;stroke:none"
       id="path17861" />
    <path
       d="M -1600.8999,-1064.7912 L -1424.2928,-1064.7912 L -1424.2928,-1304.1046 L -1600.8999,-1304.1046 L -1600.8999,-1064.7912 z "
       style="fill:none;stroke:white;stroke-width:9.20867157;stroke-linecap:butt;stroke-linejoin:miter;stroke-miterlimit:4"
       id="path17863" />
    <path
       d="M -1519.6823,-1221.8251 L -1519.6823,-1291.312 L -1530.5958,-1291.312 L -1541.0567,-1221.8251 L -1519.6823,-1221.8251"
       style="fill:white;fill-rule:nonzero;stroke:none"
       id="path17865" />
    <path
       d="M -1544.1859,-1201.0912 L -1562.1725,-1081.6346 L -1519.6823,-1081.6346 L -1519.6823,-1201.0912 L -1544.1859,-1201.0912"
       style="fill:white;fill-rule:nonzero;stroke:none"
       id="path17867" />
    <path
       d="M -1481.0067,-1201.0912 L -1463.0201,-1081.6346 L -1505.5103,-1081.6346 L -1505.5103,-1201.0912 L -1481.0067,-1201.0912"
       style="fill:white;fill-rule:nonzero;stroke:none"
       id="path17869" />
    <path
       d="M -1505.5103,-1221.8251 L -1505.5103,-1291.312 L -1494.5968,-1291.312 L -1484.1359,-1221.8251 L -1505.5103,-1221.8251"
       style="fill:white;fill-rule:nonzero;stroke:none"
       id="path17871" />
    <path
       d="M -1432.2581,-1216.9418 L -1432.2581,-1208.4081 L -1440.8699,-1208.4081 L -1440.8699,-1179.7648 L -1459.8133,-1179.7648 L -1459.8133,-1208.4081 L -1565.3793,-1208.4081 L -1565.3793,-1179.7648 L -1584.3227,-1179.7648 L -1584.3227,-1208.4081 L -1592.9346,-1208.4081 L -1592.9346,-1216.9418 L -1432.2581,-1216.9418"
       style="fill:white;fill-rule:nonzero;stroke:none"
       id="path17873" />
    <path
       d="M -1242.9919,-1241.2783 L -1264.9481,-1216.6537 L -1264.9611,-1250.9968 L -1243.0048,-1274.6928 L -1221.0356,-1274.6928 L -1221.0356,-1086.6139 L -1243.0048,-1086.6139 L -1242.9919,-1241.2783"
       style="fill:white;fill-rule:nonzero;stroke:none"
       id="path17875" />
    <path
       d="M -1324.9206,-1276.534 L -1306.6237,-1276.534 L -1272.3962,-1086.6139 L -1294.3525,-1086.6139 L -1298.5808,-1113.5921 L -1332.9764,-1113.5921 L -1337.2047,-1086.6139 L -1359.161,-1086.6139 L -1324.9206,-1276.534 z M -1315.6751,-1221.8572 L -1316.1019,-1221.8572 L -1329.0972,-1139.2094 L -1302.6669,-1139.2094 L -1315.6751,-1221.8572"
       style="fill:white;fill-rule:nonzero;stroke:none"
       id="path17877" />
  </g>
</svg>
