<?xml version="1.0" encoding="utf-8"?>
<!-- Generator: Adobe Illustrator 15.0.2, SVG Export Plug-In . SVG Version: 6.00 Build 0)  -->
<!DOCTYPE svg PUBLIC "-//W3C//DTD SVG 1.1//EN" "http://www.w3.org/Graphics/SVG/1.1/DTD/svg11.dtd">
<svg version="1.1"
	 id="svg2" xmlns:svg="http://www.w3.org/2000/svg" xmlns:cc="http://creativecommons.org/ns#" xmlns:dc="http://purl.org/dc/elements/1.1/" xmlns:inkscape="http://www.inkscape.org/namespaces/inkscape" xmlns:sodipodi="http://sodipodi.sourceforge.net/DTD/sodipodi-0.dtd" xmlns:rdf="http://www.w3.org/1999/02/22-rdf-syntax-ns#" inkscape:version="0.47 r22583" sodipodi:docname="Hinweiszeichen 1c.svg"
	 xmlns="http://www.w3.org/2000/svg" xmlns:xlink="http://www.w3.org/1999/xlink" x="0px" y="0px" width="960px" height="960px"
	 viewBox="0 0 960 960" enable-background="new 0 0 960 960" xml:space="preserve">
<defs>
	
	
		<inkscape:perspective  id="perspective10" inkscape:vp_y="0 : 1000 : 0" inkscape:vp_z="744.09448 : 526.18109 : 1" sodipodi:type="inkscape:persp3d" inkscape:vp_x="0 : 526.18109 : 1" inkscape:persp3d-origin="372.04724 : 350.78739 : 1">
		</inkscape:perspective>
	
		<inkscape:perspective  id="perspective2825" inkscape:vp_y="0 : 1000 : 0" inkscape:vp_z="960 : 480 : 1" sodipodi:type="inkscape:persp3d" inkscape:vp_x="0 : 480 : 1" inkscape:persp3d-origin="480 : 320 : 1">
		</inkscape:perspective>
	
		<inkscape:perspective  id="perspective2839" inkscape:vp_y="0 : 1000 : 0" inkscape:vp_z="1 : 0.5 : 1" sodipodi:type="inkscape:persp3d" inkscape:vp_x="0 : 0.5 : 1" inkscape:persp3d-origin="0.5 : 0.33333333 : 1">
		</inkscape:perspective>
	
		<inkscape:perspective  id="perspective2859" inkscape:vp_y="0 : 1000 : 0" inkscape:vp_z="690 : 345 : 1" sodipodi:type="inkscape:persp3d" inkscape:vp_x="0 : 345 : 1" inkscape:persp3d-origin="345 : 230 : 1">
		</inkscape:perspective>
	
		<inkscape:perspective  id="perspective3691" inkscape:vp_y="0 : 1000 : 0" inkscape:vp_z="960 : 480 : 1" sodipodi:type="inkscape:persp3d" inkscape:vp_x="0 : 480 : 1" inkscape:persp3d-origin="480 : 320 : 1">
		</inkscape:perspective>
	
		<inkscape:perspective  id="perspective3711" inkscape:vp_y="0 : 1000 : 0" inkscape:vp_z="470.793 : 336 : 1" sodipodi:type="inkscape:persp3d" inkscape:vp_x="0 : 336 : 1" inkscape:persp3d-origin="235.3965 : 224 : 1">
		</inkscape:perspective>
	
		<inkscape:perspective  id="perspective3725" inkscape:vp_y="0 : 1000 : 0" inkscape:vp_z="1 : 0.5 : 1" sodipodi:type="inkscape:persp3d" inkscape:vp_x="0 : 0.5 : 1" inkscape:persp3d-origin="0.5 : 0.33333333 : 1">
		</inkscape:perspective>
	
		<inkscape:perspective  id="perspective3743" inkscape:vp_y="0 : 1000 : 0" inkscape:vp_z="960 : 600 : 1" sodipodi:type="inkscape:persp3d" inkscape:vp_x="0 : 600 : 1" inkscape:persp3d-origin="480 : 400 : 1">
		</inkscape:perspective>
	
		<inkscape:perspective  id="perspective3773" inkscape:vp_y="0 : 1000 : 0" inkscape:vp_z="960 : 480 : 1" sodipodi:type="inkscape:persp3d" inkscape:vp_x="0 : 480 : 1" inkscape:persp3d-origin="480 : 320 : 1">
		</inkscape:perspective>
	
		<inkscape:perspective  id="perspective3792" inkscape:vp_y="0 : 1000 : 0" inkscape:vp_z="960 : 480 : 1" sodipodi:type="inkscape:persp3d" inkscape:vp_x="0 : 480 : 1" inkscape:persp3d-origin="480 : 320 : 1">
		</inkscape:perspective>
	
		<inkscape:perspective  id="perspective3808" inkscape:vp_y="0 : 1000 : 0" inkscape:vp_z="1 : 0.5 : 1" sodipodi:type="inkscape:persp3d" inkscape:vp_x="0 : 0.5 : 1" inkscape:persp3d-origin="0.5 : 0.33333333 : 1">
		</inkscape:perspective>
</defs>
<sodipodi:namedview  id="base" inkscape:zoom="0.29534138" inkscape:cx="1184.8499" inkscape:cy="82.46513" showgrid="false" bordercolor="#666666" pagecolor="#ffffff" borderopacity="1.0" inkscape:pageshadow="2" inkscape:document-units="px" inkscape:pageopacity="0.0" inkscape:window-height="838" inkscape:window-width="1600" inkscape:window-x="-8" inkscape:current-layer="layer1" inkscape:window-y="-8" inkscape:window-maximized="1">
	</sodipodi:namedview>
<g id="layer1" transform="translate(919.1949,91.13026)" inkscape:label="Livello 1" inkscape:groupmode="layer">
	<path id="path2630" fill="#009FE3" d="M-882.556,868.87c-20.226,0-36.639-16.402-36.639-36.631V-54.513
		c0-20.229,16.413-36.617,36.639-36.617H4.167c20.219,0,36.639,16.388,36.639,36.617v886.752c0,20.229-16.42,36.631-36.639,36.631
		H-882.556z"/>
	<path id="path179" fill="#FFFFFF" d="M-882.084,759.064l885.79-0.044l-442.9-767.045L-882.084,759.064"/>
	<g id="g3826" transform="translate(-406.30948,-799.0753)">
		<path id="path181" d="M100.723,1403.716c-10.354-10.361-24.131-16.06-38.777-16.06c-7.102,0-13.883,1.366-20.115,3.835
			l-14.02-29.627c0.926-1.59,1.777-3.056,2.535-4.365l11.152-0.529c2.4-0.116,4.256-2.154,4.143-4.547
			c-0.117-2.402-2.152-4.25-4.545-4.134l-1.256,0.059c6.199-5.119,0.633-15.381-1.154-19.257
			c-2.182-4.713-10.998-19.97-18.75-34.356c-7.752-14.395-16.197-29.071-27.789-38.845c-11.586-9.781-27.202-13.359-27.202-13.359
			c-2.898,0-5.078-4.349-5.802-7.239c-1.446-5.069-1.446-10.866-5.072-15.936c-4.339-5.798-11.586-8.688-18.833-7.247l-4.345,2.179
			c-6.519,5.789-14.578,18.014-13.037,19.554c1.541,1.541,2.169,0,3.621,0.722c2.175,2.178,2.897,5.068,5.067,7.247
			c2.18,2.898,0.61,8.953,3.161,9.02c1.457,0.033,1.731,0.215,3.362-2.501c0.724,1.449,1.632,2.261,2.898,3.255
			c1.715,0.819,0.835,1.109,1.267,1.358c1.283,0.745,1.087,2.451,2.169,2.989c3.621,0.721,7.433-2.534,10.33-1.085
			c2.17,1.449,5.067-0.729,6.514,1.449c0.723,2.899,2.169,5.79,1.451,7.968c0,0-2.085-2.658-0.358,0.937
			c-2.349,4.364-3.733,12.605-5.532,19.066c-2.31,8.299-1.771,17.774-1.497,23.216c-4.843,2.111-10.829,5.855-16.826,10.742
			c-4.333,3.536-8.071,7.181-10.975,10.561v-0.011l-4.182,4.398c-1.379,0.216-8.71,1.565-11.742,6.602
			c-1.031,1.723-1.968,4.58-0.561,8.456l0.213,0.605l5.549,5.549l-1.727,5.972c-3.391-7.306-13.267-6.957-13.267-6.957l0.627,16.979
			c0,0-0.263,4.39,2.999,4.39c2.932,0,4.983-1.375,6.424-3.263l-5.622,19.488c-5.98-2.187-12.354-3.338-18.912-3.338
			c-30.245,0-54.846,24.599-54.846,54.83c0,14.651,5.706,28.426,16.064,38.778c10.358,10.354,24.13,16.061,38.781,16.061
			c14.646,0,28.418-5.707,38.776-16.061c10.364-10.353,16.064-24.127,16.064-38.778c0-14.644-5.7-28.417-16.064-38.771
			c-3.946-3.95-8.385-7.214-13.183-9.748l3.727-12.913l44.6,39.988c-0.51,0.555-0.991,1.159-1.429,1.839
			c-0.482,0.969-0.482,3.379,0,3.379c2.539,0.911,5.011,0.795,7.443,0.166l2.551,2.294c-1.8,2.957-2.842,6.436-2.842,10.146
			c0,5.234,2.04,10.154,5.74,13.848c3.699,3.703,8.621,5.74,13.855,5.74c5.229,0,10.15-2.037,13.844-5.74
			c0.084-0.075,0.146-0.157,0.225-0.231c0.084,0.049,0.174,0.107,0.246,0.157c-0.992,1.425-2.639,3.479-5.33,6.46
			c-9.176,10.139-5.924,11.538-3.273,12.747c2.658,1.201,10.633-4.538,12.563-6.948c1.934-2.419,5.402-4.912,5.402-4.912
			s-0.201-1.855,1.727-2.824c0.773-0.381,1.535-0.224,2.18,0.091c2.494,8.986,7.266,17.235,14.035,24.011
			c10.359,10.354,24.131,16.06,38.781,16.06c14.646,0,28.424-5.706,38.777-16.06c10.357-10.354,16.064-24.127,16.064-38.778
			c0-14.644-5.707-28.418-16.064-38.771V1403.716z M-84.039,1408.835c8.99,8.986,13.945,20.946,13.945,33.651
			c0,26.247-21.355,47.6-47.599,47.6c-12.718,0-24.668-4.953-33.664-13.939c-8.984-8.995-13.934-20.946-13.934-33.66
			c0-12.705,4.949-24.665,13.934-33.651c8.996-8.987,20.946-13.939,33.664-13.939c5.863,0,11.569,1.068,16.895,3.089l-4.558,15.786
			l-15.722,26.894c-1.015,1.724-0.432,3.942,1.3,4.953c1.727,1.011,3.94,0.431,4.949-1.3l15.958-27.283
			c0.146-0.257,0.264-0.529,0.348-0.82l4.366-15.099C-90.506,1403.202-87.093,1405.778-84.039,1408.835L-84.039,1408.835z
			 M56.099,1438.602l-41.398-1.864c1.266-10.535,5.969-20.283,13.592-27.903c3.043-3.049,6.441-5.615,10.084-7.703L56.099,1438.602z
			 M-56.478,1330.532c8.413-6.858,16.104-7.123,19.483-17.262c2.83-4.538,3.172-8.704,5.313-16.415
			c0.393-1.399,3.066-5.889,3.381-7.247c2.465,3.652,3.447,4.34,7.006,9.061c18.834,24.988,21.002,32.592,21.002,32.592
			s-0.779,4.63-4.881,5.848c-4.104,1.209-8.51,2.865-13,4.937c-8.693,4.024-15.997,8.829-20.71,13.302H-80.95l3.055-10.61
			l1.49,0.695l5.622-5.35C-66.462,1337.878-61.472,1334.598-56.478,1330.532L-56.478,1330.532z M-88.708,1345.697
			c-0.409-1.516-0.067-2.386,0.252-2.924c0.857-1.425,2.803-2.427,4.591-3.064c-0.051,0.397-0.051,0.762-0.011,1.093
			c-0.382,0.406-0.679,0.887-0.841,1.458l-1.665,5.765L-88.708,1345.697z M-37.668,1416.786l-48.395-43.385
			c-0.022-0.024-0.056-0.041-0.078-0.065l2.695-9.367c0.258,0.042,0.521,0.075,0.791,0.075h38.098
			c-0.084,0.786,0.011,1.523,0.313,2.178c0.449,0.961-0.207,3.992,0.97,4.514c0.106,5.268,2.467,9.525,4.114,16.499
			c2.596,10.966,6.451,20.135,10.004,24.55C-31.652,1414.011-34.736,1415.295-37.668,1416.786L-37.668,1416.786z M-18.453,1454.106
			c-4.074,0-7.902-1.581-10.785-4.464c-2.869-2.874-4.46-6.7-4.46-10.775c0-2.552,0.622-5.003,1.792-7.189l11.031,9.89
			c0.623,0.555,1.418,0.878,2.254,0.919l4.596,0.208c2.063,2.956,4.244,5.333,6.172,7.089
			C-10.596,1452.45-14.334,1454.106-18.453,1454.106L-18.453,1454.106z M-27.057,1426.294c1.047-0.721,2.174-1.3,3.369-1.731
			c0.852,2.138,1.77,4.954,2.689,7.156L-27.057,1426.294z M-5.09,1369.302c-5.914,9.565-11.318,20.581-13.896,28.839
			c-0.139-3.264-0.627-6.94-1.586-10.99c-1.328-5.599-3.061-15.53-4.832-19.796c5.398-1.035,10.252-0.687,16.613-3.313h7.77
			C-2.871,1366.296-4.535,1368.399-5.09,1369.302z M7.447,1436.407l-2.242-0.099l-3.379-6.13c-0.438-3.205-2.063-7.33-2.898-10.866
			c-0.93-3.935,1.789-5.334-1.631-13.327c5.309-6.767,9.613-11.354,16.17-21.128c3.504-5.21,6.889-10.594,9.871-15.505
			l11.939,25.245C20.166,1403.046,9.443,1418.427,7.447,1436.407L7.447,1436.407z M61.945,1490.086
			c-12.711,0-24.662-4.953-33.652-13.939c-5.896-5.897-10.049-13.069-12.207-20.889l0.039-0.024c0,0,1.451-1.449-0.477-4.829
			c-0.225-0.39-0.51-0.812-0.813-1.251c-0.242-1.706-0.398-3.438-0.449-5.176l47.402,2.128c1.268,0.059,2.473-0.555,3.178-1.606
			c0.701-1.061,0.797-2.41,0.258-3.562l-20.307-42.903c5.363-2.055,11.115-3.14,17.027-3.14c12.719,0,24.668,4.953,33.66,13.939
			c8.996,8.987,13.945,20.947,13.945,33.652C109.551,1468.733,88.195,1490.086,61.945,1490.086"/>
		<path id="path183" sodipodi:nodetypes="cccccccccccccccccccccccccccccccccccccccccccccccccc" d="M-237.798,1525.337h51.96v-23.258
			h-51.96V1525.337z M-167.178,1525.337h51.96v-23.258h-51.96V1525.337z M-96.558,1525.337h51.96v-23.258h-51.96V1525.337z
			 M-25.938,1525.337h51.959v-23.258h-51.959V1525.337z M44.682,1525.337h51.961v-23.258H44.682V1525.337z M115.281,1525.337h51.961
			v-23.258h-51.961V1525.337z M185.902,1525.337h51.959v-23.258h-51.959V1525.337z M256.521,1525.337h51.961v-23.258h-51.961
			V1525.337z M-308.419,1525.337h51.96v-23.258h-51.96V1525.337z M-379.028,1525.337h51.96v-23.258h-51.96V1525.337z"/>
		<path id="path3822" sodipodi:nodetypes="ccccccccccccccccccccccccccccccccccccccccccccccccccccccc" d="M-162.863,1338.772h25.064
			v-16.636h-25.064V1338.772z M-120.294,1338.772h25.064v-16.636h-25.064V1338.772z M-77.709,1338.772h25.057v-16.636h-25.057
			V1338.772z M-35.139,1338.772h25.057v-16.636h-25.057V1338.772z M7.432,1338.772h25.057v-16.636H7.432V1338.772z M50.008,1338.772
			h25.064v-16.636H50.008V1338.772z M92.578,1338.772h25.064v-16.636H92.578V1338.772z M135.148,1338.772h25.064v-16.636h-25.064
			V1338.772z M-205.433,1338.772h25.064v-16.636h-25.064V1338.772z M-248.017,1338.772h25.064v-16.636h-25.064V1338.772z
			 M177.724,1338.772h25.057v-16.636h-25.057V1338.772z"/>
		<path id="path3824" sodipodi:nodetypes="ccccccccccccccccccccccccccccccccccccccccccccccccccccccc" d="M-118.9,1088.215h16.079
			v-12.307H-118.9V1088.215z M-91.591,1088.215h16.079v-12.307h-16.079V1088.215z M-64.273,1088.215h16.074v-12.307h-16.074
			V1088.215z M-36.964,1088.215h16.074v-12.307h-16.074V1088.215z M-9.656,1088.215H6.418v-12.307H-9.656V1088.215z
			 M17.658,1088.215h16.078v-12.307H17.658V1088.215z M44.967,1088.215h16.078v-12.307H44.967V1088.215z M72.275,1088.215h16.08
			v-12.307h-16.08V1088.215z M-146.209,1088.215h16.078v-12.307h-16.078V1088.215z M-173.527,1088.215h16.079v-12.307h-16.079
			V1088.215z M99.59,1088.215h16.074v-12.307H99.59V1088.215z"/>
		<path id="path145" d="M49.527,1121.503c-18.25-24.183-26.004-48.819-26.004-48.819c-1.725-10.346-5.277-20.692-6.904-25.128
			c2.328,0.021,3.709,0.03,3.709,0.03s-1.516-7.302-7.449-24.183c-5.934-16.888-8.98-29.661-7.158-34.908
			c1.828-5.248,1.074-16.435,1.074-16.435c10.727,0.454,17.861,13.695,17.861,13.695c-0.455,3.193,0.33,26.691,0,28.976
			c-0.32,2.285,2.285,2.739,2.285,2.739s0.693,0.052,1.783,0.126c0.209,2.903,0.441,8.136-0.186,12.192
			c-0.91,5.932-2.053,9.579,1.828,8.209c1.016-0.357,1.643-0.603,2.008-0.782c-0.104,0.782-0.439,2.717-1.328,4.66
			c-1.135,2.516-1.365,4.012,0.455,5.024c1.828,1.005,8.547-1.258,10.502-10.726c1.955-9.46,1.992-12.065,0.395-14.573
			c-1.066-1.675-2.201-2.449-2.432-3.253c1.434,0.082,2.619,0.126,3.283,0.126c2.963,0,1.344-3.23,0.889-8.023
			s-0.537-29.259-0.537-29.259s2.053,0-4.793-9.125c-6.844-9.125-29.893-29.661-39.477-35.363c-3.367-2.009-5.949,0.447-8.443-1.384
			c-4.336-3.179-9.33-3.201-9.33-3.201l-1.291-1.757c0-0.454,0.463-0.454,0.918-0.454c-0.455-2.739-2.283-5.478-1.828-8.217
			c0.455-2.739,1.828-5.479,1.828-8.671c0-0.908,1.365,0,1.822-0.454c0.918-2.278,1.373-5.933-0.457-7.756
			c-0.91-0.461-2.775,1.474-3.447,0.707c-2.127-2.434-1.111-9.378-5.217-9.833c-7.763-0.461-22.625-1.042-23.737-0.461
			c-1.112,0.587-0.455,16.427-7.756,20.989c-0.455,0.462-1.828,1.37-0.91,1.832c1.821,0.908,4.561,0,5.927,1.37
			c0.463,0.908-0.911,2.277,0.918,3.193c0.455,0.454-0.455,1.823-0.918,2.277c-0.455,1.832-0.911,4.563,0.463,5.933
			c0.91,1.369,4.104-0.455,5.016,1.369s1.373,4.109,2.284,5.933c0.455,0.915,2.739,0.915,4.561,1.369
			c0.91,0.454,0.455,1.37,0.455,1.824c-0.91,1.37-2.731,0-3.194,0.461c0-0.007-10.436,7.786-17.28,22.62
			c-6.845,14.827-10.271,21.89-13.233,24.86c-2.971,2.962-21.505,15.913-21.505,15.913s-4.202,4.086-2.881,7.622
			c-5.568,1.89-18.16,6.959-15.48,13.576c3.426,8.44,9.375,6.952,13.465,4.332c3.248-2.077,6.815-8.642,8.137-11.239
			c1.672,0.953,3.561,1.474,5.553,1.206c5.017-0.686,24.416-19.397,24.416-19.397s7.068-6.617,13.913-10.265
			c0,0,5.083,37.447,6.03,43.148c0.747,4.436,1.382,8.723,1.62,10.406c-4.448,7.115-14.898,24.867-22.854,46.542
			c-10.384,28.292-22.9,56.419-26.096,64.175c0,0,1.016,0.596,2.672,1.533c-1.88,0.856-4.754,1.623-9.054,1.682
			c-10.039,0.143-18.257,0.269-18.257,0.269s-2.284,0.164-2.964,1.995c-0.687,1.823,0.68,3.395,0.68,3.395l17.884,9.854
			l11.323,0.438v4.563l13.122,2.783c0,0,1.68,0.61,2.135-1.675c0.328-1.63,2.643-9.505,3.941-13.889
			c2.762,1.124,5.307,1.973,7.27,2.285c0,0,7.472-22.032,10.457-30.606c2.979-8.575,11.869-31.388,15.668-39.382
			c3.807-7.994,15.862-24.057,19.057-28.619c0.043-0.075,0.088-0.149,0.125-0.224c10.436,11.254,11.57,18.98,17.422,30.837
			c6.047,12.229,8.383,14.76,18.885,29.817c10.494,15.058,19.697,29.959,19.697,29.959c0.889-0.409,1.748-0.818,2.592-1.235
			c-1.592,5.255-5.158,16.114-8.242,18.511c-4.111,3.201-6.203,4.161-6.209,5.479c0,1.317,0.68,1.897,2.275,1.757
			c1.598-0.142,18.027,0.357,18.027,0.357s6.844-6.841,8.209-12.55c0,0,2.486-2.047,3.629-1.361
			c1.135,0.685,0.799,0.015,0.799,0.015l2.881-3.438c0,0,0.209-4.451-1.389-6.729c0,0-1.193-6.527-5.105-11.298
			c4.912-3.818,7.285-6.64,7.285-6.64S67.785,1145.686,49.527,1121.503"/>
	</g>
</g>
</svg>
