<?xml version="1.0" encoding="UTF-8" standalone="no"?>
<!-- Created with Inkscape (http://www.inkscape.org/) -->

<svg
   xmlns:dc="http://purl.org/dc/elements/1.1/"
   xmlns:cc="http://creativecommons.org/ns#"
   xmlns:rdf="http://www.w3.org/1999/02/22-rdf-syntax-ns#"
   xmlns:svg="http://www.w3.org/2000/svg"
   xmlns="http://www.w3.org/2000/svg"
   xmlns:sodipodi="http://sodipodi.sourceforge.net/DTD/sodipodi-0.dtd"
   xmlns:inkscape="http://www.inkscape.org/namespaces/inkscape"
   width="967.37268"
   height="960.62341"
   id="svg3544"
   version="1.1"
   inkscape:version="0.47 r22583"
   sodipodi:docname="Hinweiszeichen 26.svg">
  <defs
     id="defs3546">
    <inkscape:perspective
       sodipodi:type="inkscape:persp3d"
       inkscape:vp_x="0 : 526.18109 : 1"
       inkscape:vp_y="0 : 1000 : 0"
       inkscape:vp_z="744.09448 : 526.18109 : 1"
       inkscape:persp3d-origin="372.04724 : 350.78739 : 1"
       id="perspective3552" />
    <inkscape:perspective
       id="perspective3566"
       inkscape:persp3d-origin="480 : 400 : 1"
       inkscape:vp_z="960 : 600 : 1"
       inkscape:vp_y="0 : 1000 : 0"
       inkscape:vp_x="0 : 600 : 1"
       sodipodi:type="inkscape:persp3d" />
    <inkscape:perspective
       id="perspective3583"
       inkscape:persp3d-origin="0.5 : 0.33333333 : 1"
       inkscape:vp_z="1 : 0.5 : 1"
       inkscape:vp_y="0 : 1000 : 0"
       inkscape:vp_x="0 : 0.5 : 1"
       sodipodi:type="inkscape:persp3d" />
    <clipPath
       clipPathUnits="userSpaceOnUse"
       id="clipPath3536">
      <path
         d="m 1.526e-6,109.92 595.319998474,0 0,163.8 -595.319998474,0 0,-163.8 z"
         clip-rule="evenodd"
         id="path3538" />
    </clipPath>
    <inkscape:perspective
       id="perspective3634"
       inkscape:persp3d-origin="480 : 400 : 1"
       inkscape:vp_z="960 : 600 : 1"
       inkscape:vp_y="0 : 1000 : 0"
       inkscape:vp_x="0 : 600 : 1"
       sodipodi:type="inkscape:persp3d" />
    <inkscape:perspective
       id="perspective3660"
       inkscape:persp3d-origin="480 : 320 : 1"
       inkscape:vp_z="960 : 480 : 1"
       inkscape:vp_y="0 : 1000 : 0"
       inkscape:vp_x="0 : 480 : 1"
       sodipodi:type="inkscape:persp3d" />
    <inkscape:perspective
       id="perspective3686"
       inkscape:persp3d-origin="480 : 400 : 1"
       inkscape:vp_z="960 : 600 : 1"
       inkscape:vp_y="0 : 1000 : 0"
       inkscape:vp_x="0 : 600 : 1"
       sodipodi:type="inkscape:persp3d" />
    <inkscape:perspective
       id="perspective4492"
       inkscape:persp3d-origin="500 : 291.64766 : 1"
       inkscape:vp_z="1000 : 437.4715 : 1"
       inkscape:vp_y="0 : 1000 : 0"
       inkscape:vp_x="0 : 437.4715 : 1"
       sodipodi:type="inkscape:persp3d" />
    <inkscape:perspective
       id="perspective4526"
       inkscape:persp3d-origin="600 : 320 : 1"
       inkscape:vp_z="1200 : 480 : 1"
       inkscape:vp_y="0 : 1000 : 0"
       inkscape:vp_x="0 : 480 : 1"
       sodipodi:type="inkscape:persp3d" />
    <inkscape:perspective
       id="perspective4598"
       inkscape:persp3d-origin="600 : 320 : 1"
       inkscape:vp_z="1200 : 480 : 1"
       inkscape:vp_y="0 : 1000 : 0"
       inkscape:vp_x="0 : 480 : 1"
       sodipodi:type="inkscape:persp3d" />
    <inkscape:perspective
       id="perspective4878"
       inkscape:persp3d-origin="0.5 : 0.33333333 : 1"
       inkscape:vp_z="1 : 0.5 : 1"
       inkscape:vp_y="0 : 1000 : 0"
       inkscape:vp_x="0 : 0.5 : 1"
       sodipodi:type="inkscape:persp3d" />
    <clipPath
       clipPathUnits="userSpaceOnUse"
       id="clipPath4826">
      <path
         d="m 0,638.4 595.32,0 0,118.44 L 0,756.84 0,638.4 z"
         clip-rule="evenodd"
         id="path4828" />
    </clipPath>
    <inkscape:perspective
       inkscape:vp_x="0 : 526.18109 : 1"
       inkscape:vp_y="0 : 1000 : 0"
       inkscape:vp_z="744.09448 : 526.18109 : 1"
       inkscape:persp3d-origin="372.04724 : 350.78739 : 1"
       id="perspective10"
       sodipodi:type="inkscape:persp3d" />
    <inkscape:perspective
       inkscape:vp_x="0 : 480 : 1"
       inkscape:vp_y="0 : 1000 : 0"
       inkscape:vp_z="960 : 480 : 1"
       inkscape:persp3d-origin="480 : 320 : 1"
       id="perspective2825"
       sodipodi:type="inkscape:persp3d" />
    <inkscape:perspective
       inkscape:vp_x="0 : 0.5 : 1"
       inkscape:vp_y="0 : 1000 : 0"
       inkscape:vp_z="1 : 0.5 : 1"
       inkscape:persp3d-origin="0.5 : 0.33333333 : 1"
       id="perspective2839"
       sodipodi:type="inkscape:persp3d" />
    <inkscape:perspective
       inkscape:vp_x="0 : 345 : 1"
       inkscape:vp_y="0 : 1000 : 0"
       inkscape:vp_z="690 : 345 : 1"
       inkscape:persp3d-origin="345 : 230 : 1"
       id="perspective2859"
       sodipodi:type="inkscape:persp3d" />
    <inkscape:perspective
       id="perspective4972"
       inkscape:persp3d-origin="0.5 : 0.33333333 : 1"
       inkscape:vp_z="1 : 0.5 : 1"
       inkscape:vp_y="0 : 1000 : 0"
       inkscape:vp_x="0 : 0.5 : 1"
       sodipodi:type="inkscape:persp3d" />
    <inkscape:perspective
       id="perspective4989"
       inkscape:persp3d-origin="480 : 320 : 1"
       inkscape:vp_z="960 : 480 : 1"
       inkscape:vp_y="0 : 1000 : 0"
       inkscape:vp_x="0 : 480 : 1"
       sodipodi:type="inkscape:persp3d" />
    <inkscape:perspective
       id="perspective5034"
       inkscape:persp3d-origin="0.5 : 0.33333333 : 1"
       inkscape:vp_z="1 : 0.5 : 1"
       inkscape:vp_y="0 : 1000 : 0"
       inkscape:vp_x="0 : 0.5 : 1"
       sodipodi:type="inkscape:persp3d" />
    <clipPath
       clipPathUnits="userSpaceOnUse"
       id="clipPath4838">
      <path
         d="m 0,478.92 595.32,0 0,124.44 -595.32,0 0,-124.44 z"
         clip-rule="evenodd"
         id="path4840" />
    </clipPath>
    <inkscape:perspective
       id="perspective5076"
       inkscape:persp3d-origin="480 : 320 : 1"
       inkscape:vp_z="960 : 480 : 1"
       inkscape:vp_y="0 : 1000 : 0"
       inkscape:vp_x="0 : 480 : 1"
       sodipodi:type="inkscape:persp3d" />
  </defs>
  <sodipodi:namedview
     id="base"
     pagecolor="#ffffff"
     bordercolor="#666666"
     borderopacity="1.0"
     inkscape:pageopacity="0.0"
     inkscape:pageshadow="2"
     inkscape:zoom="0.41357422"
     inkscape:cx="953.91635"
     inkscape:cy="431.50553"
     inkscape:document-units="px"
     inkscape:current-layer="layer1"
     showgrid="false"
     inkscape:window-width="1600"
     inkscape:window-height="837"
     inkscape:window-x="-4"
     inkscape:window-y="-4"
     inkscape:window-maximized="1"
     showguides="true"
     inkscape:guide-bbox="true" />
  <metadata
     id="metadata3549">
    <rdf:RDF>
      <cc:Work
         rdf:about="">
        <dc:format>image/svg+xml</dc:format>
        <dc:type
           rdf:resource="http://purl.org/dc/dcmitype/StillImage" />
        <dc:title></dc:title>
      </cc:Work>
    </rdf:RDF>
  </metadata>
  <g
     inkscape:label="Livello 1"
     inkscape:groupmode="layer"
     id="layer1"
     transform="translate(356.89825,200.76072)">
    <path
       d="m 585.88097,759.86271 c 6.56907,0 12.74312,-2.02532 17.38852,-5.70771 4.6444,-3.66638 7.20492,-8.55756 7.20492,-13.76093 l 0,-921.68918 c 0,-5.20121 -2.56052,-10.09055 -7.20492,-13.75985 -4.6454,-3.67846 -10.81945,-5.70576 -17.38852,-5.70576 l -918.18639,0 c -13.56488,0 -24.59283,8.73297 -24.59283,19.46561 l 0,921.68918 c 0,5.20337 2.54842,10.09455 7.20521,13.76093 4.64521,3.68239 10.81946,5.70771 17.38762,5.70771 l 918.18639,0 z"
       style="fill:#ffffff;fill-rule:nonzero;stroke:none;fill-opacity:1"
       id="path14525" />
    <path
       d="m -332.30542,753.44254 c -4.40195,0 -8.53736,-1.36088 -11.65352,-3.82648 -3.11604,-2.45759 -4.83051,-5.73173 -4.83051,-9.22199 l 0,-921.68918 c 0,-3.47665 1.71447,-6.76063 4.83051,-9.2191 3.11616,-2.46759 7.25157,-3.82523 11.65352,-3.82523 l 918.18639,0 c 4.40256,0 8.53807,1.35764 11.65382,3.82523 3.11675,2.45847 4.83081,5.74245 4.83081,9.2191 l 0,921.68918 c 0,7.19668 -7.39032,13.04847 -16.48463,13.04847 l -918.18639,0"
       style="fill:#176fc1;fill-rule:nonzero;stroke:none;fill-opacity:1"
       id="path271" />
    <path
       id="path10458"
       style="fill:#ffffff;fill-rule:nonzero;stroke:none"
       d="M 83.824945,258.95377 C 68.05647,243.20002 47.120099,234.52148 24.830527,234.52148 c -10.659388,0 -20.8578904,2.03676 -30.2425565,5.70431 l -19.3280585,-42.95829 7.795922,-12.37255 c 13.6895972,2.77125 27.182996,5.46013 27.918456,5.46013 7.648851,0 13.836566,-6.19364 13.836566,-13.83958 0,-7.6327 -6.187715,-13.82575 -13.836566,-13.82575 -0.382509,0 -57.052827,0.0544 -57.052827,0.0544 -4.452003,0 -8.0706,3.61263 -8.0706,8.06722 0,4.46862 3.618597,8.06751 8.0706,8.06751 l 0,0.0814 c 0,0 8.472576,1.73866 18.87706,3.8568 l -6.256409,9.94159 -146.927214,0 c 3.80491,-11.42135 6.31522,-18.95942 6.31522,-18.95942 0.0391,-0.13533 0.0587,-0.25791 0.0978,-0.39421 0.0298,-0.14906 0.069,-0.28478 0.0886,-0.4206 0.0196,-0.14944 0,-0.28526 0.0196,-0.43461 0,-0.13581 0.0103,-0.27163 0,-0.40745 0,-0.14934 -0.0391,-0.28516 -0.069,-0.42098 -0.0103,-0.13581 -0.0289,-0.27164 -0.069,-0.39392 -0.0391,-0.13581 -0.0978,-0.258 -0.13728,-0.39381 -0.0495,-0.12229 -0.0978,-0.25801 -0.14707,-0.3803 -0.069,-0.12218 -0.14708,-0.23084 -0.21577,-0.33948 -0.069,-0.12229 -0.13729,-0.24448 -0.21577,-0.35313 -0.0886,-0.10866 -0.17653,-0.20377 -0.27457,-0.29879 -0.0978,-0.10866 -0.1961,-0.21731 -0.28436,-0.31243 -0.10783,-0.0951 -0.23534,-0.16298 -0.34318,-0.24447 -0.10792,-0.0814 -0.21576,-0.17652 -0.33348,-0.24438 -0.12739,-0.0814 -0.27457,-0.12228 -0.40197,-0.19014 -0.11772,-0.0544 -0.24523,-0.12228 -0.36284,-0.16298 l -23.95669,-8.33895 7.16829,-18.83723 57.75893,-0.63839 17.10212,15.46918 c 1.75527,1.57537 4.452,1.43956 6.04064,-0.31244 1.58864,-1.75198 1.46113,-4.45468 -0.29424,-6.04369 l -18.3377,-16.58267 -1.24537,-1.12733 -1.67691,0.0136 -62.3579,0.69262 -2.91249,0.0408 -12.38533,32.51364 4.15787,1.45319 24.13322,8.39357 -21.71108,65.12239 c -9.5513,-3.72148 -19.80865,-5.70431 -30.36018,-5.70431 -46.00115,0 -83.41204,37.42951 -83.41204,83.42969 0,22.27295 8.67855,43.22893 24.42739,58.98366 15.75867,15.75375 36.69502,24.43229 58.98465,24.43229 22.27982,0 43.23574,-8.67854 58.98465,-24.43229 15.7587,-15.75473 24.43715,-36.71071 24.43715,-58.98366 0,-22.28669 -8.67845,-43.22893 -24.43715,-58.9974 -6.18771,-6.19265 -13.21882,-11.27229 -20.77951,-15.18401 2.02017,-6.07007 4.05981,-12.19604 6.06031,-18.17198 l 63.46609,67.74361 c -4.39319,5.39245 -7.01143,12.25095 -7.01143,19.72038 0,8.36572 3.25565,16.22936 9.16879,22.15135 5.92302,5.92102 13.78765,9.18062 22.16217,9.18062 1.25516,0 2.49085,-0.0951 3.706761,-0.24417 l 1.568969,6.98009 -10.15926,0 0,9.7788 28.104765,0 0,-9.7788 -12.934464,0 -1.784737,-7.93129 c 5.109088,-1.42584 9.796426,-4.12844 13.650358,-7.98525 4.618746,-4.60404 7.580156,-10.40345 8.678455,-16.70496 l 14.150483,0.54327 c 0.284359,21.866 8.923677,42.38657 24.407794,57.8834 15.748804,15.75375 36.7048452,24.43229 58.984633,24.43229 22.289573,0 43.225944,-8.67854 58.994418,-24.43229 15.758693,-15.75473 24.437255,-36.71071 24.437255,-58.98366 0,-22.28669 -8.678562,-43.22893 -24.437255,-58.9974 z m -270.809625,10.37601 c 12.98349,12.98348 20.14211,30.25916 20.14211,48.62139 0,37.90511 -30.84073,68.735 -68.75174,68.735 -18.35731,0 -35.62613,-7.14386 -48.60962,-20.12734 -12.98348,-12.98447 -20.14204,-30.24544 -20.14204,-48.60766 0,-18.36223 7.15856,-35.63791 20.14204,-48.62139 12.98349,-12.98349 30.25231,-20.12735 48.60962,-20.12735 8.95312,0 17.64147,1.71119 25.71202,4.95706 l -15.10164,45.32062 c -1.14733,3.11054 -5.6484,12.03326 -12.12053,14.46422 -2.20642,0.82862 -3.32432,3.28705 -2.49079,5.50032 0.82372,2.21427 3.2949,3.34101 5.51112,2.51335 11.49293,-4.31966 16.96482,-19.04179 17.18055,-19.66644 0.0294,-0.0402 6.70749,-20.12735 14.79762,-44.39686 5.48171,3.06935 10.57113,6.88596 15.12128,11.43508 z m 173.757056,-25.57375 c -24.809767,12.7805 -42.412003,37.62073 -45.010677,66.73846 l -14.121028,-0.52954 c -0.706005,-7.21152 -3.844045,-13.87977 -9.031508,-19.06828 -0.490342,-0.48834 -1.000251,-0.93649 -1.520049,-1.38463 l 52.698872,-83.55227 16.98439,37.79626 z m 6.0015066,13.35123 25.3295654,56.2938 -61.671573,-2.34959 c 1.5494,-15.75374 8.453007,-30.36702 19.789048,-41.72169 4.961913,-4.94334 10.541669,-9.0453 16.5529596,-12.22252 z m -102.4264426,43.17499 -6.91339,-7.37528 c 1.49059,-0.97769 3.07923,-1.75141 4.73646,-2.36331 l 2.17693,9.73859 z m 2.56932,-10.933 c 1.16689,-0.17651 2.34367,-0.29909 3.54001,-0.29909 2.91249,0 5.736719,0.54327 8.384315,1.53468 l -8.600075,13.6356 -3.32425,-14.87119 z m 20.191022,6.45057 c 0.107934,0.10883 0.215766,0.19023 0.313814,0.28536 3.716542,3.72147 6.040643,8.46083 6.766319,13.59441 l -15.444878,-0.5972 8.364745,-13.28257 z m -96.748532,-93.26244 144.014718,0 -51.541662,81.73224 c -3.853934,-1.65727 -8.05093,-2.55356 -12.375536,-2.55356 -1.75527,0 -3.46164,0.19024 -5.14833,0.46187 l -3.49098,-15.57821 11.08103,0 0,-9.79156 -28.12434,9.79156 12.05194,0 3.73621,16.74615 c -2.95173,0.97768 -5.69747,2.39076 -8.17843,4.15588 l -66.64337,-71.13852 c 1.61809,-4.83546 3.1576,-9.49344 4.61875,-13.82585 z m 80.09752,134.52227 c -6.41326,0 -12.43434,-2.49864 -16.9746,-7.03502 -4.5207,-4.53637 -7.02133,-10.55252 -7.02133,-16.96286 0,-5.22869 1.68669,-10.18576 4.73647,-14.30145 l 16.14109,17.22175 0.68644,0.74625 4.5207,20.22345 c -0.68644,0.054 -1.38276,0.10788 -2.08877,0.10788 z m 6.90361,-1.03163 -4.15786,-18.57991 20.671581,0.78842 c -1.872999,8.4883 -8.256809,15.30561 -16.513721,17.79149 z m 121.470147,50.65815 c -18.3671506,0 -35.626115,-7.14386 -48.609604,-20.12734 -12.591299,-12.59026 -19.661545,-29.21382 -20.083294,-46.9504 l 68.526155,2.60747 4.255908,-0.59817 -0.176527,-5.43267 L 0.58947662,253.6025 c 7.63906688,-2.87911 15.83706738,-4.40007 24.24105038,-4.40007 18.376935,0 35.6359,7.14386 48.619388,20.12735 12.98349,12.98348 20.122429,30.25916 20.122429,48.62139 0,37.90511 -30.821056,68.735 -68.741817,68.735" />
    <path
       id="path10460"
       style="fill:#ffffff;fill-rule:nonzero;stroke:none"
       d="m 545.65869,389.45982 c 0,0 0,-19.77929 -4.94441,-40.38668 -3.68251,-15.35274 -12.41231,-30.25216 -16.60891,-36.84059 -0.486,-1.2431 -1.24314,-2.43385 -2.33669,-3.53395 l -7.68287,-1.54032 c 10.81401,-5.1397 18.29133,-16.16869 18.29133,-28.95766 0,-17.69499 -14.33769,-32.05138 -32.03081,-32.05138 -17.71188,0 -32.0589,14.35639 -32.0589,32.05138 0,11.06732 2.10296,22.26455 10.61778,28.02486 2.77588,1.86466 6.86037,2.88718 11.09436,3.43115 l -6.15004,0.68604 c 0,0 0.47667,0 -0.37381,1.88988 -4.21536,1.17767 -13.58066,2.56285 -30.93728,-0.24581 -16.98282,-2.73202 -23.03009,-14.2003 -25.1891,-21.59254 1.3739,-1.24216 2.65444,-2.66658 3.76664,-4.21999 5.48646,-7.70159 2.19651,-18.6792 -4.94431,-23.62355 -2.48619,-1.72164 -4.36494,-3.71528 -5.76692,-5.5659 2.84145,-5.12661 4.1219,-9.26902 4.1219,-9.26902 -6.04729,-17.03514 -20.88031,-60.4389 -20.88031,-60.4389 -3.84144,-36.80143 -3.84144,-82.94926 -3.84144,-82.94926 0,0 0.99067,-7.935083 -9.88872,-14.834628 C 363.80169,72.936719 343.62238,66.23137 335.78057,64.030711 l -0.85982,-10.472217 c 6.96314,-5.630957 12.24405,-14.743992 15.13213,-24.54316 0.14018,-0.504811 0.27104,-1.00962 0.40188,-1.514524 7.32773,1.126172 12.76747,1.825204 14.73026,1.825204 8.24368,0 7.42117,-6.588795 -3.29939,-12.362195 -3.14045,-1.682763 -5.86027,-2.951378 -8.72037,-3.986888 0.81319,-4.582455 2.87875,-16.258608 4.18727,-22.782633 1.66378,-8.245576 -8.22494,-10.303699 -16.47805,-8.245576 -8.24369,2.058122 -18.9455,-2.887167 -23.47861,-5.7734 -4.53319,-2.887165 -7.01938,-1.644067 -10.72065,2.472177 -3.03757,3.378799 -8.55212,19.455897 -10.45885,25.164524 L 277.00917,2.95765 c 0,0 -17.30989,5.773399 -3.29005,9.88983 3.53301,1.048503 10.61777,2.614807 19.33815,4.37524 -0.30843,1.294505 -0.57014,2.627799 -0.74772,3.974084 -1.7478,12.892896 2.79462,24.931418 10.96351,31.93455 l -1.90663,7.430178 c -4.82288,2.174768 -15.65563,7.274931 -39.19038,19.041682 -20.68398,10.342803 -28.13323,17.501215 -30.60077,21.863546 l -0.43928,-0.98372 c 0,0 -15.92658,69.21525 -16.47806,107.13015 -0.55148,37.90235 -0.55148,73.61667 -0.55148,73.61667 l 9.11293,0 c -1.76645,9.15218 -2.80395,18.30345 -0.87857,27.46874 0.56082,3.84426 3.85087,8.23249 7.69231,9.33258 4.94431,1.10103 4.94431,-0.54303 9.88871,-0.54303 0,-1.10103 8.02872,-4.44057 8.2437,-4.94529 1.64502,-3.84426 3.29937,-9.88965 -2.19651,-17.5791 -3.00961,-4.21999 -3.85078,-5.50141 -5.48637,-10.44576 -0.26171,-1.01038 -1.10298,-2.14879 -2.00019,-3.28814 l 5.84163,0 c 0,0 0,-2.75724 2.73857,-45.06093 2.64501,-40.711 2.74789,-38.17341 11.58036,-66.82019 l 1.61696,3.65041 c 17.02021,62.08277 3.29006,74.16046 -2.75722,92.83965 -1.14027,3.54611 -3.28996,25.82468 1.65435,27.46874 1.71983,0.58229 3.70126,1.04775 5.9071,1.43657 -0.61696,13.51427 -0.59821,37.87619 2.87875,77.68058 6.04718,69.21536 17.03886,103.01456 14.84235,120.0366 0,0 -30.76902,-0.81595 -23.08604,18.40721 7.69221,19.23625 25.28255,28.02486 25.28255,28.02486 l 4.39283,-0.55612 2.19651,5.50142 9.33723,5.48832 c 0,0 7.68289,2.74416 12.08513,-3.30029 4.40234,-6.03231 3.29938,-10.43362 3.29938,-10.43362 l 3.29005,-14.27787 c 0,0 0,-62.64002 -7.13149,-98.89739 -7.15014,-36.25828 -3.86018,-56.03757 -1.10287,-71.41647 1.02808,-5.72107 3.18719,-10.00555 5.48647,-13.11235 4.88826,10.97665 10.7392,23.06742 17.60899,35.57131 1.33651,25.06106 4.36485,88.69743 2.17777,114.88474 -0.15893,1.90298 -0.27112,3.62462 -0.35516,5.20326 l -7.33714,5.5145 c 0,0 -0.83185,9.06153 1.64502,10.7056 2.46755,1.65716 3.29938,8.24558 3.29938,8.24558 0,0 8.23437,8.23249 14.83303,18.95117 6.58934,10.71776 19.77744,9.88966 24.72174,8.24559 4.95373,-1.65716 4.1219,4.94528 3.29006,-11.5468 -0.60754,-12.1805 -7.51472,-24.34885 -11.07572,-29.87643 6.36504,-0.76362 11.87016,-1.85064 12.73939,-3.35263 1.91606,-3.35263 1.72916,-94.85871 1.66369,-118.22335 0.3365,-0.31124 0.5234,-0.45331 0.5234,-0.45331 0,0 4.03777,-57.44892 -21.70281,-93.18847 5.90709,-1.04869 10.6271,-1.68333 12.90764,-4.05175 5.02854,-5.20419 2.20584,-13.17778 2.20584,-13.17778 0,0 -1.59831,-2.0329 -7.6923,-20.88033 -12.63662,-39.00245 1.64502,-81.86197 1.64502,-81.86197 0,0 4.94441,36.25801 9.34665,49.99285 4.3835,13.73391 25.82462,55.49361 25.82462,55.49361 1.38332,-0.59538 2.70117,-1.30759 3.93499,-2.09738 -0.0658,2.75725 -0.24305,5.7089 -0.64493,8.14276 -1.10297,6.58842 -1.10297,8.23249 4.39292,13.17778 0.95327,0.85428 2.00951,1.42348 3.14045,1.74689 -0.62628,7.83152 -0.2991,23.0805 8.94468,37.5397 4.6453,7.26232 21.38506,13.03572 34.61046,16.5949 -25.29188,31.98689 -50.266,50.16137 -50.266,50.16137 0,0 5.02844,10.03171 16.90801,19.57179 -1.95346,17.92867 -5.31822,54.09629 -2.8975,71.06692 3.29939,23.07958 5.76692,5.7734 7.41185,17.30712 0.0373,0.27104 0.0933,0.54303 0.13085,0.81502 -2.86942,-0.41405 -5.56116,0.14207 -7.60808,1.82539 -4.96305,4.10316 -4.15929,13.25536 1.79454,20.45224 5.95373,7.18475 14.79562,9.69617 19.75868,5.59208 1.32727,-1.11318 2.23391,-2.60116 2.75732,-4.29757 l 0.47659,0.33648 c 0,0 2.47686,-9.06061 0.83193,-20.59431 -1.57022,-10.91311 -3.86019,-26.25182 9.83257,-71.09311 0.35515,11.65056 1.55158,25.47606 4.98181,32.34955 6.60798,13.18994 10.72055,13.18994 15.66486,20.6074 3.48629,5.21727 2.87875,14.49845 2.21517,19.54656 -7.10343,5.60516 -10.328,12.02534 -8.8045,15.06766 5.23409,10.47194 13.51517,4.77705 21.95519,-1.11319 5.5332,-3.85734 9.07553,-9.06153 9.85132,-13.68248 l 0.32708,-0.0392 c 0,0 12.35626,3.30122 -5.76682,-24.72365 -10.63643,-16.43974 -9.88872,-23.89646 -5.76682,-38.73046 1.94403,-6.99033 3.70116,-12.31041 5.00968,-16.01261 3.94432,-0.76362 8.03813,-1.72164 12.29088,-2.93857 0,0 -7.41194,-18.95118 -4.9444,-40.38762 0.97201,-8.40073 3.85076,-19.83163 6.97256,-30.64004 12.48711,6.29119 15.07608,21.44952 12.8142,28.99597 -2.01883,6.71834 -4.02835,12.33658 -4.71068,14.18721 -5.27149,1.68332 -9.17841,7.5988 -9.17841,14.65361 0,8.3755 5.48647,15.14524 12.24405,15.14524 6.7576,0 12.23474,-6.76974 12.23474,-15.14524 0,-2.36843 -0.45793,-4.60787 -1.24305,-6.61459 11.34675,-9.0092 12.89832,-21.39813 12.89832,-21.39813" />
    <path
       id="path10462"
       style="fill:#ffffff;fill-rule:nonzero;stroke:none"
       d="m 134.55074,-194.86161 0,943.0172 c 0,3.83279 3.11881,6.94355 6.9496,6.94355 3.8308,0 6.9395,-3.11076 6.9395,-6.94355 l 0,-943.0172 c 0,-3.84684 -3.1087,-6.95759 -6.9395,-6.95759 -3.83079,0 -6.9496,3.11075 -6.9496,6.95759" />
  </g>
</svg>
