<?xml version="1.0" encoding="utf-8"?>
<!-- Generator: Adobe Illustrator 15.0.2, SVG Export Plug-In . SVG Version: 6.00 Build 0)  -->
<!DOCTYPE svg PUBLIC "-//W3C//DTD SVG 1.1//EN" "http://www.w3.org/Graphics/SVG/1.1/DTD/svg11.dtd">
<svg version="1.1" id="Vrstva_1" xmlns="http://www.w3.org/2000/svg" xmlns:xlink="http://www.w3.org/1999/xlink" x="0px" y="0px"
	 width="960px" height="960px" viewBox="0 0 960 960" enable-background="new 0 0 960 960" xml:space="preserve">
<g>
	<path fill-rule="evenodd" clip-rule="evenodd" d="M1,919.2c0,22.548,18.256,40.804,40.83,40.804h878.108
		c22.508,0,40.816-18.256,40.816-40.804V41.79c0-22.501-18.309-40.79-40.816-40.79H41.83C19.256,1,1,19.289,1,41.79V919.2z"/>
	<path fill-rule="evenodd" clip-rule="evenodd" fill="#009FE3" d="M11.174,919.2V41.79c0-16.887,13.689-30.629,30.655-30.629
		h878.108c16.9,0,30.655,13.742,30.655,30.629V919.2c0,16.967-13.755,30.643-30.655,30.643H41.83
		C24.863,949.843,11.174,936.167,11.174,919.2"/>
	<polygon fill-rule="evenodd" clip-rule="evenodd" fill="#FFFFFF" points="11.017,780.089 11.017,572.572 378.205,572.572 
		377.27,185.206 581.641,185.206 582.72,572.572 949.869,572.572 949.869,780.089 	"/>
</g>
</svg>
