<?xml version="1.0" encoding="UTF-8" standalone="no"?>
<!-- Created with Inkscape (http://www.inkscape.org/) -->
<svg
   xmlns:svg="http://www.w3.org/2000/svg"
   xmlns="http://www.w3.org/2000/svg"
   version="1.0"
   width="1000"
   height="1500"
   id="svg29247">
  <defs
     id="defs29249" />
  <g
     transform="translate(-1470.873,551.4454)"
     id="layer1">
    <path
       d="M 2439.5647,948.55459 C 2447.9234,948.55459 2455.7828,945.31493 2461.7004,939.41543 C 2467.6088,933.52514 2470.8728,925.69289 2470.8728,917.35444 L 2470.8728,-520.23606 C 2470.8728,-528.57451 2467.6088,-536.40675 2461.7004,-542.30625 C 2455.7828,-548.19655 2447.9234,-551.44541 2439.5647,-551.44541 L 1502.1716,-551.44541 C 1484.9087,-551.44541 1470.8728,-537.44676 1470.8728,-520.23606 L 1470.8728,917.35444 C 1470.8728,925.69289 1474.1275,933.52514 1480.0359,939.41543 C 1485.9536,945.31493 1493.8129,948.55459 1502.1716,948.55459 L 2439.5647,948.55459 z "
       style="fill:black;fill-rule:nonzero;stroke:none"
       id="path29278" />
    <path
       d="M 1502.1716,944.87316 C 1494.8023,944.87316 1487.8676,942.01084 1482.6526,936.81082 C 1477.4377,931.62 1474.5621,924.70811 1474.5621,917.35444 L 1474.5621,-520.23606 C 1474.5621,-527.58972 1477.4377,-534.50161 1482.6526,-539.70164 C 1487.8676,-544.89246 1494.8023,-547.75477 1502.1716,-547.75477 L 2439.5647,-547.75477 C 2446.9433,-547.75477 2453.8688,-544.89246 2459.0837,-539.70164 C 2464.2987,-534.50161 2467.1743,-527.58972 2467.1743,-520.23606 L 2467.1743,917.35444 C 2467.1743,932.53115 2454.7842,944.87316 2439.5647,944.87316 L 1502.1716,944.87316"
       style="fill:white;fill-rule:nonzero;stroke:none"
       id="path28755" />
    <path
       d="M 1911.8304,-377.13875 L 1911.8304,-469.2206 L 1893.3562,-469.2206 L 1893.3562,-358.72238 L 2378.3448,-358.72238 L 2378.3448,612.72504 L 1893.3562,612.72504 L 1893.3562,886.6697 L 1911.8304,886.6697 L 1911.8304,631.14141 L 2396.8189,631.14141 L 2396.8189,-377.13875 L 1911.8304,-377.13875"
       style="fill:black;fill-rule:nonzero;stroke:none"
       id="path28757" />
    <path
       d="M 1662.4106,612.72504 L 1662.4106,631.14141 L 1750.1675,631.14141 L 1750.1675,886.6697 L 1768.6509,886.6697 L 1768.6509,612.72504 L 1662.4106,612.72504"
       style="fill:black;fill-rule:nonzero;stroke:none"
       id="path28759" />
    <path
       d="M 1750.1675,-469.2206 L 1750.1675,470.00507 L 1662.4106,470.00507 L 1662.4106,488.42144 L 1768.6509,488.42144 L 1768.6509,-469.2206 L 1750.1675,-469.2206"
       style="fill:black;fill-rule:nonzero;stroke:none"
       id="path28761" />
    <path
       d="M 1893.3562,488.42144 L 2253.6302,488.42144 L 2253.6302,-234.41878 L 1893.3562,-234.41878 L 1893.3562,488.42144 z M 1911.8304,-216.00241 L 2235.1561,-216.00241 L 2235.1561,470.00507 L 1911.8304,470.00507 L 1911.8304,-216.00241 z "
       style="fill:black;fill-rule:nonzero;stroke:none"
       id="path28763" />
    <path
       d="M 2316.4313,-296.75465 C 2297.1897,-315.93492 2271.6051,-326.50063 2244.3932,-326.50063 L 1902.5933,-326.50063 C 1846.4218,-326.50063 1800.7172,-280.94289 1800.7172,-224.94829 L 1800.7172,520.64319 L 1634.3664,520.64319 L 1642.2166,490.66712 C 1643.1042,487.87843 1642.6142,484.7124 1640.6262,482.26425 C 1637.4917,478.39874 1631.796,477.80051 1627.9217,480.92973 L 1509.2173,550.57324 L 1627.9217,620.20755 C 1631.796,623.33677 1637.4917,622.73854 1640.6354,618.87303 C 1642.6142,616.43408 1643.1042,613.26805 1642.2166,610.47937 L 1634.3664,580.5033 L 1800.7172,580.5033 L 1800.7172,886.6697 L 1860.7629,886.6697 L 1860.7629,580.5033 L 2244.3932,580.5033 C 2271.6051,580.5033 2297.1897,569.93758 2316.4313,550.75731 C 2335.6729,531.57705 2346.2692,506.07392 2346.2692,478.95096 L 2346.2692,-224.94829 C 2346.2692,-252.07125 2335.6729,-277.57438 2316.4313,-296.75465 z M 2286.2236,478.95096 C 2286.2236,501.94151 2267.4628,520.64319 2244.3932,520.64319 L 1860.7629,520.64319 L 1860.7629,-224.94829 C 1860.7629,-236.08463 1865.1179,-246.55831 1873.0143,-254.43657 C 1880.9199,-262.30564 1891.4237,-266.64973 1902.5933,-266.64973 L 2244.3932,-266.64973 C 2255.572,-266.64973 2266.0758,-262.30564 2273.9722,-254.43657 C 2281.8778,-246.55831 2286.2236,-236.08463 2286.2236,-224.94829 L 2286.2236,478.95096"
       style="fill:black;fill-rule:nonzero;stroke:none"
       id="path28765" />
  </g>
</svg>
