<?xml version="1.0" encoding="UTF-8" standalone="no"?>
<!-- Created with Inkscape (http://www.inkscape.org/) -->
<svg
   xmlns:svg="http://www.w3.org/2000/svg"
   xmlns="http://www.w3.org/2000/svg"
   version="1.0"
   width="1000"
   height="1500"
   id="svg24435">
  <defs
     id="defs24437" />
  <g
     transform="translate(100.0488,972.8829)"
     id="layer1">
    <path
       d="M 826.11663,524.12561 C 865.26282,524.12561 897.00434,494.09391 897.00434,457.03981 L 897.00434,-902.67632 C 897.00434,-939.73042 865.26282,-969.76211 826.11663,-969.76211 L -26.05896,-969.76211 C -65.205144,-969.76211 -96.946643,-939.73042 -96.946643,-902.67632 L -96.946643,457.03981 C -96.946643,494.09391 -65.205144,524.12561 -26.05896,524.12561 L 826.11663,524.12561"
       style="fill:#fff100;fill-rule:nonzero;stroke:none"
       id="path21245" />
    <path
       d="M 826.04009,524.07706 C 865.17554,524.07706 896.91119,494.0399 896.91119,456.98735 L 896.91119,-902.75315 C 896.91119,-939.80573 865.17554,-969.84283 826.04009,-969.84283 L -26.12514,-969.84283 C -65.272948,-969.84283 -97.008703,-939.80573 -97.008703,-902.75315 L -97.008703,456.98735 C -97.008703,494.0399 -65.272948,524.07706 -26.12514,524.07706 L 826.04009,524.07706 z "
       style="fill:none;stroke:black;stroke-width:6.0801053;stroke-linecap:butt;stroke-linejoin:miter;stroke-miterlimit:4"
       id="path21249" />
    <path
       d="M 706.34302,209.33748 L 706.34302,-314.77256 C 722.10139,-324.47129 732.54042,-341.25163 732.54042,-360.3767 C 732.54042,-390.4084 706.81756,-414.75587 675.07604,-414.75587 C 657.70688,-414.75587 642.16081,-407.42558 631.62191,-395.89132 L 206.33327,-451.24157 L 206.33327,-564.7604 L 245.62929,-555.04989 C 248.91333,-554.06696 252.6344,-554.61173 255.51886,-556.81434 C 260.07654,-560.30777 260.77581,-566.63146 257.09219,-570.93019 L 175.07875,-695.54521 L 93.065315,-570.93019 C 89.381701,-566.61965 90.080962,-560.29594 94.638652,-556.81434 C 97.510621,-554.61173 101.24419,-554.06696 104.52821,-555.04989 L 143.82424,-564.7604 L 143.82424,423.5502 L 206.33327,423.5502 L 206.33327,345.80646 L 631.62191,290.44439 C 642.16081,301.99049 657.70688,309.32078 675.07604,309.32078 C 706.81756,309.32078 732.54042,284.97332 732.54042,254.92977 C 732.54042,235.81654 722.10139,219.0362 706.34302,209.33748 z M 206.33327,-391.52157 L 623.11838,-337.27265 C 627.68855,-328.0713 634.88095,-320.27917 643.82155,-314.77256 L 643.82155,209.33748 C 634.88095,214.83224 627.68855,222.62438 623.11838,231.83757 L 206.33327,286.08648 L 206.33327,-391.52157"
       style="fill:black;fill-rule:nonzero;stroke:none"
       id="path21251" />
    <path
       d="M -41.517644,-55.678079 C -41.517644,-168.88907 55.455009,-260.6776 175.07875,-260.6776 C 294.69001,-260.6776 391.66267,-168.88907 391.66267,-55.678079 C 391.66267,57.532909 294.69001,149.3096 175.07875,149.3096 C 55.455009,149.3096 -41.517644,57.532909 -41.517644,-55.678079"
       style="fill:#ee1c23;fill-rule:nonzero;stroke:none"
       id="path21253" />
    <path
       d="M 175.07875,96.327804 C 263.77265,96.327804 335.68425,28.270945 335.68425,-55.678079 C 335.68425,-139.62711 263.77265,-207.68397 175.07875,-207.68397 C 86.372376,-207.68397 14.473262,-139.62711 14.473262,-55.678079 C 14.473262,28.270945 86.372376,96.327804 175.07875,96.327804"
       style="fill:white;fill-rule:nonzero;stroke:none"
       id="path21255" />
    <path
       d="M 518.0293,-807.1575 C 518.0293,-800.88116 521.96264,-797.35219 528.38087,-797.35219 C 536.45985,-797.35219 538.32038,-803.0364 538.73244,-807.34695 L 559.84766,-807.34695 C 559.84766,-799.11664 556.75093,-791.47848 551.35662,-786.18499 C 545.77501,-780.70213 538.1081,-777.37445 528.38087,-777.37445 C 515.54441,-777.37445 505.81719,-783.05871 500.84743,-791.67981 C 497.95048,-796.77188 496.91408,-803.81799 496.91408,-811.85884 L 496.91408,-844.57866 C 496.91408,-852.60769 497.95048,-859.66561 500.84743,-864.75768 C 505.81719,-873.37879 515.54441,-879.18143 528.38087,-879.06306 C 544.68865,-878.89725 559.84766,-869.31694 559.84766,-850.90242 L 538.73244,-850.90242 C 538.38281,-857.39187 534.7991,-859.07348 528.38087,-859.07348 C 521.96264,-859.07348 518.0293,-855.15372 518.0293,-847.70501 L 518.0293,-807.1575"
       style="fill:black;fill-rule:nonzero;stroke:none"
       id="path21257" />
    <path
       d="M 244.51796,-785.5811 C 239.12366,-779.89683 232.68046,-777.76524 224.42667,-777.78895 C 215.94813,-777.80077 209.72968,-780.72578 206.00861,-787.19164 C 203.52374,-791.50212 202.48733,-797.57718 202.48733,-808.54305 L 202.48733,-846.355 C 202.48733,-860.6603 203.11167,-866.34457 205.79633,-870.45378 C 209.31762,-875.74726 218.03342,-880.27091 228.17271,-880.10517 C 237.89995,-879.95119 240.37234,-878.90908 244.09341,-874.06565 L 244.51796,-874.06565 L 244.51796,-918.4619 L 265.63318,-918.4619 L 265.63318,-778.96133 L 244.51796,-778.96133 L 244.51796,-785.5811 z M 223.60254,-811.29042 C 223.60254,-803.26139 226.71175,-797.76664 233.95412,-797.76664 C 240.37234,-797.76664 244.51796,-802.8706 244.51796,-810.11804 L 244.51796,-848.71158 C 244.51796,-854.97609 239.96028,-859.48799 233.95412,-859.48799 C 225.87514,-859.48799 223.60254,-854.00506 223.60254,-847.72872 L 223.60254,-811.29042"
       style="fill:black;fill-rule:nonzero;stroke:none"
       id="path21259" />
    <path
       d="M 86.434812,-818.82198 L 86.434812,-806.66009 C 86.434812,-800.38375 90.368162,-796.85478 96.786383,-796.85478 C 104.85288,-796.85478 106.7259,-801.18905 107.13796,-805.4996 L 128.25317,-805.4996 C 128.25317,-797.26929 125.14396,-790.98112 119.76213,-785.68765 C 114.16804,-780.20472 106.51362,-776.8771 96.786383,-776.8771 C 83.949934,-776.8771 74.222699,-782.56131 69.252948,-791.1824 C 66.356002,-796.27454 65.319599,-803.32065 65.319599,-811.36143 L 65.319599,-844.08131 C 65.319599,-852.11028 66.356002,-859.1682 69.252948,-864.26034 C 74.222699,-872.88144 83.949934,-878.56565 96.786383,-878.56565 C 116.24085,-878.56565 128.25317,-865.04193 128.25317,-847.61028 L 128.25317,-818.82198 L 86.434812,-818.82198 z M 86.434812,-835.85101 L 107.13796,-835.85101 L 107.13796,-847.20766 C 107.13796,-854.65638 103.20461,-858.57613 96.786383,-858.57613 C 90.368162,-858.57613 86.434812,-854.65638 86.434812,-847.20766 L 86.434812,-835.85101"
       style="fill:black;fill-rule:nonzero;stroke:none"
       id="path21261" />
    <path
       d="M 583.66003,-918.4619 L 604.77524,-918.4619 L 604.76275,-874.78804 L 605.17482,-874.78804 C 604.67535,-878.81435 614.98946,-880.10517 621.71986,-880.10517 C 632.27122,-880.10517 646.79336,-873.01171 646.79336,-855.17744 L 646.79336,-778.96133 L 625.67819,-778.96133 L 625.67819,-847.72872 C 625.67819,-854.97609 621.95711,-859.48799 615.32661,-859.48799 C 607.45991,-859.48799 604.77524,-854.5853 604.77524,-845.77475 L 604.77524,-778.96133 L 583.66003,-778.96133 L 583.66003,-918.4619"
       style="fill:black;fill-rule:nonzero;stroke:none"
       id="path21263" />
    <path
       d="M 378.12695,-878.2933 L 399.24216,-878.2933 L 399.24216,-778.96133 L 378.12695,-778.96133 L 378.12695,-878.2933 z M 378.12695,-918.4619 L 399.24216,-918.4619 L 399.24216,-898.47232 L 378.12695,-898.47232 L 378.12695,-918.4619 z "
       style="fill:black;fill-rule:nonzero;stroke:none"
       id="path21265" />
    <path
       d="M 291.41847,-918.4619 L 312.53369,-918.4619 L 312.53369,-834.99841 L 312.94574,-834.99841 L 338.40637,-878.2933 L 359.52159,-878.2933 L 334.47302,-837.93523 L 364.69113,-778.96133 L 341.71538,-778.96133 L 322.67298,-821.86542 L 312.53369,-806.77853 L 312.53369,-778.96133 L 291.41847,-778.96133 L 291.41847,-918.4619"
       style="fill:black;fill-rule:nonzero;stroke:none"
       id="path21267" />
    <path
       d="M 152.88967,-919.63428 L 174.00489,-919.63428 L 174.00489,-808.15225 C 174.00489,-800.70353 176.28997,-798.54823 184.35647,-797.76664 L 184.35647,-778.96133 C 164.90199,-778.96133 152.88967,-783.66267 152.88967,-806.77853 L 152.88967,-919.63428"
       style="fill:black;fill-rule:nonzero;stroke:none"
       id="path21269" />
    <path
       d="M 423.4666,-878.2933 L 444.58181,-878.2933 L 444.56933,-874.49198 C 453.27264,-881.73935 460.31521,-879.46568 472.52732,-879.46568 L 472.52732,-858.31561 C 470.46699,-859.0972 468.39418,-859.48799 466.10909,-859.48799 C 457.21847,-859.48799 444.56933,-860.96819 444.56933,-844.70892 L 444.58181,-778.96133 L 423.4666,-778.96133 L 423.4666,-878.2933"
       style="fill:black;fill-rule:nonzero;stroke:none"
       id="path21271" />
    <path
       d="M -14.908228,-918.4619 L 48.012861,-918.4619 L 48.012861,-899.65653 L 6.206986,-899.65653 L 6.206986,-852.5958 L 42.631042,-852.5958 L 42.631042,-833.77867 L 6.206986,-833.77867 L 6.206986,-778.96133 L -14.908228,-778.96133 L -14.908228,-918.4619"
       style="fill:black;fill-rule:nonzero;stroke:none"
       id="path21273" />
    <path
       d="M 736.4488,-483.60614 C 736.4488,-479.02324 739.3332,-476.44166 744.01577,-476.44166 C 749.92206,-476.44166 751.28308,-480.59823 751.5828,-483.74823 L 767.00405,-483.74823 C 767.00405,-477.73242 764.74388,-472.14294 760.81057,-468.28243 C 756.72737,-464.26788 751.1208,-461.84029 744.01577,-461.84029 C 734.63817,-461.84029 727.52067,-465.99686 723.89948,-472.28502 C 721.77674,-476.01533 721.02754,-481.16665 721.02754,-487.04038 L 721.02754,-510.94971 C 721.02754,-516.82337 721.77674,-521.97475 723.89948,-525.69317 C 727.52067,-531.99322 734.63817,-536.23269 744.01577,-536.14979 C 755.92817,-536.03135 767.00405,-529.03268 767.00405,-515.56815 L 751.5828,-515.56815 C 751.32056,-520.31685 748.7108,-521.54842 744.01577,-521.54842 C 739.3332,-521.54842 736.4488,-518.68261 736.4488,-513.23521 L 736.4488,-483.60614"
       style="fill:black;fill-rule:nonzero;stroke:none"
       id="path21275" />
    <path
       d="M 565.87879,-468.75606 C 561.94544,-464.59949 557.23791,-463.03632 551.20678,-463.04814 C 545.01332,-463.07186 540.46811,-465.20344 537.74599,-469.92844 C 535.9354,-473.0785 535.1737,-477.51931 535.1737,-485.53645 L 535.1737,-513.16414 C 535.1737,-523.62076 535.62323,-527.76558 537.59614,-530.77348 C 540.16843,-534.6458 546.5367,-537.94978 553.94139,-537.8314 C 561.05887,-537.71296 562.86947,-536.95503 565.57911,-533.40242 L 565.87879,-533.40242 L 565.87879,-565.84988 L 581.3125,-565.84988 L 581.3125,-463.91263 L 565.87879,-463.91263 L 565.87879,-468.75606 z M 550.60741,-487.53772 C 550.60741,-481.66406 552.86752,-477.6614 558.16194,-477.6614 C 562.85698,-477.6614 565.87879,-481.37982 565.87879,-486.6733 L 565.87879,-514.88129 C 565.87879,-519.46419 562.5573,-522.75634 558.16194,-522.75634 C 552.26816,-522.75634 550.60741,-518.74179 550.60741,-514.17077 L 550.60741,-487.53772"
       style="fill:black;fill-rule:nonzero;stroke:none"
       id="path21277" />
    <path
       d="M 613.35368,-493.15091 L 613.35368,-484.26928 C 613.35368,-479.68638 616.22565,-477.1048 620.9207,-477.1048 C 626.81448,-477.1048 628.18804,-480.26669 628.48771,-483.41668 L 643.92142,-483.41668 C 643.92142,-477.40088 641.64885,-472.80608 637.71548,-468.94557 C 633.63228,-464.93109 628.0257,-462.50343 620.9207,-462.50343 C 611.5431,-462.50343 604.42562,-466.64818 600.80442,-472.94823 C 598.68168,-476.67848 597.93246,-481.8298 597.93246,-487.70352 L 597.93246,-511.61285 C 597.93246,-517.47468 598.68168,-522.6379 600.80442,-526.35631 C 604.42562,-532.65636 611.5431,-536.81294 620.9207,-536.81294 C 635.14319,-536.81294 643.90896,-526.92474 643.90896,-514.1826 L 643.92142,-493.15091 L 613.35368,-493.15091 z M 613.35368,-505.59704 L 628.48771,-505.59704 L 628.48771,-513.89836 C 628.48771,-519.34575 625.61575,-522.19974 620.9207,-522.19974 C 616.22565,-522.19974 613.35368,-519.34575 613.35368,-513.89836 L 613.35368,-505.59704"
       style="fill:black;fill-rule:nonzero;stroke:none"
       id="path21279" />
    <path
       d="M 783.69891,-565.84988 L 799.13263,-565.84988 L 799.12009,-533.9353 L 799.41981,-533.9353 C 799.05768,-536.88401 806.58724,-537.81952 811.50705,-537.81952 C 819.22391,-537.81952 829.83771,-532.63265 829.83771,-519.60628 L 829.83771,-463.91263 L 814.40399,-463.91263 L 814.40399,-514.17077 C 814.40399,-519.46419 811.68188,-522.75634 806.83695,-522.75634 C 801.09302,-522.75634 799.13263,-519.18001 799.13263,-512.73787 L 799.13263,-463.91263 L 783.69891,-463.91263 L 783.69891,-565.84988"
       style="fill:black;fill-rule:nonzero;stroke:none"
       id="path21281" />
    <path
       d="M 690.60965,-517.5813 C 690.44729,-522.44845 685.77726,-522.54318 681.69406,-522.54318 C 676.86167,-522.54318 674.13956,-518.96685 674.13956,-515.24837 C 674.13956,-512.5247 673.88979,-510.26284 679.63373,-508.11943 L 689.71057,-507.32601 C 707.3045,-503.74963 704.84464,-492.47594 704.84464,-483.89038 C 704.84464,-471.85876 695.15486,-461.98238 681.84389,-461.98238 C 669.74417,-461.98238 659.45503,-469.57319 658.85566,-483.89038 L 673.37783,-483.89038 C 673.9772,-479.8759 675.95012,-475.73115 681.69406,-475.73115 C 686.08944,-475.73115 690.32247,-478.72716 690.32247,-483.60614 C 690.32247,-487.60879 691.62108,-492.98511 682.60561,-494.95096 L 674.40173,-496.19436 C 664.72449,-499.62859 659.60486,-505.36016 659.60486,-515.09445 C 659.60486,-527.41026 669.894,-536.29188 682.30589,-536.29188 C 694.85514,-536.29188 704.98199,-529.6011 705.13182,-517.5813 L 690.60965,-517.5813"
       style="fill:black;fill-rule:nonzero;stroke:none"
       id="path21283" />
    <path
       d="M 515.68178,-463.91263 L 500.24806,-463.91263 L 500.24806,-468.44817 L 499.94838,-468.44817 C 496.53947,-464.76529 495.57799,-463.5692 488.47299,-463.5692 C 482.82895,-463.5692 469.44307,-469.89296 469.53048,-484.76669 L 469.54296,-536.50505 L 484.96419,-536.50505 L 484.96419,-486.24696 C 484.96419,-480.95349 487.68633,-477.6614 492.53121,-477.6614 C 498.27514,-477.6614 500.24806,-481.23773 500.24806,-487.67987 L 500.24806,-536.50505 L 515.68178,-536.50505 L 515.68178,-463.91263"
       style="fill:black;fill-rule:nonzero;stroke:none"
       id="path21285" />
    <path
       d="M 409.40643,-565.84988 L 424.84015,-565.84988 L 424.84015,-478.514 L 455.39539,-478.514 L 455.39539,-463.91263 L 409.40643,-463.91263 L 409.40643,-565.84988"
       style="fill:black;fill-rule:nonzero;stroke:none"
       id="path21287" />
    <path
       d="M 507.27814,448.03977 L 506.97845,448.03977 C 502.89527,453.33321 499.56128,455.46481 492.14411,455.46481 C 485.03911,455.46481 475.51167,452.17269 475.51167,436.13841 C 475.51167,419.53571 480.33158,410.45278 499.82351,409.3633 C 501.93378,409.24488 504.10649,409.18567 507.27814,409.32778 L 507.27814,404.35406 C 507.27814,399.48694 505.30522,395.76851 499.56128,395.76851 C 495.62794,395.76851 491.69459,398.33826 490.78305,403.06327 L 475.81135,403.06327 C 476.26088,396.62114 478.68332,391.18559 482.76651,387.31321 C 486.86219,383.45267 492.60613,381.16714 499.56128,381.16714 C 512.42271,381.16714 522.71185,388.88821 522.71185,404.06985 L 522.71185,454.61217 L 507.27814,454.61217 L 507.27814,448.03977 z M 507.27814,420.77914 C 505.61739,420.49492 504.2938,420.79097 502.93273,420.93308 C 496.25228,421.5844 490.94538,425.55152 490.94538,433.2726 C 490.94538,438.8621 493.96719,442.58054 498.96192,442.58054 C 504.10649,442.58054 507.27814,439.14632 507.27814,433.2726 L 507.27814,420.77914"
       style="fill:black;fill-rule:nonzero;stroke:none"
       id="path21289" />
    <path
       d="M 645.61964,424.27257 L 645.61964,433.16603 C 645.61964,437.74894 648.49157,440.31869 653.18667,440.31869 C 659.08043,440.31869 660.44145,437.15683 660.75364,434.00682 L 676.17489,434.00682 C 676.17489,440.02263 673.91479,444.61738 669.98141,448.47793 C 665.89821,452.49242 660.29163,454.92007 653.18667,454.92007 C 643.80908,454.92007 636.69158,450.77531 633.07037,444.47529 C 630.94762,440.745 630.18592,435.59367 630.18592,429.71996 L 630.18592,405.81065 C 630.18592,399.94878 630.94762,394.7856 633.07037,391.06717 C 636.69158,384.76715 643.80908,380.6224 653.18667,380.6224 C 667.40913,380.6224 676.17489,390.49875 676.17489,403.24091 L 676.17489,424.27257 L 645.61964,424.27257 z M 645.61964,411.82646 L 660.75364,411.82646 L 660.75364,403.52512 C 660.75364,398.08957 657.86917,395.22377 653.18667,395.22377 C 648.49157,395.22377 645.61964,398.08957 645.61964,403.52512 L 645.61964,411.82646"
       style="fill:black;fill-rule:nonzero;stroke:none"
       id="path21291" />
    <path
       d="M 692.47015,382.01977 L 707.90387,382.01977 L 707.90387,454.61217 L 692.47015,454.61217 L 692.47015,382.01977 z M 692.47015,352.67491 L 707.90387,352.67491 L 707.90387,367.27628 L 692.47015,367.27628 L 692.47015,352.67491 z "
       style="fill:black;fill-rule:nonzero;stroke:none"
       id="path21293" />
    <path
       d="M 725.28558,382.01977 L 740.71923,382.01977 L 740.71923,385.57241 L 741.01895,385.57241 C 746.36328,380.52766 746.32587,380.52766 753.43083,380.52766 C 761.14769,380.52766 771.42437,385.89215 771.42437,398.91852 L 771.42437,454.61217 L 756.00312,454.61217 L 756.00312,404.35406 C 756.00312,399.06063 753.28101,395.76851 748.43609,395.76851 C 742.67968,395.76851 740.71923,399.34483 740.71923,405.78696 L 740.71923,454.61217 L 725.28558,454.61217 L 725.28558,382.01977"
       style="fill:black;fill-rule:nonzero;stroke:none"
       id="path21295" />
    <path
       d="M 820.585,399.01326 C 820.4351,394.14613 815.76508,394.05139 811.68188,394.05139 C 806.83695,394.05139 804.11484,397.62772 804.11484,401.34616 C 804.11484,404.06985 803.86514,406.3317 809.60908,408.47514 L 819.68592,409.25671 C 837.27986,412.83305 834.81992,424.11862 834.81992,432.70419 C 834.81992,444.73582 825.14267,454.61217 811.8317,454.61217 C 799.71946,454.61217 789.44284,447.02135 788.83101,432.70419 L 803.35319,432.70419 C 803.96502,436.71868 805.92548,440.86343 811.68188,440.86343 C 816.06473,440.86343 820.29775,437.85552 820.29775,432.9884 C 820.29775,428.98574 821.6089,423.60941 812.58089,421.64361 L 804.38955,420.40018 C 794.69977,416.96596 789.59267,411.23435 789.59267,401.48827 C 789.59267,389.18427 799.88182,380.30265 812.28124,380.30265 C 824.84296,380.30265 834.95728,386.99347 835.10717,399.01326 L 820.585,399.01326"
       style="fill:black;fill-rule:nonzero;stroke:none"
       id="path21297" />
    <path
       d="M 544.00188,454.61217 L 543.8895,393.93297 L 536.17264,393.93297 L 536.17264,382.48161 L 543.8895,382.48161 L 543.8895,360.43152 L 559.31073,353.50386 L 559.32321,382.48161 L 568.85066,382.48161 L 568.85066,393.93297 L 559.32321,393.93297 L 559.43559,454.61217 L 544.00188,454.61217"
       style="fill:black;fill-rule:nonzero;stroke:none"
       id="path21299" />
    <path
       d="M 434.15531,408.78304 C 421.60607,408.78304 408.90697,400.51721 408.90697,383.91451 L 408.90697,375.61316 C 408.90697,358.99862 422.21792,350.69727 434.77966,350.69727 C 447.32892,350.69727 460.63987,358.99862 460.63987,375.61316 L 445.20615,375.61316 C 445.20615,368.59077 440.37375,365.29864 434.77966,365.29864 C 429.17308,365.29864 424.34067,368.59077 424.34067,375.61316 L 424.34067,383.91451 C 424.34067,390.92506 428.56122,394.16981 434.15531,394.16981 L 435.07934,394.2764 C 447.64109,394.2764 460.49002,402.47116 460.49002,419.08571 L 460.49002,430.34759 C 460.49002,446.96213 447.17907,455.26348 434.61733,455.26348 C 422.06808,455.26348 408.75713,446.96213 408.75713,430.34759 L 424.17835,430.34759 C 424.17835,437.36999 429.02324,440.66211 434.61733,440.66211 C 440.21142,440.66211 445.0563,437.36999 445.0563,430.34759 L 445.0563,419.08571 C 445.0563,412.07515 440.21142,408.77119 434.61733,408.77119 L 434.15531,408.78304"
       style="fill:black;fill-rule:nonzero;stroke:none"
       id="path21301" />
    <path
       d="M 589.32904,454.61217 L 589.21666,393.93297 L 581.4998,393.93297 L 581.4998,382.48161 L 589.21666,382.48161 L 589.21666,360.43152 L 604.63789,353.50386 L 604.63789,382.48161 L 614.17782,382.48161 L 614.17782,393.93297 L 604.63789,393.93297 L 604.75027,454.61217 L 589.32904,454.61217"
       style="fill:black;fill-rule:nonzero;stroke:none"
       id="path21303" />
  </g>
</svg>
