<?xml version="1.0" encoding="UTF-8" standalone="no"?>
<!-- Created with Inkscape (http://www.inkscape.org/) -->
<svg
   xmlns:svg="http://www.w3.org/2000/svg"
   xmlns="http://www.w3.org/2000/svg"
   version="1.0"
   width="2500"
   height="1600"
   id="svg24377">
  <defs
     id="defs24379" />
  <g
     transform="translate(37.5856,624.3911)"
     id="layer1">
    <path
       d="M -27.706872,867.59356 C -27.706872,921.79935 16.133714,965.73014 70.228143,965.73014 L 2354.6007,965.73014 C 2408.6951,965.73014 2452.5356,921.79935 2452.5356,867.59356 L 2452.5356,-516.37582 C 2452.5356,-570.58161 2408.6951,-614.5124 2354.6007,-614.5124 L 70.228143,-614.5124 C 16.133714,-614.5124 -27.706872,-570.58161 -27.706872,-516.37582 L -27.706872,867.59356 z "
       style="fill:white;fill-opacity:1;stroke:black;stroke-width:19.75745392;stroke-linecap:butt;stroke-linejoin:miter;stroke-miterlimit:4"
       id="path21223" />
    <path
       d="M 56.493884,881.87143 L 2368.9307,881.87143 L 2368.9307,-530.08504 L 56.493884,-530.08504 L 56.493884,881.87143 z "
       style="fill:#176fc1;fill-rule:nonzero;stroke:none"
       id="path21225" />
    <path
       d="M 1589.3574,370.28392 C 1579.1086,361.96467 1564.0811,363.54924 1555.7874,373.8294 C 1550.5346,380.32628 1549.2511,388.72451 1551.601,396.13268 L 1574.5668,484.3154 L 539.50631,484.3154 L 539.50631,626.09742 L 1574.5668,626.09742 L 1551.601,714.28035 C 1549.2511,721.68831 1550.5346,730.08676 1555.7874,736.58363 C 1564.0811,746.84394 1579.1086,748.42851 1589.3574,740.12911 L 1885.6418,555.20641 L 1589.3574,370.28392"
       style="fill:white;fill-rule:nonzero;stroke:none"
       id="path21227" />
    <path
       d="M 1149.4922,-207.02506 C 1083.774,-207.02506 1027.6727,-163.62673 1008.8933,-103.98651 L 1090.725,-103.98651 C 1104.153,-121.67463 1125.5982,-133.42045 1149.4922,-133.42045 C 1190.0723,-133.42045 1222.9511,-100.48052 1222.9511,-59.815845 C 1206.1266,-49.317946 1112.7627,-52.467233 1112.7627,-52.467233 C 1047.8542,-52.467233 995.22834,-7.0883438 995.22834,57.939574 C 995.22834,122.98734 1047.8542,175.71484 1112.7627,175.71484 C 1112.7627,175.71484 1185.5897,183.5587 1222.9511,142.83447 L 1222.9511,168.34659 L 1296.4101,168.34659 L 1296.4101,-59.815845 C 1296.4101,-141.12556 1230.6327,-207.02506 1149.4922,-207.02506 z M 1222.9511,57.939574 C 1207.6274,116.66892 1112.7627,102.11024 1112.7627,102.11024 C 1092.4825,102.11024 1068.6873,83.748839 1068.6873,57.939574 C 1068.6873,33.120794 1092.4825,13.788762 1112.7627,13.788762 C 1112.7627,13.788762 1214.9733,16.581557 1222.9511,-0.94795784 L 1222.9511,57.939574"
       style="fill:white;fill-rule:nonzero;stroke:none"
       id="path21229" />
    <path
       d="M 783.69811,-346.86581 L 783.69811,-126.07184 L 600.05071,-126.07184 L 600.05071,-346.86581 L 526.59174,-346.86581 L 526.59174,168.34659 L 600.05071,168.34659 L 600.05071,-52.467233 L 783.69811,-52.467233 L 783.69811,168.34659 L 857.15707,168.34659 L 857.15707,-346.86581 L 783.69811,-346.86581"
       style="fill:white;fill-rule:nonzero;stroke:none"
       id="path21231" />
    <path
       d="M 1591.6085,28.505837 L 1591.6085,28.505837 C 1591.6085,109.7957 1657.3859,175.71484 1738.5264,175.71484 C 1765.2836,175.71484 1790.3624,168.50498 1811.9853,155.96697 L 1811.9853,168.34659 L 1885.4443,168.34659 L 1885.4443,-346.86581 L 1811.9853,-346.86581 L 1811.9853,-187.27698 C 1790.3624,-199.81499 1765.2836,-207.02506 1738.5264,-207.02506 C 1657.3859,-207.02506 1591.6085,-141.12556 1591.6085,-59.815845 L 1591.6085,28.505837 z M 1665.0674,-59.815845 C 1665.0674,-100.48052 1697.9463,-133.42045 1738.5264,-133.42045 C 1779.0868,-133.42045 1811.9853,-100.48052 1811.9853,-59.815845 L 1811.9853,28.505837 C 1811.9853,69.150664 1779.0868,102.11024 1738.5264,102.11024 C 1697.9463,102.11024 1665.0674,69.150664 1665.0674,28.505837 L 1665.0674,-59.815845"
       style="fill:white;fill-rule:nonzero;stroke:none"
       id="path21233" />
    <path
       d="M 1417.1039,-273.2612 L 1490.563,-273.2612 L 1490.563,-346.86581 L 1417.1039,-346.86581 L 1417.1039,-273.2612 z "
       style="fill:white;fill-rule:nonzero;stroke:none"
       id="path21235" />
    <path
       d="M 1417.1039,168.34659 L 1490.563,168.34659 L 1490.563,-199.67645 L 1417.1039,-199.67645 L 1417.1039,168.34659 z "
       style="fill:white;fill-rule:nonzero;stroke:none"
       id="path21237" />
  </g>
</svg>
