<?xml version="1.0" encoding="utf-8"?>
<!-- Generator: Adobe Illustrator 15.0.2, SVG Export Plug-In . SVG Version: 6.00 Build 0)  -->
<!DOCTYPE svg PUBLIC "-//W3C//DTD SVG 1.1//EN" "http://www.w3.org/Graphics/SVG/1.1/DTD/svg11.dtd">
<svg version="1.1" id="Vrstva_1" xmlns="http://www.w3.org/2000/svg" xmlns:xlink="http://www.w3.org/1999/xlink" x="0px" y="0px"
	 width="1740px" height="385px" viewBox="0 0 1740 385" enable-background="new 0 0 1740 385" xml:space="preserve">
<path fill-rule="evenodd" clip-rule="evenodd" d="M51.3,8.285h1642.483C1718.86,8.285,1739,28.4,1739,53.488v286.308
	c0,25.077-20.14,45.204-45.217,45.204H51.3c-25.063,0-45.204-20.127-45.204-45.204V53.488C6.096,28.4,26.237,8.285,51.3,8.285"/>
<path fill-rule="evenodd" clip-rule="evenodd" fill="#FFFFFF" d="M51.3,15.807h1642.483c20.91,0,37.668,16.785,37.668,37.682
	v286.308c0,20.884-16.758,37.669-37.668,37.669H51.3c-20.897,0-37.654-16.785-37.654-37.669V53.488
	C13.646,32.591,30.403,15.807,51.3,15.807"/>
<path fill-rule="evenodd" clip-rule="evenodd" fill="#009640" d="M51.3,38.416h1642.483c8.438,0,15.072,6.634,15.072,15.073v286.308
	c0,8.426-6.634,15.06-15.072,15.06H51.3c-8.412,0-15.059-6.634-15.059-15.06V53.488C36.241,45.049,42.888,38.416,51.3,38.416"/>
<polygon fill-rule="evenodd" clip-rule="evenodd" fill="#FFFFFF" points="95.716,196.621 186.124,106.228 260.715,106.228 
	196.671,170.259 329.27,170.259 329.27,222.998 196.671,222.998 260.715,287.043 186.124,287.043 "/>
<path fill-rule="evenodd" clip-rule="evenodd" fill="#FFFFFF" d="M1574.299,275.447h23.047v-80.352
	c0-13.082-2.946-23.005-9.035-29.533c-6.117-6.555-15.802-9.727-29.109-9.727c-6.316,0-12.407,1.342-18.071,4.06
	c-5.865,2.946-10.827,7.218-14.661,12.845l-3.185-14.662h-17.367v117.368h23.033v-76.941c0-4.285,0.889-7.921,2.495-11.066
	c1.578-3.169,3.368-5.89,5.851-7.92c2.254-2.029,4.975-3.369,7.894-4.524c2.934-0.863,5.667-1.327,8.346-1.327
	c7.231,0,12.432,1.565,15.802,4.736c3.41,3.371,4.962,9.275,4.962,17.846V275.447z M1447.922,275.447h23.047v-80.352
	c0-13.082-2.945-23.005-9.035-29.533c-6.117-6.555-15.802-9.727-29.122-9.727c-6.316,0-12.392,1.342-18.058,4.06
	c-5.866,2.946-10.828,7.218-14.662,12.845l-3.185-14.662h-17.367v117.368h23.033v-76.941c0-4.285,0.889-7.921,2.482-11.066
	c1.578-3.169,3.368-5.89,5.863-7.92c2.257-2.029,4.975-3.369,7.881-4.524c2.946-0.863,5.665-1.327,8.346-1.327
	c7.231,0,12.432,1.565,15.802,4.736c3.423,3.371,4.975,9.275,4.975,17.846V275.447z M1277.311,158.079h-23.046v80.337
	c0,13.109,2.946,22.82,8.812,29.362c5.664,6.553,15.098,9.884,28.433,9.884c13.771,0,24.147-5.585,31.378-17.102l3.144,14.887
	h17.422V158.079h-23.047v73.386c0,9.221-2.27,16.227-6.555,20.963c-4.285,4.987-9.725,7.47-16.027,7.47
	c-7.431,0-12.631-1.606-15.776-4.976c-3.171-3.171-4.736-9.036-4.736-17.607V158.079z M1214.992,177.04
	c2.481,0,4.975,0.226,7.23,0.676c2.031,0.464,4.511,1.153,7.006,2.27l4.75-21.667c-2.495-0.689-4.75-1.353-7.006-1.791
	c-2.48-0.466-5.625-0.691-9.711-0.691c-7.895,0-14.211,2.018-18.961,6.078c-4.736,4.06-8.346,9.035-10.827,15.126l-2.944-18.96
	h-17.381v117.368h23.046v-65.464c0-4.511,0.464-8.797,1.326-12.856c0.931-4.06,2.509-7.656,4.526-10.602
	c2.029-2.946,4.51-5.201,7.695-7.006C1206.885,177.955,1210.706,177.04,1214.992,177.04z M1044.367,275.447h17.38l1.606-7.205
	c2.906,2.906,6.542,5.399,10.361,6.993c3.836,1.538,8.572,2.427,13.786,2.427c32.718,0,49.185-21.864,49.185-65.635
	c0-10.841-0.877-19.875-2.72-27.067c-2.031-7.244-4.71-13.096-8.12-17.382c-3.37-4.285-7.457-7.243-12.166-9.035
	c-4.75-1.791-10.178-2.708-16.041-2.708c-7.682,0-13.998,1.342-18.748,4.286c-4.71,2.933-8.57,6.528-11.49,10.827V117.48h-23.033
	V275.447z M1090.633,174.133c4.299,0,7.709,0.637,10.613,2.018c2.945,1.565,5.201,3.834,6.992,7.004
	c1.806,3.371,3.185,7.43,3.834,12.632c0.689,5.161,1.156,11.289,1.156,18.494c0,8.571-0.467,15.803-1.58,21.469
	c-1.141,5.625-2.719,10.374-4.975,13.744c-2.244,3.623-5.203,6.117-8.797,7.683c-3.834,1.565-8.346,2.27-13.547,2.27
	c-6.554,0-12.18-1.58-16.93-4.977v-57.807c0-2.442,0.464-4.936,1.34-7.656c0.928-2.72,2.256-5.202,4.299-7.457
	c1.791-2.031,4.285-3.834,7.23-5.399C1083.215,174.77,1086.586,174.133,1090.633,174.133z M986.414,275.447h23.045v-80.352
	c0-13.082-2.944-23.005-9.022-29.533c-6.128-6.555-15.815-9.727-29.136-9.727c-6.316,0-12.392,1.342-18.07,4.06
	c-5.852,2.946-10.828,7.218-14.66,12.845l-3.172-14.662h-17.382v117.368h23.046v-76.941c0-4.285,0.876-7.921,2.482-11.066
	c1.578-3.169,3.371-5.89,5.863-7.92c2.27-2.029,4.977-3.369,7.882-4.524c2.959-0.863,5.666-1.327,8.345-1.327
	c7.231,0,12.434,1.565,15.803,4.736c3.41,3.371,4.977,9.275,4.977,17.846V275.447z M839.072,277.662
	c7.179,0,13.734-1.113,19.862-3.331c5.852-2.028,11.052-5.625,15.338-10.374c4.285-4.749,7.431-11.065,9.912-18.986
	c2.255-7.656,3.41-17.154,3.41-28.207s-1.155-20.513-3.41-28.433c-2.481-7.669-5.627-13.985-9.912-18.722
	c-4.286-4.736-9.486-8.345-15.338-10.602c-6.128-2.042-12.684-3.171-19.862-3.171c-7.244,0-13.797,1.129-19.649,3.171
	c-6.115,2.256-11.051,5.865-15.336,10.602c-4.301,4.736-7.71,11.053-9.965,18.722c-2.482,7.92-3.596,17.38-3.596,28.433
	c0,10.6,1.114,19.636,3.596,27.318c2.254,7.669,5.664,13.983,9.965,18.96c4.285,4.975,9.221,8.571,15.336,11.051
	C825.275,276.549,831.828,277.662,839.072,277.662z M852.381,124.444c0,3.861,1.353,7.231,4.06,9.713
	c2.493,2.721,5.863,4.06,9.672,4.06c3.874,0,7.244-1.339,9.965-4.06c2.479-2.481,3.821-5.852,3.821-9.713
	c0-3.834-1.342-7.203-3.821-9.923c-2.721-2.482-6.091-3.808-9.965-3.808c-3.809,0-7.179,1.326-9.672,3.808
	C853.734,117.241,852.381,120.61,852.381,124.444z M839.072,174.133c8.798,0,15.338,3.357,19.16,9.897
	c3.834,6.555,5.865,17.607,5.865,32.733c0,13.771-1.792,24.147-5.627,31.617c-3.834,7.417-10.374,11.065-19.398,11.065
	c-9.035,0-15.349-3.648-19.225-11.065c-3.82-7.47-5.864-17.847-5.864-31.617c0-15.126,2.044-26.179,5.864-32.733
	C823.723,177.49,830.263,174.133,839.072,174.133z M800.438,124.444c0,3.861,1.392,7.231,4.073,9.713
	c2.48,2.721,5.89,4.06,9.711,4.06c3.834,0,7.244-1.339,9.91-4.06c2.495-2.481,3.863-5.852,3.863-9.713
	c0-3.834-1.368-7.203-3.863-9.923c-2.666-2.482-6.076-3.808-9.91-3.808c-3.821,0-7.231,1.326-9.711,3.808
	C801.831,117.241,800.438,120.61,800.438,124.444z M669.774,275.447h23.033v-76.941c0-4.285,0.889-7.921,2.495-11.066
	c1.578-3.169,3.37-5.89,5.863-7.92c2.256-2.029,4.977-3.369,7.881-4.524c2.946-0.863,5.667-1.327,8.347-1.327
	c7.455,0,12.657,1.565,16.027,4.736c3.183,3.371,4.75,9.275,4.75,17.846v79.196h23.046v-80.352c0-13.082-2.946-23.005-9.037-29.533
	c-6.128-6.555-15.815-9.727-29.122-9.727c-5.864,0-11.53,1.129-16.691,3.596c-5.202,2.481-9.726,6.342-13.561,11.517V117.48h-23.033
	V275.447z M615.616,258.742c-2.946,0-6.091-0.451-9.037-1.327c-2.944-0.928-5.665-2.945-7.921-5.89
	c-2.44-2.919-4.285-6.979-5.625-12.646c-1.565-5.387-2.256-12.617-2.256-21.652s0.691-16.279,1.792-21.906
	c1.153-5.625,2.959-9.897,5.2-13.082c2.044-2.946,4.763-4.975,7.895-6.089c2.946-0.917,6.316-1.381,10.177-1.381
	c4.073,0,7.881,0.464,11.291,1.155c3.371,0.889,7.429,2.254,11.941,4.06l6.778-17.144c-4.06-1.804-8.332-3.41-13.095-4.988
	c-4.736-1.327-10.827-2.018-18.284-2.018c-16.24,0-28.208,4.964-35.636,15.113c-7.697,10.177-11.517,25.528-11.517,46.279
	c0,11.968,1.114,21.893,3.594,29.759c2.482,7.936,5.666,14.012,9.952,18.536c4.285,4.511,9.221,7.695,14.887,9.5
	c5.625,1.751,11.941,2.64,18.494,2.64c7.457,0,13.534-0.649,18.509-2.028c4.763-1.541,9.273-3.105,13.335-4.909l-6.78-17.184
	c-4.511,1.832-8.571,3.185-11.98,3.874C623.961,258.291,619.915,258.742,615.616,258.742z M494.825,256.951
	c-7.656,0-14.437-0.928-20.287-2.721c-5.892-1.578-11.292-3.596-16.266-6.089l-8.107,18.311c6.766,3.355,13.732,6.076,20.976,8.106
	c6.993,1.99,15.113,3.104,24.373,3.104c9.035,0,16.916-1.113,23.696-3.569c6.767-2.255,12.432-5.387,16.717-9.485
	c4.301-4.047,7.656-8.81,9.925-14.437c2.016-5.625,3.158-11.755,3.158-18.282c0-9.687-1.832-17.382-5.202-23.471
	c-3.581-5.853-8.106-10.84-13.545-14.887c-5.387-3.835-11.292-7.245-17.367-9.727c-6.091-2.48-11.954-5.161-17.382-7.879
	c-5.399-2.482-9.911-5.666-13.32-9.037c-3.596-3.371-5.386-8.107-5.386-13.771c0-3.371,0.635-6.555,2.016-9.037
	c1.34-2.454,3.145-4.71,5.625-6.553c2.256-1.567,4.977-2.906,8.12-3.808c3.171-0.703,6.542-1.127,9.952-1.127
	c7.417,0,13.97,0.889,19.862,2.493c5.865,1.58,11.291,3.596,16.227,5.852l7.47-17.382c-1.804-0.902-4.06-2.016-6.78-3.171
	c-2.946-1.101-6.089-2.493-9.685-3.609c-3.635-1.127-7.457-2.016-11.755-2.706c-4.272-0.689-8.796-1.101-13.309-1.101
	c-5.625,0-11.528,0.65-17.605,2.016c-6.089,1.353-11.755,3.609-16.691,6.78c-5.202,3.145-9.26,7.417-12.446,12.631
	c-3.369,5.174-4.934,11.703-4.934,19.637c0,9.021,1.804,16.227,5.399,21.652c3.371,5.44,7.879,9.925,13.095,13.322
	c5.2,3.596,11.066,6.555,17.382,9.035c6.076,2.481,11.968,4.988,17.142,7.669c5.2,2.945,9.711,6.316,13.32,10.177
	c3.41,4.061,5.202,9.446,5.202,16.001c0,9.247-2.72,15.803-8.347,19.438C510.401,255.147,503.396,256.951,494.825,256.951z"/>
</svg>
