<?xml version="1.0" encoding="utf-8"?>
<!-- Generator: Adobe Illustrator 15.0.2, SVG Export Plug-In . SVG Version: 6.00 Build 0)  -->
<!DOCTYPE svg PUBLIC "-//W3C//DTD SVG 1.1//EN" "http://www.w3.org/Graphics/SVG/1.1/DTD/svg11.dtd">
<svg version="1.1" id="Vrstva_1" xmlns="http://www.w3.org/2000/svg" xmlns:xlink="http://www.w3.org/1999/xlink" x="0px" y="0px"
	 width="2500px" height="1600px" viewBox="0 0 2500 1600" enable-background="new 0 0 2500 1600" xml:space="preserve">
<g>
	<path fill-rule="evenodd" clip-rule="evenodd" d="M4,1483.858c0,60.396,48.732,109.244,109.161,109.244h2264.413
		c60.363,0,109.261-48.848,109.261-109.244V113.244C2486.835,52.898,2437.938,4,2377.574,4H113.161C52.732,4,4,52.898,4,113.244
		V1483.858z"/>
	<path fill-rule="evenodd" clip-rule="evenodd" fill="#FFFFFF" d="M28.822,1483.858V113.261c0-46.625,37.681-84.438,84.405-84.438
		h2264.38c46.607,0,84.488,37.814,84.488,84.438v1370.598c0,46.674-37.881,84.422-84.488,84.422H113.228
		C66.503,1568.28,28.822,1530.532,28.822,1483.858"/>
	<path fill-rule="evenodd" clip-rule="evenodd" fill="#009FE3" d="M88.455,1483.858c0,13.771,10.984,24.839,24.723,24.839h2264.43
		c13.821,0,24.938-11.167,24.938-24.839V113.244c0-13.622-11.216-24.839-24.938-24.839H113.178
		c-13.738,0-24.723,11.067-24.723,24.839V1483.858z"/>
	<rect x="191.162" y="147.143" fill-rule="evenodd" clip-rule="evenodd" fill="#FFFFFF" width="1581.536" height="294.548"/>
	<path fill-rule="evenodd" clip-rule="evenodd" fill="#FFFFFF" d="M982.851,1265.021h264.201V963.753H982.851V1265.021z
		 M967.968,1279.938V948.837h293.935v331.101H967.968z"/>
	<polygon fill-rule="evenodd" clip-rule="evenodd" fill="#FFFFFF" points="991.214,1078.424 1237.66,1078.424 1237.66,1092.129 
		1225.282,1092.129 1225.282,1134.356 1196.926,1134.356 1196.926,1091.382 1031.849,1091.382 1031.849,1133.858 1003.559,1133.858 
		1003.559,1090.801 991.214,1090.801 	"/>
	<path fill-rule="evenodd" clip-rule="evenodd" fill="#009FE3" d="M369.597,231.598v157.761h26.913V204.685h-30.596l-47.205,33.782
		l14.784,18.733L369.597,231.598z M495.333,176.71H254.777v240.789h240.556V176.71z"/>
	<polygon fill-rule="evenodd" clip-rule="evenodd" fill="#FFFFFF" points="1038.917,1242.024 1067.323,1096.045 1105.784,1096.045 
		1103.378,1242.024 	"/>
	<polygon fill-rule="evenodd" clip-rule="evenodd" fill="#FFFFFF" points="1125.446,1242.024 1122.111,1096.26 1161.684,1096.26 
		1188.879,1242.024 	"/>
	<polygon fill-rule="evenodd" clip-rule="evenodd" fill="#FFFFFF" points="1071.952,1070.758 1088.793,984.478 1109.534,984.478 
		1106.697,1070.758 	"/>
	<polygon fill-rule="evenodd" clip-rule="evenodd" fill="#FFFFFF" points="1121.563,1070.758 1119.655,984.328 1139.766,984.328 
		1156.225,1070.758 	"/>
	<path fill-rule="evenodd" clip-rule="evenodd" fill="#FFFFFF" d="M2232.955,1277.499h47.752v-166.571
		c0-27.162-6.072-47.753-18.716-61.325c-12.66-13.556-32.77-20.077-60.363-20.077c-13.124,0-25.751,2.738-37.433,8.396
		c-12.162,6.09-22.482,14.95-30.43,26.697l-6.521-30.446h-36.055v243.327h47.72v-159.536c0-8.927,1.875-16.394,5.16-22.964
		c3.235-6.537,7.002-12.162,12.162-16.377c4.646-4.214,10.271-6.985,16.394-9.374c6.056-1.875,11.664-2.771,17.322-2.771
		c14.934,0,25.734,3.285,32.703,9.807c7.02,7.019,10.305,19.197,10.305,36.984V1277.499z M1948.495,1243.833
		c-9.408,0-17.82-0.93-25.287-2.821c-7.467-1.394-14.07-5.144-19.197-10.287c-5.608-5.16-9.807-12.195-13.075-21.984
		c-3.335-9.358-5.641-22.035-6.105-37.449h145.531v-26.697c0-17.289-1.377-32.721-4.662-47.238
		c-3.302-14.054-8.462-26.216-15.447-36.537c-7.019-9.772-16.858-17.754-29.037-23.411c-12.129-5.144-27.145-7.882-45.413-7.882
		c-65.955,0-98.725,43.488-98.725,130.997c0,24.806,3.318,44.948,9.358,60.38c6.089,15.896,14.053,28.539,23.926,37.449
		c9.789,8.893,21.504,15.414,34.578,18.683c12.677,3.235,26.232,5.094,39.789,5.094c15.879,0,30.878-1.858,44.451-5.525
		c13.556-3.75,24.357-7.532,32.753-11.249l-14.485-34.629c-9.357,3.75-18.716,7.019-28.572,9.358
		C1969.086,1242.39,1958.799,1243.833,1948.495,1243.833z M1934.889,1066.477c18.252,0,31.377,5.592,39.341,16.36
		c7.932,10.769,11.681,29.484,11.681,56.148h-100.615c0.497-14.054,2.306-25.718,4.679-35.093
		c2.356-9.342,5.608-16.841,9.822-22.449c4.215-5.16,8.894-9.375,14.967-11.682
		C1920.885,1067.373,1927.406,1066.477,1934.889,1066.477z M1720.599,957.432c0,8.877,3.285,16.394,9.374,22.482
		c6.073,6.04,13.573,9.358,22.467,9.358c8.91,0,16.824-3.318,22.914-9.358c6.089-6.089,8.927-13.605,8.927-22.482
		c0-8.894-2.838-16.857-8.927-22.947c-6.09-6.057-14.004-8.877-22.914-8.877c-8.894,0-16.394,2.82-22.467,8.877
		C1723.884,940.574,1720.599,948.538,1720.599,957.432z M1776.315,1034.172h-82.829v37.465h35.076v205.862h47.753V1034.172z
		 M1625.623,1277.499l44.451-327.567h-42.592l-38.826,281.291l-53.843-239.61h-47.222l-53.345,240.489l-36.536-282.17h-45.828
		l44.434,327.567h65.972l47.736-224.628l46.808,224.628H1625.623z"/>
	<path fill-rule="evenodd" clip-rule="evenodd" d="M1657.713,400.375h30.414V294.217c0-17.339-3.899-30.463-11.93-39.125
		c-8.064-8.628-20.906-12.81-38.511-12.81c-8.347,0-16.394,1.775-23.827,5.376c-7.765,3.883-14.336,9.524-19.413,17.007
		l-4.164-19.396h-22.964v155.105h30.413V298.664c0-5.674,1.179-10.437,3.269-14.634c2.074-4.165,4.48-7.765,7.749-10.437
		c3.02-2.671,6.604-4.447,10.453-5.957c3.866-1.211,7.467-1.759,11.051-1.759c9.524,0,16.394,2.058,20.873,6.222
		c4.464,4.497,6.587,12.278,6.587,23.578V400.375z M1476.358,378.921c-5.94,0-11.349-0.597-16.095-1.809
		c-4.778-0.879-8.943-3.285-12.229-6.57c-3.601-3.269-6.288-7.732-8.379-13.987c-2.058-5.974-3.567-14.054-3.85-23.893h92.734
		v-17.007c0-11.018-0.879-20.873-2.953-30.115c-2.091-8.943-5.376-16.708-9.839-23.263c-4.48-6.255-10.769-11.333-18.484-14.917
		c-7.781-3.302-17.339-5.077-28.97-5.077c-42.045,0-62.919,27.743-62.919,83.526c0,15.813,2.091,28.638,5.957,38.511
		c3.883,10.104,8.927,18.152,15.215,23.827c6.256,5.674,13.722,9.839,22.052,11.93c8.097,2.058,16.725,3.269,25.369,3.269
		c10.172,0,19.679-1.211,28.34-3.551c8.611-2.406,15.515-4.812,20.874-7.151l-9.259-22.101c-5.94,2.406-11.896,4.497-18.169,5.99
		C1489.483,377.992,1482.929,378.921,1476.358,378.921z M1467.714,265.877c11.614,0,19.978,3.567,25.038,10.387
		c5.061,6.886,7.45,18.832,7.45,35.823h-64.113c0.299-8.96,1.51-16.41,3.003-22.383c1.46-5.94,3.551-10.719,6.239-14.319
		c2.704-3.286,5.675-5.94,9.54-7.45C1458.754,266.425,1462.919,265.877,1467.714,265.877z M1311.115,269.146v92.453
		c0,12.229,3.285,22.068,10.154,29.833c6.836,8.047,17.604,11.914,32.223,11.914c11.631,0,22.947-2.406,33.699-6.836l-7.467-21.802
		c-3.866,1.526-7.467,2.406-10.735,3.003c-3.285,0.614-6.554,0.879-9.839,0.879c-6.87,0-11.333-1.477-13.706-4.762
		c-2.704-3.285-3.882-7.749-3.882-13.407v-91.274h40.535V245.27h-40.535v-32.836h-30.447v32.836h-23.844l-3.003,23.876H1311.115z
		 M1275.043,397.986l-5.675-23.279c-1.493,0.332-3.285,0.597-5.393,0.946c-2.058,0.266-3.551,0.581-5.061,0.581
		c-3.882,0-6.554-0.929-7.765-2.688c-1.494-1.792-2.074-4.795-2.074-9.225V191.544h-30.431V366.66
		c0,6.289,0.896,11.665,2.688,16.128c1.809,4.48,4.165,8.346,7.434,11.034c3.003,2.688,6.587,4.779,10.785,5.974
		c3.866,1.46,8.33,2.057,12.81,2.057c4.463,0,8.346-0.332,12.229-1.211C1268.489,399.795,1271.758,398.866,1275.043,397.986z
		 M1114.296,403.346c9.558,0,18.186-1.494,26.216-4.48c7.766-2.655,14.651-7.434,20.31-13.722
		c5.674-6.222,9.839-14.601,13.108-25.038c2.987-10.122,4.463-22.649,4.463-37.3c0-14.602-1.477-27.128-4.463-37.549
		c-3.269-10.138-7.434-18.5-13.108-24.789c-5.658-6.255-12.544-11.018-20.31-14.004c-8.03-2.688-16.658-4.181-26.216-4.181
		c-9.524,0-18.168,1.493-25.934,4.181c-8.081,2.987-14.635,7.749-20.276,14.004c-5.675,6.288-10.171,14.651-13.125,24.789
		c-3.286,10.42-4.779,22.947-4.779,37.549c0,14.054,1.493,25.967,4.779,36.105c2.953,10.138,7.45,18.517,13.125,25.088
		c5.641,6.554,12.195,11.316,20.276,14.601C1096.127,401.852,1104.772,403.346,1114.296,403.346z M1131.9,200.835
		c0,5.044,1.759,9.541,5.326,12.826c3.285,3.567,7.766,5.376,12.826,5.376c5.11,0,9.541-1.809,13.158-5.376
		c3.285-3.285,5.061-7.782,5.061-12.826c0-5.061-1.775-9.557-5.061-13.125c-3.617-3.269-8.047-5.061-13.158-5.061
		c-5.061,0-9.541,1.792-12.826,5.061C1133.659,191.278,1131.9,195.775,1131.9,200.835z M1114.296,266.425
		c11.648,0,20.259,4.497,25.337,13.125c5.077,8.678,7.765,23.279,7.765,43.256c0,18.218-2.406,31.94-7.483,41.78
		c-5.044,9.839-13.688,14.618-25.619,14.618c-11.93,0-20.292-4.779-25.336-14.618c-5.061-9.839-7.765-23.562-7.765-41.78
		c0-19.977,2.705-34.579,7.765-43.256C1094.003,270.922,1102.698,266.425,1114.296,266.425z M1063.308,200.835
		c0,5.044,1.759,9.541,5.376,12.826c3.285,3.567,7.782,5.376,12.81,5.376c5.077,0,9.557-1.809,13.124-5.376
		c3.286-3.285,5.061-7.782,5.061-12.826c0-5.061-1.775-9.557-5.061-13.125c-3.567-3.269-8.047-5.061-13.124-5.061
		c-5.028,0-9.524,1.792-12.81,5.061C1065.066,191.278,1063.308,195.775,1063.308,200.835z M1029.011,257.183
		c0-22.964-5.99-39.656-17.903-50.076c-11.946-10.453-29.518-15.563-53.096-15.563h-55.485v208.832h32.206v-74.284h23.893
		c11,0,20.84-1.162,29.518-3.882c8.645-2.373,15.813-6.239,22.035-11.914c5.974-5.658,10.769-12.809,14.054-21.471
		C1027.501,280.164,1029.011,269.445,1029.011,257.183z M996.175,257.797c0,8.628-0.879,15.514-2.406,21.188
		c-1.46,5.658-3.866,10.138-6.819,13.407c-3.003,3.286-6.554,5.691-11.051,7.151c-4.497,1.494-9.242,2.107-14.601,2.107h-26.564
		v-85.932h26.564c11.034,0,19.363,3.318,25.652,9.557C993.188,231.88,996.175,242.599,996.175,257.797z M818.404,383.385
		c0,5.658,1.808,10.437,5.691,14.303c3.866,3.833,8.645,5.658,14.319,5.658c5.641,0,10.453-1.825,14.303-5.658
		c3.866-3.866,5.674-8.645,5.674-14.303c0-5.674-1.809-10.437-5.674-14.336c-3.85-3.849-8.662-5.674-14.303-5.674
		c-5.675,0-10.453,1.825-14.319,5.674C820.212,372.948,818.404,377.71,818.404,383.385z M735.177,269.146v92.453
		c0,12.229,3.285,22.068,10.188,29.833c6.819,8.047,17.604,11.914,32.206,11.914c11.615,0,22.964-2.406,33.683-6.836l-7.45-21.802
		c-3.883,1.526-7.467,2.406-10.752,3.003c-3.285,0.614-6.554,0.879-9.839,0.879c-6.869,0-11.316-1.477-13.688-4.762
		c-2.721-3.285-3.899-7.749-3.899-13.407v-91.274h40.552V245.27h-40.552v-32.836h-30.447v32.836H711.35l-3.003,23.876H735.177z
		 M623.079,375.918c-10.155,0-19.098-1.211-26.863-3.584c-7.749-2.074-14.917-4.746-21.47-8.014l-10.719,24.109
		c8.96,4.496,18.185,8.08,27.726,10.768c9.242,2.655,20.011,4.148,32.206,4.148c11.913,0,22.366-1.494,31.343-4.746
		c8.943-3.003,16.394-7.168,22.068-12.544c5.658-5.343,10.122-11.631,13.108-19.081c2.688-7.483,4.165-15.498,4.165-24.159
		c0-12.842-2.39-22.98-6.836-30.995c-4.778-7.765-10.768-14.335-17.903-19.711c-7.168-5.078-14.917-9.558-22.98-12.843
		c-8.047-3.269-15.779-6.836-22.964-10.437c-7.151-3.285-13.125-7.45-17.604-11.93c-4.762-4.48-7.135-10.719-7.135-18.202
		c0-4.48,0.896-8.645,2.705-11.93c1.759-3.269,4.148-6.222,7.433-8.662c3.003-2.057,6.571-3.849,10.735-5.061
		c4.181-0.879,8.661-1.493,13.108-1.493c9.839,0,18.517,1.211,26.25,3.269c7.749,2.124,14.933,4.779,21.487,7.782l9.839-22.947
		c-2.406-1.228-5.359-2.705-8.96-4.214c-3.833-1.477-8.047-3.285-12.792-4.778c-4.779-1.46-9.873-2.655-15.547-3.534
		c-5.641-0.929-11.614-1.527-17.604-1.527c-7.433,0-15.182,0.913-23.229,2.671c-8.047,1.825-15.547,4.829-22.101,8.993
		c-6.82,4.131-12.212,9.839-16.394,16.675c-4.43,6.869-6.554,15.498-6.554,25.951c0,11.93,2.389,21.487,7.151,28.655
		c4.463,7.151,10.437,13.125,17.306,17.588c6.869,4.795,14.618,8.645,22.997,11.947c8.031,3.285,15.779,6.554,22.648,10.121
		c6.853,3.883,12.843,8.346,17.604,13.44c4.463,5.359,6.836,12.527,6.836,21.172c0,12.229-3.567,20.89-11.017,25.652
		C643.637,373.545,634.411,375.918,623.079,375.918z"/>
	<path fill-rule="evenodd" clip-rule="evenodd" fill="#FFFFFF" d="M319.919,1441.415V785.186l-82.796,21.42
		c-4.048,1.063-1.344,0.714-5.525,0.714c-12.295,0-22.084-9.773-22.084-22.084c0-4.331,0.796-7.284,2.97-11.034l162.622-281.49
		l162.622,281.49c2.157,3.75,2.97,6.703,2.97,11.034c0,12.312-9.773,22.084-22.068,22.084c-4.181,0-1.51,0.349-5.542-0.714
		l-82.779-21.42v656.229H319.919z"/>
	<path fill-rule="evenodd" clip-rule="evenodd" fill="#FFFFFF" d="M405.237,1240.531l224.86-129.819l-59.965-60.977
		c-2.92-2.987-1.278-0.813-3.369-4.431c-6.139-10.669-2.571-24.025,8.081-30.182c3.75-2.156,6.72-2.953,11.067-2.953l325.045,0.116
		l-162.439,281.589c-2.157,3.75-4.331,5.907-8.081,8.081c-10.652,6.155-24.009,2.571-30.165-8.081
		c-2.091-3.617-1.029-1.111-2.157-5.144l-22.831-82.414l-280.046,161.71V1240.531z"/>
</g>
</svg>
