<?xml version="1.0" encoding="utf-8"?>
<!-- Generator: Adobe Illustrator 15.0.2, SVG Export Plug-In . SVG Version: 6.00 Build 0)  -->
<!DOCTYPE svg PUBLIC "-//W3C//DTD SVG 1.1//EN" "http://www.w3.org/Graphics/SVG/1.1/DTD/svg11.dtd">
<svg version="1.1" id="Vrstva_1" xmlns="http://www.w3.org/2000/svg" xmlns:xlink="http://www.w3.org/1999/xlink" x="0px" y="0px"
	 width="1740px" height="390px" viewBox="0 0 1740 390" enable-background="new 0 0 1740 390" xml:space="preserve">
<g>
	<path fill-rule="evenodd" clip-rule="evenodd" d="M47.154,8.589h1646.534c25.151,0,45.342,20.191,45.342,45.316v287.016
		c0,25.138-20.19,45.327-45.342,45.327H47.154c-25.139,0-45.315-20.189-45.315-45.327V53.906C1.839,28.78,22.016,8.589,47.154,8.589
		"/>
	<path fill-rule="evenodd" clip-rule="evenodd" fill="#FFFFFF" d="M47.154,16.157h1646.534c20.948,0,37.772,16.799,37.772,37.749
		v287.016c0,20.947-16.824,37.76-37.772,37.76H47.154c-20.948,0-37.76-16.813-37.76-37.76V53.906
		C9.394,32.956,26.206,16.157,47.154,16.157"/>
	<path fill-rule="evenodd" clip-rule="evenodd" fill="#009FE3" d="M47.154,38.81h1646.534c8.458,0,15.109,6.65,15.109,15.096
		v287.016c0,8.458-6.651,15.121-15.109,15.121H47.154c-8.459,0-15.097-6.663-15.097-15.121V53.906
		C32.058,45.46,38.695,38.81,47.154,38.81"/>
	<path fill-rule="evenodd" clip-rule="evenodd" fill="#FFFFFF" d="M140.06,171.097h169.943v10.069h-9.071v29.435h-20.391v-29.435
		h-111.02v29.435h-20.391v-29.435h-9.071V171.097z M255.63,185.037h-26.442l1.516,102.255h43.799L255.63,185.037z M192.172,185.037
		H218.6l-1.489,102.255h-43.826L192.172,185.037z M252.596,167.998h-24.167l-1.516-61.967h15.124L252.596,167.998z M195.192,167.998
		h24.18l1.503-61.967h-15.097L195.192,167.998z M120.415,93.182h208.46v208.474h-208.46V93.182z M111.357,84.124h226.577v226.59
		H111.357V84.124z"/>
	<path fill-rule="evenodd" clip-rule="evenodd" fill="#FFFFFF" d="M558.115,143.392v133.021h22.184v-158.36h-23.288l-34.196,28.065
		l13.354,15.841L558.115,143.392z M481.222,240.461l6.797,35.952h24.859l-35.033-158.36H447.08l-34.608,158.36h24.407l6.543-35.952
		H481.222z M446.853,221.241l15.389-84.646l15.603,84.646H446.853z M392.321,93.182h208.474v208.474H392.321V93.182z
		 M383.275,84.124h226.579v226.59H383.275V84.124z"/>
	<polygon fill-rule="evenodd" clip-rule="evenodd" fill="#FFFFFF" points="1649.063,197.419 1558.432,288.063 1483.669,288.063 
		1547.873,223.849 1414.919,223.849 1414.919,170.992 1547.873,170.992 1483.669,106.775 1558.432,106.775 	"/>
	<path fill-rule="evenodd" clip-rule="evenodd" fill="#FFFFFF" d="M1326.787,258.629v18.116c0,8.778-1.516,14.657-4.362,18.075
		c-3.032,3.379-8.047,4.936-14.989,4.936c-3.299,0-6.758-0.427-10.894-1.119c-4.15-0.677-8.726-2.021-13.74-3.816l-5.212,17.649
		c4.148,1.57,8.897,3.14,14.59,4.71c5.653,1.396,11.305,2.021,16.771,2.021c13.7,0,23.516-3.591,29.834-10.839
		c6.091-7.435,9.125-18.768,9.125-34.344V159.751h-14.577l-2.595,8.593c-2.008-2.939-4.814-5.639-8.087-7.674
		c-3.471-2.023-7.621-3.179-12.196-3.179c-5.866,0-11.333,1.156-15.881,3.179c-4.575,2.26-8.486,5.639-11.772,10.401
		c-3.244,4.76-5.879,10.866-7.607,18.341c-1.743,7.449-2.62,16.493-2.62,27.133c0,10.202,0.665,18.793,2.168,25.591
		c1.517,6.982,3.484,12.437,6.331,16.72c2.833,4.308,6.079,7.262,10.002,9.058c3.698,1.796,8.047,2.725,12.622,2.725
		c5.881,0,10.456-1.156,14.18-3.416C1321.575,264.96,1324.38,262.008,1326.787,258.629 M1310.242,252.298
		c-6.105,0-10.229-2.727-12.409-8.365c-2.395-5.454-3.472-13.806-3.472-25.126c0-14.937,1.289-25.79,4.136-32.813
		c2.808-6.783,8.047-10.162,15.881-10.162c2.183,0,4.363,0.467,6.531,1.331c1.955,0.931,3.923,2.048,5.878,3.418v53.375
		c0,4.761-1.516,9.057-4.362,12.662C1319.618,250.503,1315.482,252.298,1310.242,252.298z M1243.806,178.746
		c1.503,0,3.471,0.225,5.466,0.465c1.956,0.452,4.309,1.371,6.943,2.487l4.575-21.495c-2.183-0.692-4.136-1.369-6.091-2.021
		c-1.956-0.467-4.363-0.692-7.21-0.692c-6.318,0-11.066,2.021-14.577,5.866c-3.698,4.108-6.545,9.056-8.499,14.737l-3.458-18.343
		h-14.832v117.645h21.348v-66.489c0-9.285,1.291-17,3.711-23.104C1233.576,181.698,1237.927,178.746,1243.806,178.746z
		 M1126.439,159.751h-21.348v80.537c0,13.127,2.408,22.876,6.983,29.422c4.548,6.57,11.97,9.907,22.411,9.907
		c5.027,0,9.789-1.344,13.926-4.029c4.138-2.501,7.634-6.317,10.48-11.505l3.699,13.313h14.816V159.751h-21.362v76.931
		c0,9.058-1.729,15.376-5.015,19.22c-3.244,3.884-7.38,5.906-12.409,5.906c-4.136,0-7.195-1.597-9.163-4.975
		c-1.942-3.192-3.02-9.059-3.02-17.649V159.751z M1006.055,277.396h14.765l1.955-7.687c2.181,2.965,5.027,5.452,8.271,7.262
		c3.286,1.756,7.21,2.646,12.185,2.646c12.223,0,21.56-5.133,27.878-15.534c6.331-10.441,9.603-27.161,9.603-50.264
		c0-11.506-0.664-20.803-2.168-28.065c-1.556-7.235-3.736-12.874-6.543-17.184c-2.847-4.283-5.866-7.248-9.603-8.818
		c-3.686-1.568-7.834-2.26-12.409-2.26c-5.642,0-10.229,1.156-13.913,3.604c-3.738,2.487-6.545,5.679-8.726,9.522v-51.579h-21.295
		V277.396z M1043.456,175.832c2.847,0,5.466,0.652,7.422,2.022c1.955,1.356,3.471,3.617,4.762,6.81
		c1.104,3.139,1.995,7.195,2.635,12.41c0.438,5.239,0.649,11.558,0.649,19.005c0,8.82-0.438,16.308-1.104,21.935
		c-0.625,5.919-1.729,10.454-3.257,13.833c-1.504,3.403-3.686,5.865-6.306,7.247c-2.62,1.57-5.652,2.263-9.377,2.263
		c-3.911,0-7.835-1.384-11.531-3.844v-59.507c0-2.488,0.226-5.215,0.852-7.941c0.664-2.5,1.556-4.987,2.845-7.023
		c1.291-2.035,3.06-3.831,5.029-5.187C1038.031,176.484,1040.65,175.832,1043.456,175.832z M938.979,258.164l44.426-77.583v-20.83
		h-64.03v19.22h41.179l-44.649,79.658v18.768h65.944v-19.232H938.979z M906.301,275.588l-4.138-17.424
		c-1.969,0.692-3.911,0.93-6.092,0.93c-1.955,0-3.299-0.689-4.136-1.809c-0.892-1.156-1.344-3.644-1.344-7.247V119.039h-21.334
		v132.808c0,9.734,2.18,16.532,6.318,20.588c4.136,4.07,8.938,6.066,14.803,6.066c2.635,0,5.241-0.228,7.874-0.68
		C900.847,277.21,903.453,276.505,906.301,275.588z M803.699,176.484c2.805,0,5.439,0.24,7.62,0.679
		c2.183,0.464,3.911,1.356,5.454,2.727c1.516,1.356,2.593,3.377,3.259,5.864c0.665,2.727,1.104,6.346,1.104,10.642v8.832h-11.558
		c-14.14,0-24.369,2.952-30.912,8.592c-6.757,5.906-10.055,15.376-10.055,28.729c0,7.022,0.904,12.889,2.42,17.663
		c1.556,4.748,3.499,8.406,6.305,11.318c2.845,2.954,6.091,5.215,9.828,6.291c3.699,1.144,7.822,1.796,12.185,1.796
		c6.77,0,11.97-1.568,15.881-4.455c3.724-2.952,6.77-6.783,8.713-11.079l3.736,13.313h14.577v-82.345
		c0-12.889-2.607-22.412-8.086-28.503c-5.427-6.105-14.804-9.058-28.291-9.058c-5.679,0-11.333,0.692-17.199,2.021
		c-5.879,1.344-11.119,2.954-15.254,4.775l5.467,17.185c4.973-1.808,9.563-3.152,13.913-3.844
		C796.941,176.936,800.638,176.484,803.699,176.484z M821.136,220.829v18.115c0,2.261-0.214,4.748-0.892,7.248
		c-0.664,2.7-1.73,5.188-3.059,7.223c-1.516,2.262-3.259,4.098-5.654,5.679c-2.393,1.57-5.2,2.263-8.486,2.263
		c-4.588,0-7.833-1.57-9.788-4.987c-1.97-3.379-2.847-8.366-2.847-15.164c0-7.248,1.516-12.437,4.363-15.602
		c2.847-3.151,7.422-4.774,13.913-4.774H821.136z M709.874,258.856c-5.479,0-10.454-0.919-14.816-2.487
		c-4.363-1.584-8.711-3.619-13.074-6.106l-7.647,18.541c5.465,3.406,10.906,6.133,16.812,7.941
		c5.864,1.982,12.409,2.872,19.79,2.872c7.197,0,13.74-1.116,19.167-3.564c5.467-2.5,9.79-5.653,13.528-9.935
		c3.457-4.11,6.079-9.058,8.047-14.738c1.728-5.64,2.607-11.971,2.607-18.541c0-7.939-1.104-14.497-3.059-19.911
		c-1.956-5.439-4.575-9.975-7.595-13.806c-3.299-3.843-6.77-7.022-10.681-9.522c-3.911-2.447-7.862-4.522-11.558-6.558
		c-2.82-1.57-5.654-3.152-8.5-4.947c-2.805-1.61-5.2-3.646-7.38-5.681c-2.169-2.033-3.925-4.521-5.242-7.222
		c-1.291-2.725-1.955-5.892-1.955-9.495c0-7.038,1.955-12.25,5.654-16.095c3.724-3.591,8.299-5.399,13.5-5.399
		c5.252,0,10.015,0.652,14.377,2.26c4.348,1.57,8.711,3.845,13.286,6.333l7.209-18.103c-1.556-0.931-3.299-2.048-5.691-3.191
		c-2.395-1.119-4.989-2.275-7.834-3.379c-3.059-0.931-6.305-1.808-9.604-2.487c-3.472-0.692-6.928-1.117-10.64-1.117
		c-4.575,0-9.364,0.652-14.392,2.021c-4.987,1.583-9.563,3.843-13.7,7.222c-4.136,3.419-7.647,7.714-10.228,12.929
		c-2.847,5.427-4.138,11.97-4.138,19.884c0,7.01,0.852,12.689,2.794,17.452c1.755,4.722,4.148,8.591,6.995,11.97
		c2.847,3.419,5.866,6.106,9.563,8.141c3.511,2.261,6.982,4.296,10.668,6.318c3.284,1.86,6.318,3.656,9.377,5.452
		c3.059,1.809,5.652,3.844,8.046,6.331c2.408,2.502,4.136,5.214,5.652,8.593c1.556,3.419,2.182,7.263,2.182,12.01
		c0,9.298-1.956,16.054-6.093,19.911C721.167,256.834,715.967,258.856,709.874,258.856z"/>
</g>
</svg>
