<?xml version="1.0" encoding="UTF-8" standalone="no"?>
<!-- Created with Inkscape (http://www.inkscape.org/) -->
<svg
   xmlns:svg="http://www.w3.org/2000/svg"
   xmlns="http://www.w3.org/2000/svg"
   version="1.0"
   width="1000"
   height="1500"
   id="svg29247">
  <defs
     id="defs29249" />
  <g
     transform="translate(-180.1207,1146.198)"
     id="layer1">
    <path
       d="M 1148.8182,353.80218 C 1157.1815,353.80218 1165.0372,350.55132 1170.9543,344.65741 C 1176.8621,338.7635 1180.1207,330.93565 1180.1207,322.60129 L 1180.1207,-1114.9969 C 1180.1207,-1123.3313 1176.8621,-1131.1683 1170.9543,-1137.0623 C 1165.0372,-1142.9561 1157.1815,-1146.1978 1148.8182,-1146.1978 L 211.43244,-1146.1978 C 194.17037,-1146.1978 180.12071,-1132.1998 180.12071,-1114.9969 L 180.12071,322.60129 C 180.12071,330.93565 183.37927,338.7635 189.29638,344.65741 C 195.20425,350.55132 203.06911,353.80218 211.43244,353.80218 L 1148.8182,353.80218 z "
       style="fill:black;fill-rule:nonzero;stroke:none"
       id="path29268" />
    <path
       d="M 211.43244,350.11849 C 204.05683,350.11849 197.12431,347.25441 191.90877,342.06041 C 186.69322,336.85719 183.82236,329.95026 183.82236,322.60129 L 183.82236,-1114.9969 C 183.82236,-1122.3458 186.69322,-1129.262 191.90877,-1134.456 C 197.12431,-1139.65 204.05683,-1142.5141 211.43244,-1142.5141 L 1148.8182,-1142.5141 C 1156.1938,-1142.5141 1163.1263,-1139.65 1168.3419,-1134.456 C 1173.5574,-1129.262 1176.4283,-1122.3458 1176.4283,-1114.9969 L 1176.4283,322.60129 C 1176.4283,337.76891 1164.0402,350.11849 1148.8182,350.11849 L 211.43244,350.11849"
       style="fill:white;fill-rule:nonzero;stroke:none"
       id="path28741" />
    <path
       d="M 623.50666,-802.26976 L 623.50666,-1064.3185 L 605.03532,-1064.3185 L 605.03532,-783.85128 L 1092.3334,-783.85128 L 1092.3334,194.88764 L 605.03532,194.88764 L 605.03532,298.48231 L 623.50666,298.48231 L 623.50666,213.30611 L 1110.8047,213.30611 L 1110.8047,-802.26976 L 623.50666,-802.26976"
       style="fill:black;fill-rule:nonzero;stroke:none"
       id="path28743" />
    <path
       d="M 369.46807,-659.54506 L 369.46807,-641.12659 L 461.85246,-641.12659 L 461.85246,298.48231 L 480.32379,298.48231 L 480.32379,-659.54506 L 369.46807,-659.54506"
       style="fill:black;fill-rule:nonzero;stroke:none"
       id="path28745" />
    <path
       d="M 461.85246,-1064.3185 L 461.85246,-802.26976 L 369.46807,-802.26976 L 369.46807,-783.85128 L 480.32379,-783.85128 L 480.32379,-1064.3185 L 461.85246,-1064.3185"
       style="fill:black;fill-rule:nonzero;stroke:none"
       id="path28747" />
    <path
       d="M 605.03532,70.581409 L 967.62186,70.581409 L 967.62186,-659.54506 L 605.03532,-659.54506 L 605.03532,70.581409 z M 623.50666,-641.12659 L 949.1413,-641.12659 L 949.1413,52.162941 L 623.50666,52.162941 L 623.50666,-641.12659 z "
       style="fill:black;fill-rule:nonzero;stroke:none"
       id="path28749" />
    <path
       d="M 1030.2915,-722.01128 C 1011.1278,-741.11124 985.59472,-751.62818 958.38158,-751.62818 L 341.35029,-751.62818 L 348.85513,-780.32415 C 349.73208,-783.05008 349.25207,-786.14439 347.30432,-788.53879 C 344.23961,-792.32378 338.66405,-792.90397 334.87009,-789.83729 L 218.58651,-721.69818 L 334.87009,-653.55905 C 338.67328,-650.50158 344.23961,-651.08177 347.31355,-654.86676 C 349.25207,-657.26117 349.73208,-660.35547 348.86436,-663.0814 L 341.35029,-691.77737 L 958.38158,-691.77737 C 969.55115,-691.77737 980.00994,-687.48587 987.82864,-679.69485 C 995.64734,-671.89464 999.94901,-661.47899 999.94901,-650.33582 L 999.94901,61.372175 C 999.94901,84.220284 981.30228,102.80451 958.38158,102.80451 L 614.27561,102.80451 C 558.09542,102.80451 512.39247,148.36259 512.39247,204.35474 L 512.39247,298.74017 L 572.44047,298.74017 L 572.44047,204.35474 C 572.44047,193.22077 576.7883,182.74988 584.69008,174.87598 C 592.59186,166.99287 603.0968,162.65533 614.27561,162.65533 L 958.38158,162.65533 C 985.59472,162.65533 1011.1278,152.13839 1030.2915,133.04764 C 1049.4459,113.94769 1059.997,88.493368 1059.997,61.372175 L 1059.997,-650.33582 C 1059.997,-677.45702 1049.4459,-702.92055 1030.2915,-722.01128"
       style="fill:black;fill-rule:nonzero;stroke:none"
       id="path28751" />
  </g>
</svg>
