<?xml version="1.0" encoding="utf-8"?>
<!-- Generator: Adobe Illustrator 15.0.2, SVG Export Plug-In . SVG Version: 6.00 Build 0)  -->
<!DOCTYPE svg PUBLIC "-//W3C//DTD SVG 1.1//EN" "http://www.w3.org/Graphics/SVG/1.1/DTD/svg11.dtd">
<svg version="1.1" id="svg2597" xmlns:svg="http://www.w3.org/2000/svg"
	 xmlns="http://www.w3.org/2000/svg" xmlns:xlink="http://www.w3.org/1999/xlink" x="0px" y="0px" width="960px" height="960px"
	 viewBox="0 0 960 960" enable-background="new 0 0 960 960" xml:space="preserve">
<g id="layer1" transform="translate(-878.9386,820.8686)">
	<path id="path2630" fill="#009FE3" d="M915.577,139.131c-20.225,0-36.639-16.402-36.639-36.632v-886.751
		c0-20.229,16.414-36.617,36.639-36.617H1802.3c20.225,0,36.639,16.387,36.639,36.617V102.5c0,20.229-16.414,36.632-36.639,36.632
		H915.577z"/>
	<path id="path179" fill="#FFFFFF" d="M916.05,29.326l885.792-0.045l-442.903-767.045L916.05,29.326"/>
	<path id="path183" d="M1150.643-6.863h51.959v-23.259h-51.959V-6.863z M1221.262-6.863h51.959v-23.259h-51.959V-6.863z
		 M1291.88-6.863h51.96v-23.259h-51.96V-6.863z M1362.499-6.863h51.959v-23.259h-51.959V-6.863z M1433.117-6.863h51.96v-23.259
		h-51.96V-6.863z M1503.722-6.863h51.959v-23.259h-51.959V-6.863z M1574.34-6.863h51.96v-23.259h-51.96V-6.863z M1644.959-6.863
		h51.959v-23.259h-51.959V-6.863z M1080.025-6.863h51.959v-23.259h-51.959V-6.863z M1009.406-6.863h51.959v-23.259h-51.959V-6.863z
		 M1161.65-105.394h35.146v-20.022h-35.146V-105.394z M1221.351-105.394h35.146v-20.022h-35.146V-105.394z M1281.066-105.394h35.147
		v-20.022h-35.147V-105.394z M1340.767-105.394h35.146v-20.022h-35.146V-105.394z M1400.468-105.394h35.146v-20.022h-35.146
		V-105.394z M1460.184-105.394h35.146v-20.022h-35.146V-105.394z M1519.884-105.394h35.146v-20.022h-35.146V-105.394z
		 M1579.585-105.394h35.146v-20.022h-35.146V-105.394z M1101.949-105.394h35.146v-20.022h-35.146V-105.394z M1042.233-105.394
		h35.147v-20.022h-35.147V-105.394z M1639.286-105.394h35.146v-20.022h-35.146V-105.394z"/>
	<path id="path181" d="M1588.302-208.654c-18.468-18.485-43.051-28.652-69.186-28.652c-12.662,0-24.762,2.438-35.886,6.842
		l-25.013-52.856c1.655-2.837,3.177-5.452,4.521-7.787l19.9-0.945c4.284-0.207,7.594-3.843,7.387-8.113
		c-0.207-4.285-3.842-7.58-8.111-7.373l-2.23,0.104c11.051-9.132,1.123-27.44-2.068-34.356
		c-3.886-8.407-19.619-35.626-33.448-61.293c-13.828-25.682-28.897-51.867-49.58-69.303c-20.669-17.451-48.532-23.835-48.532-23.835
		c-5.171,0-9.057-7.757-10.342-12.915c-2.585-9.043-2.585-19.387-9.056-28.431c-7.742-10.343-20.669-15.5-33.596-12.929
		l-7.757,3.886c-11.627,10.329-26.002,32.139-23.254,34.888s3.871,0,6.456,1.286c3.886,3.886,5.171,9.043,9.042,12.93
		c3.886,5.172,1.093,15.974,5.644,16.092c2.601,0.059,3.088,0.384,5.998-4.463c1.285,2.586,2.91,4.034,5.171,5.808
		c3.059,1.463,1.492,1.98,2.261,2.423c2.29,1.33,1.935,4.374,3.87,5.334c6.456,1.285,13.252-4.522,18.423-1.936
		c3.871,2.586,9.042-1.3,11.627,2.586c1.286,5.172,3.871,10.329,2.586,14.215c0,0-3.724-4.743-0.636,1.67
		c-4.195,7.787-6.663,22.49-9.869,34.016c-4.121,14.806-3.161,31.71-2.674,41.419c-8.643,3.768-19.324,10.446-30.02,19.165
		c-7.728,6.31-14.405,12.812-19.576,18.84v-0.015l-7.461,7.847c-2.467,0.384-15.541,2.793-20.949,11.777
		c-1.846,3.073-3.516,8.171-1.004,15.087l0.384,1.078l9.898,9.901l-3.088,10.653c-6.042-13.033-23.667-12.412-23.667-12.412
		l1.123,30.292c0,0-0.474,7.832,5.348,7.832c5.229,0,8.894-2.453,11.465-5.822l-10.032,34.77
		c-10.666-3.901-22.042-5.955-33.743-5.955c-53.954,0-97.847,43.887-97.847,97.822c0,26.14,10.179,50.714,28.661,69.185
		c18.482,18.471,43.051,28.652,69.186,28.652s50.704-10.182,69.186-28.652c18.482-18.471,28.661-43.045,28.661-69.185
		c0-26.125-10.179-50.699-28.661-69.17c-7.047-7.049-14.966-12.87-23.52-17.393l6.648-23.036l79.571,71.342
		c-0.916,0.99-1.772,2.068-2.556,3.28c-0.857,1.729-0.857,6.029,0,6.029c4.535,1.625,8.938,1.418,13.281,0.295l4.551,4.094
		c-3.206,5.274-5.067,11.481-5.067,18.102c0,9.339,3.634,18.116,10.238,24.706c6.604,6.605,15.379,10.24,24.716,10.24
		c9.338,0,18.113-3.635,24.702-10.24c0.147-0.133,0.266-0.28,0.399-0.414c0.147,0.089,0.31,0.192,0.442,0.281
		c-1.772,2.542-4.713,6.206-9.514,11.525c-16.37,18.087-10.563,20.584-5.836,22.742c4.742,2.143,18.97-8.098,22.412-12.398
		c3.442-4.314,9.632-8.762,9.632-8.762s-0.354-3.311,3.088-5.039c1.374-0.68,2.733-0.399,3.886,0.162
		c4.446,16.033,12.956,30.751,25.042,42.838c18.481,18.471,43.05,28.652,69.186,28.652c26.135,0,50.718-10.182,69.186-28.652
		c18.481-18.471,28.661-43.045,28.661-69.185C1616.963-165.609,1606.783-190.183,1588.302-208.654z M1258.669-199.522
		c16.044,16.033,24.879,37.37,24.879,60.038c0,46.827-38.102,84.922-84.92,84.922c-22.692,0-44.011-8.837-60.055-24.869
		c-16.029-16.048-24.864-37.37-24.864-60.053c0-22.668,8.835-44.005,24.864-60.038c16.044-16.032,37.363-24.869,60.055-24.869
		c10.46,0,20.64,1.906,30.139,5.512l-8.125,28.164l-28.056,47.98c-1.803,3.073-0.769,7.034,2.319,8.837s7.032,0.768,8.835-2.32
		l28.469-48.675c0.266-0.458,0.473-0.945,0.62-1.463l7.786-26.938C1247.131-209.57,1253.218-204.974,1258.669-199.522z
		 M1508.686-146.414l-73.854-3.324c2.261-18.796,10.652-36.188,24.244-49.783c5.437-5.438,11.494-10.019,17.994-13.742
		L1508.686-146.414z M1307.836-339.221c15.01-12.235,28.735-12.708,34.763-30.795c5.053-8.098,5.658-15.53,9.484-29.287
		c0.695-2.497,5.467-10.506,6.028-12.93c4.402,6.517,6.146,7.743,12.498,16.166c33.596,44.581,37.467,58.146,37.467,58.146
		s-1.389,8.26-8.702,10.432c-7.327,2.158-15.188,5.113-23.194,8.808c-15.513,7.182-28.543,15.752-36.949,23.731h-75.051l5.451-18.93
		l2.659,1.242l10.031-9.546C1290.033-326.114,1298.928-331.965,1307.836-339.221z M1250.337-312.164
		c-0.725-2.704-0.119-4.256,0.457-5.217c1.522-2.541,4.994-4.329,8.186-5.467c-0.089,0.709-0.089,1.359-0.016,1.95
		c-0.68,0.724-1.211,1.581-1.507,2.601l-2.969,10.285L1250.337-312.164z M1341.402-185.336l-86.339-77.4
		c-0.044-0.044-0.103-0.074-0.147-0.118l4.816-16.712c0.458,0.073,0.931,0.133,1.403,0.133h67.975
		c-0.147,1.403,0.015,2.719,0.562,3.886c0.798,1.714-0.37,7.123,1.729,8.054c0.191,9.397,4.402,16.993,7.343,29.436
		c4.624,19.564,11.508,35.922,17.846,43.798C1352.128-190.287,1346.632-187.996,1341.402-185.336z M1375.677-118.752
		c-7.269,0-14.094-2.822-19.235-7.965c-5.126-5.127-7.963-11.954-7.963-19.224c0-4.552,1.108-8.926,3.206-12.827l19.679,17.644
		c1.108,0.99,2.526,1.566,4.019,1.641l8.199,0.369c3.679,5.275,7.564,9.517,11.007,12.649
		C1389.697-121.707,1383.034-118.752,1375.677-118.752z M1360.327-168.372c1.876-1.285,3.886-2.32,6.013-3.088
		c1.522,3.813,3.162,8.836,4.802,12.767L1360.327-168.372z M1399.523-270.051c-10.549,17.067-20.196,36.721-24.791,51.453
		c-0.251-5.822-1.123-12.384-2.836-19.609c-2.364-9.989-5.452-27.706-8.613-35.316c9.632-1.847,18.29-1.227,29.636-5.91h13.858
		C1403.482-275.415,1400.512-271.662,1399.523-270.051z M1421.89-150.331l-4.004-0.177l-6.027-10.935
		c-0.783-5.719-3.679-13.078-5.171-19.388c-1.655-7.019,3.19-9.516-2.911-23.775c9.471-12.072,17.152-20.259,28.854-37.695
		c6.25-9.295,12.292-18.899,17.61-27.662l21.304,45.039C1444.582-209.851,1425.45-182.411,1421.89-150.331z M1519.116-54.562
		c-22.678,0-43.997-8.837-60.041-24.869c-10.52-10.521-17.921-23.317-21.776-37.267l0.073-0.045c0,0,2.586-2.586-0.856-8.614
		c-0.399-0.695-0.901-1.448-1.448-2.231c-0.428-3.044-0.709-6.133-0.797-9.235l84.564,3.797c2.261,0.104,4.417-0.989,5.673-2.866
		c1.256-1.892,1.419-4.3,0.458-6.354l-36.225-76.543c9.573-3.665,19.826-5.601,30.375-5.601c22.692,0,44.011,8.837,60.055,24.869
		c16.045,16.033,24.879,37.37,24.879,60.038C1604.05-92.657,1565.948-54.562,1519.116-54.562"/>
</g>
</svg>
