<?xml version="1.0" encoding="UTF-8" standalone="no"?>
<!-- Created with Inkscape (http://www.inkscape.org/) -->
<svg
   xmlns:svg="http://www.w3.org/2000/svg"
   xmlns="http://www.w3.org/2000/svg"
   version="1.0"
   width="3500.0002"
   height="3499.9998"
   id="svg16767">
  <defs
     id="defs16769" />
  <g
     transform="translate(-246.4542,2563.928)"
     id="layer1">
    <path
       d="M 3631.0947,926.72488 C 3689.6294,926.72488 3737.1081,879.30017 3737.1081,820.81814 L 3737.1081,-2448.6938 C 3737.1081,-2507.1572 3689.6294,-2554.582 3631.0947,-2554.582 L 361.81402,-2554.582 C 303.27934,-2554.582 255.80058,-2507.1572 255.80058,-2448.6938 L 255.80058,820.81814 C 255.80058,879.30017 303.27934,926.72488 361.81402,926.72488 L 3631.0947,926.72488 z "
       style="fill:white;fill-opacity:1;stroke:black;stroke-width:18.69279099;stroke-linecap:butt;stroke-linejoin:miter;stroke-miterlimit:4"
       id="path11601" />
    <path
       d="M 335.30598,847.28537 L 3657.6028,847.28537 L 3657.6028,-2475.1799 L 335.30598,-2475.1799 L 335.30598,847.28537 z "
       style="fill:#176fc1;fill-rule:nonzero;stroke:none"
       id="path11557" />
    <path
       d="M 453.53519,-1857.7266 L 1093.0018,-1857.7266 L 1093.0018,-2285.743 L 453.53519,-2285.743 L 453.53519,-1857.7266 z "
       style="fill:#0b8f4b;fill-rule:nonzero;stroke:white;stroke-width:17.3656044;stroke-linecap:butt;stroke-linejoin:miter;stroke-miterlimit:4"
       id="path11559" />
    <path
       d="M 2127.7879,-1886.5288 L 2126.5346,-1886.5288 C 2109.5673,-1863.3115 2095.7426,-1853.9535 2064.9506,-1853.9535 C 2035.4306,-1853.9535 1995.8464,-1868.392 1995.8464,-1938.679 C 1995.8464,-2011.4874 2015.9005,-2051.2913 2096.8276,-2056.0917 C 2105.6013,-2056.5959 2114.5994,-2056.8575 2127.7879,-2056.241 L 2127.7879,-2078.0201 C 2127.7879,-2099.3509 2119.6129,-2115.6758 2095.7426,-2115.6758 C 2079.4113,-2115.6758 2063.0799,-2104.3754 2059.3011,-2083.661 L 1997.0998,-2083.661 C 1998.9892,-2111.9028 2009.035,-2135.7552 2026.0023,-2152.6965 C 2042.9697,-2169.6379 2066.8399,-2179.6869 2095.7426,-2179.6869 C 2149.1515,-2179.6869 2191.8787,-2145.8042 2191.8787,-2079.2715 L 2191.8787,-1857.7266 L 2127.7879,-1857.7266 L 2127.7879,-1886.5288 z M 2127.7879,-2006.0148 C 2120.8849,-2007.2847 2115.3851,-2005.9587 2109.7543,-2005.3796 C 2081.9741,-2002.5033 2059.9371,-1985.1324 2059.9371,-1951.2307 C 2059.9371,-1926.7622 2072.4896,-1910.4371 2093.2359,-1910.4371 C 2114.5994,-1910.4371 2127.7879,-1925.5105 2127.7879,-1951.2307 L 2127.7879,-2006.0148"
       style="fill:white;fill-rule:nonzero;stroke:none"
       id="path11561" />
    <path
       d="M 2231.9494,-2308.344 L 2296.0213,-2308.344 L 2296.0213,-1951.2307 C 2296.0213,-1927.3971 2302.9429,-1920.4862 2327.4494,-1917.9831 L 2327.4494,-1857.7266 C 2268.3909,-1857.7266 2231.9494,-1872.7815 2231.9494,-1946.8413 L 2231.9494,-2308.344"
       style="fill:white;fill-rule:nonzero;stroke:none"
       id="path11563" />
    <path
       d="M 3033.345,-1857.7266 L 2969.2544,-1857.7266 L 2969.2731,-1877.6191 L 2968.0197,-1877.6191 C 2953.8771,-1861.4623 2949.8925,-1856.195 2920.3539,-1856.195 C 2896.895,-1856.195 2841.3349,-1883.9511 2841.6717,-1949.1389 L 2841.7091,-2175.9138 L 2905.7998,-2175.9138 L 2905.7998,-1955.639 C 2905.7998,-1932.403 2917.0989,-1917.9831 2937.2091,-1917.9831 C 2961.0793,-1917.9831 2969.2544,-1933.6731 2969.2544,-1961.915 L 2969.2544,-2175.9138 L 3033.345,-2175.9138 L 3033.345,-1857.7266"
       style="fill:white;fill-rule:nonzero;stroke:none"
       id="path11565" />
    <path
       d="M 778.25394,-2171.431 L 730.47587,-2128.2464 L 730.47587,-2188.4844 L 778.23524,-2230.0627 L 826.03202,-2230.0627 L 826.03202,-1900.0891 L 778.23524,-1900.0891 L 778.25394,-2171.431"
       style="fill:white;fill-rule:nonzero;stroke:none"
       id="path11567" />
    <path
       d="M 2603.2489,-2304.5896 L 2667.3396,-2304.5896 L 2667.3396,-2162.3532 L 2668.6117,-2162.3532 C 2674.2613,-2177.9125 2702.5278,-2184.095 2727.6703,-2183.5159 C 2749.6138,-2183.0117 2774.1575,-2167.77 2784.8392,-2150.8099 C 2793.0143,-2137.6417 2794.8851,-2119.4303 2794.8851,-2073.6307 L 2794.8851,-1952.501 C 2794.8851,-1917.3482 2791.7422,-1897.8852 2784.2032,-1884.0818 C 2772.9041,-1863.3675 2754.0473,-1853.9535 2728.2876,-1853.9535 C 2696.2422,-1853.9535 2683.6896,-1860.7337 2667.3396,-1878.9453 L 2667.3396,-1857.7266 L 2603.2489,-1857.7266 L 2603.2489,-2304.5896 z M 2730.7943,-2078.0201 C 2730.7943,-2098.0995 2723.8914,-2115.6758 2699.3849,-2115.6758 C 2681.1642,-2115.6758 2667.3396,-2101.2374 2667.3396,-2081.1581 L 2667.3396,-1957.5067 C 2667.3396,-1934.2896 2679.9108,-1917.9831 2699.3849,-1917.9831 C 2721.3846,-1917.9831 2730.7943,-1935.541 2730.7943,-1961.2798 L 2730.7943,-2078.0201"
       style="fill:white;fill-rule:nonzero;stroke:none"
       id="path11569" />
    <path
       d="M 3348.0742,-1832.1743 C 3348.7102,-1817.1196 3360.028,-1800.7947 3382.009,-1800.7947 C 3402.7365,-1800.7947 3411.5475,-1815.2332 3411.5475,-1835.3123 L 3411.5663,-1879.5803 L 3410.3129,-1879.5803 C 3401.7638,-1861.8733 3386.3304,-1857.7266 3360.5705,-1857.7266 C 3334.8109,-1857.7266 3305.9832,-1867.1965 3294.684,-1887.911 C 3287.145,-1901.7143 3284.0023,-1921.1771 3284.0023,-1956.33 L 3284.0023,-2077.4411 C 3284.0023,-2123.2592 3285.873,-2141.4708 3294.048,-2154.6391 C 3304.7298,-2171.5805 3320.4437,-2182.6008 3351.2171,-2183.5159 C 3376.8646,-2184.2817 3395.1789,-2179.9297 3411.5288,-2161.7181 L 3411.5475,-2179.7428 L 3475.6197,-2179.7428 L 3475.6197,-1830.288 C 3475.6197,-1786.9913 3447.353,-1736.7837 3379.5023,-1736.7837 C 3340.5352,-1736.7837 3292.1586,-1759.366 3284.0023,-1832.1743 L 3348.0742,-1832.1743 z M 3348.0742,-1959.468 C 3348.0742,-1939.3699 3354.9958,-1921.7937 3379.5023,-1921.7937 C 3397.7231,-1921.7937 3411.5475,-1936.232 3411.5475,-1956.33 L 3411.5475,-2079.9627 C 3411.5475,-2103.1801 3398.9763,-2119.5049 3379.5023,-2119.5049 C 3357.5025,-2119.5049 3348.0742,-2101.9284 3348.0742,-2076.1896 L 3348.0742,-1959.468"
       style="fill:white;fill-rule:nonzero;stroke:none"
       id="path11571" />
    <path
       d="M 3098.7827,-2175.9138 L 3162.8734,-2175.9138 L 3162.836,-2163.7354 C 3189.2318,-2186.9527 3210.6329,-2179.6869 3247.6916,-2179.6869 L 3247.6916,-2111.9028 C 3241.406,-2114.4244 3235.1204,-2115.6758 3228.2175,-2115.6758 C 3201.2044,-2115.6758 3162.836,-2120.4201 3162.836,-2068.3259 L 3162.8734,-1857.7266 L 3098.7827,-1857.7266 L 3098.7827,-2175.9138"
       style="fill:white;fill-rule:nonzero;stroke:none"
       id="path11573" />
    <path
       d="M 2369.0915,-1912.884 L 2483.6354,-2119.4303 L 2379.4366,-2119.4303 L 2379.4366,-2175.9138 L 2556.5185,-2175.9138 L 2556.5185,-2125.0898 L 2441.9746,-1922.2979 L 2556.4998,-1922.3167 L 2556.5185,-1857.7266 L 2369.0915,-1857.7078 L 2369.0915,-1912.884"
       style="fill:white;fill-rule:nonzero;stroke:none"
       id="path11575" />
    <path
       d="M 1500.4997,-2171.431 L 1452.7217,-2128.2464 L 1452.703,-2188.4844 L 1500.481,-2230.0627 L 1548.2778,-2230.0627 L 1548.2778,-1900.0891 L 1500.481,-1900.0891 L 1500.4997,-2171.431"
       style="fill:white;fill-rule:nonzero;stroke:none"
       id="path11577" />
    <path
       d="M 960.34936,-1994.9945 L 865.2422,-1994.9945 L 865.2422,-2039.9161 L 916.96748,-2231.8744 L 967.57033,-2231.8744 L 913.03898,-2039.9161 L 960.34936,-2039.9161 L 960.34936,-2134.9147 L 1008.1461,-2164.0343 L 1008.1461,-2039.9161 L 1031.0998,-2039.9161 L 1031.0998,-1994.9945 L 1008.1461,-1994.9945 L 1008.1461,-1900.0891 L 960.34936,-1900.0891 L 960.34936,-1994.9945"
       style="fill:white;fill-rule:nonzero;stroke:none"
       id="path11579" />
    <path
       d="M 1322.2019,-2233.2939 L 1362.0293,-2233.2939 L 1436.5213,-1900.0891 L 1388.7244,-1900.0891 L 1379.5392,-1947.4204 L 1304.6919,-1947.4204 L 1295.4879,-1900.0891 L 1247.7099,-1900.0891 L 1322.2019,-2233.2939 z M 1342.3494,-2137.3614 L 1341.4141,-2137.3614 L 1313.1289,-1992.3421 L 1370.6347,-1992.3421 L 1342.3494,-2137.3614"
       style="fill:white;fill-rule:nonzero;stroke:none"
       id="path11581" />
    <path
       d="M 513.49161,-2233.2939 L 670.50074,-2233.2939 L 670.50074,-2188.3723 L 561.26968,-2188.3723 L 561.26968,-2100.2661 L 655.06734,-2100.2661 L 655.06734,-2055.3444 L 561.26968,-2055.3444 L 561.26968,-1947.8127 L 680.20975,-1947.8127 L 680.20975,-1900.0891 L 513.49161,-1900.0891 L 513.49161,-2233.2939"
       style="fill:white;fill-rule:nonzero;stroke:none"
       id="path11583" />
    <path
       d="M 1834.6843,-2053.29 C 1782.5287,-2053.29 1729.7933,-2089.5447 1729.7933,-2162.3532 L 1729.7933,-2198.7203 C 1729.7933,-2271.5287 1785.0729,-2307.9332 1837.2284,-2307.9332 C 1889.384,-2307.9332 1944.6636,-2271.5287 1944.6636,-2198.7203 L 1880.5729,-2198.7203 C 1880.5729,-2229.465 1860.4814,-2243.9033 1837.2284,-2243.9033 C 1813.9755,-2243.9033 1793.8839,-2229.465 1793.8839,-2198.7203 L 1793.8839,-2162.3532 C 1793.8839,-2131.5899 1811.4313,-2117.3942 1834.6843,-2117.3942 L 1838.5005,-2116.9086 C 1890.6561,-2116.9086 1944.0275,-2080.9525 1944.0275,-2008.1441 L 1944.0275,-1958.7582 C 1944.0275,-1885.9683 1888.7479,-1849.5641 1836.5924,-1849.5641 C 1784.4368,-1849.5641 1729.1573,-1885.9683 1729.1573,-1958.7582 L 1793.2292,-1958.7582 C 1793.2292,-1928.0137 1813.3394,-1913.5751 1836.5924,-1913.5751 C 1859.8453,-1913.5751 1879.9368,-1928.0137 1879.9368,-1958.7582 L 1879.9368,-2008.1441 C 1879.9368,-2038.9075 1859.8453,-2053.346 1836.5924,-2053.346 L 1834.6843,-2053.29"
       style="fill:white;fill-rule:nonzero;stroke:none"
       id="path11585" />
    <path
       d="M 2278.3806,454.702 C 2247.6634,454.702 2222.7454,479.58153 2222.7454,510.28904 L 2222.7454,599.21699 C 2222.7454,629.90569 2247.6634,654.78542 2278.3806,654.78542 C 2309.1163,654.78542 2334.0343,629.90569 2334.0343,599.21699 L 2334.0343,510.28904 C 2334.0343,479.58153 2309.1163,454.702 2278.3806,454.702 z M 2306.198,599.21699 L 2306.198,599.21699 C 2306.198,614.55203 2293.7578,626.99189 2278.3806,626.99189 C 2263.0219,626.99189 2250.5629,614.55203 2250.5629,599.21699 L 2250.5629,510.28904 C 2250.5629,494.93519 2263.0219,482.49553 2278.3806,482.49553 C 2293.7578,482.49553 2306.198,494.93519 2306.198,510.28904 L 2306.198,599.21699"
       style="fill:white;fill-rule:nonzero;stroke:none"
       id="path11587" />
    <path
       d="M 2511.1536,509.85929 C 2494.5416,509.85929 2479.632,517.14391 2469.4368,528.70584 C 2459.2413,517.14391 2444.3317,509.85929 2427.701,509.85929 C 2418.0481,509.85929 2408.3766,513.53893 2399.8835,519.60954 L 2399.8835,512.6424 L 2372.066,512.6424 L 2372.066,651.59138 L 2399.8835,651.59138 L 2399.8835,565.44634 C 2399.8835,550.09268 2412.3424,537.65282 2427.701,537.65282 C 2443.0596,537.65282 2455.5186,550.09268 2455.5186,565.44634 L 2455.5186,651.59138 L 2483.336,651.59138 L 2483.336,565.44634 C 2483.336,550.09268 2495.795,537.65282 2511.1536,537.65282 C 2526.5308,537.65282 2538.9899,550.09268 2538.9899,565.44634 L 2538.9899,651.59138 L 2566.8074,651.59138 L 2566.8074,565.44634 C 2566.8074,534.73902 2541.8895,509.85929 2511.1536,509.85929"
       style="fill:white;fill-rule:nonzero;stroke:none"
       id="path11589" />
    <path
       d="M 1866.3741,456.60717 L 1835.7879,488.80874 L 1835.7879,528.85536 L 1866.3741,496.84056 L 1866.3741,651.12439 L 1894.2104,651.12439 L 1894.2104,456.60717 L 1866.3741,456.60717"
       style="fill:white;fill-rule:nonzero;stroke:none"
       id="path11591" />
    <path
       d="M 2130.9681,451.73197 C 2100.2323,451.73197 2075.3331,476.61168 2075.3331,507.31901 L 2075.3331,596.24714 C 2075.3331,626.93584 2100.2323,651.81556 2130.9681,651.81556 C 2161.704,651.81556 2186.622,626.93584 2186.622,596.24714 L 2186.622,507.31901 C 2186.622,476.61168 2161.704,451.73197 2130.9681,451.73197 z M 2158.7856,596.24714 L 2158.7856,596.24714 C 2158.7856,611.58218 2146.3267,624.02204 2130.9681,624.02204 C 2115.6096,624.02204 2103.1506,611.58218 2103.1506,596.24714 L 2103.1506,507.31901 C 2103.1506,491.96534 2115.6096,479.52548 2130.9681,479.52548 C 2146.3267,479.52548 2158.7856,491.96534 2158.7856,507.31901 L 2158.7856,596.24714"
       style="fill:white;fill-rule:nonzero;stroke:none"
       id="path11593" />
    <path
       d="M 1989.8602,451.73197 C 1959.1243,451.73197 1934.2063,476.61168 1934.2063,507.31901 L 1934.2063,596.24714 C 1934.2063,626.93584 1959.1243,651.81556 1989.8602,651.81556 C 2020.5772,651.81556 2045.4951,626.93584 2045.4951,596.24714 L 2045.4951,507.31901 C 2045.4951,476.61168 2020.5772,451.73197 1989.8602,451.73197 z M 2017.6776,596.24714 L 2017.6776,596.24714 C 2017.6776,611.58218 2005.2187,624.02204 1989.8602,624.02204 C 1974.4828,624.02204 1962.0239,611.58218 1962.0239,596.24714 L 1962.0239,507.31901 C 1962.0239,491.96534 1974.4828,479.52548 1989.8602,479.52548 C 2005.2187,479.52548 2017.6776,491.96534 2017.6776,507.31901 L 2017.6776,596.24714"
       style="fill:white;fill-rule:nonzero;stroke:none"
       id="path11595" />
    <path
       d="M 1196.471,-1857.7266 L 1620.7119,-1857.7266 L 1620.7119,-2285.743 L 1196.471,-2285.743 L 1196.471,-1857.7266 z "
       style="fill:none;stroke:white;stroke-width:17.3656044;stroke-linecap:butt;stroke-linejoin:miter;stroke-miterlimit:4"
       id="path11597" />
    <path
       d="M 1346.3902,-296.17144 C 1332.6405,-297.85242 1320.1627,-288.08376 1318.4791,-274.35504 C 1317.4128,-265.68829 1320.9484,-257.52576 1327.1406,-252.25842 L 1398.9573,-184.5678 L 859.14366,159.56381 L 859.14366,-1375.5987 L 954.68111,-1350.6815 C 962.44456,-1348.2346 971.23692,-1349.5796 978.04633,-1355.0711 C 988.80294,-1363.7751 990.44918,-1379.5397 981.75034,-1390.2799 L 788.05649,-1700.8651 L 594.38134,-1390.2612 C 585.68251,-1379.521 587.32873,-1363.7751 598.08535,-1355.0711 C 604.89476,-1349.5796 613.68713,-1348.2346 621.45059,-1350.6815 L 716.9693,-1375.5987 L 716.9693,679.01139 L 859.14366,679.01139 L 859.14366,327.09077 L 1474.3658,-64.185124 L 1503.9044,29.916691 C 1505.9247,37.798992 1511.7428,44.523332 1520.0113,47.38109 C 1533.0876,51.863984 1547.3612,44.915651 1551.8509,31.840672 L 1712.7137,-296.91865 L 1346.3902,-296.17144"
       style="fill:white;fill-rule:nonzero;stroke:none"
       id="path11599" />
    <path
       d="M 2286.6117,-95.751754 L 2285.3022,-95.751754 C 2267.5304,-71.432494 2253.051,-61.626212 2220.7998,-61.626212 C 2189.877,-61.626212 2148.4032,-76.755882 2148.4032,-150.38621 C 2148.4032,-226.63168 2169.4114,-268.34049 2254.1735,-273.34641 C 2263.3774,-273.88806 2272.7871,-274.14947 2286.6117,-273.49574 L 2286.6117,-296.32096 C 2286.6117,-318.66037 2278.0625,-335.75108 2253.051,-335.75108 C 2235.934,-335.75108 2218.8356,-323.92753 2214.8697,-302.24204 L 2149.7314,-302.24204 C 2151.6957,-331.80983 2162.2278,-356.80164 2179.9997,-374.54627 C 2197.7714,-392.29071 2222.7828,-402.80678 2253.051,-402.80678 C 2308.9854,-402.80678 2353.733,-367.31771 2353.733,-297.62843 L 2353.733,-65.567457 L 2286.6117,-65.567457 L 2286.6117,-95.751754 z M 2286.6117,-220.91598 C 2279.372,-222.22345 2273.6102,-220.84132 2267.7174,-220.225 C 2238.6279,-217.23634 2215.5431,-199.02492 2215.5431,-163.51723 C 2215.5431,-137.8903 2228.6943,-120.7996 2250.4133,-120.7996 C 2272.7871,-120.7996 2286.6117,-136.5642 2286.6117,-163.51723 L 2286.6117,-220.91598"
       style="fill:white;fill-rule:nonzero;stroke:none"
       id="path11603" />
    <path
       d="M 2682.4175,-87.794789 C 2665.3005,-68.742681 2644.7976,-61.570166 2618.57,-61.626212 C 2591.5943,-61.701066 2571.8583,-71.488539 2559.998,-93.192841 C 2552.1036,-107.64996 2548.8112,-128.02816 2548.8112,-164.84333 L 2548.8112,-291.70735 C 2548.8112,-339.71094 2550.7942,-358.76285 2559.3433,-372.56624 C 2570.5302,-390.32949 2598.2354,-405.4964 2630.4866,-404.95475 C 2661.3908,-404.41309 2669.2664,-400.93883 2681.0894,-384.66982 L 2682.4175,-384.66982 L 2682.4175,-533.63047 L 2749.5389,-533.63047 L 2749.5389,-65.567457 L 2682.4175,-65.567457 L 2682.4175,-87.794789 z M 2615.9511,-174.05172 C 2615.9511,-147.09889 2625.8097,-128.6819 2648.857,-128.6819 C 2669.2477,-128.6819 2682.4175,-145.7726 2682.4175,-170.09206 L 2682.4175,-299.60827 C 2682.4175,-320.64021 2667.9383,-335.75108 2648.857,-335.75108 C 2623.1907,-335.75108 2615.9511,-317.3529 2615.9511,-296.32096 L 2615.9511,-174.05172"
       style="fill:white;fill-rule:nonzero;stroke:none"
       id="path11605" />
    <path
       d="M 2423.7351,-398.86553 L 2490.8563,-398.86553 L 2490.8563,-65.567457 L 2423.7351,-65.567457 L 2423.7351,-398.86553 z M 2423.7351,-533.63047 L 2490.8563,-533.63047 L 2490.8563,-466.57496 L 2423.7351,-466.57496 L 2423.7351,-533.63047 z "
       style="fill:white;fill-rule:nonzero;stroke:none"
       id="path11607" />
    <path
       d="M 1869.1803,-533.63047 L 1936.3015,-533.63047 L 1936.3015,-333.13612 L 2019.2304,-333.13612 L 2019.2304,-533.63047 L 2086.3516,-533.63047 L 2086.3516,-65.567457 L 2019.2304,-65.567457 L 2019.2304,-273.96273 L 1936.3015,-273.96273 L 1936.3015,-65.567457 L 1869.1803,-65.567457 L 1869.1803,-533.63047"
       style="fill:white;fill-rule:nonzero;stroke:none"
       id="path11609" />
  </g>
</svg>
