<svg id="svg" xmlns="http://www.w3.org/2000/svg" xmlns:xlink="http://www.w3.org/1999/xlink" width="400" height="137.29626078619367" viewBox="0, 0, 400,137.29626078619367"><g id="svgg"><path id="path0" d="M10.483 4.241 C 7.214 5.143,4.811 7.790,4.080 11.294 C 3.861 12.348,3.836 19.322,3.874 69.121 L 3.917 125.750 4.382 127.065 C 5.431 130.034,7.494 132.059,10.322 132.898 C 11.846 133.350,388.542 133.306,389.857 132.854 C 393.144 131.723,395.113 129.532,395.921 126.106 C 396.284 124.564,396.284 12.602,395.921 11.061 C 395.092 7.545,392.796 5.126,389.444 4.233 C 388.212 3.905,11.672 3.913,10.483 4.241 M383.917 8.871 C 387.491 10.089,390.117 13.182,390.676 16.832 C 391.026 19.122,390.800 120.616,390.442 121.583 C 389.135 125.120,387.032 127.268,383.771 128.396 L 382.750 128.750 200.333 128.796 C 33.999 128.837,17.810 128.818,16.708 128.576 C 13.112 127.786,10.085 124.858,9.136 121.250 C 8.817 120.036,8.811 17.149,9.130 15.949 C 10.098 12.310,13.151 9.368,16.750 8.607 C 17.777 8.390,39.776 8.363,200.250 8.388 L 382.583 8.417 383.917 8.871 M283.711 17.079 C 281.459 17.714,279.610 19.219,278.529 21.296 C 277.239 23.776,277.268 24.935,278.739 29.917 C 279.797 33.499,280.833 37.121,280.833 37.238 C 280.833 37.290,225.558 37.333,158.000 37.333 L 35.167 37.333 35.167 68.583 L 35.167 99.833 158.316 99.875 L 281.466 99.917 280.748 102.333 C 280.353 103.662,279.715 105.837,279.330 107.167 C 278.945 108.496,278.446 110.183,278.220 110.917 C 275.554 119.578,283.344 124.261,291.917 119.150 C 293.017 118.495,296.879 116.196,300.500 114.042 C 304.121 111.888,307.421 109.919,307.833 109.666 C 308.246 109.414,311.208 107.649,314.417 105.746 C 317.625 103.842,321.150 101.743,322.250 101.082 C 323.350 100.420,327.250 98.095,330.917 95.916 C 334.583 93.736,338.296 91.524,339.167 91.000 C 340.037 90.476,343.375 88.487,346.583 86.581 C 349.792 84.675,353.317 82.577,354.417 81.918 C 355.517 81.259,357.804 79.894,359.500 78.885 C 361.196 77.876,365.546 75.287,369.167 73.131 C 372.787 70.976,375.921 69.124,376.130 69.015 C 376.614 68.762,376.523 68.631,375.455 68.037 C 374.976 67.771,372.446 66.293,369.833 64.752 C 365.332 62.097,362.375 60.357,352.500 54.549 C 350.162 53.174,347.238 51.449,346.000 50.715 C 344.762 49.981,343.450 49.207,343.083 48.994 C 342.717 48.781,341.592 48.121,340.583 47.527 C 339.575 46.933,336.875 45.345,334.583 43.999 C 332.292 42.652,328.917 40.665,327.083 39.584 C 325.250 38.503,321.856 36.505,319.542 35.143 C 312.938 31.257,306.953 27.732,304.500 26.282 C 303.262 25.551,301.537 24.540,300.667 24.036 C 299.796 23.531,298.558 22.805,297.917 22.422 C 289.406 17.343,286.565 16.275,283.711 17.079 M79.167 48.417 L 79.167 51.167 71.917 51.167 L 64.667 51.167 64.667 58.167 L 64.667 65.167 71.087 65.167 L 77.508 65.167 77.462 67.958 L 77.417 70.750 71.042 70.794 L 64.667 70.837 64.667 78.502 L 64.667 86.167 71.917 86.167 L 79.167 86.167 79.167 89.000 L 79.167 91.833 68.333 91.833 L 57.500 91.833 57.500 68.750 L 57.500 45.667 68.333 45.667 L 79.167 45.667 79.167 48.417 M99.500 48.167 L 99.500 50.667 97.750 50.667 L 96.000 50.667 96.000 68.750 L 96.000 86.833 97.750 86.833 L 99.500 86.833 99.500 89.333 L 99.500 91.833 92.333 91.833 L 85.167 91.833 85.167 89.333 L 85.167 86.833 87.000 86.833 L 88.833 86.833 88.833 68.756 L 88.833 50.678 87.042 50.631 L 85.250 50.583 85.204 48.125 L 85.158 45.667 92.329 45.667 L 99.500 45.667 99.500 48.167 M116.921 48.250 C 117.304 49.625,117.935 51.875,118.322 53.250 C 120.219 59.980,120.972 62.644,121.994 66.250 C 122.384 67.625,122.946 69.612,123.244 70.667 C 123.542 71.721,124.105 73.708,124.495 75.083 C 124.886 76.458,125.404 78.310,125.648 79.198 C 125.891 80.086,126.145 80.867,126.212 80.934 C 126.279 81.001,126.333 73.093,126.333 63.361 L 126.333 45.667 129.417 45.667 L 132.500 45.667 132.500 68.750 L 132.500 91.833 127.930 91.833 L 123.360 91.833 123.110 91.042 C 122.972 90.606,122.474 88.862,122.004 87.167 C 121.534 85.471,120.932 83.333,120.667 82.417 C 120.402 81.500,119.801 79.362,119.331 77.667 C 118.862 75.971,118.263 73.833,118.000 72.917 C 117.487 71.123,116.853 68.866,115.497 64.000 C 114.722 61.219,114.401 60.098,113.613 57.417 C 113.394 56.670,113.366 58.420,113.351 74.212 L 113.333 91.841 110.208 91.795 L 107.083 91.750 107.040 68.917 C 107.017 56.358,107.034 45.988,107.078 45.872 C 107.141 45.708,108.155 45.671,111.691 45.706 L 116.224 45.750 116.921 48.250 M155.624 45.926 C 161.140 46.746,164.065 49.857,164.705 55.585 C 165.231 60.291,163.198 64.621,159.560 66.541 L 158.418 67.144 158.917 67.328 C 161.172 68.162,161.786 68.448,162.547 69.016 C 167.916 73.027,167.644 85.225,162.095 89.325 C 159.243 91.432,156.985 91.830,147.875 91.832 L 141.833 91.833 141.833 68.750 L 141.833 45.667 147.854 45.667 C 152.446 45.667,154.289 45.728,155.624 45.926 M189.627 47.292 C 189.821 48.185,190.287 50.304,190.664 52.000 C 191.042 53.696,191.650 56.433,192.017 58.083 C 192.384 59.733,192.939 62.246,193.250 63.667 C 193.561 65.087,194.116 67.600,194.483 69.250 C 195.142 72.212,195.884 75.561,197.181 81.417 C 197.547 83.067,198.071 85.467,198.347 86.750 C 198.623 88.033,198.950 89.496,199.074 90.000 C 199.197 90.504,199.345 91.123,199.402 91.375 L 199.506 91.833 195.850 91.833 L 192.194 91.833 192.025 91.042 C 191.932 90.606,191.621 88.975,191.335 87.417 C 191.048 85.858,190.745 84.283,190.662 83.917 C 190.579 83.550,190.429 82.819,190.327 82.292 L 190.143 81.333 184.599 81.333 L 179.056 81.333 178.693 83.208 C 178.493 84.240,178.067 86.536,177.746 88.312 C 177.424 90.087,177.121 91.606,177.071 91.687 C 176.885 91.987,170.000 91.866,170.000 91.562 C 170.000 91.413,170.147 90.644,170.327 89.854 C 170.746 88.011,172.037 82.146,172.569 79.667 C 172.795 78.612,173.245 76.550,173.567 75.083 C 173.890 73.617,174.424 71.179,174.755 69.667 C 175.322 67.071,176.111 63.463,177.426 57.458 C 177.940 55.109,178.327 53.335,179.491 48.000 C 179.681 47.129,179.875 46.248,179.921 46.042 L 180.006 45.667 184.641 45.667 L 189.275 45.667 189.627 47.292 M212.000 55.417 L 212.000 65.167 218.415 65.167 L 224.831 65.167 224.874 55.458 L 224.917 45.750 228.458 45.705 L 232.000 45.660 232.000 68.750 L 232.000 91.840 228.458 91.795 L 224.917 91.750 224.874 81.375 L 224.831 71.000 218.415 71.000 L 212.000 71.000 212.000 81.420 L 212.000 91.840 208.458 91.795 L 204.917 91.750 204.874 68.917 C 204.850 56.358,204.867 45.990,204.910 45.875 C 204.970 45.717,205.844 45.667,208.495 45.667 L 212.000 45.667 212.000 55.417 M251.002 47.333 C 251.256 48.204,252.077 51.092,252.827 53.750 C 253.576 56.408,254.592 60.008,255.084 61.750 C 255.576 63.492,256.549 66.942,257.245 69.417 C 257.942 71.892,258.728 74.667,258.993 75.583 C 259.258 76.500,259.670 77.954,259.908 78.814 C 260.147 79.675,260.413 80.500,260.499 80.648 C 260.599 80.817,260.658 74.421,260.662 63.292 L 260.667 45.667 263.750 45.667 L 266.833 45.667 266.833 68.750 L 266.833 91.833 262.256 91.833 L 257.680 91.833 257.494 91.125 C 257.392 90.735,257.130 89.817,256.913 89.083 C 256.696 88.350,255.911 85.575,255.169 82.917 C 254.426 80.258,253.564 77.183,253.252 76.083 C 252.560 73.638,251.444 69.670,250.416 66.000 C 248.686 59.819,248.462 59.035,248.114 57.917 L 247.750 56.750 247.708 74.292 L 247.665 91.833 244.583 91.833 L 241.500 91.833 241.500 68.747 L 241.500 45.661 246.020 45.706 L 250.540 45.750 251.002 47.333 M149.000 57.917 L 149.000 64.667 151.724 64.667 C 156.441 64.667,157.748 63.185,157.748 57.833 C 157.748 52.595,156.438 51.167,151.634 51.167 L 149.000 51.167 149.000 57.917 M184.439 52.113 C 184.177 53.449,183.094 59.191,182.495 62.417 C 182.121 64.433,181.561 67.433,181.250 69.083 C 180.939 70.733,180.565 72.758,180.418 73.583 C 180.271 74.408,180.112 75.215,180.064 75.375 C 179.983 75.648,180.270 75.667,184.489 75.667 C 188.870 75.667,189.000 75.657,189.000 75.338 C 189.000 75.157,188.732 73.600,188.404 71.879 C 188.076 70.158,187.627 67.775,187.407 66.583 C 184.520 50.979,184.593 51.332,184.439 52.113 M149.000 78.237 L 149.000 86.167 151.803 86.167 C 157.465 86.167,159.167 84.366,159.167 78.373 C 159.167 72.175,157.673 70.455,152.208 70.362 L 149.000 70.308 149.000 78.237 " stroke="none" fill="#ffffff" fill-rule="evenodd"></path><path id="path1" d="M105.958 3.958 C 157.681 3.981,242.319 3.981,294.042 3.958 C 345.765 3.935,303.446 3.916,200.000 3.916 C 96.554 3.916,54.235 3.935,105.958 3.958 M10.250 4.167 C 9.825 4.349,10.263 4.349,10.833 4.167 C 11.168 4.059,11.185 4.032,10.917 4.028 C 10.733 4.026,10.433 4.088,10.250 4.167 M389.500 4.241 C 389.912 4.357,390.550 4.579,390.917 4.735 C 391.283 4.890,391.504 4.938,391.407 4.841 C 391.175 4.608,389.424 3.996,389.046 4.015 C 388.883 4.023,389.087 4.125,389.500 4.241 M9.208 4.505 C 8.650 4.730,8.755 4.843,9.333 4.642 C 9.608 4.546,9.833 4.437,9.833 4.400 C 9.833 4.301,9.630 4.336,9.208 4.505 M6.928 6.018 C 6.416 6.487,5.840 7.105,5.648 7.393 C 5.414 7.743,5.501 7.683,5.910 7.212 C 6.246 6.825,6.873 6.207,7.302 5.838 C 7.732 5.470,8.033 5.168,7.972 5.168 C 7.910 5.167,7.441 5.550,6.928 6.018 M394.160 7.292 C 394.469 7.681,394.753 8.000,394.789 8.000 C 394.907 8.000,394.193 7.062,393.889 6.819 C 393.728 6.689,393.850 6.902,394.160 7.292 M16.750 8.607 C 13.151 9.368,10.098 12.310,9.130 15.949 C 8.811 17.149,8.817 120.036,9.136 121.250 C 10.085 124.858,13.112 127.786,16.708 128.576 C 17.810 128.818,33.999 128.837,200.333 128.796 L 382.750 128.750 383.771 128.396 C 387.032 127.268,389.135 125.120,390.442 121.583 C 390.800 120.616,391.026 19.122,390.676 16.832 C 390.117 13.182,387.491 10.089,383.917 8.871 L 382.583 8.417 200.250 8.388 C 39.776 8.363,17.777 8.390,16.750 8.607 M395.361 9.342 C 395.459 9.622,395.569 9.819,395.607 9.782 C 395.690 9.699,395.375 8.833,395.263 8.833 C 395.219 8.833,395.264 9.062,395.361 9.342 M4.399 9.599 C 4.262 9.928,4.172 10.267,4.200 10.351 C 4.228 10.435,4.373 10.165,4.522 9.752 C 4.844 8.856,4.756 8.746,4.399 9.599 M288.855 17.636 C 291.359 18.577,292.359 19.105,297.917 22.422 C 298.558 22.805,299.796 23.531,300.667 24.036 C 301.537 24.540,303.262 25.551,304.500 26.282 C 306.953 27.732,312.938 31.257,319.542 35.143 C 321.856 36.505,325.250 38.503,327.083 39.584 C 328.917 40.665,332.292 42.652,334.583 43.999 C 336.875 45.345,339.575 46.933,340.583 47.527 C 341.592 48.121,342.717 48.781,343.083 48.994 C 343.450 49.207,344.762 49.981,346.000 50.715 C 347.238 51.449,350.162 53.174,352.500 54.549 C 362.375 60.357,365.332 62.097,369.833 64.752 C 372.446 66.293,374.976 67.771,375.455 68.037 C 376.523 68.631,376.614 68.762,376.130 69.015 C 375.921 69.124,372.787 70.976,369.167 73.131 C 365.546 75.287,361.196 77.876,359.500 78.885 C 357.804 79.894,355.517 81.259,354.417 81.918 C 353.317 82.577,349.792 84.675,346.583 86.581 C 343.375 88.487,340.037 90.476,339.167 91.000 C 338.296 91.524,334.583 93.736,330.917 95.916 C 327.250 98.095,323.350 100.420,322.250 101.082 C 321.150 101.743,317.625 103.842,314.417 105.746 C 311.208 107.649,308.246 109.414,307.833 109.666 C 307.421 109.919,304.121 111.888,300.500 114.042 C 296.879 116.196,293.017 118.495,291.917 119.150 C 283.344 124.261,275.554 119.578,278.220 110.917 C 278.446 110.183,278.945 108.496,279.330 107.167 C 279.715 105.837,280.353 103.662,280.748 102.333 L 281.466 99.917 158.316 99.875 L 35.167 99.833 35.167 68.583 L 35.167 37.333 158.000 37.333 C 225.558 37.333,280.833 37.290,280.833 37.238 C 280.833 37.121,279.797 33.499,278.739 29.917 C 277.268 24.935,277.239 23.776,278.529 21.296 C 280.583 17.350,284.447 15.980,288.855 17.636 M57.500 68.750 L 57.500 91.833 68.375 91.793 L 79.250 91.752 68.458 91.708 L 57.667 91.664 57.667 68.750 L 57.667 45.836 68.458 45.792 L 79.250 45.748 68.375 45.707 L 57.500 45.667 57.500 68.750 M85.204 48.125 L 85.250 50.583 87.000 50.592 L 88.750 50.600 87.042 50.544 L 85.333 50.489 85.333 48.163 L 85.333 45.837 92.458 45.792 L 99.583 45.746 92.371 45.706 L 85.158 45.667 85.204 48.125 M107.078 45.872 C 107.034 45.988,107.017 56.358,107.040 68.917 L 107.083 91.750 110.208 91.756 L 113.334 91.761 110.250 91.710 L 107.167 91.659 107.167 68.746 L 107.167 45.833 111.654 45.833 C 115.524 45.833,116.153 45.868,116.221 46.087 C 116.276 46.264,116.291 46.251,116.272 46.045 C 116.238 45.662,107.222 45.493,107.078 45.872 M127.884 45.791 C 128.782 45.821,130.207 45.821,131.050 45.791 C 131.893 45.761,131.158 45.736,129.417 45.736 C 127.675 45.736,126.985 45.761,127.884 45.791 M141.833 68.750 L 141.833 91.833 148.208 91.794 L 154.583 91.754 148.292 91.708 L 142.000 91.663 142.000 68.750 L 142.000 45.837 148.208 45.792 L 154.417 45.746 148.125 45.706 L 141.833 45.667 141.833 68.750 M179.934 45.930 C 179.879 46.075,179.838 46.282,179.844 46.389 C 179.850 46.496,179.922 46.415,180.005 46.208 L 180.156 45.833 184.643 45.833 L 189.131 45.833 189.240 46.270 C 189.382 46.837,189.497 46.721,189.383 46.125 L 189.294 45.667 184.665 45.667 C 180.597 45.667,180.023 45.699,179.934 45.930 M204.910 45.875 C 204.867 45.990,204.850 56.358,204.874 68.917 L 204.917 91.750 208.458 91.795 L 212.000 91.840 212.000 81.420 L 212.000 71.000 218.415 71.000 L 224.831 71.000 224.874 81.375 L 224.917 91.750 228.458 91.755 L 232.000 91.760 228.500 91.710 L 225.000 91.660 225.000 81.245 L 225.000 70.829 218.458 70.873 L 211.917 70.917 211.874 81.292 L 211.831 91.667 208.415 91.667 L 205.000 91.667 205.000 68.750 L 205.000 45.833 208.415 45.833 L 211.831 45.833 211.875 55.542 L 211.919 65.250 211.960 55.458 L 212.000 45.667 208.495 45.667 C 205.844 45.667,204.970 45.717,204.910 45.875 M224.944 45.778 C 224.883 45.839,224.833 50.225,224.833 55.526 L 224.833 65.163 218.458 65.209 L 212.083 65.256 218.500 65.253 L 224.917 65.250 224.960 55.545 L 225.003 45.840 228.543 45.791 L 232.083 45.743 228.569 45.705 C 226.637 45.684,225.006 45.717,224.944 45.778 M243.000 45.784 C 246.943 45.902,250.629 45.906,250.558 45.792 C 250.515 45.723,248.441 45.682,245.948 45.702 C 243.456 45.721,242.129 45.758,243.000 45.784 M260.653 63.292 C 260.641 78.777,260.610 80.856,260.399 80.417 L 260.158 79.917 260.266 80.500 C 260.391 81.185,260.464 81.333,260.677 81.333 C 260.774 81.333,260.833 74.563,260.833 63.583 L 260.833 45.833 263.750 45.833 L 266.667 45.833 266.667 68.750 L 266.667 91.667 262.258 91.667 C 258.242 91.667,257.833 91.641,257.662 91.375 C 257.487 91.103,257.481 91.104,257.571 91.389 C 257.624 91.557,257.667 91.725,257.667 91.764 C 257.667 91.802,259.729 91.833,262.250 91.833 L 266.833 91.833 266.833 68.750 L 266.833 45.667 263.750 45.667 L 260.667 45.667 260.653 63.292 M157.833 46.472 C 157.971 46.557,158.271 46.676,158.500 46.738 C 158.790 46.815,158.840 46.802,158.667 46.695 C 158.529 46.610,158.229 46.490,158.000 46.429 C 157.710 46.351,157.660 46.365,157.833 46.472 M116.437 47.000 C 116.496 47.321,116.609 47.733,116.689 47.917 C 116.789 48.145,116.802 48.067,116.729 47.667 C 116.671 47.346,116.558 46.933,116.478 46.750 C 116.377 46.521,116.365 46.600,116.437 47.000 M160.417 47.609 C 161.505 48.675,162.665 49.650,162.000 48.940 C 161.587 48.500,161.025 47.984,160.750 47.793 C 160.475 47.602,160.325 47.519,160.417 47.609 M251.256 48.583 C 251.399 49.367,251.846 50.876,251.915 50.807 C 251.977 50.746,251.409 48.570,251.248 48.250 C 251.202 48.158,251.206 48.308,251.256 48.583 M190.036 49.583 C 190.034 49.767,190.128 50.292,190.246 50.750 C 190.364 51.208,190.462 51.433,190.464 51.250 C 190.466 51.067,190.372 50.542,190.254 50.083 C 190.136 49.625,190.038 49.400,190.036 49.583 M178.844 50.844 C 178.734 51.406,178.676 51.898,178.716 51.938 C 178.755 51.978,178.878 51.551,178.989 50.989 C 179.099 50.427,179.157 49.935,179.118 49.895 C 179.078 49.856,178.955 50.283,178.844 50.844 M95.833 68.750 L 95.833 87.000 97.708 86.965 L 99.583 86.929 97.792 86.876 L 96.000 86.822 96.000 68.750 L 96.000 50.678 97.792 50.624 L 99.583 50.571 97.708 50.535 L 95.833 50.500 95.833 68.750 M117.517 50.724 C 117.489 50.955,118.025 52.697,118.100 52.622 C 118.138 52.584,118.026 52.110,117.851 51.568 C 117.676 51.026,117.526 50.647,117.517 50.724 M150.125 51.124 C 150.790 51.155,151.877 51.155,152.542 51.124 C 153.206 51.092,152.662 51.066,151.333 51.066 C 150.004 51.066,149.460 51.092,150.125 51.124 M163.586 51.616 C 163.836 52.214,164.000 52.484,164.000 52.298 C 164.000 52.118,163.494 51.000,163.412 51.000 C 163.366 51.000,163.445 51.277,163.586 51.616 M155.333 51.685 C 155.654 51.877,156.098 52.196,156.319 52.392 C 156.540 52.589,156.663 52.651,156.594 52.531 C 156.426 52.241,155.167 51.333,154.933 51.334 C 154.832 51.334,155.012 51.492,155.333 51.685 M190.528 51.917 C 190.526 52.100,190.588 52.400,190.667 52.583 C 190.849 53.008,190.849 52.570,190.667 52.000 C 190.559 51.665,190.532 51.649,190.528 51.917 M183.924 54.008 C 183.770 54.846,183.677 55.565,183.716 55.605 C 183.756 55.645,183.915 54.991,184.068 54.152 C 184.222 53.312,184.315 52.593,184.276 52.554 C 184.237 52.514,184.078 53.169,183.924 54.008 M157.187 53.837 C 157.439 54.583,157.581 54.728,157.428 54.083 C 157.363 53.808,157.238 53.510,157.150 53.420 C 157.063 53.331,157.079 53.518,157.187 53.837 M252.771 54.000 C 252.829 54.321,252.942 54.733,253.022 54.917 C 253.123 55.145,253.135 55.067,253.063 54.667 C 253.004 54.346,252.891 53.933,252.811 53.750 C 252.711 53.521,252.698 53.600,252.771 54.000 M185.206 54.667 C 185.206 54.896,185.263 55.308,185.333 55.583 C 185.447 56.029,185.461 56.038,185.461 55.667 C 185.461 55.438,185.403 55.025,185.333 54.750 C 185.220 54.304,185.206 54.295,185.206 54.667 M164.542 55.083 C 164.544 55.450,164.578 55.580,164.618 55.373 C 164.658 55.166,164.656 54.866,164.615 54.706 C 164.573 54.547,164.540 54.717,164.542 55.083 M177.677 56.203 C 177.567 56.779,177.433 57.438,177.381 57.667 C 177.329 57.896,177.333 58.041,177.391 57.989 C 177.531 57.861,178.049 55.327,177.954 55.232 C 177.913 55.190,177.788 55.628,177.677 56.203 M118.937 55.833 C 118.996 56.154,119.109 56.567,119.189 56.750 C 119.289 56.979,119.302 56.900,119.229 56.500 C 119.171 56.179,119.058 55.767,118.978 55.583 C 118.877 55.355,118.865 55.433,118.937 55.833 M191.369 55.583 C 191.367 55.767,191.462 56.292,191.580 56.750 C 191.697 57.208,191.795 57.433,191.798 57.250 C 191.800 57.067,191.705 56.542,191.587 56.083 C 191.469 55.625,191.371 55.400,191.369 55.583 M164.725 57.167 C 164.725 57.946,164.754 58.265,164.789 57.875 C 164.824 57.485,164.824 56.848,164.789 56.458 C 164.754 56.069,164.725 56.387,164.725 57.167 M247.500 74.066 L 247.500 91.659 244.458 91.709 L 241.417 91.758 244.542 91.796 L 247.667 91.833 247.669 74.292 C 247.671 62.114,247.725 56.826,247.845 57.000 C 247.989 57.208,248.009 57.197,247.967 56.930 C 247.939 56.755,247.823 56.580,247.708 56.542 C 247.543 56.486,247.500 60.065,247.500 74.066 M253.771 57.500 C 253.829 57.821,253.942 58.233,254.022 58.417 C 254.123 58.645,254.135 58.567,254.063 58.167 C 254.004 57.846,253.891 57.433,253.811 57.250 C 253.711 57.021,253.698 57.100,253.771 57.500 M113.771 57.833 C 113.829 58.154,113.942 58.567,114.022 58.750 C 114.123 58.979,114.135 58.900,114.063 58.500 C 114.004 58.179,113.891 57.767,113.811 57.583 C 113.711 57.355,113.698 57.433,113.771 57.833 M120.109 59.994 C 120.218 60.626,120.637 61.851,120.653 61.583 C 120.658 61.492,120.515 60.967,120.335 60.417 C 120.155 59.867,120.053 59.676,120.109 59.994 M248.681 59.750 C 248.675 59.842,248.818 60.367,248.998 60.917 C 249.178 61.467,249.280 61.657,249.225 61.339 C 249.115 60.707,248.696 59.483,248.681 59.750 M182.591 61.091 C 182.527 61.516,182.509 61.898,182.551 61.940 C 182.592 61.981,182.679 61.668,182.742 61.242 C 182.806 60.817,182.824 60.435,182.783 60.394 C 182.741 60.352,182.655 60.666,182.591 61.091 M157.313 61.424 C 157.166 61.919,157.101 62.291,157.167 62.250 C 157.314 62.159,157.740 60.684,157.646 60.590 C 157.609 60.553,157.459 60.929,157.313 61.424 M176.428 61.930 C 176.271 62.722,176.105 63.492,176.059 63.643 C 175.988 63.875,175.999 63.879,176.137 63.667 C 176.328 63.371,176.894 60.672,176.787 60.565 C 176.747 60.525,176.585 61.139,176.428 61.930 M186.373 60.833 C 186.373 61.063,186.430 61.475,186.500 61.750 C 186.613 62.196,186.627 62.205,186.627 61.833 C 186.627 61.604,186.570 61.192,186.500 60.917 C 186.387 60.471,186.373 60.462,186.373 60.833 M163.780 61.591 C 163.388 62.412,163.443 62.552,163.853 61.776 C 164.039 61.424,164.161 61.106,164.125 61.070 C 164.089 61.034,163.934 61.268,163.780 61.591 M192.702 61.583 C 192.700 61.767,192.795 62.292,192.913 62.750 C 193.031 63.208,193.129 63.433,193.131 63.250 C 193.133 63.067,193.038 62.542,192.920 62.083 C 192.803 61.625,192.705 61.400,192.702 61.583 M114.864 61.833 C 114.911 61.971,115.084 62.591,115.250 63.211 C 115.415 63.831,115.583 64.306,115.622 64.267 C 115.714 64.175,115.053 61.827,114.897 61.688 C 114.833 61.630,114.818 61.696,114.864 61.833 M255.268 62.833 C 255.325 63.154,255.439 63.529,255.521 63.667 C 255.699 63.963,255.528 63.099,255.308 62.583 C 255.211 62.358,255.199 62.440,255.268 62.833 M121.437 64.667 C 121.496 64.987,121.609 65.400,121.689 65.583 C 121.789 65.812,121.802 65.734,121.729 65.333 C 121.671 65.012,121.558 64.600,121.478 64.417 C 121.377 64.188,121.365 64.266,121.437 64.667 M250.104 64.833 C 250.162 65.154,250.276 65.567,250.356 65.750 C 250.456 65.979,250.468 65.900,250.396 65.500 C 250.338 65.179,250.224 64.767,250.144 64.583 C 250.044 64.355,250.032 64.433,250.104 64.833 M150.292 64.791 C 151.048 64.822,152.285 64.822,153.042 64.791 C 153.798 64.760,153.179 64.735,151.667 64.735 C 150.154 64.735,149.535 64.760,150.292 64.791 M67.781 65.291 C 69.539 65.318,72.464 65.318,74.281 65.291 C 76.097 65.265,74.658 65.242,71.083 65.242 C 67.508 65.242,66.022 65.264,67.781 65.291 M160.423 65.853 C 159.547 66.511,159.465 66.620,160.136 66.234 C 160.609 65.963,161.353 65.311,161.151 65.345 C 161.114 65.351,160.786 65.580,160.423 65.853 M181.413 67.413 C 181.255 68.293,181.158 69.047,181.199 69.088 C 181.240 69.129,181.402 68.440,181.558 67.558 C 181.714 66.675,181.811 65.922,181.772 65.883 C 181.733 65.844,181.572 66.533,181.413 67.413 M116.222 66.583 C 116.275 66.767,116.406 67.276,116.514 67.715 C 116.621 68.154,116.742 68.480,116.781 68.441 C 116.873 68.349,116.394 66.503,116.241 66.359 C 116.177 66.299,116.169 66.400,116.222 66.583 M256.357 66.667 C 256.357 66.804,256.421 67.067,256.500 67.250 C 256.590 67.460,256.643 67.491,256.643 67.333 C 256.643 67.196,256.579 66.933,256.500 66.750 C 256.410 66.540,256.357 66.509,256.357 66.667 M193.867 66.917 C 193.867 67.100,193.927 67.438,194.000 67.667 C 194.106 67.997,194.133 68.014,194.133 67.750 C 194.133 67.567,194.073 67.229,194.000 67.000 C 193.894 66.670,193.867 66.653,193.867 66.917 M158.336 66.995 C 158.054 67.173,159.206 67.749,159.557 67.605 C 159.700 67.547,159.699 67.523,159.553 67.513 C 158.993 67.476,158.433 67.145,158.672 66.993 C 158.807 66.908,158.842 66.838,158.750 66.838 C 158.658 66.838,158.472 66.909,158.336 66.995 M187.602 67.503 C 187.652 67.917,187.759 68.517,187.840 68.836 C 187.959 69.306,187.969 69.248,187.893 68.532 C 187.842 68.046,187.735 67.446,187.656 67.199 C 187.549 66.864,187.535 66.941,187.602 67.503 M256.690 67.833 C 256.690 67.971,256.755 68.233,256.833 68.417 C 256.924 68.627,256.977 68.658,256.977 68.500 C 256.977 68.362,256.912 68.100,256.833 67.917 C 256.743 67.707,256.690 67.676,256.690 67.833 M174.926 68.759 C 174.863 69.094,174.845 69.401,174.886 69.441 C 174.927 69.482,175.011 69.242,175.074 68.907 C 175.137 68.573,175.155 68.266,175.114 68.225 C 175.073 68.184,174.989 68.425,174.926 68.759 M194.272 68.833 C 194.326 69.246,194.436 69.696,194.516 69.833 C 194.677 70.111,194.534 69.189,194.309 68.500 C 194.220 68.227,194.208 68.341,194.272 68.833 M122.570 68.750 C 122.814 69.788,123.200 71.022,123.262 70.961 C 123.337 70.886,122.670 68.456,122.541 68.333 C 122.493 68.287,122.506 68.475,122.570 68.750 M161.500 68.385 C 161.500 68.424,161.819 68.666,162.208 68.923 C 162.598 69.180,162.829 69.284,162.721 69.153 C 162.514 68.903,161.500 68.265,161.500 68.385 M251.272 69.083 C 251.448 69.876,251.686 70.353,251.565 69.667 C 251.508 69.346,251.394 68.971,251.312 68.833 C 251.214 68.670,251.200 68.757,251.272 69.083 M163.481 69.973 C 163.666 70.233,163.950 70.552,164.111 70.681 C 164.272 70.811,164.150 70.598,163.840 70.208 C 163.205 69.408,162.969 69.254,163.481 69.973 M150.216 70.291 C 150.931 70.322,152.056 70.322,152.716 70.290 C 153.376 70.259,152.792 70.233,151.417 70.233 C 150.042 70.234,149.501 70.259,150.216 70.291 M251.690 70.500 C 251.690 70.637,251.755 70.900,251.833 71.083 C 251.924 71.293,251.977 71.324,251.977 71.167 C 251.977 71.029,251.912 70.767,251.833 70.583 C 251.743 70.373,251.690 70.342,251.690 70.500 M156.083 70.777 C 156.358 70.922,156.752 71.194,156.958 71.382 C 157.164 71.570,157.373 71.682,157.423 71.632 C 157.533 71.523,156.020 70.497,155.763 70.507 C 155.664 70.510,155.808 70.632,156.083 70.777 M67.792 70.791 C 69.556 70.818,72.444 70.818,74.208 70.791 C 75.973 70.764,74.529 70.742,71.000 70.742 C 67.471 70.742,66.027 70.764,67.792 70.791 M117.604 71.500 C 117.662 71.821,117.776 72.233,117.856 72.417 C 117.956 72.645,117.968 72.567,117.896 72.167 C 117.838 71.846,117.724 71.433,117.644 71.250 C 117.544 71.021,117.532 71.100,117.604 71.500 M164.791 71.820 C 165.043 72.271,165.277 72.612,165.311 72.577 C 165.384 72.505,164.524 71.000,164.410 71.000 C 164.368 71.000,164.539 71.369,164.791 71.820 M257.771 71.667 C 257.829 71.987,257.942 72.400,258.022 72.583 C 258.123 72.812,258.135 72.734,258.063 72.333 C 258.004 72.012,257.891 71.600,257.811 71.417 C 257.711 71.188,257.698 71.266,257.771 71.667 M195.202 72.917 C 195.200 73.100,195.295 73.625,195.413 74.083 C 195.531 74.542,195.629 74.767,195.631 74.583 C 195.633 74.400,195.538 73.875,195.420 73.417 C 195.303 72.958,195.205 72.733,195.202 72.917 M123.944 73.496 C 123.998 73.815,124.144 74.378,124.266 74.746 C 124.479 75.385,124.484 75.390,124.390 74.837 C 124.335 74.518,124.190 73.956,124.067 73.587 C 123.855 72.948,123.849 72.944,123.944 73.496 M180.167 74.083 C 180.053 74.687,179.993 75.215,180.034 75.257 C 180.076 75.298,180.201 74.836,180.313 74.229 C 180.424 73.623,180.484 73.095,180.445 73.056 C 180.406 73.017,180.281 73.479,180.167 74.083 M158.429 73.500 C 158.490 73.729,158.610 74.029,158.695 74.167 C 158.802 74.340,158.815 74.290,158.738 74.000 C 158.676 73.771,158.557 73.471,158.472 73.333 C 158.365 73.160,158.351 73.210,158.429 73.500 M173.690 74.440 C 173.586 74.962,173.531 75.420,173.569 75.458 C 173.607 75.495,173.726 75.102,173.833 74.583 C 173.941 74.065,173.996 73.607,173.955 73.566 C 173.914 73.525,173.795 73.919,173.690 74.440 M252.771 74.333 C 252.829 74.654,252.942 75.067,253.022 75.250 C 253.123 75.479,253.135 75.400,253.063 75.000 C 253.004 74.679,252.891 74.267,252.811 74.083 C 252.711 73.855,252.698 73.933,252.771 74.333 M188.950 74.797 L 189.044 75.677 184.455 75.630 C 181.930 75.604,179.900 75.640,179.942 75.708 C 179.985 75.777,182.078 75.833,184.593 75.833 L 189.167 75.833 189.150 75.292 C 189.141 74.994,189.071 74.563,188.994 74.333 C 188.904 74.061,188.888 74.222,188.950 74.797 M166.039 75.333 C 166.039 75.654,166.073 75.785,166.115 75.625 C 166.157 75.465,166.157 75.202,166.115 75.042 C 166.073 74.881,166.039 75.012,166.039 75.333 M118.690 75.333 C 118.690 75.471,118.755 75.733,118.833 75.917 C 118.924 76.127,118.977 76.158,118.977 76.000 C 118.977 75.862,118.912 75.600,118.833 75.417 C 118.743 75.207,118.690 75.176,118.690 75.333 M258.847 75.417 C 258.842 75.508,258.985 76.033,259.165 76.583 C 259.345 77.133,259.447 77.324,259.391 77.006 C 259.282 76.374,258.863 75.149,258.847 75.417 M166.234 78.500 C 166.234 79.921,166.259 80.502,166.291 79.792 C 166.322 79.081,166.322 77.919,166.291 77.208 C 166.259 76.498,166.234 77.079,166.234 78.500 M119.104 76.833 C 119.162 77.154,119.276 77.567,119.356 77.750 C 119.456 77.979,119.468 77.900,119.396 77.500 C 119.338 77.179,119.224 76.767,119.144 76.583 C 119.044 76.355,119.032 76.433,119.104 76.833 M125.070 77.583 C 125.314 78.622,125.700 79.856,125.762 79.794 C 125.837 79.719,125.170 77.289,125.041 77.167 C 124.993 77.121,125.006 77.308,125.070 77.583 M159.212 78.333 C 159.212 78.746,159.245 78.915,159.284 78.708 C 159.324 78.502,159.324 78.165,159.284 77.958 C 159.245 77.752,159.212 77.921,159.212 78.333 M172.595 79.429 C 172.438 80.219,172.342 80.898,172.381 80.937 C 172.421 80.976,172.581 80.362,172.738 79.571 C 172.895 78.781,172.991 78.102,172.952 78.063 C 172.913 78.024,172.752 78.638,172.595 79.429 M253.937 78.500 C 253.996 78.821,254.109 79.233,254.189 79.417 C 254.289 79.645,254.302 79.567,254.229 79.167 C 254.171 78.846,254.058 78.433,253.978 78.250 C 253.877 78.021,253.865 78.100,253.937 78.500 M196.536 78.917 C 196.534 79.100,196.628 79.625,196.746 80.083 C 196.864 80.542,196.962 80.767,196.964 80.583 C 196.966 80.400,196.872 79.875,196.754 79.417 C 196.636 78.958,196.538 78.733,196.536 78.917 M120.110 80.330 C 120.165 80.649,120.310 81.211,120.433 81.580 C 120.645 82.219,120.651 82.223,120.556 81.670 C 120.502 81.351,120.356 80.789,120.234 80.420 C 120.021 79.781,120.016 79.777,120.110 80.330 M166.025 81.521 C 166.011 81.761,165.963 82.211,165.917 82.521 L 165.834 83.083 166.010 82.524 C 166.106 82.216,166.155 81.766,166.118 81.524 L 166.050 81.083 166.025 81.521 M178.939 81.298 C 178.803 81.517,178.455 83.677,178.541 83.763 C 178.584 83.806,178.711 83.277,178.822 82.588 L 179.024 81.333 184.584 81.333 L 190.143 81.333 190.328 82.292 C 190.650 83.954,190.832 84.559,190.717 83.583 C 190.663 83.125,190.535 82.412,190.434 82.000 L 190.250 81.250 184.636 81.206 C 181.549 81.182,178.985 81.223,178.939 81.298 M158.677 82.208 C 158.569 82.598,158.444 83.029,158.399 83.167 C 158.355 83.304,158.425 83.229,158.556 83.000 C 158.804 82.566,159.084 81.500,158.950 81.500 C 158.907 81.500,158.785 81.819,158.677 82.208 M255.089 82.602 C 255.313 83.523,255.658 84.428,255.558 83.833 C 255.505 83.512,255.358 83.025,255.232 82.750 C 255.106 82.475,255.042 82.408,255.089 82.602 M171.426 84.759 C 171.363 85.094,171.345 85.401,171.386 85.441 C 171.427 85.482,171.511 85.242,171.574 84.907 C 171.637 84.573,171.655 84.266,171.614 84.225 C 171.573 84.184,171.489 84.425,171.426 84.759 M157.158 84.958 L 156.583 85.583 157.208 85.009 C 157.790 84.474,157.910 84.333,157.783 84.333 C 157.755 84.333,157.474 84.615,157.158 84.958 M121.347 84.750 C 121.342 84.842,121.485 85.367,121.665 85.917 C 121.845 86.467,121.947 86.657,121.891 86.339 C 121.782 85.707,121.363 84.483,121.347 84.750 M164.947 85.424 C 164.555 86.245,164.610 86.385,165.019 85.609 C 165.205 85.257,165.328 84.939,165.292 84.903 C 165.256 84.867,165.100 85.102,164.947 85.424 M198.028 85.750 C 198.026 85.933,198.088 86.233,198.167 86.417 C 198.349 86.841,198.349 86.403,198.167 85.833 C 198.059 85.498,198.032 85.482,198.028 85.750 M171.093 86.259 C 171.030 86.594,171.012 86.901,171.053 86.941 C 171.093 86.982,171.178 86.742,171.241 86.407 C 171.303 86.073,171.321 85.766,171.281 85.725 C 171.240 85.684,171.155 85.925,171.093 86.259 M68.303 86.292 C 70.349 86.318,73.649 86.318,75.636 86.291 C 77.624 86.265,75.950 86.243,71.917 86.243 C 67.883 86.243,66.257 86.265,68.303 86.292 M150.383 86.291 C 151.190 86.321,152.465 86.321,153.217 86.291 C 153.968 86.260,153.308 86.235,151.750 86.235 C 150.192 86.235,149.577 86.260,150.383 86.291 M85.167 89.333 L 85.167 91.833 92.375 91.794 L 99.583 91.754 92.458 91.708 L 85.333 91.663 85.333 89.337 L 85.333 87.011 87.125 86.958 L 88.917 86.904 87.042 86.869 L 85.167 86.833 85.167 89.333 M162.950 88.362 C 162.326 89.007,162.026 89.384,162.283 89.199 C 162.736 88.872,163.539 88.052,163.987 87.458 C 164.398 86.914,164.086 87.185,162.950 88.362 M177.509 88.759 C 177.397 89.457,177.338 90.060,177.379 90.101 C 177.420 90.142,177.545 89.605,177.657 88.907 C 177.770 88.210,177.829 87.606,177.788 87.566 C 177.747 87.525,177.622 88.062,177.509 88.759 M256.604 88.000 C 256.662 88.321,256.776 88.733,256.856 88.917 C 256.956 89.145,256.968 89.067,256.896 88.667 C 256.838 88.346,256.724 87.933,256.644 87.750 C 256.544 87.521,256.532 87.600,256.604 88.000 M191.539 88.333 C 191.539 88.563,191.597 88.975,191.667 89.250 C 191.780 89.696,191.794 89.705,191.794 89.333 C 191.794 89.104,191.737 88.692,191.667 88.417 C 191.553 87.971,191.539 87.962,191.539 88.333 M122.771 89.833 C 122.829 90.154,122.942 90.567,123.022 90.750 C 123.123 90.979,123.135 90.900,123.063 90.500 C 123.004 90.179,122.891 89.767,122.811 89.583 C 122.711 89.355,122.698 89.433,122.771 89.833 M160.333 90.250 C 159.737 90.562,159.308 90.821,159.380 90.825 C 159.557 90.836,161.500 89.849,161.500 89.748 C 161.500 89.636,161.539 89.619,160.333 90.250 M199.018 90.167 C 199.013 90.304,199.073 90.696,199.152 91.038 L 199.297 91.660 195.690 91.709 L 192.083 91.757 195.787 91.795 L 199.492 91.833 199.385 91.292 C 199.226 90.484,199.030 89.883,199.018 90.167 M170.023 91.378 L 170.000 91.840 173.528 91.795 C 176.225 91.761,177.066 91.700,177.099 91.537 C 177.122 91.421,177.104 91.402,177.057 91.496 C 176.855 91.903,170.198 91.708,170.118 91.292 C 170.056 90.972,170.042 90.985,170.023 91.378 M155.417 91.500 C 154.612 91.610,154.606 91.615,155.250 91.631 C 155.617 91.640,156.217 91.585,156.583 91.510 C 157.434 91.334,156.675 91.327,155.417 91.500 M125.635 91.791 C 126.947 91.820,129.047 91.819,130.302 91.791 C 131.557 91.763,130.483 91.740,127.917 91.740 C 125.350 91.740,124.323 91.763,125.635 91.791 M4.174 126.788 C 4.165 127.045,4.687 128.368,4.767 128.289 C 4.799 128.257,4.681 127.860,4.504 127.407 C 4.327 126.954,4.179 126.676,4.174 126.788 M395.289 127.998 C 395.145 128.366,395.062 128.667,395.105 128.667 C 395.218 128.667,395.699 127.477,395.619 127.397 C 395.582 127.360,395.434 127.631,395.289 127.998 M5.087 129.007 C 5.231 129.285,5.842 130.016,6.446 130.632 L 7.542 131.750 6.524 130.622 C 5.963 130.001,5.389 129.270,5.248 128.997 C 5.107 128.723,4.954 128.500,4.908 128.500 C 4.862 128.500,4.943 128.728,5.087 129.007 M394.240 129.779 C 393.983 130.115,393.858 130.338,393.962 130.273 C 394.175 130.142,394.897 129.167,394.781 129.167 C 394.740 129.167,394.496 129.442,394.240 129.779 M391.750 132.039 C 391.567 132.146,391.004 132.405,390.500 132.613 C 389.996 132.822,389.696 132.994,389.833 132.996 C 390.120 133.000,392.167 132.060,392.167 131.924 C 392.167 131.803,392.139 131.811,391.750 132.039 M8.167 132.087 C 8.167 132.229,9.877 132.998,10.167 132.987 C 10.304 132.981,10.147 132.877,9.818 132.756 C 9.488 132.635,8.982 132.413,8.693 132.263 C 8.403 132.114,8.167 132.034,8.167 132.087 M105.889 133.292 C 157.757 133.315,242.582 133.315,294.389 133.292 C 346.196 133.269,303.758 133.250,200.083 133.250 C 96.408 133.250,54.021 133.269,105.889 133.292 " stroke="none" fill="#1c4a98" fill-rule="evenodd"></path><path id="path2" d="M10.667 0.178 C 8.061 0.459,5.813 1.547,3.871 3.465 C 2.781 4.540,1.667 5.974,1.667 6.299 C 1.667 6.385,1.528 6.634,1.358 6.853 C 0.987 7.330,0.416 9.045,0.175 10.406 C -0.070 11.791,-0.070 125.376,0.175 126.761 C 0.393 127.992,0.975 129.834,1.250 130.167 C 1.364 130.304,1.580 130.681,1.730 131.005 C 1.963 131.506,2.737 132.554,3.573 133.500 C 4.043 134.032,5.116 134.884,5.833 135.294 C 6.246 135.530,6.696 135.818,6.834 135.934 C 6.972 136.050,7.760 136.356,8.584 136.614 L 10.083 137.083 199.833 137.083 C 357.806 137.083,389.737 137.046,390.500 136.860 C 391.764 136.552,392.866 136.153,393.180 135.888 C 393.325 135.766,393.495 135.667,393.558 135.667 C 393.894 135.667,395.920 134.113,396.575 133.353 C 396.763 133.135,397.067 132.789,397.250 132.584 C 397.739 132.037,397.979 131.658,398.281 130.958 C 398.429 130.615,398.609 130.333,398.680 130.333 C 398.878 130.333,399.446 128.698,399.738 127.283 C 400.138 125.345,400.138 11.822,399.738 9.883 C 399.440 8.442,398.877 6.833,398.671 6.833 C 398.595 6.833,398.456 6.613,398.362 6.343 C 398.132 5.685,396.578 3.676,395.934 3.205 C 395.650 2.997,395.342 2.727,395.250 2.605 C 395.102 2.409,393.882 1.644,392.751 1.037 C 392.532 0.921,391.768 0.658,391.052 0.454 L 389.750 0.083 200.833 0.063 C 96.929 0.053,11.354 0.104,10.667 0.178 M388.808 4.003 C 392.036 4.422,395.046 7.215,395.912 10.597 C 396.142 11.494,396.164 17.720,396.126 69.009 L 396.083 126.417 395.728 127.344 C 394.607 130.270,392.137 132.504,389.378 133.088 C 387.965 133.388,12.904 133.460,11.000 133.161 C 7.827 132.663,4.871 129.799,4.084 126.460 C 3.712 124.880,3.712 12.285,4.085 10.705 C 4.897 7.260,8.159 4.255,11.417 3.951 C 13.014 3.803,387.659 3.853,388.808 4.003 M57.667 68.750 L 57.667 91.667 68.417 91.667 L 79.167 91.667 79.167 89.000 L 79.167 86.333 71.917 86.333 L 64.667 86.333 64.667 78.500 L 64.667 70.667 71.083 70.667 L 77.500 70.667 77.500 68.000 L 77.500 65.333 71.083 65.333 L 64.667 65.333 64.667 58.250 L 64.667 51.167 71.917 51.167 L 79.167 51.167 79.167 48.500 L 79.167 45.833 68.417 45.833 L 57.667 45.833 57.667 68.750 M85.333 48.167 L 85.333 50.500 87.083 50.500 L 88.833 50.500 88.833 68.750 L 88.833 87.000 87.083 87.000 L 85.333 87.000 85.333 89.333 L 85.333 91.667 92.417 91.667 L 99.500 91.667 99.500 89.333 L 99.500 87.000 97.667 87.000 L 95.833 87.000 95.833 68.750 L 95.833 50.500 97.667 50.500 L 99.500 50.500 99.500 48.167 L 99.500 45.833 92.417 45.833 L 85.333 45.833 85.333 48.167 M107.167 68.750 L 107.167 91.667 110.250 91.667 L 113.333 91.667 113.344 73.958 C 113.351 61.872,113.408 56.382,113.523 56.667 C 113.615 56.896,113.990 58.171,114.357 59.500 C 114.723 60.829,115.320 62.967,115.683 64.250 C 116.047 65.533,116.602 67.521,116.918 68.667 C 117.234 69.813,117.794 71.800,118.163 73.083 C 118.531 74.367,119.093 76.354,119.412 77.500 C 121.194 83.911,121.802 86.068,122.674 89.083 C 122.939 90.000,123.204 90.956,123.263 91.208 L 123.369 91.667 127.935 91.667 L 132.500 91.667 132.500 68.750 L 132.500 45.833 129.417 45.833 L 126.335 45.833 126.292 63.625 L 126.250 81.417 125.859 80.250 C 125.644 79.608,125.252 78.296,124.989 77.333 C 124.725 76.371,124.203 74.496,123.827 73.167 C 122.508 68.495,121.828 66.063,121.248 63.940 C 120.926 62.761,120.624 61.732,120.575 61.654 C 120.527 61.575,120.230 60.552,119.916 59.381 C 119.390 57.420,118.987 55.982,117.409 50.417 C 117.097 49.317,116.678 47.835,116.477 47.125 L 116.114 45.833 111.640 45.833 L 107.167 45.833 107.167 68.750 M142.000 68.764 L 142.000 91.695 148.958 91.618 C 157.038 91.529,157.834 91.433,160.294 90.253 C 164.421 88.273,166.065 84.957,166.077 78.583 C 166.089 72.326,164.213 69.122,159.725 67.737 C 158.136 67.247,157.963 67.093,158.720 66.843 C 165.004 64.769,166.776 53.549,161.586 48.694 C 158.912 46.193,157.234 45.833,148.238 45.833 L 142.000 45.833 142.000 68.764 M180.080 46.006 C 179.978 46.171,179.293 49.282,178.082 55.083 C 177.776 56.550,177.478 57.872,177.419 58.022 C 177.361 58.171,177.062 59.484,176.755 60.938 C 176.449 62.393,175.885 65.008,175.503 66.750 C 175.121 68.492,174.558 71.079,174.252 72.500 C 173.945 73.921,173.388 76.471,173.014 78.167 C 172.639 79.862,172.070 82.487,171.750 84.000 C 171.429 85.513,171.124 86.862,171.071 87.000 C 170.944 87.333,170.167 91.150,170.167 91.440 C 170.167 91.903,176.974 91.757,177.074 91.292 C 177.226 90.581,178.021 86.244,178.425 83.917 C 178.648 82.633,178.866 81.490,178.910 81.375 C 179.015 81.099,190.087 81.069,190.257 81.344 C 190.317 81.442,190.575 82.661,190.829 84.053 C 191.083 85.445,191.504 87.727,191.764 89.125 L 192.237 91.667 195.765 91.667 L 199.294 91.667 198.718 88.958 C 198.401 87.469,197.960 85.388,197.738 84.333 C 197.516 83.279,197.145 81.629,196.915 80.667 C 196.475 78.827,196.014 76.779,195.078 72.500 C 194.768 71.079,194.209 68.529,193.836 66.833 C 193.463 65.137,192.904 62.587,192.593 61.167 C 191.912 58.052,191.335 55.483,190.665 52.583 C 190.389 51.392,190.016 49.667,189.836 48.750 C 189.655 47.833,189.419 46.802,189.310 46.458 L 189.113 45.833 184.650 45.833 C 181.752 45.833,180.149 45.894,180.080 46.006 M205.000 68.750 L 205.000 91.667 208.415 91.667 L 211.831 91.667 211.874 81.292 L 211.917 70.917 218.458 70.873 L 225.000 70.829 225.000 81.248 L 225.000 91.667 228.500 91.667 L 232.000 91.667 232.000 68.750 L 232.000 45.833 228.501 45.833 L 225.003 45.833 224.960 55.542 L 224.917 65.250 218.750 65.296 C 215.358 65.322,212.415 65.302,212.208 65.252 L 211.833 65.160 211.833 55.497 L 211.833 45.833 208.417 45.833 L 205.000 45.833 205.000 68.750 M241.500 68.747 L 241.500 91.667 244.500 91.667 L 247.500 91.667 247.500 74.069 C 247.500 55.525,247.519 55.092,248.205 57.762 C 248.368 58.397,248.648 59.367,248.827 59.917 C 249.006 60.467,249.340 61.629,249.569 62.500 C 249.798 63.371,250.283 65.133,250.645 66.417 C 251.666 70.027,252.611 73.382,253.250 75.667 C 253.571 76.813,254.140 78.837,254.515 80.167 C 255.653 84.199,256.474 87.151,257.018 89.167 C 257.302 90.221,257.605 91.215,257.690 91.375 C 257.832 91.642,258.225 91.667,262.256 91.667 L 266.667 91.667 266.667 68.750 L 266.667 45.833 263.750 45.833 L 260.833 45.833 260.833 63.597 C 260.833 81.919,260.803 82.734,260.209 80.322 C 260.086 79.824,259.683 78.367,259.312 77.083 C 258.315 73.628,257.076 69.264,256.141 65.917 C 255.183 62.489,254.442 59.859,253.746 57.417 C 252.327 52.437,251.774 50.460,251.181 48.250 L 250.555 45.917 246.028 45.872 L 241.500 45.828 241.500 68.747 M154.353 51.226 C 156.984 51.845,157.935 53.861,157.786 58.500 C 157.683 61.686,157.123 63.102,155.525 64.212 L 154.750 64.750 151.875 64.805 L 149.000 64.861 149.000 57.930 L 149.000 51.000 151.208 51.003 C 152.447 51.004,153.828 51.102,154.353 51.226 M185.584 56.250 C 185.824 57.625,186.125 59.213,186.254 59.779 C 186.384 60.344,186.683 61.957,186.920 63.362 C 187.156 64.767,187.453 66.329,187.578 66.833 C 187.704 67.337,188.005 68.950,188.246 70.417 C 188.487 71.883,188.793 73.507,188.926 74.024 C 189.058 74.541,189.167 75.160,189.167 75.399 L 189.167 75.833 184.593 75.833 C 182.078 75.833,179.987 75.777,179.947 75.708 C 179.907 75.640,180.017 74.908,180.192 74.083 C 180.367 73.258,180.765 71.158,181.076 69.417 C 181.388 67.675,181.758 65.688,181.898 65.000 C 182.264 63.213,182.948 59.525,183.507 56.333 C 183.771 54.821,184.117 53.058,184.276 52.417 L 184.564 51.250 184.856 52.500 C 185.017 53.188,185.344 54.875,185.584 56.250 M154.624 70.334 C 157.861 70.754,159.179 73.033,159.202 78.250 C 159.231 84.569,157.582 86.327,151.625 86.331 L 149.000 86.333 149.000 78.250 L 149.000 70.167 151.208 70.172 C 152.423 70.175,153.960 70.248,154.624 70.334 " stroke="none" fill="#000000" fill-rule="evenodd"></path></g></svg>