<?xml version="1.0" encoding="utf-8"?>
<!-- Generator: Adobe Illustrator 15.0.2, SVG Export Plug-In . SVG Version: 6.00 Build 0)  -->
<!DOCTYPE svg PUBLIC "-//W3C//DTD SVG 1.1//EN" "http://www.w3.org/Graphics/SVG/1.1/DTD/svg11.dtd">
<svg version="1.1" id="Vrstva_1" xmlns="http://www.w3.org/2000/svg" xmlns:xlink="http://www.w3.org/1999/xlink" x="0px" y="0px"
	 width="900px" height="1200px" viewBox="0 0 900 1200" enable-background="new 0 0 900 1200" xml:space="preserve">
<g>
	<path fill-rule="evenodd" clip-rule="evenodd" fill="#24388D" d="M11.893,1143.197c0,26.34,21.303,47.648,47.648,47.648h781.56
		c26.327,0,47.636-21.309,47.636-47.648V56.444c0-26.345-21.309-47.653-47.636-47.653H59.541c-26.345,0-47.648,21.309-47.648,47.653
		V1143.197z"/>
	<path fill-rule="evenodd" clip-rule="evenodd" fill="#24388D" d="M888.892,1159.692l-0.814,5.174
		c-0.539,3.497-2.18,6.685-4.024,9.702c-3.629,6-9.246,10.756-15.692,13.416c-3.232,1.34-6.731,1.938-10.155,2.467H42.945
		c-3.544,0-6.929-1.127-10.167-2.467c-6.44-2.66-12.05-7.416-15.686-13.416c-2.755-4.505-4.023-9.702-4.845-14.876L12.151,41.766
		c0-7.032,2.27-14.008,6.389-19.68c4.121-5.654,10.067-9.918,16.708-12.104c3.332-1.054,6.827-1.395,10.315-1.641l812.641,0.096
		c3.521,0,6.923,1.12,10.155,2.468c6.446,2.671,12.063,7.42,15.692,13.367c2.755,4.504,4.024,9.69,4.839,14.865L889,1157.08
		C889,1157.954,888.94,1158.829,888.892,1159.692"/>
	<path fill-rule="evenodd" clip-rule="evenodd" fill="#F2F3F4" d="M733.287,441.232c0-93.967-24.23-162.408-73.029-204.917
		c-48.437-42.856-120.473-63.631-216.433-63.631H217.522v854.618h131.631V723.556h96.894c44.941,0,85.092-5.104,120.485-15.979
		c35.419-9.904,64.716-25.583,90.229-48.893c24.219-23.069,43.67-52.457,57.039-87.941
		C727.214,535.258,733.287,491.473,733.287,441.232 M599.388,443.808c0,35.484-3.497,63.644-9.582,86.653
		c-6.061,23.302-15.931,41.568-28.027,54.973c-12.123,13.419-26.783,23.367-44.989,29.398c-18.447,6.086-37.887,8.325-59.597,8.325
		h-108.04v-351.7h108.04c44.947,0,79.097,13.745,104.586,39.33C587.242,337.667,599.388,381.463,599.388,443.808z"/>
	<path fill-rule="evenodd" clip-rule="evenodd" fill="#24388D" d="M11.893,1143.197c0,26.34,21.303,47.648,47.648,47.648h781.56
		c26.327,0,47.636-21.309,47.636-47.648V56.444c0-26.345-21.309-47.653-47.636-47.653H59.541c-26.345,0-47.648,21.309-47.648,47.653
		V1143.197z"/>
	<path fill-rule="evenodd" clip-rule="evenodd" fill="#009FE3" d="M888.892,1159.692l-0.814,5.174
		c-0.539,3.497-2.18,6.685-4.024,9.702c-3.629,6-9.246,10.756-15.692,13.416c-3.232,1.34-6.731,1.938-10.155,2.467H42.945
		c-3.544,0-6.929-1.127-10.167-2.467c-6.44-2.66-12.05-7.416-15.686-13.416c-2.755-4.505-4.023-9.702-4.845-14.876L12.151,41.766
		c0-7.032,2.27-14.008,6.389-19.68c4.121-5.654,10.067-9.918,16.708-12.104c3.332-1.054,6.827-1.395,10.315-1.641l812.641,0.096
		c3.521,0,6.923,1.12,10.155,2.468c6.446,2.671,12.063,7.42,15.692,13.367c2.755,4.504,4.024,9.69,4.839,14.865L889,1157.08
		C889,1157.954,888.94,1158.829,888.892,1159.692"/>
	<path fill-rule="evenodd" clip-rule="evenodd" fill="#FFFFFF" d="M733.287,441.232c0-93.967-24.23-162.408-73.029-204.917
		c-48.437-42.856-120.473-63.631-216.433-63.631H217.522v854.618h131.631V723.556h96.894c44.941,0,85.092-5.104,120.485-15.979
		c35.419-9.904,64.716-25.583,90.229-48.893c24.219-23.069,43.67-52.457,57.039-87.941
		C727.214,535.258,733.287,491.473,733.287,441.232 M599.388,443.808c0,35.484-3.497,63.644-9.582,86.653
		c-6.061,23.302-15.931,41.568-28.027,54.973c-12.123,13.419-26.783,23.367-44.989,29.398c-18.447,6.086-37.887,8.325-59.597,8.325
		h-108.04v-351.7h108.04c44.947,0,79.097,13.745,104.586,39.33C587.242,337.667,599.388,381.463,599.388,443.808z"/>
</g>
</svg>
