<?xml version="1.0" encoding="UTF-8" standalone="no"?>
<!-- Created with Inkscape (http://www.inkscape.org/) -->
<svg
   xmlns:svg="http://www.w3.org/2000/svg"
   xmlns="http://www.w3.org/2000/svg"
   version="1.0"
   width="3500"
   height="3500"
   id="svg22265">
  <defs
     id="defs22267" />
  <g
     transform="translate(757.2098,3361.891)"
     id="layer1">
    <path
       d="M 2603.1119,126.81859 C 2674.0209,126.81859 2731.5,69.680073 2731.5,-0.78637405 L 2731.5,-3222.9736 C 2731.5,-3293.4401 2674.0209,-3350.6012 2603.1119,-3350.6012 L -617.55417,-3350.6012 C -688.44053,-3350.6012 -745.91972,-3293.4401 -745.91972,-3222.9736 L -745.91972,-0.78637405 C -745.91972,69.680073 -688.44053,126.81859 -617.55417,126.81859 L 2603.1119,126.81859 z "
       style="fill:white;fill-opacity:1;stroke:black;stroke-width:22.58023262;stroke-linecap:butt;stroke-linejoin:miter;stroke-miterlimit:4"
       id="path20917" />
    <path
       d="M -649.61112,31.436022 L 2635.3515,31.436022 L 2635.3515,-3254.4956 L -649.61112,-3254.4956 L -649.61112,31.436022 z "
       style="fill:#176fc1;fill-rule:nonzero;stroke:none"
       id="path20807" />
    <path
       d="M 647.00945,-1482.5639 L 1230.0672,-1482.5639 L 1230.0672,-1870.94 L 647.00945,-1870.94 L 647.00945,-1482.5639 z "
       style="fill:#0b8f4b;fill-rule:nonzero;stroke:white;stroke-width:15.80616379;stroke-linecap:butt;stroke-linejoin:miter;stroke-miterlimit:4"
       id="path20811" />
    <path
       d="M -547.64156,-2727.8621 L 35.416228,-2727.8621 L 35.416228,-3116.2383 L -547.64156,-3116.2383 L -547.64156,-2727.8621 z "
       style="fill:#0b8f4b;fill-rule:nonzero;stroke:white;stroke-width:15.80616379;stroke-linecap:butt;stroke-linejoin:miter;stroke-miterlimit:4"
       id="path20815" />
    <path
       d="M 2284.3777,-971.40056 C 2415.9248,-971.40056 2522.5449,-1053.3447 2522.5449,-1154.4361 C 2522.5449,-1255.5275 2415.9248,-1337.4715 2284.3777,-1337.4715 C 2152.8533,-1337.4715 2046.2106,-1255.5275 2046.2106,-1154.4361 C 2046.2106,-1053.3447 2152.8533,-971.40056 2284.3777,-971.40056"
       style="fill:white;fill-rule:nonzero;stroke:none"
       id="path20817" />
    <path
       d="M 941.71291,-2267.679 L 940.7385,-2267.679 C 927.34584,-2249.4541 916.4459,-2242.0967 892.15329,-2242.0967 C 868.85777,-2242.0967 837.60824,-2253.4366 837.60824,-2308.6284 C 837.60824,-2365.8004 853.44829,-2397.0526 917.28434,-2400.81 C 924.21863,-2401.2149 931.31152,-2401.4174 941.71291,-2400.9225 L 941.71291,-2418.0223 C 941.71291,-2434.7846 935.27719,-2447.587 916.4459,-2447.587 C 903.55177,-2447.587 890.65766,-2438.7221 887.68907,-2422.4548 L 838.60533,-2422.4548 C 840.10095,-2444.6395 848.03232,-2463.3593 861.40231,-2476.6567 C 874.79496,-2489.9765 893.62626,-2497.8515 916.4459,-2497.8515 C 958.57271,-2497.8515 992.29229,-2471.2343 992.29229,-2419.0123 L 992.29229,-2245.0667 L 941.71291,-2245.0667 L 941.71291,-2267.679 z M 941.71291,-2361.5029 C 936.27427,-2362.4929 931.92336,-2361.4354 927.4818,-2360.9854 C 905.56861,-2358.7354 888.18761,-2345.1006 888.18761,-2318.4834 C 888.18761,-2299.2686 898.09048,-2286.4437 914.45172,-2286.4437 C 931.31152,-2286.4437 941.71291,-2298.2786 941.71291,-2318.4834 L 941.71291,-2361.5029"
       style="fill:white;fill-rule:nonzero;stroke:none"
       id="path20819" />
    <path
       d="M 1927.3534,-727.41322 C 1926.8549,-744.17545 1911.5361,-744.53541 1898.1435,-744.53541 C 1882.2807,-744.53541 1873.375,-732.20551 1873.375,-719.38061 C 1873.375,-710.02073 1872.5593,-702.2809 1891.3905,-694.87855 L 1924.4076,-692.15593 C 1982.0799,-679.84873 1973.9899,-641.03653 1973.9899,-611.47188 C 1973.9899,-570.07234 1942.2644,-536.07514 1898.6421,-536.07514 C 1858.9853,-536.07514 1825.2883,-562.19746 1823.2942,-611.47188 L 1870.8823,-611.47188 C 1872.8765,-597.67945 1879.3122,-583.39225 1898.1435,-583.39225 C 1912.5332,-583.39225 1926.4017,-593.74212 1926.4017,-610.48188 C 1926.4017,-624.29677 1930.6847,-642.79163 1901.1121,-649.56393 L 1874.2588,-653.81649 C 1842.5334,-665.65139 1825.7643,-685.38362 1825.7643,-718.9083 C 1825.7643,-761.27517 1859.4839,-791.82982 1900.1376,-791.82982 C 1941.29,-791.82982 1974.4432,-768.81277 1974.9417,-727.41322 L 1927.3534,-727.41322"
       style="fill:white;fill-rule:nonzero;stroke:none"
       id="path20821" />
    <path
       d="M 1858.7814,-2245.0667 L 1858.4188,-2453.8869 L 1833.129,-2453.8869 L 1833.129,-2493.3065 L 1858.4188,-2493.3065 L 1858.4188,-2569.1981 L 1908.9529,-2593.0479 L 1908.9755,-2493.3065 L 1940.2249,-2493.3065 L 1940.2249,-2453.8869 L 1908.9755,-2453.8869 L 1909.3608,-2245.0667 L 1858.7814,-2245.0667"
       style="fill:white;fill-rule:nonzero;stroke:none"
       id="path20823" />
    <path
       d="M 981.95888,-2746.1362 L 980.82582,-2746.1362 C 965.34836,-2725.0539 952.74882,-2716.5716 924.67185,-2716.5716 C 897.75056,-2716.5716 861.65158,-2729.6663 861.65158,-2793.4533 C 861.65158,-2859.5126 879.93901,-2895.6246 953.74591,-2899.9671 C 961.74525,-2900.4395 969.92588,-2900.687 981.95888,-2900.102 L 981.95888,-2919.8793 C 981.95888,-2939.2516 974.52606,-2954.0564 952.74882,-2954.0564 C 937.86056,-2954.0564 922.9496,-2943.7966 919.52779,-2925.0093 L 862.80729,-2925.0093 C 864.52953,-2950.6364 873.68457,-2972.2588 889.16204,-2987.6486 C 904.61685,-3003.0159 926.39408,-3012.1284 952.74882,-3012.1284 C 1001.4474,-3012.1284 1040.4017,-2981.3936 1040.4017,-2921.0268 L 1040.4017,-2719.9915 L 981.95888,-2719.9915 L 981.95888,-2746.1362 z M 981.95888,-2854.5625 C 975.65912,-2855.6875 970.65104,-2854.495 965.52965,-2853.9775 C 940.19462,-2851.3675 920.09432,-2835.5953 920.09432,-2804.8381 C 920.09432,-2782.6308 931.56078,-2767.826 950.46007,-2767.826 C 969.92588,-2767.826 981.95888,-2781.4833 981.95888,-2804.8381 L 981.95888,-2854.5625"
       style="fill:white;fill-rule:nonzero;stroke:none"
       id="path20825" />
    <path
       d="M 1318.8601,-2598.8753 L 1369.4169,-2598.8753 L 1369.4169,-2318.4834 C 1369.4169,-2299.7636 1374.878,-2294.3411 1394.208,-2292.3612 L 1394.208,-2245.0667 C 1347.617,-2245.0667 1318.8601,-2256.879 1318.8601,-2315.0409 L 1318.8601,-2598.8753"
       style="fill:white;fill-rule:nonzero;stroke:none"
       id="path20827" />
    <path
       d="M 1373.4505,-728.08821 C 1372.9519,-744.82795 1357.6558,-745.18792 1344.2631,-745.18792 C 1328.4005,-745.18792 1319.4719,-732.85802 1319.4719,-720.05582 C 1319.4719,-710.6957 1318.6788,-702.93341 1337.51,-695.53107 L 1370.5273,-692.83091 C 1428.1768,-680.5237 1420.1095,-641.71151 1420.1095,-612.14686 C 1420.1095,-570.74733 1388.3841,-536.75011 1344.7615,-536.75011 C 1305.1049,-536.75011 1271.3853,-562.84999 1269.4138,-612.14686 L 1317.0019,-612.14686 C 1318.9734,-598.33196 1325.4318,-584.04475 1344.2631,-584.04475 C 1358.6302,-584.04475 1372.5213,-594.39464 1372.5213,-611.15686 C 1372.5213,-624.9493 1376.8044,-643.46661 1347.2317,-650.21644 L 1320.3784,-654.46902 C 1288.6529,-666.30391 1271.8838,-686.05861 1271.8838,-719.56082 C 1271.8838,-761.95037 1305.6034,-792.48233 1346.2347,-792.48233 C 1387.3871,-792.48233 1420.5401,-769.48775 1421.0386,-728.08821 L 1373.4505,-728.08821"
       style="fill:white;fill-rule:nonzero;stroke:none"
       id="path20829" />
    <path
       d="M 1197.5104,-2245.0667 L 1197.1252,-2453.8869 L 1171.858,-2453.8869 L 1171.858,-2493.3065 L 1197.1252,-2493.3065 L 1197.1252,-2569.1981 L 1247.6592,-2593.0479 L 1247.7046,-2493.3065 L 1278.9315,-2493.3065 L 1278.9315,-2453.8869 L 1247.7046,-2453.8869 L 1248.0671,-2245.0667 L 1197.5104,-2245.0667"
       style="fill:white;fill-rule:nonzero;stroke:none"
       id="path20831" />
    <path
       d="M 1652.7928,-1005.6902 L 1651.637,-1005.6902 C 1636.1595,-984.63043 1623.5601,-976.1255 1595.4831,-976.1255 C 1568.5618,-976.1255 1532.4628,-989.24287 1532.4628,-1053.0072 C 1532.4628,-1119.0664 1550.7502,-1155.2011 1624.5571,-1159.5434 C 1632.5565,-1160.0159 1640.7597,-1160.241 1652.7928,-1159.6785 L 1652.7928,-1179.4333 C 1652.7928,-1198.8056 1645.3372,-1213.6104 1623.5601,-1213.6104 C 1608.6717,-1213.6104 1593.7835,-1203.3505 1590.339,-1184.5632 L 1533.6184,-1184.5632 C 1535.3407,-1210.1904 1544.4958,-1231.8352 1559.9732,-1247.2026 C 1575.4508,-1262.5923 1597.2053,-1271.7048 1623.5601,-1271.7048 C 1672.2584,-1271.7048 1711.2128,-1240.9476 1711.2128,-1180.5808 L 1711.2128,-979.54547 L 1652.7928,-979.54547 L 1652.7928,-1005.6902 z M 1652.7928,-1114.1164 C 1646.4703,-1115.2639 1641.4622,-1114.049 1636.3408,-1113.5315 C 1611.0058,-1110.9215 1590.9056,-1095.1493 1590.9056,-1064.392 C 1590.9056,-1042.1848 1602.3721,-1027.38 1621.2711,-1027.38 C 1640.7597,-1027.38 1652.7928,-1041.0597 1652.7928,-1064.392 L 1652.7928,-1114.1164"
       style="fill:white;fill-rule:nonzero;stroke:none"
       id="path20833" />
    <path
       d="M 1490.7892,-2345.7306 L 1490.7665,-2315.1309 C 1490.7665,-2299.3586 1500.1935,-2290.4937 1515.5576,-2290.4937 C 1534.8875,-2290.4937 1539.3517,-2301.361 1540.3489,-2312.206 L 1590.9056,-2312.206 C 1590.9056,-2291.5062 1583.4728,-2275.7113 1570.5786,-2262.3916 C 1557.2086,-2248.5991 1538.8532,-2240.2293 1515.5576,-2240.2293 C 1484.8293,-2240.2293 1461.5338,-2254.5165 1449.6368,-2276.2063 C 1442.6798,-2289.0088 1440.2098,-2306.7384 1440.2098,-2326.9433 L 1440.2098,-2409.2473 C 1440.2098,-2429.4521 1442.6798,-2447.182 1449.6368,-2460.0068 C 1461.5338,-2481.674 1484.8293,-2495.9615 1515.5576,-2495.9615 C 1562.1488,-2495.9615 1590.9056,-2461.9644 1590.9056,-2418.1123 L 1590.9056,-2345.7306 L 1490.7892,-2345.7306 z M 1490.7665,-2388.5476 L 1540.3489,-2388.5476 L 1540.3489,-2417.1223 C 1540.3489,-2435.8646 1530.9219,-2445.7195 1515.5576,-2445.7195 C 1500.1935,-2445.7195 1490.7665,-2435.8646 1490.7665,-2417.1223 L 1490.7665,-2388.5476"
       style="fill:white;fill-rule:nonzero;stroke:none"
       id="path20835" />
    <path
       d="M 1097.666,-3128.8795 L 1156.1087,-3128.8795 L 1156.1087,-2804.8381 C 1156.1087,-2783.1934 1162.4086,-2776.9384 1184.7523,-2774.6659 L 1184.7523,-2719.9915 C 1130.9097,-2719.9915 1097.666,-2733.6489 1097.666,-2800.8556 L 1097.666,-3128.8795"
       style="fill:white;fill-rule:nonzero;stroke:none"
       id="path20837" />
    <path
       d="M 1433.6834,-1197.5231 C 1433.1168,-1216.8953 1415.4187,-1217.3003 1399.9639,-1217.3003 C 1381.631,-1217.3003 1371.3203,-1203.058 1371.3203,-1188.2531 C 1371.3203,-1177.4309 1370.3686,-1168.4534 1392.1458,-1159.9259 L 1430.307,-1156.776 C 1496.953,-1142.5561 1487.6166,-1097.7141 1487.6166,-1063.537 C 1487.6166,-1015.7025 1450.9511,-976.3955 1400.5304,-976.3955 C 1354.7098,-976.3955 1315.7329,-1006.5902 1313.4441,-1063.537 L 1368.4424,-1063.537 C 1370.7311,-1047.5847 1378.1867,-1031.0699 1399.9639,-1031.0699 C 1416.5744,-1031.0699 1432.6183,-1043.0398 1432.6183,-1062.3895 C 1432.6183,-1078.3419 1437.5584,-1099.7392 1403.3856,-1107.5466 L 1372.3628,-1112.474 C 1335.6973,-1126.1313 1316.322,-1148.9686 1316.322,-1187.6906 C 1316.322,-1236.6501 1355.2763,-1271.9748 1402.2527,-1271.9748 C 1449.7954,-1271.9748 1488.1152,-1245.3576 1488.6818,-1197.5231 L 1433.6834,-1197.5231"
       style="fill:white;fill-rule:nonzero;stroke:none"
       id="path20839" />
    <path
       d="M 1060.5926,-2245.0667 L 1060.2301,-2453.8869 L 1034.9629,-2453.8869 L 1034.9629,-2493.3065 L 1060.2301,-2493.3065 L 1060.2301,-2569.1981 L 1110.764,-2593.0479 L 1110.8093,-2493.3065 L 1142.0362,-2493.3065 L 1142.0362,-2453.8869 L 1110.8093,-2453.8869 L 1111.172,-2245.0667 L 1060.5926,-2245.0667"
       style="fill:white;fill-rule:nonzero;stroke:none"
       id="path20841" />
    <path
       d="M 1866.894,-2719.9915 L 1808.4513,-2719.9915 L 1808.4739,-2738.0588 L 1807.3409,-2738.0588 C 1794.4467,-2723.389 1790.7983,-2718.6191 1763.877,-2718.6191 C 1742.485,-2718.6191 1691.8377,-2743.7738 1692.1322,-2802.9256 L 1692.1549,-3008.7084 L 1750.5977,-3008.7084 L 1750.5977,-2808.8206 C 1750.5977,-2787.7608 1760.9084,-2774.6659 1779.2412,-2774.6659 C 1801.0185,-2774.6659 1808.4513,-2788.8858 1808.4513,-2814.5355 L 1808.4513,-3008.7084 L 1866.894,-3008.7084 L 1866.894,-2719.9915"
       style="fill:white;fill-rule:nonzero;stroke:none"
       id="path20843" />
    <path
       d="M -251.50252,-3012.1509 L -295.05697,-2972.9562 L -295.07964,-3027.6306 L -251.52518,-3065.3402 L -207.94805,-3065.3402 L -207.94805,-2765.9135 L -251.52518,-2765.9135 L -251.50252,-3012.1509"
       style="fill:white;fill-rule:nonzero;stroke:none"
       id="path20845" />
    <path
       d="M 1797.37,-1582.6514 C 1797.37,-1567.7341 1806.797,-1559.1841 1819.6684,-1559.1841 C 1832.5398,-1559.1841 1840.2673,-1567.7341 1840.2673,-1581.7964 L 1840.2673,-1650.0382 C 1840.2673,-1661.9855 1831.6787,-1671.7954 1819.6684,-1671.7954 C 1804.6668,-1671.7954 1799.9534,-1660.2755 1797.37,-1655.1681 L 1755.8097,-1655.1681 L 1755.8097,-1818.8763 L 1870.6557,-1818.8763 L 1870.6557,-1777.9492 L 1797.37,-1777.9492 L 1797.37,-1696.0952 C 1805.528,-1703.7676 1818.3768,-1710.1575 1833.8315,-1710.1575 C 1863.4268,-1710.1575 1884.003,-1691.3927 1884.003,-1656.4505 L 1884.003,-1580.9414 C 1884.003,-1540.4418 1853.5465,-1515.7146 1818.8073,-1515.7146 C 1784.068,-1515.7146 1753.6115,-1541.9043 1753.6115,-1582.4039 L 1797.37,-1582.6514"
       style="fill:white;fill-rule:nonzero;stroke:none"
       id="path20847" />
    <path
       d="M 1449.9088,-1822.1613 L 1486.3702,-1822.1613 L 1554.5799,-1518.5946 L 1510.8216,-1518.5946 L 1502.3916,-1561.7266 L 1433.8874,-1561.7266 L 1425.4574,-1518.5946 L 1381.7217,-1518.5946 L 1449.9088,-1822.1613 z M 1468.3547,-1734.7722 L 1467.4937,-1734.7722 L 1441.6147,-1602.6537 L 1494.2564,-1602.6537 L 1468.3547,-1734.7722"
       style="fill:white;fill-rule:nonzero;stroke:none"
       id="path20849" />
    <path
       d="M 718.04876,-2402.0024 C 676.89636,-2402.0024 635.29075,-2430.4647 635.29075,-2487.6366 L 635.29075,-2516.1888 C 635.29075,-2573.338 678.9132,-2601.9353 720.04292,-2601.9353 C 761.19532,-2601.9353 804.81776,-2573.338 804.81776,-2516.1888 L 754.26105,-2516.1888 C 754.26105,-2540.331 738.39835,-2551.6708 720.04292,-2551.6708 C 701.71017,-2551.6708 685.84746,-2540.331 685.84746,-2516.1888 L 685.84746,-2487.6366 C 685.84746,-2463.4718 699.69333,-2452.3344 718.04876,-2452.3344 L 721.06267,-2451.9519 C 762.21507,-2451.9519 804.31922,-2423.7147 804.31922,-2366.5654 L 804.31922,-2327.7758 C 804.31922,-2270.6264 760.69678,-2242.0292 719.54439,-2242.0292 C 678.41466,-2242.0292 634.76955,-2270.6264 634.76955,-2327.7758 L 685.34892,-2327.7758 C 685.34892,-2303.6335 701.21163,-2292.2937 719.54439,-2292.2937 C 737.8998,-2292.2937 753.7625,-2303.6335 753.7625,-2327.7758 L 753.7625,-2366.5654 C 753.7625,-2390.7076 737.8998,-2402.0475 719.54439,-2402.0475 L 718.04876,-2402.0024"
       style="fill:white;fill-rule:nonzero;stroke:none"
       id="path20851" />
    <path
       d="M 993.28937,-1005.6902 L 992.13367,-1005.6902 C 976.67886,-984.63043 964.07934,-976.1255 936.00234,-976.1255 C 909.08105,-976.1255 872.98207,-989.24287 872.98207,-1053.0072 C 872.98207,-1119.0664 891.26951,-1155.2011 965.05375,-1159.5434 C 973.05309,-1160.0159 981.25638,-1160.241 993.28937,-1159.6785 L 993.28937,-1179.4333 C 993.28937,-1198.8056 985.83392,-1213.6104 964.07934,-1213.6104 C 949.16839,-1213.6104 934.28011,-1203.3505 930.83563,-1184.5632 L 874.11513,-1184.5632 C 875.83736,-1210.1904 885.01508,-1231.8352 900.46988,-1247.2026 C 915.94736,-1262.5923 937.72457,-1271.7048 964.07934,-1271.7048 C 1012.7779,-1271.7048 1051.7321,-1240.9476 1051.7321,-1180.5808 L 1051.7321,-979.54547 L 993.28937,-979.54547 L 993.28937,-1005.6902 z M 993.28937,-1114.1164 C 986.98961,-1115.2639 981.98154,-1114.049 976.83749,-1113.5315 C 951.52514,-1110.9215 931.42482,-1095.1493 931.42482,-1064.392 C 931.42482,-1042.1848 942.86864,-1027.38 961.79057,-1027.38 C 981.25638,-1027.38 993.28937,-1041.0597 993.28937,-1064.392 L 993.28937,-1114.1164"
       style="fill:white;fill-rule:nonzero;stroke:none"
       id="path20853" />
    <path
       d="M 1464.9783,-3125.4596 L 1523.3984,-3125.4596 L 1523.3984,-2996.401 L 1524.5541,-2996.401 C 1529.7209,-3010.5084 1555.4863,-3016.1333 1578.3966,-3015.6158 C 1598.4064,-3015.1433 1620.7953,-3001.3059 1630.5396,-2985.9386 C 1637.995,-2973.9687 1639.7173,-2957.454 1639.7173,-2915.8969 L 1639.7173,-2805.9855 C 1639.7173,-2774.0809 1636.8393,-2756.4411 1629.973,-2743.9088 C 1619.6623,-2725.1215 1602.4627,-2716.5716 1578.9858,-2716.5716 C 1549.7531,-2716.5716 1538.3093,-2722.7365 1523.3984,-2739.2514 L 1523.3984,-2719.9915 L 1464.9783,-2719.9915 L 1464.9783,-3125.4596 z M 1581.2746,-2919.8793 C 1581.2746,-2938.1042 1574.9749,-2954.0564 1552.6311,-2954.0564 C 1536.0205,-2954.0564 1523.3984,-2940.9391 1523.3984,-2922.7143 L 1523.3984,-2810.5306 C 1523.3984,-2789.4708 1534.8648,-2774.6659 1552.6311,-2774.6659 C 1572.686,-2774.6659 1581.2746,-2790.5958 1581.2746,-2813.9505 L 1581.2746,-2919.8793"
       style="fill:white;fill-rule:nonzero;stroke:none"
       id="path20855" />
    <path
       d="M 1739.9017,-2261.7165 C 1727.0076,-2247.4292 1711.5753,-2242.0518 1691.815,-2242.0967 C 1671.488,-2242.1418 1656.6224,-2249.4992 1647.694,-2265.7665 C 1641.7568,-2276.5888 1639.2641,-2291.8663 1639.2641,-2319.4734 L 1639.2641,-2414.5798 C 1639.2641,-2450.5344 1640.7597,-2464.8443 1647.1955,-2475.1941 C 1655.6254,-2488.4916 1676.4962,-2499.8764 1700.7887,-2499.4489 C 1724.0843,-2499.0439 1730.0214,-2496.4565 1738.9272,-2484.239 L 1739.9017,-2484.239 L 1739.9017,-2595.9054 L 1790.481,-2595.9054 L 1790.481,-2245.0667 L 1739.9017,-2245.0667 L 1739.9017,-2261.7165 z M 1689.8435,-2326.3583 C 1689.8435,-2306.1535 1697.2763,-2292.3612 1714.6347,-2292.3612 C 1729.9987,-2292.3612 1739.9017,-2305.186 1739.9017,-2323.4108 L 1739.9017,-2420.4973 C 1739.9017,-2436.2471 1729.0018,-2447.587 1714.6347,-2447.587 C 1695.2821,-2447.587 1689.8435,-2433.7945 1689.8435,-2418.0223 L 1689.8435,-2326.3583"
       style="fill:white;fill-rule:nonzero;stroke:none"
       id="path20857" />
    <path
       d="M 1013.8202,-643.57896 L 1013.8202,-612.97936 C 1013.8202,-597.20713 1023.2246,-588.34204 1038.6114,-588.34204 C 1057.9412,-588.34204 1062.4054,-599.23208 1063.4026,-610.05451 L 1113.9593,-610.05451 C 1113.9593,-589.35475 1106.5264,-573.55983 1093.6323,-560.23993 C 1080.2397,-546.44772 1061.9069,-538.07762 1038.6114,-538.07762 C 1007.8604,-538.07762 984.56488,-552.36505 972.66786,-574.05483 C 965.73359,-586.85726 963.24087,-604.60948 963.24087,-624.81426 L 963.24087,-707.09588 C 963.24087,-727.30065 965.73359,-745.03041 972.66786,-757.8553 C 984.56488,-779.54509 1007.8604,-793.83229 1038.6114,-793.83229 C 1085.2025,-793.83229 1113.9593,-759.81284 1113.9593,-715.96075 L 1113.9593,-643.57896 L 1013.8202,-643.57896 z M 1013.8202,-686.3961 L 1063.3799,-686.3961 L 1063.3799,-714.97075 C 1063.3799,-733.71298 1053.9756,-743.56786 1038.6114,-743.56786 C 1023.2246,-743.56786 1013.8202,-733.71298 1013.8202,-714.97075 L 1013.8202,-686.3961"
       style="fill:white;fill-rule:nonzero;stroke:none"
       id="path20859" />
    <path
       d="M 2184.2841,-2689.5494 C 2184.8507,-2675.8695 2195.1613,-2661.0647 2215.2164,-2661.0647 C 2234.1156,-2661.0647 2242.1376,-2674.182 2242.1376,-2692.3844 L 2242.1603,-2732.5463 L 2241.0045,-2732.5463 C 2233.2092,-2716.4816 2219.1593,-2712.7242 2195.6599,-2712.7242 C 2172.183,-2712.7242 2145.8963,-2721.319 2135.5855,-2740.1288 C 2128.6966,-2752.6386 2125.8413,-2770.301 2125.8413,-2802.1831 L 2125.8413,-2912.0945 C 2125.8413,-2953.6739 2127.5636,-2970.1888 2134.9964,-2982.1587 C 2144.7406,-2997.526 2159.085,-3007.5159 2187.1393,-3008.3484 C 2210.5255,-3009.0459 2227.2267,-3005.0859 2242.1149,-2988.5711 L 2242.1376,-3004.9283 L 2300.5804,-3004.9283 L 2300.5804,-2687.8394 C 2300.5804,-2648.5548 2274.792,-2602.9927 2212.9276,-2602.9927 C 2177.3951,-2602.9927 2133.2968,-2623.4901 2125.8413,-2689.5494 L 2184.2841,-2689.5494 z M 2184.2841,-2805.0405 C 2184.2841,-2786.8158 2190.5838,-2770.8635 2212.9276,-2770.8635 C 2229.5381,-2770.8635 2242.1376,-2783.9808 2242.1376,-2802.1831 L 2242.1376,-2914.3894 C 2242.1376,-2935.4492 2230.6711,-2950.2539 2212.9276,-2950.2539 C 2192.8726,-2950.2539 2184.2841,-2934.3243 2184.2841,-2910.9695 L 2184.2841,-2805.0405"
       style="fill:white;fill-rule:nonzero;stroke:none"
       id="path20861" />
    <path
       d="M 1160.3463,-893.7538 L 1210.9257,-893.7538 L 1210.9257,-613.38448 C 1210.9257,-594.64202 1216.3644,-589.24217 1235.6943,-587.26215 L 1235.6943,-539.94528 C 1189.1032,-539.94528 1160.3463,-551.77995 1160.3463,-609.91947 L 1160.3463,-893.7538"
       style="fill:white;fill-rule:nonzero;stroke:none"
       id="path20863" />
    <path
       d="M 1937.6643,-3008.7084 L 1996.0844,-3008.7084 L 1996.0617,-2997.661 C 2020.1277,-3018.7208 2039.6388,-3012.1284 2073.4264,-3012.1284 L 2073.4264,-2950.6364 C 2067.6931,-2952.9089 2061.9826,-2954.0564 2055.6827,-2954.0564 C 2031.0504,-2954.0564 1996.0617,-2958.3539 1996.0617,-2911.082 L 1996.0844,-2719.9915 L 1937.6643,-2719.9915 L 1937.6643,-3008.7084"
       style="fill:white;fill-rule:nonzero;stroke:none"
       id="path20865" />
    <path
       d="M 1212.1947,-1196.8932 C 1211.6282,-1216.2428 1193.9299,-1216.6479 1178.4524,-1216.6479 C 1160.1197,-1216.6479 1149.8089,-1202.4281 1149.8089,-1187.6006 C 1149.8089,-1176.8008 1148.8798,-1167.8234 1170.657,-1159.2734 L 1208.7955,-1156.1461 C 1275.4643,-1141.9262 1266.1279,-1097.0617 1266.1279,-1062.907 C 1266.1279,-1015.05 1229.4624,-975.76553 1179.0416,-975.76553 C 1133.1985,-975.76553 1094.2442,-1005.9377 1091.9554,-1062.907 L 1146.9537,-1062.907 C 1149.2424,-1046.9548 1156.6978,-1030.4399 1178.4524,-1030.4399 C 1195.0856,-1030.4399 1211.1069,-1042.3872 1211.1069,-1061.7596 C 1211.1069,-1077.7119 1216.0698,-1099.0867 1181.8742,-1106.9166 L 1150.8513,-1111.8215 C 1114.1859,-1125.5014 1094.8107,-1148.3162 1094.8107,-1187.0381 C 1094.8107,-1236.0202 1133.765,-1271.3223 1180.7638,-1271.3223 C 1228.3068,-1271.3223 1266.6264,-1244.7276 1267.193,-1196.8932 L 1212.1947,-1196.8932"
       style="fill:white;fill-rule:nonzero;stroke:none"
       id="path20867" />
    <path
       d="M 2038.5284,-539.94528 L 2038.1431,-748.78798 L 2012.8761,-748.78798 L 2012.8761,-788.20751 L 2038.1431,-788.20751 L 2038.1431,-864.09904 L 2088.6772,-887.94882 L 2088.7225,-788.20751 L 2119.9494,-788.20751 L 2119.9494,-748.78798 L 2088.7225,-748.78798 L 2089.0851,-539.94528 L 2038.5284,-539.94528"
       style="fill:white;fill-rule:nonzero;stroke:none"
       id="path20869" />
    <path
       d="M 1943.3069,-979.54547 L 1884.8868,-979.54547 L 1884.8868,-997.61277 L 1883.7537,-997.61277 C 1870.8596,-982.94295 1867.2339,-978.173 1840.2899,-978.173 C 1818.8979,-978.173 1768.2506,-1003.3502 1768.5452,-1062.5021 L 1768.5905,-1268.2848 L 1827.0106,-1268.2848 L 1827.0106,-1068.3969 C 1827.0106,-1047.3147 1837.3214,-1034.2198 1855.6541,-1034.2198 C 1877.4313,-1034.2198 1884.8868,-1048.4622 1884.8868,-1074.0895 L 1884.8868,-1268.2848 L 1943.3069,-1268.2848 L 1943.3069,-979.54547"
       style="fill:white;fill-rule:nonzero;stroke:none"
       id="path20871" />
    <path
       d="M 1238.1416,-2770.0534 L 1342.5862,-2957.4765 L 1247.5686,-2957.4765 L 1247.5686,-3008.7309 L 1409.0283,-3008.7309 L 1409.0283,-2962.6064 L 1304.6063,-2778.6033 L 1409.0283,-2778.6258 L 1409.0283,-2720.014 L 1238.1416,-2719.9915 L 1238.1416,-2770.0534"
       style="fill:white;fill-rule:nonzero;stroke:none"
       id="path20873" />
    <path
       d="M 407.04907,-3012.1509 L 363.49461,-2972.9562 L 363.47195,-3027.6306 L 407.02641,-3065.3402 L 450.60353,-3065.3402 L 450.60353,-2765.9135 L 407.02641,-2765.9135 L 407.04907,-3012.1509"
       style="fill:white;fill-rule:nonzero;stroke:none"
       id="path20875" />
    <path
       d="M -85.4653,-2852.0425 L -172.18898,-2852.0425 L -172.18898,-2892.8122 L -125.00876,-3066.9827 L -78.870946,-3066.9827 L -128.61186,-2892.8122 L -85.4653,-2892.8122 L -85.4653,-2979.0087 L -41.888179,-3005.4459 L -41.888179,-2892.8122 L -20.949407,-2892.8122 L -20.949407,-2852.0425 L -41.888179,-2852.0425 L -41.888179,-2765.9135 L -85.4653,-2765.9135 L -85.4653,-2852.0425"
       style="fill:white;fill-rule:nonzero;stroke:none"
       id="path20877" />
    <path
       d="M 244.47899,-3068.2877 L 280.78193,-3068.2877 L 348.71965,-2765.9135 L 305.14252,-2765.9135 L 296.75795,-2808.8656 L 228.50298,-2808.8656 L 220.11841,-2765.9135 L 176.54129,-2765.9135 L 244.47899,-3068.2877 z M 262.83442,-2981.2361 L 261.99595,-2981.2361 L 236.20773,-2849.6351 L 288.64531,-2849.6351 L 262.83442,-2981.2361"
       style="fill:white;fill-rule:nonzero;stroke:none"
       id="path20879" />
    <path
       d="M -492.9329,-3068.2877 L -349.76064,-3068.2877 L -349.76064,-3027.5181 L -449.35578,-3027.5181 L -449.35578,-2947.5765 L -363.83314,-2947.5765 L -363.83314,-2906.8069 L -449.35578,-2906.8069 L -449.35578,-2809.2481 L -340.9002,-2809.2481 L -340.9002,-2765.9135 L -492.9329,-2765.9135 L -492.9329,-3068.2877"
       style="fill:white;fill-rule:nonzero;stroke:none"
       id="path20881" />
    <path
       d="M 639.64167,-1385.0136 L 727.29444,-1385.0136 C 759.38244,-1385.0136 782.85924,-1377.6111 802.91424,-1356.5513 C 822.96922,-1335.469 829.26898,-1309.8418 829.26898,-1261.4449 C 829.26898,-1226.1428 826.4137,-1194.3506 812.65847,-1172.1434 C 796.61447,-1145.9312 770.82624,-1130.0013 727.86097,-1130.0013 L 698.08441,-1130.0013 L 698.08441,-979.54547 L 639.64167,-979.54547 L 639.64167,-1385.0136 z M 698.08441,-1184.6532 L 726.1614,-1184.6532 C 773.70419,-1184.6532 774.27072,-1220.4503 774.27072,-1260.8824 C 774.27072,-1299.042 774.27072,-1330.3616 728.45016,-1330.3616 L 698.08441,-1330.3616 L 698.08441,-1184.6532"
       style="fill:white;fill-rule:nonzero;stroke:none"
       id="path20883" />
    <path
       d="M 874.31907,-539.94528 L 826.73096,-539.94528 L 788.04861,-767.62008 L 787.05153,-767.62008 L 748.89039,-539.94528 L 701.30227,-539.94528 L 638.46329,-890.80625 L 692.01127,-890.80625 L 727.56639,-668.08124 L 728.56346,-668.08124 L 768.22023,-890.80625 L 806.90257,-890.80625 L 848.03232,-662.65891 L 849.0294,-662.65891 L 883.61008,-890.80625 L 937.1354,-890.80625 L 874.31907,-539.94528"
       style="fill:white;fill-rule:nonzero;stroke:none"
       id="path20885" />
    <path
       d="M 1641.5982,-1561.5691 L 1721.7955,-1735.3347 L 1721.7502,-1735.4697 C 1725.0814,-1743.2322 1726.9169,-1751.8045 1726.9169,-1760.7819 C 1726.9169,-1796.4441 1697.8429,-1825.3563 1661.9704,-1825.3563 C 1626.0981,-1825.3563 1597.0013,-1796.4441 1597.0013,-1760.7819 L 1640.0119,-1760.7819 C 1640.0119,-1772.8419 1649.8468,-1782.6067 1661.9704,-1782.6067 C 1674.0941,-1782.6067 1683.929,-1772.8419 1683.929,-1760.7819 C 1683.929,-1760.7819 1685.8325,-1754.2795 1682.5692,-1745.8422 L 1597.9984,-1561.5691 L 1597.9984,-1518.2571 L 1729.6361,-1518.2571 L 1729.6361,-1561.5691 L 1641.5982,-1561.5691"
       style="fill:white;fill-rule:nonzero;stroke:none"
       id="path20887" />
    <path
       d="M 730.24038,-2898.797 C 682.67492,-2898.797 634.58827,-2931.6917 634.58827,-2997.751 L 634.58827,-3030.7581 C 634.58827,-3096.8174 685.00901,-3129.847 732.57447,-3129.847 C 780.11726,-3129.847 830.53802,-3096.8174 830.53802,-3030.7581 L 772.09526,-3030.7581 C 772.09526,-3058.6578 753.7625,-3071.7526 732.57447,-3071.7526 C 711.36376,-3071.7526 693.031,-3058.6578 693.031,-3030.7581 L 693.031,-2997.751 C 693.031,-2969.8513 709.02968,-2956.959 730.24038,-2956.959 L 733.73018,-2956.5314 C 781.27298,-2956.5314 829.94882,-2923.9067 829.94882,-2857.8475 L 829.94882,-2813.0281 C 829.94882,-2746.9688 779.52808,-2713.9391 731.98527,-2713.9391 C 684.41981,-2713.9391 634.02174,-2746.9688 634.02174,-2813.0281 L 692.44181,-2813.0281 C 692.44181,-2785.1058 710.77457,-2772.0109 731.98527,-2772.0109 C 753.17332,-2772.0109 771.50608,-2785.1058 771.50608,-2813.0281 L 771.50608,-2857.8475 C 771.50608,-2885.7473 753.17332,-2898.8421 731.98527,-2898.8421 L 730.24038,-2898.797"
       style="fill:white;fill-rule:nonzero;stroke:none"
       id="path20889" />
    <path
       d="M 1612.0257,-808.36735 C 1612.0257,-865.53912 1655.6708,-894.11376 1696.8004,-894.11376 C 1737.9528,-894.11376 1781.5752,-865.53912 1781.5752,-808.36735 L 1781.5752,-623.10433 C 1781.5752,-565.93235 1737.9528,-537.35769 1696.8004,-537.35769 C 1655.6708,-537.35769 1612.0257,-565.93235 1612.0257,-623.10433 L 1612.0257,-808.36735 z M 1662.605,-623.10433 C 1662.605,-598.93954 1678.4676,-587.62212 1696.8004,-587.62212 C 1715.1559,-587.62212 1731.0185,-598.93954 1731.0185,-623.10433 L 1731.0185,-808.36735 C 1731.0185,-832.53191 1715.1559,-843.84934 1696.8004,-843.84934 C 1678.4676,-843.84934 1662.605,-832.53191 1662.605,-808.36735 L 1662.605,-623.10433"
       style="fill:white;fill-rule:nonzero;stroke:none"
       id="path20891" />
    <path
       d="M 2290.0883,-1277.7122 L 2209.0072,-1277.7122 L 2209.0072,-1026.2099 L 2290.0883,-1026.2099 C 2335.0024,-1026.2099 2371.4187,-1062.4121 2371.4187,-1107.0515 L 2371.4187,-1196.8706 C 2371.4187,-1241.51 2335.0024,-1277.7122 2290.0883,-1277.7122 z M 2335.2743,-1107.0515 C 2335.2743,-1082.2343 2315.0381,-1062.142 2290.0883,-1062.142 L 2245.1515,-1062.142 L 2245.1515,-1241.7801 L 2290.0883,-1241.7801 C 2315.0381,-1241.7801 2335.2743,-1221.6654 2335.2743,-1196.8706 L 2335.2743,-1107.0515"
       style="fill:black;fill-rule:nonzero;stroke:none"
       id="path20893" />
    <path
       d="M 1183.8459,-287.99287 C 1152.5963,-287.99287 1127.2612,-262.8156 1127.2612,-231.74347 L 1127.2612,-141.72202 C 1127.2612,-110.67235 1152.5963,-85.472622 1183.8459,-85.472622 C 1215.0953,-85.472622 1240.4303,-110.67235 1240.4303,-141.72202 L 1240.4303,-231.74347 C 1240.4303,-262.8156 1215.0953,-287.99287 1183.8459,-287.99287 z M 1212.1494,-141.72202 L 1212.1494,-141.72202 C 1212.1494,-126.19719 1199.4819,-113.59721 1183.8459,-113.59721 C 1168.2097,-113.59721 1155.5423,-126.19719 1155.5423,-141.72202 L 1155.5423,-231.74347 C 1155.5423,-247.2683 1168.2097,-259.8683 1183.8459,-259.8683 C 1199.4819,-259.8683 1212.1494,-247.2683 1212.1494,-231.74347 L 1212.1494,-141.72202"
       style="fill:white;fill-rule:nonzero;stroke:none"
       id="path20895" />
    <path
       d="M 1420.608,-232.17107 C 1403.7028,-232.17107 1388.52,-224.7912 1378.164,-213.09135 C 1367.7852,-224.7912 1352.6249,-232.17107 1335.7199,-232.17107 C 1325.885,-232.17107 1316.0728,-228.43596 1307.4163,-222.29371 L 1307.4163,-229.35856 L 1279.1127,-229.35856 L 1279.1127,-88.712493 L 1307.4163,-88.712493 L 1307.4163,-175.92168 C 1307.4163,-191.4465 1320.0838,-204.04626 1335.7199,-204.04626 C 1351.3333,-204.04626 1364.0008,-191.4465 1364.0008,-175.92168 L 1364.0008,-88.712493 L 1392.3044,-88.712493 L 1392.3044,-175.92168 C 1392.3044,-191.4465 1404.9719,-204.04626 1420.608,-204.04626 C 1436.2214,-204.04626 1448.889,-191.4465 1448.889,-175.92168 L 1448.889,-88.712493 L 1477.1925,-88.712493 L 1477.1925,-175.92168 C 1477.1925,-206.97134 1451.8576,-232.17107 1420.608,-232.17107"
       style="fill:white;fill-rule:nonzero;stroke:none"
       id="path20897" />
    <path
       d="M 764.82108,-286.05803 L 733.68485,-253.47819 L 733.68485,-212.93384 L 764.82108,-245.33347 L 764.82108,-89.185028 L 793.10202,-89.185028 L 793.10202,-286.05803 L 764.82108,-286.05803"
       style="fill:white;fill-rule:nonzero;stroke:none"
       id="path20899" />
    <path
       d="M 912.18562,-1778.9618 L 912.18562,-1822.3188 L 715.80532,-1822.3188 L 715.80532,-1518.6846 L 912.18562,-1518.6846 L 912.18562,-1562.064 L 759.45043,-1562.064 L 759.45043,-1648.8231 L 890.36307,-1648.8231 L 890.36307,-1692.2027 L 759.45043,-1692.2027 L 759.45043,-1778.9618 L 912.18562,-1778.9618"
       style="fill:white;fill-rule:nonzero;stroke:none"
       id="path20901" />
    <path
       d="M 1154.0692,-1628.1009 C 1154.0692,-1676.0029 1115.0016,-1714.8599 1066.8017,-1714.8599 C 1050.8937,-1714.8599 1036.2546,-1710.5175 1023.1566,-1698.8852 L 1023.1566,-1779.9292 L 1145.3447,-1779.9292 L 1145.3447,-1823.2863 L 979.53414,-1823.2863 L 979.53414,-1649.7907 L 1023.1566,-1649.7907 C 1030.7254,-1662.728 1050.6671,-1671.4805 1066.8017,-1671.4805 C 1090.8903,-1671.4805 1110.4468,-1652.0631 1110.4468,-1628.1009 L 1110.4468,-1602.0687 C 1110.4468,-1578.1065 1090.8903,-1558.6891 1066.8017,-1558.6891 C 1044.2087,-1558.6891 1025.4,-1575.8565 1023.1566,-1597.7262 L 979.53414,-1597.7262 C 981.68694,-1551.7367 1019.9841,-1515.3096 1066.8017,-1515.3096 C 1115.0016,-1515.3096 1154.0692,-1554.1667 1154.0692,-1602.0687 L 1154.0692,-1628.1009"
       style="fill:white;fill-rule:nonzero;stroke:none"
       id="path20903" />
    <path
       d="M 1033.9205,-290.98536 C 1002.671,-290.98536 977.33602,-265.80809 977.33602,-234.73595 L 977.33602,-144.73697 C 977.33602,-113.66485 1002.671,-88.487576 1033.9205,-88.487576 C 1065.1701,-88.487576 1090.5052,-113.66485 1090.5052,-144.73697 L 1090.5052,-234.73595 C 1090.5052,-265.80809 1065.1701,-290.98536 1033.9205,-290.98536 z M 1062.2241,-144.73697 L 1062.2241,-144.73697 C 1062.2241,-129.21214 1049.534,-116.61239 1033.9205,-116.61239 C 1018.2843,-116.61239 1005.617,-129.21214 1005.617,-144.73697 L 1005.617,-234.73595 C 1005.617,-250.28326 1018.2843,-262.86077 1033.9205,-262.86077 C 1049.534,-262.86077 1062.2241,-250.28326 1062.2241,-234.73595 L 1062.2241,-144.73697"
       style="fill:white;fill-rule:nonzero;stroke:none"
       id="path20905" />
    <path
       d="M 890.38573,-290.98536 C 859.1362,-290.98536 833.80119,-265.80809 833.80119,-234.73595 L 833.80119,-144.73697 C 833.80119,-113.66485 859.1362,-88.487576 890.38573,-88.487576 C 921.63527,-88.487576 946.99294,-113.66485 946.99294,-144.73697 L 946.99294,-234.73595 C 946.99294,-265.80809 921.63527,-290.98536 890.38573,-290.98536 z M 918.68934,-144.73697 L 918.68934,-144.73697 C 918.68934,-129.21214 906.02183,-116.61239 890.38573,-116.61239 C 874.7723,-116.61239 862.10479,-129.21214 862.10479,-144.73697 L 862.10479,-234.73595 C 862.10479,-250.28326 874.7723,-262.86077 890.38573,-262.86077 C 906.02183,-262.86077 918.68934,-250.28326 918.68934,-234.73595 L 918.68934,-144.73697"
       style="fill:white;fill-rule:nonzero;stroke:none"
       id="path20907" />
    <path
       d="M 129.76534,-2727.8621 L 516.58309,-2727.8621 L 516.58309,-3116.2383 L 129.76534,-3116.2383 L 129.76534,-2727.8621 z M 1340.3375,-1482.5639 L 1923.3951,-1482.5639 L 1923.3951,-1870.94 L 1340.3375,-1870.94 L 1340.3375,-1482.5639 z "
       style="fill:none;stroke:white;stroke-width:15.80616379;stroke-linecap:butt;stroke-linejoin:miter;stroke-miterlimit:4"
       id="path20911" />
    <path
       d="M 172.82488,-904.08122 C 158.61643,-905.81362 145.677,-895.73382 143.9321,-881.60388 C 142.84437,-872.67159 146.4928,-864.25656 152.90586,-858.83423 L 227.25663,-789.10741 L -183.13425,-533.87021 L -183.13425,-2294.7911 L -84.218944,-2269.1414 C -76.196946,-2266.599 -67.06456,-2267.9939 -60.039647,-2273.6639 C -48.913091,-2282.6188 -47.190855,-2298.8636 -56.209936,-2309.9334 L -256.71454,-2629.9024 L -457.24182,-2309.911 C -466.23824,-2298.8411 -464.516,-2282.6188 -453.38945,-2273.6639 C -446.36453,-2267.9939 -437.25481,-2266.599 -429.21015,-2269.1414 L -330.3175,-2294.7911 L -330.3175,-41.6657 L -183.13425,-41.6657 L -183.13425,-361.29704 L 305.32381,-665.08875 L 335.8935,-568.1148 C 338.00099,-560.01501 344.0288,-553.06251 352.59466,-550.13765 C 366.1233,-545.50265 380.89826,-552.68008 385.54378,-566.13479 L 552.07952,-904.8463 L 172.82488,-904.08122"
       style="fill:white;fill-rule:nonzero;stroke:none"
       id="path20913" />
  </g>
</svg>
