<?xml version="1.0" encoding="utf-8"?>
<!-- Generator: Adobe Illustrator 15.0.2, SVG Export Plug-In . SVG Version: 6.00 Build 0)  -->
<!DOCTYPE svg PUBLIC "-//W3C//DTD SVG 1.1//EN" "http://www.w3.org/Graphics/SVG/1.1/DTD/svg11.dtd">
<svg version="1.1" id="Vrstva_1" xmlns="http://www.w3.org/2000/svg" xmlns:xlink="http://www.w3.org/1999/xlink" x="0px" y="0px"
	 width="2200px" height="460px" viewBox="0 0 2200 460" enable-background="new 0 0 2200 460" xml:space="preserve">
<g>
	<path fill-rule="evenodd" clip-rule="evenodd" fill="#009FE3" d="M58.646,2h2077.579c26.433,0,47.646,21.23,47.646,47.665v362.132
		c0,26.435-21.214,47.661-47.646,47.661H58.646C32.214,459.458,11,438.231,11,411.797V49.665C11,23.23,32.214,2,58.646,2"/>
	<path fill-rule="evenodd" clip-rule="evenodd" fill="#FFFFFF" d="M58.646,30.581h2077.579c10.674,0,19.049,8.409,19.049,19.084
		v362.132c0,10.675-8.375,19.064-19.049,19.064H58.646c-10.672,0-19.065-8.39-19.065-19.064V49.665
		C39.581,38.989,47.973,30.581,58.646,30.581"/>
	<polygon fill-rule="evenodd" clip-rule="evenodd" points="114.969,230.714 229.324,116.375 323.675,116.375 242.648,197.366 
		410.39,197.366 410.39,264.079 242.648,264.079 323.675,345.086 229.324,345.086 	"/>
	<path fill-rule="evenodd" clip-rule="evenodd" fill="#009FE3" d="M1499.814,154.186c3.138,0,6.83,0.286,10.84,0.572
		c3.726,0.585,8.576,1.978,14.283,4.262l7.4-21.397c-5.12-2.284-10.538-4.013-16.548-5.422c-5.991-1.459-12.536-1.981-19.702-1.981
		c-14.819,0-26.248,3.391-34.219,10.255c-8.291,7.118-12.303,17.136-12.303,30.26v13.712h-22.857v22.84h22.857v125.583h29.087
		V207.286h36.029v-22.84h-36.029v-13.124C1478.653,159.89,1485.816,154.186,1499.814,154.186 M1343.922,335.672
		c9.164,0,17.438-1.393,25.123-4.212c7.469-2.55,13.995-7.118,19.416-13.107c5.423-6.007,9.431-13.998,12.589-24.017
		c2.869-9.684,4.262-21.684,4.262-35.695c0-13.98-1.393-25.944-4.262-35.967c-3.158-9.664-7.166-17.655-12.589-23.662
		c-5.421-6.01-11.947-10.541-19.416-13.426c-7.686-2.55-15.959-4.013-25.123-4.013c-9.096,0-17.369,1.462-24.838,4.013
		c-7.687,2.885-13.981,7.416-19.42,13.426c-5.402,6.006-9.664,13.998-12.52,23.662c-3.154,10.022-4.548,21.986-4.548,35.967
		c0,13.427,1.394,24.854,4.548,34.588c2.855,9.668,7.117,17.655,12.52,23.948c5.438,6.312,11.733,10.843,19.42,13.997
		C1326.553,334.279,1334.826,335.672,1343.922,335.672z M1343.922,204.717c11.143,0,19.469,4.265,24.299,12.555
		c4.85,8.258,7.402,22.27,7.402,41.369c0,17.452-2.267,30.56-7.1,39.993c-4.884,9.397-13.174,13.995-24.602,13.995
		c-11.379,0-19.417-4.598-24.254-13.995c-4.83-9.434-7.398-22.541-7.398-39.993c0-19.1,2.568-33.111,7.398-41.369
		C1324.505,208.981,1332.845,204.717,1343.922,204.717z M1129.842,332.869h29.152v-97.306c0-5.438,1.125-10.034,3.09-13.997
		c2.031-4.009,4.311-7.45,7.465-10.019c2.855-2.566,6.228-4.262,9.953-5.704c3.743-1.127,7.167-1.712,10.558-1.712
		c9.464,0,16.042,1.995,20.307,6.023c4.01,4.265,5.99,11.698,5.99,22.542v100.173h29.1V231.25c0-16.564-3.674-29.083-11.428-37.374
		c-7.702-8.29-19.936-12.302-36.785-12.302c-7.47,0-14.587,1.462-21.165,4.548c-6.529,3.138-12.25,8.041-17.084,14.57v-67.617
		h-29.152V332.869z M1056.501,332.869h29.086V231.25c0-16.564-3.677-29.083-11.428-37.374c-7.689-8.29-19.922-12.302-36.789-12.302
		c-7.988,0-15.727,1.696-22.856,5.136c-7.403,3.726-13.696,9.164-18.497,16.278l-3.993-18.542H970.04v148.423h29.1v-97.306
		c0-5.438,1.091-10.034,3.088-13.997c2.031-4.009,4.314-7.45,7.453-10.019c2.869-2.566,6.243-4.262,9.966-5.704
		c3.746-1.127,7.167-1.712,10.558-1.712c9.164,0,15.743,1.995,20.005,6.023c4.298,4.265,6.292,11.698,6.292,22.542V332.869z
		 M810.168,332.869h29.152v-97.306c0-5.438,1.107-10.034,3.105-13.997c2.03-4.009,4.294-7.45,7.433-10.019
		c2.872-2.566,6.263-4.262,9.986-5.704c3.726-1.127,7.167-1.712,10.558-1.712c9.431,0,16.009,1.995,20.274,6.023
		c4.028,4.265,6.022,11.698,6.022,22.542v100.173h29.083V231.25c0-16.564-3.673-29.083-11.428-37.374
		c-7.686-8.29-19.936-12.302-36.786-12.302c-7.469,0-14.567,1.462-21.165,4.548c-6.545,3.138-12.25,8.041-17.083,14.57v-67.617
		h-29.152V332.869z M705.345,205.541c10.607,0,18.309,1.443,23.731,4.614c5.135,3.138,7.702,9.969,7.702,20.224v11.429h-21.68
		c-21.986,0-37.965,3.727-48.572,11.429c-10.554,7.701-15.69,19.686-15.69,35.682c0,8.271,1.173,15.437,3.743,21.447
		c2.284,5.956,5.724,10.839,9.986,14.517c4.278,3.726,9.716,6.578,15.71,8.24c5.974,1.745,12.552,2.55,19.669,2.55
		c10.889,0,19.416-1.981,25.708-6.193c5.994-4.312,10.844-9.145,14.566-15.154l3.727,18.545h21.985V228.7
		c0-15.122-4.314-26.836-12.887-35.11c-8.846-8.004-23.666-12.017-44.544-12.017c-9.381,0-17.957,0.875-26.231,2.57
		c-8.273,1.978-15.742,4.025-22.268,6.006l6.828,21.97c7.167-1.965,13.981-3.726,20.862-4.834
		C694.219,206.126,700.225,205.541,705.345,205.541z M706.219,312.629c-9.667,0-16.245-2.264-19.972-6.882
		c-3.677-4.244-5.724-10.537-5.724-18.541c0-8.561,2.603-15.139,7.755-19.403c4.833-4.263,13.394-6.293,25.357-6.293h23.142v24.25
		c0,2.618-0.568,5.471-1.393,8.576c-1.174,3.154-2.869,6.295-5.153,8.862c-2.615,2.549-5.704,4.833-9.43,6.578
		C716.773,311.757,711.94,312.629,706.219,312.629z M622.271,274.633c0-9.683-1.41-17.671-4.262-23.681
		c-2.835-6.007-6.276-10.555-10.542-14.28c-4.311-3.44-8.56-6.007-13.173-7.417c-4.262-1.445-7.4-2.267-9.684-3.141
		c1.998-0.854,4.85-2.264,8.576-4.547c3.726-2.031,6.812-4.883,9.969-8.557c3.155-3.443,5.721-7.705,7.686-12.604
		c2.047-4.833,2.868-10.557,2.868-16.833c0-9.684-1.692-17.672-4.833-24.25c-3.155-6.595-7.703-11.73-13.141-15.693
		c-5.402-3.727-11.984-6.578-19.686-8.29c-7.703-1.443-15.69-2.264-24.536-2.264h-54.542v199.795h59.359
		c8.878,0,17.152-0.821,25.124-2.55c8.004-1.409,15.171-4.567,21.128-8.828c5.99-4.314,10.607-10.306,14.284-18.008
		C620.592,296.08,622.271,286.348,622.271,274.633z M590.92,275.222c0,7.167-1.173,13.156-3.155,17.419
		c-1.998,4.265-4.597,7.705-7.702,9.969c-3.138,2.569-6.864,4.028-10.59,4.903c-3.693,0.821-7.417,1.106-10.856,1.106h-30.848
		v-68.793h30.848c4.597,0,8.859,0.571,12.887,1.442c3.959,1.127,7.399,3.089,10.255,5.675c2.853,2.619,5.136,6.293,6.865,10.873
		C590.033,262.384,590.92,268.104,590.92,275.222z M583.455,185.586c0,6.847-0.825,12.266-2.856,16.278
		c-1.998,4.262-4.262,7.117-7.114,9.096c-2.872,2.05-5.724,3.46-8.862,4.012c-3.138,0.588-6.006,0.891-8.576,0.891h-28.278v-59.126
		h27.171c9.397,0,16.564,1.998,21.397,6.313C581.171,167.293,583.455,174.743,583.455,185.586z"/>
	<path fill-rule="evenodd" clip-rule="evenodd" fill="#009FE3" d="M1977.412,225.881c1.997,3.894,3.844,7.501,6.26,11.648
		c0,2.718,0.587,19.984-1.864,17.083c-1.929-2.165-3.289-3.759-4.396-5.086c-2.787-3.355-3.56-4.817-6.211-9.614
		c-0.151-7.15-0.099-18.779,0.588-25.141C1973.972,219.135,1975.749,222.625,1977.412,225.881 M2012.672,254.311
		c1.794,0.519,3.625,1.074,5.419,1.528c1.662,0.452,1.446,2.145,1.446,3.489c0,2.014,0.033,5.639,0.033,7.048
		c0,1.242-0.136,2.268-2.166,2.116c-1.644-0.103-3.24-0.335-4.732-0.589c-1.593-0.318-3.154-0.653-4.715-0.972
		c-2.031-0.69-1.998-0.654-2.066-2.452c-0.185-3.255,0.068-7.754,0.068-9.9c0-2.267,0.773-1.964,2.869-1.462
		C2009.952,253.489,2011.295,253.922,2012.672,254.311z M2031.386,257.363c1.777,0.338,3.236,0.588,4.646,0.824
		c2.25,0.353,2.5,0.233,2.418,3.592c0,1.695,0,2.182-0.065,6.092c0.033,1.627-0.624,2.015-2.418,1.863
		c-1.863-0.236-3.105-0.335-4.581-0.522c-1.312-0.131-2.754-0.368-4.936-0.621c-1.745-0.233-1.527-0.854-1.929-1.995
		c-0.102-3.742-0.102-5.907-0.102-7.501c-0.168-1.981,0.421-2.921,2.938-2.369C2028.918,257.011,2030.226,257.231,2031.386,257.363z
		 M1995.418,245.518c0.086,0.033,0.151,0.082,0.237,0.082c0.938,0.453,2.917,1.593,4.498,2.35c1.038,0.47,1.728,0.723,2.316,1.829
		c-0.135,2.938,0.25,8.341-0.371,12.889c-0.218,1.024-1.66,1.024-3.155,0.739c-1.008-0.304-2.25-0.739-3.525-1.275
		c-1.944-0.874-3.91-1.929-4.899-2.635c-1.695-1.075-1.997-1.831-2.1-3.004c0-2.701,0.103-4.581,0.103-7.636
		c0-3.057-0.151-5.018,0.032-6.547c0.204-1.527,1.43-0.686,1.863-0.384C1992.097,243.115,1994.077,244.762,1995.418,245.518z
		 M1901.521,133.09c8.024,0,14.55,6.611,14.55,14.567c0,7.988-6.525,14.566-14.55,14.566c0,0,0,0-0.033,0
		c-7.987,0-14.565-6.578-14.565-14.566c0-7.988,6.578-14.6,14.565-14.6C1901.521,133.058,1901.521,133.09,1901.521,133.09z
		 M1866.059,259.982c-8.928,0-16.261-7.266-16.261-16.263c0-8.928,7.333-16.311,16.261-16.311c8.944,0,16.263,7.383,16.263,16.311
		C1882.321,252.717,1875.003,259.982,1866.059,259.982z M1936.598,259.982c-8.948,0-16.281-7.266-16.281-16.263
		c0-8.928,7.333-16.311,16.281-16.311c8.944,0,16.262,7.383,16.262,16.311C1952.859,252.717,1945.542,259.982,1936.598,259.982z
		 M1900.916,203.074h-35.461h-14.416v-32.896h14.416h35.461h34.726h14.75v32.896h-14.75H1900.916z M1995.287,300.579
		c5.618-0.52,11.175-0.72,17.822-0.72c4.531,0,9.615,0.065,15.608,0.2h2.5h16.696l-0.115-5.001l-5.153-0.049l0.116-7.085
		c0.992-0.438,2.218-1.074,2.753-1.928l-0.032-27.221c0-4.197-3.306-3.526-5.807-3.947c-2.165-0.367-5.152-0.87-8.458-1.56
		c-5.842-1.276-12.788-3.021-18.108-5.067c-0.27-0.135-0.521-0.22-0.723-0.352c-7.167-2.905-12.688-5.994-17.1-9.332
		c-8.711-6.647-13.259-14.317-17.623-24c-0.318-0.755-0.689-1.594-1.008-2.415c-6.947-15.845-10.305-37.459-16.732-52.582
		c-1.68-4.077-10.455-7.248-19.064-10.153c-1.528-0.454-3.004-1.005-4.465-1.442c-6.828-2.215-12.385-3.812-12.737-4.547
		c-0.805-1.896-2.668-10.86-11.714-15.29c-3.91-1.896-7.216-2.721-10.223-2.685c-3.926,0-7.433,1.374-11.411,3.556
		c-6.999,3.877-9.28,13.41-10.403,14.5c-0.621,0.654-7.367,2.938-13.646,5.001c-4.798,1.561-9.295,2.987-10.571,3.326
		c-12.485,3.322-15.86,11.914-15.86,18.996c0,29.287,0,59.327,0,88.998c0,7.687-0.654,10.271,1.074,13.696
		c0.891,1.409,12.318,5.704,13.544,7.182c2.448,3.675,3.557,6.865,7.266,17.019c-8.575,2.632-13.038,3.976-20.724,7.501
		c-7.689,3.523-13.831,7.687-19.27,12.066c-0.384,3.489-0.302,17.271-0.302,19.448l19.453-0.147
		c6.292-7.57,10.12-11.917,20.404-17.773c1.63-0.906,3.257-1.764,4.985-2.651c10.708-5.304,24.082-9.618,35.461-11.767
		c1.41-0.249,2.872-0.52,4.213-0.687c13.847-2.015,21.451-3.641,28.598-1.982c-1.071,0.557-9.112,4.365-14.163,8.091
		c-5.001,3.692-10.844,10.824-10.844,11.044v15.388c7.873,0,15.793,0,23.731,0c0.992-2.316,2.05-4.229,3.139-5.99
		c2.937-4.768,6.092-7.62,9.065-10.959c1.021-1.106,8.707-6.781,11.543-8.225c5.356-2.937,12.572-5.671,20.661-7.619
		c3.389-0.772,6.898-1.491,10.539-1.962C1990.621,301.117,1993.004,300.799,1995.287,300.579z M1797.821,366.402h263.017V103.166
		h-263.017V366.402z M1786.695,377.528h285.872V91.419h-285.872V377.528z"/>
</g>
</svg>
