<?xml version="1.0" encoding="UTF-8" standalone="no"?>
<!-- Created with Inkscape (http://www.inkscape.org/) -->
<svg
   xmlns:svg="http://www.w3.org/2000/svg"
   xmlns="http://www.w3.org/2000/svg"
   version="1.0"
   width="1200"
   height="600"
   id="svg29429">
  <defs
     id="defs29431" />
  <g
     transform="translate(-285.486,35.13882)"
     id="layer1">
    <path
       d="M 1458.4872,564.86118 C 1465.6949,564.86118 1472.4749,562.0734 1477.5807,557.00555 C 1482.6773,551.93771 1485.486,545.19904 1485.486,538.03574 L 1485.486,-8.3133792 C 1485.486,-15.476677 1482.6773,-22.215345 1477.5807,-27.283194 C 1472.4749,-32.351042 1465.6949,-35.13882 1458.4872,-35.13882 L 312.48479,-35.13882 C 297.595,-35.13882 285.486,-23.101527 285.486,-8.3133792 L 285.486,538.03574 C 285.486,545.19904 288.29469,551.93771 293.39126,557.00555 C 298.49713,562.0734 305.27705,564.86118 312.48479,564.86118 L 1458.4872,564.86118"
       style="fill:black;fill-rule:nonzero;stroke:none"
       id="path28893" />
    <path
       d="M 312.48479,559.32255 C 306.7651,559.32255 301.38022,557.1071 297.33459,553.09159 C 293.29826,549.06685 291.06618,543.72207 291.06618,538.03574 L 291.06618,-8.3133792 C 291.06618,-13.999708 293.29826,-19.344488 297.33459,-23.359996 C 301.38022,-27.384735 306.7651,-29.600188 312.48479,-29.600188 L 1458.4872,-29.600188 C 1464.2069,-29.600188 1469.5918,-27.384735 1473.6374,-23.359996 C 1477.683,-19.344488 1479.9058,-13.999708 1479.9058,-8.3133792 L 1479.9058,538.03574 C 1479.9058,549.77764 1470.2986,559.32255 1458.4872,559.32255 L 312.48479,559.32255 z "
       style="fill:white;fill-rule:nonzero;stroke:none"
       id="path29453" />
    <path
       d="M 1205.0259,499.43147 C 1335.6488,499.43147 1441.542,394.19747 1441.542,264.3904 C 1441.542,134.58333 1335.6488,29.349318 1205.0259,29.349318 C 1074.3938,29.349318 968.50054,134.58333 968.50054,264.3904 C 968.50054,394.19747 1074.3938,499.43147 1205.0259,499.43147"
       style="fill:#176fc1;fill-rule:nonzero;stroke:none"
       id="path28869" />
    <path
       d="M 1308.3617,368.47052 C 1323.5119,368.47052 1335.7976,356.25784 1335.7976,341.20199 C 1335.7976,326.13691 1323.5119,313.93346 1308.3617,313.93346 C 1293.2022,313.93346 1280.9164,326.13691 1280.9164,341.20199 C 1280.9164,356.25784 1293.2022,368.47052 1308.3617,368.47052"
       style="fill:white;fill-rule:nonzero;stroke:none"
       id="path28871" />
    <path
       d="M 1102.9923,369.31978 C 1118.1425,369.31978 1130.4282,357.11633 1130.4282,342.05125 C 1130.4282,326.9954 1118.1425,314.78272 1102.9923,314.78272 C 1087.8328,314.78272 1075.5471,326.9954 1075.5471,342.05125 C 1075.5471,357.11633 1087.8328,369.31978 1102.9923,369.31978"
       style="fill:white;fill-rule:nonzero;stroke:none"
       id="path28873" />
    <path
       d="M 1398.556,323.77376 C 1401.2066,321.29061 1402.8714,317.78281 1402.8714,313.87807 L 1402.8714,280.57243 C 1402.8714,273.03066 1400.7323,259.26716 1400.0441,259.13793 L 1374.9798,173.65837 C 1379.1184,172.85527 1382.2526,169.22747 1382.2526,164.87041 C 1382.2526,159.91334 1378.2163,155.89783 1373.2313,155.89783 L 1021.3635,155.89783 C 1020.5823,155.89783 1019.8289,156.02706 1019.1128,156.22091 C 1016.4157,156.59016 1010.5193,157.82712 1006.5388,161.66724 C 1001.219,166.79047 998.33592,177.72004 998.33592,177.72004 L 998.33592,305.29319 L 998.15922,305.44089 C 998.15922,305.44089 997.5175,313.7673 1001.0609,318.25359 C 1002.8094,320.45981 1005.7297,322.43526 1008.2501,323.8753 C 1004.1207,324.7061 1001.0237,328.32467 1001.0237,332.66327 C 1001.0237,337.61111 1005.06,341.62662 1010.045,341.62662 L 1068.9904,341.62662 C 1069.2229,323.15528 1084.3452,308.2379 1102.9923,308.2379 C 1121.6394,308.2379 1136.7617,323.15528 1136.9942,341.62662 L 1274.3504,341.62662 C 1274.3504,341.47892 1274.3318,341.34046 1274.3318,341.20199 C 1274.3318,322.52757 1289.5657,307.38864 1308.3617,307.38864 C 1327.1483,307.38864 1342.3822,322.52757 1342.3822,341.20199 C 1342.3822,341.34046 1342.3636,341.47892 1342.3636,341.62662 L 1397.719,341.62662 C 1402.704,341.62662 1406.7403,337.61111 1406.7403,332.66327 C 1406.7403,327.99235 1403.1411,324.19839 1398.556,323.77376 z M 1061.3176,237.87881 L 1011.2261,237.87881 L 1011.2261,184.31101 C 1011.3192,182.93558 1012.2678,173.83376 1021.3635,173.83376 L 1061.3176,173.83376 L 1061.3176,237.87881 z M 1074.2078,173.83376 L 1123.1832,173.83376 L 1123.1832,237.87881 L 1074.2078,237.87881 L 1074.2078,173.83376 z M 1136.0735,173.83376 L 1187.6251,173.83376 L 1187.6251,237.87881 L 1136.0735,237.87881 L 1136.0735,173.83376 z M 1200.5153,173.83376 L 1250.9509,173.83376 L 1250.9509,237.87881 L 1200.5153,237.87881 L 1200.5153,173.83376 z M 1263.8504,173.83376 L 1313.9418,173.83376 L 1313.9418,237.87881 L 1263.8504,237.87881 L 1263.8504,173.83376 z M 1326.8321,237.87881 L 1326.8321,173.83376 L 1361.6059,173.83376 L 1380.3832,237.87881 L 1326.8321,237.87881"
       style="fill:white;fill-rule:nonzero;stroke:none"
       id="path28875" />
    <path
       d="M 385.24109,68.415136 L 416.22971,68.415136 L 416.22971,-10.122666 L 385.24109,-10.122666 L 385.24109,68.415136 z "
       style="fill:black;fill-rule:nonzero;stroke:none"
       id="path28877" />
    <path
       d="M 385.24109,225.49074 L 416.22971,225.49074 L 416.22971,146.95294 L 385.24109,146.95294 L 385.24109,225.49074 z "
       style="fill:black;fill-rule:nonzero;stroke:none"
       id="path28879" />
    <path
       d="M 385.24109,382.55711 L 416.22971,382.55711 L 416.22971,304.01931 L 385.24109,304.01931 L 385.24109,382.55711 z "
       style="fill:black;fill-rule:nonzero;stroke:none"
       id="path28881" />
    <path
       d="M 385.24109,539.63271 L 416.22971,539.63271 L 416.22971,461.09491 L 385.24109,461.09491 L 385.24109,539.63271 z "
       style="fill:black;fill-rule:nonzero;stroke:none"
       id="path28883" />
    <path
       d="M 886.57414,68.415136 L 917.56276,68.415136 L 917.56276,-10.122666 L 886.57414,-10.122666 L 886.57414,68.415136 z "
       style="fill:black;fill-rule:nonzero;stroke:none"
       id="path28885" />
    <path
       d="M 886.57414,225.49074 L 917.56276,225.49074 L 917.56276,146.95294 L 886.57414,146.95294 L 886.57414,225.49074 z "
       style="fill:black;fill-rule:nonzero;stroke:none"
       id="path28887" />
    <path
       d="M 886.57414,382.55711 L 917.56276,382.55711 L 917.56276,304.01931 L 886.57414,304.01931 L 886.57414,382.55711 z "
       style="fill:black;fill-rule:nonzero;stroke:none"
       id="path28889" />
    <path
       d="M 886.57414,539.63271 L 917.56276,539.63271 L 917.56276,461.09491 L 886.57414,461.09491 L 886.57414,539.63271 z "
       style="fill:black;fill-rule:nonzero;stroke:none"
       id="path28891" />
    <path
       d="M 609.35059,502.62542 L 609.35059,191.82509 L 569.47087,203.3916 L 569.46157,203.37313 C 567.84332,203.90854 566.14136,204.26855 564.3371,204.26855 C 555.34371,204.26855 548.06156,197.0314 548.06156,188.09574 C 548.06156,183.85869 549.72632,180.04626 552.40481,177.16617 L 652.78302,28.786224 L 753.16123,177.16617 C 755.83972,180.04626 757.50448,183.85869 757.50448,188.09574 C 757.50448,197.0314 750.22234,204.26855 741.22894,204.26855 C 739.42468,204.26855 737.72272,203.90854 736.10447,203.37313 L 736.09517,203.3916 L 696.21545,191.82509 L 696.21545,502.62542 L 609.35059,502.62542"
       style="fill:black;fill-rule:nonzero;stroke:none"
       id="path28895" />
  </g>
</svg>
