<svg width="472" height="632" xml:space="preserve" xmlns="http://www.w3.org/2000/svg"><path fill-rule="evenodd" clip-rule="evenodd" fill="#009fe3" d="M0 614.97C0 623.274 6.768 630 15.116 630h439.787c8.33 0 15.097-6.726 15.097-15.03V15.043C470 6.761 463.232 0 454.903 0H15.116C6.768 0 0 6.76 0 15.043Z" style="stroke-width:.528155" transform="translate(1 1)"/><path fill-rule="evenodd" clip-rule="evenodd" fill="#fff" style="stroke-width:.529557" d="M72.006 151.675h326.673v326.651H72.006Z" transform="translate(1 1)"/><path d="M267.187 223.73c-3.894-1.932-5.628-1.742-8.27-1.897-.836.07-1.784-.14-2.684-.425-.777-.046-1.832-.751-2.634-1.382-1.023-.408-1.744-2.528-1.744-2.528-.98-2.846-1.8-6.405-1.964-9.03-4.188-.82 1.595-5.858 1.595-5.858.418-.703.851-1.644 1.243-3.436 1.327-6.005-3.345-28.018 27.283-22.014 5.914 1.153 9.636 4.892 13.26 6.046 10.553 3.362 14.66-12.312 21.417 32.288.916 3.362-2.912 2.291-2.912 2.291-20.043-2.552-1.913-22.897-14.169-29-2.389 5.743.162 8.819-3.6 17.367-2.06 4.688-5.963 8.934-7.542 12.975 0 0-.07.093.022.186 3.885 5.333 4 2.527 9.407 5.816 4.23 2.569 4.238 5.04 8.467 8.009.116-.163.232-.302.337-.45 0 0 1.071-2.046 2.103-4.025 0 0 4.622-10.234 7.894-1.816l1.007 6.046a53.97 53.97 0 0 0-.022 1.773c15.51 7.584 12.402 24.976 14.381 40.65 9.286 8.377 7.453 13.269 7.371 26.006-3.567 4.14-3.935 2.029-6.086 5.915-2.839 5.129 1.071 13.907-25.818 15.174-.728-.185-.99.467-.99.467-14.562 27.208 10.438 70.778 25.891 85.143 6.062 5.628 10.226 10.07 12.91 13.629 11.321 13.465-5.784 16.287-5.784 16.287-2.227.548-5.04 1.965-7.453 3.346 0 0-5.293 3.583-5.792 3.722-.092.022-.162.047-.237.047h52.585v8.819H93.93v-8.82h44.887a10.63 10.63 0 0 1-5.497-1.504c-2.356-1.635-1.948-3.428-1.227-4.63 0 0 1.064-1.612 2.495-1.719 7.444-1.848 14.324-2.119 18.938-7.542 6.43-13.114-12.32-38.751 1.596-82.174l-6.529-4.164c1.065-12.353 3.256-23.822 1.178-36.068-3.648.721-19.216 17.588-31.241 24.877l-4.573 2.495c-.186.07-.369.14-.557.186-1.424.744-3.984-.022-3.984-.022a2.449 2.449 0 0 1-.417-.116c-5.44-3.337.867-8.663.867-8.663.974-.637 2.896-1.88 2.896-1.88 10.275-6.897 28.583-19.895 35.782-45.975 3.379-12.238 7.158-10.758 15.486-16.713l-2.601-.408h-.093c-3.739.07-6.11-2.839-6.11-2.839-1.538-4.303-2.488-7.002-3.044-8.696-3.395-2.52.232-4.098.232-4.098.046-.735 0-1.971-.285-4.041-.875-6.332-5.318-23.79 19.576-24.55 10.84-.328 19.003 5.75 19.552 17.023.776 16.214-12.091 16.631-7.813 26.66 4.377 1.58 4.851 1.719 5.227 1.318 0 0 6.831-11.952 8.803 1.987 0 0-.14 1.874.974 2.243 0 0 9.514-.664 10.643-.615 9.367-.54 17.743 1.398 17.13 26.12-.262 10.644-10.979 33.402-18.284 40.789-10.005 1.382-7.231-1.203-14.954-2.88 2.152 9.18 4.712 20.69 2.88 30.26-1.758 9.154-7.927 17.204-10.079 25.802 13.768 8.05 12.173 6.56 22.955 18.3 13.31 14.48 12.72 8.95 22.554 14.627 0 0 3.763 1.825 2.233 6.258-.884 4.368-3.223 4.712-5.17 11.305l3.566-.802s4.794-.89 5.882-1.3c.531-.233 1.12-.761 1.243-1.972l3.231-15.306c.868-4.777 1.735-9.53 2.995-14.062 3.96-14.25 9.047-14.275 8.008-29.262-1.611-23.29 21.36-37.426 5.931-56.83-3.902-1.146-21.302.424-21.302.424l-2.79-44.544 20.926-1.84-.491-4.361c3.272-40.38-.482-21.736 11.657-42.277.022-.047.022-.093.022-.093zm53.615 207.173s.858-.295-.77-3.256c-5.358-9.179-14.299-10.455-20.23-20.075-6.094-9.882-11.747-18.93-17.54-28.968-4.858 4.156-5.578 8.042-8.114 14.627-3.829 9.931-11.895 31.414-13.596 44.609-.304 1.841 1.398 6.454-4.107 7.215h54.253c-3.64-.278-3.582-1.758-2.985-2.871.278-.997 2.88-2.373 2.88-2.373.572-.31 1.258-.686 2.086-1.136 4.892-2.642 5.023-3.534 8.124-7.772m-110.896 14.153c-2.618-.246-1.243-2.372-1.243-2.372 9.833-14.84 1.178-18.816-10.39-26.743-6.536-4.475-23.24-19.527-29.204-19.134-.344 9.571 1.808 11.64-.27 23.593-1.76 10.135-1.74 12.974.557 20.672 0 0 2.275 3.501-1.006 3.984" style="fill:#000;fill-opacity:1;fill-rule:evenodd;stroke:none;stroke-width:8.1806" transform="translate(1 1)"/><path style="fill:#fff;fill-opacity:1;fill-rule:evenodd;stroke:none;stroke-width:8.16565" d="M365.499 572.13c0 2.082-.294 3.853-.875 5.315-.588 1.46-1.372 2.646-2.368 3.544-.988.907-2.164 1.56-3.511 1.951a15.336 15.336 0 0 1-4.303.588 17.81 17.81 0 0 1-4.083-.49c-1.396-.32-2.605-.734-3.626-1.25l2.058-5.071c.866.326 1.683.562 2.442.726.768.162 1.631.246 2.596.246 1.324 0 2.327-.417 3.013-1.25.686-.833 1.028-2.18 1.028-4.034 0-1.208-.277-2.229-.84-3.062a11.05 11.05 0 0 0-2.058-2.294 30.606 30.606 0 0 0-2.67-2.016 19.124 19.124 0 0 1-2.67-2.155 11.022 11.022 0 0 1-2.058-2.743c-.562-1.037-.84-2.303-.84-3.79 0-1.476.391-2.694 1.183-3.65a28.155 28.155 0 0 1 2.555-2.677 27.189 27.189 0 0 0 2.556-2.67c.785-.957 1.185-2.172 1.185-3.65 0-1.487-.358-2.736-1.069-3.757-.71-1.02-1.91-1.528-3.585-1.528-.562 0-1.143.07-1.756.209-.614.139-1.167.449-1.683.94-.507.49-.915 1.208-1.218 2.155-.303.946-.458 2.238-.458 3.862v37.464h-7.472v-37.676c0-2.271.327-4.214.989-5.839.662-1.625 1.55-2.956 2.67-4a10.09 10.09 0 0 1 3.928-2.262c1.502-.459 3.11-.695 4.842-.695 3.813 0 6.688.996 8.623 2.989 1.928 2 2.899 4.597 2.899 7.79 0 1.993-.375 3.56-1.111 4.695-.734 1.134-1.535 2.1-2.401 2.883a53.932 53.932 0 0 0-2.4 2.327c-.744.768-1.112 1.77-1.112 3.03 0 .784.294 1.492.882 2.115.579.63 1.29 1.257 2.132 1.877.84.63 1.77 1.29 2.784 1.984a16.273 16.273 0 0 1 2.785 2.4c.84.899 1.55 1.952 2.139 3.16.58 1.209.875 2.638.875 4.312m-51.023-25.943c-1.984 0-4.011.202-6.069.619-2.057.416-3.82.907-5.299 1.462l1.913 5.284c1.722-.556 3.34-.944 4.841-1.176 1.495-.236 2.784-.352 3.846-.352v-.002c1.02 0 1.91.07 2.67.21.766.145 1.403.423 1.91.84.507.416.89 1.03 1.143 1.837.245.808.385 1.892.385 3.233v2.71h-4.043c-4.932 0-8.558.89-10.868 2.68-2.32 1.78-3.47 4.71-3.47 8.793 0 2.18.261 3.987.8 5.424.53 1.437 1.282 2.602 2.245 3.51.971.907 2.115 1.534 3.437 1.902 1.315.377 2.744.563 4.272.563 2.335 0 4.182-.466 5.529-1.39 1.348-.93 2.375-2.063 3.086-3.403l1.299 4.1h5.11v-25.307c0-3.936-.939-6.852-2.825-8.729-1.878-1.87-5.184-2.809-9.912-2.809zm.988 19.466h4.353v5.56c0 .695-.11 1.447-.341 2.255a7.051 7.051 0 0 1-1.07 2.23c-.484.67-1.136 1.24-1.944 1.697-.817.466-1.806.704-2.973.704-1.632 0-2.775-.515-3.437-1.536-.662-1.02-.988-2.57-.988-4.654 0-2.23.489-3.824 1.484-4.803.988-.972 2.63-1.453 4.916-1.453zm-23.793-12.937c-2.083 0-3.56.924-4.426 2.776-.865 1.854-1.298 4.222-1.298 7.096v20.439h-7.472v-36.15h5.186l1.224 5.627c.71-1.757 1.69-3.258 2.931-4.483 1.25-1.225 2.964-1.845 5.153-1.845 1.011 0 1.854.092 2.515.245.662.162 1.372.359 2.139.597l-1.61 6.598c-.913-.368-1.721-.611-2.44-.727a11.881 11.881 0 0 0-1.903-.162m-35.773-.296H250.4l.695-5.56h4.8v-7.652h7.473v7.651h8.239v5.561h-8.24v21.272c0 1.347.262 2.392.77 3.127.506.743 1.372 1.118 2.588 1.118.662 0 1.314-.046 1.95-.185.63-.116 1.38-.336 2.246-.662l1.91 5.005a23.033 23.033 0 0 1-3.781 1.176c-1.24.285-2.531.424-3.846.424-3.258 0-5.626-.914-7.096-2.744-1.479-1.828-2.213-4.156-2.213-6.99zm-22.961 31.284c-2.589 0-4.818-.285-6.672-.866-1.854-.578-3.29-1.176-4.31-1.77l2.44-5.218c1.626.791 3.087 1.305 4.386 1.567 1.298.252 2.53.384 3.699.384 1.682 0 3.013-.384 4.009-1.15.988-.77 1.486-1.961 1.486-3.577 0-.882-.185-1.641-.54-2.261a5.588 5.588 0 0 0-1.444-1.667c-.613-.49-1.305-.93-2.1-1.324-.79-.391-1.617-.8-2.482-1.217a64.575 64.575 0 0 1-3.045-1.496 11.968 11.968 0 0 1-2.785-2.016 9.757 9.757 0 0 1-2.058-2.89c-.539-1.111-.8-2.45-.8-4.026 0-1.951.374-3.56 1.143-4.834.76-1.273 1.722-2.294 2.899-3.062a12.01 12.01 0 0 1 3.846-1.632c1.405-.32 2.735-.482 4.01-.482 2.743 0 5.005.32 6.785.973 1.78.645 3.127 1.273 4.042 1.877l-2.515 5.21c-1.625-.834-3.079-1.422-4.344-1.771a14.67 14.67 0 0 0-3.822-.523c-1.315 0-2.409.375-3.274 1.118-.866.736-1.299 1.715-1.299 2.915 0 1.208.588 2.187 1.757 2.956 1.166.768 2.564 1.518 4.197 2.261a91.201 91.201 0 0 1 3.315 1.667 14.57 14.57 0 0 1 3.128 2.22 10.72 10.72 0 0 1 2.287 3.094c.587 1.183.881 2.63.881 4.353 0 1.993-.375 3.69-1.11 5.103-.737 1.412-1.7 2.572-2.9 3.479-1.192.907-2.563 1.56-4.115 1.967-1.55.424-3.12.637-4.695.637m-14.339-1.233a25.8 25.8 0 0 1-2.817.646c-.924.162-1.838.252-2.752.252-2.032 0-3.772-.62-5.226-1.877-1.444-1.25-2.171-3.356-2.171-6.32v-40.812h7.48v40.248c0 1.118.138 1.861.458 2.23.303.368.785.555 1.444.555.769 0 1.48-.092 2.139-.278zm-40.575-35.61v24.399c0 2.646.342 4.466 1.028 5.463.685.995 1.763 1.495 3.242 1.495 1.722 0 3.176-.597 4.343-1.773 1.167-1.185 1.757-3.168 1.757-5.945v-23.639h7.472v36.15h-5.185l-1.299-4.1c-.963 1.576-2.18 2.768-3.658 3.577-1.47.817-3.103 1.217-4.883 1.217-3.658 0-6.288-1.004-7.896-3.021-1.602-2.016-2.4-5.038-2.4-9.072v-24.75zm-43.099 36.157v-48.667h7.472v16.062c2.09-2.834 4.81-4.246 8.166-4.246 3.307 0 5.83.94 7.586 2.817 1.757 1.877 2.637 4.973 2.637 9.284v24.75h-7.48v-25.106c0-2.458-.39-4.107-1.185-4.965-.784-.866-1.837-1.29-3.16-1.29-.768 0-1.543.14-2.327.385-.791.252-1.486.695-2.1 1.324-.613.62-1.117 1.444-1.527 2.466-.407 1.02-.613 2.27-.613 3.756v23.428zm-15.48-5.153c1.062 0 2.041-.115 2.93-.31.892-.208 2.05-.595 3.471-1.15l2.294 5.144a24.495 24.495 0 0 1-4.197 1.519c-1.528.423-3.176.636-4.957.636-1.886 0-3.641-.245-5.266-.727-1.625-.49-3.038-1.405-4.23-2.744-1.201-1.347-2.139-3.233-2.825-5.667-.686-2.433-1.028-5.601-1.028-9.496 0-6.622 1.102-11.432 3.315-14.42 2.213-2.99 5.585-4.484 10.11-4.484 1.78 0 3.445.209 4.997.62 1.55.417 2.906.908 4.082 1.464l-2.294 5.283c-1.42-.646-2.58-1.063-3.47-1.25a13.99 13.99 0 0 0-2.858-.278c-.914 0-1.754.14-2.515.417-.768.278-1.412.866-1.944 1.77-.54.908-.956 2.23-1.266 3.961-.301 1.738-.459 4.05-.459 6.916 0 2.875.186 5.161.54 6.851.352 1.69.824 2.98 1.412 3.863.58.882 1.233 1.444 1.944 1.699.71.252 1.444.384 2.213.384m-35.01-.563c2.138 0 3.927-.613 5.38-1.845 1.445-1.224 2.172-3.274 2.172-6.148 0-1.438-.252-2.663-.76-3.683a9.145 9.145 0 0 0-1.983-2.646 13.252 13.252 0 0 0-2.825-1.944 281.266 281.266 0 0 0-3.283-1.674 74.58 74.58 0 0 1-3.772-1.91 13.536 13.536 0 0 1-3.356-2.539c-.989-1.011-1.806-2.245-2.442-3.682-.636-1.438-.956-3.218-.956-5.349 0-2.417.475-4.442 1.412-6.083.94-1.65 2.139-2.98 3.585-4.001a14.353 14.353 0 0 1 4.81-2.188c1.747-.44 3.437-.662 5.07-.662 1.267 0 2.5.116 3.7.352 1.192.232 2.31.498 3.355.801 1.047.3 1.968.637 2.785 1.005.808.368 1.47.694 1.984.972l-2.524 5.56a33.387 33.387 0 0 0-4.646-1.909c-1.527-.481-3.209-.727-5.038-.727-1.829 0-3.405.563-4.728 1.7-1.322 1.133-1.984 2.767-1.984 4.906 0 1.112.232 2.084.685 2.916a8.045 8.045 0 0 0 1.829 2.229 16.618 16.618 0 0 0 2.597 1.773c.963.53 1.96 1.03 2.972 1.495a56.15 56.15 0 0 1 4.042 2.049 15.198 15.198 0 0 1 3.699 2.882c1.095 1.16 2 2.572 2.711 4.246.71 1.667 1.07 3.708 1.07 6.116 0 2.042-.32 3.936-.957 5.7-.636 1.764-1.576 3.282-2.825 4.556-1.24 1.274-2.817 2.278-4.728 3.022-1.902.743-4.131 1.11-6.67 1.11-2.598 0-4.908-.284-6.942-.865a26.89 26.89 0 0 1-5.87-2.466l2.661-5.708a29.695 29.695 0 0 0 4.581 1.919c1.528.481 3.25.727 5.185.727m300.833-31.151c-4.728 0-8.182 1.534-10.37 4.621-2.187 3.078-3.283 8.027-3.283 14.846 0 3.748.425 6.81 1.258 9.177.841 2.36 1.95 4.205 3.323 5.52 1.371 1.322 2.948 2.212 4.728 2.678 1.78.462 3.61.695 5.496.695a22 22 0 0 0 6.1-.834c1.927-.553 3.478-1.134 4.654-1.738l-2.213-5.07c-2.899 1.298-5.593 1.943-8.084 1.943-1.07 0-2.066-.082-2.98-.244-.915-.165-1.716-.604-2.4-1.315-.686-.718-1.242-1.797-1.675-3.234-.432-1.437-.68-3.429-.726-5.985l18.912-.002v-3.96c0-2.736-.214-5.168-.646-7.3-.433-2.13-1.144-3.927-2.14-5.39a9.315 9.315 0 0 0-3.927-3.299c-1.625-.743-3.635-1.11-6.027-1.11zm-.147 5.488c1.071 0 1.96.164 2.67.49.71.327 1.293.882 1.758 1.666.456.792.796 1.895 1.027 3.307.232 1.413.37 3.185.416 5.316H379.16c.107-2.36.317-4.261.652-5.699.327-1.437.743-2.522 1.256-3.265.507-.743 1.104-1.23 1.79-1.461.687-.237 1.438-.352 2.255-.352z" transform="translate(1 1)"/></svg>