<svg id="svg" xmlns="http://www.w3.org/2000/svg" xmlns:xlink="http://www.w3.org/1999/xlink" width="400" height="137.29626078619367" viewBox="0, 0, 400,137.29626078619367"><g id="svgg"><path id="path0" d="M10.483 4.241 C 7.597 5.037,5.475 7.043,4.373 10.017 L 3.917 11.250 3.869 67.917 C 3.836 107.998,3.875 124.894,4.003 125.643 C 4.597 129.137,6.776 131.695,10.143 132.854 C 11.458 133.306,388.154 133.350,389.678 132.898 C 392.466 132.071,394.440 130.197,395.539 127.333 L 396.083 125.917 396.129 69.167 C 396.171 18.235,396.149 12.295,395.915 11.233 C 395.139 7.704,392.742 5.111,389.444 4.233 C 388.212 3.905,11.672 3.913,10.483 4.241 M383.132 8.594 C 386.642 9.308,389.420 11.784,390.694 15.333 L 391.083 16.417 391.127 68.044 C 391.165 113.356,391.140 119.818,390.921 120.877 C 390.143 124.636,387.059 127.749,383.292 128.576 C 382.190 128.818,366.002 128.837,199.667 128.795 L 17.250 128.749 16.167 128.375 C 13.069 127.307,10.823 125.058,9.719 121.917 L 9.250 120.583 9.203 69.250 C 9.169 32.352,9.207 17.612,9.339 16.833 C 10.075 12.508,13.319 9.234,17.583 8.513 C 19.311 8.221,381.693 8.302,383.132 8.594 M113.083 17.005 C 111.383 17.350,108.233 18.769,105.390 20.471 C 103.388 21.669,98.256 24.693,97.000 25.414 C 96.496 25.704,93.946 27.205,91.333 28.750 C 88.721 30.295,86.171 31.797,85.667 32.087 C 85.162 32.377,83.700 33.237,82.417 33.997 C 80.145 35.343,79.182 35.909,77.208 37.058 C 76.681 37.364,74.787 38.479,73.000 39.534 C 69.426 41.643,54.151 50.638,47.583 54.500 C 45.292 55.848,41.917 57.836,40.083 58.917 C 38.250 59.999,36.337 61.124,35.833 61.417 C 35.329 61.709,33.417 62.834,31.583 63.916 C 29.750 64.999,27.219 66.491,25.958 67.233 C 23.741 68.539,23.386 68.857,23.919 69.061 C 24.152 69.150,28.250 71.576,39.167 78.084 C 47.156 82.847,52.085 85.783,58.750 89.749 C 62.417 91.931,66.317 94.255,67.417 94.915 C 68.517 95.575,71.479 97.339,74.000 98.836 C 76.521 100.334,79.858 102.322,81.417 103.254 C 82.975 104.187,87.250 106.737,90.917 108.920 C 94.583 111.104,98.671 113.540,100.000 114.335 C 111.660 121.304,111.514 121.235,114.750 121.244 C 117.769 121.253,119.638 120.386,121.037 118.329 C 122.864 115.639,122.788 114.182,120.394 106.083 L 118.571 99.917 241.702 99.875 L 364.833 99.833 364.833 68.583 L 364.833 37.333 242.000 37.333 C 174.442 37.333,119.167 37.299,119.167 37.258 C 119.167 37.163,121.207 30.051,121.751 28.250 C 121.973 27.517,122.234 26.405,122.332 25.780 C 123.113 20.795,118.055 15.997,113.083 17.005 M154.833 48.415 L 154.833 51.163 147.542 51.207 L 140.250 51.250 140.207 58.208 L 140.163 65.167 146.669 65.167 L 153.175 65.167 153.129 67.958 L 153.083 70.750 146.625 70.794 L 140.167 70.837 140.167 78.502 L 140.167 86.167 147.500 86.167 L 154.833 86.167 154.833 89.001 L 154.833 91.836 143.958 91.793 L 133.083 91.750 133.040 68.917 C 133.017 56.358,133.033 45.990,133.077 45.875 C 133.139 45.711,135.477 45.667,143.995 45.667 L 154.833 45.667 154.833 48.415 M175.083 48.167 L 175.083 50.583 173.292 50.631 L 171.500 50.678 171.500 68.750 L 171.500 86.822 173.292 86.869 L 175.083 86.917 175.083 89.333 L 175.083 91.750 167.917 91.750 L 160.750 91.750 160.750 89.333 L 160.750 86.917 162.542 86.869 L 164.333 86.822 164.333 68.750 L 164.333 50.678 162.542 50.631 L 160.750 50.583 160.703 48.342 C 160.678 47.109,160.694 46.002,160.740 45.882 C 160.808 45.705,162.196 45.671,167.954 45.707 L 175.083 45.750 175.083 48.167 M192.435 48.167 C 192.815 49.496,193.777 52.908,194.572 55.750 C 195.367 58.592,196.236 61.667,196.503 62.583 C 196.921 64.023,197.991 67.809,200.436 76.500 C 200.759 77.646,201.186 79.108,201.386 79.750 L 201.750 80.917 201.792 63.288 L 201.835 45.659 204.959 45.705 L 208.083 45.750 208.083 68.750 L 208.083 91.750 203.494 91.794 L 198.905 91.838 198.382 90.044 C 198.094 89.057,197.595 87.313,197.273 86.167 C 195.967 81.530,195.148 78.614,194.418 76.000 C 193.995 74.487,193.435 72.500,193.173 71.583 C 192.912 70.667,192.347 68.642,191.918 67.083 C 191.490 65.525,190.999 63.800,190.828 63.250 C 190.657 62.700,190.256 61.275,189.937 60.083 C 188.852 56.026,188.921 55.094,188.874 74.375 L 188.832 91.833 185.749 91.833 L 182.667 91.833 182.667 68.747 L 182.667 45.661 187.205 45.706 L 191.743 45.750 192.435 48.167 M231.083 45.919 C 235.523 46.586,238.066 48.473,239.484 52.152 C 241.672 57.830,239.650 64.241,234.917 66.633 C 234.267 66.961,234.004 67.171,234.167 67.231 C 234.304 67.282,234.977 67.523,235.661 67.766 C 240.177 69.371,242.000 72.841,241.786 79.427 C 241.563 86.311,239.064 89.782,233.250 91.286 C 231.613 91.710,231.457 91.719,224.542 91.791 L 217.500 91.864 217.500 68.765 L 217.500 45.667 223.458 45.668 C 227.903 45.668,229.840 45.732,231.083 45.919 M265.221 47.542 C 265.460 48.573,266.073 51.329,266.583 53.667 C 267.092 56.004,267.692 58.704,267.916 59.667 C 268.139 60.629,268.507 62.279,268.733 63.333 C 268.960 64.387,269.454 66.637,269.832 68.333 C 270.555 71.576,270.994 73.564,272.225 79.167 C 272.638 81.046,273.386 84.421,273.888 86.667 C 274.390 88.912,274.852 90.994,274.914 91.292 L 275.026 91.833 271.368 91.833 L 267.710 91.833 267.432 90.375 C 267.279 89.573,266.895 87.501,266.578 85.771 C 266.261 84.042,265.924 82.335,265.828 81.980 L 265.654 81.333 260.107 81.333 L 254.561 81.333 254.198 83.375 C 253.726 86.034,253.029 89.851,252.813 90.958 L 252.643 91.833 249.072 91.833 C 247.107 91.833,245.500 91.804,245.500 91.768 C 245.500 91.732,245.767 90.476,246.093 88.976 C 246.419 87.477,246.978 84.900,247.335 83.250 C 247.692 81.600,248.290 78.862,248.664 77.167 C 249.446 73.613,250.446 69.045,251.252 65.333 C 251.561 63.913,252.086 61.512,252.419 60.000 C 253.688 54.236,254.538 50.340,254.988 48.230 C 255.244 47.028,255.506 45.959,255.570 45.855 C 255.652 45.722,257.032 45.667,260.236 45.667 L 264.786 45.667 265.221 47.542 M287.540 55.375 L 287.583 65.083 294.042 65.127 L 300.500 65.171 300.500 55.419 L 300.500 45.667 304.083 45.667 L 307.667 45.667 307.667 68.750 L 307.667 91.833 304.083 91.833 L 300.500 91.833 300.500 81.415 L 300.500 70.996 294.042 71.040 L 287.583 71.083 287.540 81.458 L 287.497 91.833 283.999 91.833 L 280.500 91.833 280.500 68.750 L 280.500 45.667 283.999 45.667 L 287.497 45.667 287.540 55.375 M326.728 47.958 C 327.076 49.219,327.499 50.700,327.668 51.250 C 327.838 51.800,328.401 53.788,328.920 55.667 C 329.439 57.546,330.039 59.683,330.253 60.417 C 330.708 61.972,331.827 65.928,332.916 69.833 C 333.338 71.346,333.860 73.183,334.076 73.917 C 334.292 74.650,334.832 76.545,335.276 78.127 L 336.083 81.004 336.126 63.335 L 336.168 45.667 339.335 45.667 L 342.501 45.667 342.459 68.708 L 342.417 91.750 337.873 91.794 L 333.329 91.839 333.170 91.461 C 333.083 91.253,332.666 89.846,332.245 88.333 C 331.823 86.821,331.140 84.383,330.726 82.917 C 330.312 81.450,329.711 79.313,329.391 78.167 C 329.072 77.021,328.595 75.333,328.332 74.417 C 328.068 73.500,327.204 70.425,326.410 67.583 C 325.616 64.742,324.637 61.260,324.233 59.846 C 323.830 58.433,323.499 57.158,323.497 57.013 C 323.495 56.782,323.475 56.781,323.333 57.000 C 323.232 57.157,323.171 63.666,323.169 74.542 L 323.167 91.833 320.083 91.833 L 317.000 91.833 317.000 68.750 L 317.000 45.667 321.547 45.667 L 326.095 45.667 326.728 47.958 M224.500 57.917 L 224.500 64.667 227.208 64.663 C 232.157 64.656,233.550 62.923,233.289 57.092 C 233.080 52.405,231.770 51.167,227.022 51.167 L 224.500 51.167 224.500 57.917 M260.000 51.764 C 260.000 51.944,259.760 53.246,257.087 67.579 C 256.763 69.319,256.310 71.701,256.082 72.872 C 255.854 74.044,255.667 75.152,255.667 75.334 C 255.667 75.658,255.783 75.667,260.185 75.667 L 264.703 75.667 264.610 75.292 C 264.559 75.085,264.244 73.454,263.911 71.667 C 263.577 69.879,263.008 66.842,262.647 64.917 C 262.285 62.992,261.767 60.180,261.494 58.669 C 260.615 53.790,260.000 50.951,260.000 51.764 M224.540 78.208 L 224.583 86.083 227.750 86.082 C 231.248 86.080,231.552 86.006,232.799 84.848 C 235.024 82.783,235.405 75.707,233.464 72.519 C 232.327 70.652,231.463 70.343,227.373 70.337 L 224.497 70.333 224.540 78.208 " stroke="none" fill="#ffffff" fill-rule="evenodd"></path><path id="path1" d="M105.958 3.958 C 157.681 3.981,242.319 3.981,294.042 3.958 C 345.765 3.935,303.446 3.916,200.000 3.916 C 96.554 3.916,54.235 3.935,105.958 3.958 M9.833 4.274 C 9.421 4.416,9.008 4.605,8.917 4.693 C 8.825 4.782,8.975 4.766,9.250 4.657 C 9.525 4.549,10.087 4.363,10.500 4.245 C 10.912 4.127,11.100 4.027,10.917 4.023 C 10.733 4.019,10.246 4.132,9.833 4.274 M389.167 4.167 C 389.737 4.349,390.175 4.349,389.750 4.167 C 389.567 4.088,389.267 4.026,389.083 4.028 C 388.815 4.032,388.832 4.059,389.167 4.167 M390.167 4.389 C 390.167 4.432,390.409 4.552,390.705 4.655 C 391.000 4.758,391.169 4.774,391.080 4.690 C 390.890 4.512,390.167 4.274,390.167 4.389 M392.621 5.737 C 393.008 6.077,393.636 6.706,394.017 7.136 C 394.397 7.565,394.555 7.692,394.367 7.417 C 394.008 6.889,392.812 5.717,392.250 5.343 C 392.067 5.220,392.234 5.398,392.621 5.737 M6.387 6.542 C 5.838 7.115,5.299 7.771,5.189 8.000 L 4.990 8.417 5.284 8.000 C 5.445 7.771,6.022 7.115,6.565 6.542 C 7.108 5.969,7.515 5.500,7.470 5.500 C 7.424 5.500,6.937 5.969,6.387 6.542 M395.017 8.699 C 395.213 9.084,395.472 9.665,395.592 9.991 C 395.712 10.317,395.815 10.471,395.821 10.333 C 395.835 10.049,394.897 8.000,394.754 8.000 C 394.702 8.000,394.820 8.315,395.017 8.699 M17.583 8.513 C 13.319 9.234,10.075 12.508,9.339 16.833 C 9.207 17.612,9.169 32.352,9.203 69.250 L 9.250 120.583 9.719 121.917 C 10.823 125.058,13.069 127.307,16.167 128.375 L 17.250 128.749 199.667 128.795 C 366.002 128.837,382.190 128.818,383.292 128.576 C 387.059 127.749,390.143 124.636,390.921 120.877 C 391.140 119.818,391.165 113.356,391.127 68.044 L 391.083 16.417 390.694 15.333 C 389.420 11.784,386.642 9.308,383.132 8.594 C 381.693 8.302,19.311 8.221,17.583 8.513 M4.269 9.937 C 4.121 10.371,4.005 10.806,4.012 10.905 C 4.019 11.003,4.169 10.677,4.345 10.180 C 4.521 9.683,4.637 9.248,4.602 9.213 C 4.566 9.177,4.417 9.504,4.269 9.937 M116.218 17.082 C 121.162 18.370,123.382 22.850,121.751 28.250 C 121.207 30.051,119.167 37.163,119.167 37.258 C 119.167 37.299,174.442 37.333,242.000 37.333 L 364.833 37.333 364.833 68.583 L 364.833 99.833 241.702 99.875 L 118.571 99.917 120.394 106.083 C 122.788 114.182,122.864 115.639,121.037 118.329 C 119.638 120.386,117.769 121.253,114.750 121.244 C 111.514 121.235,111.660 121.304,100.000 114.335 C 98.671 113.540,94.583 111.104,90.917 108.920 C 87.250 106.737,82.975 104.187,81.417 103.254 C 79.858 102.322,76.521 100.334,74.000 98.836 C 71.479 97.339,68.517 95.575,67.417 94.915 C 66.317 94.255,62.417 91.931,58.750 89.749 C 52.085 85.783,47.156 82.847,39.167 78.084 C 28.250 71.576,24.152 69.150,23.919 69.061 C 23.386 68.857,23.741 68.539,25.958 67.233 C 27.219 66.491,29.750 64.999,31.583 63.916 C 33.417 62.834,35.329 61.709,35.833 61.417 C 36.337 61.124,38.250 59.999,40.083 58.917 C 41.917 57.836,45.292 55.848,47.583 54.500 C 54.151 50.638,69.426 41.643,73.000 39.534 C 74.787 38.479,76.681 37.364,77.208 37.058 C 79.182 35.909,80.145 35.343,82.417 33.997 C 83.700 33.237,85.162 32.377,85.667 32.087 C 86.171 31.797,88.721 30.295,91.333 28.750 C 93.946 27.205,96.496 25.704,97.000 25.414 C 98.256 24.693,103.388 21.669,105.390 20.471 C 110.464 17.433,113.690 16.424,116.218 17.082 M133.077 45.875 C 133.033 45.990,133.017 56.358,133.040 68.917 L 133.083 91.750 143.958 91.793 L 154.833 91.836 154.833 89.001 L 154.833 86.167 147.542 86.207 L 140.250 86.246 147.458 86.292 L 154.667 86.337 154.667 89.002 L 154.667 91.667 143.917 91.667 L 133.167 91.667 133.167 68.750 L 133.167 45.833 143.913 45.833 L 154.658 45.833 154.709 48.542 L 154.759 51.250 154.796 48.458 L 154.833 45.667 143.995 45.667 C 135.477 45.667,133.139 45.711,133.077 45.875 M160.740 45.882 C 160.694 46.002,160.678 47.109,160.703 48.342 L 160.750 50.583 162.542 50.631 L 164.333 50.678 164.333 68.750 L 164.333 86.822 162.542 86.869 L 160.750 86.917 160.750 89.333 L 160.750 91.750 167.917 91.750 L 175.083 91.750 175.083 89.333 L 175.083 86.917 173.292 86.869 L 171.500 86.822 171.500 68.750 L 171.500 50.678 173.292 50.631 L 175.083 50.583 175.083 48.167 L 175.083 45.750 167.954 45.707 C 162.196 45.671,160.808 45.705,160.740 45.882 M182.667 68.750 L 182.667 91.833 185.792 91.796 L 188.917 91.758 185.875 91.709 L 182.833 91.659 182.833 68.746 L 182.833 45.833 187.232 45.833 L 191.631 45.833 191.740 46.270 C 191.800 46.510,191.886 46.670,191.929 46.626 C 191.973 46.582,191.934 46.348,191.842 46.106 L 191.675 45.667 187.171 45.667 L 182.667 45.667 182.667 68.750 M201.831 63.288 C 201.829 74.731,201.772 80.829,201.667 80.667 C 201.486 80.387,201.442 80.656,201.601 81.070 C 201.951 81.981,202.000 79.835,202.000 63.583 L 202.000 45.833 205.000 45.833 L 208.000 45.833 208.000 68.747 L 208.000 91.661 203.375 91.710 L 198.750 91.758 203.417 91.754 L 208.083 91.750 208.083 68.750 L 208.083 45.750 204.958 45.705 L 201.833 45.659 201.831 63.288 M220.542 45.791 C 222.260 45.819,225.073 45.819,226.792 45.791 C 228.510 45.764,227.104 45.742,223.667 45.742 C 220.229 45.742,218.823 45.764,220.542 45.791 M255.525 45.958 C 255.441 46.119,255.328 46.587,255.274 47.000 C 255.174 47.760,255.311 47.432,255.569 46.294 L 255.672 45.839 260.294 45.792 L 264.917 45.745 260.298 45.706 C 256.045 45.670,255.666 45.690,255.525 45.958 M283.875 45.791 L 287.333 45.840 287.333 55.387 C 287.333 62.590,287.382 64.982,287.533 65.133 C 287.683 65.283,289.321 65.324,294.075 65.295 L 300.417 65.256 294.000 65.170 L 287.583 65.083 287.540 55.375 L 287.497 45.667 283.957 45.705 L 280.417 45.743 283.875 45.791 M303.958 45.791 L 307.500 45.840 307.500 68.750 L 307.500 91.660 303.958 91.709 L 300.417 91.757 304.042 91.795 L 307.667 91.833 307.667 68.750 L 307.667 45.667 304.042 45.705 L 300.417 45.743 303.958 45.791 M317.000 68.750 L 317.000 91.833 320.125 91.796 L 323.250 91.758 320.208 91.709 L 317.167 91.659 317.167 68.741 L 317.167 45.823 321.667 45.870 C 324.142 45.896,326.167 45.860,326.167 45.792 C 326.167 45.723,324.104 45.667,321.583 45.667 L 317.000 45.667 317.000 68.750 M336.167 63.236 C 336.167 72.900,336.121 80.925,336.066 81.070 C 336.010 81.215,336.047 81.333,336.149 81.333 C 336.283 81.333,336.333 76.449,336.333 63.583 L 336.333 45.833 339.333 45.833 L 342.333 45.833 342.333 68.750 L 342.333 91.667 337.847 91.667 L 333.361 91.667 333.194 91.208 C 333.102 90.956,333.020 90.867,333.013 91.010 C 332.972 91.819,333.114 91.842,337.917 91.795 L 342.417 91.750 342.459 68.708 L 342.501 45.667 339.334 45.667 L 336.167 45.667 336.167 63.236 M175.000 48.161 L 175.000 50.489 173.208 50.536 L 171.417 50.583 171.417 68.750 L 171.417 86.917 173.208 86.964 L 175.000 87.011 175.000 89.339 L 175.000 91.667 167.917 91.667 L 160.833 91.667 160.833 89.339 L 160.833 87.011 162.625 86.964 L 164.417 86.917 164.417 68.750 L 164.417 50.583 162.625 50.536 L 160.833 50.489 160.833 48.161 L 160.833 45.833 167.917 45.833 L 175.000 45.833 175.000 48.161 M233.667 46.541 C 233.801 46.674,235.333 47.321,235.333 47.245 C 235.333 47.207,235.127 47.070,234.875 46.942 C 234.376 46.688,233.532 46.408,233.667 46.541 M326.442 47.327 C 326.552 47.960,326.971 49.184,326.986 48.917 C 326.991 48.825,326.848 48.300,326.669 47.750 C 326.489 47.200,326.387 47.010,326.442 47.327 M235.833 47.546 C 235.833 47.578,236.077 47.782,236.375 48.001 C 236.710 48.246,236.827 48.286,236.680 48.106 C 236.458 47.833,235.833 47.420,235.833 47.546 M265.369 48.583 C 265.367 48.767,265.462 49.292,265.580 49.750 C 265.697 50.208,265.795 50.433,265.798 50.250 C 265.800 50.067,265.705 49.542,265.587 49.083 C 265.469 48.625,265.371 48.400,265.369 48.583 M237.333 48.804 C 237.333 48.880,237.533 49.124,237.776 49.346 L 238.219 49.750 237.828 49.208 C 237.422 48.645,237.333 48.573,237.333 48.804 M192.683 49.391 C 192.656 49.622,193.192 51.364,193.267 51.289 C 193.305 51.251,193.193 50.776,193.018 50.235 C 192.843 49.693,192.692 49.313,192.683 49.391 M238.867 51.080 C 239.066 51.490,239.258 51.797,239.293 51.762 C 239.368 51.687,238.695 50.333,238.582 50.333 C 238.539 50.333,238.668 50.669,238.867 51.080 M254.095 52.262 C 253.938 53.052,253.842 53.731,253.881 53.770 C 253.921 53.809,254.081 53.195,254.238 52.405 C 254.395 51.614,254.491 50.936,254.452 50.896 C 254.413 50.857,254.252 51.472,254.095 52.262 M225.625 51.124 C 226.290 51.155,227.377 51.155,228.042 51.124 C 228.706 51.092,228.162 51.066,226.833 51.066 C 225.504 51.066,224.960 51.092,225.625 51.124 M260.021 51.333 C 260.017 51.379,260.119 51.792,260.246 52.250 C 260.386 52.755,260.479 52.919,260.481 52.667 C 260.484 52.329,260.042 51.048,260.021 51.333 M231.537 52.161 C 231.950 52.524,232.383 53.052,232.500 53.333 C 232.616 53.614,232.744 53.811,232.785 53.771 C 233.013 53.542,231.312 51.500,230.893 51.500 C 230.834 51.500,231.124 51.797,231.537 52.161 M327.771 52.000 C 327.829 52.321,327.942 52.733,328.022 52.917 C 328.123 53.145,328.135 53.067,328.063 52.667 C 328.004 52.346,327.891 51.933,327.811 51.750 C 327.711 51.521,327.698 51.600,327.771 52.000 M239.690 52.917 C 239.692 53.008,239.799 53.608,239.928 54.250 L 240.163 55.417 240.082 54.474 C 240.015 53.693,239.682 52.369,239.690 52.917 M260.536 53.500 C 260.535 53.729,260.593 54.104,260.667 54.333 C 260.846 54.894,260.846 54.288,260.667 53.583 C 260.552 53.134,260.539 53.126,260.536 53.500 M266.531 53.917 C 266.526 54.321,267.123 56.687,267.141 56.333 C 267.147 56.196,267.014 55.521,266.844 54.833 C 266.674 54.146,266.533 53.733,266.531 53.917 M194.104 54.500 C 194.162 54.821,194.276 55.233,194.356 55.417 C 194.456 55.645,194.468 55.567,194.396 55.167 C 194.338 54.846,194.224 54.433,194.144 54.250 C 194.044 54.021,194.032 54.100,194.104 54.500 M259.167 55.667 C 259.056 56.320,259.000 56.889,259.042 56.930 C 259.083 56.972,259.205 56.469,259.314 55.814 C 259.422 55.158,259.478 54.589,259.439 54.550 C 259.399 54.511,259.277 55.013,259.167 55.667 M240.201 56.852 C 240.182 57.641,240.131 58.654,240.088 59.102 L 240.009 59.917 240.178 59.111 C 240.270 58.667,240.321 57.655,240.291 56.861 L 240.235 55.417 240.201 56.852 M328.857 55.833 C 328.857 55.971,328.921 56.233,329.000 56.417 C 329.090 56.627,329.143 56.658,329.143 56.500 C 329.143 56.362,329.079 56.100,329.000 55.917 C 328.910 55.707,328.857 55.676,328.857 55.833 M188.833 56.623 C 188.833 56.820,188.903 57.023,188.987 57.075 C 189.072 57.128,189.191 57.400,189.253 57.680 C 189.315 57.961,189.401 58.155,189.444 58.111 C 189.543 58.012,189.159 56.638,188.972 56.425 C 188.892 56.334,188.833 56.418,188.833 56.623 M323.172 56.758 C 323.176 57.189,323.199 57.212,323.356 56.942 C 323.484 56.722,323.482 56.582,323.351 56.451 C 323.216 56.316,323.168 56.400,323.172 56.758 M329.268 57.333 C 329.325 57.654,329.439 58.029,329.521 58.167 C 329.699 58.463,329.528 57.599,329.308 57.083 C 329.211 56.858,329.199 56.940,329.268 57.333 M195.190 58.333 C 195.190 58.471,195.255 58.733,195.333 58.917 C 195.424 59.127,195.477 59.158,195.477 59.000 C 195.477 58.862,195.412 58.600,195.333 58.417 C 195.243 58.207,195.190 58.176,195.190 58.333 M252.593 59.093 C 252.530 59.427,252.512 59.734,252.553 59.775 C 252.593 59.816,252.678 59.575,252.741 59.241 C 252.803 58.906,252.821 58.599,252.781 58.559 C 252.740 58.518,252.655 58.758,252.593 59.093 M261.520 58.643 C 261.488 59.008,262.064 61.941,262.113 61.667 C 262.138 61.529,262.019 60.742,261.849 59.917 C 261.678 59.092,261.530 58.518,261.520 58.643 M324.104 59.333 C 324.162 59.654,324.276 60.067,324.356 60.250 C 324.456 60.479,324.468 60.400,324.396 60.000 C 324.338 59.679,324.224 59.267,324.144 59.083 C 324.044 58.855,324.032 58.933,324.104 59.333 M195.523 59.500 C 195.523 59.637,195.588 59.900,195.667 60.083 C 195.757 60.293,195.810 60.324,195.810 60.167 C 195.810 60.029,195.745 59.767,195.667 59.583 C 195.576 59.373,195.523 59.342,195.523 59.500 M267.850 59.800 C 267.825 60.120,268.354 62.369,268.435 62.287 C 268.473 62.249,268.361 61.625,268.186 60.901 C 268.011 60.176,267.860 59.681,267.850 59.800 M190.075 60.567 C 190.131 60.741,190.296 61.363,190.443 61.948 C 190.590 62.533,190.742 62.980,190.781 62.941 C 190.878 62.844,190.343 60.811,190.139 60.500 C 190.009 60.302,189.996 60.315,190.075 60.567 M330.272 60.917 C 330.448 61.710,330.686 62.186,330.565 61.500 C 330.508 61.179,330.394 60.804,330.312 60.667 C 330.214 60.503,330.200 60.590,330.272 60.917 M257.924 62.258 C 257.860 62.683,257.842 63.065,257.884 63.106 C 257.926 63.148,258.012 62.834,258.076 62.409 C 258.140 61.984,258.158 61.602,258.116 61.560 C 258.074 61.519,257.988 61.832,257.924 62.258 M238.791 62.680 C 238.539 63.131,238.368 63.500,238.410 63.500 C 238.524 63.500,239.384 61.995,239.311 61.923 C 239.277 61.888,239.043 62.229,238.791 62.680 M231.761 63.464 C 231.173 64.168,231.162 64.198,231.650 63.750 C 232.113 63.326,232.620 62.654,232.464 62.672 C 232.438 62.675,232.121 63.031,231.761 63.464 M196.604 63.333 C 196.662 63.654,196.776 64.067,196.856 64.250 C 196.956 64.479,196.968 64.400,196.896 64.000 C 196.838 63.679,196.724 63.267,196.644 63.083 C 196.544 62.855,196.532 62.933,196.604 63.333 M251.511 64.011 C 251.401 64.573,251.343 65.065,251.382 65.105 C 251.422 65.144,251.545 64.717,251.656 64.156 C 251.766 63.594,251.824 63.102,251.784 63.062 C 251.745 63.022,251.622 63.449,251.511 64.011 M325.190 63.167 C 325.190 63.304,325.255 63.567,325.333 63.750 C 325.424 63.960,325.477 63.991,325.477 63.833 C 325.477 63.696,325.412 63.433,325.333 63.250 C 325.243 63.040,325.190 63.009,325.190 63.167 M257.600 64.017 C 257.539 64.399,257.521 64.744,257.561 64.783 C 257.601 64.823,257.686 64.546,257.750 64.167 C 257.814 63.788,257.831 63.443,257.789 63.400 C 257.746 63.357,257.661 63.635,257.600 64.017 M230.583 64.380 C 230.373 64.509,229.178 64.617,227.333 64.676 L 224.417 64.768 227.130 64.801 C 229.677 64.831,231.000 64.646,231.000 64.259 C 231.000 64.135,230.970 64.144,230.583 64.380 M237.075 65.042 L 236.417 65.750 237.125 65.091 C 237.515 64.729,237.833 64.410,237.833 64.383 C 237.833 64.257,237.688 64.383,237.075 65.042 M331.357 64.667 C 331.357 64.804,331.421 65.067,331.500 65.250 C 331.590 65.460,331.643 65.491,331.643 65.333 C 331.643 65.196,331.579 64.933,331.500 64.750 C 331.410 64.540,331.357 64.509,331.357 64.667 M191.437 65.333 C 191.496 65.654,191.609 66.067,191.689 66.250 C 191.789 66.479,191.802 66.400,191.729 66.000 C 191.671 65.679,191.558 65.267,191.478 65.083 C 191.377 64.855,191.365 64.933,191.437 65.333 M262.695 65.000 C 262.690 65.137,262.828 65.925,263.002 66.750 C 263.196 67.677,263.284 67.926,263.230 67.402 C 263.137 66.501,262.709 64.578,262.695 65.000 M146.625 65.292 L 153.000 65.337 153.000 68.000 L 153.000 70.663 146.542 70.709 L 140.083 70.756 146.583 70.753 L 153.083 70.750 153.129 67.958 L 153.175 65.167 146.712 65.206 L 140.250 65.246 146.625 65.292 M235.790 65.986 C 235.105 66.425,235.011 66.579,235.614 66.272 C 235.907 66.124,236.192 65.927,236.249 65.835 C 236.383 65.618,236.343 65.631,235.790 65.986 M269.202 65.917 C 269.200 66.100,269.295 66.625,269.413 67.083 C 269.531 67.542,269.629 67.767,269.631 67.583 C 269.633 67.400,269.538 66.875,269.420 66.417 C 269.303 65.958,269.205 65.733,269.202 65.917 M331.771 66.167 C 331.829 66.487,331.942 66.900,332.022 67.083 C 332.123 67.312,332.135 67.234,332.063 66.833 C 332.004 66.512,331.891 66.100,331.811 65.917 C 331.711 65.688,331.698 65.766,331.771 66.167 M233.905 67.019 C 233.776 67.227,234.121 67.499,234.500 67.487 C 234.637 67.482,234.564 67.405,234.337 67.314 C 234.000 67.180,233.970 67.121,234.171 66.994 C 234.320 66.899,234.339 66.837,234.218 66.836 C 234.109 66.834,233.968 66.917,233.905 67.019 M197.690 67.167 C 197.690 67.304,197.755 67.567,197.833 67.750 C 197.924 67.960,197.977 67.991,197.977 67.833 C 197.977 67.696,197.912 67.433,197.833 67.250 C 197.743 67.040,197.690 67.009,197.690 67.167 M256.750 68.500 C 256.686 68.879,256.669 69.224,256.711 69.267 C 256.754 69.310,256.839 69.032,256.900 68.650 C 256.961 68.268,256.979 67.923,256.939 67.883 C 256.899 67.843,256.814 68.121,256.750 68.500 M198.023 68.333 C 198.023 68.471,198.088 68.733,198.167 68.917 C 198.257 69.127,198.310 69.158,198.310 69.000 C 198.310 68.862,198.245 68.600,198.167 68.417 C 198.076 68.207,198.023 68.176,198.023 68.333 M326.690 68.500 C 326.690 68.637,326.755 68.900,326.833 69.083 C 326.924 69.293,326.977 69.324,326.977 69.167 C 326.977 69.029,326.912 68.767,326.833 68.583 C 326.743 68.373,326.690 68.342,326.690 68.500 M250.178 70.178 C 250.067 70.739,250.009 71.232,250.049 71.271 C 250.089 71.311,250.212 70.884,250.322 70.322 C 250.433 69.761,250.491 69.268,250.451 69.229 C 250.411 69.189,250.288 69.616,250.178 70.178 M238.500 69.385 C 238.500 69.414,238.744 69.658,239.042 69.927 L 239.583 70.417 239.094 69.875 C 238.638 69.370,238.500 69.257,238.500 69.385 M256.424 70.258 C 256.360 70.683,256.342 71.065,256.384 71.106 C 256.426 71.148,256.512 70.834,256.576 70.409 C 256.640 69.984,256.658 69.602,256.616 69.560 C 256.574 69.519,256.488 69.832,256.424 70.258 M192.681 69.750 C 192.675 69.842,192.818 70.367,192.998 70.917 C 193.178 71.467,193.280 71.657,193.225 71.339 C 193.115 70.707,192.696 69.483,192.681 69.750 M332.937 70.333 C 332.996 70.654,333.109 71.067,333.189 71.250 C 333.289 71.479,333.302 71.400,333.229 71.000 C 333.171 70.679,333.058 70.267,332.978 70.083 C 332.877 69.855,332.865 69.933,332.937 70.333 M225.708 70.291 C 226.419 70.322,227.581 70.322,228.292 70.291 C 229.002 70.259,228.421 70.234,227.000 70.234 C 225.579 70.234,224.998 70.259,225.708 70.291 M239.910 71.125 C 240.167 71.515,240.409 71.833,240.448 71.833 C 240.568 71.833,239.930 70.819,239.680 70.612 C 239.550 70.505,239.654 70.735,239.910 71.125 M232.000 70.886 C 232.000 70.927,232.275 71.170,232.612 71.427 C 232.948 71.684,233.171 71.809,233.107 71.705 C 232.975 71.491,232.000 70.770,232.000 70.886 M287.434 71.097 C 287.379 71.242,287.333 75.928,287.333 81.510 L 287.333 91.660 283.875 91.709 L 280.417 91.757 283.957 91.795 L 287.497 91.833 287.540 81.458 L 287.583 71.083 294.083 70.997 L 300.583 70.911 294.059 70.872 C 288.241 70.838,287.525 70.862,287.434 71.097 M199.104 72.167 C 199.162 72.487,199.276 72.900,199.356 73.083 C 199.456 73.312,199.468 73.234,199.396 72.833 C 199.338 72.512,199.224 72.100,199.144 71.917 C 199.044 71.688,199.032 71.766,199.104 72.167 M270.536 71.917 C 270.534 72.100,270.628 72.625,270.746 73.083 C 270.864 73.542,270.962 73.767,270.964 73.583 C 270.966 73.400,270.872 72.875,270.754 72.417 C 270.636 71.958,270.538 71.733,270.536 71.917 M233.642 72.824 C 233.882 73.274,234.104 73.618,234.134 73.588 C 234.214 73.508,233.534 72.207,233.355 72.097 C 233.272 72.046,233.402 72.373,233.642 72.824 M264.027 72.167 C 264.020 72.304,264.116 72.867,264.240 73.417 C 264.364 73.967,264.466 74.229,264.467 74.000 C 264.468 73.532,264.047 71.776,264.027 72.167 M327.722 72.250 C 327.775 72.433,327.906 72.942,328.014 73.381 C 328.121 73.820,328.242 74.147,328.281 74.108 C 328.373 74.016,327.894 72.170,327.741 72.025 C 327.677 71.966,327.669 72.067,327.722 72.250 M241.016 73.000 C 241.010 73.046,241.111 73.421,241.241 73.833 C 241.371 74.246,241.479 74.433,241.481 74.250 C 241.484 73.960,241.045 72.779,241.016 73.000 M194.104 74.833 C 194.162 75.154,194.276 75.567,194.356 75.750 C 194.456 75.979,194.468 75.900,194.396 75.500 C 194.338 75.179,194.224 74.767,194.144 74.583 C 194.044 74.355,194.032 74.433,194.104 74.833 M249.011 75.511 C 248.901 76.073,248.843 76.565,248.882 76.605 C 248.922 76.644,249.045 76.217,249.156 75.656 C 249.266 75.094,249.324 74.602,249.284 74.562 C 249.245 74.522,249.122 74.949,249.011 75.511 M334.271 75.000 C 334.329 75.321,334.442 75.733,334.522 75.917 C 334.623 76.145,334.635 76.067,334.563 75.667 C 334.504 75.346,334.391 74.933,334.311 74.750 C 334.211 74.521,334.198 74.600,334.271 75.000 M255.523 75.375 L 255.500 75.833 260.073 75.833 C 262.589 75.833,264.682 75.777,264.724 75.708 C 264.767 75.640,262.752 75.604,260.246 75.630 L 255.691 75.677 255.618 75.297 C 255.555 74.965,255.543 74.974,255.523 75.375 M200.190 76.000 C 200.190 76.137,200.255 76.400,200.333 76.583 C 200.424 76.793,200.477 76.824,200.477 76.667 C 200.477 76.529,200.412 76.267,200.333 76.083 C 200.243 75.873,200.190 75.842,200.190 76.000 M234.731 78.250 C 234.732 79.442,234.758 79.907,234.790 79.285 C 234.823 78.662,234.822 77.687,234.790 77.118 C 234.757 76.549,234.731 77.058,234.731 78.250 M271.536 76.417 C 271.534 76.600,271.628 77.125,271.746 77.583 C 271.864 78.042,271.962 78.267,271.964 78.083 C 271.966 77.900,271.872 77.375,271.754 76.917 C 271.636 76.458,271.538 76.233,271.536 76.417 M328.939 76.583 C 329.114 77.376,329.353 77.853,329.232 77.167 C 329.175 76.846,329.061 76.471,328.979 76.333 C 328.881 76.170,328.867 76.257,328.939 76.583 M200.602 77.500 C 200.658 77.821,200.772 78.196,200.855 78.333 C 201.032 78.629,200.862 77.765,200.641 77.250 C 200.545 77.025,200.532 77.106,200.602 77.500 M329.357 78.000 C 329.357 78.137,329.421 78.400,329.500 78.583 C 329.590 78.793,329.643 78.824,329.643 78.667 C 329.643 78.529,329.579 78.267,329.500 78.083 C 329.410 77.873,329.357 77.842,329.357 78.000 M195.271 79.000 C 195.329 79.321,195.442 79.733,195.522 79.917 C 195.623 80.145,195.635 80.067,195.563 79.667 C 195.504 79.346,195.391 78.933,195.311 78.750 C 195.211 78.521,195.198 78.600,195.271 79.000 M272.028 78.750 C 272.026 78.933,272.088 79.233,272.167 79.417 C 272.349 79.841,272.349 79.403,272.167 78.833 C 272.059 78.498,272.032 78.482,272.028 78.750 M335.349 78.761 C 335.327 79.019,335.844 80.712,335.921 80.634 C 335.957 80.599,335.846 80.122,335.675 79.576 C 335.504 79.030,335.357 78.663,335.349 78.761 M195.690 80.500 C 195.690 80.637,195.755 80.900,195.833 81.083 C 195.924 81.293,195.977 81.324,195.977 81.167 C 195.977 81.029,195.912 80.767,195.833 80.583 C 195.743 80.373,195.690 80.342,195.690 80.500 M330.256 81.268 C 330.479 82.190,330.824 83.094,330.725 82.500 C 330.671 82.179,330.525 81.692,330.399 81.417 C 330.273 81.142,330.209 81.075,330.256 81.268 M260.046 81.292 L 265.676 81.338 265.777 81.841 C 265.832 82.118,265.912 82.310,265.955 82.268 C 265.997 82.225,265.981 81.960,265.919 81.679 L 265.807 81.167 260.112 81.206 L 254.417 81.245 260.046 81.292 M247.593 81.926 C 247.530 82.260,247.512 82.567,247.553 82.608 C 247.593 82.649,247.678 82.409,247.741 82.074 C 247.803 81.740,247.821 81.433,247.781 81.392 C 247.740 81.351,247.655 81.591,247.593 81.926 M241.305 82.952 C 241.155 83.666,240.980 84.400,240.917 84.583 C 240.825 84.851,240.837 84.867,240.980 84.667 C 241.194 84.368,241.723 82.086,241.638 81.832 C 241.606 81.733,241.456 82.237,241.305 82.952 M254.009 83.593 C 253.897 84.290,253.838 84.894,253.879 84.934 C 253.920 84.975,254.045 84.438,254.157 83.741 C 254.270 83.043,254.329 82.440,254.288 82.399 C 254.247 82.358,254.122 82.895,254.009 83.593 M233.783 83.419 C 233.630 83.738,233.540 84.000,233.582 84.000 C 233.696 84.000,234.202 82.980,234.125 82.903 C 234.089 82.867,233.935 83.099,233.783 83.419 M273.033 83.250 C 273.033 83.433,273.093 83.771,273.167 84.000 C 273.272 84.330,273.300 84.347,273.300 84.083 C 273.300 83.900,273.240 83.563,273.167 83.333 C 273.061 83.003,273.033 82.986,273.033 83.250 M196.771 84.333 C 196.829 84.654,196.942 85.067,197.022 85.250 C 197.123 85.479,197.135 85.400,197.063 85.000 C 197.004 84.679,196.891 84.267,196.811 84.083 C 196.711 83.855,196.698 83.933,196.771 84.333 M331.604 86.000 C 331.662 86.321,331.776 86.733,331.856 86.917 C 331.956 87.145,331.968 87.067,331.896 86.667 C 331.838 86.346,331.724 85.933,331.644 85.750 C 331.544 85.521,331.532 85.600,331.604 86.000 M239.846 86.697 C 239.551 87.172,239.411 87.476,239.535 87.373 C 239.772 87.177,240.572 85.833,240.452 85.833 C 240.414 85.833,240.142 86.222,239.846 86.697 M224.646 86.213 C 224.717 86.284,225.970 86.321,227.429 86.296 L 230.083 86.249 227.300 86.166 C 225.768 86.121,224.574 86.142,224.646 86.213 M266.706 86.333 C 266.706 86.563,266.763 86.975,266.833 87.250 C 266.947 87.696,266.961 87.705,266.961 87.333 C 266.961 87.104,266.903 86.692,266.833 86.417 C 266.720 85.971,266.706 85.962,266.706 86.333 M246.357 87.607 C 246.252 88.129,246.198 88.587,246.235 88.624 C 246.273 88.662,246.392 88.269,246.500 87.750 C 246.608 87.231,246.662 86.774,246.622 86.733 C 246.581 86.692,246.462 87.086,246.357 87.607 M238.167 88.704 C 237.571 89.267,237.308 89.570,237.583 89.378 C 238.067 89.039,239.478 87.659,239.325 87.674 C 239.284 87.678,238.762 88.142,238.167 88.704 M197.937 88.500 C 197.996 88.821,198.109 89.233,198.189 89.417 C 198.289 89.645,198.302 89.567,198.229 89.167 C 198.171 88.846,198.058 88.433,197.978 88.250 C 197.877 88.021,197.865 88.100,197.937 88.500 M252.833 90.000 C 252.723 90.654,252.667 91.222,252.708 91.264 C 252.750 91.305,252.872 90.803,252.980 90.147 C 253.089 89.491,253.145 88.923,253.106 88.883 C 253.066 88.844,252.944 89.346,252.833 90.000 M274.441 89.667 C 274.497 90.079,274.607 90.567,274.685 90.750 C 274.858 91.154,274.682 89.956,274.477 89.333 C 274.387 89.059,274.375 89.173,274.441 89.667 M231.764 91.458 C 231.695 91.527,228.439 91.629,224.528 91.684 L 217.417 91.784 224.500 91.745 C 228.659 91.721,231.824 91.635,232.167 91.536 C 232.679 91.388,232.697 91.365,232.319 91.350 C 232.083 91.341,231.833 91.390,231.764 91.458 M245.503 91.542 C 245.500 91.810,245.781 91.833,249.083 91.833 C 251.054 91.833,252.667 91.777,252.667 91.708 C 252.667 91.640,251.117 91.605,249.222 91.632 C 246.549 91.669,245.747 91.632,245.642 91.465 C 245.541 91.306,245.504 91.326,245.503 91.542 M274.833 91.497 C 274.833 91.597,273.433 91.679,271.208 91.709 L 267.583 91.757 271.292 91.795 C 274.494 91.828,275.000 91.799,275.000 91.583 C 275.000 91.446,274.962 91.333,274.917 91.333 C 274.871 91.333,274.833 91.407,274.833 91.497 M395.462 127.462 C 395.098 128.473,395.210 128.585,395.590 127.590 C 395.750 127.170,395.850 126.794,395.811 126.756 C 395.772 126.717,395.615 127.035,395.462 127.462 M5.481 129.640 C 5.666 129.900,5.950 130.219,6.111 130.348 C 6.272 130.477,6.150 130.265,5.840 129.875 C 5.205 129.075,4.969 128.921,5.481 129.640 M7.001 131.224 C 7.229 131.484,7.567 131.775,7.750 131.869 C 8.101 132.050,8.091 132.039,7.167 131.249 L 6.585 130.750 7.001 131.224 M8.167 132.087 C 8.167 132.229,9.877 132.998,10.167 132.987 C 10.304 132.981,10.147 132.877,9.818 132.756 C 9.488 132.635,8.982 132.413,8.693 132.263 C 8.403 132.114,8.167 132.034,8.167 132.087 M391.627 132.096 C 391.574 132.148,391.093 132.371,390.557 132.592 C 390.022 132.812,389.696 132.993,389.833 132.994 C 390.125 132.997,391.833 132.225,391.833 132.091 C 391.833 131.973,391.747 131.975,391.627 132.096 M105.722 133.292 C 157.590 133.315,242.415 133.315,294.222 133.292 C 346.029 133.269,303.592 133.250,199.917 133.250 C 96.242 133.250,53.854 133.269,105.722 133.292 " stroke="none" fill="#1c4a98" fill-rule="evenodd"></path><path id="path2" d="M10.613 0.176 C 9.343 0.324,7.216 0.921,6.833 1.237 C 6.696 1.351,6.208 1.657,5.750 1.918 C 5.292 2.179,4.842 2.490,4.750 2.609 C 4.658 2.729,4.350 2.997,4.066 3.205 C 3.422 3.676,1.868 5.685,1.638 6.343 C 1.544 6.613,1.405 6.833,1.329 6.833 C 1.123 6.833,0.560 8.442,0.262 9.883 C -0.138 11.822,-0.138 125.345,0.262 127.283 C 0.554 128.698,1.122 130.333,1.320 130.333 C 1.391 130.333,1.571 130.615,1.719 130.958 C 2.021 131.658,2.261 132.037,2.750 132.584 C 2.933 132.789,3.237 133.135,3.425 133.353 C 4.080 134.113,6.106 135.667,6.442 135.667 C 6.505 135.667,6.675 135.766,6.820 135.888 C 7.134 136.153,8.236 136.552,9.500 136.860 C 10.263 137.046,42.194 137.083,200.167 137.083 L 389.917 137.083 391.416 136.614 C 392.240 136.356,393.028 136.050,393.166 135.934 C 393.304 135.818,393.754 135.530,394.167 135.294 C 394.884 134.884,395.957 134.032,396.427 133.500 C 397.314 132.497,398.051 131.489,398.287 130.958 C 398.439 130.615,398.619 130.333,398.685 130.333 C 398.854 130.333,399.614 127.952,399.825 126.761 C 400.070 125.376,400.070 11.790,399.825 10.406 C 399.614 9.215,398.854 6.833,398.685 6.833 C 398.619 6.833,398.440 6.552,398.288 6.208 C 397.285 3.941,393.935 1.274,391.065 0.458 L 389.750 0.083 200.750 0.063 C 96.800 0.052,11.238 0.103,10.613 0.176 M390.083 4.238 C 393.031 5.375,395.233 7.811,395.910 10.682 C 396.287 12.283,396.293 124.860,395.916 126.460 C 395.129 129.799,392.173 132.663,389.000 133.161 C 387.081 133.462,12.033 133.388,10.609 133.086 C 7.613 132.451,4.915 129.749,4.082 126.549 C 3.700 125.083,3.706 12.059,4.088 10.592 C 4.949 7.285,7.992 4.409,11.049 4.010 C 13.655 3.670,389.196 3.896,390.083 4.238 M133.167 68.750 L 133.167 91.667 143.917 91.667 L 154.667 91.667 154.667 89.002 L 154.667 86.337 147.458 86.293 L 140.250 86.250 140.207 78.458 L 140.163 70.667 146.582 70.667 L 153.000 70.667 153.000 68.002 L 153.000 65.337 146.625 65.294 L 140.250 65.250 140.207 58.208 L 140.163 51.167 147.415 51.167 L 154.667 51.167 154.667 48.500 L 154.667 45.833 143.917 45.833 L 133.167 45.833 133.167 68.750 M160.833 48.161 L 160.833 50.489 162.625 50.536 L 164.417 50.583 164.417 68.750 L 164.417 86.917 162.625 86.964 L 160.833 87.011 160.833 89.339 L 160.833 91.667 167.917 91.667 L 175.000 91.667 175.000 89.339 L 175.000 87.011 173.208 86.964 L 171.417 86.917 171.417 68.750 L 171.417 50.583 173.208 50.536 L 175.000 50.489 175.000 48.161 L 175.000 45.833 167.917 45.833 L 160.833 45.833 160.833 48.161 M182.833 68.750 L 182.833 91.667 185.833 91.667 L 188.833 91.667 188.833 73.967 C 188.833 63.682,188.895 56.333,188.981 56.425 C 189.062 56.512,189.360 57.446,189.643 58.500 C 189.925 59.554,190.411 61.317,190.723 62.417 C 191.034 63.517,191.564 65.429,191.902 66.667 C 192.239 67.904,192.695 69.517,192.914 70.250 C 193.528 72.307,194.165 74.592,194.608 76.333 C 194.830 77.204,195.087 78.108,195.179 78.342 C 195.271 78.576,195.601 79.701,195.913 80.842 C 196.224 81.983,196.785 84.004,197.159 85.333 C 197.532 86.662,198.074 88.631,198.361 89.708 L 198.885 91.667 203.442 91.667 L 208.000 91.667 208.000 68.750 L 208.000 45.833 205.000 45.833 L 202.000 45.833 202.000 63.583 C 202.000 80.930,201.956 82.413,201.498 80.625 C 201.398 80.235,201.176 79.467,201.005 78.917 C 200.834 78.367,200.415 76.904,200.074 75.667 C 199.732 74.429,199.212 72.554,198.917 71.500 C 198.622 70.446,198.140 68.721,197.845 67.667 C 197.551 66.612,197.132 65.150,196.916 64.417 C 196.470 62.909,195.883 60.845,195.066 57.917 C 194.760 56.817,194.201 54.829,193.826 53.500 C 193.450 52.171,192.893 50.170,192.587 49.055 C 192.281 47.939,191.934 46.758,191.815 46.430 L 191.600 45.833 187.217 45.833 L 182.833 45.833 182.833 68.750 M217.500 68.765 L 217.500 91.697 224.542 91.622 C 230.927 91.553,231.731 91.514,233.167 91.194 C 238.867 89.928,241.843 85.521,241.830 78.367 C 241.819 72.681,239.585 69.091,235.208 67.724 C 233.548 67.205,233.546 67.194,234.958 66.487 C 242.096 62.917,241.938 50.529,234.711 47.060 C 232.381 45.942,231.436 45.836,223.792 45.835 L 217.500 45.833 217.500 68.765 M255.570 46.292 C 255.514 46.544,255.397 47.012,255.310 47.333 C 255.223 47.654,254.856 49.304,254.494 51.000 C 254.132 52.696,253.530 55.471,253.156 57.167 C 252.782 58.862,252.214 61.450,251.893 62.917 C 251.572 64.383,251.014 66.933,250.653 68.583 C 250.291 70.233,249.734 72.847,249.414 74.391 C 249.094 75.936,248.796 77.259,248.751 77.331 C 248.707 77.403,248.401 78.727,248.072 80.273 C 246.846 86.035,246.358 88.290,246.020 89.750 C 245.830 90.575,245.672 91.344,245.670 91.458 C 245.668 91.618,246.460 91.667,249.089 91.667 C 251.683 91.667,252.525 91.616,252.571 91.458 C 252.683 91.076,253.174 88.447,253.669 85.583 C 253.938 84.025,254.249 82.394,254.361 81.958 L 254.563 81.167 260.198 81.167 C 263.298 81.167,265.834 81.185,265.834 81.208 C 265.839 81.374,266.541 85.129,266.731 86.000 C 266.860 86.596,267.139 88.115,267.350 89.375 L 267.734 91.667 271.303 91.667 L 274.872 91.667 274.787 91.292 C 274.740 91.085,274.472 89.816,274.192 88.471 C 273.911 87.126,273.569 85.588,273.431 85.054 C 273.293 84.520,272.953 83.033,272.676 81.750 C 272.398 80.467,271.905 78.217,271.580 76.750 C 271.255 75.283,270.683 72.696,270.309 71.000 C 269.936 69.304,269.338 66.604,268.982 65.000 C 268.625 63.396,268.075 60.883,267.761 59.417 C 267.446 57.950,267.139 56.622,267.079 56.465 C 267.019 56.308,266.720 54.996,266.416 53.548 C 266.111 52.101,265.618 49.773,265.319 48.375 L 264.777 45.833 260.225 45.833 L 255.673 45.833 255.570 46.292 M280.500 68.750 L 280.500 91.667 283.917 91.667 L 287.333 91.667 287.333 81.514 C 287.333 75.929,287.379 71.242,287.434 71.097 C 287.524 70.863,288.261 70.833,294.018 70.833 L 300.500 70.833 300.500 81.250 L 300.500 91.667 304.000 91.667 L 307.500 91.667 307.500 68.750 L 307.500 45.833 304.001 45.833 L 300.503 45.833 300.460 55.542 L 300.417 65.250 294.103 65.294 C 289.581 65.325,287.724 65.284,287.561 65.148 C 287.373 64.992,287.333 63.280,287.333 55.396 L 287.333 45.833 283.917 45.833 L 280.500 45.833 280.500 68.750 M317.167 68.750 L 317.167 91.667 320.167 91.667 L 323.167 91.667 323.167 73.972 C 323.167 64.240,323.222 56.333,323.289 56.400 C 323.415 56.526,323.573 57.047,324.584 60.667 C 325.504 63.956,326.443 67.300,327.172 69.875 C 327.542 71.181,328.097 73.150,328.405 74.250 C 329.184 77.030,330.221 80.713,330.890 83.083 C 331.201 84.183,331.724 86.069,332.053 87.273 C 332.381 88.478,332.811 89.959,333.006 90.565 L 333.362 91.667 337.848 91.667 L 342.333 91.667 342.333 68.750 L 342.333 45.833 339.333 45.833 L 336.333 45.833 336.333 63.583 C 336.333 73.346,336.277 81.333,336.207 81.333 C 336.061 81.333,335.813 80.592,335.150 78.167 C 334.887 77.204,334.369 75.367,333.999 74.083 C 333.629 72.800,333.067 70.813,332.751 69.667 C 332.436 68.521,331.837 66.383,331.421 64.917 C 331.004 63.450,330.410 61.350,330.099 60.250 C 329.789 59.150,329.216 57.125,328.828 55.750 C 328.439 54.375,327.879 52.387,327.584 51.333 C 327.039 49.388,326.193 46.421,326.075 46.042 C 326.026 45.882,324.980 45.833,321.589 45.833 L 317.167 45.833 317.167 68.750 M230.667 51.441 C 232.686 52.354,233.251 53.770,233.248 57.917 C 233.244 63.568,232.137 64.833,227.197 64.833 L 224.500 64.833 224.500 57.897 L 224.500 50.961 227.208 51.031 C 229.474 51.090,230.039 51.157,230.667 51.441 M260.922 54.972 C 261.643 59.004,262.281 62.433,262.602 64.000 C 262.742 64.688,263.112 66.675,263.423 68.417 C 263.734 70.158,264.136 72.296,264.317 73.167 C 264.497 74.037,264.668 74.975,264.697 75.250 L 264.750 75.750 260.103 75.794 L 255.456 75.839 255.553 75.294 C 255.606 74.995,255.880 73.438,256.161 71.833 C 256.442 70.229,256.822 68.204,257.006 67.333 C 257.190 66.462,257.530 64.700,257.763 63.417 C 259.619 53.165,260.017 51.239,260.209 51.582 C 260.295 51.735,260.615 53.260,260.922 54.972 M230.242 70.341 C 233.350 70.790,234.826 73.337,234.826 78.250 C 234.826 84.465,232.915 86.431,227.000 86.303 L 224.583 86.250 224.540 78.208 L 224.497 70.167 226.790 70.170 C 228.051 70.172,229.605 70.249,230.242 70.341 " stroke="none" fill="#000000" fill-rule="evenodd"></path></g></svg>