<?xml version="1.0" encoding="UTF-8" standalone="no"?>
<!-- Created with Inkscape (http://www.inkscape.org/) -->
<svg
   xmlns:svg="http://www.w3.org/2000/svg"
   xmlns="http://www.w3.org/2000/svg"
   version="1.0"
   width="1600"
   height="2500"
   id="svg29280">
  <defs
     id="defs29282" />
  <g
     transform="translate(-757.5233,1703.37)"
     id="layer1">
    <path
       d="M 2252.9582,796.63004 C 2280.8798,796.63004 2307.1355,785.80157 2326.8916,766.13996 C 2346.6363,746.47835 2357.5233,720.34065 2357.5233,692.53435 L 2357.5233,-1599.2742 C 2357.5233,-1627.0806 2346.6363,-1653.2183 2326.8916,-1672.8799 C 2307.1355,-1692.5416 2280.8798,-1703.37 2252.9582,-1703.37 L 862.08841,-1703.37 C 804.43856,-1703.37 757.52329,-1656.6722 757.52329,-1599.2742 L 757.52329,692.53435 C 757.52329,720.34065 768.41036,746.47835 788.15491,766.13996 C 807.91117,785.80157 834.16684,796.63004 862.08841,796.63004 L 2252.9582,796.63004 z "
       style="fill:black;fill-rule:nonzero;stroke:none"
       id="path29294" />
    <path
       d="M 862.08841,770.37566 C 841.20588,770.37566 821.56694,762.27765 806.80839,747.5752 C 792.03811,732.87275 783.89626,713.32782 783.89626,692.53435 L 783.89626,-1599.2742 C 783.89626,-1620.0677 792.03811,-1639.6127 806.80839,-1654.3151 C 821.56694,-1669.0176 841.20588,-1677.1155 862.08841,-1677.1155 L 2252.9582,-1677.1155 C 2273.8407,-1677.1155 2293.4679,-1669.0176 2308.2382,-1654.3151 C 2323.0084,-1639.6127 2331.1503,-1620.0677 2331.1503,-1599.2742 L 2331.1503,692.53435 C 2331.1503,735.45151 2296.0724,770.37566 2252.9582,770.37566 L 862.08841,770.37566"
       style="fill:white;fill-rule:nonzero;stroke:none"
       id="path28773" />
    <path
       d="M 1026.638,-1576.4738 L 1026.638,-955.57533 L 946.252,-976.20542 C 938.55597,-978.63251 929.82754,-977.30228 923.0818,-971.86471 C 912.40589,-963.26495 910.75172,-947.67568 919.39802,-937.05723 L 1111.6111,-629.85771 L 1303.8357,-937.05723 C 1312.4703,-947.67568 1310.8279,-963.26495 1300.1521,-971.86471 C 1293.4063,-977.30228 1284.6779,-978.63251 1276.9702,-976.20542 L 1196.5959,-955.57533 L 1196.5959,-1576.4738 L 1026.638,-1576.4738"
       style="fill:black;fill-rule:nonzero;stroke:none"
       id="path28775" />
    <path
       d="M 2089.4059,595.39316 L 2089.394,-1174.9102 L 2169.7682,-1154.2801 C 2177.4642,-1151.8531 2186.2044,-1153.1832 2192.9502,-1158.6208 C 2203.6261,-1167.2206 2205.2686,-1182.8098 2196.634,-1193.4283 L 2004.4092,-1500.6278 L 1812.1963,-1193.4283 C 1803.5499,-1182.7982 1805.204,-1167.2206 1815.8799,-1158.6092 C 1822.6257,-1153.1832 1831.3541,-1151.8413 1839.0501,-1154.2684 L 1919.436,-1174.8986 L 1919.436,595.39316 L 2089.4059,595.39316"
       style="fill:black;fill-rule:nonzero;stroke:none"
       id="path28777" />
    <path
       d="M 1444.699,-333.76668 C 1444.699,-354.42013 1453.3102,-373.06658 1467.1535,-386.34546 L 1594.2555,-506.05373 L 1634.6126,-433.84838 C 1638.1439,-426.61383 1645.1359,-421.2346 1653.7355,-420.10274 C 1667.3559,-418.32911 1679.8385,-427.87404 1681.6216,-441.43297 L 1772.9064,-791.7597 L 1416.8008,-718.85421 C 1403.11,-717.76903 1392.8916,-705.8437 1393.9826,-692.21476 C 1394.6748,-683.60333 1399.7195,-676.38045 1406.782,-672.49482 L 1477.1726,-628.70251 L 1349.8478,-508.42247 C 1303.6012,-464.09341 1274.835,-401.8297 1274.835,-332.87988 L 1274.753,595.41651 L 1444.7108,595.41651 L 1444.699,-333.76668"
       style="fill:black;fill-rule:nonzero;stroke:none"
       id="path28779" />
  </g>
</svg>
