<?xml version="1.0" encoding="UTF-8" standalone="no"?>
<!-- Created with Inkscape (http://www.inkscape.org/) -->
<svg
   xmlns:svg="http://www.w3.org/2000/svg"
   xmlns="http://www.w3.org/2000/svg"
   version="1.0"
   width="1500"
   height="1500"
   id="svg29223">
  <defs
     id="defs29225" />
  <g
     transform="translate(-296.4924,1234.769)"
     id="layer1">
    <path
       d="M 1765.0046,265.23075 C 1773.4113,265.23075 1781.3251,261.9891 1787.2674,256.09519 C 1793.219,250.20128 1796.4924,242.36422 1796.4924,234.02987 L 1796.4924,-1203.5684 C 1796.4924,-1211.9027 1793.219,-1219.7398 1787.2674,-1225.6337 C 1781.3251,-1231.5184 1773.4113,-1234.7693 1765.0046,-1234.7693 L 327.98937,-1234.7693 C 310.62742,-1234.7693 296.49236,-1220.7712 296.49236,-1203.5684 L 296.49236,234.02987 C 296.49236,242.36422 299.77504,250.20128 305.71735,256.09519 C 311.66896,261.9891 319.57343,265.23075 327.98937,265.23075 L 1765.0046,265.23075 z "
       style="fill:black;fill-rule:nonzero;stroke:none"
       id="path29245" />
    <path
       d="M 327.98937,261.54706 C 320.56847,261.54706 313.59393,258.68298 308.34908,253.48898 C 303.10422,248.29497 300.21211,241.37883 300.21211,234.02987 L 300.21211,-1203.5684 C 300.21211,-1210.9173 303.10422,-1217.8243 308.34908,-1223.0275 C 313.59393,-1228.2215 320.56847,-1231.0856 327.98937,-1231.0856 L 1765.0046,-1231.0856 C 1772.4163,-1231.0856 1779.3908,-1228.2215 1784.6449,-1223.0275 C 1789.8898,-1217.8243 1792.7819,-1210.9173 1792.7819,-1203.5684 L 1792.7819,234.02987 C 1792.7819,249.20668 1780.3207,261.54706 1765.0046,261.54706 L 327.98937,261.54706"
       style="fill:white;fill-rule:nonzero;stroke:none"
       id="path28717" />
    <path
       d="M 1162.6649,-710.36785 L 1046.497,-1092.505 L 930.3291,-710.36785 L 1001.209,-710.36785 L 937.29434,122.96651 L 1155.6997,122.96651 L 1091.7757,-710.36785 L 1162.6649,-710.36785"
       style="fill:black;fill-rule:nonzero;stroke:none"
       id="path28719" />
    <path
       d="M 502.8178,122.96651 L 721.21384,122.96651 L 657.29917,-710.36785 C 657.29917,-710.36785 659.26134,-786.33482 634.47849,-838.51434 C 609.69563,-890.69386 584.09442,-898.83482 569.41999,-910.64106 C 544.63713,-930.59747 488.77573,-933.66414 488.77573,-933.66414 L 481.13164,-933.66414 L 481.13164,-1096.336 L 343.27756,-873.81333 L 481.13164,-651.28141 L 481.13164,-813.95331 L 494.97842,-813.95331 C 512.10789,-813.95331 532.15736,-805.32426 549.28683,-778.66353 C 570.97299,-744.89327 566.73247,-710.36785 566.73247,-710.36785 L 502.8178,122.96651"
       style="fill:black;fill-rule:nonzero;stroke:none"
       id="path28721" />
    <path
       d="M 789.36903,-553.82929 L 810.28335,-553.82929 L 810.28335,-1191.4951 L 789.36903,-1191.4951 L 789.36903,-553.82929 z "
       style="fill:black;fill-rule:nonzero;stroke:none"
       id="path28723" />
    <path
       d="M 789.36903,-297.53632 L 810.28335,-297.53632 L 810.28335,-425.68281 L 789.36903,-425.68281 L 789.36903,-297.53632 z "
       style="fill:black;fill-rule:nonzero;stroke:none"
       id="path28725" />
    <path
       d="M 789.36903,-41.243341 L 810.28335,-41.243341 L 810.28335,-169.38983 L 789.36903,-169.38983 L 789.36903,-41.243341 z "
       style="fill:black;fill-rule:nonzero;stroke:none"
       id="path28727" />
    <path
       d="M 789.36903,215.04964 L 810.28335,215.04964 L 810.28335,86.903147 L 789.36903,86.903147 L 789.36903,215.04964 z "
       style="fill:black;fill-rule:nonzero;stroke:none"
       id="path28729" />
    <path
       d="M 1590.1762,122.96651 L 1371.7709,122.96651 L 1435.6948,-710.36785 C 1435.6948,-710.36785 1433.7327,-786.33482 1458.5155,-838.51434 C 1483.2984,-890.69386 1508.8996,-898.83482 1523.574,-910.64106 C 1548.3569,-930.59747 1604.209,-933.66414 1604.209,-933.66414 L 1611.8624,-933.66414 L 1611.8624,-1096.336 L 1749.7165,-873.81333 L 1611.8624,-651.28141 L 1611.8624,-813.95331 L 1598.0156,-813.95331 C 1580.8861,-813.95331 1560.8274,-805.32426 1543.7072,-778.66353 C 1522.021,-744.89327 1526.2615,-710.36785 1526.2615,-710.36785 L 1590.1762,122.96651"
       style="fill:black;fill-rule:nonzero;stroke:none"
       id="path28731" />
    <path
       d="M 1282.72,-1191.4859 L 1303.6343,-1191.4859 L 1303.6343,-553.82008 L 1282.72,-553.82008 L 1282.72,-1191.4859 z "
       style="fill:black;fill-rule:nonzero;stroke:none"
       id="path28733" />
    <path
       d="M 1282.72,-425.68281 L 1303.6343,-425.68281 L 1303.6343,-297.53632 L 1282.72,-297.53632 L 1282.72,-425.68281 z "
       style="fill:black;fill-rule:nonzero;stroke:none"
       id="path28735" />
    <path
       d="M 1282.72,-169.38983 L 1303.6343,-169.38983 L 1303.6343,-41.243341 L 1282.72,-41.243341 L 1282.72,-169.38983 z "
       style="fill:black;fill-rule:nonzero;stroke:none"
       id="path28737" />
    <path
       d="M 1282.72,86.903147 L 1303.6343,86.903147 L 1303.6343,215.04964 L 1282.72,215.04964 L 1282.72,86.903147 z "
       style="fill:black;fill-rule:nonzero;stroke:none"
       id="path28739" />
  </g>
</svg>
