<?xml version="1.0" encoding="UTF-8" standalone="no"?>
<!-- Created with Inkscape (http://www.inkscape.org/) -->
<svg
   xmlns:svg="http://www.w3.org/2000/svg"
   xmlns="http://www.w3.org/2000/svg"
   version="1.0"
   width="309.78891"
   height="142.93654"
   id="svg26787">
  <defs
     id="defs26789" />
  <g
     transform="translate(-711.7748,-116.2515)"
     id="layer1">
    <g
       transform="matrix(4.19816,0,0,-3.9642,-1163.689,2265.468)"
       style="fill:white"
       id="g26409">
        <path
   d="M 502.548,506.999 C 512.008,506.999 519.677,514.668 519.677,524.128 C 519.677,533.588 512.008,541.257 502.548,541.257 L 464.713,541.257 C 455.253,541.257 447.584,533.588 447.584,524.128 C 447.584,514.668 455.253,506.999 464.713,506.999 L 502.548,506.999 z "
   style="fill:white;stroke:black;stroke-width:1.74800003;stroke-linecap:butt;stroke-linejoin:miter;stroke-miterlimit:4"
   id="path26411" />

      </g>
    <path
       d="M 786.17662,158.71245 L 772.35356,170.52382 L 772.34936,154.04496 L 786.17242,142.67339 L 799.99967,142.67339 L 799.99967,232.9367 L 786.17242,232.9367 L 786.17662,158.71245"
       style="fill:black;fill-rule:nonzero;stroke:none"
       id="path26413" />
    <path
       d="M 924.45338,149.08822 C 928.11601,144.60695 933.80736,142.04736 940.04474,142.04736 C 946.28213,142.04736 951.97348,144.60695 955.63191,149.08822 C 959.29454,153.43874 960.65122,156.64021 960.65122,166.625 C 960.65122,177.37846 960.3782,180.64729 953.73759,185.63969 C 960.3782,190.3785 960.65122,193.77413 960.65122,207.60227 C 960.65122,218.74007 959.70196,221.81079 956.85418,225.78093 C 953.73759,230.2622 948.04204,233.84405 940.04474,233.84405 C 932.04745,233.84405 926.3519,230.2622 923.2353,225.78093 C 920.38753,221.81079 919.43827,218.74007 919.43827,207.60227 C 919.43827,193.77413 919.71128,190.3785 926.3519,185.63969 C 919.71128,180.64729 919.43827,177.37846 919.43827,166.625 C 919.43827,156.64021 920.79495,153.43874 924.45338,149.08822 z M 946.82396,161.50581 C 946.82396,157.92001 943.56876,155.10287 940.04474,155.10287 C 936.52073,155.10287 933.26552,157.92001 933.26552,161.50581 L 933.26552,174.3751 C 933.26552,177.96091 936.52073,180.77805 940.04474,180.77805 C 943.56876,180.77805 946.82396,177.96091 946.82396,174.3751 L 946.82396,161.50581 z M 946.82396,196.90824 C 946.82396,193.32243 943.56876,190.5053 940.04474,190.5053 C 936.52073,190.5053 933.26552,193.32243 933.26552,196.90824 L 933.26552,214.38559 C 933.26552,217.9714 936.52073,220.78854 940.04474,220.78854 C 943.56876,220.78854 946.82396,217.9714 946.82396,214.38559 L 946.82396,196.90824"
       style="fill:black;fill-rule:nonzero;stroke:none"
       id="path26415" />
    <path
       d="M 886.74344,234.33933 C 897.72712,234.33933 907.34992,226.91413 907.34992,214.75011 L 907.34992,195.7592 C 907.34992,183.59915 897.72292,176.17395 886.74344,176.17395 C 884.3913,176.17395 881.99295,176.95451 879.96842,178.07185 L 879.96422,161.24035 C 879.96422,157.52775 882.812,154.71061 886.74344,154.71061 C 890.67489,154.71061 893.52266,157.52775 893.52266,161.24035 L 907.34992,161.24035 C 907.34992,149.0803 897.72292,141.6551 886.74344,141.6551 C 875.76396,141.6551 866.13697,149.0803 866.13697,161.24035 L 866.14117,214.75011 C 866.14117,226.91413 875.76396,234.33933 886.74344,234.33933 z M 886.74344,189.23342 C 890.67489,189.23342 893.52266,192.0466 893.52266,195.7592 L 893.52266,214.75011 C 893.52266,218.46271 890.67489,221.27985 886.74344,221.27985 C 882.812,221.27985 879.96842,218.46271 879.96842,214.75011 L 879.96842,195.7592 C 879.96842,192.0466 882.812,189.23342 886.74344,189.23342"
       style="fill:black;fill-rule:nonzero;stroke:none"
       id="path26417" />
    <path
       d="M 845.6355,186.40836 C 853.49838,181.93105 854.17463,179.88259 854.17463,167.33424 C 854.17463,155.68531 852.54913,152.09951 848.8907,148.00653 C 846.45035,145.1894 841.29663,141.60359 833.84117,141.60359 C 822.45426,141.60359 812.96587,150.18179 812.96587,160.93525 L 826.79313,161.06205 C 826.79313,158.37566 828.69165,154.66306 833.57235,154.66306 C 837.77261,154.66306 840.34737,157.34945 840.34737,161.06205 L 840.34737,172.84172 C 840.34737,179.62504 837.6382,180.77805 829.36789,180.77805 L 825.90268,180.77805 L 825.90268,192.28037 L 829.36789,192.28037 L 829.36789,192.30018 C 838.31444,192.30018 840.34737,193.83356 840.34737,200.87442 L 840.34737,213.49013 C 840.34737,217.9714 837.77261,220.78854 833.57235,220.78854 C 829.36789,220.78854 826.81833,217.65046 826.81833,214.38559 L 812.96587,214.38559 C 812.96587,228.72486 824.6258,233.84405 833.43374,233.84405 C 841.83846,233.84405 847.12659,230.2622 850.5162,225.52339 C 853.36398,221.55721 854.17463,218.86686 854.17463,206.8336 C 854.17463,193.90488 854.17463,191.40076 845.6355,186.40836"
       style="fill:black;fill-rule:nonzero;stroke:none"
       id="path26419" />
  </g>
</svg>
