<?xml version="1.0" encoding="utf-8"?>
<!-- Generator: Adobe Illustrator 15.0.2, SVG Export Plug-In . SVG Version: 6.00 Build 0)  -->
<!DOCTYPE svg PUBLIC "-//W3C//DTD SVG 1.1//EN" "http://www.w3.org/Graphics/SVG/1.1/DTD/svg11.dtd">
<svg version="1.1" id="Vrstva_1" xmlns="http://www.w3.org/2000/svg" xmlns:xlink="http://www.w3.org/1999/xlink" x="0px" y="0px"
	 width="900px" height="1200px" viewBox="0 0 900 1200" enable-background="new 0 0 900 1200" xml:space="preserve">
<g>
	<path fill-rule="evenodd" clip-rule="evenodd" fill="#009FE3" d="M10.465,1171.467c0,15.765,12.781,28.533,28.545,28.533h830.481
		c15.729,0,28.509-12.769,28.509-28.533V32.558C898,16.835,885.22,4,869.491,4H39.01C23.246,4,10.465,16.835,10.465,32.558V1171.467
		z"/>
	<rect x="146.44" y="293.086" fill-rule="evenodd" clip-rule="evenodd" fill="#FFFFFF" width="616.881" height="616.838"/>
	<polygon fill-rule="evenodd" clip-rule="evenodd" fill="#E30613" points="371.807,519.388 206.864,519.388 206.864,684.429 
		371.807,684.429 371.807,849.445 536.805,849.445 536.805,684.429 701.889,684.429 701.889,519.388 536.805,519.388 
		536.805,354.353 371.807,354.353 	"/>
</g>
</svg>
