<?xml version="1.0" encoding="utf-8"?>
<!-- Generator: Adobe Illustrator 15.0.2, SVG Export Plug-In . SVG Version: 6.00 Build 0)  -->
<!DOCTYPE svg PUBLIC "-//W3C//DTD SVG 1.1//EN" "http://www.w3.org/Graphics/SVG/1.1/DTD/svg11.dtd">
<svg version="1.1" id="Vrstva_1" xmlns="http://www.w3.org/2000/svg" xmlns:xlink="http://www.w3.org/1999/xlink" x="0px" y="0px"
	 width="785px" height="1200px" viewBox="0 0 785 1200" enable-background="new 0 0 785 1200" xml:space="preserve">
<g>
	<path fill-rule="evenodd" clip-rule="evenodd" fill="#009FE3" d="M5.341,1162.732c0,17.285,13.982,31.268,31.261,31.268h713.131
		c17.286,0,31.267-13.982,31.267-31.268V36.676c0-17.292-13.98-31.272-31.267-31.272H36.602c-17.279,0-31.261,13.981-31.261,31.272
		V1162.732z"/>
	<polygon fill-rule="evenodd" clip-rule="evenodd" fill="#FFFFFF" points="330.054,739.623 330.054,885.85 394.538,885.85 
		394.538,782.307 671.031,664.916 671.031,315.188 394.538,197.81 394.538,94.254 330.054,94.254 330.054,240.494 606.567,357.866 
		606.567,622.243 	"/>
	<rect x="144.159" y="738.748" fill-rule="evenodd" clip-rule="evenodd" fill="#FFFFFF" width="64.483" height="148.049"/>
	<rect x="144.159" y="523.816" fill-rule="evenodd" clip-rule="evenodd" fill="#FFFFFF" width="64.483" height="148.049"/>
	<rect x="144.159" y="309.769" fill-rule="evenodd" clip-rule="evenodd" fill="#FFFFFF" width="64.483" height="148.044"/>
	<rect x="144.159" y="93.933" fill-rule="evenodd" clip-rule="evenodd" fill="#FFFFFF" width="64.483" height="148.043"/>
	<path fill-rule="evenodd" clip-rule="evenodd" fill="#F7F8F8" d="M503.194,1103.893h19.204v-66.591c0-4.483,0-7.679,1.288-10.884
		c0.633-2.552,1.919-4.494,3.195-6.415c1.286-1.264,3.207-2.55,4.481-3.183c1.932-0.655,3.84-1.286,5.126-1.286
		c3.838,0,6.402,1.286,8.321,3.838c1.287,2.552,2.563,7.677,2.563,14.722v69.799h19.205v-70.43c0-11.539-1.919-19.848-5.757-24.975
		c-3.84-5.759-10.884-8.309-19.849-8.309c-4.483,0-8.321,1.263-12.805,3.182c-3.849,1.92-7.044,5.127-9.608,8.965
		c-4.469-7.676-11.526-12.146-21.768-12.146c-3.838,0-8.321,1.263-12.159,3.182c-3.838,1.92-7.046,5.127-9.608,9.608l-3.194-10.871
		h-12.803v101.794h18.56v-65.948c0-4.481,0.646-7.688,1.919-10.896c0.646-2.551,1.932-5.125,3.208-6.391
		c1.275-1.919,3.207-3.205,4.483-3.838c1.919-0.655,3.194-1.286,5.113-1.286c3.206,0,6.401,1.286,7.689,3.838
		c1.906,2.552,3.194,7.677,3.194,14.722V1103.893z M438.535,1036.013c0-12.803-0.633-23.687-1.921-32.651
		c-1.286-8.964-3.205-16.641-6.4-22.399c-2.563-5.758-6.402-9.596-10.24-12.171c-4.481-2.552-10.251-3.838-16.011-3.838
		c-6.4,0-12.159,1.286-16.008,3.838c-4.471,2.575-7.679,6.413-10.229,12.171c-3.207,5.759-5.127,13.436-6.415,22.399
		c-1.275,8.965-1.919,19.849-1.919,32.651c0,12.804,0.644,23.687,1.919,32.021c1.288,9.596,3.208,16.642,6.415,22.4
		c2.55,5.77,5.758,9.608,10.229,12.171c3.849,1.919,9.607,3.207,16.008,3.207c5.76,0,11.529-1.288,16.011-3.207
		c3.838-2.563,7.678-6.401,10.24-12.171c3.195-5.759,5.114-12.805,6.4-22.4C437.902,1059.699,438.535,1048.816,438.535,1036.013z
		 M418.687,1036.013c0,11.54,0,20.505-0.645,27.538c-0.644,7.033-1.274,12.792-2.55,16.655c-1.276,4.469-2.564,7.033-4.483,8.307
		c-1.919,1.288-4.494,1.921-7.046,1.921c-3.205,0-5.757-0.633-7.676-2.552c-1.932-1.288-3.208-4.493-4.483-8.334
		c-1.287-4.469-1.93-10.238-2.563-17.284c-0.644-6.402-0.644-15.367-0.644-26.251s0-20.479,0.644-27.524
		c0.633-7.046,1.275-12.803,2.563-16.643c1.275-4.481,2.552-7.044,5.114-8.963c1.92-1.276,3.84-1.921,7.045-1.921
		c2.552,0,5.127,0.645,7.046,1.921c1.288,1.273,3.207,4.481,4.483,8.319c1.275,3.851,1.906,9.608,2.55,16.641
		C418.687,1014.889,418.687,1024.498,418.687,1036.013z M353.383,1036.013c0-12.803-0.631-23.687-1.92-32.651
		c-1.286-8.964-3.205-16.641-6.4-22.399c-2.563-5.758-6.402-9.596-10.24-12.171c-4.483-2.552-10.253-3.838-16.01-3.838
		c-6.402,0-12.172,1.286-16.641,3.838c-4.483,2.575-7.678,6.413-10.253,12.171c-3.195,5.759-5.114,13.436-6.39,22.399
		c-1.286,8.965-1.919,19.849-1.919,32.651c0,12.804,0.633,23.687,1.919,32.021c1.276,9.596,3.195,16.642,6.39,22.4
		c2.575,5.77,5.77,9.608,10.253,12.171c4.469,1.919,10.239,3.207,16.641,3.207c5.757,0,11.527-1.288,16.01-3.207
		c3.838-2.563,7.677-6.401,10.24-12.171c3.195-5.759,5.114-12.805,6.4-22.4C352.752,1059.699,353.383,1048.816,353.383,1036.013z
		 M333.534,1036.013c0,11.54,0,20.505-0.63,27.538c-0.645,7.033-1.289,12.792-2.564,16.655c-1.274,4.469-2.562,7.033-4.481,8.307
		c-1.919,1.288-4.483,1.921-7.045,1.921c-3.195,0-5.757-0.633-7.676-2.552c-1.919-1.288-3.208-4.493-4.496-8.334
		c-1.274-4.469-1.919-10.238-2.55-17.284c-0.632-6.402-0.632-15.367-0.632-26.251s0-20.479,0.632-27.524
		c0.631-7.046,1.276-12.803,2.55-16.643c1.289-4.481,2.577-7.044,5.126-8.963c1.919-1.276,3.851-1.921,7.046-1.921
		c2.563,0,5.126,0.645,7.045,1.921c1.287,1.273,3.208,4.481,4.481,8.319c1.276,3.851,1.919,9.608,2.564,16.641
		C333.534,1014.889,333.534,1024.498,333.534,1036.013z M267.599,1062.907c0-5.757-0.643-10.884-1.919-14.722
		c-1.287-4.483-3.206-7.677-5.757-10.241c-1.919-2.562-4.494-4.481-7.689-5.77c-3.208-1.919-5.765-2.552-8.321-3.207
		c2.557-0.631,5.114-1.919,7.678-3.839c2.562-1.263,4.481-3.205,6.413-5.757c2.551-2.552,3.838-5.127,5.114-8.321
		c1.276-3.838,1.919-7.033,1.919-11.527c0-6.39-1.275-12.159-2.562-16.641c-1.919-4.483-4.471-8.321-7.678-10.884
		c-3.206-2.552-6.408-4.471-10.246-5.127c-3.843-1.288-7.684-1.919-12.165-1.919c-5.764,0-10.884,1.286-16.005,3.206
		c-5.125,1.919-9.601,5.126-14.084,8.321l8.321,12.803c3.201-2.563,7.046-4.481,10.239-5.758c3.846-1.288,7.046-1.288,10.253-1.288
		c1.275,0,3.195,0,4.476,0c1.919,0,3.201,1.288,5.122,2.564c1.281,1.286,3.206,2.563,3.843,5.125
		c1.281,2.551,1.919,6.39,1.919,10.884c0,7.678-1.919,12.805-5.119,16.01c-3.2,3.838-7.045,5.104-12.165,5.104h-4.483v16.021h5.764
		c2.563,0,4.481,0,7.039,0.633c1.919,0.644,3.845,1.932,5.764,3.849c1.281,1.921,3.2,4.471,3.846,7.679
		c1.274,3.207,1.274,7.676,1.274,12.803c0,5.126-0.638,8.965-1.919,12.172c-0.638,3.183-2.557,5.758-4.481,7.677
		c-1.919,2.552-3.838,3.838-6.402,4.483c-2.557,1.273-5.119,1.273-7.683,1.273c-4.481,0-7.682-0.631-10.877-1.273
		c-3.845-1.276-6.408-3.195-8.972-4.483l-8.32,13.447c3.206,2.563,7.046,4.482,12.165,6.401c5.126,1.288,10.884,2.552,17.93,2.552
		c5.119,0,9.595-1.264,14.722-1.92c4.476-1.919,8.327-4.471,12.165-8.321c3.208-3.194,6.402-7.676,8.321-12.79
		C266.956,1076.343,267.599,1070.584,267.599,1062.907z"/>
</g>
</svg>
