<?xml version="1.0" encoding="UTF-8" standalone="no"?>
<!-- Created with Inkscape (http://www.inkscape.org/) -->
<svg
   xmlns:svg="http://www.w3.org/2000/svg"
   xmlns="http://www.w3.org/2000/svg"
   version="1.0"
   width="1740"
   height="460"
   id="svg24516">
  <defs
     id="defs24518" />
  <g
     transform="translate(-737.167,-578.4639)"
     id="layer1">
    <path
       d="M 2458.5211,596.31343 C 2446.517,584.80953 2430.5319,578.4639 2413.5313,578.4639 L 800.80275,578.4639 C 765.70458,578.4639 737.167,605.81241 737.167,639.40923 L 737.167,977.53804 C 737.167,993.81089 743.78853,1009.1105 755.79259,1020.6144 C 767.81697,1032.1377 783.80207,1038.4639 800.80275,1038.4639 L 2413.5313,1038.4639 C 2430.5319,1038.4639 2446.517,1032.1377 2458.5211,1020.6144 C 2470.5455,1009.1105 2477.167,993.81089 2477.167,977.53804 L 2477.167,639.40923 C 2477.167,623.13638 2470.5455,607.83678 2458.5211,596.31343"
       style="fill:black;fill-rule:nonzero;stroke:none"
       id="path21379" />
    <path
       d="M 2236.5577,998.19054 L 2435.1223,808.71695 L 2236.5577,618.73726 L 779.21169,618.73726 L 779.21169,998.19054 L 2236.5577,998.19054"
       style="fill:#fff100;fill-rule:nonzero;stroke:none"
       id="path21381" />
    <path
       d="M 835.57594,886.46068 L 870.85691,886.46068 C 871.1819,911.88215 892.75265,932.41786 919.38095,932.41786 C 946.00925,932.41786 967.55969,911.88215 967.90498,886.46068 L 1195.5962,886.46068 C 1195.9415,911.88215 1217.5123,932.41786 1244.1406,932.41786 C 1270.7486,932.41786 1292.3193,911.88215 1292.6443,886.46068 L 1319.4554,886.46068 C 1324.9598,886.46068 1329.4487,882.17835 1329.4487,876.9033 C 1329.4487,871.60879 1324.9598,867.32646 1319.4554,867.32646 L 1309.5638,867.32646 L 1309.5638,783.85997 C 1309.5638,775.29532 1302.3126,768.34626 1293.3755,768.34626 L 1282.4277,768.34626 C 1277.2686,754.35083 1266.2598,724.60811 1266.3004,724.70544 C 1265.9754,723.75165 1262.8271,715.24538 1254.5604,709.30852 C 1246.1717,703.27433 1234.0255,703.09914 1232.6849,703.09914 L 1175.3864,703.09914 L 1175.3051,702.7877 C 1175.3051,694.22304 1164.3573,687.27399 1155.3999,687.27399 L 835.57594,687.27399 L 835.57594,886.46068 z M 1265.7723,768.34626 L 1192.387,768.34626 L 1179.3065,718.14569 C 1201.1006,718.14569 1232.6646,718.14569 1232.6443,718.14569 C 1234.7567,718.16515 1241.5814,718.78804 1245.1359,721.35743 C 1249.5434,724.51079 1251.4121,729.47439 1251.4527,729.59119 L 1265.7723,768.34626"
       style="fill:black;fill-rule:nonzero;stroke:none"
       id="path21383" />
    <path
       d="M 1656.1785,691.88722 L 1613.1589,859.07324 L 1573.5719,691.88722 L 1573.5719,691.86776 L 1538.0472,691.88722 L 1498.4602,859.07324 L 1455.4405,691.88722 L 1419.9158,691.86776 L 1481.3782,920.9529 L 1515.5421,920.9529 L 1555.7994,762.00063 L 1596.077,920.9529 L 1630.2408,920.9529 L 1691.7032,691.88722 L 1656.1785,691.88722"
       style="fill:black;fill-rule:nonzero;stroke:none"
       id="path21431" />
    <path
       d="M 2029.056,754.07832 C 2017.1941,754.07832 2005.3322,758.41905 1994.8921,765.56275 L 1994.8921,757.34846 L 1960.7283,757.34846 L 1960.7283,920.9529 L 1994.8921,920.9529 L 1994.8921,819.52009 C 1994.8921,801.43699 2010.1866,786.79921 2029.056,786.79921 C 2047.9253,786.79921 2063.2198,801.43699 2063.2198,819.52009 L 2063.2198,920.9529 L 2097.3837,920.9529 L 2097.3837,819.52009 C 2097.3837,783.37334 2066.7946,754.07832 2029.056,754.07832"
       style="fill:black;fill-rule:nonzero;stroke:none"
       id="path21433" />
    <path
       d="M 1856.7946,751.48946 C 1819.056,751.48946 1788.4669,780.78448 1788.4669,816.93123 L 1788.4669,856.1924 C 1788.4669,892.33915 1819.056,921.63418 1856.7946,921.63418 C 1886.1243,921.63418 1911.1277,903.94037 1920.8163,879.0834 L 1881.2293,879.06393 C 1875.014,885.13706 1866.3613,888.91329 1856.7946,888.91329 C 1837.9253,888.91329 1822.6308,874.25605 1822.6308,856.1924 L 1822.6308,852.92226 L 1925.102,852.92226 L 1925.102,816.93123 C 1925.102,780.78448 1894.513,751.48946 1856.7946,751.48946 z M 1890.9585,820.20137 L 1822.6308,820.20137 L 1822.6308,816.93123 C 1822.6308,798.86759 1837.9253,784.21035 1856.7946,784.21035 C 1875.6436,784.21035 1890.9585,798.86759 1890.9585,816.93123 L 1890.9585,820.20137"
       style="fill:black;fill-rule:nonzero;stroke:none"
       id="path21435" />
    <path
       d="M 1718.3518,721.98032 L 1752.5157,721.98032 L 1752.5157,689.25943 L 1718.3518,689.25943 L 1718.3518,721.98032 z "
       style="fill:black;fill-rule:nonzero;stroke:none"
       id="path21437" />
    <path
       d="M 1718.3518,918.28617 L 1752.5157,918.28617 L 1752.5157,754.70121 L 1718.3518,754.70121 L 1718.3518,918.28617 z "
       style="fill:black;fill-rule:nonzero;stroke:none"
       id="path21439" />
  </g>
</svg>
