<?xml version="1.0" encoding="UTF-8" standalone="no"?>
<!-- Created with Inkscape (http://www.inkscape.org/) -->
<svg
   xmlns:svg="http://www.w3.org/2000/svg"
   xmlns="http://www.w3.org/2000/svg"
   version="1.0"
   width="1600"
   height="2500"
   id="svg23476">
  <defs
     id="defs23478" />
  <g
     transform="translate(-565.3247,1755.766)"
     id="layer1">
    <path
       d="M 2057.3092,734.35531 C 2111.5153,734.35531 2155.446,690.49533 2155.446,636.40131 L 2155.446,-1647.9333 C 2155.446,-1702.0472 2111.5153,-1745.8873 2057.3092,-1745.8873 L 673.33999,-1745.8873 C 619.13424,-1745.8873 575.20343,-1702.0472 575.20343,-1647.9333 L 575.20343,636.40131 C 575.20343,690.49533 619.13424,734.35531 673.33999,734.35531 L 2057.3092,734.35531 z "
       style="fill:white;fill-opacity:1;stroke:black;stroke-width:19.75737572;stroke-linecap:butt;stroke-linejoin:miter;stroke-miterlimit:4"
       id="path21205" />
    <path
       d="M 659.14041,650.12328 L 2071.0969,650.12328 L 2071.0969,-1662.2953 L 659.14041,-1662.2953 L 659.14041,650.12328 z "
       style="fill:#176fc1;fill-rule:nonzero;stroke:none"
       id="path21207" />
    <path
       d="M 1620.5361,10.40347 C 1610.256,2.1096844 1595.2023,3.6894434 1586.8832,13.938087 C 1581.6342,20.415038 1580.3467,28.80747 1582.684,36.19294 L 1605.7004,124.20478 L 877.0227,124.20478 L 877.0227,265.69115 L 1605.7202,265.69115 L 1582.7038,353.72268 C 1580.3467,361.10795 1581.6342,369.50038 1586.8832,375.97733 C 1595.2023,386.22598 1610.256,387.80574 1620.5361,379.51215 L 1917.4106,194.95781 L 1620.5361,10.40347"
       style="fill:white;fill-rule:nonzero;stroke:none"
       id="path21209" />
    <path
       d="M 1310.3113,-1170.7759 C 1247.6009,-1170.7759 1194.0613,-1129.5048 1176.1552,-1072.8312 L 1254.2363,-1072.8312 C 1267.032,-1089.636 1287.513,-1100.8126 1310.3113,-1100.8126 C 1349.0349,-1100.8126 1380.4101,-1069.4941 1380.4101,-1030.8494 C 1364.3461,-1020.8772 1275.2719,-1023.8591 1275.2719,-1023.8591 C 1213.3142,-1023.8591 1163.1021,-980.73184 1163.1021,-918.92415 C 1163.1021,-857.09656 1213.3142,-806.97905 1275.2719,-806.97905 C 1275.2719,-806.97905 1344.7565,-799.53451 1380.4101,-838.2383 L 1380.4101,-813.98922 L 1450.5087,-813.98922 L 1450.5087,-1030.8494 C 1450.5087,-1108.1189 1387.7388,-1170.7759 1310.3113,-1170.7759 z M 1380.4101,-918.92415 C 1365.7921,-863.09977 1275.2719,-876.9423 1275.2719,-876.9423 C 1255.9002,-876.9423 1233.2008,-894.37872 1233.2008,-918.92415 C 1233.2008,-942.50179 1255.9002,-960.88631 1275.2719,-960.88631 C 1275.2719,-960.88631 1372.7841,-958.22043 1380.4101,-974.88675 L 1380.4101,-918.92415"
       style="fill:white;fill-rule:nonzero;stroke:none"
       id="path21211" />
    <path
       d="M 1045.8814,-1307.977 L 1045.8814,-1098.1073 L 870.62488,-1098.1073 L 870.62488,-1307.977 L 800.5262,-1307.977 L 800.5262,-818.27423 L 870.62488,-818.27423 L 870.62488,-1028.1441 L 1045.8814,-1028.1441 L 1045.8814,-818.27423 L 1115.9802,-818.27423 L 1115.9802,-1307.977 L 1045.8814,-1307.977"
       style="fill:white;fill-rule:nonzero;stroke:none"
       id="path21213" />
    <path
       d="M 1653.2977,-951.19057 L 1653.2977,-951.19057 C 1653.2977,-873.92101 1716.0478,-811.28396 1793.4951,-811.28396 C 1819.0269,-811.28396 1842.9543,-818.13601 1863.5739,-830.04337 L 1863.5739,-818.27423 L 1933.6726,-818.27423 L 1933.6726,-1307.977 L 1863.5739,-1307.977 L 1863.5739,-1156.3013 C 1842.9543,-1168.2086 1819.0269,-1175.0609 1793.4951,-1175.0609 C 1716.0478,-1175.0609 1653.2977,-1112.4238 1653.2977,-1035.1543 L 1653.2977,-951.19057 z M 1723.3963,-1035.1543 C 1723.3963,-1073.7791 1754.7714,-1105.0976 1793.4951,-1105.0976 C 1832.1988,-1105.0976 1863.5739,-1073.7791 1863.5739,-1035.1543 L 1863.5739,-951.19057 C 1863.5739,-912.56553 1832.1988,-881.22732 1793.4951,-881.22732 C 1754.7714,-881.22732 1723.3963,-912.56553 1723.3963,-951.19057 L 1723.3963,-1035.1543"
       style="fill:white;fill-rule:nonzero;stroke:none"
       id="path21215" />
    <path
       d="M 1530.5706,-1238.014 L 1600.6692,-1238.014 L 1600.6692,-1307.977 L 1530.5706,-1307.977 L 1530.5706,-1238.014 z "
       style="fill:white;fill-rule:nonzero;stroke:none"
       id="path21217" />
    <path
       d="M 1530.5706,-818.27423 L 1600.6692,-818.27423 L 1600.6692,-1168.0704 L 1530.5706,-1168.0704 L 1530.5706,-818.27423 z "
       style="fill:white;fill-rule:nonzero;stroke:none"
       id="path21219" />
  </g>
</svg>
