<?xml version="1.0" encoding="utf-8"?>
<!-- Generator: Adobe Illustrator 15.0.2, SVG Export Plug-In . SVG Version: 6.00 Build 0)  -->
<!DOCTYPE svg PUBLIC "-//W3C//DTD SVG 1.1//EN" "http://www.w3.org/Graphics/SVG/1.1/DTD/svg11.dtd">
<svg version="1.1" id="Vrstva_1" xmlns="http://www.w3.org/2000/svg" xmlns:xlink="http://www.w3.org/1999/xlink" x="0px" y="0px"
	 width="900px" height="1200px" viewBox="0 0 900 1200" enable-background="new 0 0 900 1200" xml:space="preserve">
<path fill-rule="evenodd" clip-rule="evenodd" fill="#24388D" d="M10.014,1147.563c0,26.47,21.415,47.897,47.891,47.897h785.449
	c26.459,0,47.874-21.428,47.874-47.897V55.404c0-26.476-21.415-47.885-47.874-47.885H57.905c-26.476,0-47.891,21.409-47.891,47.885
	V1147.563z"/>
<path fill-rule="evenodd" clip-rule="evenodd" fill="#24388D" d="M891.383,1164.149l-0.842,5.201
	c-0.528,3.515-2.166,6.718-4.02,9.738c-3.659,6.043-9.293,10.81-15.77,13.482c-3.274,1.359-6.766,1.949-10.208,2.479H41.215
	c-3.551,0-6.951-1.12-10.22-2.479c-6.471-2.673-12.116-7.439-15.769-13.482c-2.77-4.526-4.027-9.738-4.852-14.939L10.272,40.653
	c0-7.061,2.281-14.078,6.422-19.771c4.129-5.688,10.124-9.979,16.792-12.17c3.353-1.06,6.849-1.402,10.365-1.649l816.693,0.097
	c3.54,0,6.934,1.125,10.208,2.479c6.477,2.685,12.11,7.457,15.77,13.434c2.768,4.526,4.02,9.739,4.861,14.939l0.098,1123.515
	C891.48,1162.394,891.432,1163.271,891.383,1164.149"/>
<path fill-rule="evenodd" clip-rule="evenodd" fill="#F2F3F4" d="M700.903,346.367c0-81.745-21.138-141.294-63.702-178.274
	c-42.275-37.285-105.136-55.373-188.85-55.373H250.907v743.536h114.85V591.998h84.533c39.224,0,74.252-4.442,105.117-13.904
	c30.898-8.618,56.479-22.268,78.737-42.54c21.137-20.066,38.085-45.646,49.762-76.51
	C695.606,428.181,700.903,390.076,700.903,346.367 M584.08,348.612c0,30.865-3.058,55.373-8.367,75.39
	c-5.271,20.272-13.89,36.162-24.436,47.826c-10.593,11.67-23.376,20.326-39.265,25.574c-16.083,5.302-33.057,7.241-51.984,7.241
	h-94.271V198.662h94.271c39.2,0,68.98,11.973,91.249,34.223C573.487,256.262,584.08,294.36,584.08,348.612z"/>
<path fill-rule="evenodd" clip-rule="evenodd" fill="#F2F3F4" d="M553.396,958.479c-0.289-1.035-0.41-2.07-0.41-3.165
	c0-6.97,5.634-12.627,12.628-12.627c2.227,0,4.395,0.588,6.308,1.696l161.025,93.062l-161.025,93.062
	c-1.913,1.12-4.081,1.697-6.308,1.697c-6.994,0-12.628-5.657-12.628-12.641c0-1.083,0.121-2.105,0.41-3.164l12.243-47.368H169.113
	v-63.172H565.64L553.396,958.479z"/>
<path fill-rule="evenodd" clip-rule="evenodd" fill="#24388D" d="M10.014,1147.563c0,26.47,21.415,47.897,47.891,47.897h785.449
	c26.459,0,47.874-21.428,47.874-47.897V55.404c0-26.476-21.415-47.885-47.874-47.885H57.905c-26.476,0-47.891,21.409-47.891,47.885
	V1147.563z"/>
<path fill-rule="evenodd" clip-rule="evenodd" fill="#009FE3" d="M891.383,1164.149l-0.842,5.201
	c-0.528,3.515-2.166,6.718-4.02,9.738c-3.659,6.043-9.293,10.81-15.77,13.482c-3.274,1.359-6.766,1.949-10.208,2.479H41.215
	c-3.551,0-6.951-1.12-10.22-2.479c-6.471-2.673-12.116-7.439-15.769-13.482c-2.77-4.526-4.027-9.738-4.852-14.939L10.272,40.653
	c0-7.061,2.281-14.078,6.422-19.771c4.129-5.688,10.124-9.979,16.792-12.17c3.353-1.06,6.849-1.402,10.365-1.649l816.693,0.097
	c3.54,0,6.934,1.125,10.208,2.479c6.477,2.685,12.11,7.457,15.77,13.434c2.768,4.526,4.02,9.739,4.861,14.939l0.098,1123.515
	C891.48,1162.394,891.432,1163.271,891.383,1164.149"/>
<path fill-rule="evenodd" clip-rule="evenodd" fill="#FFFFFF" d="M700.903,346.367c0-81.745-21.138-141.294-63.702-178.274
	c-42.275-37.285-105.136-55.373-188.85-55.373H250.907v743.536h114.85V591.998h84.533c39.224,0,74.252-4.442,105.117-13.904
	c30.898-8.618,56.479-22.268,78.737-42.54c21.137-20.066,38.085-45.646,49.762-76.51
	C695.606,428.181,700.903,390.076,700.903,346.367 M584.08,348.612c0,30.865-3.058,55.373-8.367,75.39
	c-5.271,20.272-13.89,36.162-24.436,47.826c-10.593,11.67-23.376,20.326-39.265,25.574c-16.083,5.302-33.057,7.241-51.984,7.241
	h-94.271V198.662h94.271c39.2,0,68.98,11.973,91.249,34.223C573.487,256.262,584.08,294.36,584.08,348.612z"/>
<path fill-rule="evenodd" clip-rule="evenodd" fill="#FFFFFF" d="M553.396,958.479c-0.289-1.035-0.41-2.07-0.41-3.165
	c0-6.97,5.634-12.627,12.628-12.627c2.227,0,4.395,0.588,6.308,1.696l161.025,93.062l-161.025,93.062
	c-1.913,1.12-4.081,1.697-6.308,1.697c-6.994,0-12.628-5.657-12.628-12.641c0-1.083,0.121-2.105,0.41-3.164l12.243-47.368H169.113
	v-63.172H565.64L553.396,958.479z"/>
</svg>
