<svg id="svg" xmlns="http://www.w3.org/2000/svg" xmlns:xlink="http://www.w3.org/1999/xlink" width="400" height="536.2" viewBox="0, 0, 400,536.2"><g id="svgg"><path id="path0" d="M15.978 4.573 C 10.701 5.726,6.456 9.527,4.756 14.619 L 4.153 16.425 3.950 266.704 C 3.796 456.149,3.809 517.436,4.005 518.846 C 4.849 524.914,9.214 529.824,15.112 531.337 C 17.205 531.875,381.063 531.808,383.799 531.269 C 388.860 530.274,393.572 525.695,394.735 520.643 C 395.290 518.231,395.357 17.456,394.803 15.450 C 393.382 10.307,389.350 6.305,384.022 4.749 C 382.231 4.226,18.362 4.052,15.978 4.573 M378.406 268.166 C 378.492 403.859,378.502 514.976,378.430 515.094 C 378.346 515.229,313.048 515.307,199.763 515.307 L 21.229 515.307 21.229 401.620 C 21.229 339.092,21.296 227.975,21.378 154.693 L 21.527 21.453 199.889 21.453 L 378.250 21.453 378.406 268.166 M93.557 144.953 C 93.387 145.124,93.410 219.073,93.608 305.305 L 93.743 364.017 105.363 348.008 C 119.526 328.495,117.875 330.767,126.118 319.441 L 132.950 310.056 132.960 307.933 C 132.965 306.765,133.070 305.156,133.192 304.358 C 133.314 303.559,133.560 300.140,133.738 296.760 C 133.916 293.380,134.177 288.905,134.318 286.816 C 134.546 283.442,134.485 275.193,134.231 274.939 C 134.178 274.885,133.141 274.467,131.927 274.010 L 129.721 273.179 129.721 270.724 C 129.721 269.373,129.809 265.402,129.917 261.899 L 130.112 255.531 128.328 253.520 C 127.347 252.413,125.246 250.334,123.660 248.898 C 120.432 245.976,118.800 244.238,109.794 234.136 C 106.611 230.565,105.525 227.817,106.221 225.099 C 107.051 221.860,113.166 210.275,118.878 201.117 C 119.530 200.073,120.350 198.736,120.701 198.148 C 122.556 195.038,125.015 192.339,127.253 190.958 C 128.553 190.156,133.671 187.933,134.218 187.933 C 134.303 187.933,135.287 187.510,136.404 186.992 C 137.522 186.475,139.240 185.835,140.223 185.571 L 142.011 185.091 141.989 183.104 C 141.954 179.824,141.469 178.388,138.809 173.681 C 135.770 168.305,135.677 164.599,138.444 159.090 C 141.494 153.016,149.189 151.185,157.237 154.618 C 163.864 157.445,165.696 165.273,161.897 174.525 C 159.854 179.498,159.807 179.664,159.759 182.040 C 159.718 184.045,159.753 184.253,160.136 184.326 C 162.462 184.770,171.640 187.920,173.763 189.003 C 177.661 190.992,180.696 195.519,184.806 205.475 C 187.589 212.216,190.920 219.155,192.731 221.986 C 193.188 222.701,193.736 223.797,193.948 224.422 L 194.335 225.558 195.087 224.455 C 195.500 223.848,196.109 223.000,196.439 222.570 C 196.769 222.140,207.325 207.609,219.897 190.279 C 232.468 172.950,245.001 155.683,247.746 151.908 C 250.491 148.134,252.737 144.991,252.737 144.925 C 252.737 144.749,93.733 144.777,93.557 144.953 M291.276 193.296 C 275.068 215.600,274.637 216.198,274.637 216.404 C 274.637 216.484,275.048 217.070,275.551 217.706 C 277.963 220.757,281.398 229.830,284.001 240.023 C 285.795 247.047,285.880 250.593,284.382 255.761 C 283.956 257.232,283.242 259.693,282.795 261.229 C 282.349 262.765,281.081 266.687,279.979 269.944 C 278.876 273.201,277.913 276.100,277.840 276.387 C 277.735 276.796,277.921 277.133,278.705 277.951 C 279.254 278.525,280.097 279.497,280.578 280.112 C 282.042 281.983,285.593 286.254,287.428 288.351 C 288.382 289.440,289.162 290.423,289.162 290.534 C 289.162 291.094,286.240 295.135,284.391 297.132 L 283.118 298.507 283.794 300.358 C 284.165 301.376,284.469 302.238,284.469 302.275 C 284.469 302.427,280.378 304.380,277.989 305.368 C 274.195 306.938,270.076 308.228,265.922 309.149 C 263.894 309.599,261.926 310.062,261.548 310.179 C 261.171 310.296,260.655 310.391,260.403 310.391 C 259.055 310.391,259.275 311.051,261.249 312.932 C 265.310 316.801,267.366 324.174,266.418 331.464 C 265.107 341.534,266.286 348.695,270.081 353.732 C 272.840 357.392,273.418 359.121,273.671 364.469 C 274.137 374.301,270.320 374.898,264.022 365.979 C 258.942 358.785,258.829 358.437,259.184 351.173 C 259.248 349.849,259.151 349.318,258.551 347.709 C 258.161 346.665,256.856 342.944,255.652 339.441 C 254.448 335.939,252.936 331.715,252.292 330.056 C 248.977 321.513,248.255 318.435,248.609 314.376 L 248.758 312.663 247.452 312.510 C 246.733 312.426,245.743 312.270,245.251 312.162 C 243.799 311.844,243.796 311.851,244.580 313.710 C 247.059 319.587,247.519 324.162,246.313 330.950 C 245.449 335.813,245.061 340.513,245.058 346.145 C 245.055 353.389,245.304 354.407,248.052 358.370 C 251.761 363.722,249.927 368.719,240.816 378.082 C 236.814 382.194,233.260 382.969,231.356 380.144 C 230.238 378.485,230.432 376.570,232.156 372.257 C 236.752 360.758,236.829 359.827,234.178 347.859 C 233.693 345.668,232.792 341.142,232.175 337.803 C 231.559 334.464,230.659 329.922,230.176 327.709 C 229.189 323.197,227.909 315.166,227.344 309.939 L 226.968 306.471 224.602 305.713 C 222.822 305.143,217.611 303.007,217.277 302.710 C 217.215 302.655,218.010 297.587,218.433 295.343 C 218.638 294.257,218.773 293.339,218.732 293.303 C 218.692 293.267,217.127 295.363,215.255 297.960 C 212.129 302.295,200.997 317.646,197.327 322.682 C 191.070 331.267,188.827 334.425,188.827 334.650 C 188.827 335.221,192.698 346.076,194.295 349.983 C 194.415 350.276,193.924 350.716,192.054 351.995 C 188.365 354.516,188.572 354.274,189.638 354.818 C 190.644 355.332,192.916 355.790,197.095 356.321 C 201.337 356.861,204.693 359.068,204.693 361.317 C 204.693 361.437,202.003 362.416,198.715 363.494 C 191.067 366.001,188.526 366.177,183.211 364.566 C 182.924 364.480,182.814 364.673,182.694 365.468 C 182.611 366.025,182.473 366.479,182.389 366.478 C 181.654 366.468,173.533 365.563,173.453 365.483 C 173.395 365.425,173.286 363.841,173.210 361.962 L 173.073 358.547 172.179 358.498 L 171.285 358.448 162.235 370.973 C 157.257 377.861,152.324 384.671,151.273 386.106 C 150.221 387.541,148.871 389.407,148.272 390.252 L 147.183 391.789 226.433 391.693 C 270.021 391.641,305.737 391.544,305.803 391.478 C 305.869 391.413,305.897 342.295,305.866 282.328 L 305.810 173.296 291.276 193.296 M170.104 213.575 C 170.656 219.541,173.862 232.867,174.740 232.846 C 174.806 232.845,175.858 230.780,177.077 228.258 C 179.615 223.009,179.583 223.441,177.612 221.006 C 177.065 220.330,175.925 218.821,175.079 217.654 C 173.487 215.455,170.295 211.620,170.058 211.620 C 169.983 211.620,170.004 212.500,170.104 213.575 M129.480 214.413 C 129.225 214.782,127.689 217.212,126.068 219.813 L 123.119 224.542 126.643 229.869 L 130.168 235.196 130.224 234.190 C 130.256 233.637,130.205 228.810,130.113 223.464 L 129.944 213.743 129.480 214.413 M266.336 237.039 C 265.413 243.005,266.525 253.937,268.672 260.000 L 268.988 260.894 269.129 260.000 C 269.359 258.548,269.679 255.454,269.823 253.296 C 269.897 252.190,270.168 249.613,270.426 247.570 C 270.976 243.204,271.078 243.707,268.603 238.577 C 266.631 234.489,266.721 234.550,266.336 237.039 " stroke="none" fill="#ffffff" fill-rule="evenodd"></path><path id="path1" d="M341.083 23.296 C 340.338 24.310,335.423 31.073,330.161 38.324 C 324.899 45.575,316.906 56.587,312.399 62.793 C 307.892 69.000,297.232 83.682,288.710 95.419 C 280.188 107.156,269.343 122.089,264.610 128.603 C 259.878 135.117,254.853 142.056,253.444 144.022 C 252.035 145.989,249.052 150.112,246.817 153.184 C 241.200 160.904,197.257 221.456,195.996 223.215 C 195.433 224.000,194.713 224.956,194.396 225.338 C 194.079 225.721,184.336 239.106,172.744 255.084 C 161.152 271.061,151.294 284.637,150.836 285.251 C 150.378 285.866,146.909 290.642,143.125 295.866 C 139.342 301.089,135.727 306.067,135.091 306.927 C 134.454 307.788,133.596 308.994,133.183 309.609 C 132.508 310.613,120.029 327.865,117.989 330.615 C 117.533 331.229,111.864 339.022,105.392 347.933 C 98.920 356.844,92.084 366.246,90.202 368.827 C 86.941 373.298,47.856 427.130,31.550 449.609 C 27.315 455.447,23.260 461.021,22.540 461.996 L 21.229 463.769 21.229 489.538 L 21.229 515.307 39.385 515.300 L 57.542 515.293 73.296 493.577 C 81.961 481.633,92.121 467.634,95.874 462.467 C 99.627 457.300,105.617 449.050,109.186 444.134 C 112.755 439.218,122.650 425.592,131.174 413.855 C 139.699 402.117,147.611 391.207,148.755 389.609 C 152.030 385.038,165.742 366.184,175.602 352.695 C 179.345 347.575,184.541 340.398,192.317 329.609 C 194.222 326.966,196.476 323.849,197.327 322.682 C 200.296 318.607,211.875 302.645,215.238 297.989 C 217.102 295.408,218.695 293.246,218.777 293.184 C 218.859 293.123,221.222 289.905,224.028 286.034 C 229.637 278.294,238.272 266.402,240.821 262.905 C 241.717 261.676,245.697 256.196,249.666 250.726 C 253.635 245.257,260.606 235.654,265.158 229.385 C 269.709 223.117,274.069 217.084,274.848 215.978 C 276.151 214.125,300.405 180.711,310.450 166.927 C 314.305 161.638,340.295 125.853,363.764 93.520 C 368.492 87.006,373.702 79.840,375.342 77.596 L 378.324 73.516 378.324 47.484 L 378.324 21.453 360.381 21.453 L 342.438 21.453 341.083 23.296 " stroke="none" fill="#cd032b" fill-rule="evenodd"></path><path id="path2" d="M8.268 8.603 C 7.725 9.156,7.332 9.609,7.393 9.609 C 7.454 9.609,7.949 9.156,8.492 8.603 C 9.034 8.050,9.428 7.598,9.367 7.598 C 9.305 7.598,8.811 8.050,8.268 8.603 M393.451 12.176 C 393.656 12.605,393.863 12.916,393.911 12.867 C 394.014 12.765,393.335 11.397,393.182 11.397 C 393.126 11.397,393.247 11.747,393.451 12.176 M395.136 17.430 C 395.136 17.860,395.182 18.036,395.238 17.821 C 395.294 17.606,395.294 17.254,395.238 17.039 C 395.182 16.824,395.136 17.000,395.136 17.430 M21.378 154.693 C 21.296 227.975,21.229 327.496,21.229 375.851 L 21.229 463.769 22.540 461.996 C 23.260 461.021,27.315 455.447,31.550 449.609 C 35.785 443.771,49.944 424.263,63.015 406.257 C 76.086 388.251,88.333 371.380,90.230 368.764 L 93.681 364.009 93.600 254.463 L 93.520 144.916 173.203 144.860 L 252.886 144.804 253.641 143.743 C 254.057 143.159,258.631 136.849,263.806 129.721 C 274.906 114.430,300.791 78.779,312.399 62.793 C 316.906 56.587,324.898 45.575,330.158 38.324 C 335.418 31.073,340.243 24.436,340.880 23.575 C 341.517 22.715,342.113 21.885,342.205 21.732 C 342.339 21.508,310.229 21.453,181.950 21.453 L 21.527 21.453 21.378 154.693 M3.910 168.268 C 3.910 246.497,3.935 278.500,3.966 239.385 C 3.998 200.271,3.998 136.265,3.966 97.151 C 3.935 58.036,3.910 90.039,3.910 168.268 M375.288 77.665 C 373.680 79.871,368.896 86.453,364.658 92.291 C 360.419 98.128,348.519 114.520,338.212 128.715 C 327.906 142.911,316.663 158.397,313.228 163.128 C 309.793 167.860,306.743 172.052,306.451 172.444 L 305.920 173.157 305.921 282.333 L 305.923 391.508 300.392 391.541 C 297.349 391.559,261.628 391.635,221.010 391.709 L 147.160 391.844 133.120 411.173 C 125.398 421.804,116.489 434.073,113.322 438.436 C 107.436 446.544,104.877 450.069,74.901 491.348 C 65.415 504.411,57.654 515.145,57.654 515.203 C 57.654 515.506,378.341 515.298,378.458 514.995 C 378.524 514.823,378.496 415.451,378.395 294.168 L 378.212 73.654 375.288 77.665 M140.323 156.145 L 139.553 156.983 140.391 156.213 C 141.171 155.496,141.332 155.307,141.161 155.307 C 141.124 155.307,140.747 155.684,140.323 156.145 M162.250 159.441 C 162.250 159.564,162.394 159.916,162.570 160.223 C 162.745 160.531,162.889 160.682,162.889 160.559 C 162.889 160.436,162.745 160.084,162.570 159.777 C 162.394 159.469,162.250 159.318,162.250 159.441 M141.828 180.670 C 141.899 181.285,141.994 181.830,142.040 181.881 C 142.197 182.057,142.078 180.670,141.888 180.112 C 141.760 179.735,141.741 179.917,141.828 180.670 M159.626 182.458 C 159.627 183.318,159.668 183.643,159.716 183.179 C 159.765 182.716,159.764 182.012,159.714 181.615 C 159.665 181.218,159.625 181.598,159.626 182.458 M142.120 183.844 C 142.060 184.607,142.092 185.149,142.192 185.050 C 142.291 184.950,142.340 184.326,142.300 183.663 L 142.228 182.458 142.120 183.844 M176.648 191.285 C 177.128 191.777,177.571 192.179,177.633 192.179 C 177.694 192.179,177.352 191.777,176.872 191.285 C 176.391 190.793,175.948 190.391,175.887 190.391 C 175.825 190.391,176.168 190.793,176.648 191.285 M124.574 193.128 L 123.240 194.525 124.637 193.191 C 125.405 192.458,126.034 191.829,126.034 191.795 C 126.034 191.630,125.813 191.831,124.574 193.128 M181.915 199.218 C 181.915 199.341,182.059 199.693,182.235 200.000 C 182.410 200.307,182.554 200.458,182.554 200.335 C 182.554 200.212,182.410 199.860,182.235 199.553 C 182.059 199.246,181.915 199.095,181.915 199.218 M171.620 213.296 C 172.037 213.726,172.428 214.078,172.490 214.078 C 172.551 214.078,172.261 213.726,171.844 213.296 C 171.427 212.866,171.035 212.514,170.974 212.514 C 170.912 212.514,171.203 212.866,171.620 213.296 M189.208 215.748 C 189.538 216.420,189.845 216.933,189.891 216.887 C 189.991 216.787,188.864 214.525,188.714 214.525 C 188.656 214.525,188.878 215.075,189.208 215.748 M174.078 216.313 C 174.341 216.682,174.606 216.983,174.667 216.983 C 174.729 216.983,174.564 216.682,174.302 216.313 C 174.039 215.944,173.774 215.642,173.713 215.642 C 173.651 215.642,173.816 215.944,174.078 216.313 M170.331 216.760 C 170.331 217.190,170.377 217.366,170.433 217.151 C 170.490 216.936,170.490 216.584,170.433 216.369 C 170.377 216.154,170.331 216.330,170.331 216.760 M130.152 222.458 C 130.152 225.285,130.184 226.411,130.223 224.959 C 130.262 223.508,130.262 221.196,130.223 219.820 C 130.183 218.444,130.152 219.631,130.152 222.458 M105.983 226.816 C 105.983 227.369,106.026 227.595,106.079 227.318 C 106.133 227.042,106.133 226.589,106.079 226.313 C 106.026 226.036,105.983 226.263,105.983 226.816 M177.699 226.932 C 177.431 227.483,177.259 227.933,177.317 227.933 C 177.468 227.933,178.371 226.118,178.270 226.017 C 178.223 225.970,177.966 226.382,177.699 226.932 M176.241 229.843 C 175.716 230.944,175.790 231.131,176.339 230.091 C 176.588 229.618,176.753 229.192,176.704 229.144 C 176.656 229.095,176.448 229.410,176.241 229.843 M130.326 232.806 C 130.290 234.574,130.214 235.074,130.000 234.952 C 129.778 234.827,129.777 234.856,129.996 235.092 C 130.454 235.586,130.522 235.243,130.446 232.822 L 130.374 230.503 130.326 232.806 M111.732 236.313 C 112.399 236.989,112.996 237.542,113.057 237.542 C 113.119 237.542,112.623 236.989,111.955 236.313 C 111.288 235.637,110.691 235.084,110.630 235.084 C 110.568 235.084,111.064 235.637,111.732 236.313 M267.502 236.313 C 267.502 236.436,267.646 236.788,267.821 237.095 C 267.997 237.402,268.141 237.553,268.141 237.430 C 268.141 237.307,267.997 236.955,267.821 236.648 C 267.646 236.341,267.502 236.190,267.502 236.313 M265.983 239.106 C 265.983 239.659,266.026 239.885,266.079 239.609 C 266.133 239.332,266.133 238.880,266.079 238.603 C 266.026 238.327,265.983 238.553,265.983 239.106 M269.431 240.329 C 269.761 241.001,270.069 241.514,270.114 241.468 C 270.215 241.368,269.088 239.106,268.937 239.106 C 268.879 239.106,269.102 239.656,269.431 240.329 M265.781 242.905 C 265.781 244.196,265.818 244.723,265.863 244.078 C 265.908 243.433,265.908 242.377,265.863 241.732 C 265.818 241.087,265.781 241.615,265.781 242.905 M117.533 242.737 C 118.459 243.724,118.659 243.901,118.659 243.734 C 118.659 243.698,118.182 243.220,117.598 242.672 L 116.536 241.676 117.533 242.737 M120.559 246.034 C 121.412 246.894,122.161 247.598,122.223 247.598 C 122.284 247.598,121.636 246.894,120.782 246.034 C 119.928 245.173,119.180 244.469,119.118 244.469 C 119.057 244.469,119.705 245.173,120.559 246.034 M265.983 246.704 C 265.983 247.257,266.026 247.483,266.079 247.207 C 266.133 246.930,266.133 246.478,266.079 246.201 C 266.026 245.925,265.983 246.151,265.983 246.704 M124.022 249.274 C 124.439 249.704,124.831 250.056,124.892 250.056 C 124.954 250.056,124.663 249.704,124.246 249.274 C 123.829 248.844,123.437 248.492,123.376 248.492 C 123.315 248.492,123.605 248.844,124.022 249.274 M285.192 251.397 C 285.192 251.827,285.237 252.003,285.294 251.788 C 285.350 251.573,285.350 251.221,285.294 251.006 C 285.237 250.791,285.192 250.966,285.192 251.397 M269.790 254.413 C 269.791 255.151,269.833 255.426,269.883 255.024 C 269.932 254.622,269.931 254.019,269.880 253.683 C 269.829 253.347,269.789 253.676,269.790 254.413 M129.768 255.208 C 129.925 255.410,130.070 256.490,130.112 257.778 L 130.186 260.000 130.233 257.737 C 130.272 255.812,130.221 255.428,129.888 255.167 C 129.544 254.897,129.530 254.902,129.768 255.208 M269.554 256.872 C 269.556 257.363,269.602 257.538,269.655 257.260 C 269.709 256.982,269.707 256.580,269.651 256.366 C 269.595 256.152,269.551 256.380,269.554 256.872 M269.326 258.771 C 269.326 259.201,269.372 259.377,269.428 259.162 C 269.484 258.947,269.484 258.595,269.428 258.380 C 269.372 258.165,269.326 258.341,269.326 258.771 M129.904 263.687 C 129.904 264.486,129.944 264.813,129.994 264.413 C 130.044 264.014,130.044 263.360,129.994 262.961 C 129.944 262.561,129.904 262.888,129.904 263.687 M129.673 269.385 C 129.675 270.000,129.718 270.225,129.769 269.885 C 129.821 269.546,129.819 269.043,129.766 268.768 C 129.713 268.493,129.671 268.771,129.673 269.385 M134.371 276.089 C 134.372 276.827,134.414 277.102,134.464 276.700 C 134.513 276.298,134.512 275.695,134.461 275.359 C 134.410 275.023,134.370 275.352,134.371 276.089 M278.436 277.835 C 278.436 277.874,278.763 278.201,279.162 278.562 L 279.888 279.218 279.232 278.492 C 278.620 277.815,278.436 277.663,278.436 277.835 M134.607 281.453 C 134.607 282.682,134.645 283.156,134.690 282.506 C 134.735 281.857,134.735 280.852,134.689 280.272 C 134.643 279.692,134.606 280.223,134.607 281.453 M134.377 286.704 C 134.377 287.626,134.416 288.003,134.464 287.542 C 134.513 287.081,134.513 286.327,134.464 285.866 C 134.416 285.405,134.377 285.782,134.377 286.704 M287.374 288.562 C 287.374 288.600,287.701 288.927,288.101 289.288 L 288.827 289.944 288.170 289.218 C 287.559 288.541,287.374 288.389,287.374 288.562 M134.142 290.168 C 134.144 290.782,134.187 291.007,134.239 290.667 C 134.290 290.328,134.289 289.825,134.236 289.550 C 134.182 289.275,134.140 289.553,134.142 290.168 M133.926 293.184 C 133.926 293.983,133.967 294.310,134.016 293.911 C 134.066 293.511,134.066 292.858,134.016 292.458 C 133.967 292.059,133.926 292.385,133.926 293.184 M133.703 298.101 C 133.703 298.899,133.743 299.226,133.793 298.827 C 133.843 298.427,133.843 297.774,133.793 297.374 C 133.743 296.975,133.703 297.302,133.703 298.101 M274.749 306.488 C 274.190 306.757,274.171 306.788,274.637 306.675 C 275.270 306.520,275.982 306.157,275.642 306.162 C 275.520 306.164,275.117 306.311,274.749 306.488 M227.091 307.486 C 227.091 307.916,227.137 308.092,227.193 307.877 C 227.249 307.662,227.249 307.310,227.193 307.095 C 227.137 306.880,227.091 307.056,227.091 307.486 M227.319 309.609 C 227.321 310.101,227.367 310.275,227.421 309.997 C 227.474 309.719,227.472 309.317,227.416 309.104 C 227.360 308.890,227.316 309.117,227.319 309.609 M227.538 311.508 C 227.538 311.939,227.584 312.115,227.640 311.899 C 227.696 311.684,227.696 311.332,227.640 311.117 C 227.584 310.902,227.538 311.078,227.538 311.508 M260.223 312.179 C 260.704 312.670,261.147 313.073,261.208 313.073 C 261.269 313.073,260.927 312.670,260.447 312.179 C 259.967 311.687,259.524 311.285,259.462 311.285 C 259.401 311.285,259.743 311.687,260.223 312.179 M248.199 312.562 C 248.507 312.619,248.724 312.856,248.785 313.201 C 248.869 313.678,248.878 313.669,248.854 313.131 C 248.832 312.635,248.717 312.510,248.268 312.492 C 247.810 312.475,247.798 312.487,248.199 312.562 M227.761 313.296 C 227.761 313.726,227.807 313.902,227.864 313.687 C 227.920 313.472,227.920 313.120,227.864 312.905 C 227.807 312.690,227.761 312.866,227.761 313.296 M248.565 315.866 C 248.566 316.726,248.606 317.051,248.655 316.587 C 248.703 316.124,248.702 315.420,248.653 315.023 C 248.604 314.626,248.564 315.006,248.565 315.866 M395.195 418.436 C 395.195 473.989,395.220 496.682,395.251 468.864 C 395.283 441.047,395.283 395.595,395.251 367.859 C 395.220 340.123,395.195 362.883,395.195 418.436 M248.771 318.994 C 248.774 319.486,248.820 319.661,248.873 319.383 C 248.927 319.105,248.925 318.703,248.869 318.489 C 248.813 318.275,248.769 318.503,248.771 318.994 M246.793 324.022 C 246.793 325.804,246.827 326.534,246.870 325.642 C 246.912 324.751,246.912 323.293,246.870 322.402 C 246.827 321.511,246.793 322.240,246.793 324.022 M246.537 328.380 C 246.539 328.872,246.585 329.046,246.638 328.768 C 246.692 328.490,246.690 328.088,246.634 327.874 C 246.578 327.661,246.534 327.888,246.537 328.380 M265.983 334.749 C 265.983 335.302,266.026 335.528,266.079 335.251 C 266.133 334.975,266.133 334.522,266.079 334.246 C 266.026 333.969,265.983 334.196,265.983 334.749 M265.776 338.771 C 265.776 339.816,265.815 340.243,265.862 339.721 C 265.909 339.198,265.909 338.344,265.862 337.821 C 265.815 337.299,265.776 337.726,265.776 338.771 M245.192 338.994 C 245.192 339.425,245.237 339.601,245.294 339.385 C 245.350 339.170,245.350 338.818,245.294 338.603 C 245.237 338.388,245.192 338.564,245.192 338.994 M255.893 340.112 C 255.889 340.296,256.024 340.749,256.193 341.117 C 256.588 341.980,256.594 341.579,256.201 340.559 C 256.035 340.128,255.897 339.927,255.893 340.112 M244.983 341.676 C 244.983 342.352,245.025 342.628,245.076 342.291 C 245.127 341.953,245.127 341.399,245.076 341.061 C 245.025 340.723,244.983 341.000,244.983 341.676 M265.986 342.458 C 265.987 343.073,266.031 343.298,266.082 342.958 C 266.134 342.618,266.132 342.115,266.079 341.841 C 266.026 341.566,265.984 341.844,265.986 342.458 M244.777 346.145 C 244.777 347.559,244.814 348.137,244.858 347.430 C 244.902 346.723,244.902 345.567,244.858 344.860 C 244.814 344.154,244.777 344.732,244.777 346.145 M244.977 350.615 C 244.977 351.168,245.021 351.394,245.074 351.117 C 245.127 350.841,245.127 350.388,245.074 350.112 C 245.021 349.835,244.977 350.061,244.977 350.615 M194.246 356.132 C 194.461 356.188,194.813 356.188,195.028 356.132 C 195.243 356.075,195.067 356.029,194.637 356.029 C 194.207 356.029,194.031 356.075,194.246 356.132 M171.397 358.301 C 171.397 358.349,171.790 358.426,172.272 358.472 C 172.753 358.518,173.099 358.478,173.041 358.384 C 172.934 358.212,171.397 358.134,171.397 358.301 M273.348 362.011 C 273.348 362.441,273.394 362.617,273.450 362.402 C 273.506 362.187,273.506 361.835,273.450 361.620 C 273.394 361.405,273.348 361.581,273.348 362.011 M173.241 363.240 C 173.243 363.732,173.289 363.907,173.342 363.629 C 173.396 363.351,173.394 362.948,173.338 362.735 C 173.282 362.521,173.238 362.749,173.241 363.240 M273.604 365.587 C 273.604 367.000,273.640 367.578,273.685 366.872 C 273.729 366.165,273.729 365.008,273.685 364.302 C 273.640 363.595,273.604 364.173,273.604 365.587 M197.207 363.799 C 196.925 363.920,196.884 363.991,197.095 363.991 C 197.279 363.991,197.631 363.905,197.877 363.799 C 198.159 363.678,198.200 363.607,197.989 363.607 C 197.804 363.607,197.453 363.693,197.207 363.799 M263.464 365.140 C 263.726 365.508,263.991 365.810,264.053 365.810 C 264.114 365.810,263.950 365.508,263.687 365.140 C 263.425 364.771,263.160 364.469,263.098 364.469 C 263.037 364.469,263.201 364.771,263.464 365.140 M191.008 365.521 C 191.286 365.575,191.688 365.573,191.902 365.517 C 192.116 365.461,191.888 365.417,191.397 365.419 C 190.905 365.422,190.730 365.468,191.008 365.521 M174.916 365.744 C 175.193 365.798,175.645 365.798,175.922 365.744 C 176.198 365.691,175.972 365.647,175.419 365.647 C 174.866 365.647,174.640 365.691,174.916 365.744 M177.153 365.968 C 177.431 366.022,177.834 366.020,178.047 365.964 C 178.261 365.908,178.034 365.864,177.542 365.866 C 177.050 365.869,176.875 365.915,177.153 365.968 M273.348 369.162 C 273.348 369.592,273.394 369.768,273.450 369.553 C 273.506 369.338,273.506 368.986,273.450 368.771 C 273.394 368.556,273.348 368.732,273.348 369.162 M267.263 370.168 C 267.930 370.844,268.527 371.397,268.588 371.397 C 268.650 371.397,268.154 370.844,267.486 370.168 C 266.818 369.492,266.222 368.939,266.161 368.939 C 266.099 368.939,266.595 369.492,267.263 370.168 M242.004 376.704 L 240.782 377.989 242.067 376.767 C 243.261 375.633,243.454 375.419,243.288 375.419 C 243.254 375.419,242.675 375.997,242.004 376.704 M230.675 377.430 C 230.675 377.983,230.719 378.209,230.772 377.933 C 230.825 377.656,230.825 377.204,230.772 376.927 C 230.719 376.651,230.675 376.877,230.675 377.430 M8.035 527.430 C 8.961 528.417,9.162 528.594,9.162 528.426 C 9.162 528.391,8.684 527.913,8.101 527.365 L 7.039 526.369 8.035 527.430 M390.826 527.542 L 390.056 528.380 390.894 527.610 C 391.355 527.186,391.732 526.809,391.732 526.772 C 391.732 526.601,391.543 526.762,390.826 527.542 M17.605 531.785 C 18.255 531.830,19.260 531.830,19.840 531.784 C 20.420 531.738,19.888 531.701,18.659 531.702 C 17.430 531.702,16.956 531.740,17.605 531.785 M213.705 531.788 C 244.657 531.819,295.238 531.819,326.108 531.788 C 356.978 531.756,331.654 531.731,269.832 531.731 C 208.011 531.731,182.754 531.756,213.705 531.788 " stroke="none" fill="#1c4a98" fill-rule="evenodd"></path><path id="path3" d="M14.637 0.326 C 7.545 2.157,2.158 7.491,0.349 14.474 C -0.266 16.844,-0.175 520.952,0.440 522.943 C 2.375 529.207,6.859 533.741,13.187 535.833 L 14.642 536.314 199.779 536.258 L 384.916 536.201 386.534 535.601 C 387.423 535.271,388.376 534.844,388.650 534.651 C 388.925 534.459,389.294 534.302,389.470 534.302 C 391.132 534.302,397.989 527.280,397.989 525.577 C 397.989 525.386,398.088 525.130,398.209 525.009 C 398.539 524.678,399.478 521.860,399.765 520.335 C 399.953 519.341,400.002 453.955,399.953 267.486 L 399.888 15.978 399.408 14.637 C 397.919 10.477,396.580 8.207,394.192 5.791 C 392.862 4.446,389.576 2.011,389.091 2.011 C 388.980 2.011,388.240 1.717,387.448 1.358 C 386.656 0.999,385.396 0.546,384.648 0.352 C 382.780 -0.131,16.510 -0.157,14.637 0.326 M384.861 4.849 C 389.696 6.695,392.754 9.635,394.465 14.080 L 395.196 15.978 395.252 267.478 C 395.308 515.705,395.303 518.998,394.875 520.550 C 393.265 526.398,389.107 530.348,383.352 531.496 C 381.722 531.822,365.426 531.848,198.547 531.792 L 15.531 531.732 14.245 531.241 C 8.837 529.175,5.361 525.469,4.244 520.575 L 3.780 518.547 3.846 267.821 L 3.911 17.095 4.417 15.312 C 5.962 9.878,10.884 5.276,16.089 4.400 C 16.397 4.348,99.207 4.317,200.112 4.332 L 383.575 4.358 384.861 4.849 M146.788 153.163 C 141.573 154.658,140.143 155.777,138.185 159.895 C 135.677 165.173,135.919 168.413,139.264 174.302 C 141.474 178.191,142.094 180.027,142.174 182.912 L 142.235 185.103 140.200 185.692 C 139.081 186.016,137.421 186.643,136.513 187.086 C 135.604 187.529,134.156 188.115,133.296 188.388 C 126.901 190.416,124.237 192.684,119.784 199.888 C 118.645 201.732,117.467 203.625,117.166 204.095 C 114.822 207.762,109.878 216.929,107.565 221.899 C 105.084 227.231,105.713 229.680,111.021 235.350 C 112.092 236.494,113.835 238.436,114.895 239.665 C 116.999 242.106,122.358 247.606,125.363 250.409 C 126.408 251.384,127.957 252.964,128.805 253.919 L 130.347 255.657 130.085 262.074 C 129.941 265.604,129.762 269.502,129.688 270.737 L 129.554 272.983 132.005 273.923 L 134.457 274.862 134.604 278.381 C 134.735 281.510,134.513 288.431,134.194 291.173 C 134.129 291.726,133.973 294.302,133.847 296.897 C 133.720 299.492,133.471 302.710,133.293 304.048 C 132.826 307.560,132.854 310.020,133.353 309.303 C 133.555 309.012,134.289 308.006,134.982 307.068 C 135.676 306.131,139.339 301.089,143.123 295.866 C 146.908 290.642,150.378 285.866,150.836 285.251 C 151.572 284.264,191.592 229.147,193.431 226.589 L 194.157 225.580 193.764 224.419 C 193.548 223.781,193.012 222.676,192.573 221.965 C 190.992 219.398,185.698 208.611,185.698 207.954 C 185.698 207.686,182.908 201.325,181.620 198.659 C 179.578 194.431,177.134 191.252,174.748 189.720 C 172.660 188.380,164.660 185.512,160.135 184.480 L 159.487 184.332 159.618 182.024 C 159.727 180.100,159.881 179.377,160.545 177.679 C 160.983 176.559,161.701 174.720,162.142 173.592 C 164.653 167.167,164.405 162.531,161.305 157.943 C 159.113 154.699,150.884 151.988,146.788 153.163 M171.161 212.570 C 172.567 214.108,173.960 215.850,175.267 217.703 C 175.849 218.529,176.835 219.836,177.457 220.608 C 178.079 221.380,178.782 222.388,179.019 222.848 L 179.450 223.686 177.191 228.323 C 175.949 230.874,174.886 233.008,174.829 233.066 C 174.118 233.783,170.583 220.301,170.171 215.307 C 170.101 214.447,169.988 213.215,169.921 212.570 C 169.855 211.925,169.865 211.397,169.945 211.397 C 170.024 211.397,170.571 211.925,171.161 212.570 M130.352 226.983 C 130.422 231.561,130.394 235.307,130.290 235.307 C 130.056 235.307,123.128 224.892,123.128 224.541 C 123.128 224.291,123.581 223.526,125.483 220.559 C 125.996 219.760,126.944 218.251,127.591 217.207 C 128.239 216.162,129.033 214.913,129.356 214.431 L 129.944 213.554 130.085 216.107 C 130.163 217.511,130.283 222.405,130.352 226.983 M273.955 217.236 C 273.665 217.650,269.705 223.117,265.155 229.385 C 260.605 235.654,253.635 245.257,249.666 250.726 C 245.697 256.196,241.717 261.676,240.821 262.905 C 238.815 265.657,230.847 276.626,224.032 286.020 L 218.935 293.046 218.186 297.528 C 217.265 303.047,217.259 302.654,218.268 303.075 C 223.134 305.103,224.654 305.683,225.751 305.928 C 227.257 306.265,227.020 305.504,227.824 312.593 C 228.381 317.509,229.994 326.961,230.848 330.314 C 231.088 331.255,231.489 333.267,231.740 334.784 C 232.283 338.074,234.010 346.717,234.643 349.321 C 235.182 351.534,235.958 356.182,236.132 358.232 C 236.347 360.783,235.096 365.186,231.819 373.408 C 229.941 378.120,230.917 381.349,234.303 381.630 C 236.492 381.811,238.167 380.781,241.567 377.165 C 250.475 367.689,251.703 363.262,247.109 357.178 C 244.393 353.579,244.041 345.043,246.067 331.844 C 247.200 324.461,246.910 319.843,245.019 315.163 C 243.578 311.597,243.586 311.649,244.525 311.858 C 244.925 311.948,246.041 312.134,247.007 312.274 L 248.762 312.527 248.821 316.431 L 248.880 320.335 249.828 323.128 C 250.350 324.665,251.031 326.525,251.341 327.263 C 252.474 329.953,255.916 339.625,258.690 347.911 C 259.465 350.228,259.467 350.243,259.245 352.492 C 258.801 356.996,259.369 359.202,261.871 362.682 C 262.622 363.726,263.978 365.637,264.885 366.927 C 271.022 375.659,274.884 372.892,273.190 360.976 C 272.748 357.873,272.328 356.909,270.176 354.073 C 266.107 348.708,264.882 341.848,266.276 332.236 C 267.364 324.734,265.287 316.845,261.231 313.073 C 258.691 310.710,258.770 310.501,262.458 309.829 C 268.925 308.651,277.211 305.891,282.887 303.026 C 284.456 302.234,284.454 302.242,283.599 300.170 L 282.953 298.602 283.947 297.514 C 285.262 296.073,287.335 293.382,288.346 291.801 L 289.159 290.529 287.540 288.672 C 285.727 286.591,283.530 283.959,281.216 281.099 C 280.363 280.044,279.190 278.629,278.611 277.955 L 277.556 276.729 278.853 273.057 C 280.136 269.426,281.805 264.175,283.536 258.324 C 285.981 250.061,285.956 247.764,283.318 237.877 C 280.652 227.887,277.674 220.504,274.903 217.012 L 274.482 216.482 273.955 217.236 M268.639 238.381 C 271.155 243.552,271.112 243.275,270.299 249.050 C 270.109 250.402,269.951 252.259,269.948 253.175 C 269.943 255.200,269.312 260.594,269.049 260.867 C 268.620 261.310,267.042 254.822,266.228 249.274 C 265.542 244.594,265.917 234.854,266.783 234.862 C 266.862 234.862,267.698 236.446,268.639 238.381 M184.333 340.703 C 181.950 343.985,178.131 349.242,175.847 352.385 L 171.694 358.101 172.383 358.212 L 173.073 358.324 173.258 361.787 C 173.361 363.692,173.477 365.284,173.518 365.324 C 173.559 365.365,175.285 365.587,177.355 365.817 C 179.424 366.048,181.444 366.285,181.844 366.344 L 182.570 366.452 182.570 365.461 C 182.570 364.915,182.659 364.469,182.769 364.469 C 182.878 364.469,183.909 364.661,185.059 364.896 C 190.124 365.930,191.258 365.802,198.781 363.336 C 201.848 362.331,204.432 361.465,204.523 361.412 C 204.815 361.244,203.811 359.564,202.876 358.657 C 201.326 357.153,200.094 356.712,196.378 356.331 C 192.073 355.890,188.302 354.858,188.692 354.228 C 188.749 354.135,189.959 353.274,191.381 352.315 C 194.602 350.143,194.433 350.732,192.945 346.872 C 192.247 345.059,190.998 341.586,190.170 339.155 L 188.665 334.735 184.333 340.703 " stroke="none" fill="#000000" fill-rule="evenodd"></path></g></svg>