<?xml version="1.0" encoding="UTF-8" standalone="no"?>
<!-- Created with Inkscape (http://www.inkscape.org/) -->
<svg
   xmlns:svg="http://www.w3.org/2000/svg"
   xmlns="http://www.w3.org/2000/svg"
   version="1.0"
   width="1740"
   height="460"
   id="svg24491">
  <defs
     id="defs24493" />
  <g
     transform="translate(-307.167,-84.17818)"
     id="layer1">
    <path
       d="M 2028.5211,102.02771 C 2016.517,90.504348 2000.5319,84.17818 1983.5313,84.17818 L 370.80275,84.17818 C 335.70458,84.17818 307.167,111.50723 307.167,145.10404 L 307.167,483.23285 C 307.167,499.5057 313.78853,514.82476 325.79259,526.32865 C 337.81697,537.83255 353.80207,544.17818 370.80275,544.17818 L 1983.5313,544.17818 C 2000.5319,544.17818 2016.517,537.83255 2028.5211,526.32865 C 2040.5455,514.82476 2047.167,499.5057 2047.167,483.23285 L 2047.167,145.10404 C 2047.167,128.83119 2040.5455,113.5316 2028.5211,102.02771 z "
       style="fill:black;fill-rule:nonzero;stroke:none"
       id="path24514" />
    <path
       d="M 2034.9801,483.23285 C 2034.9801,510.40618 2011.9063,532.51857 1983.5313,532.51857 L 370.80275,532.51857 C 357.0519,532.51857 344.13382,527.37977 334.40464,518.07544 C 324.69577,508.7711 319.35387,496.39128 319.35387,483.23285 L 319.35387,145.10404 C 319.35387,131.94561 324.69577,119.58526 334.40464,110.26146 C 344.13382,100.95712 357.0519,95.837794 370.80275,95.837794 L 1983.5313,95.837794 C 1997.2821,95.837794 2010.2002,100.95712 2019.909,110.26146 C 2029.6382,119.58526 2034.9801,131.94561 2034.9801,145.10404 L 2034.9801,483.23285"
       style="fill:white;fill-rule:nonzero;stroke:none"
       id="path21385" />
    <path
       d="M 349.21169,503.90482 L 2005.102,503.90482 L 2005.102,124.45154 L 349.21169,124.45154 L 349.21169,503.90482 z "
       style="fill:#fff100;fill-rule:nonzero;stroke:none"
       id="path21387" />
    <path
       d="M 608.0607,308.53329 L 524.84473,180.58898 L 441.62875,308.53329 C 437.89144,312.95188 438.60234,319.45323 443.21304,323.03482 C 446.13789,325.29277 449.91582,325.85726 453.24689,324.84507 L 495.94154,314.17818 L 495.94154,458.55106 L 552.59016,458.55106 L 552.59016,313.8862 L 596.42225,324.84507 C 599.75332,325.85726 603.53125,325.29277 606.4561,323.03482 C 611.08711,319.45323 611.79801,312.95188 608.0607,308.53329"
       style="fill:black;fill-rule:nonzero;stroke:none"
       id="path21389" />
    <path
       d="M 817.08575,184.48201 L 817.08575,335.1032 C 817.08575,356.55377 799.39449,373.93614 777.55969,373.93614 C 755.72489,373.93614 738.03362,356.55377 738.03362,335.1032 L 738.03362,184.48201 L 706.40871,184.48201 L 706.40871,335.1032 C 706.40871,373.70255 738.27736,404.98302 777.55969,404.98302 C 816.86233,404.98302 848.71067,373.70255 848.71067,335.1032 L 848.71067,184.48201 L 817.08575,184.48201"
       style="fill:black;fill-rule:nonzero;stroke:none"
       id="path21411" />
    <path
       d="M 1699.6382,246.59524 C 1688.6497,246.59524 1677.6816,250.70238 1668.0133,257.49572 L 1668.0133,249.6902 L 1636.3884,249.6902 L 1636.3884,404.98302 L 1668.0133,404.98302 L 1668.0133,308.70848 C 1668.0133,291.5597 1682.1704,277.64213 1699.6382,277.64213 C 1717.1061,277.64213 1731.2631,291.5597 1731.2631,308.70848 L 1731.2631,404.98302 L 1762.8881,404.98302 L 1762.8881,308.70848 C 1762.8881,274.39145 1734.5536,246.59524 1699.6382,246.59524"
       style="fill:black;fill-rule:nonzero;stroke:none"
       id="path21413" />
    <path
       d="M 1543.9713,408.09744 C 1554.9598,408.09744 1565.9483,403.9903 1575.5962,397.19697 L 1575.5962,404.98302 L 1607.2212,404.98302 L 1607.2212,249.6902 L 1575.5962,249.6902 L 1575.5962,345.98421 C 1575.5962,363.13299 1561.4392,377.03109 1543.9713,377.03109 C 1526.5035,377.03109 1512.3464,363.13299 1512.3464,345.98421 L 1512.3464,249.6902 L 1480.7418,249.6902 L 1480.7418,345.98421 C 1480.7418,380.28177 1509.056,408.09744 1543.9713,408.09744"
       style="fill:black;fill-rule:nonzero;stroke:none"
       id="path21415" />
    <path
       d="M 1027.6545,246.59524 C 1008.7648,246.59524 991.82509,254.73167 980.22726,267.63705 C 968.62942,254.73167 951.68968,246.59524 932.80004,246.59524 C 921.81155,246.59524 910.84337,250.70238 901.17512,257.49572 L 901.17512,249.6902 L 869.55021,249.6902 L 869.55021,404.98302 L 901.17512,404.98302 L 901.17512,308.70848 C 901.17512,291.5597 915.3322,277.64213 932.80004,277.64213 C 950.26788,277.64213 964.42496,291.5597 964.42496,308.70848 L 964.42496,404.98302 L 996.02956,404.98302 L 996.02956,308.70848 C 996.02956,291.5597 1010.1866,277.64213 1027.6545,277.64213 C 1045.1223,277.64213 1059.2794,291.5597 1059.2794,308.70848 L 1059.2794,404.98302 L 1090.9043,404.98302 L 1090.9043,308.70848 C 1090.9043,274.39145 1062.5902,246.59524 1027.6545,246.59524"
       style="fill:black;fill-rule:nonzero;stroke:none"
       id="path21417" />
    <path
       d="M 1242.4277,244.1037 C 1207.492,244.1037 1179.1778,271.91938 1179.1778,306.21694 L 1179.1778,343.49267 C 1179.1778,377.79023 1207.492,405.60591 1242.4277,405.60591 C 1269.5638,405.60591 1292.7188,388.8075 1301.6761,365.21576 L 1265.0343,365.19629 C 1259.3065,370.95797 1251.2835,374.53955 1242.4277,374.53955 C 1224.9598,374.53955 1210.8027,360.64145 1210.8027,343.49267 L 1210.8027,340.37825 L 1305.6572,340.37825 L 1305.6572,306.21694 C 1305.6572,271.91938 1277.343,244.1037 1242.4277,244.1037 z M 1274.0323,309.33136 L 1210.8027,309.33136 L 1210.8027,306.21694 C 1210.8027,289.06816 1224.9598,275.15059 1242.4277,275.15059 C 1259.8752,275.15059 1274.0323,289.06816 1274.0323,306.21694 L 1274.0323,309.33136"
       style="fill:black;fill-rule:nonzero;stroke:none"
       id="path21419" />
    <path
       d="M 1874.276,250.42987 L 1874.276,255.64653 C 1864.9734,250.37148 1854.1677,247.31545 1842.6511,247.31545 C 1807.7357,247.31545 1779.4216,275.13113 1779.4216,309.44815 L 1779.4216,343.60946 C 1779.4216,377.90702 1807.7357,405.7227 1842.6511,405.7227 C 1854.1677,405.7227 1864.9734,402.68614 1874.276,397.39162 L 1874.276,405.7227 C 1874.276,422.87148 1860.1189,439.884 1842.6511,439.884 C 1829.6315,439.884 1818.3586,432.2926 1813.5245,421.25587 L 1780.5184,421.25587 C 1786.3071,449.69443 1812.0011,470.95035 1842.6511,470.95035 C 1877.5868,470.95035 1905.9009,440.03972 1905.9009,405.7227 L 1905.9009,250.42987 L 1874.276,250.42987 z M 1842.6511,374.65635 C 1825.1832,374.65635 1811.0262,360.75824 1811.0262,343.60946 L 1811.0262,309.44815 C 1811.0262,292.27991 1825.1832,278.3818 1842.6511,278.3818 C 1860.1189,278.3818 1874.276,292.27991 1874.276,309.44815 L 1874.276,343.60946 C 1874.276,360.75824 1860.1189,374.65635 1842.6511,374.65635"
       style="fill:black;fill-rule:nonzero;stroke:none"
       id="path21421" />
    <path
       d="M 1328.1216,218.64331 L 1359.7466,218.64331 L 1359.7466,187.57696 L 1328.1216,187.57696 L 1328.1216,218.64331 z "
       style="fill:black;fill-rule:nonzero;stroke:none"
       id="path21423" />
    <path
       d="M 1328.1216,404.98302 L 1359.7466,404.98302 L 1359.7466,249.6902 L 1328.1216,249.6902 L 1328.1216,404.98302 z "
       style="fill:black;fill-rule:nonzero;stroke:none"
       id="path21425" />
    <path
       d="M 1152.448,373.97507 L 1152.448,373.97507 C 1148.9544,373.97507 1146.1311,371.19155 1146.1311,367.76569 L 1146.1311,187.63536 L 1114.5062,187.63536 L 1114.5062,367.76569 L 1114.5671,367.78515 C 1114.5671,388.32087 1131.5272,404.98302 1152.448,404.98302 L 1161.9334,404.98302 L 1161.9334,373.97507 L 1152.448,373.97507"
       style="fill:black;fill-rule:nonzero;stroke:none"
       id="path21427" />
    <path
       d="M 1456.7337,249.6902 L 1434.5942,249.6902 L 1434.5942,187.57696 L 1402.9693,203.11014 L 1402.9693,249.6902 L 1380.8298,249.6902 L 1380.8298,280.75655 L 1402.9693,280.75655 L 1402.9693,404.98302 L 1434.5942,404.98302 L 1434.5942,280.75655 L 1456.7337,280.75655 L 1456.7337,249.6902"
       style="fill:black;fill-rule:nonzero;stroke:none"
       id="path21429" />
  </g>
</svg>
