<svg id="svg" xmlns="http://www.w3.org/2000/svg" xmlns:xlink="http://www.w3.org/1999/xlink" width="400" height="536.2" viewBox="0, 0, 400,536.2"><g id="svgg"><path id="path0" d="M15.978 4.573 C 10.701 5.726,6.456 9.527,4.756 14.619 L 4.153 16.425 3.950 266.704 C 3.796 456.149,3.809 517.436,4.005 518.846 C 4.849 524.914,9.214 529.824,15.112 531.337 C 17.205 531.875,381.063 531.808,383.799 531.269 C 388.860 530.274,393.572 525.695,394.735 520.643 C 395.290 518.231,395.357 17.456,394.803 15.450 C 393.382 10.307,389.350 6.305,384.022 4.749 C 382.231 4.226,18.362 4.052,15.978 4.573 M378.387 268.144 C 378.483 403.763,378.511 514.855,378.450 515.016 C 378.358 515.255,346.409 515.307,199.784 515.307 L 21.229 515.307 21.229 401.620 C 21.229 339.092,21.296 227.975,21.378 154.693 L 21.527 21.452 199.870 21.508 L 378.212 21.564 378.387 268.144 M176.882 144.749 C 127.761 144.782,93.682 144.888,93.563 145.007 C 93.443 145.127,93.428 195.111,93.528 268.470 L 93.694 391.732 179.193 391.732 C 226.218 391.732,273.969 391.665,285.307 391.583 L 305.922 391.435 305.922 268.008 L 305.922 144.581 282.961 144.637 C 270.332 144.667,222.597 144.718,176.882 144.749 M153.064 153.415 C 163.301 155.576,166.519 163.268,161.897 174.525 C 159.854 179.498,159.807 179.664,159.759 182.040 C 159.718 184.045,159.753 184.253,160.136 184.326 C 162.462 184.770,171.640 187.920,173.763 189.003 C 177.661 190.992,180.696 195.519,184.806 205.475 C 187.585 212.204,190.920 219.155,192.724 221.975 C 194.918 225.404,194.711 228.944,192.026 233.948 C 191.328 235.249,190.207 237.419,189.535 238.771 C 188.863 240.123,187.515 242.838,186.539 244.804 C 183.469 250.993,181.994 255.062,181.106 259.802 L 180.760 261.647 181.794 264.511 C 182.363 266.086,183.424 269.017,184.152 271.026 C 184.881 273.034,185.431 274.750,185.376 274.840 C 185.321 274.929,183.798 275.297,181.991 275.657 L 178.707 276.313 178.847 279.218 C 178.987 282.131,179.742 290.127,180.564 297.415 C 181.038 301.613,182.146 307.417,183.362 312.067 C 183.780 313.665,184.321 315.978,184.563 317.207 C 186.864 328.848,190.071 339.649,194.295 349.983 C 194.415 350.276,193.924 350.716,192.054 351.995 C 188.365 354.516,188.572 354.274,189.638 354.818 C 190.644 355.332,192.916 355.790,197.095 356.321 C 201.337 356.861,204.693 359.068,204.693 361.317 C 204.693 361.437,202.003 362.416,198.715 363.494 C 191.067 366.001,188.526 366.177,183.211 364.566 C 182.924 364.480,182.814 364.673,182.694 365.468 C 182.611 366.025,182.473 366.479,182.389 366.478 C 181.654 366.468,173.533 365.563,173.453 365.483 C 173.395 365.425,173.286 363.841,173.210 361.962 L 173.073 358.547 171.418 358.382 C 169.344 358.176,169.579 358.583,169.025 354.228 C 168.765 352.179,168.332 348.894,168.062 346.927 C 167.793 344.961,167.273 341.140,166.907 338.436 C 166.200 333.204,164.611 323.048,163.690 317.877 C 163.384 316.156,162.830 312.951,162.460 310.754 C 162.089 308.557,161.527 305.791,161.211 304.609 C 160.032 300.201,157.706 291.948,157.584 291.741 C 157.379 291.392,154.698 310.654,154.430 314.413 C 154.294 316.318,154.035 320.391,153.856 323.464 C 153.676 326.536,153.328 332.117,153.082 335.866 C 152.837 339.615,152.534 347.089,152.410 352.475 C 152.286 357.861,152.136 362.347,152.077 362.442 C 152.018 362.538,151.203 362.747,150.266 362.907 C 148.149 363.270,148.221 362.990,149.037 367.635 C 149.964 372.911,150.095 372.356,147.654 373.496 L 145.587 374.462 144.630 373.691 L 143.673 372.919 141.131 375.290 C 137.443 378.729,137.640 378.665,130.950 378.635 C 127.029 378.618,125.126 378.522,124.246 378.295 L 123.017 377.979 122.952 376.034 C 122.844 372.778,124.029 370.862,126.512 370.277 C 128.341 369.847,129.102 369.370,131.272 367.296 L 133.271 365.387 130.658 364.159 C 129.221 363.484,128.045 362.827,128.045 362.699 C 128.045 362.572,128.441 360.429,128.925 357.938 C 131.629 344.023,132.944 329.594,132.961 313.631 C 132.966 309.330,133.070 305.156,133.192 304.358 C 133.314 303.559,133.560 300.140,133.738 296.760 C 133.916 293.380,134.177 288.905,134.318 286.816 C 134.546 283.442,134.485 275.193,134.231 274.939 C 134.178 274.885,133.141 274.467,131.927 274.010 L 129.721 273.179 129.721 270.724 C 129.721 269.373,129.809 265.402,129.917 261.899 L 130.112 255.531 128.328 253.520 C 127.347 252.413,125.246 250.334,123.660 248.898 C 120.432 245.976,118.800 244.238,109.794 234.136 C 106.611 230.565,105.525 227.817,106.221 225.099 C 107.051 221.860,113.166 210.275,118.878 201.117 C 119.530 200.073,120.350 198.736,120.701 198.148 C 122.556 195.038,125.015 192.339,127.253 190.958 C 128.553 190.156,133.671 187.933,134.218 187.933 C 134.303 187.933,135.287 187.510,136.404 186.992 C 137.522 186.475,139.240 185.835,140.223 185.571 L 142.011 185.091 141.989 183.104 C 141.954 179.824,141.469 178.388,138.809 173.681 C 135.770 168.305,135.677 164.599,138.444 159.090 C 141.036 153.929,146.131 151.951,153.064 153.415 M252.404 176.325 C 258.257 178.115,261.977 183.061,262.791 190.137 C 262.924 191.288,263.330 193.564,263.695 195.194 C 265.349 202.591,264.149 206.739,259.891 208.341 L 259.112 208.634 260.114 209.215 C 260.666 209.534,261.570 209.914,262.123 210.059 C 273.354 212.996,277.045 217.133,281.755 232.067 C 285.641 244.388,286.205 249.474,284.382 255.761 C 283.956 257.232,283.242 259.693,282.795 261.229 C 282.349 262.765,281.081 266.687,279.979 269.944 C 278.876 273.201,277.913 276.100,277.840 276.387 C 277.735 276.796,277.921 277.133,278.705 277.951 C 279.254 278.525,280.097 279.497,280.578 280.112 C 282.042 281.983,285.593 286.254,287.428 288.351 C 288.382 289.440,289.162 290.423,289.162 290.534 C 289.162 291.094,286.240 295.135,284.391 297.132 L 283.118 298.507 283.794 300.358 C 284.165 301.376,284.469 302.238,284.469 302.275 C 284.469 302.427,280.378 304.380,277.989 305.368 C 274.195 306.938,270.076 308.228,265.922 309.149 C 263.894 309.599,261.926 310.062,261.548 310.179 C 261.171 310.296,260.655 310.391,260.403 310.391 C 259.055 310.391,259.275 311.051,261.249 312.932 C 265.310 316.801,267.366 324.174,266.418 331.464 C 265.107 341.534,266.286 348.695,270.081 353.732 C 272.840 357.392,273.418 359.121,273.671 364.469 C 274.137 374.301,270.320 374.898,264.022 365.979 C 258.942 358.785,258.829 358.437,259.184 351.173 C 259.248 349.849,259.151 349.318,258.551 347.709 C 258.161 346.665,256.856 342.944,255.652 339.441 C 254.448 335.939,252.936 331.715,252.292 330.056 C 248.977 321.513,248.255 318.435,248.609 314.376 L 248.758 312.663 247.452 312.510 C 246.733 312.426,245.743 312.270,245.251 312.162 C 243.799 311.844,243.796 311.851,244.580 313.710 C 247.059 319.587,247.519 324.162,246.313 330.950 C 245.449 335.813,245.061 340.513,245.058 346.145 C 245.055 353.389,245.304 354.407,248.052 358.370 C 251.761 363.722,249.927 368.719,240.816 378.082 C 236.814 382.194,233.260 382.969,231.356 380.144 C 230.238 378.485,230.432 376.570,232.156 372.257 C 236.752 360.758,236.829 359.827,234.178 347.859 C 233.693 345.668,232.792 341.142,232.175 337.803 C 231.559 334.464,230.659 329.922,230.176 327.709 C 229.189 323.197,227.909 315.166,227.344 309.939 L 226.968 306.471 224.602 305.713 C 222.823 305.144,217.612 303.007,217.277 302.710 C 217.178 302.622,218.188 296.556,218.891 293.015 C 219.648 289.205,221.242 283.009,222.534 278.859 C 222.893 277.705,223.707 275.090,224.342 273.049 L 225.497 269.338 223.779 266.457 C 221.237 262.193,217.559 256.741,214.585 252.827 C 211.086 248.220,211.174 248.405,211.174 245.666 C 211.173 243.094,211.077 243.469,214.186 233.966 C 219.568 217.520,220.679 215.743,227.263 213.061 C 228.676 212.485,230.285 211.787,230.838 211.509 C 231.391 211.231,233.151 210.473,234.749 209.823 C 238.253 208.398,238.045 208.572,237.095 207.854 C 232.388 204.296,231.816 202.992,232.170 196.615 C 232.761 185.953,233.912 182.653,238.157 179.459 C 242.841 175.934,247.660 174.874,252.404 176.325 M170.104 213.575 C 170.656 219.541,173.862 232.867,174.740 232.846 C 174.806 232.845,175.858 230.780,177.077 228.258 C 179.615 223.009,179.583 223.441,177.612 221.006 C 177.065 220.330,175.925 218.821,175.079 217.654 C 173.487 215.455,170.295 211.620,170.058 211.620 C 169.983 211.620,170.004 212.500,170.104 213.575 M129.480 214.413 C 129.225 214.782,127.689 217.212,126.068 219.813 L 123.119 224.542 126.643 229.869 L 130.168 235.196 130.224 234.190 C 130.256 233.637,130.205 228.810,130.113 223.464 L 129.944 213.743 129.480 214.413 M266.336 237.039 C 265.413 243.005,266.525 253.937,268.672 260.000 L 268.988 260.894 269.129 260.000 C 269.359 258.548,269.679 255.454,269.823 253.296 C 269.897 252.190,270.168 249.613,270.426 247.570 C 270.976 243.204,271.078 243.707,268.603 238.577 C 266.631 234.489,266.721 234.550,266.336 237.039 M228.553 238.778 C 227.407 241.227,226.707 243.369,226.146 246.142 L 225.670 248.495 227.527 251.166 C 228.939 253.196,229.422 253.746,229.537 253.455 C 229.729 252.973,229.722 241.689,229.529 239.002 L 229.385 236.998 228.553 238.778 " stroke="none" fill="#ffffff" fill-rule="evenodd"></path><path id="path1" d="M8.268 8.603 C 7.725 9.156,7.332 9.609,7.393 9.609 C 7.454 9.609,7.949 9.156,8.492 8.603 C 9.034 8.050,9.428 7.598,9.367 7.598 C 9.305 7.598,8.811 8.050,8.268 8.603 M393.451 12.176 C 393.656 12.605,393.863 12.916,393.911 12.867 C 394.014 12.765,393.335 11.397,393.182 11.397 C 393.126 11.397,393.247 11.747,393.451 12.176 M395.136 17.430 C 395.136 17.860,395.182 18.036,395.238 17.821 C 395.294 17.606,395.294 17.254,395.238 17.039 C 395.182 16.824,395.136 17.000,395.136 17.430 M21.378 154.693 C 21.296 227.975,21.229 339.092,21.229 401.620 L 21.229 515.307 199.784 515.307 C 346.409 515.307,378.358 515.255,378.450 515.016 C 378.511 514.855,378.483 403.763,378.387 268.144 L 378.212 21.564 199.870 21.508 L 21.527 21.452 21.378 154.693 M3.910 168.268 C 3.910 246.497,3.935 278.500,3.966 239.385 C 3.998 200.271,3.998 136.265,3.966 97.151 C 3.935 58.036,3.910 90.039,3.910 168.268 M305.922 268.008 L 305.922 391.435 285.307 391.583 C 273.969 391.665,226.218 391.732,179.193 391.732 L 93.694 391.732 93.528 268.470 C 93.428 195.111,93.443 145.127,93.563 145.007 C 93.682 144.888,127.761 144.782,176.882 144.749 C 222.597 144.718,270.332 144.667,282.961 144.637 L 305.922 144.581 305.922 268.008 M140.323 156.145 L 139.553 156.983 140.391 156.213 C 141.171 155.496,141.332 155.307,141.161 155.307 C 141.124 155.307,140.747 155.684,140.323 156.145 M162.250 159.441 C 162.250 159.564,162.394 159.916,162.570 160.223 C 162.745 160.531,162.889 160.682,162.889 160.559 C 162.889 160.436,162.745 160.084,162.570 159.777 C 162.394 159.469,162.250 159.318,162.250 159.441 M248.438 175.801 C 248.716 175.854,249.119 175.852,249.332 175.796 C 249.546 175.740,249.318 175.696,248.827 175.699 C 248.335 175.701,248.160 175.747,248.438 175.801 M141.828 180.670 C 141.899 181.285,141.994 181.830,142.040 181.881 C 142.197 182.057,142.078 180.670,141.888 180.112 C 141.760 179.735,141.741 179.917,141.828 180.670 M236.413 180.950 L 235.642 181.788 236.480 181.018 C 236.941 180.594,237.318 180.217,237.318 180.180 C 237.318 180.009,237.129 180.170,236.413 180.950 M159.626 182.458 C 159.627 183.318,159.668 183.643,159.716 183.179 C 159.765 182.716,159.764 182.012,159.714 181.615 C 159.665 181.218,159.625 181.598,159.626 182.458 M142.120 183.844 C 142.060 184.607,142.092 185.149,142.192 185.050 C 142.291 184.950,142.340 184.326,142.300 183.663 L 142.228 182.458 142.120 183.844 M176.648 191.285 C 177.128 191.777,177.571 192.179,177.633 192.179 C 177.694 192.179,177.352 191.777,176.872 191.285 C 176.391 190.793,175.948 190.391,175.887 190.391 C 175.825 190.391,176.168 190.793,176.648 191.285 M124.574 193.128 L 123.240 194.525 124.637 193.191 C 125.405 192.458,126.034 191.829,126.034 191.795 C 126.034 191.630,125.813 191.831,124.574 193.128 M264.190 198.547 C 264.193 199.039,264.239 199.214,264.292 198.936 C 264.346 198.658,264.344 198.256,264.288 198.042 C 264.232 197.828,264.188 198.056,264.190 198.547 M181.915 199.218 C 181.915 199.341,182.059 199.693,182.235 200.000 C 182.410 200.307,182.554 200.458,182.554 200.335 C 182.554 200.212,182.410 199.860,182.235 199.553 C 182.059 199.246,181.915 199.095,181.915 199.218 M234.637 205.698 C 235.429 206.497,236.127 207.151,236.188 207.151 C 236.250 207.151,235.652 206.497,234.860 205.698 C 234.069 204.899,233.370 204.246,233.309 204.246 C 233.248 204.246,233.845 204.899,234.637 205.698 M171.620 213.296 C 172.037 213.726,172.428 214.078,172.490 214.078 C 172.551 214.078,172.261 213.726,171.844 213.296 C 171.427 212.866,171.035 212.514,170.974 212.514 C 170.912 212.514,171.203 212.866,171.620 213.296 M189.208 215.748 C 189.538 216.420,189.845 216.933,189.891 216.887 C 189.991 216.787,188.864 214.525,188.714 214.525 C 188.656 214.525,188.878 215.075,189.208 215.748 M273.743 215.754 C 274.160 216.184,274.551 216.536,274.613 216.536 C 274.674 216.536,274.383 216.184,273.966 215.754 C 273.550 215.324,273.158 214.972,273.097 214.972 C 273.035 214.972,273.326 215.324,273.743 215.754 M174.078 216.313 C 174.341 216.682,174.606 216.983,174.667 216.983 C 174.729 216.983,174.564 216.682,174.302 216.313 C 174.039 215.944,173.774 215.642,173.713 215.642 C 173.651 215.642,173.816 215.944,174.078 216.313 M170.331 216.760 C 170.331 217.190,170.377 217.366,170.433 217.151 C 170.490 216.936,170.490 216.584,170.433 216.369 C 170.377 216.154,170.331 216.330,170.331 216.760 M130.152 222.458 C 130.152 225.285,130.184 226.411,130.223 224.959 C 130.262 223.508,130.262 221.196,130.223 219.820 C 130.183 218.444,130.152 219.631,130.152 222.458 M219.766 219.015 C 219.569 219.395,219.448 219.746,219.497 219.794 C 219.545 219.843,219.752 219.532,219.956 219.103 C 220.416 218.140,220.257 218.066,219.766 219.015 M105.983 226.816 C 105.983 227.369,106.026 227.595,106.079 227.318 C 106.133 227.042,106.133 226.589,106.079 226.313 C 106.026 226.036,105.983 226.263,105.983 226.816 M177.699 226.932 C 177.431 227.483,177.259 227.933,177.317 227.933 C 177.468 227.933,178.371 226.118,178.270 226.017 C 178.223 225.970,177.966 226.382,177.699 226.932 M216.114 227.958 C 215.977 228.353,215.903 228.715,215.951 228.763 C 215.999 228.811,216.150 228.527,216.288 228.132 C 216.426 227.737,216.499 227.374,216.451 227.327 C 216.404 227.279,216.252 227.563,216.114 227.958 M176.241 229.843 C 175.716 230.944,175.790 231.131,176.339 230.091 C 176.588 229.618,176.753 229.192,176.704 229.144 C 176.656 229.095,176.448 229.410,176.241 229.843 M130.326 232.806 C 130.290 234.574,130.214 235.074,130.000 234.952 C 129.778 234.827,129.777 234.856,129.996 235.092 C 130.454 235.586,130.522 235.243,130.446 232.822 L 130.374 230.503 130.326 232.806 M111.732 236.313 C 112.399 236.989,112.996 237.542,113.057 237.542 C 113.119 237.542,112.623 236.989,111.955 236.313 C 111.288 235.637,110.691 235.084,110.630 235.084 C 110.568 235.084,111.064 235.637,111.732 236.313 M267.502 236.313 C 267.502 236.436,267.646 236.788,267.821 237.095 C 267.997 237.402,268.141 237.553,268.141 237.430 C 268.141 237.307,267.997 236.955,267.821 236.648 C 267.646 236.341,267.502 236.190,267.502 236.313 M229.043 237.331 C 228.904 237.591,228.840 237.853,228.900 237.913 C 228.960 237.973,229.094 237.789,229.197 237.503 C 229.338 237.115,229.418 237.436,229.512 238.771 L 229.639 240.559 229.680 238.840 C 229.722 237.068,229.485 236.506,229.043 237.331 M189.534 238.334 C 189.159 239.155,189.231 239.331,189.635 238.584 C 189.824 238.235,189.937 237.908,189.886 237.856 C 189.835 237.805,189.676 238.020,189.534 238.334 M265.983 239.106 C 265.983 239.659,266.026 239.885,266.079 239.609 C 266.133 239.332,266.133 238.880,266.079 238.603 C 266.026 238.327,265.983 238.553,265.983 239.106 M269.431 240.329 C 269.761 241.001,270.069 241.514,270.114 241.468 C 270.215 241.368,269.088 239.106,268.937 239.106 C 268.879 239.106,269.102 239.656,269.431 240.329 M212.195 239.904 C 212.113 240.232,212.088 240.543,212.141 240.595 C 212.194 240.648,212.304 240.423,212.386 240.096 C 212.468 239.768,212.493 239.457,212.440 239.405 C 212.387 239.352,212.277 239.577,212.195 239.904 M265.781 242.905 C 265.781 244.196,265.818 244.723,265.863 244.078 C 265.908 243.433,265.908 242.377,265.863 241.732 C 265.818 241.087,265.781 241.615,265.781 242.905 M187.861 241.686 C 187.336 242.787,187.410 242.975,187.959 241.934 C 188.208 241.462,188.373 241.036,188.324 240.987 C 188.276 240.939,188.068 241.254,187.861 241.686 M117.533 242.737 C 118.459 243.724,118.659 243.901,118.659 243.734 C 118.659 243.698,118.182 243.220,117.598 242.672 L 116.536 241.676 117.533 242.737 M229.815 246.816 C 229.815 249.397,229.848 250.422,229.888 249.094 C 229.927 247.766,229.927 245.654,229.887 244.401 C 229.847 243.148,229.815 244.235,229.815 246.816 M120.559 246.034 C 121.412 246.894,122.161 247.598,122.223 247.598 C 122.284 247.598,121.636 246.894,120.782 246.034 C 119.928 245.173,119.180 244.469,119.118 244.469 C 119.057 244.469,119.705 245.173,120.559 246.034 M265.983 246.704 C 265.983 247.257,266.026 247.483,266.079 247.207 C 266.133 246.930,266.133 246.478,266.079 246.201 C 266.026 245.925,265.983 246.151,265.983 246.704 M124.022 249.274 C 124.439 249.704,124.831 250.056,124.892 250.056 C 124.954 250.056,124.663 249.704,124.246 249.274 C 123.829 248.844,123.437 248.492,123.376 248.492 C 123.315 248.492,123.605 248.844,124.022 249.274 M285.192 251.397 C 285.192 251.827,285.237 252.003,285.294 251.788 C 285.350 251.573,285.350 251.221,285.294 251.006 C 285.237 250.791,285.192 250.966,285.192 251.397 M269.790 254.413 C 269.791 255.151,269.833 255.426,269.883 255.024 C 269.932 254.622,269.931 254.019,269.880 253.683 C 269.829 253.347,269.789 253.676,269.790 254.413 M215.866 254.525 C 216.128 254.894,216.394 255.196,216.455 255.196 C 216.516 255.196,216.352 254.894,216.089 254.525 C 215.827 254.156,215.562 253.855,215.500 253.855 C 215.439 253.855,215.603 254.156,215.866 254.525 M129.768 255.208 C 129.925 255.410,130.070 256.490,130.112 257.778 L 130.186 260.000 130.233 257.737 C 130.272 255.812,130.221 255.428,129.888 255.167 C 129.544 254.897,129.530 254.902,129.768 255.208 M269.554 256.872 C 269.556 257.363,269.602 257.538,269.655 257.260 C 269.709 256.982,269.707 256.580,269.651 256.366 C 269.595 256.152,269.551 256.380,269.554 256.872 M218.101 257.654 C 218.363 258.022,218.628 258.324,218.690 258.324 C 218.751 258.324,218.587 258.022,218.324 257.654 C 218.061 257.285,217.796 256.983,217.735 256.983 C 217.673 256.983,217.838 257.285,218.101 257.654 M269.326 258.771 C 269.326 259.201,269.372 259.377,269.428 259.162 C 269.484 258.947,269.484 258.595,269.428 258.380 C 269.372 258.165,269.326 258.341,269.326 258.771 M219.860 260.223 C 219.980 260.469,220.243 260.872,220.443 261.117 L 220.807 261.564 220.587 261.117 C 220.467 260.872,220.204 260.469,220.004 260.223 L 219.640 259.777 219.860 260.223 M129.904 263.687 C 129.904 264.486,129.944 264.813,129.994 264.413 C 130.044 264.014,130.044 263.360,129.994 262.961 C 129.944 262.561,129.904 262.888,129.904 263.687 M129.673 269.385 C 129.675 270.000,129.718 270.225,129.769 269.885 C 129.821 269.546,129.819 269.043,129.766 268.768 C 129.713 268.493,129.671 268.771,129.673 269.385 M223.707 274.881 C 223.556 275.385,223.474 275.839,223.524 275.889 C 223.574 275.939,223.739 275.568,223.890 275.063 C 224.041 274.559,224.124 274.105,224.074 274.055 C 224.023 274.005,223.859 274.376,223.707 274.881 M134.371 276.089 C 134.372 276.827,134.414 277.102,134.464 276.700 C 134.513 276.298,134.512 275.695,134.461 275.359 C 134.410 275.023,134.370 275.352,134.371 276.089 M178.614 277.318 C 178.614 277.994,178.656 278.271,178.708 277.933 C 178.759 277.595,178.759 277.042,178.708 276.704 C 178.656 276.366,178.614 276.642,178.614 277.318 M278.436 277.835 C 278.436 277.874,278.763 278.201,279.162 278.562 L 279.888 279.218 279.232 278.492 C 278.620 277.815,278.436 277.663,278.436 277.835 M134.607 281.453 C 134.607 282.682,134.645 283.156,134.690 282.506 C 134.735 281.857,134.735 280.852,134.689 280.272 C 134.643 279.692,134.606 280.223,134.607 281.453 M134.377 286.704 C 134.377 287.626,134.416 288.003,134.464 287.542 C 134.513 287.081,134.513 286.327,134.464 285.866 C 134.416 285.405,134.377 285.782,134.377 286.704 M220.016 287.725 C 219.934 288.053,219.910 288.364,219.962 288.417 C 220.015 288.469,220.125 288.244,220.208 287.917 C 220.290 287.590,220.314 287.278,220.261 287.226 C 220.209 287.173,220.098 287.398,220.016 287.725 M287.374 288.562 C 287.374 288.600,287.701 288.927,288.101 289.288 L 288.827 289.944 288.170 289.218 C 287.559 288.541,287.374 288.389,287.374 288.562 M134.142 290.168 C 134.144 290.782,134.187 291.007,134.239 290.667 C 134.290 290.328,134.289 289.825,134.236 289.550 C 134.182 289.275,134.140 289.553,134.142 290.168 M179.721 290.838 C 179.724 291.330,179.769 291.504,179.823 291.226 C 179.876 290.948,179.874 290.546,179.818 290.333 C 179.762 290.119,179.719 290.346,179.721 290.838 M133.926 293.184 C 133.926 293.983,133.967 294.310,134.016 293.911 C 134.066 293.511,134.066 292.858,134.016 292.458 C 133.967 292.059,133.926 292.385,133.926 293.184 M179.945 293.073 C 179.947 293.564,179.993 293.739,180.046 293.461 C 180.100 293.183,180.098 292.781,180.042 292.567 C 179.986 292.354,179.942 292.581,179.945 293.073 M156.923 294.302 C 156.923 294.732,156.969 294.908,157.026 294.693 C 157.082 294.478,157.082 294.126,157.026 293.911 C 156.969 293.696,156.923 293.872,156.923 294.302 M180.168 295.084 C 180.171 295.575,180.216 295.750,180.270 295.472 C 180.323 295.194,180.321 294.792,180.265 294.578 C 180.209 294.365,180.166 294.592,180.168 295.084 M158.691 295.419 C 158.691 295.603,158.777 295.955,158.883 296.201 C 159.004 296.483,159.075 296.524,159.075 296.313 C 159.075 296.128,158.988 295.777,158.883 295.531 C 158.762 295.249,158.691 295.208,158.691 295.419 M180.387 296.983 C 180.387 297.413,180.433 297.589,180.489 297.374 C 180.545 297.159,180.545 296.807,180.489 296.592 C 180.433 296.377,180.387 296.553,180.387 296.983 M133.703 298.101 C 133.703 298.899,133.743 299.226,133.793 298.827 C 133.843 298.427,133.843 297.774,133.793 297.374 C 133.743 296.975,133.703 297.302,133.703 298.101 M274.749 306.488 C 274.190 306.757,274.171 306.788,274.637 306.675 C 275.270 306.520,275.982 306.157,275.642 306.162 C 275.520 306.164,275.117 306.311,274.749 306.488 M227.091 307.486 C 227.091 307.916,227.137 308.092,227.193 307.877 C 227.249 307.662,227.249 307.310,227.193 307.095 C 227.137 306.880,227.091 307.056,227.091 307.486 M227.319 309.609 C 227.321 310.101,227.367 310.275,227.421 309.997 C 227.474 309.719,227.472 309.317,227.416 309.104 C 227.360 308.890,227.316 309.117,227.319 309.609 M227.538 311.508 C 227.538 311.939,227.584 312.115,227.640 311.899 C 227.696 311.684,227.696 311.332,227.640 311.117 C 227.584 310.902,227.538 311.078,227.538 311.508 M260.223 312.179 C 260.704 312.670,261.147 313.073,261.208 313.073 C 261.269 313.073,260.927 312.670,260.447 312.179 C 259.967 311.687,259.524 311.285,259.462 311.285 C 259.401 311.285,259.743 311.687,260.223 312.179 M248.199 312.562 C 248.507 312.619,248.724 312.856,248.785 313.201 C 248.869 313.678,248.878 313.669,248.854 313.131 C 248.832 312.635,248.717 312.510,248.268 312.492 C 247.810 312.475,247.798 312.487,248.199 312.562 M227.761 313.296 C 227.761 313.726,227.807 313.902,227.864 313.687 C 227.920 313.472,227.920 313.120,227.864 312.905 C 227.807 312.690,227.761 312.866,227.761 313.296 M248.565 315.866 C 248.566 316.726,248.606 317.051,248.655 316.587 C 248.703 316.124,248.702 315.420,248.653 315.023 C 248.604 314.626,248.564 315.006,248.565 315.866 M395.195 418.436 C 395.195 473.989,395.220 496.682,395.251 468.864 C 395.283 441.047,395.283 395.595,395.251 367.859 C 395.220 340.123,395.195 362.883,395.195 418.436 M154.027 319.106 C 154.027 319.659,154.071 319.885,154.124 319.609 C 154.177 319.332,154.177 318.880,154.124 318.603 C 154.071 318.327,154.027 318.553,154.027 319.106 M248.771 318.994 C 248.774 319.486,248.820 319.661,248.873 319.383 C 248.927 319.105,248.925 318.703,248.869 318.489 C 248.813 318.275,248.769 318.503,248.771 318.994 M246.793 324.022 C 246.793 325.804,246.827 326.534,246.870 325.642 C 246.912 324.751,246.912 323.293,246.870 322.402 C 246.827 321.511,246.793 322.240,246.793 324.022 M153.804 323.128 C 153.804 323.682,153.847 323.908,153.901 323.631 C 153.954 323.355,153.954 322.902,153.901 322.626 C 153.847 322.349,153.804 322.575,153.804 323.128 M132.816 324.916 C 132.816 325.961,132.854 326.388,132.901 325.866 C 132.948 325.344,132.948 324.489,132.901 323.966 C 132.854 323.444,132.816 323.872,132.816 324.916 M153.589 326.369 C 153.590 327.106,153.632 327.381,153.682 326.979 C 153.731 326.578,153.730 325.974,153.679 325.638 C 153.628 325.303,153.588 325.631,153.589 326.369 M246.537 328.380 C 246.539 328.872,246.585 329.046,246.638 328.768 C 246.692 328.490,246.690 328.088,246.634 327.874 C 246.578 327.661,246.534 327.888,246.537 328.380 M153.365 329.497 C 153.367 330.235,153.408 330.509,153.458 330.108 C 153.508 329.706,153.507 329.103,153.456 328.767 C 153.405 328.431,153.364 328.760,153.365 329.497 M132.581 329.609 C 132.581 330.285,132.623 330.561,132.674 330.223 C 132.725 329.885,132.725 329.332,132.674 328.994 C 132.623 328.656,132.581 328.933,132.581 329.609 M132.354 332.626 C 132.356 333.240,132.399 333.465,132.451 333.125 C 132.502 332.786,132.501 332.283,132.448 332.008 C 132.395 331.733,132.353 332.011,132.354 332.626 M153.142 332.849 C 153.143 333.587,153.185 333.861,153.235 333.460 C 153.284 333.058,153.283 332.455,153.232 332.119 C 153.181 331.783,153.141 332.112,153.142 332.849 M265.983 334.749 C 265.983 335.302,266.026 335.528,266.079 335.251 C 266.133 334.975,266.133 334.522,266.079 334.246 C 266.026 333.969,265.983 334.196,265.983 334.749 M132.128 334.972 C 132.128 335.525,132.171 335.751,132.225 335.475 C 132.278 335.198,132.278 334.746,132.225 334.469 C 132.171 334.193,132.128 334.419,132.128 334.972 M131.895 337.430 C 131.895 337.860,131.941 338.036,131.998 337.821 C 132.054 337.606,132.054 337.254,131.998 337.039 C 131.941 336.824,131.895 337.000,131.895 337.430 M265.776 338.771 C 265.776 339.816,265.815 340.243,265.862 339.721 C 265.909 339.198,265.909 338.344,265.862 337.821 C 265.815 337.299,265.776 337.726,265.776 338.771 M245.192 338.994 C 245.192 339.425,245.237 339.601,245.294 339.385 C 245.350 339.170,245.350 338.818,245.294 338.603 C 245.237 338.388,245.192 338.564,245.192 338.994 M255.893 340.112 C 255.889 340.296,256.024 340.749,256.193 341.117 C 256.588 341.980,256.594 341.579,256.201 340.559 C 256.035 340.128,255.897 339.927,255.893 340.112 M244.983 341.676 C 244.983 342.352,245.025 342.628,245.076 342.291 C 245.127 341.953,245.127 341.399,245.076 341.061 C 245.025 340.723,244.983 341.000,244.983 341.676 M265.986 342.458 C 265.987 343.073,266.031 343.298,266.082 342.958 C 266.134 342.618,266.132 342.115,266.079 341.841 C 266.026 341.566,265.984 341.844,265.986 342.458 M244.777 346.145 C 244.777 347.559,244.814 348.137,244.858 347.430 C 244.902 346.723,244.902 345.567,244.858 344.860 C 244.814 344.154,244.777 344.732,244.777 346.145 M152.477 345.922 C 152.477 346.844,152.517 347.221,152.565 346.760 C 152.613 346.299,152.613 345.545,152.565 345.084 C 152.517 344.623,152.477 345.000,152.477 345.922 M244.977 350.615 C 244.977 351.168,245.021 351.394,245.074 351.117 C 245.127 350.841,245.127 350.388,245.074 350.112 C 245.021 349.835,244.977 350.061,244.977 350.615 M168.767 351.732 C 168.767 352.162,168.813 352.338,168.869 352.123 C 168.925 351.908,168.925 351.556,168.869 351.341 C 168.813 351.126,168.767 351.302,168.767 351.732 M152.261 356.201 C 152.261 357.492,152.298 358.020,152.344 357.374 C 152.389 356.729,152.389 355.673,152.344 355.028 C 152.298 354.383,152.261 354.911,152.261 356.201 M194.246 356.132 C 194.461 356.188,194.813 356.188,195.028 356.132 C 195.243 356.075,195.067 356.029,194.637 356.029 C 194.207 356.029,194.031 356.075,194.246 356.132 M170.950 358.338 C 171.734 358.511,173.138 358.542,173.041 358.384 C 172.982 358.290,172.413 358.224,171.775 358.238 C 171.137 358.252,170.765 358.297,170.950 358.338 M273.348 362.011 C 273.348 362.441,273.394 362.617,273.450 362.402 C 273.506 362.187,273.506 361.835,273.450 361.620 C 273.394 361.405,273.348 361.581,273.348 362.011 M173.241 363.240 C 173.243 363.732,173.289 363.907,173.342 363.629 C 173.396 363.351,173.394 362.948,173.338 362.735 C 173.282 362.521,173.238 362.749,173.241 363.240 M273.604 365.587 C 273.604 367.000,273.640 367.578,273.685 366.872 C 273.729 366.165,273.729 365.008,273.685 364.302 C 273.640 363.595,273.604 364.173,273.604 365.587 M129.832 363.799 C 130.263 364.034,130.715 364.227,130.838 364.227 C 130.961 364.227,130.709 364.034,130.279 363.799 C 129.849 363.563,129.397 363.371,129.274 363.371 C 129.151 363.371,129.402 363.563,129.832 363.799 M197.207 363.799 C 196.925 363.920,196.884 363.991,197.095 363.991 C 197.279 363.991,197.631 363.905,197.877 363.799 C 198.159 363.678,198.200 363.607,197.989 363.607 C 197.804 363.607,197.453 363.693,197.207 363.799 M263.464 365.140 C 263.726 365.508,263.991 365.810,264.053 365.810 C 264.114 365.810,263.950 365.508,263.687 365.140 C 263.425 364.771,263.160 364.469,263.098 364.469 C 263.037 364.469,263.201 364.771,263.464 365.140 M191.008 365.521 C 191.286 365.575,191.688 365.573,191.902 365.517 C 192.116 365.461,191.888 365.417,191.397 365.419 C 190.905 365.422,190.730 365.468,191.008 365.521 M174.916 365.744 C 175.193 365.798,175.645 365.798,175.922 365.744 C 176.198 365.691,175.972 365.647,175.419 365.647 C 174.866 365.647,174.640 365.691,174.916 365.744 M177.153 365.968 C 177.431 366.022,177.834 366.020,178.047 365.964 C 178.261 365.908,178.034 365.864,177.542 365.866 C 177.050 365.869,176.875 365.915,177.153 365.968 M130.491 367.989 L 129.721 368.827 130.559 368.057 C 131.339 367.340,131.499 367.151,131.329 367.151 C 131.291 367.151,130.914 367.528,130.491 367.989 M273.348 369.162 C 273.348 369.592,273.394 369.768,273.450 369.553 C 273.506 369.338,273.506 368.986,273.450 368.771 C 273.394 368.556,273.348 368.732,273.348 369.162 M267.263 370.168 C 267.930 370.844,268.527 371.397,268.588 371.397 C 268.650 371.397,268.154 370.844,267.486 370.168 C 266.818 369.492,266.222 368.939,266.161 368.939 C 266.099 368.939,266.595 369.492,267.263 370.168 M124.343 371.453 L 123.687 372.179 124.413 371.522 C 124.813 371.161,125.140 370.835,125.140 370.796 C 125.140 370.624,124.955 370.776,124.343 371.453 M142.339 374.022 L 141.117 375.307 142.397 374.091 L 143.678 372.874 144.297 373.420 L 144.916 373.966 144.374 373.352 C 143.674 372.557,143.758 372.530,142.339 374.022 M148.156 373.073 C 147.849 373.248,147.698 373.392,147.821 373.392 C 147.944 373.392,148.296 373.248,148.603 373.073 C 148.911 372.897,149.061 372.753,148.939 372.753 C 148.816 372.753,148.464 372.897,148.156 373.073 M122.941 375.797 C 122.921 376.926,122.980 377.898,123.073 377.955 C 123.165 378.012,123.212 377.390,123.179 376.572 C 123.071 373.979,122.978 373.675,122.941 375.797 M242.004 376.704 L 240.782 377.989 242.067 376.767 C 243.261 375.633,243.454 375.419,243.288 375.419 C 243.254 375.419,242.675 375.997,242.004 376.704 M230.675 377.430 C 230.675 377.983,230.719 378.209,230.772 377.933 C 230.825 377.656,230.825 377.204,230.772 376.927 C 230.719 376.651,230.675 376.877,230.675 377.430 M128.994 378.714 C 130.193 378.754,132.154 378.754,133.352 378.714 C 134.550 378.674,133.570 378.641,131.173 378.641 C 128.777 378.641,127.796 378.674,128.994 378.714 M8.035 527.430 C 8.961 528.417,9.162 528.594,9.162 528.426 C 9.162 528.391,8.684 527.913,8.101 527.365 L 7.039 526.369 8.035 527.430 M390.826 527.542 L 390.056 528.380 390.894 527.610 C 391.355 527.186,391.732 526.809,391.732 526.772 C 391.732 526.601,391.543 526.762,390.826 527.542 M17.605 531.785 C 18.255 531.830,19.260 531.830,19.840 531.784 C 20.420 531.738,19.888 531.701,18.659 531.702 C 17.430 531.702,16.956 531.740,17.605 531.785 M213.705 531.788 C 244.657 531.819,295.238 531.819,326.108 531.788 C 356.978 531.756,331.654 531.731,269.832 531.731 C 208.011 531.731,182.754 531.756,213.705 531.788 " stroke="none" fill="#1c4a98" fill-rule="evenodd"></path><path id="path2" d="M14.637 0.326 C 7.545 2.157,2.158 7.491,0.349 14.474 C -0.266 16.844,-0.175 520.952,0.440 522.943 C 2.375 529.207,6.859 533.741,13.187 535.833 L 14.642 536.314 199.779 536.258 L 384.916 536.201 386.534 535.601 C 387.423 535.271,388.376 534.844,388.650 534.651 C 388.925 534.459,389.294 534.302,389.470 534.302 C 391.132 534.302,397.989 527.280,397.989 525.577 C 397.989 525.386,398.088 525.130,398.209 525.009 C 398.539 524.678,399.478 521.860,399.765 520.335 C 399.953 519.341,400.002 453.955,399.953 267.486 L 399.888 15.978 399.408 14.637 C 397.919 10.477,396.580 8.207,394.192 5.791 C 392.862 4.446,389.576 2.011,389.091 2.011 C 388.980 2.011,388.240 1.717,387.448 1.358 C 386.656 0.999,385.396 0.546,384.648 0.352 C 382.780 -0.131,16.510 -0.157,14.637 0.326 M384.861 4.849 C 389.696 6.695,392.754 9.635,394.465 14.080 L 395.196 15.978 395.252 267.478 C 395.308 515.705,395.303 518.998,394.875 520.550 C 393.265 526.398,389.107 530.348,383.352 531.496 C 381.722 531.822,365.426 531.848,198.547 531.792 L 15.531 531.732 14.245 531.241 C 8.837 529.175,5.361 525.469,4.244 520.575 L 3.780 518.547 3.846 267.821 L 3.911 17.095 4.417 15.312 C 5.962 9.878,10.884 5.276,16.089 4.400 C 16.397 4.348,99.207 4.317,200.112 4.332 L 383.575 4.358 384.861 4.849 M146.788 153.163 C 141.573 154.658,140.143 155.777,138.185 159.895 C 135.677 165.173,135.919 168.413,139.264 174.302 C 141.474 178.191,142.094 180.027,142.174 182.912 L 142.235 185.103 140.200 185.692 C 139.081 186.016,137.421 186.643,136.513 187.086 C 135.604 187.529,134.156 188.115,133.296 188.388 C 126.901 190.416,124.237 192.684,119.784 199.888 C 118.645 201.732,117.467 203.625,117.166 204.095 C 114.822 207.762,109.878 216.929,107.565 221.899 C 105.084 227.231,105.713 229.680,111.021 235.350 C 112.092 236.494,113.835 238.436,114.895 239.665 C 116.999 242.106,122.358 247.606,125.363 250.409 C 126.408 251.384,127.957 252.964,128.805 253.919 L 130.347 255.657 130.085 262.074 C 129.941 265.604,129.762 269.502,129.688 270.737 L 129.554 272.983 132.005 273.923 L 134.457 274.862 134.604 278.381 C 134.735 281.510,134.513 288.431,134.194 291.173 C 134.129 291.726,133.973 294.302,133.847 296.897 C 133.720 299.492,133.471 302.710,133.293 304.048 C 133.055 305.837,132.968 308.965,132.964 315.866 C 132.958 328.219,132.758 331.484,131.269 343.575 C 130.593 349.064,129.642 355.040,128.590 360.415 C 128.096 362.941,127.975 362.736,130.735 364.047 C 133.634 365.423,133.617 365.220,131.039 367.666 C 129.135 369.473,128.885 369.634,127.128 370.191 C 123.918 371.209,123.076 372.407,123.176 375.814 L 123.240 377.984 124.804 378.274 C 125.877 378.472,128.018 378.543,131.620 378.499 C 137.939 378.423,137.625 378.536,141.246 375.038 L 143.704 372.663 144.584 373.522 L 145.463 374.381 147.536 373.409 C 148.676 372.874,149.627 372.427,149.649 372.416 C 149.714 372.384,149.092 368.354,148.630 365.810 C 148.131 363.063,148.018 363.269,150.264 362.812 C 151.239 362.614,152.054 362.428,152.076 362.399 C 152.097 362.370,152.228 357.620,152.367 351.844 C 152.619 341.351,152.695 339.726,153.525 326.927 C 153.769 323.179,154.072 318.453,154.200 316.425 C 154.467 312.175,155.125 306.281,155.746 302.570 C 156.227 299.691,156.773 295.802,156.995 293.670 C 157.183 291.873,157.439 290.937,157.617 291.397 C 157.827 291.939,159.221 296.806,160.305 300.782 C 161.543 305.323,162.286 308.693,162.914 312.626 C 163.179 314.285,163.732 317.503,164.142 319.777 C 164.553 322.050,164.955 324.464,165.036 325.140 C 165.117 325.816,165.523 328.430,165.939 330.950 C 166.355 333.469,166.948 337.642,167.258 340.223 C 167.568 342.804,168.067 346.525,168.368 348.492 C 168.668 350.458,169.065 353.361,169.251 354.943 C 169.648 358.336,169.469 358.073,171.470 358.212 L 173.073 358.324 173.258 361.787 C 173.361 363.692,173.477 365.284,173.518 365.324 C 173.559 365.365,175.285 365.587,177.355 365.817 C 179.424 366.048,181.444 366.285,181.844 366.344 L 182.570 366.452 182.570 365.461 C 182.570 364.915,182.659 364.469,182.769 364.469 C 182.878 364.469,183.909 364.661,185.059 364.896 C 190.124 365.930,191.258 365.802,198.781 363.336 C 201.848 362.331,204.432 361.465,204.523 361.412 C 204.815 361.244,203.811 359.564,202.876 358.657 C 201.326 357.153,200.094 356.712,196.378 356.331 C 192.073 355.890,188.302 354.858,188.692 354.228 C 188.749 354.135,189.959 353.274,191.381 352.315 C 192.803 351.356,194.023 350.480,194.093 350.368 C 194.162 350.256,193.614 348.581,192.875 346.646 C 189.148 336.887,187.411 330.890,184.701 318.436 C 184.366 316.899,183.550 313.380,182.886 310.615 C 180.901 302.344,180.015 295.710,178.742 279.584 C 178.451 275.892,178.316 276.163,180.630 275.773 C 181.513 275.625,182.959 275.349,183.845 275.161 L 185.456 274.820 184.889 273.332 C 180.620 262.113,180.557 261.846,181.338 258.286 C 182.424 253.335,183.201 251.349,187.487 242.570 C 188.627 240.235,190.346 236.866,191.307 235.084 C 194.593 228.990,194.936 225.880,192.721 222.235 C 191.011 219.419,185.698 208.615,185.698 207.952 C 185.698 207.685,182.904 201.318,181.620 198.659 C 179.578 194.431,177.134 191.252,174.748 189.720 C 172.660 188.380,164.660 185.512,160.135 184.480 L 159.487 184.332 159.618 182.024 C 159.727 180.100,159.881 179.377,160.545 177.679 C 160.983 176.559,161.701 174.720,162.142 173.592 C 164.653 167.167,164.405 162.531,161.305 157.943 C 159.113 154.699,150.884 151.988,146.788 153.163 M246.426 175.894 C 241.254 176.616,235.634 180.702,234.016 184.916 C 232.676 188.409,231.549 199.668,232.290 202.163 C 232.668 203.436,234.811 205.937,236.870 207.507 C 238.309 208.604,238.475 208.409,234.804 209.926 C 233.053 210.650,230.689 211.679,229.552 212.213 C 228.414 212.747,227.373 213.184,227.239 213.184 C 226.491 213.184,223.015 215.179,221.999 216.192 C 220.072 218.114,218.022 222.718,214.976 231.971 C 214.109 234.605,212.934 238.168,212.364 239.888 C 210.506 245.507,210.647 247.490,213.130 250.666 C 216.982 255.590,220.112 260.167,223.704 266.123 L 225.644 269.341 225.024 271.263 C 224.385 273.242,222.868 278.190,221.695 282.123 C 220.426 286.379,218.994 292.647,218.214 297.367 C 217.261 303.132,217.256 302.653,218.268 303.075 C 223.134 305.103,224.654 305.683,225.751 305.928 C 227.257 306.265,227.020 305.504,227.824 312.593 C 228.381 317.509,229.994 326.961,230.848 330.314 C 231.088 331.255,231.489 333.267,231.740 334.784 C 232.283 338.074,234.010 346.717,234.643 349.321 C 235.182 351.534,235.958 356.182,236.132 358.232 C 236.347 360.783,235.096 365.186,231.819 373.408 C 229.941 378.120,230.917 381.349,234.303 381.630 C 236.492 381.811,238.167 380.781,241.567 377.165 C 250.475 367.689,251.703 363.262,247.109 357.178 C 244.393 353.579,244.041 345.043,246.067 331.844 C 247.200 324.461,246.910 319.843,245.019 315.163 C 243.578 311.597,243.586 311.649,244.525 311.858 C 244.925 311.948,246.041 312.134,247.007 312.274 L 248.762 312.527 248.821 316.431 L 248.880 320.335 249.828 323.128 C 250.350 324.665,251.031 326.525,251.341 327.263 C 252.474 329.953,255.916 339.625,258.690 347.911 C 259.465 350.228,259.467 350.243,259.245 352.492 C 258.801 356.996,259.369 359.202,261.871 362.682 C 262.622 363.726,263.978 365.637,264.885 366.927 C 271.022 375.659,274.884 372.892,273.190 360.976 C 272.748 357.873,272.328 356.909,270.176 354.073 C 266.107 348.708,264.882 341.848,266.276 332.236 C 267.364 324.734,265.287 316.845,261.231 313.073 C 258.691 310.710,258.770 310.501,262.458 309.829 C 268.925 308.651,277.211 305.891,282.887 303.026 C 284.456 302.234,284.454 302.242,283.599 300.170 L 282.953 298.602 283.947 297.514 C 285.262 296.073,287.335 293.382,288.346 291.801 L 289.159 290.529 287.540 288.672 C 285.727 286.591,283.530 283.959,281.216 281.099 C 280.363 280.044,279.190 278.629,278.611 277.955 L 277.556 276.729 278.853 273.057 C 280.832 267.455,284.102 256.775,284.801 253.631 C 285.940 248.509,284.903 241.806,281.293 230.950 C 276.548 216.678,273.431 213.348,261.655 209.975 C 259.360 209.317,258.710 208.499,260.168 208.102 C 263.939 207.075,265.092 202.736,263.570 195.290 C 263.258 193.763,262.849 191.420,262.662 190.083 C 261.524 181.967,256.756 176.610,250.100 175.968 C 249.400 175.900,248.575 175.815,248.268 175.780 C 247.961 175.744,247.132 175.795,246.426 175.894 M171.161 212.570 C 172.567 214.108,173.960 215.850,175.267 217.703 C 175.849 218.529,176.835 219.836,177.457 220.608 C 178.079 221.380,178.782 222.388,179.019 222.848 L 179.450 223.686 177.191 228.323 C 175.949 230.874,174.886 233.008,174.829 233.066 C 174.118 233.783,170.583 220.301,170.171 215.307 C 170.101 214.447,169.988 213.215,169.921 212.570 C 169.855 211.925,169.865 211.397,169.945 211.397 C 170.024 211.397,170.571 211.925,171.161 212.570 M130.352 226.983 C 130.422 231.561,130.394 235.307,130.290 235.307 C 130.056 235.307,123.128 224.892,123.128 224.541 C 123.128 224.291,123.581 223.526,125.483 220.559 C 125.996 219.760,126.944 218.251,127.591 217.207 C 128.239 216.162,129.033 214.913,129.356 214.431 L 129.944 213.554 130.085 216.107 C 130.163 217.511,130.283 222.405,130.352 226.983 M268.639 238.381 C 271.155 243.552,271.112 243.275,270.299 249.050 C 270.109 250.402,269.951 252.259,269.948 253.175 C 269.943 255.200,269.312 260.594,269.049 260.867 C 268.620 261.310,267.042 254.822,266.228 249.274 C 265.542 244.594,265.917 234.854,266.783 234.862 C 266.862 234.862,267.698 236.446,268.639 238.381 M229.845 242.793 C 229.998 248.165,229.833 254.087,229.531 254.070 C 229.384 254.061,229.113 253.689,226.776 250.279 L 225.473 248.380 226.016 246.034 C 226.949 242.000,229.052 236.552,229.499 237.013 C 229.602 237.120,229.758 239.721,229.845 242.793 " stroke="none" fill="#000000" fill-rule="evenodd"></path></g></svg>