<?xml version="1.0" encoding="UTF-8" standalone="no"?>
<!-- Created with Inkscape (http://www.inkscape.org/) -->
<svg
   xmlns:svg="http://www.w3.org/2000/svg"
   xmlns="http://www.w3.org/2000/svg"
   version="1.0"
   width="630"
   height="630"
   id="svg29384">
  <defs
     id="defs29386" />
  <g
     transform="translate(-585.614,423.2093)"
     id="layer1">
    <path
       d="M 1189.0388,206.79068 C 1196.1383,206.79068 1202.8073,204.02756 1207.8274,199.01369 C 1212.8475,193.99067 1215.614,187.32076 1215.614,180.22083 L 1215.614,-396.63032 C 1215.614,-403.73025 1212.8475,-410.40016 1207.8274,-415.42318 C 1202.8073,-420.4462 1196.1383,-423.20932 1189.0388,-423.20932 L 612.19837,-423.20932 C 597.54124,-423.20932 585.614,-411.28766 585.614,-396.63032 L 585.614,180.22083 C 585.614,187.32076 588.38053,193.99067 593.4006,199.01369 C 598.42067,204.02756 605.09882,206.79068 612.19837,206.79068 L 1189.0388,206.79068"
       style="fill:black;fill-rule:nonzero;stroke:none"
       id="path28867" />
    <path
       d="M 612.19837,201.30104 C 606.56453,201.30104 601.26964,199.11434 597.28474,195.1252 C 593.29983,191.14521 591.11042,185.84771 591.11042,180.22083 L 591.11042,-396.63032 C 591.11042,-402.26635 593.29983,-407.5547 597.28474,-411.53469 C 601.26964,-415.52383 606.56453,-417.71968 612.19837,-417.71968 L 1189.0388,-417.71968 C 1194.6635,-417.71968 1199.9584,-415.52383 1203.9433,-411.53469 C 1207.9282,-407.5547 1210.1176,-402.26635 1210.1176,-396.63032 L 1210.1176,180.22083 C 1210.1176,191.84972 1200.6637,201.30104 1189.0388,201.30104 L 612.19837,201.30104 z "
       style="fill:white;fill-rule:nonzero;stroke:none"
       id="path29409" />
    <path
       d="M 900.614,124.6108 C 1029.2028,124.6108 1133.4516,20.371725 1133.4516,-108.20475 C 1133.4516,-236.79036 1029.2028,-341.02944 900.614,-341.02944 C 772.02518,-341.02944 667.77636,-236.79036 667.77636,-108.20475 C 667.77636,20.371725 772.02518,124.6108 900.614,124.6108"
       style="fill:#176fc1;fill-rule:nonzero;stroke:none"
       id="path28859" />
    <path
       d="M 1002.3436,-5.1093447 C 1017.2573,-5.1093447 1029.3585,-17.204847 1029.3585,-32.127513 C 1029.3585,-47.041029 1017.2573,-59.136531 1002.3436,-59.136531 C 987.42084,-59.136531 975.32871,-47.041029 975.32871,-32.127513 C 975.32871,-17.204847 987.42084,-5.1093447 1002.3436,-5.1093447"
       style="fill:white;fill-rule:nonzero;stroke:none"
       id="path28861" />
    <path
       d="M 800.17603,-4.2676002 C 815.08966,-4.2676002 827.18179,-16.363102 827.18179,-31.276619 C 827.18179,-46.190135 815.08966,-58.285638 800.17603,-58.285638 C 785.25324,-58.285638 773.16111,-46.190135 773.16111,-31.276619 C 773.16111,-16.363102 785.25324,-4.2676002 800.17603,-4.2676002"
       style="fill:white;fill-rule:nonzero;stroke:none"
       id="path28863" />
    <path
       d="M 1091.1383,-49.383275 C 1093.74,-51.844462 1095.3889,-55.321233 1095.3889,-59.191428 L 1095.3889,-92.175003 C 1095.3889,-99.65006 1093.2728,-113.28266 1092.6041,-113.4016 L 1067.9251,-198.07927 C 1072.0108,-198.87527 1075.0888,-202.47098 1075.0888,-206.78949 C 1075.0888,-211.69357 1071.113,-215.66441 1066.2029,-215.66441 L 719.80917,-215.66441 C 719.03967,-215.66441 718.30681,-215.53632 717.59228,-215.35333 C 714.94483,-214.9782 709.14611,-213.76133 705.22532,-209.95518 C 699.9854,-204.88642 697.14558,-194.05353 697.14558,-194.05353 L 697.14558,-67.691217 L 696.97153,-67.544827 C 696.97153,-67.544827 696.33944,-59.292071 699.82967,-54.854614 C 701.55188,-52.667908 704.42834,-50.709937 706.90173,-49.282631 C 702.84354,-48.468335 699.79303,-44.881772 699.79303,-40.581555 C 699.79303,-35.677479 703.76877,-31.697491 708.66975,-31.697491 L 766.70282,-31.697491 C 766.92267,-49.996284 781.81798,-64.77256 800.17603,-64.77256 C 818.53408,-64.77256 833.42023,-49.996284 833.64925,-31.697491 L 968.87041,-31.697491 C 968.86125,-31.843881 968.84293,-31.981122 968.84293,-32.127513 C 968.84293,-50.618443 983.839,-65.614304 1002.3436,-65.614304 C 1020.8391,-65.614304 1035.8352,-50.618443 1035.8352,-32.127513 C 1035.8352,-31.981122 1035.8168,-31.843881 1035.8168,-31.697491 L 1090.3139,-31.697491 C 1095.224,-31.697491 1099.1998,-35.677479 1099.1998,-40.581555 C 1099.1998,-45.202 1095.6546,-48.962402 1091.1383,-49.383275 z M 759.14523,-134.46351 L 709.83316,-134.46351 L 709.83316,-187.53001 C 709.92477,-188.88412 710.86832,-197.90543 719.80917,-197.90543 L 759.14523,-197.90543 L 759.14523,-134.46351 z M 771.83281,-197.90543 L 820.0456,-197.90543 L 820.0456,-134.46351 L 771.83281,-134.46351 L 771.83281,-197.90543 z M 832.74234,-197.90543 L 883.49264,-197.90543 L 883.49264,-134.46351 L 832.74234,-134.46351 L 832.74234,-197.90543 z M 896.18022,-197.90543 L 945.83124,-197.90543 L 945.83124,-134.46351 L 896.18022,-134.46351 L 896.18022,-197.90543 z M 958.52798,-197.90543 L 1007.8401,-197.90543 L 1007.8401,-134.46351 L 958.52798,-134.46351 L 958.52798,-197.90543 z M 1020.5276,-134.46351 L 1020.5276,-197.90543 L 1054.7612,-197.90543 L 1073.2475,-134.46351 L 1020.5276,-134.46351"
       style="fill:white;fill-rule:nonzero;stroke:none"
       id="path28865" />
  </g>
</svg>
