<?xml version="1.0" encoding="UTF-8" standalone="no"?>
<!-- Created with Inkscape (http://www.inkscape.org/) -->
<svg
   xmlns:dc="http://purl.org/dc/elements/1.1/"
   xmlns:cc="http://web.resource.org/cc/"
   xmlns:rdf="http://www.w3.org/1999/02/22-rdf-syntax-ns#"
   xmlns:svg="http://www.w3.org/2000/svg"
   xmlns="http://www.w3.org/2000/svg"
   xmlns:sodipodi="http://sodipodi.sourceforge.net/DTD/sodipodi-0.dtd"
   xmlns:inkscape="http://www.inkscape.org/namespaces/inkscape"
   version="1.0"
   width="960"
   height="1200"
   id="svg2792"
   sodipodi:version="0.32"
   inkscape:version="0.44"
   sodipodi:docname="Hinweiszeichen_8d.svg"
   sodipodi:docbase="F:\Diverses\Wikipedia\AT-StVZVO">
  <metadata
     id="metadata14536">
    <rdf:RDF>
      <cc:Work
         rdf:about="">
        <dc:format>image/svg+xml</dc:format>
        <dc:type
           rdf:resource="http://purl.org/dc/dcmitype/StillImage" />
      </cc:Work>
    </rdf:RDF>
  </metadata>
  <sodipodi:namedview
     inkscape:window-height="480"
     inkscape:window-width="640"
     inkscape:pageshadow="2"
     inkscape:pageopacity="0.0"
     guidetolerance="10.0"
     gridtolerance="10.0"
     objecttolerance="10.0"
     borderopacity="1.0"
     bordercolor="#666666"
     pagecolor="#ffffff"
     id="base" />
  <defs
     id="defs2794" />
  <path
     style="fill:black;fill-rule:nonzero;stroke:none"
     d="M 935.5997,1200 C 942.1203,1200 948.2492,1197.4675 952.8573,1192.8724 C 957.4655,1188.2888 960,1182.181 960,1175.6837 L 960,24.31627 C 960,17.81895 957.4655,11.71123 952.8573,7.12758 C 948.2492,2.53247 942.1203,0 935.5997,0 L 24.40037,0 C 10.94447,0 3e-005,10.90909 3e-005,24.31627 L 3e-005,1175.6837 C 3e-005,1182.181 2.53453,1188.2888 7.14272,1192.8724 C 11.7509,1197.4675 17.87979,1200 24.40037,1200 L 935.5997,1200 z "
     id="path14545" />
  <path
     style="fill:white;fill-rule:nonzero;stroke:none"
     d="M 24.40037,1191.9786 C 20.03411,1191.9786 15.93283,1190.2827 12.83382,1187.2001 C 9.74634,1184.1291 8.05283,1180.0382 8.05283,1175.6837 L 8.05283,24.31627 C 8.05283,19.97326 9.74634,15.87089 12.83382,12.79985 C 15.93283,9.71734 20.03411,8.02139 24.40037,8.02139 L 935.5997,8.02139 C 939.9659,8.02139 944.0672,9.71734 947.1547,12.79985 C 950.2537,15.87089 951.9472,19.97326 951.9472,24.31627 L 951.9472,1175.6837 C 951.9472,1184.6677 944.6202,1191.9786 935.5997,1191.9786 L 24.40037,1191.9786"
     id="path279" />
  <path
     id="path281"
     style="fill:#176fc1;fill-rule:nonzero;stroke:none"
     d="M 37.57977,1162.3224 L 922.3051,1162.3224 L 922.3051,37.32238 L 37.57977,37.32238 L 37.57977,1162.3224 z " />
  <path
     id="path283"
     style="fill:white;fill-rule:nonzero;stroke:none"
     d="M 802.9531,742.66616 L 802.9531,777.055 L 753.8183,777.055 L 753.8183,815.25974 C 753.8183,843.60963 730.7429,866.58518 702.2988,866.58518 C 673.8433,866.58518 650.7793,843.60963 650.7793,815.25974 L 650.7793,777.055 L 290.7649,777.055 L 290.7649,815.25974 C 290.7649,843.60963 267.701,866.58518 239.2454,866.58518 C 210.8014,866.58518 187.7375,843.60963 187.7375,815.25974 L 187.7375,777.055 L 138.59117,777.055 L 138.59117,742.66616 L 802.9531,742.66616" />
  <path
     id="path285"
     style="fill:white;fill-rule:nonzero;stroke:none"
     d="M 803.9093,591.76089 C 796.7551,569.58747 768.3572,551.44767 738.6459,537.91444 L 678.3939,361.92513 L 676.0322,359.56455 C 670.2835,353.84645 625.6302,325.2903 470.7721,325.2903 C 315.9141,325.2903 271.2608,353.84645 265.5121,359.56455 L 263.1504,361.92513 L 202.8984,537.91444 C 173.1871,551.44767 144.78918,569.58747 137.63498,591.76089 C 121.90955,640.50802 137.63498,724.99618 137.63498,724.99618 L 803.9093,724.99618 C 803.9093,724.99618 819.6347,640.50802 803.9093,591.76089 z M 470.7721,487.18487 C 370.1064,488.61727 300.1311,504.37357 267.0558,514.40031 C 259.4062,516.71505 249.3028,519.87777 238.1049,523.84263 L 287.7927,378.68984 C 297.4929,373.01757 347.4456,353.93812 470.7721,353.93812 C 594.0987,353.93812 644.0514,373.01757 653.7516,378.68984 L 703.4394,523.84263 C 692.2415,519.87777 682.138,516.71505 674.4884,514.40031 C 641.4247,504.37357 571.4264,488.61727 470.7721,487.18487 z M 160.48,608.94958 C 160.48,584.33537 180.5141,564.38503 205.214,564.38503 C 229.9254,564.38503 249.9595,584.33537 249.9595,608.94958 C 249.9595,633.57525 229.9254,653.52559 205.214,653.52559 C 180.5141,653.52559 160.48,633.57525 160.48,608.94958 z M 736.3303,653.52559 C 711.6189,653.52559 691.5848,633.57525 691.5848,608.94958 C 691.5848,584.33537 711.6189,564.38503 736.3303,564.38503 C 761.0417,564.38503 781.0642,584.33537 781.0642,608.94958 C 781.0642,633.57525 761.0417,653.52559 736.3303,653.52559 z M 470.7721,573.1398 C 588.6841,574.57219 625.5956,598.92284 637.1046,606.0848 C 648.6135,613.25821 647.1734,629.01451 647.1734,629.01451 L 647.1734,669.12147 L 294.3708,669.12147 L 294.3708,629.01451 C 294.3708,629.01451 292.9308,613.25821 304.4397,606.0848 C 315.9487,598.92284 352.8602,574.57219 470.7721,573.1398" />
  <path
     id="path287"
     style="fill:#f03120;fill-rule:nonzero;stroke:none"
     d="M 37.57977,1062.3186 L 37.57977,1162.3224 L 115.11247,1162.3224 L 922.3051,135.91673 L 922.3051,37.32238 L 843.6664,37.32238 L 37.57977,1062.3186" />
</svg>
