<?xml version="1.0" encoding="UTF-8" standalone="no"?>
<!-- Created with Inkscape (http://www.inkscape.org/) -->
<svg
   xmlns:svg="http://www.w3.org/2000/svg"
   xmlns="http://www.w3.org/2000/svg"
   version="1.0"
   width="960"
   height="1200"
   id="svg2696">
  <defs
     id="defs2698" />
  <g
     transform="translate(-347.559,1089.267)"
     id="layer1">
    <path
       d="M 384.19412,110.7329 C 363.96787,110.7329 347.559,95.639331 347.559,77.007144 L 347.559,-1055.5413 C 347.559,-1074.1735 363.96787,-1089.2671 384.19412,-1089.2671 L 1270.9239,-1089.2671 C 1291.1501,-1089.2671 1307.559,-1074.1735 1307.559,-1055.5413 L 1307.559,77.007144 C 1307.559,95.639331 1291.1501,110.7329 1270.9239,110.7329 L 384.19412,110.7329 z "
       style="fill:#176fc1;fill-rule:nonzero;stroke:none"
       id="path2708" />
    <path
       d="M 489.71985,-178.22256 L 1165.413,-178.22256 L 1165.413,-800.32529 L 489.71985,-800.32529 L 489.71985,-178.22256 z "
       style="fill:white;fill-rule:nonzero;stroke:none"
       id="path87" />
    <path
       d="M 1077.7609,-307.57267 C 1086.0615,-320.97859 1091.7284,-338.49475 1092.1723,-361.78159 C 1093.0009,-404.85746 1066.9302,-442.28516 1066.9302,-442.28516 C 1076.4145,-445.71489 1081.09,-455.58219 1077.3614,-464.31986 C 1073.6328,-473.05753 1062.9056,-477.35831 1053.4213,-473.92857 C 1052.0009,-473.41139 1022.7638,-458.1545 995.55382,-446.77648 C 971.67293,-436.77308 935.58526,-436.51449 935.12658,-436.47366 C 924.99126,-435.48012 917.6524,-427.09632 918.74731,-417.77342 C 919.82743,-408.43691 928.92702,-401.6727 939.06234,-402.67985 C 939.06234,-402.67985 940.79349,-401.44133 944.47771,-390.11775 C 948.17674,-378.78056 958.01614,-361.78159 958.01614,-361.78159 C 949.40481,-354.99016 940.79349,-340.25045 940.79349,-340.25045 C 940.79349,-340.26406 865.71812,-432.03677 811.56443,-478.50155 C 774.60379,-510.19941 703.25704,-561.22357 681.09249,-574.82003 C 658.94274,-588.41649 647.86047,-606.5451 647.86047,-606.5451 C 654.01564,-603.14258 661.39889,-607.67474 661.39889,-607.67474 C 661.39889,-607.67474 688.47574,-634.88127 693.40284,-641.6727 C 698.32994,-648.47773 710.1964,-644.87106 710.1964,-644.87106 C 713.71787,-640.25725 720.62765,-639.15483 725.62873,-642.40764 C 730.62981,-645.64684 731.82829,-652.01635 728.30682,-656.61655 C 689.42269,-707.42295 622.42599,-749.23309 619.58514,-750.98879 C 614.51008,-754.13271 607.6299,-752.8942 604.212,-748.21233 C 600.7941,-743.54408 602.14055,-737.20178 607.21561,-734.05786 L 607.21561,-734.07147 C 607.21561,-734.07147 589.88938,-717.30386 577.7122,-696.07215 C 554.33438,-655.26916 553.09151,-626.9466 566.62993,-608.81798 C 571.05396,-602.88399 591.17664,-579.12081 613.79987,-553.28889 C 624.11274,-525.07522 650.58295,-461.08066 692.39671,-416.33075 C 734.0625,-371.71694 830.68098,-332.26134 875.98661,-315.43929 C 908.5528,-291.94831 934.23882,-274.14634 948.17674,-267.73599 C 967.87033,-258.67169 988.79201,-251.86665 1024.4802,-266.60636 C 1036.7165,-271.6557 1051.7346,-278.77376 1064.5184,-291.13171 C 1068.7057,-287.41616 1073.3961,-280.69278 1071.4134,-270.02249 C 1068.8241,-256.15382 1055.8035,-246.57233 1029.1853,-238.95069 C 1004.0764,-231.75097 978.93781,-226.96022 925.42035,-241.26441 C 868.73652,-256.41242 771.12671,-280.73361 770.15017,-280.97859 L 769.76547,-281.07386 L 769.38077,-281.14191 C 766.30318,-281.69993 693.21049,-294.13953 643.45124,-235.48013 L 660.89583,-222.93164 C 701.03762,-270.22664 759.423,-262.04699 764.80878,-261.17594 C 771.9257,-259.40663 864.68239,-236.26951 919.23558,-221.67951 C 978.5975,-205.81017 1008.2341,-211.58084 1035.7696,-219.47468 C 1057.8602,-225.80337 1087.837,-237.56247 1093.2376,-266.57914 C 1096.907,-286.21847 1087.3044,-299.93742 1077.7609,-307.57267 z M 709.19027,-429.62779 C 689.48188,-450.7234 673.22097,-476.97723 660.65909,-501.23037 C 666.00048,-495.52775 670.86839,-490.47842 674.93732,-486.43623 C 701.95498,-459.65161 757.88421,-406.24569 806.50416,-367.06229 C 769.02566,-384.85066 730.51144,-406.8037 709.19027,-429.62779 z M 1067.5516,-371.98914 L 1053.0514,-370.8595 C 1052.4152,-396.82752 1049.1009,-426.37498 1049.1009,-426.37498 C 1049.1009,-426.37498 1067.5516,-399.18206 1067.5516,-371.98914 z M 1034.3196,-292.09802 C 1034.3196,-292.09802 1050.9356,-322.69346 1052.7851,-349.88638 L 1067.4924,-349.88638 C 1066.5751,-330.16539 1061.2337,-310.67577 1034.3196,-292.09802"
       style="fill:black;fill-rule:nonzero;stroke:none"
       id="path89" />
  </g>
</svg>
