<?xml version="1.0" encoding="UTF-8" standalone="no"?>
<!-- Created with Inkscape (http://www.inkscape.org/) -->

<svg
   xmlns:dc="http://purl.org/dc/elements/1.1/"
   xmlns:cc="http://creativecommons.org/ns#"
   xmlns:rdf="http://www.w3.org/1999/02/22-rdf-syntax-ns#"
   xmlns:svg="http://www.w3.org/2000/svg"
   xmlns="http://www.w3.org/2000/svg"
   xmlns:sodipodi="http://sodipodi.sourceforge.net/DTD/sodipodi-0.dtd"
   xmlns:inkscape="http://www.inkscape.org/namespaces/inkscape"
   width="967.37268"
   height="960.62341"
   id="svg3544"
   version="1.1"
   inkscape:version="0.47 r22583"
   sodipodi:docname="Hinweiszeichen 25.svg">
  <defs
     id="defs3546">
    <inkscape:perspective
       sodipodi:type="inkscape:persp3d"
       inkscape:vp_x="0 : 526.18109 : 1"
       inkscape:vp_y="0 : 1000 : 0"
       inkscape:vp_z="744.09448 : 526.18109 : 1"
       inkscape:persp3d-origin="372.04724 : 350.78739 : 1"
       id="perspective3552" />
    <inkscape:perspective
       id="perspective3566"
       inkscape:persp3d-origin="480 : 400 : 1"
       inkscape:vp_z="960 : 600 : 1"
       inkscape:vp_y="0 : 1000 : 0"
       inkscape:vp_x="0 : 600 : 1"
       sodipodi:type="inkscape:persp3d" />
    <inkscape:perspective
       id="perspective3583"
       inkscape:persp3d-origin="0.5 : 0.33333333 : 1"
       inkscape:vp_z="1 : 0.5 : 1"
       inkscape:vp_y="0 : 1000 : 0"
       inkscape:vp_x="0 : 0.5 : 1"
       sodipodi:type="inkscape:persp3d" />
    <clipPath
       clipPathUnits="userSpaceOnUse"
       id="clipPath3536">
      <path
         d="m 1.526e-6,109.92 595.319998474,0 0,163.8 -595.319998474,0 0,-163.8 z"
         clip-rule="evenodd"
         id="path3538" />
    </clipPath>
    <inkscape:perspective
       id="perspective3634"
       inkscape:persp3d-origin="480 : 400 : 1"
       inkscape:vp_z="960 : 600 : 1"
       inkscape:vp_y="0 : 1000 : 0"
       inkscape:vp_x="0 : 600 : 1"
       sodipodi:type="inkscape:persp3d" />
    <inkscape:perspective
       id="perspective3660"
       inkscape:persp3d-origin="480 : 320 : 1"
       inkscape:vp_z="960 : 480 : 1"
       inkscape:vp_y="0 : 1000 : 0"
       inkscape:vp_x="0 : 480 : 1"
       sodipodi:type="inkscape:persp3d" />
    <inkscape:perspective
       id="perspective3686"
       inkscape:persp3d-origin="480 : 400 : 1"
       inkscape:vp_z="960 : 600 : 1"
       inkscape:vp_y="0 : 1000 : 0"
       inkscape:vp_x="0 : 600 : 1"
       sodipodi:type="inkscape:persp3d" />
    <inkscape:perspective
       id="perspective4492"
       inkscape:persp3d-origin="500 : 291.64766 : 1"
       inkscape:vp_z="1000 : 437.4715 : 1"
       inkscape:vp_y="0 : 1000 : 0"
       inkscape:vp_x="0 : 437.4715 : 1"
       sodipodi:type="inkscape:persp3d" />
    <inkscape:perspective
       id="perspective4526"
       inkscape:persp3d-origin="600 : 320 : 1"
       inkscape:vp_z="1200 : 480 : 1"
       inkscape:vp_y="0 : 1000 : 0"
       inkscape:vp_x="0 : 480 : 1"
       sodipodi:type="inkscape:persp3d" />
    <inkscape:perspective
       id="perspective4598"
       inkscape:persp3d-origin="600 : 320 : 1"
       inkscape:vp_z="1200 : 480 : 1"
       inkscape:vp_y="0 : 1000 : 0"
       inkscape:vp_x="0 : 480 : 1"
       sodipodi:type="inkscape:persp3d" />
    <inkscape:perspective
       id="perspective4878"
       inkscape:persp3d-origin="0.5 : 0.33333333 : 1"
       inkscape:vp_z="1 : 0.5 : 1"
       inkscape:vp_y="0 : 1000 : 0"
       inkscape:vp_x="0 : 0.5 : 1"
       sodipodi:type="inkscape:persp3d" />
    <clipPath
       clipPathUnits="userSpaceOnUse"
       id="clipPath4826">
      <path
         d="m 0,638.4 595.32,0 0,118.44 L 0,756.84 0,638.4 z"
         clip-rule="evenodd"
         id="path4828" />
    </clipPath>
    <inkscape:perspective
       inkscape:vp_x="0 : 526.18109 : 1"
       inkscape:vp_y="0 : 1000 : 0"
       inkscape:vp_z="744.09448 : 526.18109 : 1"
       inkscape:persp3d-origin="372.04724 : 350.78739 : 1"
       id="perspective10"
       sodipodi:type="inkscape:persp3d" />
    <inkscape:perspective
       inkscape:vp_x="0 : 480 : 1"
       inkscape:vp_y="0 : 1000 : 0"
       inkscape:vp_z="960 : 480 : 1"
       inkscape:persp3d-origin="480 : 320 : 1"
       id="perspective2825"
       sodipodi:type="inkscape:persp3d" />
    <inkscape:perspective
       inkscape:vp_x="0 : 0.5 : 1"
       inkscape:vp_y="0 : 1000 : 0"
       inkscape:vp_z="1 : 0.5 : 1"
       inkscape:persp3d-origin="0.5 : 0.33333333 : 1"
       id="perspective2839"
       sodipodi:type="inkscape:persp3d" />
    <inkscape:perspective
       inkscape:vp_x="0 : 345 : 1"
       inkscape:vp_y="0 : 1000 : 0"
       inkscape:vp_z="690 : 345 : 1"
       inkscape:persp3d-origin="345 : 230 : 1"
       id="perspective2859"
       sodipodi:type="inkscape:persp3d" />
    <inkscape:perspective
       id="perspective4972"
       inkscape:persp3d-origin="0.5 : 0.33333333 : 1"
       inkscape:vp_z="1 : 0.5 : 1"
       inkscape:vp_y="0 : 1000 : 0"
       inkscape:vp_x="0 : 0.5 : 1"
       sodipodi:type="inkscape:persp3d" />
    <inkscape:perspective
       id="perspective4989"
       inkscape:persp3d-origin="480 : 320 : 1"
       inkscape:vp_z="960 : 480 : 1"
       inkscape:vp_y="0 : 1000 : 0"
       inkscape:vp_x="0 : 480 : 1"
       sodipodi:type="inkscape:persp3d" />
    <inkscape:perspective
       id="perspective5034"
       inkscape:persp3d-origin="0.5 : 0.33333333 : 1"
       inkscape:vp_z="1 : 0.5 : 1"
       inkscape:vp_y="0 : 1000 : 0"
       inkscape:vp_x="0 : 0.5 : 1"
       sodipodi:type="inkscape:persp3d" />
    <clipPath
       clipPathUnits="userSpaceOnUse"
       id="clipPath4838">
      <path
         d="m 0,478.92 595.32,0 0,124.44 -595.32,0 0,-124.44 z"
         clip-rule="evenodd"
         id="path4840" />
    </clipPath>
  </defs>
  <sodipodi:namedview
     id="base"
     pagecolor="#ffffff"
     bordercolor="#666666"
     borderopacity="1.0"
     inkscape:pageopacity="0.0"
     inkscape:pageshadow="2"
     inkscape:zoom="0.41357422"
     inkscape:cx="953.91635"
     inkscape:cy="431.50553"
     inkscape:document-units="px"
     inkscape:current-layer="layer1"
     showgrid="false"
     inkscape:window-width="1600"
     inkscape:window-height="837"
     inkscape:window-x="-4"
     inkscape:window-y="-4"
     inkscape:window-maximized="1" />
  <metadata
     id="metadata3549">
    <rdf:RDF>
      <cc:Work
         rdf:about="">
        <dc:format>image/svg+xml</dc:format>
        <dc:type
           rdf:resource="http://purl.org/dc/dcmitype/StillImage" />
        <dc:title></dc:title>
      </cc:Work>
    </rdf:RDF>
  </metadata>
  <g
     inkscape:label="Livello 1"
     inkscape:groupmode="layer"
     id="layer1"
     transform="translate(356.89825,200.76072)">
    <path
       d="m 585.88097,759.86271 c 6.56907,0 12.74312,-2.02532 17.38852,-5.70771 4.6444,-3.66638 7.20492,-8.55756 7.20492,-13.76093 l 0,-921.68918 c 0,-5.20121 -2.56052,-10.09055 -7.20492,-13.75985 -4.6454,-3.67846 -10.81945,-5.70576 -17.38852,-5.70576 l -918.18639,0 c -13.56488,0 -24.59283,8.73297 -24.59283,19.46561 l 0,921.68918 c 0,5.20337 2.54842,10.09455 7.20521,13.76093 4.64521,3.68239 10.81946,5.70771 17.38762,5.70771 l 918.18639,0 z"
       style="fill:#ffffff;fill-rule:nonzero;stroke:none;fill-opacity:1"
       id="path14525" />
    <path
       d="m -332.30542,753.44254 c -4.40195,0 -8.53736,-1.36088 -11.65352,-3.82648 -3.11604,-2.45759 -4.83051,-5.73173 -4.83051,-9.22199 l 0,-921.68918 c 0,-3.47665 1.71447,-6.76063 4.83051,-9.2191 3.11616,-2.46759 7.25157,-3.82523 11.65352,-3.82523 l 918.18639,0 c 4.40256,0 8.53807,1.35764 11.65382,3.82523 3.11675,2.45847 4.83081,5.74245 4.83081,9.2191 l 0,921.68918 c 0,7.19668 -7.39032,13.04847 -16.48463,13.04847 l -918.18639,0"
       style="fill:#176fc1;fill-rule:nonzero;stroke:none;fill-opacity:1"
       id="path271" />
    <path
       id="path10504"
       style="fill:#ffffff;fill-rule:nonzero;stroke:none"
       d="m 510.01975,234.60992 c -31.0791,-31.07768 -72.4142,-48.20414 -116.3703,-48.20414 -21.0509,0 -41.1797,4.02301 -59.7029,11.26443 l -38.1214,-84.77043 15.3944,-24.41102 c 26.988,5.45986 53.6299,10.77592 55.0804,10.77592 15.0836,0 27.3081,-12.227 27.3081,-27.29857 0,-15.07229 -12.2245,-27.28532 -27.3081,-27.28532 -0.7563,0 -112.5569,0.10055 -112.5569,0.10055 -0.014,0 -0.014,0 -0.014,0 -8.7954,0 -15.9114,7.14093 -15.9114,15.93422 0,8.79329 7.116,15.91982 15.9114,15.91982 l 0,0.15808 c 0,0 16.7154,3.41953 37.2607,7.60059 l -12.3674,19.59772 -289.882396,0 C -3.7420464,81.47739 1.2088536,66.5926 1.2088536,66.5926 c 0.086,-0.25899 0.1141,-0.51798 0.172,-0.77593 0.072,-0.27351 0.1575,-0.56046 0.1865,-0.83396 0.043,-0.28696 0.029,-0.56045 0.029,-0.83292 0.014,-0.28695 0.043,-0.56045 0.028,-0.83291 -0.028,-0.2735 -0.086,-0.547 -0.1429,-0.81945 -0.043,-0.25899 -0.072,-0.53146 -0.144,-0.77594 -0.057,-0.27247 -0.172,-0.51695 -0.2725,-0.76144 -0.10060004,-0.25899 -0.17200004,-0.51695 -0.28700004,-0.76144 -0.1295,-0.22999 -0.287,-0.44547 -0.4165,-0.67545 -0.1429,-0.22998 -0.2724,-0.47448 -0.4444,-0.70342 -0.1575,-0.20202 -0.3584,-0.3885 -0.5449,-0.58947 -0.1865,-0.20098 -0.345,-0.41646 -0.55939996,-0.60397 -0.201,-0.18647 -0.4455,-0.33047 -0.66,-0.48794 -0.2299,-0.17301 -0.4309,-0.34498 -0.6744,-0.48898 -0.2445,-0.14295 -0.5169,-0.24345 -0.7894,-0.35844 -0.23,-0.11499 -0.4589,-0.24449 -0.7179,-0.34498 L -51.304296,39.5093 -37.142646,2.3532802 76.835554,1.0894102 110.56665,31.59244 c 3.4581,3.13173 8.7954,2.85926 11.923,-0.60398 3.1286,-3.44769 2.8551,-8.79329 -0.6019,-11.92502 l -36.185296,-32.73036 -2.4532,-2.21282 -3.3006,0.0435 -123.03151,1.36542 -5.73926,0.0569 -24.44883,64.1523 8.22144,2.85926 47.60586,16.56616 -42.82798,128.492 c -18.83907,-7.3563 -39.06946,-11.25004 -59.901724,-11.25004 -90.76423,0 -164.58314,73.83646 -164.58314,164.58371 0,43.96543 17.11625,85.28811 48.19425,116.37956 31.09146,31.07799 72.4276,48.20462 116.38889,48.20462 43.961284,0 85.282904,-17.12663 116.3744036,-48.20462 C 27.277954,436.27758 44.409754,394.9549 44.409754,350.98947 c 0,-43.96544 -17.1318,-85.28749 -48.2087004,-116.37957 -12.2388996,-12.22701 -26.0700996,-22.25579 -41.0056796,-29.97137 3.98848,-11.95403 8.02048,-24.05176 11.95198,-35.84777 l 125.2123,133.66466 c -8.637,10.63214 -13.8313,24.15151 -13.8313,38.89333 0,16.50919 6.4281,32.02591 18.1067,43.70748 11.679396,11.68053 27.203396,18.10353 43.717796,18.10353 2.4676,0 4.9073,-0.1875 7.317,-0.47447 l 3.0851,13.76386 -20.0584,0 0,19.29697 55.4979,0 0,-19.29697 -25.5533,0 -3.5015,-15.63171 c 10.0728,-2.83027 19.327,-8.16135 26.9311,-15.76121 9.0967,-9.0958 14.9499,-20.53185 17.1162,-32.94584 l 27.9358,1.0629 c 0.5594,43.14702 17.5763,83.62124 48.1508,114.19574 31.077,31.07799 72.4131,48.20462 116.3764,48.20462 43.9561,0 85.2912,-17.12663 116.3703,-48.20462 31.0893,-31.09145 48.2139,-72.41413 48.2139,-116.37956 0,-43.96544 -17.1246,-85.28749 -48.2139,-116.37957 z m -534.293096,20.47424 c 25.6246996,25.61802 39.7283,59.68376 39.7283,95.90532 0,74.78444 -60.84857,135.63302 -135.628864,135.63302 -36.22779,0 -70.28937,-14.10988 -95.91506,-39.72729 -25.61016,-25.61844 -39.72832,-59.66966 -39.72832,-95.90573 0,-36.22156 14.11816,-70.2873 39.72832,-95.90532 25.62569,-25.61792 59.68727,-39.72718 95.91506,-39.72718 17.66221,0 34.821984,3.37653 50.733404,9.7989 l -29.80064,89.39655 c -2.266704,6.1495 -11.162554,23.7506 -23.902884,28.5347 -4.36142,1.63786 -6.57115,6.49448 -4.93536,10.86211 1.63581,4.36764 6.49967,6.58047 10.8611,4.94261 22.683534,-8.5053 33.473144,-37.55798 33.917584,-38.79285 0.029,-0.0871 13.24381,-39.69828 29.19771,-87.58682 10.80409,6.04891 20.84785,13.57771 29.82965,22.57198 z M 318.55115,204.60984 c -48.9546,25.21556 -83.6896,74.23869 -88.798,131.68133 l -27.8778,-1.0629 c -1.3769,-14.19587 -7.5895,-27.3713 -17.8052,-37.60045 -0.9759,-0.96345 -1.9943,-1.83988 -3.0126,-2.7308 l 103.9635,-164.85633 33.5301,74.56915 z m 11.8515,26.33628 49.9554,111.0926 -121.6797,-4.64113 c 3.0852,-31.09249 16.672,-59.92835 39.0685,-82.31343 9.7713,-9.77022 20.7763,-17.85925 32.6558,-24.13804 z m -202.0883,85.18719 -13.6447,-14.55431 c 2.941,-1.91135 6.0841,-3.44873 9.3402,-4.64113 l 4.3045,19.19544 z m 5.0504,-21.58023 c 2.2956,-0.33048 4.6203,-0.56047 6.9875,-0.56047 5.7538,0 11.3211,1.0629 16.5579,3.01674 l -16.9744,26.89683 -6.571,-29.3531 z m 39.8588,12.75793 c 0.2,0.18752 0.4154,0.35948 0.6019,0.54596 7.3604,7.35641 11.9374,16.71016 13.3577,26.82534 l -30.4885,-1.16443 16.5289,-26.20687 z m -190.911296,-184.02327 284.142096,0 -101.6968,161.25063 c -7.6039,-3.26122 -15.8679,-5.01449 -24.4053,-5.01449 -3.4581,0 -6.8291,0.35886 -10.1441,0.90482 l -6.8727,-30.74691 21.8382,0 0,-19.31033 -55.483296,0 0,19.31033 23.759896,0 7.3896,33.04571 c -5.8108,1.94037 -11.2352,4.71263 -16.1415,8.20487 L -26.784546,150.57233 c 3.1856,-9.55463 6.2417,-18.72129 9.0968,-27.28459 z M 140.35225,388.69041 c -12.6398,0 -24.5348,-4.9281 -33.4731,-13.86434 -8.952896,-8.95181 -13.874696,-20.83331 -13.874696,-33.4773 0,-10.31617 3.315,-20.08637 9.369196,-28.20422 l 33.2008,35.44562 8.9103,39.88476 c -1.3633,0.12957 -2.7402,0.21548 -4.1325,0.21548 z m 13.6158,-2.02531 -8.1925,-36.66704 40.7912,1.55189 c -3.716,16.76713 -16.2989,30.21606 -32.5987,35.11515 z m 239.6814,99.9574 c -36.2278,0 -70.2915,-14.10988 -95.9026,-39.72729 -24.8499,-24.84249 -38.825,-57.62983 -39.6569,-92.6155 l 135.2383,5.14358 8.35,-1.19239 -0.3212,-10.70363 -55.5445,-123.4921 c 15.0795,-5.67523 31.22,-8.67819 47.8369,-8.67819 36.2278,0 70.2905,14.10926 95.9099,39.72718 25.6091,25.61802 39.719,59.68376 39.719,95.90532 0,74.78444 -60.8321,135.63302 -135.6289,135.63302" />
  </g>
</svg>
