<?xml version="1.0" encoding="UTF-8" standalone="no"?>
<!-- Created with Inkscape (http://www.inkscape.org/) -->

<svg
   xmlns:dc="http://purl.org/dc/elements/1.1/"
   xmlns:cc="http://creativecommons.org/ns#"
   xmlns:rdf="http://www.w3.org/1999/02/22-rdf-syntax-ns#"
   xmlns:svg="http://www.w3.org/2000/svg"
   xmlns="http://www.w3.org/2000/svg"
   xmlns:sodipodi="http://sodipodi.sourceforge.net/DTD/sodipodi-0.dtd"
   xmlns:inkscape="http://www.inkscape.org/namespaces/inkscape"
   width="967.37268"
   height="960.62341"
   id="svg3544"
   version="1.1"
   inkscape:version="0.47 r22583"
   sodipodi:docname="Hinweiszeichen 28b.svg">
  <defs
     id="defs3546">
    <inkscape:perspective
       sodipodi:type="inkscape:persp3d"
       inkscape:vp_x="0 : 526.18109 : 1"
       inkscape:vp_y="0 : 1000 : 0"
       inkscape:vp_z="744.09448 : 526.18109 : 1"
       inkscape:persp3d-origin="372.04724 : 350.78739 : 1"
       id="perspective3552" />
    <inkscape:perspective
       id="perspective3566"
       inkscape:persp3d-origin="480 : 400 : 1"
       inkscape:vp_z="960 : 600 : 1"
       inkscape:vp_y="0 : 1000 : 0"
       inkscape:vp_x="0 : 600 : 1"
       sodipodi:type="inkscape:persp3d" />
    <inkscape:perspective
       id="perspective3583"
       inkscape:persp3d-origin="0.5 : 0.33333333 : 1"
       inkscape:vp_z="1 : 0.5 : 1"
       inkscape:vp_y="0 : 1000 : 0"
       inkscape:vp_x="0 : 0.5 : 1"
       sodipodi:type="inkscape:persp3d" />
    <clipPath
       clipPathUnits="userSpaceOnUse"
       id="clipPath3536">
      <path
         d="m 1.526e-6,109.92 595.319998474,0 0,163.8 -595.319998474,0 0,-163.8 z"
         clip-rule="evenodd"
         id="path3538" />
    </clipPath>
    <inkscape:perspective
       id="perspective3634"
       inkscape:persp3d-origin="480 : 400 : 1"
       inkscape:vp_z="960 : 600 : 1"
       inkscape:vp_y="0 : 1000 : 0"
       inkscape:vp_x="0 : 600 : 1"
       sodipodi:type="inkscape:persp3d" />
    <inkscape:perspective
       id="perspective3660"
       inkscape:persp3d-origin="480 : 320 : 1"
       inkscape:vp_z="960 : 480 : 1"
       inkscape:vp_y="0 : 1000 : 0"
       inkscape:vp_x="0 : 480 : 1"
       sodipodi:type="inkscape:persp3d" />
    <inkscape:perspective
       id="perspective3686"
       inkscape:persp3d-origin="480 : 400 : 1"
       inkscape:vp_z="960 : 600 : 1"
       inkscape:vp_y="0 : 1000 : 0"
       inkscape:vp_x="0 : 600 : 1"
       sodipodi:type="inkscape:persp3d" />
    <inkscape:perspective
       id="perspective4492"
       inkscape:persp3d-origin="500 : 291.64766 : 1"
       inkscape:vp_z="1000 : 437.4715 : 1"
       inkscape:vp_y="0 : 1000 : 0"
       inkscape:vp_x="0 : 437.4715 : 1"
       sodipodi:type="inkscape:persp3d" />
    <inkscape:perspective
       id="perspective4526"
       inkscape:persp3d-origin="600 : 320 : 1"
       inkscape:vp_z="1200 : 480 : 1"
       inkscape:vp_y="0 : 1000 : 0"
       inkscape:vp_x="0 : 480 : 1"
       sodipodi:type="inkscape:persp3d" />
    <inkscape:perspective
       id="perspective4598"
       inkscape:persp3d-origin="600 : 320 : 1"
       inkscape:vp_z="1200 : 480 : 1"
       inkscape:vp_y="0 : 1000 : 0"
       inkscape:vp_x="0 : 480 : 1"
       sodipodi:type="inkscape:persp3d" />
    <inkscape:perspective
       id="perspective4878"
       inkscape:persp3d-origin="0.5 : 0.33333333 : 1"
       inkscape:vp_z="1 : 0.5 : 1"
       inkscape:vp_y="0 : 1000 : 0"
       inkscape:vp_x="0 : 0.5 : 1"
       sodipodi:type="inkscape:persp3d" />
    <clipPath
       clipPathUnits="userSpaceOnUse"
       id="clipPath4826">
      <path
         d="m 0,638.4 595.32,0 0,118.44 L 0,756.84 0,638.4 z"
         clip-rule="evenodd"
         id="path4828" />
    </clipPath>
    <inkscape:perspective
       inkscape:vp_x="0 : 526.18109 : 1"
       inkscape:vp_y="0 : 1000 : 0"
       inkscape:vp_z="744.09448 : 526.18109 : 1"
       inkscape:persp3d-origin="372.04724 : 350.78739 : 1"
       id="perspective10"
       sodipodi:type="inkscape:persp3d" />
    <inkscape:perspective
       inkscape:vp_x="0 : 480 : 1"
       inkscape:vp_y="0 : 1000 : 0"
       inkscape:vp_z="960 : 480 : 1"
       inkscape:persp3d-origin="480 : 320 : 1"
       id="perspective2825"
       sodipodi:type="inkscape:persp3d" />
    <inkscape:perspective
       inkscape:vp_x="0 : 0.5 : 1"
       inkscape:vp_y="0 : 1000 : 0"
       inkscape:vp_z="1 : 0.5 : 1"
       inkscape:persp3d-origin="0.5 : 0.33333333 : 1"
       id="perspective2839"
       sodipodi:type="inkscape:persp3d" />
    <inkscape:perspective
       inkscape:vp_x="0 : 345 : 1"
       inkscape:vp_y="0 : 1000 : 0"
       inkscape:vp_z="690 : 345 : 1"
       inkscape:persp3d-origin="345 : 230 : 1"
       id="perspective2859"
       sodipodi:type="inkscape:persp3d" />
    <inkscape:perspective
       id="perspective4972"
       inkscape:persp3d-origin="0.5 : 0.33333333 : 1"
       inkscape:vp_z="1 : 0.5 : 1"
       inkscape:vp_y="0 : 1000 : 0"
       inkscape:vp_x="0 : 0.5 : 1"
       sodipodi:type="inkscape:persp3d" />
    <inkscape:perspective
       id="perspective4989"
       inkscape:persp3d-origin="480 : 320 : 1"
       inkscape:vp_z="960 : 480 : 1"
       inkscape:vp_y="0 : 1000 : 0"
       inkscape:vp_x="0 : 480 : 1"
       sodipodi:type="inkscape:persp3d" />
    <inkscape:perspective
       id="perspective5034"
       inkscape:persp3d-origin="0.5 : 0.33333333 : 1"
       inkscape:vp_z="1 : 0.5 : 1"
       inkscape:vp_y="0 : 1000 : 0"
       inkscape:vp_x="0 : 0.5 : 1"
       sodipodi:type="inkscape:persp3d" />
    <clipPath
       clipPathUnits="userSpaceOnUse"
       id="clipPath4838">
      <path
         d="m 0,478.92 595.32,0 0,124.44 -595.32,0 0,-124.44 z"
         clip-rule="evenodd"
         id="path4840" />
    </clipPath>
    <inkscape:perspective
       id="perspective5076"
       inkscape:persp3d-origin="480 : 320 : 1"
       inkscape:vp_z="960 : 480 : 1"
       inkscape:vp_y="0 : 1000 : 0"
       inkscape:vp_x="0 : 480 : 1"
       sodipodi:type="inkscape:persp3d" />
  </defs>
  <sodipodi:namedview
     id="base"
     pagecolor="#ffffff"
     bordercolor="#666666"
     borderopacity="1.0"
     inkscape:pageopacity="0.0"
     inkscape:pageshadow="2"
     inkscape:zoom="0.41357422"
     inkscape:cx="953.91635"
     inkscape:cy="431.50553"
     inkscape:document-units="px"
     inkscape:current-layer="layer1"
     showgrid="false"
     inkscape:window-width="1600"
     inkscape:window-height="837"
     inkscape:window-x="-4"
     inkscape:window-y="-4"
     inkscape:window-maximized="1"
     showguides="true"
     inkscape:guide-bbox="true" />
  <metadata
     id="metadata3549">
    <rdf:RDF>
      <cc:Work
         rdf:about="">
        <dc:format>image/svg+xml</dc:format>
        <dc:type
           rdf:resource="http://purl.org/dc/dcmitype/StillImage" />
        <dc:title></dc:title>
      </cc:Work>
    </rdf:RDF>
  </metadata>
  <g
     inkscape:label="Livello 1"
     inkscape:groupmode="layer"
     id="layer1"
     transform="translate(356.89825,200.76072)">
    <path
       d="m 585.88097,759.86271 c 6.56907,0 12.74312,-2.02532 17.38852,-5.70771 4.6444,-3.66638 7.20492,-8.55756 7.20492,-13.76093 l 0,-921.68918 c 0,-5.20121 -2.56052,-10.09055 -7.20492,-13.75985 -4.6454,-3.67846 -10.81945,-5.70576 -17.38852,-5.70576 l -918.18639,0 c -13.56488,0 -24.59283,8.73297 -24.59283,19.46561 l 0,921.68918 c 0,5.20337 2.54842,10.09455 7.20521,13.76093 4.64521,3.68239 10.81946,5.70771 17.38762,5.70771 l 918.18639,0 z"
       style="fill:#ffffff;fill-rule:nonzero;stroke:none;fill-opacity:1"
       id="path14525" />
    <path
       d="m -332.30542,753.44254 c -4.40195,0 -8.53736,-1.36088 -11.65352,-3.82648 -3.11604,-2.45759 -4.83051,-5.73173 -4.83051,-9.22199 l 0,-921.68918 c 0,-3.47665 1.71447,-6.76063 4.83051,-9.2191 3.11616,-2.46759 7.25157,-3.82523 11.65352,-3.82523 l 918.18639,0 c 4.40256,0 8.53807,1.35764 11.65382,3.82523 3.11675,2.45847 4.83081,5.74245 4.83081,9.2191 l 0,921.68918 c 0,7.19668 -7.39032,13.04847 -16.48463,13.04847 l -918.18639,0"
       style="fill:#176fc1;fill-rule:nonzero;stroke:none;fill-opacity:1"
       id="path271" />
    <path
       id="path10458"
       style="fill:#ffffff;fill-rule:nonzero;stroke:none"
       d="M 323.11184,-2.1843645 C 307.34336,-17.938114 286.40699,-26.616654 264.11742,-26.616654 c -10.65939,0 -20.85789,2.03676 -30.24255,5.70431 l -19.32806,-42.95829 7.79592,-12.37255 c 13.6896,2.77125 27.18299,5.46013 27.91845,5.46013 7.64886,0 13.83657,-6.19364 13.83657,-13.83958 0,-7.6327 -6.18771,-13.82575 -13.83657,-13.82575 -0.3825,0 -57.05282,0.0544 -57.05282,0.0544 -4.45201,0 -8.0706,3.61263 -8.0706,8.06722 0,4.46862 3.61859,8.06751 8.0706,8.06751 l 0,0.0814 c 0,0 8.47257,1.73866 18.87706,3.8568 l -6.25641,9.94159 -146.927215,0 c 3.80491,-11.42135 6.31522,-18.95942 6.31522,-18.95942 0.0391,-0.13533 0.0587,-0.25791 0.0978,-0.39421 0.0298,-0.14906 0.069,-0.28478 0.0886,-0.4206 0.0196,-0.14944 0,-0.28526 0.0196,-0.43461 0,-0.13581 0.0103,-0.27163 0,-0.40745 0,-0.14934 -0.0391,-0.28516 -0.069,-0.42098 -0.0103,-0.13581 -0.0289,-0.27164 -0.069,-0.39392 -0.0391,-0.13581 -0.0978,-0.258 -0.13728,-0.39381 -0.0495,-0.12229 -0.0978,-0.25801 -0.14707,-0.3803 -0.069,-0.12218 -0.14708,-0.23084 -0.21577,-0.33948 -0.069,-0.12229 -0.13729,-0.24448 -0.21577,-0.35313 -0.0886,-0.10866 -0.17653,-0.20377 -0.27457,-0.29879 -0.0978,-0.10866 -0.1961,-0.21731 -0.28436,-0.31243 -0.10783,-0.0951 -0.23534,-0.16298 -0.34318,-0.24447 -0.10792,-0.0814 -0.21576,-0.17652 -0.33348,-0.24438 -0.12739,-0.0814 -0.27457,-0.12228 -0.40197,-0.19014 -0.11772,-0.0544 -0.24523,-0.12228 -0.36284,-0.16298 l -23.95669,-8.338946 7.16829,-18.83723 57.758935,-0.63839 17.10211,15.46918 c 1.75527,1.57537 4.452,1.43956 6.04064,-0.31244 1.58864,-1.75198 1.46113,-4.45468 -0.29424,-6.04369 l -18.33769,-16.58267 -1.24537,-1.12733 -1.67691,0.0136 -62.357905,0.69262 -2.91249,0.0408 -12.38533,32.513636 4.15787,1.45319 24.13322,8.39357 -21.71108,65.12239 c -9.5513,-3.72148 -19.80865,-5.70431 -30.3601802,-5.70431 -46.0011498,0 -83.4120398,37.42951 -83.4120398,83.42969 0,22.27295 8.67855,43.228934 24.42739,58.983664 15.75867,15.75375 36.69502,24.43229 58.9846498,24.43229 22.2798202,0 43.2357402,-8.67854 58.9846502,-24.43229 15.7587,-15.75473 24.43715,-36.710714 24.43715,-58.983664 0,-22.28669 -8.67845,-43.22893 -24.43715,-58.9974005 -6.18771,-6.19265 -13.21882,-11.2722895 -20.77951,-15.1840095 2.02017,-6.07007 4.05981,-12.19604 6.06031,-18.17198 l 63.466095,67.74361 c -4.39319,5.39245 -7.01143,12.25095 -7.01143,19.72038 0,8.36572 3.25565,16.22936 9.16878,22.15135 5.92302,5.92102 13.78765,9.18062 22.16217,9.18062 1.25516,0 2.49085,-0.0951 3.70677,-0.24417 l 1.56896,6.98009 -10.15926,0 0,9.7788 28.10477,0 0,-9.7788 -12.93446,0 -1.78474,-7.93129 c 5.10909,-1.42584 9.79642,-4.12844 13.65036,-7.98525 4.61874,-4.60404 7.58015,-10.40345 8.67845,-16.70496 l 14.15048,0.54327 c 0.28436,21.866 8.92368,42.386574 24.4078,57.883404 15.7488,15.75375 36.70484,24.43229 58.98463,24.43229 22.28957,0 43.22595,-8.67854 58.99442,-24.43229 15.75869,-15.75473 24.43725,-36.710714 24.43725,-58.983664 0,-22.28669 -8.67856,-43.22893 -24.43725,-58.9974005 z M 52.302215,8.1916455 c 12.98349,12.9834805 20.14211,30.2591605 20.14211,48.6213905 0,37.90511 -30.84073,68.735004 -68.7517402,68.735004 -18.3573098,0 -35.6261298,-7.14386 -48.6096198,-20.12734 -12.98348,-12.984474 -20.14204,-30.245444 -20.14204,-48.607664 0,-18.36223 7.15856,-35.63791 20.14204,-48.6213905 12.98349,-12.98349 30.25231,-20.1273495 48.6096198,-20.1273495 8.9531202,0 17.6414702,1.71119 25.7120202,4.9570595 L 14.302965,38.341976 c -1.14733,3.11054 -5.6484002,12.03326 -12.1205302,14.46422 -2.2064198,0.82862 -3.3243198,3.28705 -2.4907898,5.50032 0.82372,2.21427 3.2948998,3.34101 5.5111198,2.51335 11.4929302,-4.31966 16.9648202,-19.04179 17.1805502,-19.66644 0.0294,-0.0402 6.70749,-20.12735 14.79762,-44.3968605 5.48171,3.06935005 10.57113,6.88596 15.12128,11.43508 z M 226.05927,-17.382104 c -24.80977,12.7804995 -42.412,37.62073 -45.01068,66.73846 l -14.12102,-0.52954 c -0.70601,-7.21152 -3.84405,-13.87977 -9.03151,-19.06828 -0.49034,-0.48834 -1.00025,-0.93649 -1.52005,-1.38463 l 52.69887,-83.55227 16.98439,37.79626 z m 6.00151,13.3512295 25.32956,56.2938005 -61.67157,-2.34959 c 1.5494,-15.75374 8.45301,-30.36702 19.78905,-41.7216905 4.96191,-4.94334 10.54167,-9.04529995 16.55296,-12.22252 z m -102.42645,43.1749905 -6.91339,-7.37528 c 1.49059,-0.97769 3.07923,-1.75141 4.73646,-2.36331 l 2.17693,9.73859 z m 2.56932,-10.933 c 1.16689,-0.17651 2.34367,-0.29909 3.54001,-0.29909 2.91249,0 5.73672,0.54327 8.38432,1.53468 l -8.60008,13.6356 -3.32425,-14.87119 z m 20.19103,6.45057 c 0.10793,0.10883 0.21576,0.19023 0.31381,0.28536 3.71654,3.72147 6.04064,8.46083 6.76632,13.59441 l -15.44488,-0.5972 8.36475,-13.28257 z m -96.748535,-93.26244 144.014715,0 -51.54166,81.73224 c -3.85393,-1.65727 -8.05093,-2.55356 -12.37554,-2.55356 -1.75527,0 -3.46164,0.19024 -5.14833,0.46187 l -3.49098,-15.5782105 11.08103,0 0,-9.79156 -28.12434,9.79156 12.05194,0 3.73621,16.7461505 c -2.95173,0.97768 -5.69747,2.39076 -8.17843,4.15588 l -66.643365,-71.13852 c 1.61809,-4.83546 3.1576,-9.49344 4.61875,-13.82585 z m 80.097515,134.52227 c -6.41326,0 -12.43434,-2.49864 -16.9746,-7.03502 -4.5207,-4.53637 -7.02133,-10.55252 -7.02133,-16.96286 0,-5.22869 1.68669,-10.18576 4.73647,-14.30145 l 16.14109,17.22175 0.68644,0.74625 4.5207,20.22345 c -0.68644,0.054 -1.38276,0.10788 -2.08877,0.10788 z m 6.90361,-1.03163 -4.15786,-18.57991 20.67159,0.78842 c -1.873,8.4883 -8.25681,15.30561 -16.51373,17.79149 z m 121.47015,50.658154 c -18.36715,0 -35.62611,-7.14386 -48.6096,-20.12734 -12.5913,-12.590264 -19.66155,-29.213824 -20.0833,-46.950404 l 68.52616,2.60747 4.25591,-0.59817 -0.17653,-5.43267 -28.15369,-62.5825605 c 7.63907,-2.8791095 15.83707,-4.4000695 24.24105,-4.4000695 18.37694,0 35.6359,7.1438595 48.61939,20.1273495 12.98349,12.9834805 20.12243,30.2591605 20.12243,48.6213905 0,37.90511 -30.82106,68.735004 -68.74182,68.735004" />
    <path
       id="path10460"
       style="fill:#ffffff;fill-rule:nonzero;stroke:none"
       d="m 299.02823,550.99945 c 0,0 0,-18.04834 -4.5117,-36.8523 -3.36024,-14.00916 -11.32607,-27.60468 -15.15541,-33.61653 -0.44347,-1.13431 -1.13435,-2.22086 -2.1322,-3.22468 l -7.01051,-1.40552 c 9.86764,-4.68991 16.69059,-14.75371 16.69059,-26.42347 0,-16.14644 -13.08295,-29.24645 -29.22768,-29.24645 -16.16185,0 -29.25331,13.10001 -29.25331,29.24645 0,10.09877 1.91893,20.31609 9.68858,25.5723 2.53296,1.70148 6.26,2.63451 10.12345,3.13088 l -5.61182,0.626 c 0,0 0.43495,0 -0.3411,1.72449 -3.84646,1.07461 -12.39217,2.33856 -28.22984,-0.2243 -15.4966,-2.49293 -21.01465,-12.95758 -22.98471,-19.7029 1.25366,-1.13345 2.42214,-2.43322 3.437,-3.85068 5.00632,-7.0276 2.00429,-17.04452 -4.51161,-21.55617 -2.26862,-1.57097 -3.98295,-3.39014 -5.26224,-5.07881 2.59279,-4.67796 3.76118,-8.45785 3.76118,-8.45785 -5.51807,-15.54433 -19.053,-55.14967 -19.053,-55.14967 -3.50526,-33.5808 -3.50526,-75.69007 -3.50526,-75.69007 0,0 0.90397,-7.24065 -9.02332,-13.5364 -23.82912,-15.10733 -42.24246,-21.22587 -49.39801,-23.23394 l -0.78457,-9.55575 c 6.35377,-5.13817 11.17253,-13.4537 13.80786,-22.3953 0.12791,-0.46063 0.24732,-0.92126 0.36671,-1.38199 6.68645,1.02762 11.65014,1.66548 13.44116,1.66548 7.52225,0 6.77172,-6.01219 -3.01065,-11.28034 -2.86561,-1.53549 -5.34741,-2.69309 -7.95721,-3.63798 0.74202,-4.18142 2.62682,-14.83575 3.82082,-20.78884 1.51818,-7.52398 -7.50514,-9.40198 -15.03599,-7.52398 -7.52226,1.87802 -17.287515,-2.63449 -21.423916,-5.26815 -4.136474,-2.63449 -6.405088,-1.50018 -9.782447,2.25584 -2.771741,3.0831 -7.803692,17.75324 -9.543557,22.96229 L 53.889212,198.3215 c 0,0 -15.795038,5.26814 -3.002126,9.02433 3.223823,0.95675 9.68857,2.38598 17.645798,3.99235 -0.281438,1.18122 -0.520245,2.39783 -0.682284,3.6263 -1.594844,11.76459 2.550052,22.74957 10.004053,29.13984 l -1.739774,6.77993 c -4.400812,1.98445 -14.285549,6.63828 -35.760687,17.37528 -18.873849,9.43766 -25.671187,15.96962 -27.922784,19.95018 l -0.400837,-0.89763 c 0,0 -14.5327871,63.15797 -15.036005,97.7548 -0.503218,34.58538 -0.503218,67.17421 -0.503218,67.17421 l 8.3154241,0 c -1.6118614,8.35124 -2.558566,16.70164 -0.8016831,25.06485 0.5117406,3.50783 3.5138663,7.51203 7.019128,8.51585 4.511615,1.00467 4.511615,-0.49551 9.023313,-0.49551 0,-1.00467 7.326097,-4.05196 7.522263,-4.51251 1.501059,-3.50783 3.01063,-9.02417 -2.004285,-16.04069 -2.746228,-3.85068 -3.513784,-5.01996 -5.006238,-9.53161 -0.238807,-0.92196 -1.006454,-1.96074 -1.825146,-3.00038 l 5.330408,0 c 0,0 0,-2.51595 2.498908,-41.11749 2.413535,-37.14823 2.507412,-34.83271 10.56692,-60.97251 l 1.475454,3.33095 c 15.530709,56.64968 3.002135,67.67041 -2.515926,84.71491 -1.040481,3.23578 -3.002043,23.56467 1.509572,25.06485 1.569321,0.53134 3.377349,0.95606 5.390148,1.31086 -0.562968,12.33158 -0.545858,34.5615 2.62682,70.88246 5.517969,63.15807 15.547727,93.99938 13.543442,109.53176 0,0 -28.076311,-0.74454 -21.065696,16.79633 7.019036,17.55281 23.069981,25.5723 23.069981,25.5723 l 4.008398,-0.50745 2.004285,5.01997 8.520095,5.00802 c 0,0 7.010532,2.50401 11.027516,-3.01147 4.017075,-5.5044 3.010639,-9.52054 3.010639,-9.52054 l 3.002126,-13.02836 c 0,0 0,-57.15816 -6.507387,-90.24252 -6.524406,-33.08518 -3.522362,-51.13351 -1.006354,-65.16655 0.938109,-5.2204 2.908267,-9.12993 5.006329,-11.96484 4.46047,10.01604 9.799378,21.0487 16.067968,32.45833 1.21954,22.86788 3.98286,80.9352 1.98718,104.83076 -0.14502,1.73644 -0.24739,3.30742 -0.32408,4.7479 l -6.69504,5.03191 c 0,0 -0.75905,8.26852 1.50106,9.76871 2.25161,1.51214 3.01064,7.52398 3.01064,7.52398 0,0 7.51375,7.51204 13.53494,17.29269 6.01268,9.77981 18.04664,9.02418 22.55825,7.52398 4.52021,-1.51213 3.76118,4.5125 3.00213,-10.53629 -0.55437,-11.11454 -6.85708,-22.218 -10.10644,-27.26184 5.80801,-0.69679 10.83136,-1.68868 11.62452,-3.05923 1.74838,-3.05923 1.57783,-86.55727 1.51809,-107.87719 0.30705,-0.284 0.4776,-0.41364 0.4776,-0.41364 0,0 3.68441,-52.42135 -19.80352,-85.0332 5.39014,-0.95692 9.69708,-1.53602 11.77805,-3.69717 4.58847,-4.74875 2.0128,-12.02454 2.0128,-12.02454 0,0 -1.45844,-1.855 -7.01912,-19.05302 -11.53075,-35.5892 1.50105,-74.69793 1.50105,-74.69793 0,0 4.51171,33.08494 8.5287,45.61779 3.99988,12.53201 23.56461,50.63716 23.56461,50.63716 1.26226,-0.54327 2.46478,-1.19315 3.59062,-1.91383 -0.06,2.51596 -0.22178,5.2093 -0.58849,7.43016 -1.00644,6.01184 -1.00644,7.51203 4.00848,12.02454 0.86985,0.77952 1.83365,1.29891 2.86562,1.59402 -0.57147,7.14615 -0.27292,21.06064 8.1619,34.25446 4.23877,6.62677 19.51357,11.89492 31.58157,15.14262 -23.07849,29.1876 -45.86704,45.77157 -45.86704,45.77157 0,0 4.58838,9.15379 15.42833,17.85899 -1.78251,16.35966 -4.8528,49.36212 -2.64393,64.84759 3.01065,21.0598 5.26224,5.26815 6.76321,15.79251 0.034,0.24732 0.0851,0.49551 0.1194,0.7437 -2.6183,-0.37782 -5.07448,0.12963 -6.94227,1.66564 -4.52871,3.74408 -3.79529,12.09533 1.6375,18.66239 5.43269,6.55599 13.5008,8.84762 18.02952,5.1027 1.21112,-1.01577 2.03841,-2.37353 2.51602,-3.92148 l 0.43488,0.30704 c 0,0 2.2601,-8.26769 0.75913,-18.79203 -1.43281,-9.95806 -3.52238,-23.95443 8.97208,-64.87149 0.32407,10.63097 1.4158,23.24655 4.54583,29.51852 6.0297,12.03564 9.78236,12.03564 14.29398,18.80397 3.18119,4.76069 2.62682,13.22964 2.02131,17.83597 -6.48179,5.11463 -9.42416,10.97296 -8.03399,13.74903 4.77604,9.55551 12.33241,4.359 20.03381,-1.01577 5.04897,-3.51977 8.2813,-8.26852 8.9892,-12.48507 l 0.29845,-0.0358 c 0,0 11.27492,3.01232 -5.26214,-22.56 -9.7056,-15.00103 -9.02332,-21.80519 -5.26215,-35.34101 1.77391,-6.37858 3.37726,-11.23308 4.57127,-14.61129 3.59914,-0.69679 7.33468,-1.57097 11.21526,-2.6814 0,0 -6.76329,-17.2927 -4.5117,-36.85316 0.88695,-7.66555 3.51377,-18.09609 6.36237,-27.95861 11.39432,5.74062 13.75672,19.57239 11.69278,26.45842 -1.84215,6.1304 -3.67581,11.25696 -4.29843,12.94564 -4.81016,1.536 -8.37517,6.9338 -8.37517,13.37122 0,7.64253 5.00632,13.81982 11.17252,13.81982 6.16622,0 11.16404,-6.17729 11.16404,-13.81982 0,-2.16116 -0.41786,-4.20462 -1.13427,-6.03573 10.35376,-8.22077 11.76954,-19.5255 11.76954,-19.5255" />
  </g>
</svg>
