<?xml version="1.0" encoding="UTF-8" standalone="no"?>
<!-- Created with Inkscape (http://www.inkscape.org/) -->
<svg
   xmlns:svg="http://www.w3.org/2000/svg"
   xmlns="http://www.w3.org/2000/svg"
   version="1.0"
   width="1500"
   height="1500"
   id="svg24551">
  <defs
     id="defs24553" />
  <g
     transform="translate(-308.1445,925.9473)"
     id="layer1">
    <path
       d="M 1765.579,569.56413 C 1786.5974,569.56413 1803.6559,552.47372 1803.6559,531.38941 L 1803.6559,-883.26607 C 1803.6559,-904.36836 1786.5974,-921.45876 1765.579,-921.45876 L 350.71004,-921.45876 C 329.69154,-921.45876 312.63305,-904.36836 312.63305,-883.26607 L 312.63305,531.38941 C 312.63305,552.47372 329.69154,569.56413 350.71004,569.56413 L 1765.579,569.56413"
       style="fill:#fff100;fill-rule:nonzero;stroke:none"
       id="path21471" />
    <path
       d="M 1765.579,569.56413 C 1786.5974,569.56413 1803.6559,552.47372 1803.6559,531.38941 L 1803.6559,-883.26607 C 1803.6559,-904.36836 1786.5974,-921.45876 1765.579,-921.45876 L 350.71004,-921.45876 C 329.69154,-921.45876 312.63305,-904.36836 312.63305,-883.26607 L 312.63305,531.38941 C 312.63305,552.47372 329.69154,569.56413 350.71004,569.56413 L 1765.579,569.56413 z "
       style="fill:none;stroke:black;stroke-width:8.977108;stroke-linecap:butt;stroke-linejoin:miter;stroke-miterlimit:4"
       id="path21473" />
    <path
       d="M 847.9506,-299.97891 L 848.43441,-300.26673 C 848.82861,-300.48264 849.33034,-300.75249 849.33034,-300.75249 C 849.33034,-300.75249 1209.5476,-502.41944 1233.1642,-515.62399 C 1272.8002,-538.43522 1274.8787,-572.20237 1274.9862,-575.99816 C 1274.9862,-576.23205 1274.9503,-576.44796 1274.9503,-576.68185 L 1274.9503,-637.75769 L 1224.2408,-624.48105 C 1219.8328,-623.0779 1214.8156,-623.85147 1210.9631,-626.98173 C 1204.835,-631.94697 1203.9032,-640.94188 1208.8487,-647.07637 L 1318.9942,-824.43905 L 1429.1218,-647.07637 C 1434.0852,-640.94188 1433.1356,-631.94697 1427.0253,-626.98173 C 1423.1549,-623.8335 1418.1377,-623.0779 1413.7297,-624.48105 L 1364.5074,-637.36182 L 1364.5074,-575.47645 L 1364.5253,-574.95474 L 1364.5253,-575.13469 C 1364.5253,-575.13469 1364.5253,-574.84687 1364.5432,-574.27123 L 1364.5074,-574.27123 C 1363.7906,-533.90181 1340.7474,-474.26526 1278.2294,-438.03357 L 1278.2473,-437.99761 L 1277.2619,-437.43977 L 1277.2619,-437.45774 L 892.98,-222.33438 C 892.98,-222.33438 892.74705,-222.20835 892.6037,-222.11847 C 892.56787,-222.10049 892.38868,-221.99244 892.38868,-221.99244 C 767.71121,-150.53652 736.5508,-29.500356 737.62592,33.302409 L 737.64384,33.302409 L 737.71551,37.296315 L 737.64384,37.314292 L 737.64384,210.80909 L 648.08678,210.80909 L 648.08678,34.399944 C 646.99375,-49.145378 687.50765,-208.01432 847.9506,-299.97891"
       style="fill:black;fill-rule:nonzero;stroke:none"
       id="path21475" />
    <path
       d="M 897.31629,31.701324 L 897.35213,31.701324 C 898.06888,-8.668095 921.11217,-68.304645 983.648,-104.53634 L 983.63009,-104.57229 L 984.59769,-105.12996 L 984.61561,-105.11198 L 1368.8975,-320.23553 C 1368.8975,-320.23553 1369.1125,-320.36137 1369.2558,-320.45144 C 1369.2917,-320.46942 1369.4887,-320.57728 1369.4887,-320.57728 C 1494.1483,-392.0332 1525.3087,-513.06955 1524.2336,-575.87232 L 1524.1619,-579.88402 L 1524.2157,-579.88402 L 1524.2157,-637.36182 L 1474.9755,-624.48105 C 1470.5675,-623.0779 1465.5682,-623.85147 1461.6978,-626.98173 C 1455.5876,-631.94697 1454.6379,-640.94188 1459.5833,-647.07637 L 1569.7289,-824.43905 L 1679.8744,-647.07637 C 1684.8199,-640.94188 1683.8703,-631.94697 1677.7601,-626.98173 C 1673.8896,-623.8335 1668.8904,-623.0779 1664.4824,-624.48105 L 1613.7728,-637.75769 L 1613.7728,-576.98765 C 1614.8837,-493.44251 1574.3698,-334.5554 1413.9089,-242.591 L 1413.4251,-242.30318 C 1413.0309,-242.08726 1412.5292,-241.81742 1412.5292,-241.81742 C 1412.5292,-241.81742 1052.312,-40.168444 1028.6953,-26.945738 C 990.36747,-4.8901003 987.17796,27.311916 986.90919,32.870769 L 986.90919,34.111939 C 986.90919,34.093962 986.90919,210.80909 986.90919,210.80909 L 897.35213,210.80909 L 897.35213,32.906723 L 897.33422,32.385013 L 897.33422,32.56497 C 897.33422,32.56497 897.33422,32.276966 897.31629,31.701324"
       style="fill:black;fill-rule:nonzero;stroke:none"
       id="path21477" />
    <path
       d="M 616.65759,-409.51948 C 612.78717,-412.64974 607.78789,-413.42331 603.362,-412.02016 L 553.1183,-398.86937 L 553.1183,-821.43482 L 463.56125,-821.43482 L 463.56125,-398.99539 L 413.87302,-412.02016 C 409.46505,-413.40534 404.44785,-412.64974 400.59536,-409.5015 C 394.46721,-404.53627 393.53544,-395.54136 398.48097,-389.40668 L 508.62647,-212.06216 L 618.75406,-389.40668 C 623.71751,-395.54136 622.76782,-404.55424 616.65759,-409.51948"
       style="fill:black;fill-rule:nonzero;stroke:none"
       id="path21479" />
    <path
       d="M 1074.961,-651.44799 L 1074.961,-821.43482 L 1142.1199,-821.43482 L 1142.1199,-651.44799 C 1142.1199,-632.84638 1127.0863,-617.77091 1108.5405,-617.77091 C 1089.9948,-617.77091 1074.961,-632.84638 1074.961,-651.44799"
       style="fill:black;fill-rule:nonzero;stroke:none"
       id="path21481" />
    <path
       d="M 1141.4749,40.82226 L 1141.4749,210.80909 L 1074.316,210.80909 L 1074.316,40.82226 C 1074.316,22.20268 1089.3497,7.1272065 1107.8955,7.1272065 C 1126.4411,7.1272065 1141.4749,22.220658 1141.4749,40.82226"
       style="fill:black;fill-rule:nonzero;stroke:none"
       id="path21483" />
    <path
       d="M 968.68599,306.80318 C 944.11962,306.80318 924.19416,326.79013 924.19416,351.43634 L 924.19416,422.85631 C 924.19416,447.50252 944.11962,467.4893 968.68599,467.4893 C 993.27029,467.4893 1013.1957,447.50252 1013.1957,422.85631 L 1013.1957,351.43634 C 1013.1957,326.79013 993.27029,306.80318 968.68599,306.80318 z M 990.94087,422.85631 L 990.94087,422.85631 C 990.94087,435.17942 980.97814,445.18179 968.68599,445.18179 C 956.39384,445.18179 946.43112,435.17942 946.43112,422.85631 L 946.43112,351.43634 C 946.43112,339.11324 956.39384,329.11068 968.68599,329.11068 C 980.97814,329.11068 990.94087,339.11324 990.94087,351.43634 L 990.94087,422.85631"
       style="fill:black;fill-rule:nonzero;stroke:none"
       id="path21485" />
    <path
       d="M 1260.0063,349.92515 C 1246.7107,349.92515 1234.7769,355.7898 1226.6239,365.05455 C 1218.471,355.7898 1206.5372,349.92515 1193.2417,349.92515 C 1185.5187,349.92515 1177.7958,352.87545 1171.0047,357.76877 L 1171.0047,352.15581 L 1148.7497,352.15581 L 1148.7497,463.74744 L 1171.0047,463.74744 L 1171.0047,394.55813 C 1171.0047,382.23503 1180.9674,372.25063 1193.2417,372.25063 C 1205.5338,372.25063 1215.4965,382.23503 1215.4965,394.55813 L 1215.4965,463.74744 L 1237.7514,463.74744 L 1237.7514,394.55813 C 1237.7514,382.23503 1247.7141,372.25063 1260.0063,372.25063 C 1272.2984,372.25063 1282.2611,382.23503 1282.2611,394.55813 L 1282.2611,463.74744 L 1304.4981,463.74744 L 1304.4981,394.55813 C 1304.4981,369.91192 1284.5727,349.92515 1260.0063,349.92515"
       style="fill:black;fill-rule:nonzero;stroke:none"
       id="path21487" />
    <path
       d="M 898.33765,409.45383 C 898.33765,384.80762 878.41219,364.82085 853.8279,364.82085 C 845.7287,364.82085 838.25666,367.05151 831.59094,373.04218 L 831.59094,331.34152 L 893.89384,331.34152 L 893.89384,309.03402 L 809.33607,309.03402 L 809.33607,398.29999 L 831.59094,398.29999 C 835.44344,391.64378 845.60327,387.14633 853.84582,387.14633 C 866.12005,387.14633 876.08277,397.13073 876.08277,409.45383 L 876.08277,422.85631 C 876.08277,435.17942 866.12005,445.18179 853.84582,445.18179 C 842.32417,445.18179 832.71981,436.34868 831.59094,425.08697 L 809.33607,425.08697 C 810.44702,448.74369 829.97827,467.4893 853.84582,467.4893 C 878.41219,467.4893 898.33765,447.50252 898.33765,422.85631 L 898.33765,409.45383"
       style="fill:black;fill-rule:nonzero;stroke:none"
       id="path21489" />
    <path
       d="M 1079.1361,306.80318 C 1054.5519,306.80318 1034.6264,326.79013 1034.6264,351.43634 L 1034.6264,422.85631 C 1034.6264,447.50252 1054.5519,467.4893 1079.1361,467.4893 C 1103.7204,467.4893 1123.6458,447.50252 1123.6458,422.85631 L 1123.6458,351.43634 C 1123.6458,326.79013 1103.7204,306.80318 1079.1361,306.80318 z M 1101.391,422.85631 L 1101.391,422.85631 C 1101.391,435.17942 1091.4283,445.18179 1079.1361,445.18179 C 1066.844,445.18179 1056.8812,435.17942 1056.8812,422.85631 L 1056.8812,351.43634 C 1056.8812,339.11324 1066.844,329.11068 1079.1361,329.11068 C 1091.4283,329.11068 1101.391,339.11324 1101.391,351.43634 L 1101.391,422.85631"
       style="fill:black;fill-rule:nonzero;stroke:none"
       id="path21491" />
  </g>
</svg>
