<?xml version="1.0" encoding="UTF-8" standalone="no"?>
<!-- Created with Inkscape (http://www.inkscape.org/) -->
<svg
   xmlns:svg="http://www.w3.org/2000/svg"
   xmlns="http://www.w3.org/2000/svg"
   version="1.0"
   width="960"
   height="960"
   id="svg2738">
  <defs
     id="defs2740" />
  <g
     transform="translate(-481.7562,686.6229)"
     id="layer1">
    <path
       d="M 518.3802,273.37711 C 498.14994,273.37711 481.75621,256.9843 481.75621,236.74481 L 481.75621,-649.99059 C 481.75621,-670.23008 498.14994,-686.62289 518.3802,-686.62289 L 1405.1175,-686.62289 C 1425.3477,-686.62289 1441.7562,-670.23008 1441.7562,-649.99059 L 1441.7562,236.74481 C 1441.7562,256.9843 1425.3477,273.37711 1405.1175,273.37711 L 518.3802,273.37711"
       style="fill:#176fc1;fill-rule:nonzero;stroke:none"
       id="path63" />
    <path
       d="M 1246.3004,-423.56866 L 1128.1504,-554.63713 L 1011.8449,-423.56866 L 1063.5346,-423.56866 L 1063.5346,131.15324 L 1194.6107,131.15324 L 1194.6107,-423.56866 L 1246.3004,-423.56866"
       style="fill:white;fill-rule:nonzero;stroke:none"
       id="path65" />
    <path
       d="M 677.69897,8.3995336 L 795.84896,139.46801 L 912.15446,8.3995336 L 860.46477,8.3995336 L 860.45001,-546.33716 L 729.37391,-546.32237 L 729.38867,8.3995336 L 677.69897,8.3995336"
       style="fill:#f03120;fill-rule:nonzero;stroke:none"
       id="path67" />
  </g>
</svg>
