<?xml version="1.0" encoding="UTF-8" standalone="no"?>
<!-- Created with Inkscape (http://www.inkscape.org/) -->
<svg
   xmlns:svg="http://www.w3.org/2000/svg"
   xmlns="http://www.w3.org/2000/svg"
   version="1.0"
   width="1600"
   height="2500"
   id="svg29296">
  <defs
     id="defs29298" />
  <g
     transform="translate(-326.0457,2157.696)"
     id="layer1">
    <path
       d="M 1821.4853,342.30433 C 1849.4103,342.30433 1875.6706,331.48349 1895.4127,311.81453 C 1915.1665,292.15725 1926.0457,266.02147 1926.0457,238.21646 L 1926.0457,-2053.5961 C 1926.0457,-2081.4011 1915.1665,-2107.5486 1895.4127,-2127.2059 C 1875.6706,-2146.8632 1849.4103,-2157.6957 1821.4853,-2157.6957 L 430.60609,-2157.6957 C 372.95075,-2157.6957 326.04571,-2111.0038 326.04571,-2053.5961 L 326.04571,238.21646 C 326.04571,266.0098 336.92496,292.15725 356.67877,311.81453 C 376.42086,331.48349 402.68111,342.30433 430.60609,342.30433 L 1821.4853,342.30433 z "
       style="fill:black;fill-rule:nonzero;stroke:none"
       id="path29314" />
    <path
       d="M 430.60609,316.05182 C 409.72684,316.05182 390.09026,307.95078 375.31886,293.25451 C 360.54747,278.54657 352.4232,259.00602 352.4232,238.21646 L 352.4232,-2053.5961 C 352.4232,-2074.3974 360.54747,-2093.9379 375.31886,-2108.6458 C 390.09026,-2123.3421 409.72684,-2131.4432 430.60609,-2131.4432 L 1821.4853,-2131.4432 C 1842.3646,-2131.4432 1862.0012,-2123.3421 1876.7726,-2108.6458 C 1891.5322,-2093.9379 1899.6682,-2074.3974 1899.6682,-2053.5961 L 1899.6682,238.21646 C 1899.6682,281.13797 1864.592,316.05182 1821.4853,316.05182 L 430.60609,316.05182"
       style="fill:white;fill-rule:nonzero;stroke:none"
       id="path28781" />
    <path
       d="M 563.91206,-2020.585 L 563.91206,-1399.6997 L 483.53692,-1420.3258 C 475.83469,-1422.7538 467.10081,-1421.4231 460.3599,-1415.9835 C 449.67994,-1407.3805 448.03868,-1391.7971 456.67877,-1381.1747 L 648.89448,-1073.9771 L 841.12191,-1381.1747 C 849.76201,-1391.7971 848.10902,-1407.3805 837.44079,-1415.9835 C 830.68815,-1421.4231 821.95427,-1422.7538 814.26376,-1420.3258 L 733.87689,-1399.6997 L 733.87689,-2020.585 L 563.91206,-2020.585"
       style="fill:black;fill-rule:nonzero;stroke:none"
       id="path28783" />
    <path
       d="M 1671.3095,-255.11828 L 1671.3095,-1628.5016 L 1751.6846,-1607.8754 C 1759.3869,-1605.4475 1768.1207,-1606.7782 1774.8617,-1612.2178 C 1785.5416,-1620.8208 1787.1829,-1636.4042 1778.5428,-1647.0266 L 1586.3153,-1954.2241 L 1394.0996,-1647.0266 C 1385.4595,-1636.4042 1387.1125,-1620.8091 1397.7808,-1612.2061 C 1404.5334,-1606.7782 1413.2673,-1605.4358 1420.9578,-1607.8754 L 1501.3447,-1628.5016 L 1501.3447,-255.11828 L 1671.3095,-255.11828"
       style="fill:black;fill-rule:nonzero;stroke:none"
       id="path28785" />
    <path
       d="M 1182.6577,-255.11828 L 1182.6459,-1628.5016 L 1263.0211,-1607.8754 C 1270.7233,-1605.4475 1279.4572,-1606.7782 1286.1981,-1612.2178 C 1296.8781,-1620.8208 1298.5193,-1636.4042 1289.8792,-1647.0266 L 1097.6518,-1954.2241 L 905.44782,-1647.0266 C 896.80773,-1636.4042 898.44899,-1620.8091 909.12895,-1612.2061 C 915.86986,-1606.7782 924.60374,-1605.4358 932.30597,-1607.8754 L 1012.6811,-1628.5016 L 1012.6928,-255.11828 L 1182.6577,-255.11828"
       style="fill:black;fill-rule:nonzero;stroke:none"
       id="path28787" />
    <path
       d="M 770.38334,176.78161 L 770.38334,41.059991 L 799.59788,51.624029 C 802.00116,52.382772 804.72097,51.974218 806.83117,50.269965 C 810.1606,47.585182 810.6647,42.729226 807.98006,39.414103 L 748.03868,-56.37429 L 688.09729,39.425776 C 685.40093,42.729226 685.91675,47.596855 689.24618,50.269965 C 691.34465,51.974218 694.07619,52.382772 696.47947,51.624029 L 725.69401,41.059991 L 725.69401,176.78161 L 770.38334,176.78161"
       style="fill:black;fill-rule:nonzero;stroke:none"
       id="path28789" />
    <path
       d="M 1534.4865,176.78161 L 1534.4865,41.059991 L 1563.701,51.624029 C 1566.1043,52.382772 1568.8241,51.974218 1570.9226,50.269965 C 1574.252,47.596855 1574.7679,42.729226 1572.0715,39.414103 L 1512.1418,-56.37429 L 1452.2005,39.425776 C 1449.5041,42.729226 1450.0199,47.596855 1453.3493,50.269965 C 1455.4478,51.974218 1458.1794,52.382772 1460.5709,51.624029 L 1489.7972,41.059991 L 1489.7972,176.78161 L 1534.4865,176.78161"
       style="fill:black;fill-rule:nonzero;stroke:none"
       id="path28791" />
    <path
       d="M 635.84641,224.45402 L 1623.9824,224.45402 L 1623.9824,-105.76263 L 635.84641,-105.76263 L 635.84641,224.45402 z M 645.21335,-96.435923 L 1614.592,-96.435923 L 1614.592,215.11565 L 645.21335,215.11565 L 645.21335,-96.435923 z "
       style="fill:black;fill-rule:nonzero;stroke:none"
       id="path28793" />
    <path
       d="M 1268.0738,92.946343 L 1284.0059,92.946343 L 1284.0059,101.87617 L 1284.3224,101.87617 C 1289.3165,95.257591 1296.5029,91.954141 1304.932,91.954141 C 1316.0223,91.954141 1321.6495,96.751732 1327.2767,102.86837 C 1333.83,95.257591 1341.4853,91.954141 1352.2591,91.954141 C 1364.6037,91.954141 1378.66,102.03959 1378.66,121.05486 L 1378.66,176.78161 L 1362.728,176.78161 L 1362.728,126.84465 C 1362.728,115.44016 1356.0105,108.82158 1347.1008,108.82158 C 1338.0504,108.82158 1331.3329,115.44016 1331.3329,126.84465 L 1331.3329,176.78161 L 1315.4009,176.78161 L 1315.4009,126.84465 C 1315.4009,115.44016 1308.6835,108.82158 1299.7855,108.82158 C 1290.7233,108.82158 1284.0059,115.44016 1284.0059,126.84465 L 1284.0059,176.78161 L 1268.0738,176.78161 L 1268.0738,92.946343"
       style="fill:black;fill-rule:nonzero;stroke:none"
       id="path28795" />
  </g>
</svg>
