<?xml version="1.0" encoding="UTF-8" standalone="no"?>
<!-- Created with Inkscape (http://www.inkscape.org/) -->
<svg
   xmlns:svg="http://www.w3.org/2000/svg"
   xmlns="http://www.w3.org/2000/svg"
   version="1.0"
   width="2500"
   height="2500"
   id="svg22325">
  <defs
     id="defs22327" />
  <g
     transform="translate(-750.1686,2271.592)"
     id="layer1">
    <path
       d="M 3148.1409,213.16635 C 3196.0743,213.16635 3234.927,174.63224 3234.927,127.09174 L 3234.927,-2170.2748 C 3234.927,-2217.8153 3196.0743,-2256.3505 3148.1409,-2256.3505 L 852.19624,-2256.3505 C 804.26288,-2256.3505 765.41012,-2217.8153 765.41012,-2170.2748 L 765.41012,127.09174 C 765.41012,174.63224 804.26288,213.16635 852.19624,213.16635 L 3148.1409,213.16635"
       style="fill:#0b8f4b;fill-rule:nonzero;stroke:none"
       id="path20919" />
    <path
       d="M 3234.927,-1459.3128 L 3234.927,-2170.2748 C 3234.927,-2217.8153 3196.0743,-2256.3505 3148.1409,-2256.3505 L 852.19624,-2256.3505 C 804.26288,-2256.3505 765.41012,-2217.8153 765.41012,-2170.2748 L 765.41012,-1459.3128 L 3234.927,-1459.3128"
       style="fill:#176fc1;fill-rule:nonzero;stroke:none"
       id="path20921" />
    <path
       d="M 1534.9762,-2181.2043 L 1534.9762,-2043.1564 L 1418.9894,-2043.1564 L 1418.9894,-2181.2043 L 1372.5865,-2181.2043 L 1372.5865,-1859.1066 L 1418.9894,-1859.1066 L 1418.9894,-1997.1545 L 1534.9762,-1997.1545 L 1534.9762,-1859.1066 L 1581.3791,-1859.1066 L 1581.3791,-2181.2043 L 1534.9762,-2181.2043"
       style="fill:white;fill-rule:nonzero;stroke:none"
       id="path20923" />
    <path
       d="M 1656.8809,-1778.1118 C 1616.9465,-1778.1118 1584.5624,-1745.9928 1584.5624,-1706.3859 L 1584.5624,-1591.6328 C 1584.5624,-1552.026 1616.9465,-1519.9069 1656.8809,-1519.9069 C 1696.8151,-1519.9069 1729.1991,-1552.026 1729.1991,-1591.6328 L 1729.1991,-1706.3859 C 1729.1991,-1745.9928 1696.8151,-1778.1118 1656.8809,-1778.1118 z M 1693.04,-1591.6328 L 1693.04,-1591.6328 C 1693.04,-1571.8188 1676.8581,-1555.7693 1656.8809,-1555.7693 C 1636.9035,-1555.7693 1620.7216,-1571.8188 1620.7216,-1591.6328 L 1620.7216,-1706.3859 C 1620.7216,-1726.1988 1636.9035,-1742.2483 1656.8809,-1742.2483 C 1676.8581,-1742.2483 1693.04,-1726.1988 1693.04,-1706.3859 L 1693.04,-1591.6328"
       style="fill:white;fill-rule:nonzero;stroke:none"
       id="path20925" />
    <path
       d="M 2037.1644,-1946.5367 L 2037.1644,-1946.5367 C 2037.1644,-1895.6976 2078.7107,-1854.4917 2129.9703,-1854.4917 C 2146.8663,-1854.4917 2162.7013,-1859.0049 2176.3527,-1866.838 L 2176.3527,-1859.1066 L 2222.7557,-1859.1066 L 2222.7557,-2181.2043 L 2176.3527,-2181.2043 L 2176.3527,-2081.448 C 2162.7013,-2089.28 2146.8663,-2093.7731 2129.9703,-2093.7731 C 2078.7107,-2093.7731 2037.1644,-2052.5672 2037.1644,-2001.7482 L 2037.1644,-1946.5367 z M 2083.5673,-2001.7482 C 2083.5673,-2027.1684 2104.3404,-2047.7702 2129.9703,-2047.7702 C 2155.5795,-2047.7702 2176.3527,-2027.1684 2176.3527,-2001.7482 L 2176.3527,-1946.5367 C 2176.3527,-1921.1177 2155.5795,-1900.5147 2129.9703,-1900.5147 C 2104.3404,-1900.5147 2083.5673,-1921.1177 2083.5673,-1946.5367 L 2083.5673,-2001.7482"
       style="fill:white;fill-rule:nonzero;stroke:none"
       id="path20927" />
    <path
       d="M 1924.6464,-2135.2013 L 1971.0493,-2135.2013 L 1971.0493,-2181.2244 L 1924.6464,-2181.2244 L 1924.6464,-2135.2013 z "
       style="fill:white;fill-rule:nonzero;stroke:none"
       id="path20929" />
    <path
       d="M 1924.6464,-1859.1066 L 1971.0493,-1859.1066 L 1971.0493,-2089.1794 L 1924.6464,-2089.1794 L 1924.6464,-1859.1066 z "
       style="fill:white;fill-rule:nonzero;stroke:none"
       id="path20931" />
    <path
       d="M 1759.1958,-2093.7731 C 1717.6902,-2093.7731 1682.2453,-2066.6534 1670.3896,-2029.354 L 1722.0775,-2029.354 C 1730.546,-2040.4243 1744.1159,-2047.7702 1759.1958,-2047.7702 C 1784.8255,-2047.7702 1805.5988,-2027.1684 1805.5988,-2001.7482 C 1794.9673,-1995.1912 1735.9944,-1997.1545 1735.9944,-1997.1545 C 1694.9989,-1997.1545 1661.7578,-1968.78 1661.7578,-1928.1205 C 1661.7578,-1887.4611 1694.9989,-1854.4917 1735.9944,-1854.4917 C 1735.9944,-1854.4917 1781.9892,-1849.5941 1805.5988,-1875.0544 L 1805.5988,-1859.1066 L 1851.9813,-1859.1066 L 1851.9813,-2001.7482 C 1851.9813,-2052.5672 1810.4349,-2093.7731 1759.1958,-2093.7731 z M 1805.5988,-1928.1205 C 1795.9059,-1891.4067 1735.9944,-1900.5147 1735.9944,-1900.5147 C 1723.1795,-1900.5147 1708.1607,-1911.9895 1708.1607,-1928.1205 C 1708.1607,-1943.6426 1723.1795,-1955.7252 1735.9944,-1955.7252 C 1735.9944,-1955.7252 1800.5585,-1953.9854 1805.5988,-1964.9338 L 1805.5988,-1928.1205"
       style="fill:white;fill-rule:nonzero;stroke:none"
       id="path20933" />
    <path
       d="M 2119.2981,-1708.0051 C 2097.6882,-1708.0051 2078.3026,-1698.5942 2065.0592,-1683.6979 C 2051.7954,-1698.5942 2032.4303,-1708.0051 2010.8204,-1708.0051 C 1998.2504,-1708.0051 1985.7009,-1703.2482 1974.6613,-1695.4162 L 1974.6613,-1704.4226 L 1938.5021,-1704.4226 L 1938.5021,-1525.1085 L 1974.6613,-1525.1085 L 1974.6613,-1636.2792 C 1974.6613,-1656.0932 1990.8431,-1672.1416 2010.8204,-1672.1416 C 2030.7774,-1672.1416 2046.9795,-1656.0932 2046.9795,-1636.2792 L 2046.9795,-1525.1085 L 2083.1388,-1525.1085 L 2083.1388,-1636.2792 C 2083.1388,-1656.0932 2099.3206,-1672.1416 2119.2981,-1672.1416 C 2139.255,-1672.1416 2155.4367,-1656.0932 2155.4367,-1636.2792 L 2155.4367,-1525.1085 L 2191.5959,-1525.1085 L 2191.5959,-1636.2792 C 2191.5959,-1675.886 2159.2321,-1708.0051 2119.2981,-1708.0051"
       style="fill:white;fill-rule:nonzero;stroke:none"
       id="path20935" />
    <path
       d="M 1831.7999,-1780.7835 C 1791.8452,-1780.7835 1759.4815,-1748.6645 1759.4815,-1709.0577 L 1759.4815,-1594.3045 C 1759.4815,-1554.6977 1791.8452,-1522.5787 1831.7999,-1522.5787 C 1871.7342,-1522.5787 1904.1181,-1554.6977 1904.1181,-1594.3045 L 1904.1181,-1709.0577 C 1904.1181,-1748.6645 1871.7342,-1780.7835 1831.7999,-1780.7835 z M 1867.959,-1594.3045 L 1867.959,-1594.3045 C 1867.959,-1574.4905 1851.7567,-1558.441 1831.7999,-1558.441 C 1811.8225,-1558.441 1795.6406,-1574.4905 1795.6406,-1594.3045 L 1795.6406,-1709.0577 C 1795.6406,-1728.8706 1811.8225,-1744.92 1831.7999,-1744.92 C 1851.7567,-1744.92 1867.959,-1728.8706 1867.959,-1709.0577 L 1867.959,-1594.3045"
       style="fill:white;fill-rule:nonzero;stroke:none"
       id="path20937" />
    <path
       d="M 2780.5294,-2068.0301 C 2770.4285,-2065.1147 2764.6332,-2054.611 2767.592,-2044.5934 C 2769.4693,-2038.2587 2774.3872,-2033.6438 2780.2845,-2031.8425 L 2858.7246,-2003.4478 L 2720.8626,-1804.9477 L 2720.8626,-1525.1085 L 2812.7094,-1525.1085 L 2812.7094,-1776.6133 L 2934.2263,-1951.5762 L 2988.608,-1888.8165 C 2992.4034,-1883.9591 2998.4844,-1881.0248 3005.1163,-1881.5108 C 3015.6049,-1882.2997 3023.4816,-1891.3665 3022.6858,-1901.7696 L 3036.1739,-2177.6822 L 2780.5294,-2068.0301"
       style="fill:white;fill-rule:nonzero;stroke:none"
       id="path20939" />
    <path
       d="M 3148.1409,213.16635 C 3196.0743,213.16635 3234.927,174.63224 3234.927,127.09174 L 3234.927,-2170.2748 C 3234.927,-2217.8153 3196.0743,-2256.3505 3148.1409,-2256.3505 L 852.19624,-2256.3505 C 804.26288,-2256.3505 765.41012,-2217.8153 765.41012,-2170.2748 L 765.41012,127.09174 C 765.41012,174.63224 804.26288,213.16635 852.19624,213.16635 L 3148.1409,213.16635 z "
       style="fill:none;stroke:black;stroke-width:30.48310089;stroke-linecap:butt;stroke-linejoin:miter;stroke-miterlimit:4"
       id="path20941" />
    <path
       d="M 1556.9329,-1630.5513 L 1538.8533,-1630.5513 L 1538.8533,-1713.1452 L 1502.6943,-1695.2341 L 1502.6943,-1630.5513 L 1432.8449,-1630.5513 L 1487.0633,-1774.003 L 1448.4554,-1774.003 L 1394.2166,-1630.5513 L 1394.2166,-1594.6889 L 1502.6943,-1594.6889 L 1502.6943,-1522.9631 L 1538.8533,-1522.9631 L 1538.8533,-1594.6889 L 1556.9329,-1594.6889 L 1556.9329,-1630.5513"
       style="fill:white;fill-rule:nonzero;stroke:none"
       id="path20943" />
    <path
       d="M 1000.8121,-274.54363 L 1036.9714,-274.54363 L 1036.9714,-310.40601 L 1000.8121,-310.40601 L 1000.8121,-274.54363 z "
       style="fill:white;fill-rule:nonzero;stroke:none"
       id="path20945" />
    <path
       d="M 944.83882,-274.32126 L 980.998,-274.32126 L 980.998,-310.18364 L 944.83882,-310.18364 L 944.83882,-274.32126 z "
       style="fill:white;fill-rule:nonzero;stroke:none"
       id="path20947" />
    <path
       d="M 2022.9008,-547.09724 C 1990.5166,-547.09724 1962.8871,-525.92778 1953.6228,-496.82466 L 1993.9448,-496.82466 C 2000.5563,-505.46676 2011.1469,-511.19352 2022.9008,-511.19352 C 2042.8985,-511.19352 2059.1007,-495.12395 2059.1007,-475.29092 C 2050.8159,-470.1698 2004.8211,-471.70848 2004.8211,-471.70848 C 1972.8247,-471.70848 1946.8889,-449.56686 1946.8889,-417.85346 C 1946.8889,-386.11882 1972.8247,-360.416 2004.8211,-360.416 C 2004.8211,-360.416 2040.6945,-356.59108 2059.1007,-376.44534 L 2059.1007,-363.99844 L 2095.3006,-363.99844 L 2095.3006,-475.29092 C 2095.3006,-514.93798 2062.8961,-547.09724 2022.9008,-547.09724 z M 2059.1007,-417.85346 C 2051.5505,-389.19507 2004.8211,-396.2996 2004.8211,-396.2996 C 1994.8223,-396.2996 1983.0889,-405.26464 1983.0889,-417.85346 C 1983.0889,-429.9562 1994.8223,-439.3872 2004.8211,-439.3872 C 2004.8211,-439.3872 2055.1827,-438.01054 2059.1007,-446.57219 L 2059.1007,-417.85346"
       style="fill:white;fill-rule:nonzero;stroke:none"
       id="path20949" />
    <path
       d="M 1837.6971,-197.49551 C 1797.7017,-197.49551 1765.2972,-165.33625 1765.2972,-125.68806 L 1765.2972,-82.600472 C 1765.2972,-42.953405 1797.7017,-10.794149 1837.6971,-10.794149 C 1868.7548,-10.794149 1895.2621,-30.222675 1905.5262,-57.484294 L 1863.5922,-57.524521 C 1857.0215,-50.84572 1847.8389,-46.696752 1837.6971,-46.696752 C 1817.6994,-46.696752 1801.4972,-62.766323 1801.4972,-82.600472 L 1801.4972,-86.18291 L 1910.0767,-86.18291 L 1910.0767,-125.68806 C 1910.0767,-165.33625 1877.6721,-197.49551 1837.6971,-197.49551 z M 1873.8767,-122.08551 L 1801.4972,-122.08551 L 1801.4972,-125.68806 C 1801.4972,-145.5021 1817.6994,-161.59179 1837.6971,-161.59179 C 1857.6744,-161.59179 1873.8767,-145.5021 1873.8767,-125.68806 L 1873.8767,-122.08551"
       style="fill:white;fill-rule:nonzero;stroke:none"
       id="path20951" />
    <path
       d="M 2257.915,-399.8407 L 2257.915,-399.8407 C 2253.9154,-399.8407 2250.6912,-403.05886 2250.6912,-407.02569 L 2250.6912,-615.24067 L 2214.4913,-615.24067 L 2214.4913,-407.02569 L 2214.5525,-407.00557 C 2214.5525,-383.24482 2233.9789,-363.99844 2257.915,-363.99844 L 2268.7912,-363.99844 L 2268.7912,-399.8407 L 2257.915,-399.8407"
       style="fill:white;fill-rule:nonzero;stroke:none"
       id="path20953" />
    <path
       d="M 1636.8422,-547.09724 C 1604.4582,-547.09724 1576.8081,-525.92778 1567.5643,-496.82466 L 1607.8863,-496.82466 C 1614.4979,-505.46676 1625.0681,-511.19352 1636.8422,-511.19352 C 1656.8196,-511.19352 1673.0422,-495.12395 1673.0422,-475.29092 C 1664.7371,-470.1698 1618.7423,-471.70848 1618.7423,-471.70848 C 1586.7458,-471.70848 1560.81,-449.56686 1560.81,-417.85346 C 1560.81,-386.11882 1586.7458,-360.416 1618.7423,-360.416 C 1618.7423,-360.416 1654.6158,-356.59108 1673.0422,-376.44534 L 1673.0422,-363.99844 L 1709.2219,-363.99844 L 1709.2219,-475.29092 C 1709.2219,-514.93798 1676.8174,-547.09724 1636.8422,-547.09724 z M 1673.0422,-417.85346 C 1665.4716,-389.19507 1618.7423,-396.2996 1618.7423,-396.2996 C 1608.7433,-396.2996 1597.01,-405.26464 1597.01,-417.85346 C 1597.01,-429.9562 1608.7433,-439.3872 1618.7423,-439.3872 C 1618.7423,-439.3872 1669.1039,-438.01054 1673.0422,-446.57219 L 1673.0422,-417.85346"
       style="fill:white;fill-rule:nonzero;stroke:none"
       id="path20955" />
    <path
       d="M 1418.0302,-196.22053 C 1378.0347,-196.22053 1345.6302,-164.08139 1345.6302,-124.41309 L 1345.6302,-81.345613 C 1345.6302,-41.678433 1378.0347,-9.5392897 1418.0302,-9.5392897 C 1449.1084,-9.5392897 1475.5951,-28.947703 1485.8798,-56.229435 L 1443.9253,-56.249548 C 1437.3547,-49.570748 1428.172,-45.441892 1418.0302,-45.441892 C 1398.0325,-45.441892 1381.8303,-61.511464 1381.8303,-81.345613 L 1381.8303,-84.928051 L 1490.4303,-84.928051 L 1490.4303,-124.41309 C 1490.4303,-164.08139 1458.0053,-196.22053 1418.0302,-196.22053 z M 1454.2302,-120.83177 L 1381.8303,-120.83177 L 1381.8303,-124.41309 C 1381.8303,-144.24724 1398.0325,-160.31681 1418.0302,-160.31681 C 1438.0077,-160.31681 1454.2302,-144.24724 1454.2302,-124.41309 L 1454.2302,-120.83177"
       style="fill:white;fill-rule:nonzero;stroke:none"
       id="path20957" />
    <path
       d="M 2623.445,-229.22903 L 2659.6452,-229.22903 L 2659.6452,-265.13275 L 2623.445,-265.13275 L 2623.445,-229.22903 z "
       style="fill:white;fill-rule:nonzero;stroke:none"
       id="path20959" />
    <path
       d="M 2623.445,-13.83017 L 2659.6452,-13.83017 L 2659.6452,-193.32642 L 2623.445,-193.32642 L 2623.445,-13.83017 z "
       style="fill:white;fill-rule:nonzero;stroke:none"
       id="path20961" />
    <path
       d="M 2171.1901,-399.8407 L 2171.1901,-399.8407 C 2167.1906,-399.8407 2163.9459,-403.05886 2163.9459,-407.02569 L 2163.9459,-615.24067 L 2127.746,-615.24067 L 2127.746,-407.02569 L 2127.8072,-407.00557 C 2127.8072,-383.24482 2147.2336,-363.99844 2171.1901,-363.99844 L 2182.0459,-363.99844 L 2182.0459,-399.8407 L 2171.1901,-399.8407"
       style="fill:white;fill-rule:nonzero;stroke:none"
       id="path20963" />
    <path
       d="M 1330.7953,-193.32642 L 1305.4715,-193.32642 L 1305.4715,-265.13275 L 1269.2716,-247.18144 L 1269.2716,-193.32642 L 1243.9275,-193.32642 L 1243.9275,-157.4227 L 1269.2716,-157.4227 L 1269.2716,-13.83017 L 1305.4715,-13.83017 L 1305.4715,-157.4227 L 1330.7953,-157.4227 L 1330.7953,-193.32642"
       style="fill:white;fill-rule:nonzero;stroke:none"
       id="path20965" />
    <path
       d="M 1158.9166,-897.2655 C 1126.5326,-897.2655 1098.8826,-876.09604 1089.6388,-846.99292 L 1129.9608,-846.99292 C 1136.5723,-855.63502 1147.1426,-861.3629 1158.9166,-861.3629 C 1178.9144,-861.3629 1195.1167,-845.29333 1195.1167,-825.45918 C 1186.8319,-820.33918 1140.8168,-821.87674 1140.8168,-821.87674 C 1108.8407,-821.87674 1082.9048,-799.73625 1082.9048,-768.02172 C 1082.9048,-736.2882 1108.8407,-710.58426 1140.8168,-710.58426 C 1140.8168,-710.58426 1176.7106,-706.75934 1195.1167,-726.61361 L 1195.1167,-714.1667 L 1231.3167,-714.1667 L 1231.3167,-825.45918 C 1231.3167,-865.10625 1198.9122,-897.2655 1158.9166,-897.2655 z M 1195.1167,-768.02172 C 1187.5666,-739.36445 1140.8168,-746.46787 1140.8168,-746.46787 C 1130.8382,-746.46787 1119.1049,-755.43402 1119.1049,-768.02172 C 1119.1049,-780.12446 1130.8382,-789.55546 1140.8168,-789.55546 C 1140.8168,-789.55546 1191.1783,-788.17992 1195.1167,-796.74045 L 1195.1167,-768.02172"
       style="fill:white;fill-rule:nonzero;stroke:none"
       id="path20967" />
    <path
       d="M 2762.1642,-196.92897 C 2749.5941,-196.92897 2737.0242,-192.17213 2725.9641,-184.32004 L 2725.9641,-193.32642 L 2689.764,-193.32642 L 2689.764,-13.83017 L 2725.9641,-13.83017 L 2725.9641,-125.12153 C 2725.9641,-144.95568 2742.1663,-161.02525 2762.1642,-161.02525 C 2782.1619,-161.02525 2798.364,-144.95568 2798.364,-125.12153 L 2798.364,-13.83017 L 2834.564,-13.83017 L 2834.564,-125.12153 C 2834.564,-164.76972 2802.1391,-196.92897 2762.1642,-196.92897"
       style="fill:white;fill-rule:nonzero;stroke:none"
       id="path20969" />
    <path
       d="M 1756.7063,-191.03907 C 1746.136,-197.00943 1733.5457,-196.92897 1720.5063,-196.92897 C 1707.9363,-196.92897 1695.3663,-192.17213 1684.3063,-184.32004 L 1684.3063,-193.32642 L 1648.1063,-193.32642 L 1648.1063,-13.83017 L 1684.3063,-13.83017 L 1684.3063,-125.12153 C 1684.3063,-144.95568 1700.5086,-161.02525 1720.5063,-161.02525 C 1740.504,-161.02525 1756.7063,-155.56109 1756.7063,-155.56109 L 1756.7063,-191.03907"
       style="fill:white;fill-rule:nonzero;stroke:none"
       id="path20971" />
    <path
       d="M 2367.0455,-548.7566 C 2327.0705,-548.7566 2294.6455,-516.61746 2294.6455,-476.97039 L 2294.6455,-433.8828 C 2294.6455,-394.23462 2327.0705,-362.07536 2367.0455,-362.07536 C 2398.1236,-362.07536 2424.6308,-381.505 2434.895,-408.76662 L 2392.9405,-408.80685 C 2386.3698,-402.12805 2377.2077,-397.97908 2367.0455,-397.97908 C 2347.0681,-397.97908 2330.8455,-414.04865 2330.8455,-433.8828 L 2330.8455,-437.46412 L 2439.4455,-437.46412 L 2439.4455,-476.97039 C 2439.4455,-516.61746 2407.0409,-548.7566 2367.0455,-548.7566 z M 2403.2455,-473.36784 L 2330.8455,-473.36784 L 2330.8455,-476.97039 C 2330.8455,-496.78443 2347.0681,-512.87411 2367.0455,-512.87411 C 2387.0432,-512.87411 2403.2455,-496.78443 2403.2455,-476.97039 L 2403.2455,-473.36784"
       style="fill:white;fill-rule:nonzero;stroke:none"
       id="path20973" />
    <path
       d="M 1940.2161,-229.22903 L 1976.4161,-229.22903 L 1976.4161,-265.13275 L 1940.2161,-265.13275 L 1940.2161,-229.22903 z "
       style="fill:white;fill-rule:nonzero;stroke:none"
       id="path20975" />
    <path
       d="M 1940.2161,-13.83017 L 1976.4161,-13.83017 L 1976.4161,-193.32642 L 1940.2161,-193.32642 L 1940.2161,-13.83017 z "
       style="fill:white;fill-rule:nonzero;stroke:none"
       id="path20977" />
    <path
       d="M 1790.2127,-399.8407 L 1790.2127,-399.8407 C 1786.2131,-399.8407 1782.9686,-403.05886 1782.9686,-407.02569 L 1782.9686,-615.24067 L 1746.7687,-615.24067 L 1746.7687,-407.02569 L 1746.8299,-407.00557 C 1746.8299,-383.24482 1766.2562,-363.99844 1790.2127,-363.99844 L 1801.0687,-363.99844 L 1801.0687,-399.8407 L 1790.2127,-399.8407"
       style="fill:white;fill-rule:nonzero;stroke:none"
       id="path20979" />
    <path
       d="M 1826.4127,-893.66295 L 1801.0687,-893.66295 L 1801.0687,-965.47039 L 1764.8686,-947.51797 L 1764.8686,-893.66295 L 1739.5449,-893.66295 L 1739.5449,-857.78046 L 1764.8686,-857.78046 L 1764.8686,-714.1667 L 1801.0687,-714.1667 L 1801.0687,-857.78046 L 1826.4127,-857.78046 L 1826.4127,-893.66295"
       style="fill:white;fill-rule:nonzero;stroke:none"
       id="path20981" />
    <path
       d="M 1885.1407,-1247.4349 C 1852.7567,-1247.4349 1825.127,-1226.2654 1815.8628,-1197.1612 L 1856.1848,-1197.1612 C 1862.7964,-1205.8033 1873.387,-1211.5312 1885.1407,-1211.5312 C 1905.1385,-1211.5312 1921.3408,-1195.4616 1921.3408,-1175.6274 C 1913.056,-1170.5074 1867.0407,-1172.0461 1867.0407,-1172.0461 C 1835.0647,-1172.0461 1809.1289,-1149.9045 1809.1289,-1118.19 C 1809.1289,-1086.4565 1835.0647,-1060.7536 1867.0407,-1060.7536 C 1867.0407,-1060.7536 1902.9347,-1056.9287 1921.3408,-1076.7819 L 1921.3408,-1064.3361 L 1957.5408,-1064.3361 L 1957.5408,-1175.6274 C 1957.5408,-1215.2756 1925.1363,-1247.4349 1885.1407,-1247.4349 z M 1921.3408,-1118.19 C 1913.7905,-1089.5327 1867.0407,-1096.6562 1867.0407,-1096.6562 C 1857.0622,-1096.6562 1845.3289,-1105.6023 1845.3289,-1118.19 C 1845.3289,-1130.2938 1857.0622,-1139.7248 1867.0407,-1139.7248 C 1867.0407,-1139.7248 1917.4025,-1138.3683 1921.3408,-1146.9087 L 1921.3408,-1118.19"
       style="fill:white;fill-rule:nonzero;stroke:none"
       id="path20983" />
    <path
       d="M 3023.1754,-897.2655 C 3010.6055,-897.2655 2998.0354,-892.50978 2986.9755,-884.65657 L 2986.9755,-893.66295 L 2950.7958,-893.66295 L 2950.7958,-714.1667 L 2986.9755,-714.1667 L 2986.9755,-825.45918 C 2986.9755,-845.29333 3003.1981,-861.3629 3023.1754,-861.3629 C 3043.1732,-861.3629 3059.3754,-845.29333 3059.3754,-825.45918 L 3059.3754,-714.1667 L 3095.5754,-714.1667 L 3095.5754,-825.45918 C 3095.5754,-865.10625 3063.171,-897.2655 3023.1754,-897.2655"
       style="fill:white;fill-rule:nonzero;stroke:none"
       id="path20985" />
    <path
       d="M 1629.1492,-191.03907 C 1618.579,-197.00943 1605.9886,-196.92897 1592.9493,-196.92897 C 1580.3792,-196.92897 1567.8093,-192.17213 1556.7493,-184.32004 L 1556.7493,-193.32642 L 1520.5492,-193.32642 L 1520.5492,-13.83017 L 1556.7493,-13.83017 L 1556.7493,-125.12153 C 1556.7493,-144.95568 1572.9515,-161.02525 1592.9493,-161.02525 C 1612.9471,-161.02525 1629.1492,-155.56109 1629.1492,-155.56109 L 1629.1492,-191.03907"
       style="fill:white;fill-rule:nonzero;stroke:none"
       id="path20987" />
    <path
       d="M 2109.8501,-138.25677 C 2104.2181,-150.84559 2091.4644,-159.81062 2076.7109,-159.81062 C 2056.7131,-159.81062 2040.511,-143.72094 2040.511,-123.90802 L 2040.511,-80.819309 C 2040.511,-60.985161 2056.7131,-44.916707 2076.7109,-44.916707 C 2091.6889,-44.916707 2104.5037,-53.861628 2109.9317,-66.450446 L 2147.601,-66.450446 C 2140.8466,-33.744773 2111.6866,-9.0129863 2076.7109,-9.0129863 C 2036.7155,-9.0129863 2004.3109,-41.172243 2004.3109,-80.819309 L 2004.3109,-123.90802 C 2004.3109,-163.55509 2036.7155,-195.69423 2076.7109,-195.69423 C 2111.6866,-195.69423 2140.9282,-170.98256 2147.6825,-138.25677 L 2109.8501,-138.25677"
       style="fill:white;fill-rule:nonzero;stroke:none"
       id="path20989" />
    <path
       d="M 2448.6893,-899.63331 C 2408.7141,-899.63331 2376.2893,-867.47517 2376.2893,-827.82699 L 2376.2893,-784.7394 C 2376.2893,-745.09121 2408.7141,-712.93195 2448.6893,-712.93195 C 2479.7674,-712.93195 2506.2746,-732.3616 2516.5388,-759.62322 L 2474.5844,-759.66344 C 2468.0137,-752.98464 2458.831,-748.83567 2448.6893,-748.83567 C 2428.6916,-748.83567 2412.4894,-764.90525 2412.4894,-784.7394 L 2412.4894,-788.34195 L 2521.0893,-788.34195 L 2521.0893,-827.82699 C 2521.0893,-867.47517 2488.6644,-899.63331 2448.6893,-899.63331 z M 2484.8893,-824.22444 L 2412.4894,-824.22444 L 2412.4894,-827.82699 C 2412.4894,-847.64102 2428.6916,-863.73071 2448.6893,-863.73071 C 2468.6871,-863.73071 2484.8893,-847.64102 2484.8893,-827.82699 L 2484.8893,-824.22444"
       style="fill:white;fill-rule:nonzero;stroke:none"
       id="path20991" />
    <path
       d="M 2239.6721,-196.92897 C 2227.0817,-196.92897 2214.5117,-192.17213 2203.4721,-184.32004 L 2203.4721,-265.13275 L 2167.2722,-265.13275 L 2167.2722,-13.83017 L 2203.4721,-13.83017 L 2203.4721,-125.12153 C 2203.4721,-144.95568 2219.6744,-161.02525 2239.6721,-161.02525 C 2259.6494,-161.02525 2275.8517,-144.95568 2275.8517,-125.12153 L 2275.8517,-13.83017 L 2312.0517,-13.83017 L 2312.0517,-125.12153 C 2312.0517,-164.76972 2279.6473,-196.92897 2239.6721,-196.92897"
       style="fill:white;fill-rule:nonzero;stroke:none"
       id="path20993" />
    <path
       d="M 2967.5286,-193.32642 L 2967.5286,-187.29461 C 2956.8768,-193.40688 2944.5312,-196.92897 2931.3287,-196.92897 C 2891.3536,-196.92897 2858.949,-164.76972 2858.949,-125.12153 L 2858.949,-85.636493 C 2858.949,-45.968196 2891.3536,-13.83017 2931.3287,-13.83017 C 2944.5312,-13.83017 2956.8768,-17.351151 2967.5286,-23.463421 L 2967.5286,-13.83017 C 2967.5286,6.0039785 2951.3265,25.655988 2931.3287,25.655988 C 2916.4324,25.655988 2903.5359,16.892088 2897.9855,4.1222485 L 2860.1939,4.1222485 C 2866.8258,37.010061 2896.2305,61.559709 2931.3287,61.559709 C 2971.3241,61.559709 3003.7286,25.818014 3003.7286,-13.83017 L 3003.7286,-193.32642 L 2967.5286,-193.32642 z M 2931.3287,-49.732773 C 2911.3513,-49.732773 2895.1286,-65.802345 2895.1286,-85.636493 L 2895.1286,-125.12153 C 2895.1286,-144.95568 2911.3513,-161.02525 2931.3287,-161.02525 C 2951.3265,-161.02525 2967.5286,-144.95568 2967.5286,-125.12153 L 2967.5286,-85.636493 C 2967.5286,-65.802345 2951.3265,-49.732773 2931.3287,-49.732773"
       style="fill:white;fill-rule:nonzero;stroke:none"
       id="path20995" />
    <path
       d="M 2717.312,-929.56667 L 2753.512,-929.56667 L 2753.512,-965.47039 L 2717.312,-965.47039 L 2717.312,-929.56667 z "
       style="fill:white;fill-rule:nonzero;stroke:none"
       id="path20997" />
    <path
       d="M 2717.312,-714.1667 L 2753.512,-714.1667 L 2753.512,-893.66295 L 2717.312,-893.66295 L 2717.312,-714.1667 z "
       style="fill:white;fill-rule:nonzero;stroke:none"
       id="path20999" />
    <path
       d="M 2035.1239,-1100.1783 L 2035.1239,-1100.1783 C 2031.1242,-1100.1783 2027.8797,-1103.3965 2027.8797,-1107.3633 L 2027.8797,-1315.5783 L 1991.6798,-1315.5783 L 1991.6798,-1107.3633 L 1991.741,-1107.3421 C 1991.741,-1083.5825 2011.1673,-1064.3361 2035.1239,-1064.3361 L 2045.9798,-1064.3361 L 2045.9798,-1100.1783 L 2035.1239,-1100.1783"
       style="fill:white;fill-rule:nonzero;stroke:none"
       id="path21001" />
    <path
       d="M 1782.1933,-1243.8323 L 1756.8491,-1243.8323 L 1756.8491,-1315.6387 L 1720.6492,-1297.6874 L 1720.6492,-1243.8323 L 1695.3255,-1243.8323 L 1695.3255,-1207.9487 L 1720.6492,-1207.9487 L 1720.6492,-1064.3361 L 1756.8491,-1064.3361 L 1756.8491,-1207.9487 L 1782.1933,-1207.9487 L 1782.1933,-1243.8323"
       style="fill:white;fill-rule:nonzero;stroke:none"
       id="path21003" />
    <path
       d="M 2039.2866,-598.20006 L 2075.4866,-598.20006 L 2075.4866,-562.29634 L 2039.2866,-562.29634 L 2039.2866,-598.20006 z "
       style="fill:white;fill-rule:nonzero;stroke:none"
       id="path21005" />
    <path
       d="M 1126.3081,-56.917763 C 1132.5524,-50.421102 1144.3265,-46.150335 1157.8147,-46.150335 C 1177.7921,-46.150335 1194.0149,-55.804816 1194.0149,-67.685192 C 1194.0149,-79.584564 1177.7921,-89.239045 1157.8147,-89.239045 C 1119.8191,-89.239045 1089.0265,-113.34284 1089.0265,-143.07395 C 1089.0265,-172.82406 1119.8191,-196.92897 1157.8147,-196.92897 C 1192.5456,-196.92897 1221.2769,-176.46684 1225.9295,-150.25783 L 1187.6482,-150.29917 C 1182.6079,-156.61369 1171.1398,-161.04537 1157.8147,-161.04537 C 1139.8168,-161.04537 1125.2267,-152.98991 1125.2267,-143.09407 C 1125.2267,-133.17699 1139.8168,-125.14165 1157.8147,-125.14165 C 1197.7899,-125.14165 1230.1943,-99.418713 1230.1943,-67.685192 C 1230.1943,-35.970667 1197.7899,-10.247732 1157.8147,-10.247732 C 1122.2882,-10.247732 1092.5568,-30.142221 1086.4147,-56.917763 L 1126.3081,-56.917763"
       style="fill:white;fill-rule:nonzero;stroke:none"
       id="path21007" />
    <path
       d="M 1585.8072,-1247.4349 C 1553.4231,-1247.4349 1525.7731,-1226.2654 1516.5294,-1197.1612 L 1556.8512,-1197.1612 C 1563.4629,-1205.8033 1574.0331,-1211.5312 1585.8072,-1211.5312 C 1605.805,-1211.5312 1622.0072,-1195.4616 1622.0072,-1175.6274 C 1613.7224,-1170.5074 1567.7071,-1172.0461 1567.7071,-1172.0461 C 1535.7312,-1172.0461 1509.7953,-1149.9045 1509.7953,-1118.19 C 1509.7953,-1086.4565 1535.7312,-1060.7536 1567.7071,-1060.7536 C 1567.7071,-1060.7536 1603.6012,-1056.9287 1622.0072,-1076.7819 L 1622.0072,-1064.3361 L 1658.2072,-1064.3361 L 1658.2072,-1175.6274 C 1658.2072,-1215.2756 1625.8027,-1247.4349 1585.8072,-1247.4349 z M 1622.0072,-1118.19 C 1614.4571,-1089.5327 1567.7071,-1096.6562 1567.7071,-1096.6562 C 1557.7084,-1096.6562 1545.9954,-1105.6023 1545.9954,-1118.19 C 1545.9954,-1130.2938 1557.7084,-1139.7248 1567.7071,-1139.7248 C 1567.7071,-1139.7248 1618.0689,-1138.3683 1622.0072,-1146.9087 L 1622.0072,-1118.19"
       style="fill:white;fill-rule:nonzero;stroke:none"
       id="path21009" />
    <path
       d="M 1069.2533,-1315.6387 L 1005.9135,-1156.9677 L 942.57378,-1315.6387 L 906.37378,-1315.6387 L 906.37378,-1064.3361 L 942.57378,-1064.3361 L 942.57378,-1218.1899 L 989.62969,-1100.2387 L 1022.1974,-1100.2387 L 1069.2533,-1218.0681 L 1069.2533,-1064.3361 L 1105.4533,-1064.3361 L 1105.4533,-1315.6387 L 1069.2533,-1315.6387"
       style="fill:white;fill-rule:nonzero;stroke:none"
       id="path21011" />
    <path
       d="M 906.65947,-185.41288 C 906.65947,-231.01019 943.94097,-267.98663 989.91538,-267.98663 C 1035.8897,-267.98663 1073.1712,-231.01019 1073.1712,-185.41288 L 1073.1712,-92.071697 C 1073.1712,-46.474386 1035.8897,-9.4990627 989.91538,-9.4990627 C 943.94097,-9.4990627 906.65947,-46.474386 906.65947,-92.071697 L 906.65947,-185.41288 z M 942.85945,-92.071697 C 942.85945,-66.288421 963.9183,-45.401665 989.91538,-45.401665 C 1015.9124,-45.401665 1036.9714,-66.288421 1036.9714,-92.071697 L 1036.9714,-185.41288 C 1036.9714,-211.17716 1015.9124,-232.08291 989.91538,-232.08291 C 963.9183,-232.08291 942.85945,-211.17716 942.85945,-185.41288 L 942.85945,-92.071697"
       style="fill:white;fill-rule:nonzero;stroke:none"
       id="path21013" />
    <path
       d="M 987.5891,-965.47039 L 906.37378,-965.47039 L 906.37378,-714.1667 L 987.5891,-714.1667 C 1032.5636,-714.1667 1069.0289,-750.33301 1069.0289,-794.93918 L 1069.0289,-884.69792 C 1069.0289,-929.30296 1032.5636,-965.47039 987.5891,-965.47039 z M 1032.8288,-794.93918 C 1032.8288,-770.16716 1012.566,-750.07042 987.5891,-750.07042 L 942.57378,-750.07042 L 942.57378,-929.56667 L 987.5891,-929.56667 C 1012.566,-929.56667 1032.8288,-909.49004 1032.8288,-884.69792 L 1032.8288,-794.93918"
       style="fill:white;fill-rule:nonzero;stroke:none"
       id="path21015" />
    <path
       d="M 1033.0534,-615.18033 L 1033.0534,-441.06667 C 1033.0534,-416.27455 1012.7903,-396.17781 987.81356,-396.17781 C 962.81639,-396.17781 942.57378,-416.27455 942.57378,-441.06667 L 942.57378,-615.18033 L 906.37378,-615.18033 L 906.37378,-441.06667 C 906.37378,-396.4404 942.83905,-360.2942 987.81356,-360.2942 C 1032.7881,-360.2942 1069.2533,-396.4404 1069.2533,-441.06667 L 1069.2533,-615.18033 L 1033.0534,-615.18033"
       style="fill:white;fill-rule:nonzero;stroke:none"
       id="path21017" />
    <path
       d="M 2599.1009,-13.83017 L 2543.1072,-109.07319 C 2573.4915,-120.81054 2595.0197,-150.07569 2595.0197,-184.36027 C 2595.0197,-228.96643 2558.5545,-265.13275 2513.58,-265.13275 C 2497.0308,-265.13275 2432.5891,-265.13275 2432.5891,-265.13275 L 2432.5891,-13.83017 L 2468.7891,-13.83017 L 2468.7891,-104.17444 C 2468.7891,-104.17444 2488.3174,-103.76993 2504.4177,-103.62802 L 2557.2077,-13.83017 L 2599.1009,-13.83017 z M 2468.7891,-229.22903 C 2468.7891,-229.22903 2498.0103,-229.22903 2513.58,-229.22903 C 2538.5771,-229.22903 2558.8197,-209.1524 2558.8197,-184.36027 C 2558.8197,-159.56814 2538.5771,-139.49151 2513.58,-139.49151 C 2490.7458,-139.49151 2468.7891,-139.49151 2468.7891,-139.49151 L 2468.7891,-229.22903"
       style="fill:white;fill-rule:nonzero;stroke:none"
       id="path21019" />
    <path
       d="M 2922.4725,-827.60462 L 2922.4725,-827.60462 C 2922.4725,-867.25169 2890.0476,-899.41095 2850.0725,-899.41095 C 2810.0771,-899.41095 2777.6725,-867.25169 2777.6725,-827.60462 L 2777.6725,-784.51591 C 2777.6725,-744.86885 2810.0771,-712.7297 2850.0725,-712.7297 C 2890.0476,-712.7297 2922.4725,-744.86885 2922.4725,-784.51591 L 2922.4725,-827.60462 z M 2850.0725,-748.63342 C 2830.0747,-748.63342 2813.8726,-764.70299 2813.8726,-784.51591 L 2813.8726,-827.60462 C 2813.8726,-847.43877 2830.0747,-863.50834 2850.0725,-863.50834 C 2870.0498,-863.50834 2886.2725,-847.43877 2886.2725,-827.60462 L 2886.2725,-784.51591 C 2886.2725,-764.70299 2870.0498,-748.63342 2850.0725,-748.63342"
       style="fill:white;fill-rule:nonzero;stroke:none"
       id="path21021" />
    <path
       d="M 1534.2824,-475.29092 L 1534.2824,-475.29092 C 1534.2824,-514.93798 1501.8575,-547.09724 1461.8824,-547.09724 C 1448.7003,-547.09724 1436.3344,-543.57514 1425.6824,-537.46399 L 1425.6824,-615.30101 L 1389.4825,-615.30101 L 1389.4825,-363.99844 L 1425.6824,-363.99844 L 1425.6824,-370.02913 C 1436.3344,-363.91798 1448.7003,-360.416 1461.8824,-360.416 C 1501.8575,-360.416 1534.2824,-392.55514 1534.2824,-432.20221 L 1534.2824,-475.29092 z M 1498.0825,-432.20221 C 1498.0825,-412.38929 1481.8801,-396.2996 1461.8824,-396.2996 C 1441.8847,-396.2996 1425.6824,-412.38929 1425.6824,-432.20221 L 1425.6824,-475.29092 C 1425.6824,-495.12395 1441.8847,-511.19352 1461.8824,-511.19352 C 1481.8801,-511.19352 1498.0825,-495.12395 1498.0825,-475.29092 L 1498.0825,-432.20221"
       style="fill:white;fill-rule:nonzero;stroke:none"
       id="path21023" />
    <path
       d="M 2159.5792,-896.90123 C 2147.0092,-896.90123 2134.4391,-892.1455 2123.3791,-884.29341 L 2123.3791,-893.31879 L 2087.1995,-893.31879 L 2087.1995,-713.80242 L 2123.3791,-713.80242 L 2123.3791,-825.0949 C 2123.3791,-844.92905 2139.6018,-860.99862 2159.5792,-860.99862 C 2179.5769,-860.99862 2195.7791,-844.92905 2195.7791,-825.0949 L 2195.7791,-713.80242 L 2231.9791,-713.80242 L 2231.9791,-825.0949 C 2231.9791,-864.7632 2199.5745,-896.90123 2159.5792,-896.90123"
       style="fill:white;fill-rule:nonzero;stroke:none"
       id="path21025" />
    <path
       d="M 2363.7601,-891.37672 C 2353.2102,-897.34708 2340.6199,-897.2655 2327.5806,-897.2655 C 2314.9902,-897.2655 2302.4202,-892.50978 2291.3806,-884.65657 L 2291.3806,-893.66295 L 2255.1805,-893.66295 L 2255.1805,-714.1667 L 2291.3806,-714.1667 L 2291.3806,-825.45918 C 2291.3806,-845.29333 2307.5828,-861.3629 2327.5806,-861.3629 C 2347.5579,-861.3629 2363.7601,-855.89762 2363.7601,-855.89762 L 2363.7601,-891.37672"
       style="fill:white;fill-rule:nonzero;stroke:none"
       id="path21027" />
    <path
       d="M 1284.2698,-547.09724 C 1262.6396,-547.09724 1243.2336,-537.66624 1229.9699,-522.74984 C 1216.706,-537.66624 1197.3002,-547.09724 1175.6699,-547.09724 C 1163.0999,-547.09724 1150.5299,-542.34151 1139.47,-534.48831 L 1139.47,-543.49469 L 1103.2698,-543.49469 L 1103.2698,-363.99844 L 1139.47,-363.99844 L 1139.47,-475.29092 C 1139.47,-495.12395 1155.6925,-511.19352 1175.6699,-511.19352 C 1195.6677,-511.19352 1211.8698,-495.12395 1211.8698,-475.29092 L 1211.8698,-363.99844 L 1248.07,-363.99844 L 1248.07,-475.29092 C 1248.07,-495.12395 1264.2721,-511.19352 1284.2698,-511.19352 C 1304.2677,-511.19352 1320.4698,-495.12395 1320.4698,-475.29092 L 1320.4698,-363.99844 L 1356.67,-363.99844 L 1356.67,-475.29092 C 1356.67,-514.93798 1324.2449,-547.09724 1284.2698,-547.09724"
       style="fill:white;fill-rule:nonzero;stroke:none"
       id="path21029" />
    <path
       d="M 1360.3021,-838.59442 C 1354.67,-851.162 1341.9164,-860.12816 1327.1427,-860.12816 C 1307.1652,-860.12816 1290.9425,-844.05858 1290.9425,-824.22444 L 1290.9425,-781.15696 C 1290.9425,-761.32281 1307.1652,-745.25324 1327.1427,-745.25324 C 1342.1409,-745.25324 1354.9352,-754.19928 1360.3633,-766.78698 L 1398.0528,-766.78698 C 1391.2986,-734.06119 1362.1386,-709.35063 1327.1427,-709.35063 C 1287.1675,-709.35063 1254.7426,-741.48866 1254.7426,-781.15696 L 1254.7426,-824.22444 C 1254.7426,-863.89273 1287.1675,-896.03076 1327.1427,-896.03076 C 1362.1386,-896.03076 1391.3802,-871.3202 1398.1141,-838.59442 L 1360.3021,-838.59442"
       style="fill:white;fill-rule:nonzero;stroke:none"
       id="path21031" />
    <path
       d="M 1918.0555,-899.63331 C 1878.0599,-899.63331 1845.6553,-867.47517 1845.6553,-827.82699 L 1845.6553,-784.7394 C 1845.6553,-745.09121 1878.0599,-712.93195 1918.0555,-712.93195 C 1949.1335,-712.93195 1975.6203,-732.3616 1985.8845,-759.62322 L 1943.9505,-759.66344 C 1937.3798,-752.98464 1928.1972,-748.83567 1918.0555,-748.83567 C 1898.0576,-748.83567 1881.8554,-764.90525 1881.8554,-784.7394 L 1881.8554,-788.34195 L 1990.435,-788.34195 L 1990.435,-827.82699 C 1990.435,-867.47517 1958.0305,-899.63331 1918.0555,-899.63331 z M 1954.2553,-824.22444 L 1881.8554,-824.22444 L 1881.8554,-827.82699 C 1881.8554,-847.64102 1898.0576,-863.73071 1918.0555,-863.73071 C 1938.0327,-863.73071 1954.2553,-847.64102 1954.2553,-827.82699 L 1954.2553,-824.22444"
       style="fill:white;fill-rule:nonzero;stroke:none"
       id="path21033" />
    <path
       d="M 1492.4912,-897.2655 C 1479.9212,-897.2655 1467.3512,-892.50978 1456.2913,-884.65657 L 1456.2913,-965.47039 L 1420.1116,-965.47039 L 1420.1116,-714.1667 L 1456.2913,-714.1667 L 1456.2913,-825.45918 C 1456.2913,-845.29333 1472.5139,-861.3629 1492.4912,-861.3629 C 1512.489,-861.3629 1528.6912,-845.29333 1528.6912,-825.45918 L 1528.6912,-714.1667 L 1564.8912,-714.1667 L 1564.8912,-825.45918 C 1564.8912,-865.10625 1532.4867,-897.2655 1492.4912,-897.2655"
       style="fill:white;fill-rule:nonzero;stroke:none"
       id="path21035" />
    <path
       d="M 2648.1566,-893.13777 L 2648.1566,-887.10595 C 2637.5048,-893.21822 2625.1592,-896.71909 2611.9566,-896.71909 C 2571.9814,-896.71909 2539.5566,-864.57995 2539.5566,-824.93288 L 2539.5566,-785.42772 C 2539.5566,-745.77954 2571.9814,-713.6404 2611.9566,-713.6404 C 2625.1592,-713.6404 2637.5048,-717.14238 2648.1566,-723.25353 L 2648.1566,-713.6404 C 2648.1566,-693.80737 2631.9544,-674.13524 2611.9566,-674.13524 C 2597.0602,-674.13524 2584.1638,-682.91814 2578.6134,-695.6891 L 2540.8218,-695.6891 C 2547.4536,-662.80128 2576.8584,-638.25164 2611.9566,-638.25164 C 2651.9317,-638.25164 2684.3565,-673.97322 2684.3565,-713.6404 L 2684.3565,-893.13777 L 2648.1566,-893.13777 z M 2611.9566,-749.54412 C 2591.9793,-749.54412 2575.7566,-765.61369 2575.7566,-785.42772 L 2575.7566,-824.93288 C 2575.7566,-844.74691 2591.9793,-860.8366 2611.9566,-860.8366 C 2631.9544,-860.8366 2648.1566,-844.74691 2648.1566,-824.93288 L 2648.1566,-785.42772 C 2648.1566,-765.61369 2631.9544,-749.54412 2611.9566,-749.54412"
       style="fill:white;fill-rule:nonzero;stroke:none"
       id="path21037" />
    <path
       d="M 2018.289,-929.56667 L 2054.489,-929.56667 L 2054.489,-965.47039 L 2018.289,-965.47039 L 2018.289,-929.56667 z "
       style="fill:white;fill-rule:nonzero;stroke:none"
       id="path21039" />
    <path
       d="M 2018.289,-714.1667 L 2054.489,-714.1667 L 2054.489,-893.66295 L 2018.289,-893.66295 L 2018.289,-714.1667 z "
       style="fill:white;fill-rule:nonzero;stroke:none"
       id="path21041" />
    <path
       d="M 1363.3222,-1100.1783 L 1363.3222,-1100.1783 C 1359.3225,-1100.1783 1356.0781,-1103.3965 1356.0781,-1107.3633 L 1356.0781,-1315.5783 L 1319.8781,-1315.5783 L 1319.8781,-1107.3633 L 1319.9392,-1107.3421 C 1319.9597,-1083.5825 1339.3657,-1064.3361 1363.3222,-1064.3361 L 1374.1781,-1064.3361 L 1374.1781,-1100.1783 L 1363.3222,-1100.1783"
       style="fill:white;fill-rule:nonzero;stroke:none"
       id="path21043" />
    <path
       d="M 1918.9125,-579.39841 L 1918.9125,-615.30101 C 1878.9169,-615.30101 1846.5124,-583.16299 1846.5124,-543.49469 L 1828.4124,-543.49469 L 1828.4124,-507.61108 L 1846.5124,-507.61108 L 1846.5124,-363.99844 L 1882.7124,-363.99844 L 1882.7124,-507.61108 L 1918.9125,-507.61108 L 1918.9125,-543.49469 L 1882.7124,-543.49469 C 1882.7124,-563.32884 1898.9147,-579.39841 1918.9125,-579.39841"
       style="fill:white;fill-rule:nonzero;stroke:none"
       id="path21045" />
    <path
       d="M 1491.3689,-1243.8323 L 1466.0248,-1243.8323 L 1466.0248,-1315.6387 L 1429.8249,-1297.6874 L 1429.8249,-1243.8323 L 1404.4808,-1243.8323 L 1404.4808,-1207.9487 L 1429.8249,-1207.9487 L 1429.8249,-1064.3361 L 1466.0248,-1064.3361 L 1466.0248,-1207.9487 L 1491.3689,-1207.9487 L 1491.3689,-1243.8323"
       style="fill:white;fill-rule:nonzero;stroke:none"
       id="path21047" />
    <path
       d="M 2330.5395,-158.77925 L 2403.2863,-158.77925 L 2403.2863,-122.87553 L 2330.5395,-122.87553 L 2330.5395,-158.77925 z "
       style="fill:white;fill-rule:nonzero;stroke:none"
       id="path21049" />
    <path
       d="M 1972.9472,-598.20006 L 2009.1472,-598.20006 L 2009.1472,-562.29634 L 1972.9472,-562.29634 L 1972.9472,-598.20006 z "
       style="fill:white;fill-rule:nonzero;stroke:none"
       id="path21051" />
    <path
       d="M 1619.1912,-756.76933 C 1625.4354,-750.25256 1637.2096,-745.98179 1650.6979,-745.98179 C 1670.6752,-745.98179 1686.8774,-755.63627 1686.8774,-767.53565 C 1686.8774,-779.41602 1670.6752,-789.0705 1650.6979,-789.0705 C 1612.7021,-789.0705 1581.9098,-813.1743 1581.9098,-842.92552 C 1581.9098,-872.65552 1612.7021,-896.78055 1650.6979,-896.78055 C 1685.4286,-896.78055 1714.1601,-876.2983 1718.7921,-850.1094 L 1680.5312,-850.15074 C 1675.4705,-856.46415 1664.0229,-860.87683 1650.6979,-860.87683 C 1632.6999,-860.87683 1618.1097,-852.8426 1618.1097,-842.92552 C 1618.1097,-833.00845 1632.6999,-824.97311 1650.6979,-824.97311 C 1690.6729,-824.97311 1723.0775,-799.25017 1723.0775,-767.53565 C 1723.0775,-735.80212 1690.6729,-710.07919 1650.6979,-710.07919 C 1615.1712,-710.07919 1585.4399,-729.99379 1579.2978,-756.76933 L 1619.1912,-756.76933"
       style="fill:white;fill-rule:nonzero;stroke:none"
       id="path21053" />
    <path
       d="M 1211.6454,-1247.4349 C 1179.2612,-1247.4349 1151.6114,-1226.2654 1142.3676,-1197.1612 L 1182.6896,-1197.1612 C 1189.301,-1205.8033 1199.8712,-1211.5312 1211.6454,-1211.5312 C 1231.6432,-1211.5312 1247.8453,-1195.4616 1247.8453,-1175.6274 C 1239.5402,-1170.5074 1193.5455,-1172.0461 1193.5455,-1172.0461 C 1161.5695,-1172.0461 1135.6336,-1149.9045 1135.6336,-1118.19 C 1135.6336,-1086.4565 1161.5695,-1060.7536 1193.5455,-1060.7536 C 1193.5455,-1060.7536 1229.4394,-1056.9287 1247.8453,-1076.7819 L 1247.8453,-1064.3361 L 1284.0455,-1064.3361 L 1284.0455,-1175.6274 C 1284.0455,-1215.2756 1251.6204,-1247.4349 1211.6454,-1247.4349 z M 1247.8453,-1118.19 C 1240.2952,-1089.5327 1193.5455,-1096.6562 1193.5455,-1096.6562 C 1183.5466,-1096.6562 1171.8336,-1105.6023 1171.8336,-1118.19 C 1171.8336,-1130.2938 1183.5466,-1139.7248 1193.5455,-1139.7248 C 1193.5455,-1139.7248 1243.9071,-1138.3683 1247.8453,-1146.9087 L 1247.8453,-1118.19"
       style="fill:white;fill-rule:nonzero;stroke:none"
       id="path21055" />
  </g>
</svg>
