<?xml version="1.0" encoding="UTF-8" standalone="no"?>
<!-- Created with Inkscape (http://www.inkscape.org/) -->
<svg
   xmlns:svg="http://www.w3.org/2000/svg"
   xmlns="http://www.w3.org/2000/svg"
   version="1.0"
   width="960"
   height="1200"
   id="svg2682">
  <defs
     id="defs2684" />
  <g
     transform="translate(-533.2733,686.41)"
     id="layer1">
    <path
       d="M 569.90841,513.59004 C 549.68216,513.59004 533.27329,498.49647 533.27329,479.86428 L 533.27329,-652.6842 C 533.27329,-671.31639 549.68216,-686.40996 569.90841,-686.40996 L 1456.6382,-686.40996 C 1476.8644,-686.40996 1493.2733,-671.31639 1493.2733,-652.6842 L 1493.2733,479.86428 C 1493.2733,498.49647 1476.8644,513.59004 1456.6382,513.59004 L 569.90841,513.59004 z "
       style="fill:#176fc1;fill-rule:nonzero;stroke:none"
       id="path2694" />
    <path
       d="M 675.43414,224.63461 L 1351.1272,224.63461 L 1351.1272,-397.46814 L 675.43414,-397.46814 L 675.43414,224.63461 z "
       style="fill:white;fill-rule:nonzero;stroke:none"
       id="path83" />
    <path
       d="M 1057.5728,-258.0874 L 1057.5728,-243.41574 L 1191.433,-243.41574 L 1191.433,-215.09319 L 1057.5728,-215.09319 L 1057.5728,-143.77641 C 1057.5728,-143.77641 1059.4223,-98.305162 1071.4219,-26.062903 C 1083.4216,46.165746 1086.1884,81.864963 1077.8878,119.25183 C 1069.5872,156.65231 1040.9716,200.00038 1013.2733,200.00038 C 985.57501,200.00038 956.95937,156.65231 948.65876,119.25183 C 940.34336,81.864963 943.12502,46.165746 955.12465,-26.062903 C 967.12428,-98.305162 968.959,-143.77641 968.959,-143.77641 L 968.959,-215.09319 L 835.11355,-215.09319 L 835.11355,-243.41574 L 968.959,-243.41574 L 968.959,-258.0874 L 835.11355,-258.0874 L 835.11355,-306.52565 C 835.11355,-306.52565 915.42674,-309.92816 929.27588,-345.61377 L 1191.433,-345.61377 L 1191.433,-258.0874 L 1057.5728,-258.0874 z M 973.57538,86.111306 C 973.57538,86.111306 976.40143,139.59889 996.03584,156.65231 C 1006.8074,166.00243 1013.6876,164.98167 1016.9575,160.05482 C 1020.3458,154.95105 1019.1177,143.05584 1009.2783,135.12117 C 999.42415,127.1865 982.2015,104.23992 973.57538,86.111306"
       style="fill:black;fill-rule:nonzero;stroke:none"
       id="path85" />
  </g>
</svg>
