<?xml version="1.0" encoding="utf-8"?>
<!-- Generator: Adobe Illustrator 15.0.2, SVG Export Plug-In . SVG Version: 6.00 Build 0)  -->
<!DOCTYPE svg PUBLIC "-//W3C//DTD SVG 1.1//EN" "http://www.w3.org/Graphics/SVG/1.1/DTD/svg11.dtd">
<svg version="1.1" id="Vrstva_1" xmlns="http://www.w3.org/2000/svg" xmlns:xlink="http://www.w3.org/1999/xlink" x="0px" y="0px"
	 width="1500px" height="1510px" viewBox="0 0 1500 1510" enable-background="new 0 0 1500 1510" xml:space="preserve">
<g>
	<path fill-rule="evenodd" clip-rule="evenodd" fill="#009FE3" d="M4.151,1459.828L3.997,52.149
		c0-10.722,3.716-21.593,10.396-29.978c7.928-9.935,20.025-15.514,32.306-17.85L1451.019,4c1.862,0,3.566,0.154,5.429,0.321
		l10.401,2.336c5.288,1.243,9.944,4.335,14.143,7.744c9.927,7.924,15.672,19.889,18.009,32.314l-0.158,1413.113
		c0,12.72-8.073,24.377-17.851,32.134c-7.001,5.438-15.848,8.688-24.702,10.261L51.97,1502.381c-10.713,0-21.58-3.584-29.811-10.419
		C12.066,1484.205,6.47,1472.24,4.151,1459.828"/>
	<polygon fill-rule="evenodd" clip-rule="evenodd" fill="#FFFFFF" points="1460.128,1464.36 1460.277,49.693 48.975,49.693 
		48.812,1464.36 	"/>
	<rect x="610.377" y="615.26" fill-rule="evenodd" clip-rule="evenodd" fill="#009FE3" width="793.397" height="409.12"/>
	<rect x="610.377" y="1219.541" fill-rule="evenodd" clip-rule="evenodd" fill="#009640" width="793.397" height="157.28"/>
	
		<rect x="630.02" y="762.293" transform="matrix(-1 1.527389e-004 -1.527389e-004 -1 1432.8889 1639.627)" fill-rule="evenodd" clip-rule="evenodd" fill="#FFFFFF" width="172.725" height="115.149"/>
	<path fill-rule="evenodd" clip-rule="evenodd" fill="#009FE3" d="M207.753,137.883v115.971h19.792V118.091h-22.506l-34.691,24.848
		l10.854,13.761L207.753,137.883z M128.502,103.592h164.783v164.761H128.502V103.592z"/>
	<polygon fill-rule="evenodd" clip-rule="evenodd" fill="#009640" points="635.211,872.273 635.203,767.489 797.544,767.463 
		797.57,872.247 	"/>
	<path fill-rule="evenodd" clip-rule="evenodd" fill="#FFFFFF" d="M770.224,895.834v104.783H665.426V895.834H770.224z
		 M775.406,890.65H660.248v115.159h115.158V890.65z"/>
	<path fill-rule="evenodd" clip-rule="evenodd" fill="#FFFFFF" d="M671.255,744.781V640.006h92.011v104.775H671.255z
		 M666.076,749.973h102.354v-115.15H666.076V749.973z"/>
	<polygon fill-rule="evenodd" clip-rule="evenodd" fill="#FFFFFF" points="673.847,679.362 673.847,683.657 678.151,683.657 
		678.151,698.626 687.999,698.626 687.999,683.859 745.485,683.859 745.485,698.802 755.355,698.802 755.355,684.114 
		759.664,684.114 759.664,679.362 	"/>
	<polygon fill-rule="evenodd" clip-rule="evenodd" fill="#FFFFFF" points="721.64,735.724 743.737,735.724 734.263,685.037 
		720.48,685.037 	"/>
	<polygon fill-rule="evenodd" clip-rule="evenodd" fill="#FFFFFF" points="691.337,735.724 713.777,735.724 714.616,684.949 
		701.215,684.949 	"/>
	<polygon fill-rule="evenodd" clip-rule="evenodd" fill="#FFFFFF" points="701.698,676.788 713.795,676.788 714.788,646.779 
		707.553,646.779 	"/>
	<polygon fill-rule="evenodd" clip-rule="evenodd" fill="#FFFFFF" points="719.843,676.788 731.913,676.788 726.186,646.735 
		719.184,646.735 	"/>
	<path fill-rule="evenodd" clip-rule="evenodd" d="M1269.913,269.398h22.56v-56.626l29.938,56.626h26.011l-37.537-66.531
		l34.577-53.2h-24.896l-28.093,46.73v-88.18h-22.56V269.398z M1223.425,252.378c-2.319,0-4.612-0.47-6.712-1.405
		c-2.063-0.672-4.128-2.517-5.745-5.513c-1.845-3.004-3.215-7.142-4.392-12.9c-1.125-5.512-1.582-13.111-1.582-22.567
		c0-9.422,0.457-17.262,1.371-23.021c0.931-5.767,2.31-10.12,3.918-13.125c1.625-2.996,3.461-4.84,5.763-5.741
		c2.302-0.927,4.849-1.392,7.59-1.392c2.995,0,6,0.215,8.749,0.936c2.521,0.672,5.991,2.06,10.366,4.138l6.905-17.526
		c-3.453-1.823-7.608-3.452-12.211-4.81c-4.823-1.383-9.892-2.073-15.18-2.073c-13.591,0-23.701,4.823-30.413,14.728
		c-6.676,9.896-10.138,26.016-10.138,47.886c0,12.917,1.178,23.253,3.242,31.313c2.073,8.077,4.822,14.525,8.529,18.882
		c3.444,4.388,7.818,7.375,12.668,8.987c4.813,1.836,10.138,2.517,15.865,2.517c5.288,0,10.365-0.681,14.969-2.078
		c4.63-1.366,8.768-2.978,12.668-5.038l-6.905-17.056c-4.375,1.862-7.845,2.996-10.366,3.707
		C1229.636,251.908,1226.631,252.378,1223.425,252.378z M1102.056,149.667h-22.576v81.987c0,13.335,2.529,23.24,7.388,29.925
		c4.849,6.667,12.667,10.111,23.71,10.111c5.288,0,10.356-1.393,14.749-4.129c4.384-2.53,8.056-6.448,11.06-11.732l3.883,13.568
		h15.672V149.667h-22.559v78.307c0,9.193-1.862,15.663-5.314,19.546c-3.426,3.922-7.81,6-13.125,6c-4.365,0-7.599-1.612-9.663-5.064
		c-2.082-3.228-3.224-9.21-3.224-17.956V149.667z M1043.567,169.007c1.599,0,3.672,0.255,5.736,0.47
		c2.117,0.465,4.647,1.375,7.388,2.525l4.85-21.878c-2.319-0.672-4.393-1.375-6.448-2.056c-2.082-0.461-4.612-0.69-7.599-0.69
		c-6.686,0-11.754,2.073-15.452,5.978c-3.9,4.155-6.888,9.22-8.961,14.965l-3.698-18.654h-15.663v119.731h22.577v-67.686
		c0-9.452,1.388-17.262,3.927-23.473C1032.753,172.002,1037.356,169.007,1043.567,169.007z M898.954,269.398h15.654l2.064-7.818
		c2.328,2.996,5.314,5.525,8.775,7.375c3.461,1.801,7.599,2.737,12.879,2.737c12.913,0,22.805-5.271,29.464-15.861
		c6.711-10.603,10.137-27.641,10.137-51.118c0-11.741-0.667-21.193-2.283-28.572c-1.617-7.348-3.927-13.098-6.914-17.486
		c-2.995-4.393-6.211-7.375-10.138-8.987c-3.927-1.599-8.274-2.289-13.133-2.289c-5.982,0-10.805,1.155-14.723,3.681
		c-3.927,2.53-6.905,5.75-9.216,9.672v-52.515h-22.567V269.398z M938.573,166.02c3.004,0,5.745,0.694,7.818,2.086
		c2.072,1.371,3.672,3.681,5.068,6.883c1.15,3.25,2.064,7.388,2.776,12.663c0.43,5.319,0.676,11.75,0.676,19.353
		c0,8.986-0.457,16.59-1.142,22.335c-0.703,5.982-1.845,10.585-3.452,14.042c-1.626,3.457-3.927,6-6.668,7.379
		c-2.776,1.616-6,2.289-9.927,2.289c-4.129,0-8.275-1.353-12.202-3.901v-60.562c0-2.525,0.22-5.288,0.94-8.06
		c0.685-2.526,1.59-5.069,2.986-7.129c1.362-2.082,3.207-3.922,5.289-5.293C932.81,166.714,935.586,166.02,938.573,166.02z
		 M828.765,166.714c2.986,0,5.754,0.215,8.064,0.685c2.292,0.466,4.137,1.393,5.745,2.767c1.599,1.371,2.749,3.444,3.461,5.974
		c0.685,2.771,1.142,6.461,1.142,10.832v8.996h-12.193c-14.986,0-25.791,2.978-32.714,8.745c-7.142,6-10.576,15.65-10.576,29.244
		c0,7.133,0.904,13.094,2.529,17.952c1.616,4.854,3.672,8.53,6.686,11.517c2.986,2.996,6.413,5.288,10.34,6.404
		c3.918,1.182,8.31,1.863,12.913,1.863c7.124,0,12.668-1.617,16.805-4.586c3.927-2.996,7.125-6.918,9.198-11.275l3.9,13.568h15.417
		v-83.806c0-13.128-2.75-22.8-8.513-28.998c-5.763-6.22-15.646-9.215-29.903-9.215c-6.008,0-11.973,0.69-18.21,2.073
		c-6.211,1.357-11.728,2.987-16.085,4.81l5.728,17.526c5.288-1.845,10.138-3.237,14.749-3.922
		C821.631,167.18,825.522,166.714,828.765,166.714z M847.177,211.837v18.421c0,2.301-0.211,4.849-0.931,7.375
		c-0.686,2.763-1.827,5.28-3.198,7.357c-1.625,2.314-3.479,4.159-6.009,5.771c-2.521,1.616-5.534,2.289-8.995,2.289
		c-4.814,0-8.275-1.608-10.331-5.06c-2.073-3.457-3.013-8.53-3.013-15.431c0-7.375,1.625-12.663,4.604-15.887
		c3.013-3.22,7.844-4.836,14.749-4.836H847.177z M789.831,267.563l-4.366-17.732c-2.064,0.685-4.138,0.931-6.431,0.931
		c-2.091,0-3.452-0.694-4.384-1.845c-0.931-1.146-1.405-3.689-1.405-7.362V108.217h-22.532v135.165
		c0,9.905,2.279,16.805,6.667,20.978c4.357,4.138,9.426,6.18,15.654,6.18c2.759,0,5.534-0.242,8.293-0.712
		C784.103,269.174,786.844,268.498,789.831,267.563z M655.363,269.398h22.568v-56.626l29.938,56.626h26.007l-37.532-66.531
		l34.563-53.2h-24.882l-28.094,46.73v-88.18h-22.568V269.398z M608.875,252.378c-2.315,0-4.607-0.47-6.694-1.405
		c-2.078-0.672-4.138-2.517-5.758-5.513c-1.845-3.004-3.202-7.142-4.379-12.9c-1.151-5.512-1.603-13.111-1.603-22.567
		c0-9.422,0.452-17.262,1.375-23.021c0.94-5.767,2.315-10.12,3.927-13.125c1.621-2.996,3.461-4.84,5.754-5.741
		c2.314-0.927,4.831-1.392,7.594-1.392c2.996,0,5.982,0.215,8.745,0.936c2.525,0.672,5.982,2.06,10.37,4.138l6.9-17.526
		c-3.448-1.823-7.603-3.452-12.202-4.81c-4.818-1.383-9.892-2.073-15.207-2.073c-13.568,0-23.688,4.823-30.382,14.728
		c-6.681,9.896-10.137,26.016-10.137,47.886c0,12.917,1.168,23.253,3.241,31.313c2.078,8.077,4.818,14.525,8.517,18.882
		c3.444,4.388,7.818,7.375,12.668,8.987c4.818,1.836,10.137,2.517,15.874,2.517c5.293,0,10.357-0.681,14.96-2.078
		c4.616-1.366,8.763-2.978,12.667-5.038l-6.9-17.056c-4.388,1.862-7.845,2.996-10.37,3.707
		C615.073,251.908,612.086,252.378,608.875,252.378z M504.562,271.691c6.215,0,11.982-0.936,17.055-2.979
		c5.064-2.077,9.43-5.53,13.125-10.353c3.465-4.84,6.206-11.056,8.284-19.115c1.845-7.81,2.771-17.732,2.771-29.714
		c0-11.956-0.927-21.878-2.771-29.938c-2.078-7.805-4.818-14.253-8.284-19.076c-3.694-4.849-8.06-8.078-13.125-10.142
		c-5.073-2.095-10.84-2.996-17.055-2.996c-6.215,0-11.947,0.901-17.021,2.996c-5.064,2.064-9.452,5.293-12.909,10.142
		c-3.676,4.823-6.448,11.271-8.284,19.076c-2.069,8.06-2.987,17.982-2.987,29.938c0,11.301,0.918,20.969,2.987,28.788
		c1.836,8.06,4.607,14.521,8.284,19.339c3.457,4.84,7.845,8.53,12.909,10.59C492.614,270.541,498.346,271.691,504.562,271.691z
		 M511.229,115.359c0,3.922,1.392,7.384,4.172,9.905c2.526,2.763,5.965,4.138,9.887,4.138s7.384-1.375,10.138-4.138
		c2.525-2.521,3.909-5.982,3.909-9.905c0-3.905-1.384-7.357-3.909-10.137c-2.754-2.53-6.215-3.887-10.138-3.887
		s-7.361,1.357-9.887,3.887C512.621,108.002,511.229,111.454,511.229,115.359z M504.562,166.02c3.237,0,5.982,0.694,8.314,1.845
		c2.275,1.142,4.133,3.452,5.736,6.663c1.612,3.241,2.754,7.612,3.47,13.124c0.676,5.789,0.909,12.918,0.909,21.878
		c0,8.064-0.233,14.969-0.909,20.503c-0.716,5.543-1.858,9.892-3.47,13.348c-1.603,3.457-3.461,6-5.736,7.379
		c-2.333,1.616-5.078,2.289-8.314,2.289c-3.202,0-5.982-0.672-8.275-2.289c-2.311-1.379-4.138-3.922-5.785-7.379
		c-1.59-3.457-2.526-7.805-3.202-13.348c-0.685-5.534-1.151-12.439-1.151-20.503c0-8.96,0.466-16.089,1.151-21.878
		c0.676-5.512,1.612-9.883,3.202-13.124c1.647-3.211,3.474-5.521,5.785-6.663C498.579,166.714,501.359,166.02,504.562,166.02z
		 M469.813,115.359c0,3.922,1.357,7.384,4.138,9.905c2.534,2.763,6,4.138,9.883,4.138c3.922,0,7.388-1.375,10.142-4.138
		c2.526-2.521,3.922-5.982,3.922-9.905c0-3.905-1.396-7.357-3.922-10.137c-2.754-2.53-6.219-3.887-10.142-3.887
		c-3.883,0-7.349,1.357-9.883,3.887C471.171,108.002,469.813,111.454,469.813,115.359z M430.656,108.217l-24.171,140.014
		L382.52,108.217h-25.08l32.925,161.181h31.331l32.925-161.181H430.656z"/>
	<path fill-rule="evenodd" clip-rule="evenodd" d="M1374.82,1124.068h-8.117v29.446c0,4.797,0.913,8.354,2.653,10.762
		c1.739,2.397,4.541,3.619,8.503,3.619c1.915,0,3.725-0.492,5.306-1.476c1.573-0.905,2.899-2.319,3.971-4.208l1.406,4.866h5.613
		v-43.01h-8.091v28.12c0,3.32-0.668,5.631-1.897,7.045c-1.248,1.397-2.829,2.135-4.718,2.135c-1.59,0-2.731-0.571-3.47-1.81
		c-0.756-1.159-1.159-3.303-1.159-6.448V1124.068z M1341.491,1130.191c1.071,0,2.056,0.088,2.89,0.255
		c0.817,0.176,1.485,0.501,2.064,0.993c0.58,0.491,0.984,1.238,1.239,2.16c0.254,0.984,0.421,2.302,0.421,3.865v3.225h-4.384
		c-5.385,0-9.259,1.08-11.754,3.153c-2.564,2.152-3.803,5.622-3.803,10.507c0,2.557,0.333,4.717,0.922,6.447
		c0.571,1.74,1.317,3.049,2.372,4.138c1.089,1.072,2.337,1.889,3.742,2.293c1.405,0.422,2.986,0.668,4.62,0.668
		c2.574,0,4.56-0.571,6.045-1.643c1.396-1.072,2.564-2.478,3.303-4.041l1.414,4.866h5.525v-30.104c0-4.718-0.983-8.188-3.039-10.419
		c-2.064-2.231-5.64-3.303-10.771-3.303c-2.135,0-4.286,0.254-6.518,0.746c-2.24,0.492-4.217,1.072-5.798,1.739l2.072,6.272
		c1.898-0.658,3.646-1.15,5.289-1.388C1338.926,1130.367,1340.313,1130.191,1341.491,1130.191z M1348.105,1146.417v6.597
		c0,0.844-0.079,1.749-0.333,2.653c-0.237,0.993-0.659,1.897-1.16,2.645c-0.589,0.825-1.238,1.484-2.152,2.064
		c-0.913,0.597-1.985,0.834-3.224,0.834c-1.739,0-2.979-0.579-3.716-1.827c-0.747-1.238-1.072-3.057-1.072-5.525
		c0-2.653,0.563-4.56,1.634-5.701c1.09-1.177,2.829-1.739,5.307-1.739H1348.105z M1311.201,1160.227v6.597
		c0,3.225-0.571,5.368-1.651,6.606c-1.159,1.238-3.057,1.827-5.701,1.827c-1.238,0-2.565-0.176-4.146-0.413
		c-1.563-0.254-3.303-0.746-5.209-1.414l-1.977,6.448c1.563,0.589,3.391,1.159,5.543,1.757c2.144,0.492,4.296,0.738,6.36,0.738
		c5.218,0,8.942-1.336,11.332-3.98c2.328-2.731,3.47-6.852,3.47-12.553v-41.771h-5.525l-1.002,3.154
		c-0.737-1.081-1.81-2.082-3.057-2.82c-1.326-0.746-2.898-1.15-4.63-1.15c-2.231,0-4.313,0.404-6.044,1.15
		c-1.73,0.835-3.224,2.082-4.471,3.813c-1.23,1.739-2.231,3.971-2.899,6.694c-0.649,2.723-0.983,6.026-0.983,9.927
		c0,3.707,0.246,6.86,0.834,9.338c0.571,2.574,1.31,4.568,2.381,6.132c1.09,1.563,2.337,2.644,3.813,3.303
		c1.423,0.668,3.057,0.984,4.797,0.984c2.23,0,3.971-0.404,5.376-1.239C1309.233,1162.537,1310.288,1161.465,1311.201,1160.227z
		 M1304.92,1157.89c-2.31,0-3.874-0.983-4.717-3.048c-0.896-1.985-1.317-5.052-1.317-9.172c0-5.473,0.491-9.443,1.563-12
		c1.089-2.485,3.065-3.716,6.044-3.716c0.825,0,1.651,0.167,2.477,0.492c0.756,0.325,1.494,0.738,2.231,1.238v19.52
		c0,1.731-0.571,3.313-1.651,4.63C1308.478,1157.248,1306.896,1157.89,1304.92,1157.89z M1279.699,1131.018
		c0.571,0,1.31,0.097,2.056,0.167c0.747,0.167,1.651,0.5,2.653,0.922l1.739-7.862c-0.826-0.246-1.563-0.501-2.319-0.738
		c-0.737-0.175-1.66-0.254-2.724-0.254c-2.406,0-4.216,0.746-5.552,2.144c-1.388,1.484-2.477,3.312-3.224,5.376l-1.309-6.703h-5.64
		v43.01h8.107v-24.307c0-3.4,0.501-6.202,1.415-8.434C1275.799,1132.106,1277.468,1131.018,1279.699,1131.018z M1235.776,1148.306
		h20.512v-4.718c0-3.215-0.255-6.123-0.658-8.679c-0.492-2.557-1.239-4.718-2.319-6.448c-1.072-1.739-2.565-2.979-4.296-3.883
		c-1.739-0.922-3.971-1.326-6.545-1.326c-5.112,0-8.828,1.818-11.227,5.455c-2.407,3.716-3.566,9.593-3.566,17.71
		c0,4.463,0.492,8.1,1.405,10.91c0.914,2.803,2.064,4.955,3.549,6.519c1.503,1.59,3.233,2.653,5.131,3.232
		c1.897,0.571,3.892,0.817,5.956,0.817c2.328,0,4.559-0.325,6.614-0.976c2.082-0.667,3.821-1.335,5.052-2.082l-2.39-6.025
		c-3.153,1.563-6.044,2.31-8.785,2.31c-1.142,0-2.231-0.079-3.215-0.325c-1.001-0.166-1.827-0.667-2.565-1.563
		c-0.737-0.834-1.405-2.082-1.81-3.813C1236.128,1153.682,1235.864,1151.371,1235.776,1148.306z M1242.32,1129.778
		c1.151,0,2.135,0.176,2.891,0.589c0.737,0.404,1.405,1.072,1.897,1.985c0.501,0.905,0.914,2.231,1.168,3.874
		c0.237,1.73,0.325,3.813,0.413,6.378h-12.825c0.088-2.812,0.334-5.043,0.755-6.773c0.316-1.739,0.738-2.978,1.318-3.9
		c0.562-0.913,1.229-1.484,1.985-1.739C1240.66,1129.954,1241.398,1129.778,1242.32,1129.778z M1205.434,1130.692v25.634
		c0,3.399,0.809,6.132,2.398,8.267c1.563,2.23,4.12,3.303,7.678,3.303c1.405,0,2.812-0.167,4.226-0.492
		c1.317-0.325,2.652-0.825,4.041-1.396l-2.056-5.956c-0.914,0.422-1.739,0.668-2.407,0.746c-0.738,0.176-1.405,0.246-2.152,0.246
		c-1.309,0-2.231-0.412-2.811-1.317c-0.571-0.913-0.817-2.161-0.817-3.725v-25.309h8.935v-6.624h-8.935v-9.092h-8.1v9.092h-5.218
		l-0.738,6.624H1205.434z M1178.553,1130.692v25.634c0,3.399,0.817,6.132,2.398,8.267c1.563,2.23,4.12,3.303,7.687,3.303
		c1.388,0,2.802-0.167,4.217-0.492c1.317-0.325,2.652-0.825,4.041-1.396l-2.056-5.956c-0.914,0.422-1.739,0.668-2.398,0.746
		c-0.747,0.176-1.415,0.246-2.161,0.246c-1.309,0-2.231-0.412-2.803-1.317c-0.579-0.913-0.825-2.161-0.825-3.725v-25.309h8.925
		v-6.624h-8.925v-9.092h-8.1v9.092h-5.209l-0.747,6.624H1178.553z M1159.604,1153.928l2.468,13.15h9.11l-12.817-57.891h-11.244
		l-12.659,57.891h8.943l2.381-13.15H1159.604z M1147.033,1146.909l5.622-30.949l5.71,30.949H1147.033z M1092.551,1167.078h6.396
		v-22.392c0-1.371,0.123-2.557,0.456-3.47c0.316-0.905,0.703-1.635,1.178-2.152c0.448-0.51,0.904-0.914,1.493-1.107
		s1.107-0.325,1.572-0.325c1.239,0,2.152,0.396,2.75,1.248c0.58,0.852,0.896,2.478,0.896,4.901v23.297h6.413v-23.631
		c0-3.865-0.65-6.605-1.968-8.345c-1.3-1.774-3.461-2.627-6.466-2.627c-1.502,0-2.934,0.325-4.242,0.976
		c-1.31,0.649-2.416,1.713-3.321,3.065c-1.379-2.68-3.795-4.041-7.115-4.041c-1.449,0-2.82,0.325-4.129,0.913
		c-1.291,0.65-2.416,1.775-3.259,3.277l-0.984-3.54h-4.437v33.952h6.404v-22.006c0-1.502,0.123-2.679,0.448-3.654
		c0.325-0.975,0.729-1.687,1.186-2.283c0.457-0.58,0.976-0.984,1.564-1.178c0.526-0.193,1.045-0.325,1.493-0.325
		c1.247,0,2.161,0.396,2.749,1.248c0.589,0.852,0.923,2.478,0.923,4.901V1167.078z M1061.787,1122.417
		c0,1.239,0.474,2.293,1.317,3.146c0.834,0.834,1.897,1.309,3.136,1.309c1.239,0,2.346-0.475,3.189-1.309
		c0.843-0.853,1.238-1.906,1.238-3.146c0-1.247-0.396-2.337-1.238-3.197c-0.844-0.853-1.95-1.239-3.189-1.239
		c-1.238,0-2.302,0.387-3.136,1.239C1062.261,1120.08,1061.787,1121.17,1061.787,1122.417z M1069.43,1133.126h-10.305v5.227h3.909
		v28.726h6.396V1133.126z M1023.257,1167.078h10.753v-40.146c0-6.36-1.213-10.973-3.733-13.818
		c-2.521-2.741-6.141-4.164-10.964-4.164c-2.644,0-5.165,0.536-7.458,1.739c-2.302,1.221-4.27,3.189-5.938,5.824l-1.739-6.466
		h-7.449v57.03h10.726v-37.625c0-2.187,0.343-4.058,0.888-5.604c0.536-1.52,1.317-2.74,2.311-3.707
		c0.975-0.887,1.968-1.537,3.065-1.994c1.099-0.315,2.188-0.535,3.285-0.535c1.862,0,3.4,0.649,4.604,1.968
		c1.107,1.423,1.651,4.059,1.651,7.906V1167.078z M957.46,1142.174h27.215v-6.237c0-4.287-0.325-8.126-0.888-11.525
		c-0.658-3.408-1.643-6.264-3.074-8.556c-1.423-2.311-3.399-3.945-5.701-5.166c-2.302-1.203-5.253-1.739-8.662-1.739
		c-6.816,0-11.736,2.407-14.916,7.229c-3.18,4.929-4.735,12.729-4.735,23.473c0,5.93,0.677,10.753,1.88,14.478
		c1.204,3.733,2.75,6.589,4.718,8.688c1.968,2.072,4.27,3.496,6.8,4.26c2.529,0.756,5.147,1.081,7.897,1.081
		c3.065,0,6.025-0.431,8.775-1.31c2.741-0.86,5.051-1.739,6.686-2.74l-3.172-7.994c-4.164,2.073-8.012,3.065-11.631,3.065
		c-1.528,0-2.96-0.105-4.27-0.431c-1.317-0.219-2.424-0.887-3.408-2.09c-0.983-1.107-1.862-2.741-2.407-5.034
		C957.899,1149.307,957.565,1146.241,957.46,1142.174z M966.13,1117.612c1.529,0,2.855,0.22,3.84,0.772
		c0.983,0.536,1.862,1.432,2.512,2.618c0.668,1.212,1.213,2.96,1.537,5.165c0.343,2.311,0.448,5.034,0.554,8.442h-17.007
		c0.123-3.733,0.439-6.686,1.001-8.987c0.431-2.31,0.967-3.953,1.757-5.165c0.756-1.203,1.635-1.968,2.618-2.311
		C963.926,1117.832,964.918,1117.612,966.13,1117.612z M923.779,1157.978v8.767c0,4.261-0.765,7.116-2.188,8.759
		c-1.537,1.66-4.067,2.425-7.563,2.425c-1.651,0-3.408-0.22-5.481-0.545c-2.108-0.334-4.393-0.992-6.923-1.88l-2.635,8.557
		c2.091,0.772,4.497,1.537,7.344,2.31c2.855,0.65,5.71,0.993,8.451,0.993c6.922,0,11.842-1.766,15.039-5.271
		c3.074-3.629,4.604-9.093,4.604-16.656v-55.388h-7.345l-1.326,4.173c-0.992-1.432-2.407-2.74-4.05-3.742
		c-1.757-0.992-3.848-1.528-6.149-1.528c-2.96,0-5.701,0.536-8.003,1.528c-2.31,1.107-4.277,2.741-5.93,5.052
		c-1.634,2.302-2.96,5.253-3.848,8.881c-0.86,3.619-1.317,8.012-1.317,13.159c0,4.929,0.343,9.102,1.106,12.404
		c0.773,3.391,1.74,6.026,3.181,8.108c1.423,2.091,3.074,3.514,5.051,4.393c1.862,0.878,4.059,1.309,6.352,1.309
		c2.96,0,5.271-0.536,7.133-1.634C921.161,1161.043,922.585,1159.62,923.779,1157.978z M915.451,1154.902
		c-3.074,0-5.156-1.317-6.263-4.058c-1.204-2.636-1.749-6.677-1.749-12.167c0-7.238,0.668-12.51,2.091-15.9
		c1.433-3.303,4.05-4.945,7.994-4.945c1.107,0,2.214,0.21,3.295,0.658c0.992,0.431,1.977,0.984,2.96,1.651v25.889
		c0,2.293-0.765,4.375-2.188,6.132C920.16,1154.024,918.087,1154.902,915.451,1154.902z M881.981,1119.255
		c0.773,0,1.758,0.114,2.75,0.22c0.993,0.211,2.205,0.667,3.514,1.203l2.293-10.419c-1.089-0.315-2.073-0.658-3.065-0.983
		c-0.993-0.22-2.205-0.325-3.61-0.325c-3.198,0-5.605,0.993-7.362,2.847c-1.862,1.977-3.285,4.383-4.287,7.124l-1.739-8.873h-7.458
		v57.03h10.744v-32.248c0-4.489,0.667-8.231,1.862-11.191C876.834,1120.678,879.03,1119.255,881.981,1119.255z M830.978,1168.159
		c2.952,0,5.702-0.431,8.117-1.415c2.407-0.966,4.489-2.635,6.246-4.928c1.643-2.302,2.961-5.262,3.953-9.109
		c0.888-3.717,1.318-8.434,1.318-14.135s-0.431-10.437-1.318-14.267c-0.992-3.733-2.311-6.799-3.953-9.118
		c-1.757-2.293-3.839-3.83-6.246-4.814c-2.415-0.992-5.165-1.423-8.117-1.423c-2.969,0-5.719,0.431-8.116,1.423
		c-2.416,0.984-4.516,2.521-6.149,4.814c-1.757,2.319-3.075,5.385-3.936,9.118c-1.002,3.83-1.432,8.565-1.432,14.267
		c0,5.358,0.43,9.971,1.432,13.704c0.86,3.839,2.179,6.904,3.936,9.215c1.634,2.293,3.733,4.05,6.149,5.034
		C825.259,1167.614,828.009,1168.159,830.978,1168.159z M830.978,1117.832c1.529,0,2.847,0.315,3.945,0.878
		c1.098,0.545,1.967,1.643,2.749,3.18c0.756,1.529,1.317,3.628,1.634,6.246c0.334,2.741,0.439,6.158,0.439,10.437
		c0,3.821-0.105,7.124-0.439,9.751c-0.316,2.626-0.878,4.718-1.634,6.369c-0.782,1.634-1.651,2.854-2.749,3.496
		c-1.099,0.772-2.416,1.106-3.945,1.106c-1.546,0-2.854-0.334-3.961-1.106c-1.081-0.642-1.977-1.862-2.732-3.496
		c-0.773-1.651-1.194-3.743-1.546-6.369c-0.334-2.627-0.545-5.93-0.545-9.751c0-4.278,0.211-7.695,0.545-10.437
		c0.352-2.618,0.772-4.717,1.546-6.246c0.756-1.537,1.651-2.635,2.732-3.18C828.123,1118.147,829.432,1117.832,830.978,1117.832z
		 M774.159,1142.174h27.197v-6.237c0-4.287-0.316-8.126-0.879-11.525c-0.65-3.408-1.651-6.264-3.065-8.556
		c-1.433-2.311-3.4-3.945-5.701-5.166c-2.302-1.203-5.271-1.739-8.68-1.739c-6.8,0-11.728,2.407-14.898,7.229
		c-3.189,4.929-4.735,12.729-4.735,23.473c0,5.93,0.668,10.753,1.871,14.478c1.212,3.733,2.759,6.589,4.718,8.688
		c1.968,2.072,4.278,3.496,6.808,4.26c2.53,0.756,5.148,1.081,7.889,1.081c3.066,0,6.026-0.431,8.768-1.31
		c2.749-0.86,5.06-1.739,6.702-2.74l-3.171-7.994c-4.182,2.073-8.012,3.065-11.631,3.065c-1.546,0-2.97-0.105-4.287-0.431
		c-1.309-0.219-2.407-0.887-3.408-2.09c-0.967-1.107-1.854-2.741-2.398-5.034C774.589,1149.307,774.265,1146.241,774.159,1142.174z
		 M782.82,1117.612c1.537,0,2.847,0.22,3.848,0.772c0.976,0.536,1.854,1.432,2.513,2.618c0.668,1.212,1.212,2.96,1.528,5.165
		c0.343,2.311,0.448,5.034,0.563,8.442h-17.007c0.104-3.733,0.43-6.686,0.992-8.987c0.439-2.31,0.975-3.953,1.748-5.165
		c0.756-1.203,1.651-1.968,2.636-2.311C780.624,1117.832,781.608,1117.612,782.82,1117.612z M752.873,1164.347v-39.83h-17.982v8.354
		h7.568v25.212c-1.542,0.554-3.509,0.772-5.921,0.772c-2.077,0-3.852-0.447-5.49-1.309c-1.643-0.781-3.075-2.319-4.173-4.506
		c-1.203-2.092-2.073-5.052-2.635-8.873c-0.646-3.742-0.979-8.557-0.979-14.495c0-5.93,0.334-10.857,1.089-14.802
		c0.663-3.962,1.656-7.133,2.978-9.558c1.195-2.398,2.723-4.146,4.603-5.147c1.744-0.984,3.716-1.529,5.921-1.529
		c2.188,0,4.067,0.22,5.701,0.65c1.647,0.448,3.51,1.212,5.596,2.205l3.724-8.442c-1.646-1.001-3.83-1.871-6.36-2.644
		c-2.525-0.773-5.486-1.213-8.877-1.213c-8.666,0-15.043,3.408-19.313,10.094c-4.282,6.809-6.47,16.893-6.47,30.386
		c0,13.063,1.972,22.814,5.917,29.077c3.852,6.246,9.988,9.409,18.435,9.409c3.509,0,6.58-0.325,9.21-1.081
		C747.945,1166.314,750.471,1165.436,752.873,1164.347z M688.28,1160.824c0,2.099,0.646,3.848,2.078,5.271
		c1.427,1.414,3.171,2.064,5.271,2.064c2.078,0,3.83-0.65,5.253-2.064c1.427-1.423,2.095-3.172,2.095-5.271
		c0-2.074-0.668-3.84-2.095-5.271c-1.423-1.423-3.176-2.073-5.253-2.073c-2.1,0-3.843,0.65-5.271,2.073
		C688.925,1156.984,688.28,1158.75,688.28,1160.824z M662.154,1118.815v34.015c0,4.497,1.106,8.107,3.184,10.954
		c2.086,2.96,5.486,4.375,10.208,4.375c1.862,0,3.725-0.22,5.587-0.65c1.766-0.431,3.518-1.089,5.381-1.845l-2.746-7.906
		c-1.212,0.545-2.292,0.879-3.18,0.992c-0.993,0.211-1.854,0.325-2.855,0.325c-1.744,0-2.956-0.544-3.734-1.748
		c-0.755-1.212-1.089-2.854-1.089-4.945v-33.566h11.846v-8.768h-11.846v-12.069h-10.757v12.069h-6.909l-0.979,8.768H662.154z
		 M627.494,1158.083c-2.741,0-5.271-0.431-7.458-1.204c-2.196-0.764-4.379-1.757-6.584-2.96l-3.843,9.004
		c2.745,1.635,5.491,2.961,8.451,3.821c2.96,0.984,6.259,1.415,9.975,1.415c3.633,0,6.918-0.545,9.659-1.739
		c2.745-1.204,4.933-2.741,6.813-4.823c1.744-1.977,3.07-4.375,4.058-7.124c0.87-2.741,1.3-5.815,1.3-9.014
		c0-3.821-0.536-7.001-1.537-9.628c-0.971-2.635-2.293-4.84-3.821-6.702c-1.647-1.862-3.417-3.392-5.381-4.612
		c-1.972-1.203-3.958-2.188-5.82-3.171c-1.423-0.773-2.851-1.529-4.274-2.425c-1.427-0.773-2.635-1.739-3.742-2.741
		c-1.076-0.992-1.959-2.196-2.626-3.496c-0.655-1.326-0.979-2.855-0.979-4.621c0-3.399,0.979-5.92,2.851-7.783
		c1.862-1.748,4.177-2.635,6.808-2.635c2.618,0,5.038,0.334,7.234,1.098c2.187,0.765,4.388,1.871,6.685,3.075l3.624-8.768
		c-0.773-0.448-1.634-1.001-2.851-1.546c-1.204-0.554-2.53-1.098-3.949-1.643c-1.542-0.448-3.185-0.879-4.823-1.204
		c-1.77-0.325-3.519-0.562-5.381-0.562c-2.31,0-4.708,0.342-7.238,0.992c-2.53,0.773-4.84,1.862-6.909,3.514
		c-2.078,1.643-3.852,3.725-5.166,6.255c-1.427,2.636-2.078,5.807-2.078,9.654c0,3.399,0.431,6.141,1.423,8.451
		c0.892,2.293,2.078,4.146,3.509,5.815c1.419,1.634,2.96,2.96,4.832,3.927c1.752,1.106,3.505,2.1,5.376,3.074
		c1.647,0.888,3.185,1.767,4.713,2.645c1.537,0.878,2.851,1.871,4.067,3.065c1.186,1.204,2.078,2.521,2.851,4.164
		c0.755,1.66,1.081,3.514,1.081,5.807c0,4.516-0.971,7.801-3.07,9.663C633.195,1157.107,630.564,1158.083,627.494,1158.083z"/>
	<path fill-rule="evenodd" clip-rule="evenodd" fill="#FFFFFF" d="M1338.363,1281.367v39.505c0,5.227,1.266,9.435,3.689,12.729
		c2.425,3.452,6.387,5.087,11.859,5.087c2.179,0,4.322-0.281,6.51-0.791c2.012-0.483,4.067-1.247,6.229-2.108l-3.181-9.215
		c-1.396,0.667-2.696,1.045-3.689,1.159c-1.159,0.272-2.178,0.396-3.32,0.396c-2.038,0-3.426-0.633-4.331-2.029
		c-0.887-1.414-1.273-3.32-1.273-5.736v-38.995h13.766v-10.19h-13.766v-14.012h-12.492v14.012h-8.012l-1.159,10.19H1338.363z
		 M1288.063,1271.177h-12.492v45.373c0,7.37,1.389,12.852,4.076,16.542c2.653,3.689,6.984,5.596,13.125,5.596
		c2.916,0,5.719-0.791,8.134-2.267c2.425-1.423,4.48-3.584,6.114-6.51l2.179,7.502h8.662v-66.236h-12.475v43.309
		c0,5.121-1.019,8.679-2.934,10.841c-1.897,2.169-4.313,3.312-7.266,3.312c-2.415,0-4.207-0.905-5.35-2.812
		c-1.142-1.774-1.774-5.077-1.774-9.909V1271.177z M1246.405,1326.854v10.198c0,4.929-0.913,8.249-2.573,10.155
		c-1.784,1.915-4.718,2.82-8.776,2.82c-1.933,0-3.962-0.281-6.378-0.668c-2.424-0.369-5.086-1.115-8.021-2.152l-3.057,9.918
		c2.416,0.914,5.209,1.792,8.53,2.697c3.303,0.764,6.641,1.15,9.813,1.15c8.038,0,13.748-2.056,17.455-6.105
		c3.566-4.198,5.35-10.585,5.35-19.361v-64.33h-8.53l-1.546,4.841c-1.159-1.66-2.776-3.181-4.69-4.331
		c-2.057-1.143-4.48-1.783-7.134-1.783c-3.452,0-6.624,0.641-9.329,1.783c-2.653,1.282-4.955,3.188-6.861,5.877
		c-1.941,2.653-3.443,6.105-4.479,10.305c-0.993,4.207-1.503,9.285-1.503,15.276c0,5.745,0.352,10.585,1.266,14.389
		c0.86,3.979,2.021,7.028,3.689,9.453c1.669,2.415,3.566,4.066,5.868,5.112c2.144,0.993,4.726,1.502,7.379,1.502
		c3.452,0,6.114-0.642,8.293-1.906C1243.313,1330.421,1244.982,1328.761,1246.405,1326.854z M1236.689,1323.297
		c-3.566,0-5.982-1.564-7.256-4.735c-1.405-3.048-2.038-7.766-2.038-14.126c0-8.398,0.765-14.529,2.425-18.475
		c1.669-3.838,4.726-5.744,9.294-5.744c1.291,0,2.565,0.271,3.83,0.755c1.143,0.51,2.319,1.151,3.461,1.941v30.053
		c0,2.67-0.913,5.086-2.573,7.15C1242.206,1322.251,1239.773,1323.297,1236.689,1323.297z M1197.853,1281.886
		c0.87,0,2.029,0.114,3.18,0.237c1.151,0.271,2.539,0.79,4.067,1.432l2.671-12.114c-1.265-0.387-2.407-0.773-3.566-1.15
		c-1.16-0.255-2.53-0.387-4.208-0.387c-3.681,0-6.492,1.15-8.53,3.338c-2.16,2.258-3.813,5.069-4.954,8.24l-2.073-10.305h-8.645
		v66.236h12.492v-37.449c0-5.227,0.765-9.549,2.161-13.001C1191.853,1283.555,1194.4,1281.886,1197.853,1281.886z
		 M1130.185,1308.503h31.58v-7.265c0-4.964-0.403-9.4-1.036-13.37c-0.747-3.962-1.906-7.248-3.575-9.944
		c-1.616-2.671-3.927-4.577-6.606-5.982c-2.67-1.397-6.114-2.038-10.05-2.038c-7.889,0-13.643,2.811-17.332,8.407
		c-3.689,5.744-5.473,14.802-5.473,27.24c0,6.905,0.756,12.501,2.144,16.823c1.423,4.357,3.215,7.66,5.473,10.076
		c2.311,2.425,4.99,4.076,7.933,4.963c2.899,0.888,5.991,1.274,9.171,1.274c3.559,0,7.011-0.51,10.173-1.521
		c3.181-1.027,5.877-2.021,7.783-3.171l-3.689-9.312c-4.831,2.425-9.312,3.566-13.52,3.566c-1.783,0-3.452-0.123-4.955-0.519
		c-1.546-0.237-2.819-1.001-3.961-2.406c-1.16-1.274-2.161-3.181-2.794-5.843
		C1130.667,1316.778,1130.299,1313.221,1130.185,1308.503z M1140.216,1279.979c1.784,0,3.339,0.237,4.48,0.878
		c1.143,0.624,2.152,1.669,2.935,3.049c0.755,1.423,1.396,3.452,1.792,6c0.36,2.679,0.492,5.85,0.633,9.83h-19.757
		c0.132-4.366,0.518-7.793,1.15-10.472c0.492-2.662,1.159-4.568,2.021-6c0.922-1.379,1.915-2.293,3.057-2.645
		C1137.678,1280.217,1138.846,1279.979,1140.216,1279.979z M1062.63,1337.413h12.501v-43.677c0-2.68,0.237-4.973,0.887-6.773
		c0.633-1.792,1.406-3.171,2.284-4.208c0.879-0.992,1.783-1.783,2.935-2.135c1.142-0.403,2.144-0.641,3.048-0.641
		c2.416,0,4.208,0.746,5.367,2.415c1.143,1.66,1.792,4.841,1.792,9.549v45.47h12.492v-46.102c0-7.52-1.282-12.879-3.848-16.287
		c-2.548-3.461-6.747-5.121-12.614-5.121c-2.935,0-5.729,0.641-8.293,1.906c-2.53,1.273-4.691,3.32-6.466,5.982
		c-2.706-5.228-7.414-7.889-13.897-7.889c-2.811,0-5.499,0.641-8.038,1.783c-2.548,1.282-4.717,3.443-6.36,6.387l-1.932-6.896
		h-8.653v66.236h12.491v-42.922c0-2.934,0.246-5.227,0.879-7.133c0.642-1.906,1.44-3.304,2.302-4.445
		c0.913-1.15,1.897-1.941,3.057-2.293c1.028-0.403,2.056-0.641,2.935-0.641c2.424,0,4.199,0.746,5.358,2.415
		c1.142,1.66,1.774,4.841,1.774,9.549V1337.413z M976.276,1337.413h12.492v-43.677c0-2.68,0.237-4.973,0.869-6.773
		c0.642-1.792,1.433-3.171,2.311-4.208c0.861-0.992,1.774-1.783,2.935-2.135c1.142-0.403,2.126-0.641,3.039-0.641
		c2.425,0,4.208,0.746,5.358,2.415c1.125,1.66,1.767,4.841,1.767,9.549v45.47h12.491v-46.102c0-7.52-1.265-12.879-3.839-16.287
		c-2.548-3.461-6.746-5.121-12.597-5.121c-2.917,0-5.719,0.641-8.293,1.906c-2.53,1.273-4.674,3.32-6.457,5.982
		c-2.697-5.228-7.414-7.889-13.889-7.889c-2.828,0-5.508,0.641-8.047,1.783c-2.547,1.282-4.726,3.443-6.359,6.387l-1.941-6.896
		h-8.645v66.236h12.501v-42.922c0-2.934,0.245-5.227,0.878-7.133s1.414-3.304,2.293-4.445c0.904-1.15,1.906-1.941,3.057-2.293
		c1.02-0.403,2.064-0.641,2.926-0.641c2.425,0,4.217,0.746,5.376,2.415c1.143,1.66,1.774,4.841,1.774,9.549V1337.413z
		 M908.617,1280.62c1.651,0,3.153,0.105,4.428,0.352c1.3,0.281,2.301,0.791,3.206,1.555c0.879,0.738,1.52,1.906,1.906,3.321
		c0.404,1.511,0.642,3.54,0.642,5.99v4.964h-6.747c-8.302,0-14.275,1.651-18.088,4.831c-3.971,3.295-5.859,8.653-5.859,16.182
		c0,3.918,0.51,7.257,1.38,9.918c0.913,2.688,2.056,4.718,3.689,6.387c1.669,1.669,3.575,2.934,5.754,3.54
		c2.188,0.642,4.594,1.028,7.142,1.028c3.918,0,6.976-0.923,9.276-2.548c2.179-1.625,3.962-3.813,5.104-6.229l2.161,7.502h8.547
		v-46.356c0-7.265-1.528-12.624-4.708-16.032c-3.216-3.461-8.68-5.121-16.568-5.121c-3.303,0-6.641,0.387-10.076,1.15
		c-3.426,0.756-6.474,1.66-8.898,2.662l3.18,9.707c2.935-1.028,5.587-1.774,8.135-2.17
		C904.646,1280.857,906.816,1280.62,908.617,1280.62z M918.799,1305.551v10.199c0,1.31-0.132,2.706-0.519,4.085
		c-0.36,1.556-1.02,2.943-1.774,4.085c-0.888,1.283-1.915,2.293-3.304,3.189c-1.432,0.896-3.057,1.265-4.989,1.265
		c-2.671,0-4.568-0.879-5.728-2.785c-1.15-1.906-1.651-4.717-1.651-8.529c0-4.094,0.913-7.028,2.53-8.812
		c1.669-1.774,4.356-2.697,8.169-2.697H918.799z M838.796,1337.413h12.492v-31.326l16.533,31.326h14.406l-20.767-36.816
		l19.142-29.42h-13.766l-15.549,25.862v-48.781h-12.492V1337.413z M799.564,1326.573l25.976-43.66v-11.736h-37.458V1282h24.097
		l-26.144,44.854v10.559h38.618v-10.84H799.564z M780.431,1336.421l-2.424-9.848c-1.143,0.413-2.293,0.536-3.567,0.536
		c-1.142,0-1.897-0.378-2.415-1.011c-0.519-0.633-0.756-2.047-0.756-4.085v-73.756h-12.496v74.784c0,5.473,1.27,9.285,3.686,11.578
		c2.424,2.31,5.244,3.426,8.688,3.426c1.52,0,3.066-0.149,4.568-0.387C777.269,1337.29,778.771,1336.93,780.431,1336.421z
		 M720.418,1280.62c1.665,0,3.185,0.105,4.454,0.352c1.305,0.281,2.293,0.791,3.211,1.555c0.861,0.738,1.502,1.906,1.906,3.321
		c0.387,1.511,0.628,3.54,0.628,5.99v4.964h-6.755c-8.275,0-14.275,1.651-18.088,4.831c-3.958,3.295-5.868,8.653-5.868,16.182
		c0,3.918,0.514,7.257,1.405,9.918c0.901,2.688,2.042,4.718,3.69,6.387c1.651,1.669,3.562,2.934,5.728,3.54
		c2.188,0.642,4.603,1.028,7.151,1.028c3.931,0,6.992-0.923,9.285-2.548c2.188-1.625,3.966-3.813,5.117-6.229l2.135,7.502h8.569
		v-46.356c0-7.265-1.546-12.624-4.722-16.032c-3.211-3.461-8.679-5.121-16.572-5.121c-3.299,0-6.619,0.387-10.072,1.15
		c-3.417,0.756-6.487,1.66-8.903,2.662l3.185,9.707c2.938-1.028,5.591-1.774,8.13-2.17
		C716.452,1280.857,718.635,1280.62,720.418,1280.62z M730.617,1305.551v10.199c0,1.31-0.123,2.706-0.522,4.085
		c-0.355,1.556-1.023,2.943-1.788,4.085c-0.865,1.283-1.897,2.293-3.281,3.189c-1.423,0.896-3.07,1.265-4.994,1.265
		c-2.662,0-4.568-0.879-5.723-2.785c-1.142-1.906-1.673-4.717-1.673-8.529c0-4.094,0.918-7.028,2.547-8.812
		c1.674-1.774,4.353-2.697,8.17-2.697H730.617z M665.479,1326.986c-3.171,0-6.105-0.519-8.64-1.397
		c-2.547-0.904-5.122-2.064-7.665-3.443l-4.437,10.428c3.167,1.941,6.343,3.452,9.808,4.479c3.435,1.125,7.248,1.635,11.574,1.635
		c4.199,0,8.042-0.642,11.218-2.038c3.185-1.389,5.758-3.172,7.897-5.597c2.06-2.292,3.58-5.112,4.722-8.274
		c1.028-3.172,1.542-6.747,1.542-10.454c0-4.454-0.641-8.144-1.783-11.2c-1.15-3.075-2.692-5.587-4.48-7.774
		c-1.897-2.179-3.922-3.962-6.233-5.35c-2.292-1.397-4.59-2.548-6.747-3.69c-1.656-0.887-3.32-1.783-4.994-2.828
		c-1.629-0.861-3.048-2.012-4.313-3.171c-1.278-1.143-2.306-2.548-3.062-4.076c-0.755-1.521-1.142-3.304-1.142-5.351
		c0-3.936,1.142-6.869,3.325-9.057c2.143-2.029,4.84-3.048,7.893-3.048c3.057,0,5.872,0.386,8.398,1.273
		c2.547,0.913,5.082,2.179,7.783,3.558l4.199-10.182c-0.9-0.509-1.906-1.142-3.321-1.783c-1.393-0.642-2.938-1.265-4.568-1.906
		c-1.779-0.51-3.716-1.045-5.623-1.396c-2.033-0.387-4.08-0.633-6.232-0.633c-2.701,0-5.478,0.36-8.42,1.151
		c-2.93,0.878-5.614,2.143-8.042,4.059c-2.42,1.924-4.432,4.348-5.982,7.282c-1.629,3.057-2.416,6.746-2.416,11.191
		c0,3.953,0.51,7.133,1.652,9.83c1.045,2.662,2.42,4.831,4.093,6.737c1.656,1.907,3.444,3.427,5.596,4.577
		c2.051,1.3,4.076,2.416,6.259,3.566c1.911,1.028,3.689,2.056,5.478,3.049c1.783,1.027,3.303,2.179,4.708,3.566
		c1.401,1.423,2.42,2.925,3.307,4.831c0.91,1.951,1.27,4.094,1.27,6.773c0,5.209-1.151,9.066-3.562,11.2
		C672.12,1325.826,669.041,1326.986,665.479,1326.986z"/>
	<path fill-rule="evenodd" clip-rule="evenodd" fill="#FFFFFF" d="M1138.846,801.135h18.905v-70.576
		c0-11.183-2.144-19.283-6.536-24.325c-4.454-4.823-10.823-7.327-19.326-7.327c-4.639,0-9.075,0.958-13.106,3.066
		c-4.076,2.161-7.521,5.631-10.454,10.26l-3.058-11.402h-13.106v100.303h18.869v-66.14c0-3.892,0.598-7.151,1.564-9.839
		c0.966-2.697,2.336-4.814,4.075-6.562c1.731-1.555,3.427-2.697,5.412-3.47c1.933-0.606,3.848-0.958,5.763-0.958
		c3.303,0,6.009,1.133,8.108,3.47c1.924,2.468,2.89,7.098,2.89,13.889V801.135z M1023.046,757.352h47.859v-10.998
		c0-7.52-0.58-14.249-1.546-20.249c-1.143-6-2.891-10.981-5.403-15.065c-2.529-4.023-5.955-6.905-10.022-9.066
		c-4.041-2.108-9.26-3.066-15.269-3.066c-11.947,0-20.608,4.261-26.195,12.729c-5.64,8.706-8.328,22.401-8.328,41.279
		c0,10.428,1.177,18.904,3.294,25.449c2.108,6.598,4.806,11.596,8.284,15.259s7.52,6.176,11.965,7.511
		c4.428,1.336,9.065,1.924,13.915,1.924c5.411,0,10.577-0.772,15.443-2.293c4.796-1.555,8.829-3.074,11.763-4.805l-5.631-14.108
		c-7.326,3.663-14.073,5.411-20.434,5.411c-2.705,0-5.218-0.185-7.52-0.799c-2.337-0.352-4.252-1.502-5.991-3.646
		c-1.739-1.933-3.303-4.806-4.261-8.838C1023.819,769.896,1023.239,764.494,1023.046,757.352z M1038.297,714.167
		c2.696,0,5.042,0.352,6.729,1.309c1.748,0.984,3.304,2.53,4.445,4.629c1.194,2.161,2.161,5.227,2.706,9.083
		c0.597,4.076,0.79,8.873,0.957,14.873h-29.895c0.22-6.588,0.773-11.763,1.73-15.839c0.791-4.032,1.748-6.922,3.119-9.066
		c1.326-2.117,2.881-3.496,4.621-4.032C1034.448,714.518,1036.188,714.167,1038.297,714.167z M960.798,669.18
		c0,3.664,1.371,6.773,3.848,9.294c2.513,2.486,5.587,3.848,9.26,3.848c3.654,0,6.957-1.362,9.47-3.848
		c2.529-2.521,3.672-5.631,3.672-9.294c0-3.663-1.143-6.914-3.672-9.443c-2.513-2.503-5.815-3.663-9.47-3.663
		c-3.673,0-6.747,1.16-9.26,3.663C962.169,662.267,960.798,665.517,960.798,669.18z M983.375,700.832h-30.501v15.435h11.596v84.869
		h18.905V700.832z M929.744,801.135l14.662-135.029h-17.184l-11.174,114.597l-16.217-97.422h-18.693l-16.393,97.422l-10.269-114.597
		h-18.141l14.67,135.029h24.914l14.283-93.161l13.713,93.161H929.744z"/>
	<path fill-rule="evenodd" clip-rule="evenodd" fill="#F2F3F4" d="M1347.938,946.311v13.669c0,6.606-1.194,11.077-3.426,13.634
		c-2.407,2.53-6.325,3.769-11.771,3.769c-2.592,0-5.314-0.378-8.557-0.904c-3.232-0.483-6.808-1.494-10.752-2.864l-4.076,13.291
		c3.232,1.222,6.975,2.398,11.42,3.619c4.428,1.011,8.882,1.529,13.143,1.529c10.787,0,18.447-2.75,23.385-8.196
		c4.796-5.631,7.186-14.188,7.186-25.95v-86.248h-11.42l-2.082,6.483c-1.537-2.231-3.716-4.243-6.281-5.798
		c-2.75-1.537-6-2.39-9.575-2.39c-4.621,0-8.872,0.853-12.483,2.39c-3.558,1.704-6.649,4.261-9.215,7.88
		c-2.601,3.558-4.604,8.179-5.991,13.818c-1.344,5.622-2.029,12.447-2.029,20.477c0,7.704,0.483,14.205,1.704,19.292
		c1.178,5.323,2.715,9.417,4.946,12.658c2.231,3.25,4.796,5.49,7.862,6.869c2.872,1.327,6.334,2.012,9.9,2.012
		c4.629,0,8.188-0.852,11.121-2.547C1343.81,951.107,1346.041,948.876,1347.938,946.311 M1334.929,941.523
		c-4.779,0-8.038-2.056-9.725-6.325c-1.871-4.094-2.724-10.41-2.724-18.94c0-11.271,1.02-19.502,3.251-24.772
		c2.214-5.147,6.324-7.704,12.456-7.704c1.739,0,3.436,0.36,5.148,1.01c1.528,0.703,3.083,1.547,4.603,2.601v40.305
		c0,3.566-1.194,6.825-3.426,9.584C1342.299,940.135,1339.066,941.523,1334.929,941.523z M1282.862,886.013
		c1.168,0,2.723,0.158,4.252,0.325c1.546,0.36,3.426,1.054,5.481,1.906l3.566-16.226c-1.695-0.536-3.241-1.054-4.779-1.546
		c-1.546-0.36-3.408-0.519-5.64-0.519c-4.954,0-8.714,1.528-11.446,4.463c-2.907,3.039-5.104,6.808-6.65,11.077l-2.758-13.836
		h-11.596v88.813h16.761v-50.214c0-7.01,1.002-12.799,2.864-17.438C1274.833,888.244,1278.241,886.013,1282.862,886.013z
		 M1190.816,871.658h-16.744v60.825c0,9.892,1.854,17.235,5.464,22.182c3.567,4.945,9.365,7.502,17.604,7.502
		c3.884,0,7.669-1.054,10.911-3.039c3.232-1.907,5.991-4.788,8.188-8.724l2.925,10.067h11.596v-88.813h-16.717v58.076
		c0,6.843-1.37,11.64-3.936,14.521c-2.557,2.908-5.798,4.445-9.733,4.445c-3.233,0-5.622-1.212-7.178-3.769
		c-1.537-2.381-2.38-6.809-2.38-13.3V871.658z M1096.363,960.472h11.561l1.528-5.807c1.713,2.231,3.944,4.094,6.501,5.473
		c2.583,1.335,5.622,2.029,9.558,2.029c9.584,0,16.919-3.883,21.856-11.763c4.989-7.854,7.555-20.478,7.555-37.915
		c0-8.714-0.527-15.733-1.704-21.162c-1.221-5.481-2.917-9.777-5.148-13.01c-2.23-3.259-4.585-5.446-7.502-6.659
		c-2.934-1.186-6.166-1.704-9.733-1.704c-4.462,0-8.029,0.853-10.945,2.715c-2.882,1.906-5.112,4.296-6.817,7.177v-38.925h-16.708
		V960.472z M1125.687,883.781c2.231,0,4.296,0.527,5.824,1.537c1.555,1.02,2.732,2.759,3.751,5.113
		c0.844,2.389,1.528,5.473,2.056,9.408c0.316,3.936,0.519,8.714,0.519,14.354c0,6.65-0.352,12.29-0.888,16.595
		c-0.475,4.41-1.326,7.818-2.547,10.41c-1.178,2.556-2.891,4.436-4.955,5.446c-2.021,1.203-4.41,1.695-7.344,1.695
		c-3.066,0-6.149-1.019-9.031-2.873v-44.941c0-1.863,0.176-3.928,0.694-5.957c0.483-1.906,1.159-3.76,2.188-5.314
		c1.054-1.528,2.39-2.916,3.936-3.936C1121.426,884.309,1123.49,883.781,1125.687,883.781z M1043.761,945.941l34.831-58.55v-15.733
		h-50.195v14.513h32.283l-35.051,60.14v14.161h51.804v-14.53H1043.761z M1018.136,959.128l-3.241-13.187
		c-1.547,0.527-3.084,0.703-4.779,0.703c-1.546,0-2.565-0.483-3.25-1.344c-0.694-0.844-1.02-2.75-1.02-5.491v-98.889h-16.743
		v100.277c0,7.344,1.704,12.447,4.937,15.531c3.251,3.083,7.028,4.585,11.648,4.585c2.029,0,4.094-0.201,6.123-0.526
		C1013.875,960.305,1015.904,959.813,1018.136,959.128z M937.686,884.309c2.231,0,4.243,0.158,5.947,0.482
		c1.757,0.369,3.092,1.055,4.322,2.073c1.159,1.011,2.003,2.557,2.529,4.463c0.527,2.021,0.861,4.744,0.861,8.038v6.642h-9.048
		c-11.104,0-19.134,2.214-24.246,6.482c-5.306,4.41-7.862,11.596-7.862,21.707c0,5.271,0.694,9.733,1.854,13.292
		c1.229,3.619,2.759,6.324,4.964,8.556c2.204,2.24,4.778,3.936,7.704,4.744c2.907,0.86,6.157,1.379,9.566,1.379
		c5.271,0,9.355-1.221,12.447-3.408c2.908-2.188,5.307-5.113,6.853-8.354l2.881,10.067h11.474v-62.16
		c0-9.742-2.064-16.911-6.325-21.505c-4.305-4.621-11.648-6.853-22.226-6.853c-4.428,0-8.872,0.519-13.511,1.528
		c-4.577,1.028-8.662,2.24-11.93,3.576l4.27,13.019c3.936-1.379,7.502-2.39,10.91-2.917
		C932.371,884.634,935.287,884.309,937.686,884.309z M951.346,917.761v13.669c0,1.739-0.158,3.619-0.686,5.473
		c-0.491,2.064-1.379,3.936-2.389,5.473c-1.178,1.704-2.565,3.092-4.428,4.27c-1.915,1.203-4.094,1.695-6.686,1.695
		c-3.566,0-6.132-1.177-7.669-3.733c-1.537-2.565-2.231-6.316-2.231-11.438c0-5.473,1.213-9.408,3.409-11.798
		c2.23-2.39,5.842-3.61,10.954-3.61H951.346z M864.044,946.469c-4.27,0-8.188-0.686-11.596-1.862
		c-3.427-1.212-6.853-2.759-10.261-4.621l-5.974,13.985c4.252,2.601,8.521,4.639,13.142,6.009c4.621,1.493,9.733,2.188,15.531,2.188
		c5.648,0,10.788-0.853,15.058-2.706c4.251-1.88,7.695-4.26,10.567-7.502c2.768-3.083,4.788-6.869,6.325-11.121
		c1.379-4.261,2.082-9.049,2.082-13.994c0-6-0.861-10.945-2.407-15.03c-1.537-4.111-3.602-7.511-6-10.437
		c-2.539-2.916-5.271-5.306-8.354-7.177c-3.074-1.862-6.148-3.392-9.039-4.946c-2.231-1.177-4.463-2.39-6.694-3.76
		c-2.187-1.186-4.093-2.714-5.807-4.27c-1.695-1.537-3.083-3.408-4.094-5.473c-1.001-2.029-1.528-4.419-1.528-7.168
		c0-5.271,1.528-9.215,4.445-12.132c2.891-2.724,6.51-4.111,10.595-4.111c4.093,0,7.87,0.536,11.271,1.713
		c3.408,1.222,6.816,2.935,10.427,4.779l5.641-13.66c-1.213-0.686-2.548-1.537-4.463-2.39c-1.88-0.861-3.936-1.704-6.114-2.557
		c-2.407-0.685-4.998-1.388-7.555-1.862c-2.715-0.526-5.464-0.852-8.354-0.852c-3.61,0-7.335,0.482-11.271,1.537
		c-3.936,1.177-7.546,2.872-10.788,5.438c-3.232,2.583-5.965,5.842-8.028,9.76c-2.196,4.111-3.242,9.065-3.242,15.004
		c0,5.324,0.677,9.585,2.231,13.204c1.379,3.558,3.241,6.474,5.473,9.03s4.621,4.586,7.502,6.123
		c2.759,1.757,5.474,3.241,8.39,4.796c2.557,1.371,4.946,2.75,7.353,4.085c2.381,1.38,4.41,2.908,6.325,4.788
		c1.862,1.906,3.232,3.927,4.41,6.483c1.229,2.608,1.704,5.464,1.704,9.083c0,6.967-1.528,12.123-4.788,15.004
		C872.916,944.932,868.822,946.469,864.044,946.469z"/>
	<path fill-rule="evenodd" clip-rule="evenodd" fill="#FFFFFF" d="M776.486,841.272h7.424v-9.874h-7.424v-16.384h-9.285
		l-2.196,16.384h-14.903l24.049-52.611h-11.509l-23.314,51.442v11.043h25.677v18.808h11.481V841.272z M716.307,791.814v68.266h11.38
		v-81.293h-11.964l-17.508,14.397l6.874,8.126L716.307,791.814z M651.191,860.08h37.743v-9.874h-25.673v-27.162H686v-9.874h-22.739
		v-24.509h25.673v-9.874h-37.743V860.08z"/>
	<path fill-rule="evenodd" clip-rule="evenodd" fill="#FFFFFF" d="M742.556,920.035v68.284h11.381v-81.294H741.98l-17.552,14.407
		l6.856,8.117L742.556,920.035z M709.121,969.854l3.488,18.466h12.755l-17.982-81.294h-15.795l-17.784,81.294h12.558l3.364-18.466
		H709.121z M691.46,959.979l7.91-43.432l8.012,43.432H691.46z"/>
	<path fill-rule="evenodd" clip-rule="evenodd" d="M168.903,1397.65V540.946l-62.833,16.265c-3.079,0.791-1.028,0.531-4.204,0.531
		c-9.333,0-16.757-7.423-16.757-16.761c0-3.294,0.602-5.53,2.249-8.385l123.447-213.635l123.447,213.635
		c1.643,2.855,2.249,5.104,2.249,8.394c0,9.338-7.423,16.757-16.761,16.757c-3.175,0-1.124,0.264-4.199-0.536l-62.846-16.265
		v856.705H168.903z"/>
	<path fill-rule="evenodd" clip-rule="evenodd" d="M198.455,1027.552h101.99h113.037l-11.719-45.276
		c-0.571-2.214-0.387-0.738-0.387-3.022c0-6.729,5.35-12.07,12.079-12.07c2.363,0,3.984,0.431,6.035,1.617l153.912,88.936
		l-153.912,88.937c-2.051,1.186-3.672,1.625-6.035,1.625c-6.729,0-12.079-5.358-12.079-12.088c0-2.284-0.189-0.809,0.387-3.013
		l11.719-45.276H301.218H198.455V1027.552z"/>
</g>
</svg>
