<?xml version="1.0" encoding="UTF-8" standalone="no"?>
<!-- Created with Inkscape (http://www.inkscape.org/) -->
<svg
   xmlns:dc="http://purl.org/dc/elements/1.1/"
   xmlns:cc="http://web.resource.org/cc/"
   xmlns:rdf="http://www.w3.org/1999/02/22-rdf-syntax-ns#"
   xmlns:svg="http://www.w3.org/2000/svg"
   xmlns="http://www.w3.org/2000/svg"
   xmlns:sodipodi="http://sodipodi.sourceforge.net/DTD/sodipodi-0.dtd"
   xmlns:inkscape="http://www.inkscape.org/namespaces/inkscape"
   version="1.0"
   width="960"
   height="1200"
   id="svg2780"
   sodipodi:version="0.32"
   inkscape:version="0.44"
   sodipodi:docname="Hinweiszeichen_8c.svg"
   sodipodi:docbase="F:\Diverses\Wikipedia\AT-StVZVO">
  <metadata
     id="metadata14517">
    <rdf:RDF>
      <cc:Work
         rdf:about="">
        <dc:format>image/svg+xml</dc:format>
        <dc:type
           rdf:resource="http://purl.org/dc/dcmitype/StillImage" />
      </cc:Work>
    </rdf:RDF>
  </metadata>
  <sodipodi:namedview
     inkscape:window-height="480"
     inkscape:window-width="640"
     inkscape:pageshadow="2"
     inkscape:pageopacity="0.0"
     guidetolerance="10.0"
     gridtolerance="10.0"
     objecttolerance="10.0"
     borderopacity="1.0"
     bordercolor="#666666"
     pagecolor="#ffffff"
     id="base" />
  <defs
     id="defs2782" />
  <path
     style="fill:black;fill-rule:nonzero;stroke:none"
     d="M 935.5945,1200 C 942.1126,1200 948.2399,1197.4675 952.8497,1192.8724 C 957.4595,1188.2887 960,1182.181 960,1175.6837 L 960,24.31624 C 960,17.81892 957.4595,11.7112 952.8497,7.12755 C 948.2399,2.53244 942.1126,-3e-005 935.5945,-3e-005 L 24.40554,-3e-005 C 10.944,-3e-005 3e-005,10.90906 3e-005,24.31624 L 3e-005,1175.6837 C 3e-005,1182.181 2.5291,1188.2887 7.1504,1192.8724 C 11.7602,1197.4675 17.88744,1200 24.40554,1200 L 935.5945,1200 z "
     id="path14525" />
  <path
     style="fill:white;fill-rule:nonzero;stroke:none"
     d="M 24.40554,1191.9786 C 20.03715,1191.9786 15.93316,1190.2826 12.8408,1187.2001 C 9.74844,1184.1291 8.04707,1180.0382 8.04707,1175.6837 L 8.04707,24.31624 C 8.04707,19.97323 9.74844,15.87086 12.8408,12.79982 C 15.93316,9.71731 20.03715,8.02136 24.40554,8.02136 L 935.5945,8.02136 C 939.9629,8.02136 944.0669,9.71731 947.1593,12.79982 C 950.2516,15.87086 951.953,19.97323 951.953,24.31624 L 951.953,1175.6837 C 951.953,1184.6677 944.6187,1191.9786 935.5945,1191.9786 L 24.40554,1191.9786"
     id="path271" />
  <path
     id="path273"
     style="fill:#176fc1;fill-rule:nonzero;stroke:none"
     d="M 37.57969,1162.3223 L 922.3054,1162.3223 L 922.3054,37.32235 L 37.57969,37.32235 L 37.57969,1162.3223 z " />
  <path
     id="path275"
     style="fill:white;fill-rule:nonzero;stroke:none"
     d="M 802.9564,742.66613 L 802.9564,777.05497 L 753.812,777.05497 L 753.812,815.25971 C 753.812,843.6096 730.74,866.58515 702.2879,866.58515 C 673.8359,866.58515 650.7754,843.6096 650.7754,815.25971 L 650.7754,777.05497 L 290.77396,777.05497 L 290.77396,815.25971 C 290.77396,843.6096 267.70195,866.58515 239.24993,866.58515 C 210.79791,866.58515 187.7374,843.6096 187.7374,815.25971 L 187.7374,777.05497 L 138.593,777.05497 L 138.593,742.66613 L 802.9564,742.66613" />
  <path
     id="path277"
     style="fill:white;fill-rule:nonzero;stroke:none"
     d="M 803.9105,591.76086 C 796.7601,569.58744 768.3656,551.44764 738.649,537.91441 L 678.3997,361.9251 L 676.0316,359.56452 C 670.2837,353.84642 625.6227,325.29027 470.7747,325.29027 C 315.9152,325.29027 271.25415,353.84642 265.50626,359.56452 L 263.14963,361.9251 L 202.90032,537.91441 C 173.18376,551.44764 144.78921,569.58744 137.62735,591.76086 C 121.91264,640.50799 137.62735,724.99615 137.62735,724.99615 L 803.9105,724.99615 C 803.9105,724.99615 819.6367,640.50799 803.9105,591.76086 z M 470.7747,487.18484 C 370.10625,488.61724 300.13151,504.37354 267.0467,514.40028 C 259.40201,516.71502 249.29723,519.87774 238.10035,523.8426 L 287.79655,378.68981 C 297.49898,373.01754 347.43659,353.93809 470.7747,353.93809 C 594.1013,353.93809 644.0504,373.01754 653.7528,378.68981 L 703.4375,523.8426 C 692.2406,519.87774 682.1358,516.71502 674.4912,514.40028 C 641.4178,504.37354 571.4316,488.61724 470.7747,487.18484 z M 160.48094,608.94955 C 160.48094,584.33534 180.50656,564.385 205.22246,564.385 C 229.92686,564.385 249.96399,584.33534 249.96399,608.94955 C 249.96399,633.57522 229.92686,653.52556 205.22246,653.52556 C 180.50656,653.52556 160.48094,633.57522 160.48094,608.94955 z M 736.3269,653.52556 C 711.611,653.52556 691.5854,633.57522 691.5854,608.94955 C 691.5854,584.33534 711.611,564.385 736.3269,564.385 C 761.0313,564.385 781.0684,584.33534 781.0684,608.94955 C 781.0684,633.57522 761.0313,653.52556 736.3269,653.52556 z M 470.7747,573.13977 C 588.6868,574.57216 625.5997,598.92281 637.1069,606.08477 C 648.6027,613.25818 647.1657,629.01448 647.1657,629.01448 L 647.1657,669.12144 L 294.37213,669.12144 L 294.37213,629.01448 C 294.37213,629.01448 292.93516,613.25818 304.44243,606.08477 C 315.94969,598.92281 352.8511,574.57216 470.7747,573.13977" />
</svg>
