<?xml version="1.0" encoding="UTF-8" standalone="no"?>
<!-- Created with Inkscape (http://www.inkscape.org/) -->

<svg
   xmlns:dc="http://purl.org/dc/elements/1.1/"
   xmlns:cc="http://creativecommons.org/ns#"
   xmlns:rdf="http://www.w3.org/1999/02/22-rdf-syntax-ns#"
   xmlns:svg="http://www.w3.org/2000/svg"
   xmlns="http://www.w3.org/2000/svg"
   xmlns:sodipodi="http://sodipodi.sourceforge.net/DTD/sodipodi-0.dtd"
   xmlns:inkscape="http://www.inkscape.org/namespaces/inkscape"
   width="960.00098"
   height="1200.0031"
   id="svg2"
   version="1.1"
   inkscape:version="0.47 r22583"
   sodipodi:docname="Hinweiszeichen 2c-b.svg">
  <defs
     id="defs4">
    <inkscape:perspective
       sodipodi:type="inkscape:persp3d"
       inkscape:vp_x="0 : 526.18109 : 1"
       inkscape:vp_y="0 : 1000 : 0"
       inkscape:vp_z="744.09448 : 526.18109 : 1"
       inkscape:persp3d-origin="372.04724 : 350.78739 : 1"
       id="perspective10" />
    <inkscape:perspective
       id="perspective2825"
       inkscape:persp3d-origin="480 : 320 : 1"
       inkscape:vp_z="960 : 480 : 1"
       inkscape:vp_y="0 : 1000 : 0"
       inkscape:vp_x="0 : 480 : 1"
       sodipodi:type="inkscape:persp3d" />
    <inkscape:perspective
       id="perspective2839"
       inkscape:persp3d-origin="0.5 : 0.33333333 : 1"
       inkscape:vp_z="1 : 0.5 : 1"
       inkscape:vp_y="0 : 1000 : 0"
       inkscape:vp_x="0 : 0.5 : 1"
       sodipodi:type="inkscape:persp3d" />
    <inkscape:perspective
       id="perspective2859"
       inkscape:persp3d-origin="345 : 230 : 1"
       inkscape:vp_z="690 : 345 : 1"
       inkscape:vp_y="0 : 1000 : 0"
       inkscape:vp_x="0 : 345 : 1"
       sodipodi:type="inkscape:persp3d" />
    <inkscape:perspective
       id="perspective3691"
       inkscape:persp3d-origin="480 : 320 : 1"
       inkscape:vp_z="960 : 480 : 1"
       inkscape:vp_y="0 : 1000 : 0"
       inkscape:vp_x="0 : 480 : 1"
       sodipodi:type="inkscape:persp3d" />
    <inkscape:perspective
       id="perspective3711"
       inkscape:persp3d-origin="235.3965 : 224 : 1"
       inkscape:vp_z="470.793 : 336 : 1"
       inkscape:vp_y="0 : 1000 : 0"
       inkscape:vp_x="0 : 336 : 1"
       sodipodi:type="inkscape:persp3d" />
    <inkscape:perspective
       id="perspective3725"
       inkscape:persp3d-origin="0.5 : 0.33333333 : 1"
       inkscape:vp_z="1 : 0.5 : 1"
       inkscape:vp_y="0 : 1000 : 0"
       inkscape:vp_x="0 : 0.5 : 1"
       sodipodi:type="inkscape:persp3d" />
    <inkscape:perspective
       id="perspective3743"
       inkscape:persp3d-origin="480 : 400 : 1"
       inkscape:vp_z="960 : 600 : 1"
       inkscape:vp_y="0 : 1000 : 0"
       inkscape:vp_x="0 : 600 : 1"
       sodipodi:type="inkscape:persp3d" />
    <inkscape:perspective
       id="perspective3773"
       inkscape:persp3d-origin="480 : 320 : 1"
       inkscape:vp_z="960 : 480 : 1"
       inkscape:vp_y="0 : 1000 : 0"
       inkscape:vp_x="0 : 480 : 1"
       sodipodi:type="inkscape:persp3d" />
    <inkscape:perspective
       id="perspective3792"
       inkscape:persp3d-origin="480 : 320 : 1"
       inkscape:vp_z="960 : 480 : 1"
       inkscape:vp_y="0 : 1000 : 0"
       inkscape:vp_x="0 : 480 : 1"
       sodipodi:type="inkscape:persp3d" />
    <inkscape:perspective
       id="perspective3808"
       inkscape:persp3d-origin="0.5 : 0.33333333 : 1"
       inkscape:vp_z="1 : 0.5 : 1"
       inkscape:vp_y="0 : 1000 : 0"
       inkscape:vp_x="0 : 0.5 : 1"
       sodipodi:type="inkscape:persp3d" />
    <inkscape:perspective
       id="perspective3855"
       inkscape:persp3d-origin="480 : 400 : 1"
       inkscape:vp_z="960 : 600 : 1"
       inkscape:vp_y="0 : 1000 : 0"
       inkscape:vp_x="0 : 600 : 1"
       sodipodi:type="inkscape:persp3d" />
    <inkscape:perspective
       id="perspective3870"
       inkscape:persp3d-origin="0.5 : 0.33333333 : 1"
       inkscape:vp_z="1 : 0.5 : 1"
       inkscape:vp_y="0 : 1000 : 0"
       inkscape:vp_x="0 : 0.5 : 1"
       sodipodi:type="inkscape:persp3d" />
  </defs>
  <sodipodi:namedview
     id="base"
     pagecolor="#ffffff"
     bordercolor="#666666"
     borderopacity="1.0"
     inkscape:pageopacity="0.0"
     inkscape:pageshadow="2"
     inkscape:zoom="0.29534138"
     inkscape:cx="241.44649"
     inkscape:cy="563.76362"
     inkscape:document-units="px"
     inkscape:current-layer="layer1"
     showgrid="false"
     inkscape:window-width="1600"
     inkscape:window-height="838"
     inkscape:window-x="-8"
     inkscape:window-y="-8"
     inkscape:window-maximized="1" />
  <metadata
     id="metadata7">
    <rdf:RDF>
      <cc:Work
         rdf:about="">
        <dc:format>image/svg+xml</dc:format>
        <dc:type
           rdf:resource="http://purl.org/dc/dcmitype/StillImage" />
        <dc:title></dc:title>
      </cc:Work>
    </rdf:RDF>
  </metadata>
  <g
     inkscape:label="Livello 1"
     inkscape:groupmode="layer"
     id="layer1"
     transform="translate(-331.00578,-231.6232)">
    <g
       transform="translate(-16.553216,1320.8932)"
       id="layer1-4">
      <path
         d="m 384.194,110.733 c -20.226,0 -36.635,-15.0937 -36.635,-33.7259 l 0,-1132.5471 c 0,-18.63 16.409,-33.73 36.635,-33.73 l 886.726,0 c 20.23,0 36.64,15.1 36.64,33.73 l 0,1132.5471 c 0,18.6322 -16.41,33.7259 -36.64,33.7259 l -886.726,0 z"
         style="fill:#176fc1;fill-rule:nonzero;stroke:none"
         id="path2708" />
      <path
         d="m 489.72,-178.223 675.69,0 0,-622.102 -675.69,0 0,622.102 z"
         style="fill:#ffffff;fill-rule:nonzero;stroke:none"
         id="path87" />
    </g>
    <g
       transform="scale(0.75184815,1.3300558)"
       style="font-size:298.49157715px;font-style:normal;font-variant:normal;font-weight:normal;font-stretch:normal;text-align:start;line-height:100%;writing-mode:lr-tb;text-anchor:start;fill:#000000;fill-opacity:1;stroke:none;font-family:Transport Heavy;-inkscape-font-specification:'Transport Heavy,'"
       id="text3878">
      <path
         d="m 718.52959,511.2835 200.69478,0 0,52.76071 -67.3355,0 0,160.90562 -66.02378,0 0,-160.90562 -67.3355,0 z"
         style="font-weight:900;font-family:Arial Black;-inkscape-font-specification:Arial Black Heavy"
         id="path3883" />
      <path
         d="m 999.38568,620.30288 -56.69591,-5.97566 c 2.13762,-9.91073 5.22261,-17.70824 9.25499,-23.39253 4.03233,-5.68403 9.83794,-10.61516 17.41686,-14.79341 5.44121,-3.01197 12.92292,-5.34393 22.44517,-6.99589 9.52211,-1.65165 19.82161,-2.47756 30.89851,-2.47772 17.7812,1.6e-4 32.0644,0.99611 42.8499,2.98784 10.7852,1.99204 19.773,6.14584 26.9633,12.46144 5.0525,4.37257 9.0362,10.56685 11.9514,18.58285 2.9147,8.01624 4.3722,15.668 4.3724,22.95528 l 0,68.35574 c -2e-4,7.28741 0.4614,12.99587 1.3846,17.12537 0.9229,4.12953 2.9391,9.40074 6.0485,15.81364 l -55.6756,0 c -2.235,-3.98377 -3.6924,-7.02018 -4.3725,-9.10924 -0.6802,-2.08904 -1.3604,-5.36837 -2.0404,-9.83798 -7.7734,7.48173 -15.498,12.82582 -23.1739,16.03226 -10.494,4.27527 -22.6882,6.4129 -36.58275,6.41291 -18.46144,-10e-6 -32.47751,-4.27527 -42.04825,-12.82581 -9.57079,-8.55052 -14.35617,-19.09294 -14.35616,-31.62728 -10e-6,-11.75694 3.44935,-21.42487 10.34809,-29.00382 6.89871,-7.57881 19.62734,-13.21439 38.18594,-16.90675 22.25073,-4.46951 36.67973,-7.60309 43.28713,-9.40074 6.6071,-1.79746 13.603,-4.15371 20.9877,-7.06877 -2e-4,-7.28728 -1.5062,-12.38845 -4.5182,-15.30352 -3.0123,-2.91484 -8.3078,-4.37232 -15.8865,-4.37244 -9.7166,1.2e-4 -17.004,1.55477 -21.8622,4.66393 -3.7895,2.42925 -6.8502,6.99601 -9.18212,13.7003 z m 51.44902,31.19004 c -8.162,2.91502 -16.664,5.4899 -25.5059,7.72463 -12.0486,3.20652 -19.676,6.36438 -22.8824,9.47361 -3.30371,3.20651 -4.95551,6.8502 -4.95544,10.93109 -7e-5,4.66397 1.62744,8.4777 4.88254,11.44121 3.255,2.96357 8.0403,4.44533 14.3562,4.44531 6.6071,2e-5 12.7528,-1.6032 18.4371,-4.80968 5.684,-3.20642 9.7164,-7.11731 12.097,-11.7327 2.3805,-4.6153 3.5707,-10.61525 3.5709,-17.99986 z"
         style="font-weight:900;font-family:Arial Black;-inkscape-font-specification:Arial Black Heavy"
         id="path3885" />
      <path
         d="m 1131.2875,570.16562 70.3962,0 24.6314,43.14136 28.5665,-43.14136 65.4408,0 -52.7607,73.74841 56.5502,81.0358 -69.2303,0 -28.5665,-49.84576 -33.6678,49.84576 -64.2748,0 56.2587,-81.0358 z"
         style="font-weight:900;font-family:Arial Black;-inkscape-font-specification:Arial Black Heavy"
         id="path3887" />
      <path
         d="m 1346.2655,511.2835 59.3194,0 0,40.37215 -59.3194,0 z m 0,58.88212 59.3194,0 0,154.78421 -59.3194,0 z"
         style="font-weight:900;font-family:Arial Black;-inkscape-font-specification:Arial Black Heavy"
         id="path3889" />
    </g>
  </g>
</svg>
