<?xml version="1.0" encoding="UTF-8" standalone="no"?>
<!-- Created with Inkscape (http://www.inkscape.org/) -->
<svg
   xmlns:svg="http://www.w3.org/2000/svg"
   xmlns="http://www.w3.org/2000/svg"
   version="1.0"
   width="1740"
   height="460"
   id="svg24472">
  <defs
     id="defs24474" />
  <g
     transform="translate(-307.167,-84.17818)"
     id="layer1">
    <path
       d="M 2028.5211,102.02771 C 2016.517,90.523813 2000.5319,84.17818 1983.5313,84.17818 L 370.80275,84.17818 C 335.70458,84.17818 307.167,111.50723 307.167,145.12351 L 307.167,483.25232 C 307.167,499.52517 313.78853,514.82476 325.79259,526.32865 C 337.81697,537.83255 353.80207,544.17818 370.80275,544.17818 L 1983.5313,544.17818 C 2000.5319,544.17818 2016.517,537.83255 2028.5211,526.32865 C 2040.5455,514.82476 2047.167,499.52517 2047.167,483.25232 L 2047.167,145.12351 C 2047.167,128.83119 2040.5455,113.5316 2028.5211,102.02771"
       style="fill:black;fill-rule:nonzero;stroke:none"
       id="path21377" />
    <path
       d="M 1806.5577,503.90482 L 2005.1223,314.43123 L 1806.5577,124.45154 L 349.21169,124.45154 L 349.21169,503.90482 L 1806.5577,503.90482"
       style="fill:#fff100;fill-rule:nonzero;stroke:none"
       id="path21391" />
    <path
       d="M 772.52245,349.0597 C 774.95982,385.0118 806.17851,413.45035 844.34371,413.45035 C 884.0932,413.45035 916.32746,382.57865 916.32746,344.50486 L 916.32746,195.9275 L 884.33694,195.9275 L 884.33694,344.50486 C 884.33694,365.66345 866.42225,382.81224 844.34371,382.81224 C 823.86978,382.81224 806.99097,368.05767 804.63484,349.0597 L 772.52245,349.0597"
       style="fill:black;fill-rule:nonzero;stroke:none"
       id="path21393" />
    <path
       d="M 442.4412,362.0624 C 445.08169,394.64704 476.28007,420.28261 514.30309,420.28261 C 554.05258,420.28261 586.26653,392.1555 586.26653,357.46863 C 586.26653,322.78177 554.05258,294.65465 514.30309,294.65465 C 492.20424,294.65465 474.30986,280.25045 474.30986,262.47879 C 474.30986,244.72659 492.20424,230.32239 514.30309,230.32239 C 533.00992,230.32239 548.81223,240.85303 553.17919,254.82899 L 585.69781,254.82899 C 581.31053,223.80157 551.02617,199.68427 514.30309,199.68427 C 474.53328,199.68427 442.31934,227.79192 442.31934,262.47879 C 442.31934,297.16565 474.53328,325.29277 514.30309,325.29277 C 536.38162,325.29277 554.276,339.69697 554.276,357.46863 C 554.276,375.2403 536.38162,389.6445 514.30309,389.6445 C 494.13382,389.6445 477.45813,377.63451 474.69577,362.02347 L 442.4412,362.0624"
       style="fill:black;fill-rule:nonzero;stroke:none"
       id="path21395" />
    <path
       d="M 1072.5225,317.27314 L 1072.5225,317.27314 C 1072.5225,283.42327 1043.863,255.9969 1008.5414,255.9969 C 973.1995,255.9969 944.56036,283.42327 944.56036,317.27314 L 944.56036,354.04277 C 944.56036,387.89263 973.1995,415.31901 1008.5414,415.31901 C 1043.863,415.31901 1072.5225,387.89263 1072.5225,354.04277 L 1072.5225,317.27314 z M 1008.5414,384.68089 C 990.87045,384.68089 976.55089,370.95797 976.55089,354.04277 L 976.55089,317.27314 C 976.55089,300.35794 990.87045,286.63502 1008.5414,286.63502 C 1026.2124,286.63502 1040.5319,300.35794 1040.5319,317.27314 L 1040.5319,354.04277 C 1040.5319,370.95797 1026.2124,384.68089 1008.5414,384.68089"
       style="fill:black;fill-rule:nonzero;stroke:none"
       id="path21397" />
    <path
       d="M 1498.2097,257.18427 C 1487.0993,257.18427 1475.9889,261.25249 1466.2191,267.94849 L 1466.2191,260.25976 L 1434.2286,260.25976 L 1434.2286,413.45035 L 1466.2191,413.45035 L 1466.2191,318.46051 C 1466.2191,301.54531 1480.5387,287.82239 1498.2097,287.82239 C 1515.8806,287.82239 1530.2002,301.54531 1530.2002,318.46051 L 1530.2002,413.45035 L 1562.1907,413.45035 L 1562.1907,318.46051 C 1562.1907,284.63011 1533.5516,257.18427 1498.2097,257.18427"
       style="fill:black;fill-rule:nonzero;stroke:none"
       id="path21399" />
    <path
       d="M 1169.8143,257.18427 C 1158.7039,257.18427 1147.5935,261.25249 1137.8237,267.94849 L 1137.8237,198.96406 L 1105.8332,198.96406 L 1105.8332,413.45035 L 1137.8237,413.45035 L 1137.8237,318.46051 C 1137.8237,301.54531 1152.1433,287.82239 1169.8143,287.82239 C 1187.4852,287.82239 1201.8048,301.54531 1201.8048,318.46051 L 1201.8048,413.45035 L 1233.7953,413.45035 L 1233.7953,318.46051 C 1233.7953,284.63011 1205.1562,257.18427 1169.8143,257.18427"
       style="fill:black;fill-rule:nonzero;stroke:none"
       id="path21401" />
    <path
       d="M 689.12367,260.2403 L 666.74046,260.2403 L 666.74046,198.96406 L 634.74994,214.30259 L 634.74994,260.2403 L 612.34642,260.2403 L 612.34642,290.89788 L 634.74994,290.89788 L 634.74994,413.45035 L 666.74046,413.45035 L 666.74046,290.89788 L 689.12367,290.89788 L 689.12367,260.2403"
       style="fill:black;fill-rule:nonzero;stroke:none"
       id="path21403" />
    <path
       d="M 713.55833,383.04582 L 745.54886,383.04582 L 745.54886,413.68393 L 713.55833,413.68393 L 713.55833,383.04582 z "
       style="fill:black;fill-rule:nonzero;stroke:none"
       id="path21405" />
    <path
       d="M 1342.3396,257.18427 C 1313.7208,257.18427 1289.2862,275.24792 1281.121,300.08542 L 1316.7472,300.08542 C 1322.5969,292.70814 1331.9402,287.82239 1342.3396,287.82239 C 1360.0106,287.82239 1374.3302,301.54531 1374.3302,318.46051 C 1366.9977,322.84016 1326.3545,321.536 1326.3545,321.536 C 1298.081,321.536 1275.1697,340.41718 1275.1697,367.49318 C 1275.1697,394.56918 1298.081,416.50638 1326.3545,416.50638 C 1326.3545,416.50638 1358.0607,419.77652 1374.3302,402.82239 L 1374.3302,413.45035 L 1406.3207,413.45035 L 1406.3207,318.46051 C 1406.3207,284.63011 1377.6816,257.18427 1342.3396,257.18427 z M 1374.3302,367.49318 C 1367.668,391.94138 1326.3545,385.86826 1326.3545,385.86826 C 1317.5191,385.86826 1307.1602,378.23793 1307.1602,367.49318 C 1307.1602,357.15719 1317.5191,349.09863 1326.3545,349.09863 C 1326.3545,349.09863 1370.8569,350.26653 1374.3302,342.96711 L 1374.3302,367.49318"
       style="fill:black;fill-rule:nonzero;stroke:none"
       id="path21407" />
    <path
       d="M 1665.6775,257.18427 C 1654.5671,257.18427 1643.4568,261.25249 1633.687,267.94849 L 1633.687,260.25976 L 1601.6965,260.25976 L 1601.6965,413.45035 L 1633.687,413.45035 L 1633.687,318.46051 C 1633.687,301.54531 1648.0065,287.82239 1665.6775,287.82239 C 1683.3281,287.82239 1697.668,301.54531 1697.668,318.46051 L 1697.668,413.45035 L 1729.6585,413.45035 L 1729.6585,318.46051 C 1729.6585,284.63011 1700.9991,257.18427 1665.6775,257.18427"
       style="fill:black;fill-rule:nonzero;stroke:none"
       id="path21409" />
  </g>
</svg>
