<?xml version="1.0" encoding="UTF-8" standalone="no"?>
<!-- Created with Inkscape (http://www.inkscape.org/) -->
<svg
   xmlns:svg="http://www.w3.org/2000/svg"
   xmlns="http://www.w3.org/2000/svg"
   version="1.0"
   width="480"
   height="480"
   id="svg26776">
  <defs
     id="defs26778" />
  <g
     transform="translate(-488.2274,78.72239)"
     id="layer1">
    <path
       d="M 728.22743,401.27761 C 860.77353,401.27761 968.22743,293.82371 968.22743,161.27761 C 968.22743,28.731506 860.77353,-78.72239 728.22743,-78.72239 C 595.68133,-78.72239 488.22743,28.731506 488.22743,161.27761 C 488.22743,293.82371 595.68133,401.27761 728.22743,401.27761"
       style="fill:#fff100;fill-rule:nonzero;stroke:none"
       id="path26403" />
    <path
       d="M 790.1727,236.58398 C 790.1727,250.46857 798.89965,258.40432 810.80328,258.40432 C 822.70691,258.40432 829.85146,250.46857 829.85146,237.37517 L 829.85146,173.85346 C 829.85146,162.74102 821.91571,153.6155 810.80328,153.6155 C 796.91869,153.6155 792.55224,164.32936 790.1727,169.09439 L 751.7194,169.09439 L 751.7194,16.726747 L 857.97758,16.726747 L 857.97758,54.81717 L 790.1727,54.81717 L 790.1727,131.00396 C 797.70988,123.85941 809.61351,117.90462 823.90262,117.90462 C 851.27918,117.90462 870.32142,135.36446 870.32142,167.90462 L 870.32142,238.16637 C 870.32142,275.86417 842.15366,298.87428 810.01208,298.87428 C 777.8705,298.87428 749.70274,274.48998 749.70274,236.79813 L 790.1727,236.58398"
       style="fill:black;fill-rule:nonzero;stroke:none"
       id="path26405" />
    <path
       d="M 626.71642,259.67737 L 700.91631,97.981953 L 700.86277,97.857027 C 703.95021,90.623238 705.66348,82.651792 705.66348,74.287723 C 705.66348,41.105094 678.75688,14.19849 645.5683,14.19849 C 612.37972,14.19849 585.47907,41.105094 585.47907,74.287723 L 625.25301,74.287723 C 625.25301,63.068211 634.34879,53.972435 645.5683,53.972435 C 656.78781,53.972435 665.88359,63.068211 665.88359,74.287723 C 665.88359,74.287723 667.64444,80.337693 664.62243,88.20206 L 586.39519,259.67737 L 586.39519,299.99861 L 708.17389,299.99861 L 708.17389,259.67737 L 626.71642,259.67737"
       style="fill:black;fill-rule:nonzero;stroke:none"
       id="path26407" />
  </g>
</svg>
