<?xml version="1.0" encoding="UTF-8" standalone="no"?>
<!-- Created with Inkscape (http://www.inkscape.org/) -->
<svg
   xmlns:svg="http://www.w3.org/2000/svg"
   xmlns="http://www.w3.org/2000/svg"
   version="1.0"
   width="1600"
   height="2500"
   id="svg29316">
  <defs
     id="defs29318" />
  <g
     transform="translate(-648.9524,1343.37)"
     id="layer1">
    <path
       d="M 2218.3323,-1312.8799 C 2198.5758,-1332.5415 2172.32,-1343.37 2144.3982,-1343.37 L 753.51825,-1343.37 C 695.85625,-1343.37 648.95236,-1296.6722 648.95236,-1239.2743 L 648.95236,1052.5343 C 648.95236,1080.3406 659.82778,1106.4783 679.58419,1126.1516 C 699.32888,1145.8015 725.58474,1156.63 753.51825,1156.63 L 2144.3982,1156.63 C 2172.32,1156.63 2198.5758,1145.8015 2218.3323,1126.1516 C 2238.0769,1106.4783 2248.9524,1080.3406 2248.9524,1052.5343 L 2248.9524,-1239.2743 C 2248.9524,-1267.0689 2238.0769,-1293.2183 2218.3323,-1312.8799 z "
       style="fill:black;fill-rule:nonzero;stroke:none"
       id="path29358" />
    <path
       d="M 698.22609,-1294.3151 C 712.99647,-1309.0176 732.63557,-1317.1156 753.51825,-1317.1156 L 1430.3867,-1317.1156 L 1430.3867,-1128.7142 C 1430.3633,-1127.7224 1426.9376,-999.05255 1381.7113,-897.75731 C 1337.7052,-799.18087 1279.8203,-731.14118 1275.6438,-726.31037 L 801.23164,-248.21274 L 800.9618,-247.94436 L 800.71544,-247.65264 C 798.02884,-244.6188 734.61825,-172.55345 707.74061,-113.10186 C 696.97078,-89.286219 685.37972,-56.847473 675.32554,-26.415728 L 675.32554,-1239.2743 C 675.32554,-1260.0678 683.4557,-1279.6127 698.22609,-1294.3151 z "
       style="fill:white;fill-rule:nonzero;stroke:none"
       id="path29356" />
    <path
       d="M 2222.5792,1052.5343 C 2222.5792,1095.4631 2187.5127,1130.3756 2144.3982,1130.3756 L 753.51825,1130.3756 C 732.63557,1130.3756 712.99647,1122.2776 698.22609,1107.5868 C 683.4557,1092.8727 675.32554,1073.3278 675.32554,1052.5343 L 675.32554,694.50623 L 2222.5792,694.50623 L 2222.5792,1052.5343 z "
       style="fill:white;fill-rule:nonzero;stroke:none"
       id="path29354" />
    <path
       d="M 2222.5792,674.08615 L 675.32554,674.08615 L 675.32554,62.837497 C 681.9071,40.142044 709.26575,-52.49508 731.79088,-102.32006 C 756.25176,-156.42742 816.01375,-225.17889 820.27241,-230.0447 L 1294.7197,-708.16568 L 1295.0013,-708.4574 L 1295.2594,-708.74911 C 1297.8287,-711.66626 1358.6583,-781.46791 1405.8085,-887.0922 C 1453.2286,-993.29992 1456.6426,-1122.9616 1456.7599,-1128.4225 C 1456.7599,-1128.6675 1456.7716,-1272.7049 1456.7716,-1317.1156 L 2144.3982,-1317.1156 C 2165.2809,-1317.1156 2184.9082,-1309.0176 2199.6786,-1294.3151 C 2214.449,-1279.6127 2222.5792,-1260.0678 2222.5792,-1239.2743 L 2222.5792,674.08615"
       style="fill:white;fill-rule:nonzero;stroke:none"
       id="path28797" />
    <path
       d="M 1809.9821,-598.84291 C 1821.2212,-598.84291 1831.7916,-603.1953 1839.7341,-611.10662 C 1847.6765,-619.01794 1852.0525,-629.53136 1852.0525,-640.70989 L 1852.0525,-1136.1121 C 1852.0525,-1159.2043 1833.1877,-1177.9907 1809.9821,-1177.9907 L 1669.8453,-1177.9907 C 1646.6515,-1177.9907 1627.7749,-1159.2043 1627.7749,-1136.1121 L 1627.7749,-640.70989 C 1627.7749,-629.53136 1632.1509,-619.01794 1640.1051,-611.10662 C 1648.0475,-603.1953 1658.6062,-598.84291 1669.8453,-598.84291 L 1809.9821,-598.84291 z M 1801.0777,-1168.6558 L 1825.6676,-1006.8005 C 1823.1452,-1008.7258 1821.233,-1009.7177 1821.233,-1009.7177 C 1821.233,-1009.7177 1800.186,-1018.9242 1744.6006,-1019.4143 L 1744.6006,-1104.7702 L 1735.2268,-1104.7702 L 1735.2268,-1019.4143 C 1679.6414,-1018.9242 1658.6062,-1009.7177 1658.6062,-1009.7177 C 1658.6062,-1009.7177 1656.6822,-1008.7258 1654.1598,-1006.8005 L 1678.7615,-1168.6558 L 1801.0777,-1168.6558"
       style="fill:black;fill-rule:nonzero;stroke:none"
       id="path28799" />
    <path
       d="M 1809.9821,-608.1778 C 1818.7223,-608.1778 1826.9229,-611.5617 1833.1056,-617.69939 C 1839.2765,-623.84875 1842.6788,-632.02844 1842.6788,-640.70989 L 1842.6788,-1136.1121 C 1842.6788,-1144.8052 1839.2765,-1152.9732 1833.1056,-1159.1226 C 1827.0519,-1165.1436 1819.0508,-1168.4925 1810.5335,-1168.6325 L 1837.2235,-990.17273 C 1837.5989,-988.51579 1837.8452,-986.77717 1837.8452,-984.91019 L 1837.8452,-727.4889 C 1837.8452,-718.36405 1826.4888,-707.3022 1817.3145,-707.3022 C 1817.3145,-707.3022 1785.3335,-697.82729 1739.9196,-697.82729 C 1694.4939,-697.82729 1662.5246,-707.3022 1662.5246,-707.3022 C 1653.3503,-707.3022 1641.9939,-718.36405 1641.9939,-727.4889 L 1641.9939,-984.91019 C 1641.9939,-986.77717 1642.2285,-988.51579 1642.6157,-990.17273 L 1669.3056,-1168.6325 C 1660.7766,-1168.4925 1652.7755,-1165.1436 1646.7336,-1159.1226 C 1640.5626,-1152.9732 1637.1604,-1144.8052 1637.1604,-1136.1121 L 1637.1604,-640.70989 C 1637.1604,-632.02844 1640.5626,-623.84875 1646.7336,-617.69939 C 1652.9045,-611.5617 1661.1168,-608.1778 1669.8453,-608.1778 L 1809.9821,-608.1778"
       style="fill:white;fill-rule:nonzero;stroke:none"
       id="path28801" />
    <path
       d="M 1739.9196,-772.93815 C 1758.233,-772.93815 1776.781,-776.70712 1776.781,-776.70712 C 1797.7927,-782.42474 1805.8525,-786.06535 1805.8525,-813.91833 L 1805.8525,-902.61146 C 1805.8525,-923.17156 1801.4531,-934.11671 1778.7402,-939.95102 C 1778.7402,-939.95102 1756.7665,-944.32675 1739.9196,-944.32675 C 1723.0609,-944.32675 1701.0872,-939.95102 1701.0872,-939.95102 C 1678.3743,-934.11671 1673.9866,-923.17156 1673.9866,-902.61146 L 1673.9866,-813.91833 C 1673.9866,-786.06535 1682.0347,-782.42474 1703.0581,-776.70712 C 1703.0581,-776.70712 1721.6062,-772.93815 1739.9196,-772.93815"
       style="fill:white;fill-rule:nonzero;stroke:none"
       id="path28803" />
    <path
       d="M 1430.3867,-373.17192 L 1456.7599,-373.17192 L 1456.7599,-670.72157 L 1430.3867,-670.72157 L 1430.3867,-373.17192 z "
       style="fill:black;fill-rule:nonzero;stroke:none"
       id="path28805" />
    <path
       d="M 1430.3867,548.64856 L 1456.7599,548.64856 L 1456.7599,251.09891 L 1430.3867,251.09891 L 1430.3867,548.64856 z "
       style="fill:black;fill-rule:nonzero;stroke:none"
       id="path28807" />
    <path
       d="M 1809.9821,558.66023 C 1821.2212,558.66023 1831.7916,554.30783 1839.7341,546.39651 C 1847.6765,538.48519 1852.0525,527.97177 1852.0525,516.78157 L 1852.0525,21.390582 C 1852.0525,-1.7016048 1833.1877,-20.488073 1809.9821,-20.488073 L 1669.8453,-20.488073 C 1646.6515,-20.488073 1627.7749,-1.7016048 1627.7749,21.390582 L 1627.7749,516.78157 C 1627.7749,527.97177 1632.1509,538.48519 1640.1051,546.39651 C 1648.0475,554.30783 1658.6062,558.66023 1669.8453,558.66023 L 1809.9821,558.66023 z M 1801.0777,-11.153182 L 1825.6676,150.70216 C 1823.1452,148.77684 1821.233,147.785 1821.233,147.785 C 1821.233,147.785 1800.186,138.57847 1744.6006,138.08839 L 1744.6006,52.732478 L 1735.2268,52.732478 L 1735.2268,138.08839 C 1679.6414,138.57847 1658.6062,147.785 1658.6062,147.785 C 1658.6062,147.785 1656.6822,148.77684 1654.1598,150.70216 L 1678.7615,-11.153182 L 1801.0777,-11.153182"
       style="fill:black;fill-rule:nonzero;stroke:none"
       id="path28809" />
    <path
       d="M 1809.9821,549.32534 C 1818.7223,549.32534 1826.9229,545.94144 1833.1056,539.79208 C 1839.2765,533.65439 1842.6788,525.47469 1842.6788,516.78157 L 1842.6788,21.390582 C 1842.6788,12.697464 1839.2765,4.5294348 1833.1056,-1.6199245 C 1827.0519,-7.6409292 1819.0508,-10.989821 1810.5335,-11.129845 L 1837.2235,167.32993 C 1837.5989,168.98688 1837.8452,170.7255 1837.8452,172.59248 L 1837.8452,430.01376 C 1837.8452,439.13862 1826.4888,450.18879 1817.3145,450.18879 C 1817.3145,450.18879 1785.3335,459.67538 1739.9196,459.67538 C 1694.4939,459.67538 1662.5246,450.18879 1662.5246,450.18879 C 1653.3503,450.18879 1641.9939,439.13862 1641.9939,430.01376 L 1641.9939,172.59248 C 1641.9939,170.7255 1642.2285,168.98688 1642.6157,167.32993 L 1669.3056,-11.129845 C 1660.7766,-10.989821 1652.7755,-7.6409292 1646.7336,-1.6199245 C 1640.5626,4.5294348 1637.1604,12.697464 1637.1604,21.390582 L 1637.1604,516.78157 C 1637.1604,525.47469 1640.5626,533.65439 1646.7336,539.79208 C 1652.9045,545.94144 1661.1168,549.32534 1669.8453,549.32534 L 1809.9821,549.32534"
       style="fill:white;fill-rule:nonzero;stroke:none"
       id="path28811" />
    <path
       d="M 1739.9196,384.55284 C 1758.233,384.55284 1776.781,380.79555 1776.781,380.79555 C 1797.7927,375.07793 1805.8525,371.42565 1805.8525,343.57267 L 1805.8525,254.87954 C 1805.8525,234.33111 1801.4531,223.38595 1778.7402,217.55164 C 1778.7402,217.55164 1756.7665,213.17591 1739.9196,213.17591 C 1723.0609,213.17591 1701.0872,217.55164 1701.0872,217.55164 C 1678.3743,223.38595 1673.9866,234.33111 1673.9866,254.87954 L 1673.9866,343.57267 C 1673.9866,371.42565 1682.0347,375.07793 1703.0581,380.79555 C 1703.0581,380.79555 1721.6062,384.55284 1739.9196,384.55284"
       style="fill:white;fill-rule:nonzero;stroke:none"
       id="path28813" />
    <path
       d="M 1121.7103,296.75819 C 1129.6528,304.66951 1140.2231,309.02191 1151.4622,309.02191 C 1162.6896,309.02191 1173.26,304.66951 1181.2025,296.75819 L 1533.099,-53.533586 C 1549.5001,-69.869646 1549.5001,-96.439079 1533.099,-112.76347 L 1434.0001,-211.40993 C 1417.599,-227.73432 1390.9091,-227.73432 1374.508,-211.40993 L 1022.6114,138.89352 C 1014.669,146.80484 1010.293,157.31826 1010.293,168.50846 C 1010.293,179.68699 1014.669,190.21208 1022.6232,198.11173 L 1121.7103,296.75819 z M 1520.1588,-112.43675 L 1422.5851,19.325237 C 1422.1627,16.198048 1421.5175,14.132704 1421.5175,14.132704 C 1421.5175,14.132704 1413.1761,-7.1858532 1374.2264,-46.660773 L 1434.8566,-107.01084 L 1428.2281,-113.61528 L 1367.5979,-53.25354 C 1327.9443,-92.028343 1306.522,-100.3364 1306.522,-100.3364 C 1306.522,-100.3364 1304.4572,-100.97817 1301.313,-101.39824 L 1433.6716,-198.52778 L 1520.1588,-112.43675"
       style="fill:black;fill-rule:nonzero;stroke:none"
       id="path28815" />
    <path
       d="M 1128.3388,290.16543 C 1134.5097,296.30312 1142.722,299.68702 1151.4622,299.68702 C 1160.1907,299.68702 1168.403,296.30312 1174.574,290.16543 L 1526.4588,-60.138022 C 1532.6414,-66.287381 1536.0437,-74.455411 1536.0437,-83.148528 C 1536.0437,-91.654947 1532.7588,-99.659616 1526.8342,-105.7623 L 1418.9482,39.220223 C 1418.0331,40.655463 1416.9655,42.055696 1415.6515,43.37425 L 1232.7991,225.39295 C 1226.3114,231.85737 1210.4265,231.67067 1203.9388,225.21792 C 1203.9388,225.21792 1174.5974,209.41862 1142.4757,177.44662 C 1110.3656,145.47462 1094.4807,116.25641 1094.4807,116.25641 C 1087.993,109.80367 1087.817,93.992695 1094.3047,87.539952 L 1277.1572,-94.49042 C 1278.4829,-95.808974 1279.8907,-96.870817 1281.3337,-97.769301 L 1426.9728,-205.16722 C 1420.837,-211.07154 1412.8007,-214.33875 1404.2482,-214.33875 C 1395.5197,-214.33875 1387.3191,-210.95485 1381.1365,-204.80549 L 1029.2517,145.49796 C 1023.069,151.63565 1019.6785,159.81534 1019.6785,168.50846 C 1019.6785,177.20158 1023.069,185.36961 1029.2517,191.51897 L 1128.3388,290.16543"
       style="fill:white;fill-rule:nonzero;stroke:none"
       id="path28817" />
    <path
       d="M 1195.8321,124.33109 C 1208.784,137.22491 1224.5751,147.60997 1224.5751,147.60997 C 1243.4985,158.35677 1251.7812,161.46062 1271.5611,141.764 L 1334.5728,79.045201 C 1349.1672,64.517777 1353.8365,53.677635 1341.9169,33.560946 C 1341.9169,33.560946 1329.4812,14.996181 1317.5734,3.1408698 C 1305.6538,-8.7144416 1287.0119,-21.094841 1287.0119,-21.094841 C 1266.8097,-32.961821 1255.9225,-28.306044 1241.3281,-13.77862 L 1178.3164,48.940178 C 1158.5365,68.636798 1161.6455,76.886508 1172.4505,95.71965 C 1172.4505,95.71965 1182.8801,111.43727 1195.8321,124.33109"
       style="fill:white;fill-rule:nonzero;stroke:none"
       id="path28819" />
    <path
       d="M 1753.2587,-385.98406 L 1713.1827,-545.28397 L 1587.218,-439.23961 C 1581.9973,-435.84404 1580.5308,-428.87788 1583.9448,-423.68535 C 1586.0917,-420.40647 1589.6816,-418.62117 1593.342,-418.6095 L 1636.8554,-416.15909 C 1625.6984,-389.35629 1588.2034,-307.60598 1522.0828,-242.90352 L 1567.2738,-197.13921 C 1646.4637,-274.63048 1688.1118,-370.49981 1698.5179,-396.66084 L 1736.1771,-372.78685 C 1739.1687,-370.67484 1743.1224,-370.04473 1746.7944,-371.45663 C 1752.6134,-373.69701 1755.4995,-380.19642 1753.2587,-385.98406"
       style="fill:black;fill-rule:nonzero;stroke:none"
       id="path28821" />
    <path
       d="M 711.95234,765.24136 L 797.40706,765.24136 L 797.40706,793.8178 L 740.62495,793.8178 L 740.62495,849.43041 L 790.09812,849.43041 L 790.09812,878.00684 L 740.62495,878.00684 L 740.62495,946.84 L 797.40706,946.84 L 797.40706,977.20173 L 711.95234,977.20173 L 711.95234,765.24136"
       style="fill:black;fill-rule:nonzero;stroke:none"
       id="path28823" />
    <path
       d="M 814.23051,826.26821 L 842.90313,826.26821 L 842.90313,977.20173 L 814.23051,977.20173 L 814.23051,826.26821 z M 814.23051,765.24136 L 842.90313,765.24136 L 842.90313,795.60309 L 814.23051,795.60309 L 814.23051,765.24136 z "
       style="fill:black;fill-rule:nonzero;stroke:none"
       id="path28825" />
    <path
       d="M 866.46066,826.26821 L 895.13328,826.26821 L 895.13328,840.85398 L 895.69641,840.85398 C 901.59752,831.33239 909.46959,824.48291 922.67964,824.48291 C 937.02768,824.48291 952.19695,834.30789 952.19695,861.40241 L 952.19695,977.20173 L 923.52433,977.20173 L 923.52433,872.70929 C 923.52433,861.69412 918.46791,854.84465 909.46959,854.84465 C 898.79361,854.84465 895.13328,862.28922 895.13328,875.68479 L 895.13328,977.20173 L 866.46066,977.20173 L 866.46066,826.26821"
       style="fill:black;fill-rule:nonzero;stroke:none"
       id="path28827" />
    <path
       d="M 973.2556,876.87499 C 973.2556,864.66962 974.66342,853.95783 978.59359,846.22154 C 985.33939,833.11769 998.56118,824.48291 1015.983,824.48291 C 1033.4165,824.48291 1046.6265,833.11769 1053.3723,846.22154 C 1057.3142,853.95783 1058.7103,864.66962 1058.7103,876.87499 L 1058.7103,926.59495 C 1058.7103,938.80032 1057.3142,949.51211 1053.3723,957.26007 C 1046.6265,970.35225 1033.4165,978.98703 1015.983,978.98703 C 998.56118,978.98703 985.33939,970.35225 978.59359,957.26007 C 974.66342,949.51211 973.2556,938.80032 973.2556,926.59495 L 973.2556,876.87499 z M 1001.9282,931.35575 C 1001.9282,942.6743 1007.2662,948.62529 1015.983,948.62529 C 1024.6997,948.62529 1030.0377,942.6743 1030.0377,931.35575 L 1030.0377,872.11419 C 1030.0377,860.80731 1024.6997,854.84465 1015.983,854.84465 C 1007.2662,854.84465 1001.9282,860.80731 1001.9282,872.11419 L 1001.9282,931.35575"
       style="fill:black;fill-rule:nonzero;stroke:none"
       id="path28829" />
    <path
       d="M 1079.7572,826.26821 L 1108.4299,826.26821 L 1108.4299,842.34756 C 1120.2321,831.33239 1129.7935,824.48291 1146.3824,824.48291 L 1146.3824,856.62994 C 1143.5667,855.43975 1140.7628,854.84465 1137.6656,854.84465 C 1125.5818,854.84465 1108.4299,862.88432 1108.4299,887.59844 L 1108.4299,977.20173 L 1079.7572,977.20173 L 1079.7572,826.26821"
       style="fill:black;fill-rule:nonzero;stroke:none"
       id="path28831" />
    <path
       d="M 1214.9198,963.51444 C 1207.6108,972.13755 1201.9913,978.98703 1187.655,978.98703 C 1176.1226,978.98703 1167.6874,974.51795 1162.631,964.70464 C 1159.2639,958.14688 1157.8561,948.91701 1157.8561,932.25423 L 1157.8561,874.79798 C 1157.8561,853.05935 1158.7008,844.42457 1162.3494,838.18187 C 1167.136,830.14219 1174.1633,824.48291 1187.9365,824.48291 C 1199.1756,824.48291 1208.174,830.14219 1214.3566,839.96716 L 1214.9198,839.96716 L 1214.9198,765.24136 L 1243.5924,765.24136 L 1243.5924,977.20173 L 1214.9198,977.20173 L 1214.9198,963.51444 z M 1186.5287,928.07687 C 1186.5287,940.2939 1190.7404,948.62529 1200.5835,948.62529 C 1209.3002,948.62529 1214.9198,940.87733 1214.9198,929.87383 L 1214.9198,871.21571 C 1214.9198,861.69412 1208.7371,854.84465 1200.5835,854.84465 C 1189.6259,854.84465 1186.5287,863.1877 1186.5287,872.70929 L 1186.5287,928.07687"
       style="fill:black;fill-rule:nonzero;stroke:none"
       id="path28833" />
    <path
       d="M 1267.1734,826.26821 L 1295.8577,826.26821 L 1295.8577,840.85398 L 1296.4091,840.85398 C 1302.322,831.33239 1310.194,824.48291 1323.4041,824.48291 C 1337.7404,824.48291 1352.9214,834.30789 1352.9214,861.40241 L 1352.9214,977.20173 L 1324.2488,977.20173 L 1324.2488,872.70929 C 1324.2488,861.69412 1319.1806,854.84465 1310.194,854.84465 C 1299.5063,854.84465 1295.8577,862.28922 1295.8577,875.68479 L 1295.8577,977.20173 L 1267.1734,977.20173 L 1267.1734,826.26821"
       style="fill:black;fill-rule:nonzero;stroke:none"
       id="path28835" />
    <path
       d="M 1402.6409,913.19938 L 1402.6409,933.73614 C 1402.6409,943.2694 1407.9906,948.62529 1416.7074,948.62529 C 1427.6649,948.62529 1430.199,939.99052 1430.7621,933.44443 L 1459.4348,933.44443 C 1459.4348,945.94151 1455.2113,957.55178 1447.9024,965.59146 C 1440.3119,973.92285 1429.9175,978.98703 1416.7074,978.98703 C 1399.2739,978.98703 1386.0638,970.35225 1379.318,957.26007 C 1375.3761,949.51211 1373.9683,938.80032 1373.9683,926.59495 L 1373.9683,876.87499 C 1373.9683,864.66962 1375.3761,853.95783 1379.318,846.22154 C 1386.0638,833.11769 1399.2739,824.48291 1416.7074,824.48291 C 1443.1275,824.48291 1459.4348,845.01967 1459.4348,871.51909 L 1459.4348,913.19938 L 1402.6409,913.19938 z M 1402.6409,889.38374 L 1430.7621,889.38374 L 1430.7621,872.11419 C 1430.7621,860.80731 1425.4124,854.84465 1416.7074,854.84465 C 1407.9906,854.84465 1402.6409,860.80731 1402.6409,872.11419 L 1402.6409,889.38374"
       style="fill:black;fill-rule:nonzero;stroke:none"
       id="path28837" />
    <path
       d="M 1480.4699,826.26821 L 1509.1426,826.26821 L 1509.1426,840.85398 L 1509.7057,840.85398 C 1515.6068,831.33239 1523.4789,824.48291 1536.7007,824.48291 C 1551.037,824.48291 1566.218,834.30789 1566.218,861.40241 L 1566.218,977.20173 L 1537.5453,977.20173 L 1537.5453,872.70929 C 1537.5453,861.69412 1532.4772,854.84465 1523.4789,854.84465 C 1512.8029,854.84465 1509.1426,862.28922 1509.1426,875.68479 L 1509.1426,977.20173 L 1480.4699,977.20173 L 1480.4699,826.26821"
       style="fill:black;fill-rule:nonzero;stroke:none"
       id="path28839" />
    <path
       d="M 1633.6878,765.24136 L 1662.3604,765.24136 L 1662.3604,934.63463 C 1662.3604,945.94151 1665.4576,949.22039 1676.4151,950.41059 L 1676.4151,978.98703 C 1649.995,978.98703 1633.6878,971.84583 1633.6878,936.71164 L 1633.6878,765.24136"
       style="fill:black;fill-rule:nonzero;stroke:none"
       id="path28841" />
    <path
       d="M 1748.5073,961.71748 L 1747.9442,961.71748 C 1740.3537,972.73265 1734.171,978.98703 1720.3861,978.98703 C 1707.176,978.98703 1689.4727,972.13755 1689.4727,938.80032 C 1689.4727,904.26122 1698.7408,887.59844 1734.7224,887.59844 C 1738.6643,887.59844 1742.5944,888.19354 1748.5073,888.48526 L 1748.5073,872.70929 C 1748.5073,862.59261 1744.8469,854.84465 1734.171,854.84465 C 1726.862,854.84465 1719.5531,860.21221 1717.8637,870.02551 L 1690.0358,870.02551 C 1690.8688,856.62994 1695.3738,845.32306 1702.9643,837.28338 C 1710.5548,829.24371 1721.2308,824.48291 1734.171,824.48291 C 1758.057,824.48291 1777.1799,840.56226 1777.1799,872.11419 L 1777.1799,977.20173 L 1748.5073,977.20173 L 1748.5073,961.71748 z M 1748.5073,912.3009 C 1745.4101,911.7058 1743.1576,911.41408 1740.6352,911.41408 C 1728.2581,911.41408 1718.1453,916.76998 1718.1453,932.84933 C 1718.1453,944.4596 1723.7648,952.19589 1733.0447,952.19589 C 1742.5944,952.19589 1748.5073,945.0547 1748.5073,932.84933 L 1748.5073,912.3009"
       style="fill:black;fill-rule:nonzero;stroke:none"
       id="path28843" />
    <path
       d="M 1850.2223,868.5436 C 1849.9408,858.42691 1843.195,853.05935 1835.6045,853.05935 C 1826.6061,853.05935 1821.5497,860.50392 1821.5497,868.24021 C 1821.5497,873.89949 1822.9575,879.25539 1833.6335,883.72446 L 1850.5039,890.86566 C 1871.8676,899.50043 1878.6134,915.57978 1878.6134,933.44443 C 1878.6134,958.45027 1860.6285,978.98703 1835.886,978.98703 C 1813.3961,978.98703 1794.2849,963.21106 1793.1587,933.44443 L 1820.1419,933.44443 C 1821.2682,941.77582 1824.9285,950.41059 1835.6045,950.41059 C 1843.7581,950.41059 1851.6302,944.15621 1851.6302,934.03953 C 1851.6302,925.69647 1848.2514,920.04886 1837.2938,915.57978 L 1823.5207,910.22389 C 1805.524,903.07103 1794.5665,888.78864 1794.5665,868.5436 C 1794.5665,842.94266 1813.6777,824.48291 1836.7307,824.48291 C 1860.0653,824.48291 1876.9357,843.53776 1877.2173,868.5436 L 1850.2223,868.5436"
       style="fill:black;fill-rule:nonzero;stroke:none"
       id="path28845" />
    <path
       d="M 1949.1217,868.5436 C 1948.8402,858.42691 1942.0944,853.05935 1934.5039,853.05935 C 1925.5055,853.05935 1920.4491,860.50392 1920.4491,868.24021 C 1920.4491,873.89949 1921.8452,879.25539 1932.5329,883.72446 L 1949.4033,890.86566 C 1970.767,899.50043 1977.5128,915.57978 1977.5128,933.44443 C 1977.5128,958.45027 1959.5161,978.98703 1934.7854,978.98703 C 1912.2955,978.98703 1893.1726,963.21106 1892.0463,933.44443 L 1919.0413,933.44443 C 1920.1676,941.77582 1923.8162,950.41059 1934.5039,950.41059 C 1942.6458,950.41059 1950.5178,944.15621 1950.5178,934.03953 C 1950.5178,925.69647 1947.1508,920.04886 1936.1815,915.57978 L 1922.4083,910.22389 C 1904.4234,903.07103 1893.4542,888.78864 1893.4542,868.5436 C 1893.4542,842.94266 1912.5771,824.48291 1935.6301,824.48291 C 1958.953,824.48291 1975.8234,843.53776 1976.105,868.5436 L 1949.1217,868.5436"
       style="fill:black;fill-rule:nonzero;stroke:none"
       id="path28847" />
    <path
       d="M 2022.1407,913.19938 L 2022.1407,933.73614 C 2022.1407,943.2694 2027.4904,948.62529 2036.2072,948.62529 C 2047.1647,948.62529 2049.6988,939.99052 2050.2619,933.44443 L 2078.9345,933.44443 C 2078.9345,945.94151 2074.7111,957.55178 2067.4021,965.59146 C 2059.8116,973.92285 2049.4172,978.98703 2036.2072,978.98703 C 2018.7737,978.98703 2005.5636,970.35225 1998.8178,957.26007 C 1994.8759,949.51211 1993.4681,938.80032 1993.4681,926.59495 L 1993.4681,876.87499 C 1993.4681,864.66962 1994.8759,853.95783 1998.8178,846.22154 C 2005.5636,833.11769 2018.7737,824.48291 2036.2072,824.48291 C 2062.6273,824.48291 2078.9345,845.01967 2078.9345,871.51909 L 2078.9345,913.19938 L 2022.1407,913.19938 z M 2022.1407,889.38374 L 2050.2619,889.38374 L 2050.2619,872.11419 C 2050.2619,860.80731 2044.9122,854.84465 2036.2072,854.84465 C 2027.4904,854.84465 2022.1407,860.80731 2022.1407,872.11419 L 2022.1407,889.38374"
       style="fill:black;fill-rule:nonzero;stroke:none"
       id="path28849" />
    <path
       d="M 2099.9697,826.26821 L 2128.6423,826.26821 L 2128.6423,840.85398 L 2129.2055,840.85398 C 2135.1183,831.33239 2142.9904,824.48291 2156.2004,824.48291 C 2170.5367,824.48291 2185.7177,834.30789 2185.7177,861.40241 L 2185.7177,977.20173 L 2157.0451,977.20173 L 2157.0451,872.70929 C 2157.0451,861.69412 2151.977,854.84465 2142.9904,854.84465 C 2132.3027,854.84465 2128.6423,862.28922 2128.6423,875.68479 L 2128.6423,977.20173 L 2099.9697,977.20173 L 2099.9697,826.26821"
       style="fill:black;fill-rule:nonzero;stroke:none"
       id="path28851" />
  </g>
</svg>
