<?xml version="1.0" encoding="utf-8"?>
<!-- Generator: Adobe Illustrator 15.0.2, SVG Export Plug-In . SVG Version: 6.00 Build 0)  -->
<!DOCTYPE svg PUBLIC "-//W3C//DTD SVG 1.1//EN" "http://www.w3.org/Graphics/SVG/1.1/DTD/svg11.dtd">
<svg version="1.1" id="Vrstva_1" xmlns="http://www.w3.org/2000/svg" xmlns:xlink="http://www.w3.org/1999/xlink" x="0px" y="0px"
	 width="784px" height="1172px" viewBox="0 0 784 1172" enable-background="new 0 0 784 1172" xml:space="preserve">
<g>
	<path fill-rule="evenodd" clip-rule="evenodd" fill="#009FE3" d="M16.262,1137.852V35.165c0-16.938,13.701-30.626,30.634-30.626
		H745.38c16.926,0,30.62,13.688,30.62,30.626v1102.687c0,16.94-13.694,30.635-30.62,30.635H46.896
		C29.963,1168.486,16.262,1154.792,16.262,1137.852"/>
	<rect x="111.363" y="301.125" fill-rule="evenodd" clip-rule="evenodd" fill="#FFFFFF" width="569.822" height="569.692"/>
	<path fill-rule="evenodd" clip-rule="evenodd" d="M415.97,487.161l4.959-58.605h-51.552l5.015,58.916
		c7.063-1.222,14.35-1.902,21.761-1.902C402.872,485.569,409.508,486.128,415.97,487.161 M428.499,489.239
		c9.381,2.551,18.374,6.197,26.72,10.772l27.814-72.142H433.7L428.499,489.239z M361.328,490.284L356,428.416h-49.334l27.424,73.394
		C342.626,496.942,351.746,493.018,361.328,490.284z M271.523,690.833v-38.737h-66.99v38.737H271.523z M204.533,703.813v40.777
		h66.99v-40.777H204.533z M587.437,690.833v-38.737h-67.548v38.737H587.437z M271.523,609.954c0-3.741,0.15-7.351,0.462-10.959
		h-67.452v40.779h66.99V609.954z M519.889,703.813v40.777h67.548v-40.777H519.889z M587.96,639.774v-40.779h-68.071
		c0.328,3.608,0.498,7.218,0.498,10.959v29.82H587.96z M323.499,508.875l-28.044-74.943l-41.647,41.607l50.519,50.457
		C310.086,519.672,316.532,513.912,323.499,508.875z M538.066,474.517l-42.13-42.127l-28.906,74.906
		c7.438,5.163,14.303,11.112,20.45,17.802L538.066,474.517z M276.875,573.562l-72.342-40.609v53.065h69.293
		C274.634,581.776,275.656,577.644,276.875,573.562z M587.292,586.018v-54.188l-72.422,40.462l-2.15-3.766
		c2.004,5.662,3.584,11.507,4.739,17.492H587.292z M296.051,535.851l-51.387-51.394l-35.654,35.701l72.72,40.78
		C285.52,552,290.315,543.604,296.051,535.851z M495.696,534.854c5.757,7.747,10.643,16.155,14.544,25.184l72.798-40.738
		l-35.894-35.888L495.696,534.854z M496.959,415.517l103.746,103.717v238.795H191.993V519.234l103.748-103.717H496.959z"/>
	<path fill-rule="evenodd" clip-rule="evenodd" fill="#FFFFFF" d="M691.049,227.666h22.287v-79.962
		c0-12.438-2.614-21.623-7.656-27.322c-5.237-5.663-12.892-8.525-23.171-8.525c-5.032,0-9.818,1.093-14.181,3.086
		c-4.387,1.958-8.104,5.438-11.399,10.055l-3.049-10.923h-15.712v113.59h22.285v-73.412c0-4.807,0.646-8.725,1.738-12.025
		c1.095-3.256,2.406-5.88,4.144-7.837c1.735-1.993,3.73-3.299,5.687-4.168c1.97-0.656,3.924-1.094,5.894-1.094
		c4.155,0,7.437,1.307,9.843,3.919c2.187,2.862,3.291,8.099,3.291,15.753V227.666z M603.173,132.399c1.53,0,3.487,0.212,5.454,0.438
		c1.993,0.437,4.607,1.306,7.438,2.638l4.617-20.968c-2.225-0.656-4.398-1.342-6.585-1.987c-2.174-0.437-4.81-0.662-7.875-0.662
		c-5.868,0-10.692,1.531-14.41,4.606c-3.731,3.044-6.562,6.969-8.518,11.586l-2.614-13.974h-28.847v16.362h13.1v80.848h-13.1v16.381
		h52.215v-16.381h-16.83v-48.508c0-9.185,1.303-16.585,3.731-22.065C593.343,135.267,597.267,132.399,603.173,132.399z
		 M479.703,178.082h54.22V165.64c0-8.524-0.679-16.192-1.773-22.973c-1.312-6.755-3.477-12.442-6.318-17.023
		c-2.843-4.606-6.781-7.874-11.349-10.269c-4.839-2.424-10.718-3.518-17.498-3.518c-13.754,0-23.599,4.831-29.941,14.449
		c-6.318,9.831-9.625,25.323-9.625,46.734c0,11.792,1.313,21.416,3.743,28.852c2.395,7.432,5.443,13.105,9.587,17.274
		c3.951,4.131,8.519,6.969,13.794,8.5c4.991,1.518,10.256,2.174,15.708,2.174c6.345,0,12.24-0.869,17.925-2.611
		c5.481-1.738,10.062-3.5,13.319-5.451l-6.538-16.186c-8.749,4.168-16.624,6.355-23.403,6.355c-3.04,0-5.882-0.225-8.265-0.869
		c-2.648-0.438-4.835-1.755-6.804-4.143c-1.942-2.212-3.694-5.475-4.789-10.056C480.578,192.275,479.922,186.181,479.703,178.082z
		 M496.546,129.13c2.829,0,5.443,0.438,7.438,1.532c1.967,1.081,3.705,2.819,5.017,5.25c1.299,2.399,2.174,5.887,2.831,10.28
		c0.658,4.563,0.898,10.049,1.116,16.799h-33.026c0.22-7.412,0.864-13.317,1.993-17.894c0.875-4.61,1.958-7.879,3.489-10.267
		c1.299-2.431,3.049-3.961,5.007-4.605C492.413,129.569,494.359,129.13,496.546,129.13z M361.088,227.666h15.72l1.531-5.888
		c2.418,2.394,5.038,4.356,8.305,5.888c3.053,1.518,6.786,2.174,11.112,2.174c12.879,0,22.504-5.012,29.285-15.067
		c6.562-10.049,9.843-26.203,9.843-48.489c0-11.136-0.875-20.092-2.406-27.097c-1.519-7.006-3.73-12.442-6.574-16.629
		c-2.83-4.125-6.341-6.969-10.269-8.481c-3.911-1.556-8.312-2.218-13.098-2.218c-5.037,0-9.363,0.869-12.639,2.862
		c-3.511,1.969-6.348,4.356-8.521,7.194V74.73h-22.289V227.666z M399.063,129.569c2.859,0,5.256,0.656,7.224,1.962
		c1.967,1.306,3.475,3.506,4.568,6.556c1.116,3.063,1.991,7.011,2.65,12.018c0.424,5.043,0.656,11.142,0.656,18.366
		c0,8.524-0.232,15.718-0.875,21.192c-0.659,5.662-1.773,10.055-3.309,13.318c-1.53,3.274-3.691,5.698-6.098,7.005
		c-2.636,1.531-5.687,2.175-9.37,2.175c-4.378,0-8.086-1.306-11.134-3.706v-57.476c0-2.4,0.21-5.012,0.866-7.649
		c0.652-2.405,1.533-4.805,2.839-6.761c1.306-1.964,3.051-3.731,5.037-5.038C394.073,130.225,396.256,129.569,399.063,129.569z
		 M293.547,130.225c2.862,0,5.255,0.213,7.442,0.644c2.176,0.438,3.944,1.312,5.473,2.612c1.308,1.349,2.39,3.299,3.053,5.705
		c0.643,2.612,1.08,6.129,1.08,10.262v8.537h-11.136c-14.2,0-24.459,2.825-31.258,8.299c-6.774,5.674-10.263,14.843-10.263,27.735
		c0,6.78,0.87,12.443,2.4,17.06c1.518,4.569,3.944,8.087,6.781,10.912c2.843,2.837,6.098,5.013,10.055,6.106
		c3.918,1.087,8.312,1.743,13.098,1.743c6.138,0,11.154-1.093,14.886-3.706c3.694-2.406,6.757-5.451,8.937-9.186l3.069,10.718
		h15.509v-79.525c0-12.441-2.618-21.622-8.092-27.534c-5.449-5.888-15.065-8.75-28.827-8.75c-5.911,0-11.799,0.662-17.705,1.993
		c-5.911,1.306-11.15,2.838-15.323,4.582l5.475,16.834c5.016-1.993,9.848-3.298,14.422-3.96
		C287.004,130.662,290.708,130.225,293.547,130.225z M303.604,81.486c0,3.729,1.33,7.005,3.942,9.393
		c2.406,2.649,5.674,3.961,9.404,3.961c3.701,0,6.975-1.312,9.623-3.961c2.388-2.388,3.696-5.663,3.696-9.393
		c0-3.707-1.308-6.969-3.696-9.618c-2.648-2.389-5.922-3.694-9.623-3.694c-3.73,0-6.999,1.305-9.404,3.694
		C304.934,74.517,303.604,77.78,303.604,81.486z M293.984,212.16c-5.013,0-8.498-1.519-10.486-4.787
		c-1.969-3.299-2.842-8.093-2.842-14.662c0-6.78,1.312-11.792,4.174-15.067c2.61-3.073,7.187-4.604,13.761-4.604h12.004v18.578
		c0,2.176-0.212,4.369-0.873,6.792c-0.645,2.388-1.515,4.788-2.821,6.744c-1.304,1.993-3.087,3.737-5.042,5.05
		C299.672,211.516,297.06,212.16,293.984,212.16z M264.282,81.486c0,3.729,1.305,7.005,3.919,9.393
		c2.406,2.649,5.705,3.961,9.409,3.961c3.705,0,7.006-1.312,9.62-3.961c2.386-2.388,3.705-5.663,3.705-9.393
		c0-3.707-1.319-6.969-3.705-9.618c-2.614-2.389-5.915-3.694-9.62-3.694c-3.705,0-7.003,1.305-9.409,3.694
		C265.587,74.517,264.282,77.78,264.282,81.486z M229.305,132.399c1.518,0,3.486,0.212,5.444,0.438
		c1.986,0.437,4.609,1.306,7.435,2.638l4.607-20.968c-2.207-0.656-4.38-1.342-6.558-1.987c-2.179-0.437-4.828-0.662-7.878-0.662
		c-5.888,0-10.71,1.531-14.412,4.606c-3.745,3.044-6.567,6.969-8.538,11.586l-2.605-13.974h-28.857v16.362h13.105v80.848h-13.105
		v16.381h52.237v-16.381h-16.847v-48.508c0-9.185,1.306-16.585,3.747-22.065C219.466,135.267,223.385,132.399,229.305,132.399z
		 M159.143,222.215v-79.323h-36.696v16.612h15.067v50.257c-1.739,0.444-3.48,0.88-5.225,1.093c-2.005,0.225-3.957,0.431-6.138,0.431
		c-3.912,0-7.435-0.869-10.71-2.607c-3.263-1.531-5.906-4.604-8.085-8.96c-2.4-4.181-4.145-10.055-5.227-17.711
		c-1.312-7.436-1.962-17.054-1.962-28.847c0-11.798,0.65-21.628,2.174-29.508c1.306-7.833,3.27-14.192,5.658-18.987
		c2.442-4.813,5.491-8.299,9.187-10.262c3.523-1.993,7.442-3.086,11.585-3.086c4.167,0,8.087,0.438,11.36,1.306
		c3.295,1.118,7.214,2.648,11.363,4.618l7.648-17.06c-3.263-1.969-7.648-3.707-12.667-5.226c-5-1.531-11.138-2.399-18.144-2.399
		c-17.243,0-30.164,6.749-38.658,20.316c-8.749,13.537-13.142,33.647-13.142,60.288c0,26.018,3.955,45.251,12.017,57.695
		c7.88,12.668,20.111,18.986,36.946,18.986c7.003,0,13.105-0.656,18.591-2.174C149.313,226.134,154.349,224.391,159.143,222.215z"/>
	<path fill-rule="evenodd" clip-rule="evenodd" fill="#FFFFFF" d="M677.598,1054.568h10.463v-35.202c0-2.15,0.208-3.974,0.621-5.407
		c0.4-1.47,0.898-2.601,1.652-3.402c0.715-0.826,1.433-1.434,2.139-1.751c0.716-0.302,1.531-0.521,2.247-0.521
		c2.178,0,3.706,0.62,4.642,1.956c0.888,1.35,1.422,3.901,1.422,7.691v36.637h10.451v-37.135c0-6.075-1.118-10.364-3.258-13.135
		c-2.162-2.759-5.761-4.107-10.668-4.107c-2.152,0-4.205,0.413-6.173,1.349c-1.958,0.899-3.791,2.456-5.348,4.376
		c-2.14-3.793-5.953-5.725-11.567-5.725c-2.163,0-4.215,0.498-6.172,1.423c-1.958,0.948-3.572,2.478-4.922,4.52l-1.324-4.908h-7.426
		v53.343h10.489v-34.485c0-2.333,0.193-4.302,0.606-5.856c0.437-1.519,0.924-2.637,1.627-3.572c0.731-0.924,1.435-1.531,2.187-1.849
		c0.72-0.302,1.534-0.521,2.237-0.521c2.163,0,3.72,0.62,4.616,1.956c0.937,1.35,1.458,3.901,1.458,7.691V1054.568z
		 M585.932,1029.439c0,4.484,0.727,8.385,1.967,11.593c1.287,3.354,2.917,6.148,5.323,8.238c2.212,2.248,5.02,3.924,8.216,5.055
		c3.206,1.046,6.719,1.604,10.485,1.604c7.665,0,13.947-2.164,18.845-6.502c4.739-4.337,7.11-11.045,7.11-19.988
		c0-3.475-0.426-6.561-1.398-9.21c-0.973-2.648-2.091-4.886-3.646-6.962c-1.506-1.958-3.209-3.768-5.151-5.299
		c-1.933-1.555-3.901-2.953-5.856-4.313c1.118-0.729,2.515-1.848,4.045-3.232c1.521-1.251,2.93-2.929,4.339-5.031
		c1.387-1.955,2.502-4.204,3.477-6.829c0.997-2.648,1.397-5.577,1.397-8.942c0-4.715-0.694-8.652-1.957-11.86
		c-1.409-3.087-3.208-5.589-5.297-7.4c-2.237-1.798-4.765-3.049-7.413-3.766c-2.796-0.693-5.565-1.118-8.493-1.118
		c-2.955,0-5.725,0.425-8.375,1.118c-2.792,0.717-5.307,1.968-7.41,3.766c-2.235,1.812-4.034,4.313-5.322,7.4
		c-1.362,3.208-2.067,7.146-2.067,12.03c0,2.758,0.269,5.285,0.997,7.521c0.681,2.37,1.509,4.447,2.627,6.282
		c1.117,1.932,2.367,3.607,3.898,5.164c1.398,1.543,2.808,2.929,4.339,4.169c-1.531,0.971-3.062,2.089-4.752,3.487
		c-1.799,1.408-3.354,3.086-4.75,5.176c-1.531,2.077-2.65,4.605-3.609,7.521C586.489,1022.063,585.932,1025.563,585.932,1029.439z
		 M623.344,1029.439c0,2.235-0.122,4.338-0.561,6.173c-0.398,1.933-0.958,3.609-1.795,5.006c-0.962,1.41-2.104,2.528-3.489,3.208
		c-1.531,0.839-3.354,1.265-5.576,1.265c-4.326,0-7.4-1.555-8.932-4.473c-1.678-2.928-2.517-6.694-2.517-11.179
		c0-3.184,0.135-5.844,0.571-8.213c0.392-2.237,0.828-4.205,1.505-5.883c0.561-1.507,1.241-2.915,2.238-4.034
		c0.971-1.129,1.967-2.09,3.085-3.063c2.505,1.665,4.739,3.063,6.71,4.339c1.797,1.251,3.475,2.637,4.714,4.168
		c1.286,1.519,2.406,3.196,3.087,5.165C623.064,1023.875,623.344,1026.402,623.344,1029.439z M602.434,979.912
		c0-4.06,0.678-7.413,1.93-9.916c1.276-2.503,3.793-3.742,7.56-3.742c1.808,0,3.485,0.267,4.727,0.948
		c1.252,0.679,2.235,1.53,2.938,2.794c0.706,1.251,1.119,2.662,1.4,4.337c0.277,1.642,0.424,3.488,0.424,5.579
		c0,5.029-0.705,8.918-1.945,11.847c-1.287,2.929-2.817,5.322-4.616,6.999c-2.357-1.834-4.472-3.366-6.004-4.884
		c-1.531-1.398-2.807-2.808-3.765-4.192c-0.996-1.41-1.678-2.929-2.091-4.483C602.551,983.667,602.434,981.855,602.434,979.912z
		 M569.78,1031.967h8.932v-11.859h-8.932v-19.685h-11.727l-2.661,19.685h-17.326l28.91-63.235h-14.389l-28.069,61.838v13.257h30.874
		v22.602h14.388V1031.967z M496.036,973.059v81.51h14.241v-97.696h-14.788l-21.229,17.304l8.36,9.929L496.036,973.059z
		 M436.274,967.614c1.678,0,3.222,0.146,4.775,0.559c1.375,0.438,2.648,1.119,3.769,2.115c0.958,1.094,1.812,2.648,2.491,4.446
		c0.56,1.97,0.826,4.472,0.826,7.413c0,3.767-0.826,7.923-2.359,12.296c-1.518,4.314-3.765,9.042-6.56,13.938
		c-2.942,4.886-6.294,10.171-10.343,15.772c-4.045,5.578-8.638,11.458-13.534,17.582v12.832h47.741v-12.54H430.99
		c4.46-5.613,8.663-11.032,12.419-16.344c3.778-5.297,7.132-10.462,10.049-15.626c2.782-5.165,5.029-10.049,6.707-14.934
		c1.53-4.764,2.358-9.49,2.358-14.096c0-4.496-0.682-8.371-1.946-11.593c-1.263-3.183-3.062-5.881-5.308-7.946
		c-2.371-2.09-4.994-3.646-8.082-4.618c-3.208-0.972-6.587-1.396-10.354-1.396c-2.235,0-4.471,0.279-6.549,0.839
		c-2.248,0.558-4.339,1.239-6.293,2.09c-1.934,0.838-3.756,1.835-5.285,2.794c-1.69,1.118-3.089,2.236-4.204,3.208l6.172,9.77
		c2.477-1.955,5.15-3.487,7.799-4.739C431.124,968.173,433.639,967.614,436.274,967.614z M346.452,1022.879h34.621v-7.924
		c0-5.455-0.437-10.353-1.124-14.654c-0.844-4.338-2.235-7.982-4.04-10.912c-1.817-2.915-4.332-5.006-7.253-6.561
		c-3.089-1.531-6.861-2.236-11.174-2.236c-8.81,0-15.067,3.075-19.114,9.234c-4.083,6.259-6.169,16.187-6.169,29.844
		c0,7.533,0.841,13.694,2.372,18.434c1.556,4.751,3.511,8.361,6.168,11.046c2.484,2.648,5.44,4.447,8.767,5.419
		c3.212,0.959,6.567,1.361,10.053,1.361c4.049,0,7.815-0.559,11.46-1.604c3.487-1.131,6.41-2.247,8.523-3.523l-4.192-10.304
		c-5.578,2.648-10.616,4.034-14.946,4.034c-1.964,0-3.768-0.146-5.287-0.559c-1.694-0.268-3.085-1.119-4.332-2.675
		c-1.281-1.36-2.4-3.475-3.085-6.403C347.012,1031.967,346.583,1028.055,346.452,1022.879z M357.195,991.625
		c1.799,0,3.489,0.291,4.727,0.973c1.281,0.717,2.4,1.846,3.245,3.365c0.833,1.531,1.375,3.768,1.812,6.574
		c0.395,2.916,0.551,6.404,0.681,10.73h-21.076c0.156-4.764,0.558-8.544,1.239-11.46c0.563-2.916,1.288-5.006,2.241-6.562
		c0.846-1.53,1.969-2.503,3.214-2.928C354.56,991.916,355.804,991.625,357.195,991.625z M302.2,1044.532v9.624
		c0,5.42-0.96,9.064-2.801,11.13c-1.969,2.103-5.013,3.086-9.333,3.086c-1.967,0-4.332-0.268-7.005-0.705
		c-2.775-0.413-5.861-1.237-9.057-2.527l-3.36,11.058c2.672,0.949,5.723,1.921,9.489,2.917c3.761,0.85,7.406,1.24,10.888,1.24
		c8.815,0,15.225-2.236,19.265-6.685c4.052-4.604,6.009-11.567,6.009-21.191v-70.489h-9.928l-1.244,4.205
		c-1.392-1.531-3.075-2.929-5.165-4.047c-2.089-0.997-4.607-1.556-7.256-1.556c-3.918,0-7.404,0.705-10.612,1.956
		c-3.208,1.397-5.852,3.487-7.964,6.452c-2.091,2.916-3.775,6.684-4.886,11.301c-1.245,4.593-1.812,10.17-1.812,16.721
		c0,6.307,0.567,11.471,1.556,15.784c0.979,4.338,2.37,7.692,4.174,10.341c1.804,2.637,3.911,4.446,6.569,5.565
		c2.525,1.118,5.449,1.677,8.643,1.677c3.216,0,6.017-0.559,8.25-1.677C298.839,1047.752,300.669,1046.342,302.2,1044.532z
		 M291.872,1039.1c-3.773,0-6.297-1.677-7.692-5.176c-1.531-3.365-2.212-8.518-2.212-15.493c0-9.211,0.844-15.894,2.649-20.231
		c1.683-4.205,5-6.283,9.892-6.283c2.65,0,5.165,0.961,7.692,2.929v32.918c0,2.966-0.833,5.602-2.65,7.85
		C297.716,1037.982,295.067,1039.1,291.872,1039.1z M237.827,1054.568h14.261v-51.083c0-7.96-1.678-13.804-4.893-17.45
		c-3.352-3.608-8.249-5.443-14.817-5.443c-3.196,0-6.281,0.705-9.06,1.956c-2.792,1.276-5.163,3.487-7.241,6.452l-1.962-7.011
		H204.06v72.579h14.223v-46.878c0-3.088,0.438-5.591,1.116-7.681c0.723-2.09,1.556-3.768,2.656-5.043
		c1.12-1.251,2.39-2.09,3.634-2.648c1.251-0.402,2.521-0.693,3.766-0.693c2.649,0,4.768,0.851,6.283,2.527
		c1.408,1.811,2.089,5.151,2.089,10.013V1054.568z M160.922,992.318c1.804,0,3.33,0.157,4.727,0.425
		c1.404,0.292,2.521,0.851,3.482,1.7c0.852,0.803,1.554,2.079,1.971,3.609c0.437,1.678,0.703,3.925,0.703,6.55v5.456h-7.107
		c-9.102,0-15.633,1.811-19.966,5.285c-4.332,3.646-6.569,9.502-6.569,17.742c0,4.337,0.56,7.946,1.531,10.888
		c0.993,2.927,2.523,5.176,4.335,6.975c1.795,1.821,3.91,3.208,6.402,3.864c2.527,0.715,5.328,1.117,8.397,1.117
		c3.898,0,7.107-0.681,9.495-2.333c2.362-1.519,4.333-3.477,5.701-5.845l1.967,6.816h9.928v-50.791
		c0-7.972-1.677-13.828-5.176-17.583c-3.482-3.768-9.641-5.603-18.43-5.603c-3.759,0-7.525,0.438-11.323,1.264
		c-3.768,0.851-7.092,1.812-9.775,2.929l3.517,10.741c3.207-1.25,6.259-2.089,9.223-2.49
		C156.713,992.598,159.119,992.318,160.922,992.318z M167.326,961.198c0,2.357,0.844,4.496,2.527,6.004
		c1.52,1.688,3.611,2.527,6.017,2.527c2.362,0,4.44-0.839,6.118-2.527c1.531-1.508,2.375-3.646,2.375-6.004
		c0-2.369-0.844-4.446-2.375-6.124c-1.678-1.556-3.755-2.357-6.118-2.357c-2.406,0-4.497,0.802-6.017,2.357
		C168.17,956.752,167.326,958.829,167.326,961.198z M161.195,1044.665c-3.199,0-5.437-0.959-6.681-3.074
		c-1.283-2.09-1.842-5.176-1.842-9.344c0-4.313,0.846-7.522,2.65-9.648c1.677-1.932,4.6-2.929,8.808-2.929h7.674v11.859
		c0,1.398-0.145,2.807-0.553,4.362c-0.437,1.531-1.003,3.051-1.835,4.326c-0.808,1.252-1.926,2.37-3.208,3.196
		C164.817,1044.264,163.159,1044.665,161.195,1044.665z M142.217,961.198c0,2.357,0.837,4.496,2.515,6.004
		c1.531,1.688,3.61,2.527,5.973,2.527c2.399,0,4.495-0.839,6.172-2.527c1.518-1.508,2.364-3.646,2.364-6.004
		c0-2.369-0.846-4.446-2.364-6.124c-1.678-1.556-3.773-2.357-6.172-2.357c-2.362,0-4.442,0.802-5.973,2.357
		C143.054,956.752,142.217,958.829,142.217,961.198z M84.692,1054.568h46.066v-12.978H99.767v-84.719H84.692V1054.568z"/>
</g>
</svg>
