<?xml version="1.0" encoding="utf-8"?>
<!-- Generator: Adobe Illustrator 15.0.2, SVG Export Plug-In . SVG Version: 6.00 Build 0)  -->
<!DOCTYPE svg PUBLIC "-//W3C//DTD SVG 1.1//EN" "http://www.w3.org/Graphics/SVG/1.1/DTD/svg11.dtd">
<svg version="1.1" id="Vrstva_1" xmlns="http://www.w3.org/2000/svg" xmlns:xlink="http://www.w3.org/1999/xlink" x="0px" y="0px"
	 width="2200px" height="460px" viewBox="0 0 2200 460" enable-background="new 0 0 2200 460" xml:space="preserve">
<g>
	<path fill-rule="evenodd" clip-rule="evenodd" fill="#009FE3" d="M74.243,6h2053.644C2154.016,6,2175,26.951,2175,53.08v357.98
		c0,26.146-20.984,47.096-47.113,47.096H74.243c-26.129,0-47.105-20.95-47.105-47.096V53.08C27.138,26.951,48.114,6,74.243,6"/>
	<path fill-rule="evenodd" clip-rule="evenodd" fill="#FFFFFF" d="M74.243,34.234h2053.644c10.552,0,18.846,8.312,18.846,18.845
		v357.98c0,10.55-8.294,18.846-18.846,18.846H74.243c-10.552,0-18.837-8.296-18.837-18.846V53.08
		C55.406,42.546,63.691,34.234,74.243,34.234"/>
	<path fill-rule="evenodd" clip-rule="evenodd" fill="#009FE3" d="M322.469,330.602l49.086-169.029v-27.089h-94.276v23.988h68.871
		l-52.206,172.131H322.469z M225.455,164.692v165.909h27.62V133.088h-29.057l-42.602,35.005l16.615,19.756L225.455,164.692z
		 M140.874,90.771h282.599v282.614H140.874V90.771z"/>
	<path fill-rule="evenodd" clip-rule="evenodd" d="M1367.6,232.525c-5.207,0-11.679-5.691-11.679-13.04v-26.293
		c0-6.469,5.41-11.895,12.046-11.895c6.519,0,12.126,5.392,12.126,12.226v26.197C1380.093,227.133,1374.667,232.525,1367.6,232.525
		 M1368.513,308.422c-7.364,0-13.172-5.176-13.172-14.351v-30.324c0-7.167,5.475-12.84,12.626-12.84
		c7.25,0,12.707,5.64,12.707,12.723v32.499C1380.674,302.963,1375.448,308.422,1368.513,308.422z M1342.038,241.8
		c-7.466,6.75-10.966,15.327-10.966,22.858v30.425c0,20.456,16.339,36.647,35.567,36.647c21.416,0,37.873-16.889,37.873-36.53
		v-30.193c0-8.726-4.266-17.8-10.769-23.207c5.26-4.197,10.503-14.516,10.503-22.645v-23.922c0-20.503-16.475-36.879-36.497-36.879
		c-20.139,0-36.147,16.191-36.147,36.712l0.083,23.657C1331.686,225.673,1333.643,232.244,1342.038,241.8z M1238.869,329.953h73.44
		v-22.494h-47.629l43.546-96.051c3.154-7.034,4-11.994,4-16.657c0-19.441-16.54-36.33-37.077-36.33
		c-20.024,0-36.182,16.521-36.182,35.419c0,0.182,0,0.346,0.016,0.546h24.42c-0.463-6.121,5.11-12.277,11.83-12.277
		c6.817,0,12.191,5.342,12.191,11.879c0,1.923-0.167,3.234-1.658,6.568l-46.897,105.128V329.953z M1465.809,308.188
		c-8.976,0-13.67-4.794-13.67-13.254V194.288c0-8.528,5.475-13.256,12.077-13.256c7.317,0,13.089,5.889,13.089,13.537V295.78
		C1476.759,303.694,1471.647,308.188,1465.809,308.188z M1427.472,293.806c0.531,13.04,3.251,18.962,8.577,25.265
		c6.967,8.247,16.954,12.66,26.327,12.66c22.262,0,38.403-16.475,38.403-38.57v-95.971c0-11.926-2.073-17.534-6.669-23.839
		c-6.701-9.157-17.651-15.028-30.043-15.028c-20.173,0-36.596,15.858-36.596,37.259V293.806z"/>
	<path fill-rule="evenodd" clip-rule="evenodd" d="M1543.181,329.953h16.274V313.83l9.176-16.507l13.386,32.63h17.17l-21.349-49.583
		l17.219-31.935h-17.602l-18,33.243v-64.764h-16.274V329.953z M1614.732,329.953h16.24v-58.907c0.247-4.629,3.666-7.913,8.027-7.913
		c4.497,0,8.146,3.683,8.146,8.244v58.576h16.392v-59.24c0-4.013,3.352-7.713,8.262-7.713c4.229,0,7.963,3.534,7.963,8.892v58.062
		h16.158v-62.987c0-7.25-8.411-18.83-21.484-18.83c-5.64,0-10.55,1.858-14.979,5.84c-4.846-4.247-9.923-6.056-15.148-6.056
		c-4.793,0-9.487,1.627-13.386,4.694v-3.666h-16.19V329.953z"/>
	<polygon fill-rule="evenodd" clip-rule="evenodd" points="2071.002,232.078 1957.963,345.132 1864.698,345.132 1944.774,265.04 
		1778.965,265.04 1778.965,199.097 1944.774,199.097 1864.698,119.021 1957.963,119.021 	"/>
	<path fill-rule="evenodd" clip-rule="evenodd" d="M1034.937,329.373h28.815V228.926c0-16.373-3.698-28.75-11.296-36.944
		c-7.614-8.179-19.774-12.16-36.432-12.16c-7.895,0-15.509,1.691-22.543,5.074c-7.367,3.7-13.586,9.042-18.382,16.077l-3.914-18.333
		H949.45v146.733h28.768v-96.2c0-5.342,1.145-9.888,3.102-13.82c1.972-3.981,4.213-7.364,7.314-9.904
		c2.837-2.538,6.238-4.213,9.92-5.639c3.651-1.111,7.034-1.676,10.435-1.676c9.042,0,15.497,1.975,19.759,5.922
		c4.213,4.213,6.188,11.58,6.188,22.312V329.373z M863.371,309.086c-5.642,0-10.734-0.564-15.263-1.66
		c-4.497-0.88-8.478-3.117-11.58-6.237c-3.352-3.118-5.907-7.365-7.898-13.254c-1.957-5.642-3.349-13.305-3.648-22.595h87.758
		v-16.077c0-10.417-0.849-19.774-2.821-28.515c-2.009-8.478-5.062-15.793-9.324-22.015c-4.213-5.923-10.136-10.716-17.502-14.117
		c-7.331-3.102-16.389-4.793-27.389-4.793c-39.78,0-59.54,26.228-59.54,79.015c0,14.979,1.994,27.089,5.658,36.413
		c3.685,9.589,8.478,17.237,14.401,22.595c5.938,5.358,12.972,9.272,20.87,11.297c7.614,1.907,15.793,3.003,23.972,3.003
		c9.62,0,18.679-1.096,26.839-3.284c8.194-2.274,14.648-4.562,19.774-6.803l-8.759-20.869c-5.639,2.256-11.281,4.213-17.234,5.657
		C875.763,308.24,869.541,309.086,863.371,309.086z M855.192,202.134c10.981,0,18.895,3.385,23.688,9.854
		c4.777,6.503,7.018,17.799,7.018,33.876h-60.617c0.231-8.478,1.392-15.496,2.818-21.153c1.395-5.639,3.336-10.186,5.892-13.553
		c2.537-3.102,5.358-5.639,9.04-7.049C846.714,202.698,850.646,202.134,855.192,202.134z M725.962,136.375
		c0,5.358,2.022,9.87,5.655,13.552c3.7,3.667,8.179,5.639,13.555,5.639c5.34,0,10.185-1.972,13.818-5.639
		c3.682-3.682,5.376-8.194,5.376-13.552c0-5.361-1.694-10.154-5.376-13.836c-3.633-3.683-8.478-5.343-13.818-5.343
		c-5.376,0-9.855,1.66-13.555,5.343C727.984,126.221,725.962,131.014,725.962,136.375z M759.57,182.64h-49.965v22.595h21.2v124.138
		h28.765V182.64z M668.679,329.373l26.809-197.495h-25.648l-23.457,169.593l-32.45-144.51h-28.515l-32.167,145.042l-22.015-170.125
		h-27.654l26.809,197.495h39.814l28.765-135.434l28.234,135.434H668.679z"/>
</g>
</svg>
