<?xml version="1.0" encoding="utf-8"?>
<!-- Generator: Adobe Illustrator 15.0.2, SVG Export Plug-In . SVG Version: 6.00 Build 0)  -->
<!DOCTYPE svg PUBLIC "-//W3C//DTD SVG 1.1//EN" "http://www.w3.org/Graphics/SVG/1.1/DTD/svg11.dtd">
<svg version="1.1" id="Vrstva_1" xmlns="http://www.w3.org/2000/svg" xmlns:xlink="http://www.w3.org/1999/xlink" x="0px" y="0px"
	 width="784px" height="1045px" viewBox="0 0 784 1045" enable-background="new 0 0 784 1045" xml:space="preserve">
<g>
	<defs>
		<rect id="SVGID_1_" x="9" y="7.104" width="766" height="1031.064"/>
	</defs>
	<clipPath id="SVGID_2_">
		<use xlink:href="#SVGID_1_"  overflow="visible"/>
	</clipPath>
	<path clip-path="url(#SVGID_2_)" fill="#0069B4" d="M126.506,584.28h530.976V118.058H126.506V584.28z M43.594,1033.82
		c-15.898,0-28.796-12.854-28.796-28.729V40.186c0-15.875,12.898-28.733,28.796-28.733h696.812
		c15.898,0,28.785,12.858,28.785,28.733v964.906c0,15.875-12.887,28.729-28.785,28.729H43.594z"/>
</g>
<rect x="125.506" y="117.058" fill="#FFFFFF" width="530.976" height="466.222"/>
<g>
	<path fill="#010202" d="M163.81,181.9h17.207l0.359,0.358v53.054h22.046v-53.054l0.358-0.358h17.207l0.358,0.358v124.21
		l-0.358,0.358h-17.207l-0.358-0.358v-55.205h-22.046v55.205l-0.359,0.358H163.81l-0.358-0.358v-124.21L163.81,181.9z"/>
	<path fill="#010202" d="M237.474,180.287h15.952l1.254,1.254v15.773l-1.254,1.434h-15.952l-1.255-1.434v-15.773L237.474,180.287z
		 M237.474,216.493h15.952l1.254,1.254v87.825l-1.254,1.255h-15.952l-1.255-1.255v-87.825L237.474,216.493z"/>
	<path fill="#010202" d="M297.158,181.362l0.179,0.359v35.309h10.754l0.538,0.538v13.443l-0.538,0.538h-10.754v74.741l-0.358,0.538
		h-17.386l-0.358-0.538v-1.255l-0.358-73.486h-8.245l-0.538-0.538v-13.443l0.538-0.538h8.245v-26.706
		C278.994,189.848,285.088,186.86,297.158,181.362z"/>
	<path fill="#010202" d="M356.663,215.238h13.622l0.717,0.717v18.64l-7.528-0.896h-3.047c-10.037,0-15.056,3.943-15.056,11.83
		v60.582l-0.717,0.717h-18.282l-0.717-0.717v-88.901l0.717-0.896h18.282c0.476,0,0.717,1.017,0.717,3.047
		C349.432,216.613,353.195,215.238,356.663,215.238z"/>
	<path fill="#010202" d="M408.508,215.776h3.765c12.306,0,20.85,6.155,25.63,18.461c0.955,3.226,1.435,7.769,1.435,13.622v56.997
		l-0.718,0.717h-18.281l-0.717-0.717v-7.349h-0.359c-3.705,6.094-9.382,9.141-17.027,9.141h-2.509
		c-9.203,0-15.355-5.019-18.461-15.056l-0.717-6.273v-5.556c0-13.86,5.019-22.88,15.056-27.064
		c5.615-1.792,11.409-2.688,17.386-2.688h6.632v-5.915c0-5.735-2.213-9.141-6.632-10.216h-4.123c-4.302,0-7.469,2.929-9.499,8.783
		h-17.744l-0.717-0.717c0-9.2,4.778-16.907,14.338-23.121C400.022,216.792,404.444,215.776,408.508,215.776z M399.547,278.687
		c0,6.453,2.806,10.158,8.424,11.113h2.688c4.539,0,7.287-2.868,8.244-8.604l0.358-2.509v-14.876h-1.612
		c-8.845,0-14.519,3.047-17.028,9.141C399.904,275.103,399.547,277.015,399.547,278.687z"/>
	<path fill="#010202" d="M490.21,181.362h16.131l1.255,1.255v121.88l-1.255,1.075H490.21c-0.838,0-1.255-1.551-1.255-4.66
		c-4.543,3.943-9.562,5.915-15.056,5.915h-2.33c-11.592,0-17.386-7.407-17.386-22.225v-49.11c0-8.363,2.806-13.98,8.424-16.848
		c2.627-1.672,6.811-2.868,12.547-3.585c6.211,0,10.813,1.554,13.801,4.66v-37.102L490.21,181.362z M472.106,244.453v32.979
		c0,7.648,3.048,11.471,9.142,11.471c5.136-1.434,7.707-4.66,7.707-9.679v-37.281c-1.316-5.136-3.885-7.707-7.707-7.707h-1.792
		C474.555,234.237,472.106,237.643,472.106,244.453z"/>
	<path fill="#010202" d="M525.158,180.287h15.952l1.255,1.254v15.773l-1.255,1.434h-15.952l-1.254-1.434v-15.773L525.158,180.287z
		 M525.158,216.493h15.952l1.255,1.254v87.825l-1.255,1.255h-15.952l-1.254-1.255v-87.825L525.158,216.493z"/>
	<path fill="#010202" d="M584.664,216.493h3.764c9.2,0,16.907,3.884,23.122,11.65c2.627,4.66,3.942,10.396,3.942,17.207v32.262
		c0,12.787-4.422,21.27-13.263,25.451c-4.66,2.509-9.979,3.764-15.952,3.764c-11.233,0-19.716-4.36-25.451-13.084
		c-2.151-4.182-3.227-9.141-3.227-14.877v-33.875c0-13.143,5.198-21.867,15.594-26.168
		C577.495,217.271,581.317,216.493,584.664,216.493z M576.777,243.378v36.206c0,4.422,2.09,7.349,6.273,8.782l3.227,0.538h0.538
		c4.777,0,7.886-2.33,9.319-6.99l0.18-3.406v-34.413c0-5.615-2.809-8.841-8.424-9.679l-1.613-0.179
		C579.942,234.954,576.777,238.001,576.777,243.378z"/>
	<path fill="#010202" d="M346.942,395.548h4.66c12.785,0,21.926,7.648,27.423,22.942l0.717,13.084v54.308
		c0,18.282-6.573,29.874-19.716,34.771l-8.424,1.255h-3.226c-14.459,0-24.079-8.065-28.857-24.197V423.15
		c0-12.905,7.407-21.867,22.225-26.885L346.942,395.548z M326.151,379.238v-17.923h15.952v17.923H326.151z M337.801,424.405v68.647
		c0.955,7.052,4.48,10.575,10.575,10.575h1.972c6.928-1.193,10.396-4.24,10.396-9.141V423.15c0-4.54-3.047-7.646-9.141-9.32h-4.66
		C342.041,413.831,338.994,417.356,337.801,424.405z M357.875,379.238v-17.923h15.952v17.923H357.875z"/>
	<path fill="#010202" d="M421.322,396.624h2.868c7.766,0,14.636,4.064,20.612,12.188c2.509,4.302,3.764,9.62,3.764,15.952v25.272
		c0,3.826-1.613,6.573-4.84,8.245v0.179c1.793,0,3.345,1.733,4.66,5.198l0.18,3.764v26.347c0,14.101-6.394,23.183-19.178,27.244
		c-1.793,0.599-3.765,0.896-5.915,0.896h-1.255c-9.799,0-17.447-5.019-22.941-15.056c-1.435-3.344-2.151-6.511-2.151-9.5v-0.717
		l0.358-0.359h16.489c0.238,0,0.477,1.017,0.717,3.047c1.793,3.584,4.599,5.377,8.425,5.377c5.377-0.955,8.065-3.644,8.065-8.065
		v-27.603c0-1.313-0.838-2.151-2.51-2.509h-14.159l-0.358-0.358v-15.235l0.358-0.538h13.622c2.03-0.118,3.047-0.955,3.047-2.509
		v-25.989c0-3.823-2.271-6.511-6.812-8.065h-1.971c-3.705,0-6.335,2.092-7.887,6.273c-0.12,1.434-0.3,2.151-0.538,2.151h-16.489
		l-0.358-0.358v-1.076c0-7.766,4.002-14.577,12.009-20.433C413.674,397.878,417.738,396.624,421.322,396.624z"/>
</g>
<g>
	<path fill="#FFFFFF" d="M142.601,744.541h3.226c8.962,0,16.311,4.902,22.046,14.698c1.552,4.302,2.33,8.306,2.33,12.009v71.873
		c0,12.309-5.976,20.791-17.923,25.451c-2.63,0.838-5.677,1.255-9.141,1.255c-10.157,0-17.806-4.778-22.942-14.339
		c-1.792-3.584-2.688-6.929-2.688-10.037v-1.613l0.717-0.717h16.49c0.358,0,0.776,1.434,1.254,4.302
		c1.792,2.988,4.54,4.481,8.245,4.481c4.778,0,7.466-3.048,8.065-9.142v-22.046c-3.108,1.675-6.035,2.51-8.783,2.51
		c-11.353,0-19.598-5.736-24.734-17.207c-0.837-2.985-1.254-5.377-1.254-7.17v-29.215c0-11.351,6.094-19.357,18.282-24.018
		C138.059,744.9,140.33,744.541,142.601,744.541z M135.432,769.993v26.886c0.717,5.734,3.406,8.604,8.065,8.604h0.359
		c5.019,0,7.825-3.048,8.424-9.142v-24.376c0-4.42-1.613-7.349-4.839-8.783l-2.688-0.717h-1.792
		C137.941,763.541,135.432,766.05,135.432,769.993z"/>
	<path fill="#FFFFFF" d="M228.992,744.362l0.538,0.538l-20.612,71.873h17.565v-35.309c1.313-1.193,7.229-4.957,17.745-11.293h0.717
		v46.602h8.065l0.717,0.537v16.132l-0.717,0.538h-8.065v35.488l-0.717,0.537H227.02l-0.538-0.537V833.98h-35.13l-0.538-0.538V817.67
		c0-1.434,6.511-25.869,19.537-73.308H228.992z"/>
	<path fill="#FFFFFF" d="M269.499,844.376H283.3l0.538,0.896v22.764l-14.518,24.196h-0.358v-46.96L269.499,844.376z"/>
	<path fill="#FFFFFF" d="M347.465,744.362l0.538,0.538l-20.612,71.873h17.565v-35.309c1.313-1.193,7.229-4.957,17.745-11.293h0.717
		v46.602h8.065l0.717,0.537v16.132l-0.717,0.538h-8.065v35.488l-0.717,0.537h-17.207l-0.538-0.537V833.98h-35.13l-0.538-0.538
		V817.67c0-1.434,6.511-25.869,19.537-73.308H347.465z"/>
	<path fill="#FFFFFF" d="M503.758,869.827v-72.77l-18.82,47.318h-13.084l-18.819-47.318v72.77h-19.179V744.9h18.999l25.631,67.571
		l25.451-67.571h18.999v124.927H503.758z"/>
	<path fill="#FFFFFF" d="M539.963,744.9h17.206l0.358,0.358v53.054h22.046v-53.054l0.358-0.358h17.207l0.358,0.358v124.21
		l-0.358,0.358h-17.207l-0.358-0.358v-55.205h-22.046v55.205l-0.358,0.358h-17.206l-0.358-0.358v-124.21L539.963,744.9z"/>
	<path fill="#FFFFFF" d="M613.627,779.492h48.394l0.538,0.538v14.159l-31.545,57.176h31.007l0.538,0.539v17.385l-0.538,0.538
		h-51.082l-0.537-0.538v-14.697c0-0.834,10.575-20.491,31.725-58.969h-28.499l-0.537-0.537V780.03L613.627,779.492z"/>
</g>
</svg>
