<?xml version="1.0" encoding="utf-8"?>
<!-- Generator: Adobe Illustrator 15.0.2, SVG Export Plug-In . SVG Version: 6.00 Build 0)  -->
<!DOCTYPE svg PUBLIC "-//W3C//DTD SVG 1.1//EN" "http://www.w3.org/Graphics/SVG/1.1/DTD/svg11.dtd">
<svg version="1.1" id="Vrstva_1" xmlns="http://www.w3.org/2000/svg" xmlns:xlink="http://www.w3.org/1999/xlink" x="0px" y="0px"
	 width="1500px" height="1000px" viewBox="0 0 1500 1000" enable-background="new 0 0 1500 1000" xml:space="preserve">
<g>
	<path fill-rule="evenodd" clip-rule="evenodd" fill="#009FE3" d="M2,978.395V19.073C2,9.662,9.62,2,19.042,2H1480.08
		c9.402,0,17.095,7.662,17.095,17.073v959.321c0,9.443-7.692,17.073-17.095,17.073H19.042C9.62,995.468,2,987.838,2,978.395"/>
	<rect x="42.126" y="42.163" fill-rule="evenodd" clip-rule="evenodd" fill="#FFFFFF" width="1414.949" height="913.174"/>
	<path fill-rule="evenodd" clip-rule="evenodd" fill="#009FE3" d="M276.996,187.584c0-5.235-0.692-9.464-1.871-13.017
		c-1.179-3.542-2.872-6.43-4.89-8.631c-2.043-2.201-4.218-4.056-6.765-5.235c-2.542-1.184-4.9-2.039-7.279-2.547
		c2.201-0.676,4.564-1.692,6.765-3.217c2.201-1.342,4.056-3.04,5.754-5.241c1.682-2.018,3.034-4.396,4.219-7.263
		c1.017-2.877,1.52-5.911,1.52-9.475c0-5.927-0.833-10.821-2.358-14.705c-1.698-3.899-3.899-6.949-6.42-9.145
		c-2.542-2.201-5.581-3.883-8.961-4.743c-3.391-0.838-6.771-1.341-10.156-1.341c-5.063,0-9.794,0.844-14.013,2.704
		c-4.402,1.855-8.458,4.229-12.362,7.284l7.101,11.162c3.223-2.542,6.44-4.234,9.296-5.246c2.877-0.859,5.765-1.352,8.458-1.352
		c1.179,0,2.704,0.157,4.24,0.33c1.525,0.162,2.866,0.849,4.213,1.871c1.362,1.179,2.547,2.694,3.385,4.889
		c0.849,2.201,1.362,5.251,1.362,9.145c0,6.42-1.362,11.162-4.056,14.029c-2.725,2.877-6.257,4.402-10.486,4.402h-4.24v13.693h5.088
		c2.196,0,4.213,0.157,6.074,0.687c1.855,0.498,3.38,1.514,4.905,3.04c1.509,1.525,2.714,3.721,3.553,6.598
		c0.838,2.866,1.179,6.587,1.179,11.324c0,4.229-0.503,7.62-1.525,10.486c-1.006,2.872-2.348,5.073-3.878,6.76
		c-1.693,1.86-3.558,3.06-5.759,3.721c-2.19,0.864-4.392,1.195-6.75,1.195c-3.563,0-6.603-0.514-9.475-1.515
		c-2.867-1.022-5.403-2.384-7.269-3.904l-7.274,11.849c2.542,2.018,6.089,3.873,10.308,5.581c4.234,1.661,9.307,2.521,15.38,2.521
		c4.402,0,8.642-0.687,12.698-2.19c3.888-1.514,7.436-3.715,10.486-6.76c3.04-3.061,5.398-6.933,7.253-11.498
		C276.147,199.25,276.996,193.852,276.996,187.584 M148.868,192.667c0,10.821,2.882,18.944,8.458,24.185
		c5.586,5.235,13.18,7.918,22.659,7.918c9.297,0,16.906-2.683,22.654-7.918c5.581-5.241,8.438-13.363,8.438-24.185
		c0-4.234-0.493-7.96-1.677-11.162c-1.179-3.228-2.542-5.922-4.396-8.463c-1.86-2.363-3.883-4.559-6.257-6.419
		c-2.363-1.866-4.743-3.563-7.106-5.251c1.363-0.854,3.05-2.196,4.905-3.894c1.855-1.52,3.553-3.538,5.235-6.084
		c1.698-2.374,3.061-5.078,4.24-8.275c1.184-3.223,1.677-6.781,1.677-10.842c0-5.738-0.838-10.481-2.348-14.369
		c-1.525-3.716-3.731-6.76-6.273-8.961c-2.531-2.201-5.57-3.721-8.788-4.58c-3.38-0.838-6.76-1.341-10.303-1.341
		c-3.553,0-6.933,0.503-10.156,1.341c-3.38,0.859-6.414,2.379-8.956,4.58c-2.526,2.201-4.727,5.246-6.236,8.961
		c-1.546,3.888-2.384,8.631-2.384,14.542c0,3.38,0.346,6.43,1.179,9.302c0.86,2.882,1.855,5.403,3.223,7.604
		c1.352,2.379,2.877,4.402,4.559,6.268c1.698,1.855,3.38,3.38,5.235,4.895c-1.855,1.2-3.721,2.542-5.738,4.239
		c-2.044,1.682-3.899,3.726-5.581,6.268c-1.855,2.521-3.223,5.581-4.402,9.118C149.549,183.711,148.868,187.925,148.868,192.667z
		 M194.187,192.667c0,5.586-1.022,10.146-3.04,13.698c-2.201,3.542-5.927,5.246-11.162,5.246c-5.418,0-9.134-1.703-11.162-5.083
		c-2.028-3.385-3.039-7.944-3.039-13.861c0-7.614,0.849-13.195,2.521-17.084c1.698-3.721,3.899-6.603,6.603-8.625
		c3.039,2.022,5.754,3.721,8.117,5.246c2.358,1.514,4.397,3.197,6.084,4.895c1.693,1.866,3.034,3.888,3.894,6.268
		C193.841,185.907,194.187,188.947,194.187,192.667z M168.147,132.612c0-5.241,0.838-9.297,2.542-12.158
		c1.677-2.877,4.727-4.402,9.296-4.402c4.56,0,7.782,1.525,9.454,4.402c1.525,2.861,2.384,6.917,2.384,12.158
		c0,6.598-0.859,11.508-2.542,14.888c-1.698,3.559-3.716,6.257-5.917,8.123c-2.877-2.201-5.419-4.072-7.279-5.927
		c-2.012-1.682-3.537-3.38-4.716-5.235c-1.205-1.683-2.043-3.543-2.547-5.414C168.305,137.192,168.147,134.997,168.147,132.612z
		 M126.827,80.916h170.591v170.591H126.827V80.916z"/>
	<path fill-rule="evenodd" clip-rule="evenodd" d="M869.174,246.282h22.262v-74.435c0-4.161,0.869-7.635,2.389-10.722
		c1.541-3.045,3.291-5.676,5.691-7.641c2.17-1.96,4.801-3.249,7.641-4.365c2.84-0.87,5.45-1.29,8.06-1.29
		c7.2,0,12.231,1.525,15.522,4.57c3.039,3.286,4.569,8.966,4.569,17.246v76.636h22.282v-77.716c0-12.676-2.83-22.282-8.751-28.612
		c-5.891-6.32-15.261-9.37-28.151-9.37c-5.671,0-11.131,1.085-16.162,3.49c-5.01,2.39-9.38,6.116-13.09,11.125V93.451h-22.262
		V246.282z M816.749,230.136c-2.81,0-5.88-0.44-8.731-1.32c-2.84-0.875-5.449-2.84-7.64-5.676c-2.4-2.845-4.13-6.771-5.45-12.226
		c-1.52-5.235-2.201-12.231-2.201-20.957c0-8.741,0.682-15.706,1.761-21.176c1.09-5.456,2.841-9.616,5.031-12.667
		c1.97-2.835,4.58-4.795,7.63-5.879c2.84-0.88,6.11-1.321,9.831-1.321c3.93,0,7.641,0.44,10.921,1.085
		c3.26,0.88,7.211,2.201,11.57,3.925l6.53-16.581c-3.91-1.745-8.061-3.27-12.65-4.795c-4.591-1.321-10.481-1.965-17.682-1.965
		c-15.731,0-27.292,4.795-34.514,14.616c-7.399,9.831-11.13,24.667-11.13,44.758c0,11.565,1.121,21.171,3.49,28.812
		c2.399,7.646,5.471,13.536,9.61,17.922c4.161,4.36,8.961,7.405,14.411,9.166c5.471,1.708,11.592,2.589,17.922,2.589
		c7.201,0,13.091-0.645,17.892-1.96c4.59-1.504,8.961-3.029,12.892-4.779l-6.562-16.602c-4.37,1.745-8.29,3.066-11.571,3.71
		C824.829,229.696,820.909,230.136,816.749,230.136z M695.37,148.915c8.091,0,13.981,1.085,18.111,3.485
		c3.951,2.405,5.911,7.646,5.911,15.501v8.746h-16.602c-16.822,0-29.032,2.825-37.113,8.736c-8.06,5.879-11.99,15.056-11.99,27.292
		c0,6.331,0.88,11.775,2.851,16.376c1.719,4.575,4.329,8.285,7.62,11.13c3.27,2.835,7.41,5.01,12.011,6.304
		c4.57,1.315,9.601,1.96,15.051,1.96c8.29,0,14.841-1.525,19.651-4.779c4.591-3.28,8.291-6.975,11.131-11.565l2.84,14.181h16.811
		v-79.681c0-11.571-3.28-20.532-9.81-26.852c-6.771-6.116-18.132-9.166-34.063-9.166c-7.211,0-13.772,0.645-20.092,1.965
		c-6.331,1.525-12.011,3.05-17.042,4.57l5.241,16.806c5.471-1.525,10.711-2.845,15.952-3.689
		C686.849,149.355,691.45,148.915,695.37,148.915z M696.02,230.781c-7.41,0-12.441-1.729-15.281-5.251
		c-2.851-3.249-4.371-8.049-4.371-14.175c0-6.556,1.96-11.571,5.891-14.841c3.71-3.286,10.271-4.811,19.452-4.811h17.681v18.567
		c0,1.965-0.44,4.135-1.111,6.535c-0.849,2.405-2.169,4.811-3.92,6.776c-1.97,1.949-4.371,3.715-7.211,5.031
		C704.101,230.136,700.391,230.781,696.02,230.781z M640.136,244.542l-4.129-17.047c-1.09,0.241-2.411,0.445-3.931,0.676
		c-1.541,0.204-2.63,0.44-3.71,0.44c-2.851,0-4.811-0.671-5.681-1.965c-1.101-1.32-1.52-3.506-1.52-6.771V93.451h-22.272v128.165
		c0,4.596,0.65,8.521,1.96,11.796c1.299,3.28,3.05,6.095,5.45,8.081c2.191,1.965,4.811,3.49,7.861,4.365
		c2.83,1.064,6.121,1.504,9.391,1.504c3.28,0,6.11-0.235,8.961-0.875C635.336,245.857,637.736,245.192,640.136,244.542z
		 M577.901,244.542l-4.14-17.047c-1.079,0.241-2.39,0.445-3.909,0.676c-1.562,0.204-2.641,0.44-3.731,0.44
		c-2.84,0-4.79-0.671-5.67-1.965c-1.09-1.32-1.53-3.506-1.53-6.771V93.451h-22.25v128.165c0,4.596,0.639,8.521,1.949,11.796
		c1.3,3.28,3.05,6.095,5.45,8.081c2.201,1.965,4.811,3.49,7.86,4.365c2.83,1.064,6.11,1.504,9.401,1.504
		c3.27,0,6.11-0.235,8.951-0.875C573.101,245.857,575.501,245.192,577.901,244.542z M476.834,96.961c0,4.129,1.52,7.635,4.36,10.455
		c2.84,2.84,6.33,4.386,10.48,4.386c4.13,0,7.861-1.546,10.691-4.386c2.84-2.819,4.161-6.325,4.161-10.455
		c0-4.166-1.32-7.881-4.161-10.727c-2.83-2.83-6.561-4.129-10.691-4.129c-4.15,0-7.64,1.3-10.48,4.129
		C478.354,89.08,476.834,92.795,476.834,96.961z M502.806,132.753h-38.632v17.482h16.371v96.046h22.261V132.753z M435.33,93.451
		l-31.663,130.795L372.445,93.451h-24.662l40.624,152.832h29.462l40.603-152.832H435.33z"/>
	<path fill-rule="evenodd" clip-rule="evenodd" d="M1346.565,806.509h22.24v-83.134c0-13.164-2.494-22.712-7.714-28.623
		c-5.24-5.67-12.734-8.615-22.733-8.615c-5.45,0-10.659,1.121-15.438,3.626c-4.77,2.494-8.847,6.582-12.263,12.032l-3.647-13.405
		h-15.428v118.119h22.251v-77.894c0-4.538,0.67-8.416,1.834-11.612c1.121-3.166,2.715-5.671,4.748-7.704
		c2.043-1.834,4.076-3.176,6.372-4.098c2.284-0.691,4.538-1.121,6.823-1.121c3.836,0,7.043,1.341,9.537,4.087
		c2.254,2.956,3.417,8.406,3.417,16.34V806.509z M1225.239,808.762c6.163,0,11.833-0.911,16.832-2.935
		c4.989-2.033,9.317-5.449,12.944-10.197c3.406-4.79,6.131-10.921,8.164-18.865c1.824-7.714,2.746-17.503,2.746-29.315
		c0-11.802-0.922-21.569-2.746-29.524c-2.033-7.714-4.758-14.086-8.164-18.845c-3.627-4.779-7.955-7.955-12.944-9.998
		c-4.999-2.055-10.669-2.945-16.832-2.945c-6.11,0-11.791,0.891-16.78,2.945c-4.999,2.043-9.328,5.219-12.744,9.998
		c-3.627,4.759-6.362,11.131-8.165,18.845c-2.033,7.955-2.944,17.723-2.944,29.524c0,11.151,0.911,20.679,2.944,28.403
		c1.803,7.944,4.538,14.316,8.165,19.075c3.416,4.779,7.745,8.405,12.744,10.449C1213.448,807.63,1219.129,808.762,1225.239,808.762
		z M1225.239,704.51c3.207,0,5.922,0.691,8.206,1.823c2.254,1.132,4.077,3.417,5.66,6.593c1.593,3.196,2.725,7.493,3.416,12.954
		c0.671,5.681,0.912,12.724,0.912,21.569c0,7.955-0.241,14.778-0.912,20.229c-0.691,5.449-1.823,9.757-3.416,13.174
		c-1.583,3.406-3.406,5.9-5.66,7.273c-2.284,1.594-4.999,2.265-8.206,2.265c-3.165,0-5.901-0.671-8.165-2.265
		c-2.274-1.373-4.076-3.867-5.67-7.273c-1.604-3.417-2.494-7.725-3.196-13.174c-0.66-5.45-1.122-12.273-1.122-20.229
		c0-8.846,0.462-15.889,1.122-21.569c0.702-5.461,1.593-9.758,3.196-12.954c1.594-3.176,3.396-5.461,5.67-6.593
		C1219.338,705.201,1222.074,704.51,1225.239,704.51z M1154.367,707.465c1.583,0,3.627,0.241,5.702,0.451
		c2.033,0.472,4.538,1.383,7.253,2.505l4.779-21.57c-2.285-0.681-4.318-1.372-6.373-2.054c-2.033-0.451-4.538-0.66-7.493-0.66
		c-6.582,0-11.571,2.033-15.239,5.88c-3.836,4.108-6.792,9.107-8.825,14.777l-3.657-18.404h-15.428v118.119h22.25v-66.773
		c0-9.317,1.373-17.031,3.878-23.162C1143.698,710.421,1148.236,707.465,1154.367,707.465z M1020.14,806.509h22.24v-55.862
		l29.524,55.862h25.688l-37.05-65.642l34.095-52.478h-24.536l-27.722,46.105v-86.991h-22.24V806.509z M958.345,808.762
		c4.748,0,9.286-0.67,14.075-2.043c4.539-1.342,8.616-3.596,12.253-6.551c3.406-2.966,6.372-6.593,8.646-11.361
		c2.044-4.549,3.176-10.009,3.176-16.591c0-5.66-0.912-10.449-2.505-14.317c-1.824-3.836-4.077-7.032-6.823-9.998
		c-2.945-2.956-5.88-5.209-9.297-7.253c-3.406-2.044-6.822-3.867-9.988-5.461c-4.789-2.494-9.097-4.988-12.493-7.483
		c-3.396-2.505-5.219-5.701-5.219-9.548c0-3.856,1.362-7.032,3.867-9.537c2.474-2.495,5.891-3.647,9.758-3.647
		c3.836,0,7.493,0.45,11.34,1.604c3.867,1.132,8.186,3.176,12.944,5.89l7.504-17.031c-2.715-2.044-6.802-4.087-12.042-6.131
		c-5.22-2.044-12.032-3.165-20.197-3.165c-3.878,0-7.745,0.45-11.812,1.572c-4.318,1.142-8.165,2.714-11.581,5.219
		c-3.406,2.505-6.362,5.911-8.615,9.999c-2.285,4.328-3.417,9.537-3.417,15.91c0,5.24,0.922,9.526,2.505,13.153
		c1.582,3.657,3.626,6.833,6.121,9.328c2.494,2.735,5.219,4.999,8.175,6.582c2.955,1.834,6.152,3.406,9.098,4.999
		c2.483,1.373,4.968,2.735,7.473,3.878c2.264,1.362,4.308,2.715,6.131,4.318c1.803,1.582,3.176,3.385,4.297,5.46
		c1.153,2.033,1.614,4.538,1.614,7.483c0,5.22-1.373,9.087-4.328,11.581c-2.945,2.505-7.033,3.847-12.043,3.847
		c-3.375,0-7.001-0.43-10.879-1.342c-3.867-0.702-8.405-2.505-13.164-4.999l-7.284,17.042c2.956,2.033,7.284,3.867,12.954,5.659
		C944.049,807.851,950.62,808.762,958.345,808.762z M836.138,749.943c0,11.613,0.703,21.15,2.285,28.634
		c1.583,7.505,3.637,13.636,6.582,17.965c2.956,4.538,6.362,7.703,10.46,9.526c3.857,1.782,8.396,2.693,13.164,2.693
		c7.273,0,12.943-1.362,17.272-4.297c4.317-2.935,7.493-6.582,9.768-10.89l3.857,12.934h15.229V647.504h-22.03v42.71
		c-2.506-1.132-5.241-2.274-7.955-2.956c-2.956-0.671-5.911-1.121-8.867-1.121c-6.121,0-11.812,1.121-16.58,3.375
		c-4.779,2.295-9.077,5.921-12.494,11.151c-3.406,5.22-6.131,11.801-7.954,19.756C837.05,728.615,836.138,738.373,836.138,749.943z
		 M875.441,790.39c-2.956,0-5.66-0.671-7.703-1.803c-2.044-1.164-3.878-2.967-5-5.911c-1.362-2.956-2.274-6.823-2.955-11.833
		c-0.692-4.748-0.912-11.12-0.912-18.614c0-8.867,0.22-16.36,0.912-22.492c0.681-6.12,1.803-10.899,3.416-14.777
		c1.572-3.627,3.627-6.341,6.342-7.955c2.735-1.583,6.151-2.494,10.449-2.494c3.637,0,7.955,0.691,12.734,1.823v61.564
		c0,2.735-0.241,5.45-0.912,8.186c-0.702,2.715-1.824,5.22-3.197,7.263c-1.593,2.044-3.385,3.868-5.439,4.989
		C880.901,789.719,878.407,790.39,875.441,790.39z M789.362,806.509h22.24v-83.134c0-13.164-2.494-22.712-7.703-28.623
		c-5.23-5.67-12.734-8.615-22.733-8.615c-5.45,0-10.659,1.121-15.448,3.626c-4.759,2.494-8.836,6.582-12.253,12.032l-3.657-13.405
		H734.39v118.119h22.241v-77.894c0-4.538,0.681-8.416,1.834-11.612c1.132-3.166,2.715-5.671,4.758-7.704
		c2.044-1.834,4.077-3.176,6.362-4.098c2.285-0.691,4.538-1.121,6.833-1.121c3.836,0,7.033,1.341,9.527,4.087
		c2.264,2.956,3.417,8.406,3.417,16.34V806.509z M665.102,705.201c2.945,0,5.66,0.22,7.955,0.682
		c2.243,0.45,4.077,1.372,5.659,2.735c1.593,1.352,2.736,3.396,3.417,5.89c0.671,2.735,1.122,6.362,1.122,10.69v8.867h-12.032
		c-14.757,0-25.437,2.935-32.25,8.626c-7.054,5.911-10.439,15.448-10.439,28.854c0,7.032,0.88,12.934,2.495,17.702
		c1.583,4.79,3.626,8.416,6.582,11.371c2.956,2.956,6.372,5.209,10.208,6.32c3.878,1.153,8.196,1.823,12.745,1.823
		c7.032,0,12.493-1.593,16.57-4.517c3.868-2.956,7.033-6.834,9.087-11.12l3.868,13.384h15.208v-82.684
		c0-12.943-2.714-22.481-8.406-28.612c-5.681-6.131-15.438-9.076-29.535-9.076c-5.88,0-11.802,0.66-17.943,2.033
		c-6.131,1.342-11.582,2.955-15.889,4.758l5.67,17.283c5.209-1.823,9.999-3.207,14.537-3.878
		C658.058,705.673,661.905,705.201,665.102,705.201z M683.254,749.734v18.163c0,2.285-0.21,4.779-0.912,7.273
		c-0.67,2.715-1.803,5.22-3.165,7.264c-1.583,2.274-3.406,4.098-5.911,5.69c-2.505,1.594-5.45,2.265-8.867,2.265
		c-4.758,0-8.165-1.583-10.219-5c-2.033-3.416-2.945-8.416-2.945-15.207c0-7.284,1.583-12.493,4.538-15.69
		c2.966-3.186,7.735-4.758,14.537-4.758H683.254z M543.325,806.509h74.079V785.39h-50.434V647.504h-23.645V806.509z"/>
	<path fill-rule="evenodd" clip-rule="evenodd" d="M176.045,908.508V469.896l-54.291,14.049c-2.662,0.687-0.896,0.461-3.631,0.461
		c-8.07,0-14.479-6.419-14.479-14.474c0-2.846,0.519-4.79,1.944-7.248l106.658-184.588l106.658,184.588
		c1.425,2.458,1.944,4.402,1.944,7.248c0,8.07-6.409,14.474-14.479,14.474c-2.746,0-0.975,0.225-3.626-0.461l-54.296-14.049v438.612
		H176.045z"/>
	<path fill-rule="evenodd" clip-rule="evenodd" d="M180.143,707.591h88.128h97.666l-10.125-39.125
		c-0.503-1.907-0.335-0.629-0.335-2.6c0-5.827,4.622-10.438,10.439-10.438c2.033,0,3.438,0.377,5.209,1.404l132.991,76.835
		l-132.991,76.846c-1.771,1.027-3.176,1.404-5.209,1.404c-5.817,0-10.449-4.622-10.449-10.429c0-1.98-0.157-0.713,0.335-2.62
		l10.135-39.125h-97h-88.794V707.591z"/>
</g>
</svg>
