<?xml version="1.0" encoding="UTF-8" standalone="no"?>
<!-- Created with Inkscape (http://www.inkscape.org/) -->
<svg
   xmlns:dc="http://purl.org/dc/elements/1.1/"
   xmlns:cc="http://web.resource.org/cc/"
   xmlns:rdf="http://www.w3.org/1999/02/22-rdf-syntax-ns#"
   xmlns:svg="http://www.w3.org/2000/svg"
   xmlns="http://www.w3.org/2000/svg"
   xmlns:sodipodi="http://sodipodi.sourceforge.net/DTD/sodipodi-0.dtd"
   xmlns:inkscape="http://www.inkscape.org/namespaces/inkscape"
   version="1.0"
   width="2500"
   height="1600"
   id="svg24393"
   sodipodi:version="0.32"
   inkscape:version="0.44"
   sodipodi:docname="Hinweiszeichen_15c.svg"
   sodipodi:docbase="F:\Diverses\Wikipedia\AT-StVZVO">
  <metadata
     id="metadata1910">
    <rdf:RDF>
      <cc:Work
         rdf:about="">
        <dc:format>image/svg+xml</dc:format>
        <dc:type
           rdf:resource="http://purl.org/dc/dcmitype/StillImage" />
      </cc:Work>
    </rdf:RDF>
  </metadata>
  <sodipodi:namedview
     inkscape:window-height="480"
     inkscape:window-width="640"
     inkscape:pageshadow="2"
     inkscape:pageopacity="0.0"
     guidetolerance="10.0"
     gridtolerance="10.0"
     objecttolerance="10.0"
     borderopacity="1.0"
     bordercolor="#666666"
     pagecolor="#ffffff"
     id="base"
     inkscape:zoom="0.235625"
     inkscape:cx="1250"
     inkscape:cy="800"
     inkscape:current-layer="svg24393" />
  <defs
     id="defs24395" />
  <path
     id="path21307"
     style="fill:white;stroke:black;stroke-width:19.75745392;stroke-linecap:butt;stroke-linejoin:miter;stroke-miterlimit:4;fill-opacity:1"
     d="M 9.878727,1491.9847 C 9.878727,1546.1905 53.719294,1590.1212 107.81371,1590.1212 L 2392.1862,1590.1212 C 2446.2806,1590.1212 2490.1212,1546.1905 2490.1212,1491.9847 L 2490.1212,108.01548 C 2490.1212,53.8097 2446.2806,9.8787 2392.1862,9.8787 L 107.81371,9.8787 C 53.719294,9.8787 9.878727,53.8097 9.878727,108.01548 L 9.878727,1491.9847 z " />
  <path
     id="path21309"
     style="fill:#176fc1;fill-rule:nonzero;stroke:none"
     d="M 93.875418,1506.1627 L 2406.3123,1506.1627 L 2406.3123,94.20618 L 93.875418,94.20618 L 93.875418,1506.1627 z " />
  <path
     id="path21311"
     style="fill:white;fill-rule:nonzero;stroke:none"
     d="M 808.57979,298.22332 L 808.57979,263.16409 L 651.17618,263.16409 L 651.17618,508.51939 L 686.14818,508.51939 L 686.14818,420.89105 L 791.08391,420.89105 L 791.08391,385.83181 L 686.14818,385.83181 L 686.14818,298.22332 L 808.57979,298.22332" />
  <path
     id="path21313"
     style="fill:white;fill-rule:nonzero;stroke:none"
     d="M 394.38577,645.78509 L 394.38577,610.7457 L 236.98217,610.7457 L 236.98217,856.08116 L 394.38577,856.08116 L 394.38577,821.04178 L 271.95416,821.04178 L 271.95416,750.94315 L 376.8899,750.94315 L 376.8899,715.88392 L 271.95416,715.88392 L 271.95416,645.78509 L 394.38577,645.78509" />
  <path
     id="path21315"
     style="fill:white;fill-rule:nonzero;stroke:none"
     d="M 483.16842,1108.6463 L 439.13254,1287.7456 L 398.59189,1108.6463 L 362.21785,1108.6463 L 321.67719,1287.7456 L 277.6413,1108.6463 L 241.26727,1108.6463 L 304.20107,1354.0215 L 339.17306,1354.0215 L 380.40486,1183.7563 L 421.65642,1354.0215 L 456.62841,1354.0215 L 519.54246,1108.6463 L 483.16842,1108.6463" />
  <path
     id="path21317"
     style="fill:white;fill-rule:nonzero;stroke:none"
     d="M 237.3771,446.73981 C 240.27992,483.99776 274.38304,513.33245 315.95055,513.33245 C 359.41377,513.33245 394.66222,481.16526 394.66222,441.47101 C 394.66222,401.79661 359.41377,369.62922 315.95055,369.62922 C 291.79993,369.62922 272.23062,353.14953 272.23062,332.82702 C 272.23062,312.5045 291.79993,296.02461 315.95055,296.02461 C 336.40848,296.02461 353.70687,308.08743 358.46592,324.05223 L 394.03032,324.05223 C 389.23179,288.55731 356.13576,260.96537 315.95055,260.96537 C 272.48733,260.96537 237.23888,293.13277 237.23888,332.82702 C 237.23888,372.50142 272.48733,404.6686 315.95055,404.6686 C 340.10117,404.6686 359.67048,421.14849 359.67048,441.47101 C 359.67048,461.79353 340.10117,478.27321 315.95055,478.27321 C 293.91286,478.27321 275.66661,464.54662 272.66506,446.70011 L 237.3771,446.73981" />
  <path
     id="path21319"
     style="fill:white;fill-rule:nonzero;stroke:none"
     d="M 1059.4065,400.23189 L 1059.4065,400.23189 C 1059.4065,361.50828 1028.068,330.13306 989.44286,330.13306 C 950.79791,330.13306 919.47912,361.50828 919.47912,400.23189 L 919.47912,442.28304 C 919.47912,480.98701 950.79791,512.38187 989.44286,512.38187 C 1028.068,512.38187 1059.4065,480.98701 1059.4065,442.28304 L 1059.4065,400.23189 z M 989.44286,477.32263 C 970.13026,477.32263 954.47086,461.63493 954.47086,442.28304 L 954.47086,400.23189 C 954.47086,380.86016 970.13026,365.17266 989.44286,365.17266 C 1008.7554,365.17266 1024.4148,380.86016 1024.4148,400.23189 L 1024.4148,442.28304 C 1024.4148,461.63493 1008.7554,477.32263 989.44286,477.32263" />
  <path
     id="path21321"
     style="fill:white;fill-rule:nonzero;stroke:none"
     d="M 1550.1796,329.75672 C 1538.0352,329.75672 1525.8907,334.39174 1515.2076,342.07699 L 1515.2076,333.26271 L 1480.2355,333.26271 L 1480.2355,508.51939 L 1515.2076,508.51939 L 1515.2076,399.85555 C 1515.2076,380.50367 1530.867,364.81596 1550.1796,364.81596 C 1569.5119,364.81596 1585.1713,380.50367 1585.1713,399.85555 L 1585.1713,508.51939 L 1620.1433,508.51939 L 1620.1433,399.85555 C 1620.1433,361.15158 1588.8245,329.75672 1550.1796,329.75672" />
  <path
     id="path21323"
     style="fill:white;fill-rule:nonzero;stroke:none"
     d="M 1200.3411,335.52076 C 1190.1319,329.67752 1177.9677,329.75672 1165.3691,329.75672 C 1153.2248,329.75672 1141.0803,334.39174 1130.3774,342.07699 L 1130.3774,333.26271 L 1095.4054,333.26271 L 1095.4054,508.51939 L 1130.3774,508.51939 L 1130.3774,399.85555 C 1130.3774,380.50367 1146.0566,364.81596 1165.3691,364.81596 C 1184.6817,364.81596 1200.3411,370.14431 1200.3411,370.14431 L 1200.3411,335.52076" />
  <path
     id="path21325"
     style="fill:white;fill-rule:nonzero;stroke:none"
     d="M 687.11578,1176.6654 C 648.47084,1176.6654 617.15205,1208.0602 617.15205,1246.764 L 617.15205,1288.835 C 617.15205,1327.5389 648.47084,1358.9338 687.11578,1358.9338 C 717.13127,1358.9338 742.74318,1339.9581 752.67594,1313.337 L 712.13527,1313.3171 C 705.77673,1319.8336 696.91031,1323.8746 687.11578,1323.8746 C 667.78344,1323.8746 652.12405,1308.1869 652.12405,1288.835 L 652.12405,1285.3292 L 757.07953,1285.3292 L 757.07953,1246.764 C 757.07953,1208.0602 725.74098,1176.6654 687.11578,1176.6654 z M 722.08778,1250.27 L 652.12405,1250.27 L 652.12405,1246.764 C 652.12405,1227.4121 667.78344,1211.7246 687.11578,1211.7246 C 706.42839,1211.7246 722.08778,1227.4121 722.08778,1246.764 L 722.08778,1250.27" />
  <path
     id="path21327"
     style="fill:white;fill-rule:nonzero;stroke:none"
     d="M 1228.6781,298.22332 L 1263.6501,298.22332 L 1263.6501,263.18394 L 1228.6781,263.18394 L 1228.6781,298.22332 z " />
  <path
     id="path21329"
     style="fill:white;fill-rule:nonzero;stroke:none"
     d="M 1228.6781,508.51939 L 1263.6501,508.51939 L 1263.6501,333.26271 L 1228.6781,333.26271 L 1228.6781,508.51939 z " />
  <path
     id="path21331"
     style="fill:white;fill-rule:nonzero;stroke:none"
     d="M 874.3374,473.5195 L 874.3374,473.5195 C 870.46699,473.5195 867.32721,470.38986 867.32721,466.50774 L 867.32721,263.22343 L 832.35521,263.22343 L 832.35521,466.50774 L 832.41445,466.52738 C 832.41445,489.7221 851.17413,508.51939 874.3374,508.51939 L 884.82308,508.51939 L 884.82308,473.5195 L 874.3374,473.5195" />
  <path
     id="path21333"
     style="fill:white;fill-rule:nonzero;stroke:none"
     d="M 502.63901,333.26271 L 478.15269,333.26271 L 478.15269,263.16409 L 443.18069,280.6936 L 443.18069,333.26271 L 418.69437,333.26271 L 418.69437,368.32194 L 443.18069,368.32194 L 443.18069,508.51939 L 478.15269,508.51939 L 478.15269,368.32194 L 502.63901,368.32194 L 502.63901,333.26271" />
  <path
     id="path21335"
     style="fill:white;fill-rule:nonzero;stroke:none"
     d="M 538.87481,473.46016 L 573.84681,473.46016 L 573.84681,508.51939 L 538.87481,508.51939 L 538.87481,473.46016 z " />
  <path
     id="path21337"
     style="fill:white;fill-rule:nonzero;stroke:none"
     d="M 812.17374,814.2676 C 818.17684,820.60609 829.57088,824.78535 842.60392,824.78535 C 861.91652,824.78535 877.57592,815.35693 877.57592,803.74985 C 877.57592,792.14257 861.91652,782.71435 842.60392,782.71435 C 805.89419,782.71435 776.1354,759.183 776.1354,730.14525 C 776.1354,701.1075 805.89419,677.57614 842.60392,677.57614 C 876.17387,677.57614 903.91845,697.56202 908.42078,723.13328 L 871.43459,723.09378 C 866.55707,716.93354 855.47899,712.61552 842.60392,712.61552 C 825.20678,712.61552 811.1074,720.45938 811.1074,730.14525 C 811.1074,739.83111 825.20678,747.67476 842.60392,747.67476 C 881.22912,747.67476 912.54792,772.77084 912.54792,803.74985 C 912.54792,834.70881 881.22912,859.82474 842.60392,859.82474 C 808.26383,859.82474 779.55164,840.39366 773.60779,814.2676 L 812.17374,814.2676" />
  <path
     id="path21339"
     style="fill:white;fill-rule:nonzero;stroke:none"
     d="M 1374.0755,329.75672 C 1342.7765,329.75672 1316.0588,350.43573 1307.1133,378.81984 L 1346.094,378.81984 C 1352.4723,370.40175 1362.7013,364.81596 1374.0755,364.81596 C 1393.3881,364.81596 1409.0475,380.50367 1409.0475,399.85555 C 1401.0302,404.8667 1356.5797,403.36133 1356.5797,403.36133 C 1325.6756,403.36133 1300.6165,424.97127 1300.6165,455.93044 C 1300.6165,486.90945 1325.6756,512.02517 1356.5797,512.02517 C 1356.5797,512.02517 1391.2555,515.74911 1409.0475,496.35752 L 1409.0475,508.51939 L 1444.0393,508.51939 L 1444.0393,399.85555 C 1444.0393,361.15158 1412.7007,329.75672 1374.0755,329.75672 z M 1409.0475,455.93044 C 1401.7411,483.89871 1356.5797,476.96594 1356.5797,476.96594 C 1346.9233,476.96594 1335.5886,468.23085 1335.5886,455.93044 C 1335.5886,444.12526 1346.9233,434.91479 1356.5797,434.91479 C 1356.5797,434.91479 1405.2561,436.24191 1409.0475,427.90281 L 1409.0475,455.93044" />
  <path
     id="path21341"
     style="fill:white;fill-rule:nonzero;stroke:none"
     d="M 496.9716,677.33855 C 484.82718,677.33855 472.68276,681.97335 461.99961,689.63896 L 461.99961,680.84433 L 427.00787,680.84433 L 427.00787,856.08116 L 461.99961,856.08116 L 461.99961,747.43717 C 461.99961,728.06543 477.659,712.37793 496.9716,712.37793 C 516.2842,712.37793 531.9436,728.06543 531.9436,747.43717 L 531.9436,856.08116 L 566.93534,856.08116 L 566.93534,747.43717 C 566.93534,708.71355 535.5968,677.33855 496.9716,677.33855" />
  <path
     id="path21343"
     style="fill:white;fill-rule:nonzero;stroke:none"
     d="M 676.29441,677.33855 C 664.14998,677.33855 652.00556,681.97335 641.32241,689.63896 L 641.32241,680.84433 L 606.33067,680.84433 L 606.33067,856.08116 L 641.32241,856.08116 L 641.32241,747.43717 C 641.32241,728.06543 656.98182,712.37793 676.29441,712.37793 C 695.60701,712.37793 711.26641,728.06543 711.26641,747.43717 L 711.26641,856.08116 L 746.25814,856.08116 L 746.25814,747.43717 C 746.25814,708.71355 714.93935,677.33855 676.29441,677.33855" />
  <path
     id="path21345"
     style="fill:white;fill-rule:nonzero;stroke:none"
     d="M 866.12264,1175.2787 C 853.97821,1175.2787 841.83379,1179.9137 831.15064,1187.5791 L 831.15064,1178.7847 L 796.1589,1178.7847 L 796.1589,1354.0215 L 831.15064,1354.0215 L 831.15064,1245.3775 C 831.15064,1226.0254 846.81003,1210.3379 866.12264,1210.3379 C 885.45498,1210.3379 901.11438,1226.0254 901.11438,1245.3775 L 901.11438,1354.0215 L 936.08637,1354.0215 L 936.08637,1245.3775 C 936.08637,1206.6735 904.76758,1175.2787 866.12264,1175.2787" />
  <path
     id="path21347"
     style="fill:white;fill-rule:nonzero;stroke:none"
     d="M 548.74833,1143.7453 L 583.72032,1143.7453 L 583.72032,1108.7059 L 548.74833,1108.7059 L 548.74833,1143.7453 z " />
  <path
     id="path21349"
     style="fill:white;fill-rule:nonzero;stroke:none"
     d="M 548.74833,1354.0215 L 583.72032,1354.0215 L 583.72032,1178.7847 L 548.74833,1178.7847 L 548.74833,1354.0215 z " />
  <path
     id="path21351"
     style="fill:white;fill-rule:nonzero;stroke:none"
     d="M 2086.43,373.2541 L 2105.7624,373.2541 L 2105.7624,454.18747 L 2106.1376,454.18747 L 2129.4589,412.19546 L 2148.7912,412.19546 L 2125.8649,451.33512 L 2153.5502,508.49954 L 2132.4999,508.49954 L 2115.0633,466.90373 L 2105.7624,481.52175 L 2105.7624,508.49954 L 2086.43,508.49954 L 2086.43,373.2541" />
  <path
     id="path21353"
     style="fill:white;fill-rule:nonzero;stroke:none"
     d="M 2170.6511,412.21531 L 2189.9835,412.21531 L 2189.9835,421.52484 L 2190.3587,421.52484 C 2194.3476,415.444 2199.6595,411.06643 2208.5654,411.06643 C 2216.8987,411.06643 2222.4082,416.01844 2225.8046,420.7523 C 2230.5439,415.444 2235.6781,411.06643 2245.9071,411.06643 C 2255.5831,411.06643 2266.9575,417.34557 2266.9575,434.61764 L 2266.9575,508.51939 L 2247.6053,508.51939 L 2247.6053,441.84735 C 2247.6053,434.81574 2244.2088,430.43817 2238.1268,430.43817 C 2230.9388,430.43817 2228.4704,435.19208 2228.4704,443.74892 L 2228.4704,508.51939 L 2209.1382,508.51939 L 2209.1382,441.84735 C 2209.1382,434.81574 2205.7219,430.43817 2199.6595,430.43817 C 2192.4519,430.43817 2189.9835,435.19208 2189.9835,443.74892 L 2189.9835,508.51939 L 2170.6511,508.51939 L 2170.6511,412.21531" />
  <path
     id="path21355"
     style="fill:white;fill-rule:nonzero;stroke:none"
     d="M 1881.8507,655.86715 L 1846.543,687.89579 L 1846.5233,643.21024 L 1881.8309,612.38983 L 1917.1584,612.38983 L 1917.1584,857.0518 L 1881.8309,857.0518 L 1881.8507,655.86715" />
  <path
     id="path21357"
     style="fill:white;fill-rule:nonzero;stroke:none"
     d="M 1825.9666,1125.6411 C 1835.307,1113.4993 1849.8605,1106.5469 1865.7766,1106.5469 C 1881.7125,1106.5469 1896.2463,1113.4993 1905.6064,1125.6411 C 1914.9467,1137.4465 1918.4223,1146.1024 1918.4223,1173.1792 C 1918.4223,1202.316 1917.731,1211.1896 1900.7487,1224.7181 C 1917.731,1237.5535 1918.4223,1246.764 1918.4223,1284.2397 C 1918.4223,1314.4263 1915.9933,1322.7455 1908.7265,1333.5009 C 1900.7487,1345.6429 1886.2148,1355.3683 1865.7766,1355.3683 C 1845.3582,1355.3683 1830.8046,1345.6429 1822.8466,1333.5009 C 1815.5797,1322.7455 1813.1509,1314.4263 1813.1509,1284.2397 C 1813.1509,1246.764 1813.842,1237.5535 1830.8046,1224.7181 C 1813.842,1211.1896 1813.1509,1202.316 1813.1509,1173.1792 C 1813.1509,1146.1024 1816.6065,1137.4465 1825.9666,1125.6411 z M 1883.0948,1159.294 C 1883.0948,1149.5885 1874.7813,1141.9428 1865.7766,1141.9428 C 1856.772,1141.9428 1848.4782,1149.5885 1848.4782,1159.294 L 1848.4782,1194.175 C 1848.4782,1203.9006 1856.772,1211.5265 1865.7766,1211.5265 C 1874.7813,1211.5265 1883.0948,1203.9006 1883.0948,1194.175 L 1883.0948,1159.294 z M 1883.0948,1255.2416 C 1883.0948,1245.5359 1874.7813,1237.91 1865.7766,1237.91 C 1856.772,1237.91 1848.4782,1245.5359 1848.4782,1255.2416 L 1848.4782,1302.6211 C 1848.4782,1312.3465 1856.772,1319.9724 1865.7766,1319.9724 C 1874.7813,1319.9724 1883.0948,1312.3465 1883.0948,1302.6211 L 1883.0948,1255.2416" />
  <path
     id="path21359"
     style="fill:white;fill-rule:nonzero;stroke:none"
     d="M 1954.3421,660.40312 C 1954.3421,627.44334 1978.9272,607.31912 2006.9878,607.31912 C 2035.0286,607.31912 2059.6136,627.44334 2059.6136,660.40312 L 2059.6136,805.45332 C 2059.6136,838.4129 2035.0286,858.53732 2006.9878,858.53732 C 1978.9272,858.53732 1954.3421,838.4129 1954.3421,805.45332 L 1954.3421,660.40312 z M 1989.6696,805.45332 C 1989.6696,815.51553 1996.9365,823.14144 2006.9878,823.14144 C 2017.0193,823.14144 2024.2862,815.51553 2024.2862,805.45332 L 2024.2862,660.40312 C 2024.2862,650.34091 2017.0193,642.715 2006.9878,642.715 C 1996.9365,642.715 1989.6696,650.34091 1989.6696,660.40312 L 1989.6696,805.45332" />
  <path
     id="path21361"
     style="fill:white;fill-rule:nonzero;stroke:none"
     d="M 2006.2769,508.61844 C 2034.3374,508.61844 2058.9224,488.49402 2058.9224,455.53424 L 2058.9224,404.05467 C 2058.9224,371.09509 2034.3374,350.97067 2006.2769,350.97067 C 2000.2738,350.97067 1994.1325,353.08998 1988.9587,356.12058 L 1988.9587,310.50389 C 1988.9587,300.44168 1996.2454,292.79613 2006.2769,292.79613 C 2016.3281,292.79613 2023.595,300.44168 2023.595,310.50389 L 2058.9224,310.50389 C 2058.9224,277.52446 2034.3177,257.41989 2006.2769,257.41989 C 1978.236,257.41989 1953.6509,277.54431 1953.6509,310.50389 L 1953.6509,455.53424 C 1953.6509,488.49402 1978.236,508.61844 2006.2769,508.61844 z M 2006.2769,386.36655 C 2016.3281,386.36655 2023.595,393.99246 2023.595,404.05467 L 2023.595,455.53424 C 2023.595,465.59645 2016.3281,473.22236 2006.2769,473.22236 C 1996.2454,473.22236 1988.9587,465.59645 1988.9587,455.53424 L 1988.9587,404.05467 C 1988.9587,393.99246 1996.2454,386.36655 2006.2769,386.36655" />
  <path
     id="path21363"
     style="fill:white;fill-rule:nonzero;stroke:none"
     d="M 1742.8316,1152.8567 L 1707.5042,1184.8655 L 1707.5042,1140.1998 L 1742.8119,1109.3792 L 1778.1393,1109.3792 L 1778.1393,1354.0215 L 1742.8119,1354.0215 L 1742.8316,1152.8567" />
  <path
     id="path21365"
     style="fill:white;fill-rule:nonzero;stroke:none"
     d="M 1954.6778,1157.2341 C 1954.6778,1124.2745 1979.2628,1104.1501 2007.3037,1104.1501 C 2035.3643,1104.1501 2059.9493,1124.2745 2059.9493,1157.2341 L 2059.9493,1302.2644 C 2059.9493,1335.2242 2035.3643,1355.3486 2007.3037,1355.3486 C 1979.2628,1355.3486 1954.6778,1335.2242 1954.6778,1302.2644 L 1954.6778,1157.2341 z M 1990.0053,1302.2644 C 1990.0053,1312.3266 1997.2722,1319.9724 2007.3037,1319.9724 C 2017.3549,1319.9724 2024.6219,1312.3266 2024.6219,1302.2644 L 2024.6219,1157.2341 C 2024.6219,1147.1719 2017.3549,1139.5459 2007.3037,1139.5459 C 1997.2722,1139.5459 1990.0053,1147.1719 1990.0053,1157.2341 L 1990.0053,1302.2644" />
  <path
     id="path21367"
     style="fill:white;fill-rule:nonzero;stroke:none"
     d="M 2086.43,720.83572 L 2105.7624,720.83572 L 2105.7624,801.74924 L 2106.1376,801.74924 L 2129.4589,759.77729 L 2148.7912,759.77729 L 2125.8649,798.89689 L 2153.5502,856.08116 L 2132.4999,856.08116 L 2115.0633,814.48555 L 2105.7624,829.10337 L 2105.7624,856.08116 L 2086.43,856.08116 L 2086.43,720.83572" />
  <path
     id="path21369"
     style="fill:white;fill-rule:nonzero;stroke:none"
     d="M 2170.6511,759.77729 L 2189.9835,759.77729 L 2189.9835,769.08681 L 2190.3587,769.08681 C 2194.3476,763.00577 2199.6595,758.64826 2208.5654,758.64826 C 2216.8987,758.64826 2222.4082,763.58021 2225.8046,768.33413 C 2230.5439,763.00577 2235.6781,758.64826 2245.9071,758.64826 C 2255.5831,758.64826 2266.9575,764.90734 2266.9575,782.19926 L 2266.9575,856.08116 L 2247.6053,856.08116 L 2247.6053,789.40912 C 2247.6053,782.39736 2244.2088,778.01999 2238.1268,778.01999 C 2230.9388,778.01999 2228.4704,782.7737 2228.4704,791.31069 L 2228.4704,856.08116 L 2209.1382,856.08116 L 2209.1382,789.40912 C 2209.1382,782.39736 2205.7219,778.01999 2199.6595,778.01999 C 2192.4519,778.01999 2189.9835,782.7737 2189.9835,791.31069 L 2189.9835,856.08116 L 2170.6511,856.08116 L 2170.6511,759.77729" />
  <path
     id="path21371"
     style="fill:white;fill-rule:nonzero;stroke:none"
     d="M 2086.43,1218.7957 L 2105.7624,1218.7957 L 2105.7624,1299.7094 L 2106.1376,1299.7094 L 2129.4589,1257.7373 L 2148.7912,1257.7373 L 2125.8649,1296.8571 L 2153.5502,1354.0215 L 2132.4999,1354.0215 L 2115.0633,1312.4257 L 2105.7624,1327.0636 L 2105.7624,1354.0215 L 2086.43,1354.0215 L 2086.43,1218.7957" />
  <path
     id="path21373"
     style="fill:white;fill-rule:nonzero;stroke:none"
     d="M 2170.6511,1257.7373 L 2189.9835,1257.7373 L 2189.9835,1267.0468 L 2190.3587,1267.0468 C 2194.3476,1260.966 2199.6595,1256.5884 2208.5654,1256.5884 C 2216.8987,1256.5884 2222.4082,1261.5404 2225.8046,1266.2742 C 2230.5439,1260.966 2235.6781,1256.5884 2245.9071,1256.5884 C 2255.5831,1256.5884 2266.9575,1262.8675 2266.9575,1280.1396 L 2266.9575,1354.0413 L 2247.6053,1354.0413 L 2247.6053,1287.3693 C 2247.6053,1280.3377 2244.2088,1275.98 2238.1268,1275.98 C 2230.9388,1275.98 2228.4704,1280.714 2228.4704,1289.2709 L 2228.4704,1354.0413 L 2209.1382,1354.0413 L 2209.1382,1287.3693 C 2209.1382,1280.3377 2205.7219,1275.98 2199.6595,1275.98 C 2192.4519,1275.98 2189.9835,1280.714 2189.9835,1289.2709 L 2189.9835,1354.0413 L 2170.6511,1354.0413 L 2170.6511,1257.7373" />
</svg>
