<?xml version="1.0" encoding="utf-8"?>
<!-- Generator: Adobe Illustrator 15.0.2, SVG Export Plug-In . SVG Version: 6.00 Build 0)  -->
<!DOCTYPE svg PUBLIC "-//W3C//DTD SVG 1.1//EN" "http://www.w3.org/Graphics/SVG/1.1/DTD/svg11.dtd">
<svg version="1.1" id="Vrstva_1" xmlns="http://www.w3.org/2000/svg" xmlns:xlink="http://www.w3.org/1999/xlink" x="0px" y="0px"
	 width="1740px" height="390px" viewBox="0 0 1740 390" enable-background="new 0 0 1740 390" xml:space="preserve">
<g>
	<path fill-rule="evenodd" clip-rule="evenodd" d="M48.125,5.367h1646.533c25.152,0,45.342,20.164,45.342,45.316v287.003
		c0,25.15-20.189,45.314-45.342,45.314H48.125C22.987,383,2.81,362.836,2.81,337.686V50.683C2.81,25.531,22.987,5.367,48.125,5.367"
		/>
	<path fill-rule="evenodd" clip-rule="evenodd" fill="#FFFFFF" d="M48.125,12.908h1646.533c20.948,0,37.774,16.826,37.774,37.774
		v287.003c0,20.948-16.826,37.772-37.774,37.772H48.125c-20.949,0-37.761-16.824-37.761-37.772V50.683
		C10.365,29.734,27.177,12.908,48.125,12.908"/>
	<path fill-rule="evenodd" clip-rule="evenodd" fill="#009FE3" d="M48.125,35.574h1646.533c8.459,0,15.109,6.65,15.109,15.109
		v287.003c0,8.459-6.65,15.109-15.109,15.109H48.125c-8.459,0-15.096-6.65-15.096-15.109V50.683
		C33.029,42.224,39.666,35.574,48.125,35.574"/>
	<path fill-rule="evenodd" clip-rule="evenodd" fill="#FFFFFF" d="M141.031,167.861h169.942v10.081h-9.071v29.437h-20.39v-29.437
		H170.491v29.437h-20.39v-29.437h-9.07V167.861z M256.601,181.813h-26.441l1.515,102.256h43.799L256.601,181.813z M193.144,181.813
		h26.427l-1.488,102.256h-43.826L193.144,181.813z M253.568,164.776H229.4l-1.517-61.995h15.124L253.568,164.776z M196.161,164.776
		h24.181l1.504-61.995H206.75L196.161,164.776z M121.386,89.959h208.462v208.448H121.386V89.959z M112.328,80.888h226.578v226.591
		H112.328V80.888z"/>
	<polygon fill-rule="evenodd" clip-rule="evenodd" fill="#FFFFFF" points="1621.173,102.05 1621.173,230.229 1568.303,283.098 
		1568.303,192.308 1474.305,286.317 1436.918,248.93 1530.914,154.921 1440.123,154.921 1492.992,102.05 	"/>
	<path fill-rule="evenodd" clip-rule="evenodd" fill="#FFFFFF" d="M559.084,140.276V273.31h22.187V114.951h-23.289l-34.198,28.051
		l13.355,15.842L559.084,140.276z M482.193,237.358l6.797,35.951h24.857l-35.033-158.358H448.05L413.442,273.31h24.406l6.545-35.951
		H482.193z M447.824,218.139l15.389-84.646l15.602,84.646H447.824z M393.291,90.08h208.475v208.462H393.291V90.08z M384.247,81.021
		h226.579v226.578H384.247V81.021z"/>
	<path fill-rule="evenodd" clip-rule="evenodd" fill="#FFFFFF" d="M1327.76,254.543v18.115c0,8.777-1.518,14.656-4.364,18.074
		c-3.032,3.365-8.046,4.936-14.989,4.936c-3.3,0-6.758-0.426-10.895-1.117c-4.148-0.679-8.724-2.021-13.738-3.818l-5.214,17.65
		c4.149,1.557,8.898,3.14,14.591,4.71c5.653,1.396,11.305,2.021,16.771,2.021c13.701,0,23.517-3.591,29.834-10.853
		c6.092-7.437,9.124-18.754,9.124-34.329V155.665h-14.577l-2.595,8.591c-2.008-2.952-4.814-5.639-8.085-7.672
		c-3.473-2.036-7.622-3.18-12.197-3.18c-5.866,0-11.332,1.144-15.882,3.18c-4.575,2.261-8.485,5.639-11.771,10.399
		c-3.246,4.762-5.88,10.866-7.607,18.343c-1.743,7.447-2.621,16.491-2.621,27.133c0,10.201,0.665,18.795,2.168,25.591
		c1.517,6.983,3.485,12.437,6.332,16.719c2.832,4.31,6.077,7.262,10.001,9.057c3.698,1.798,8.048,2.727,12.622,2.727
		c5.88,0,10.454-1.156,14.18-3.418C1322.544,260.873,1325.351,257.921,1327.76,254.543 M1311.213,248.198
		c-6.106,0-10.229-2.714-12.409-8.354c-2.396-5.453-3.473-13.807-3.473-25.124c0-14.937,1.29-25.791,4.137-32.814
		c2.807-6.783,8.048-10.161,15.882-10.161c2.182,0,4.362,0.466,6.53,1.33c1.956,0.932,3.924,2.048,5.88,3.418v53.376
		c0,4.763-1.518,9.059-4.364,12.662C1320.59,246.415,1316.454,248.198,1311.213,248.198z M1244.776,174.657
		c1.503,0,3.471,0.228,5.466,0.466c1.956,0.453,4.31,1.37,6.943,2.488l4.575-21.493c-2.181-0.693-4.137-1.372-6.092-2.023
		c-1.956-0.465-4.362-0.69-7.209-0.69c-6.317,0-11.065,2.021-14.578,5.864c-3.698,4.111-6.543,9.059-8.498,14.738l-3.458-18.342
		h-14.831V273.31h21.347V206.82c0-9.297,1.291-16.999,3.713-23.104C1234.548,177.611,1238.897,174.657,1244.776,174.657z
		 M1127.41,155.665h-21.347v80.536c0,13.126,2.406,22.877,6.981,29.422c4.549,6.57,11.971,9.908,22.412,9.908
		c5.028,0,9.788-1.345,13.925-4.031c4.137-2.499,7.637-6.33,10.481-11.519l3.698,13.328h14.816V155.665h-21.359v76.931
		c0,9.058-1.73,15.377-5.016,19.221c-3.245,3.883-7.382,5.904-12.409,5.904c-4.137,0-7.196-1.596-9.164-4.974
		c-1.941-3.192-3.02-9.059-3.02-17.664V155.665z M1007.025,273.31h14.764l1.955-7.687c2.182,2.965,5.028,5.451,8.273,7.261
		c3.285,1.756,7.209,2.647,12.184,2.647c12.224,0,21.56-5.134,27.879-15.55c6.33-10.427,9.603-27.146,9.603-50.249
		c0-11.506-0.666-20.803-2.168-28.064c-1.556-7.249-3.738-12.875-6.544-17.185c-2.847-4.283-5.866-7.249-9.604-8.818
		c-3.684-1.57-7.833-2.261-12.41-2.261c-5.639,0-10.227,1.144-13.912,3.604c-3.738,2.488-6.543,5.681-8.724,9.524v-51.581h-21.296
		V273.31z M1044.427,171.745c2.847,0,5.466,0.651,7.422,2.021c1.955,1.356,3.473,3.618,4.762,6.811
		c1.104,3.14,1.996,7.196,2.635,12.409c0.438,5.24,0.651,11.559,0.651,19.007c0,8.819-0.439,16.307-1.104,21.933
		c-0.626,5.919-1.73,10.454-3.258,13.834c-1.505,3.405-3.686,5.864-6.306,7.249c-2.621,1.567-5.653,2.246-9.377,2.246
		c-3.91,0-7.834-1.37-11.53-3.829v-59.508c0-2.487,0.226-5.214,0.849-7.94c0.666-2.501,1.558-4.987,2.848-7.023
		c1.289-2.035,3.06-3.831,5.027-5.188C1039.001,172.396,1041.62,171.745,1044.427,171.745z M939.95,254.077l44.425-77.584v-20.828
		h-64.03v19.22h41.179l-44.649,79.658v18.767h65.943v-19.232H939.95z M907.271,271.5l-4.136-17.423
		c-1.969,0.691-3.911,0.932-6.093,0.932c-1.955,0-3.298-0.706-4.136-1.811c-0.892-1.156-1.345-3.644-1.345-7.249V114.951h-21.333
		V247.76c0,9.735,2.181,16.531,6.317,20.59c4.137,4.069,8.939,6.064,14.804,6.064c2.634,0,5.241-0.228,7.875-0.679
		C901.817,273.122,904.424,272.419,907.271,271.5z M804.669,172.396c2.805,0,5.439,0.24,7.62,0.679
		c2.181,0.466,3.911,1.344,5.454,2.727c1.517,1.345,2.594,3.378,3.26,5.866c0.664,2.727,1.104,6.345,1.104,10.64v8.832h-11.558
		c-14.14,0-24.368,2.954-30.911,8.593c-6.758,5.904-10.056,15.375-10.056,28.73c0,7.021,0.904,12.888,2.421,17.662
		c1.556,4.748,3.497,8.394,6.303,11.318c2.847,2.954,6.092,5.215,9.83,6.292c3.698,1.145,7.82,1.796,12.184,1.796
		c6.769,0,11.969-1.57,15.88-4.457c3.724-2.952,6.771-6.783,8.712-11.093l3.738,13.328h14.578v-82.344
		c0-12.889-2.607-22.413-8.088-28.505c-5.426-6.104-14.803-9.057-28.29-9.057c-5.681,0-11.333,0.69-17.199,2.021
		c-5.877,1.345-11.118,2.954-15.254,4.775l5.466,17.185c4.975-1.809,9.563-3.152,13.912-3.844
		C797.912,172.85,801.61,172.396,804.669,172.396z M822.107,216.741v18.116c0,2.261-0.215,4.747-0.891,7.248
		c-0.666,2.7-1.73,5.188-3.06,7.222c-1.517,2.262-3.26,4.099-5.653,5.682c-2.394,1.567-5.201,2.246-8.486,2.246
		c-4.588,0-7.833-1.556-9.789-4.974c-1.968-3.378-2.847-8.365-2.847-15.163c0-7.249,1.515-12.437,4.362-15.602
		c2.847-3.152,7.421-4.775,13.914-4.775H822.107z M710.845,254.769c-5.479,0-10.454-0.917-14.816-2.487
		c-4.362-1.582-8.713-3.617-13.075-6.104l-7.647,18.54c5.466,3.405,10.907,6.132,16.812,7.941
		c5.866,1.981,12.409,2.873,19.791,2.873c7.196,0,13.741-1.117,19.167-3.565c5.466-2.5,9.788-5.652,13.526-9.936
		c3.458-4.109,6.077-9.058,8.047-14.736c1.728-5.641,2.606-11.972,2.606-18.542c0-7.939-1.104-14.497-3.06-19.911
		c-1.955-5.44-4.575-9.976-7.594-13.807c-3.298-3.843-6.771-7.021-10.68-9.522c-3.911-2.446-7.862-4.521-11.558-6.558
		c-2.821-1.569-5.654-3.152-8.5-4.947c-2.807-1.61-5.201-3.644-7.382-5.68c-2.168-2.035-3.923-4.521-5.241-7.222
		c-1.29-2.727-1.955-5.894-1.955-9.51c0-7.023,1.955-12.237,5.653-16.082c3.724-3.591,8.3-5.414,13.499-5.414
		c5.255,0,10.016,0.666,14.38,2.276c4.349,1.57,8.711,3.831,13.286,6.33l7.209-18.101c-1.556-0.932-3.298-2.048-5.692-3.193
		c-2.394-1.117-4.988-2.273-7.834-3.378c-3.06-0.931-6.305-1.81-9.603-2.488c-3.473-0.691-6.931-1.117-10.641-1.117
		c-4.575,0-9.363,0.651-14.391,2.022c-4.988,1.583-9.563,3.844-13.699,7.222c-4.138,3.418-7.649,7.715-10.229,12.928
		c-2.847,5.426-4.137,11.971-4.137,19.884c0,7.011,0.852,12.689,2.792,17.452c1.755,4.72,4.149,8.591,6.996,11.969
		c2.847,3.42,5.866,6.106,9.563,8.141c3.513,2.261,6.983,4.297,10.669,6.317c3.285,1.862,6.317,3.658,9.377,5.453
		c3.058,1.811,5.652,3.844,8.046,6.332c2.408,2.487,4.136,5.214,5.653,8.592c1.555,3.418,2.181,7.264,2.181,12.011
		c0,9.298-1.956,16.054-6.092,19.912C722.138,252.747,716.937,254.769,710.845,254.769z"/>
</g>
</svg>
