<?xml version="1.0" encoding="utf-8"?>
<!-- Generator: Adobe Illustrator 15.0.2, SVG Export Plug-In . SVG Version: 6.00 Build 0)  -->
<!DOCTYPE svg PUBLIC "-//W3C//DTD SVG 1.1//EN" "http://www.w3.org/Graphics/SVG/1.1/DTD/svg11.dtd">
<svg version="1.1"
	 id="svg2" xmlns:svg="http://www.w3.org/2000/svg" xmlns:cc="http://creativecommons.org/ns#" xmlns:dc="http://purl.org/dc/elements/1.1/" xmlns:inkscape="http://www.inkscape.org/namespaces/inkscape" xmlns:sodipodi="http://sodipodi.sourceforge.net/DTD/sodipodi-0.dtd" xmlns:rdf="http://www.w3.org/1999/02/22-rdf-syntax-ns#" inkscape:version="0.47 r22583" sodipodi:docname="Hinweiszeichen 2c-a.svg"
	 xmlns="http://www.w3.org/2000/svg" xmlns:xlink="http://www.w3.org/1999/xlink" x="0px" y="0px" width="960px" height="960px"
	 viewBox="0 0 960 960" enable-background="new 0 0 960 960" xml:space="preserve">
<defs>
	
	
		<inkscape:perspective  id="perspective10" inkscape:vp_y="0 : 1000 : 0" inkscape:vp_z="744.09448 : 526.18109 : 1" sodipodi:type="inkscape:persp3d" inkscape:vp_x="0 : 526.18109 : 1" inkscape:persp3d-origin="372.04724 : 350.78739 : 1">
		</inkscape:perspective>
	
		<inkscape:perspective  id="perspective2825" inkscape:vp_y="0 : 1000 : 0" inkscape:vp_z="960 : 480 : 1" sodipodi:type="inkscape:persp3d" inkscape:vp_x="0 : 480 : 1" inkscape:persp3d-origin="480 : 320 : 1">
		</inkscape:perspective>
	
		<inkscape:perspective  id="perspective2839" inkscape:vp_y="0 : 1000 : 0" inkscape:vp_z="1 : 0.5 : 1" sodipodi:type="inkscape:persp3d" inkscape:vp_x="0 : 0.5 : 1" inkscape:persp3d-origin="0.5 : 0.33333333 : 1">
		</inkscape:perspective>
	
		<inkscape:perspective  id="perspective2859" inkscape:vp_y="0 : 1000 : 0" inkscape:vp_z="690 : 345 : 1" sodipodi:type="inkscape:persp3d" inkscape:vp_x="0 : 345 : 1" inkscape:persp3d-origin="345 : 230 : 1">
		</inkscape:perspective>
	
		<inkscape:perspective  id="perspective3691" inkscape:vp_y="0 : 1000 : 0" inkscape:vp_z="960 : 480 : 1" sodipodi:type="inkscape:persp3d" inkscape:vp_x="0 : 480 : 1" inkscape:persp3d-origin="480 : 320 : 1">
		</inkscape:perspective>
	
		<inkscape:perspective  id="perspective3711" inkscape:vp_y="0 : 1000 : 0" inkscape:vp_z="470.793 : 336 : 1" sodipodi:type="inkscape:persp3d" inkscape:vp_x="0 : 336 : 1" inkscape:persp3d-origin="235.3965 : 224 : 1">
		</inkscape:perspective>
	
		<inkscape:perspective  id="perspective3725" inkscape:vp_y="0 : 1000 : 0" inkscape:vp_z="1 : 0.5 : 1" sodipodi:type="inkscape:persp3d" inkscape:vp_x="0 : 0.5 : 1" inkscape:persp3d-origin="0.5 : 0.33333333 : 1">
		</inkscape:perspective>
	
		<inkscape:perspective  id="perspective3743" inkscape:vp_y="0 : 1000 : 0" inkscape:vp_z="960 : 600 : 1" sodipodi:type="inkscape:persp3d" inkscape:vp_x="0 : 600 : 1" inkscape:persp3d-origin="480 : 400 : 1">
		</inkscape:perspective>
	
		<inkscape:perspective  id="perspective3773" inkscape:vp_y="0 : 1000 : 0" inkscape:vp_z="960 : 480 : 1" sodipodi:type="inkscape:persp3d" inkscape:vp_x="0 : 480 : 1" inkscape:persp3d-origin="480 : 320 : 1">
		</inkscape:perspective>
	
		<inkscape:perspective  id="perspective3792" inkscape:vp_y="0 : 1000 : 0" inkscape:vp_z="960 : 480 : 1" sodipodi:type="inkscape:persp3d" inkscape:vp_x="0 : 480 : 1" inkscape:persp3d-origin="480 : 320 : 1">
		</inkscape:perspective>
	
		<inkscape:perspective  id="perspective3808" inkscape:vp_y="0 : 1000 : 0" inkscape:vp_z="1 : 0.5 : 1" sodipodi:type="inkscape:persp3d" inkscape:vp_x="0 : 0.5 : 1" inkscape:persp3d-origin="0.5 : 0.33333333 : 1">
		</inkscape:perspective>
</defs>
<sodipodi:namedview  id="base" inkscape:zoom="0.29534138" inkscape:cx="1491.6472" inkscape:cy="1.0071614" showgrid="false" bordercolor="#666666" pagecolor="#ffffff" borderopacity="1.0" inkscape:pageshadow="2" inkscape:document-units="px" inkscape:pageopacity="0.0" inkscape:window-height="838" inkscape:window-width="1600" inkscape:window-x="-8" inkscape:current-layer="layer1" inkscape:window-y="-8" inkscape:window-maximized="1">
	</sodipodi:namedview>
<g id="layer1" transform="translate(919.1949,91.13026)" inkscape:label="Livello 1" inkscape:groupmode="layer">
	<path id="path2630" fill="#009FE3" d="M-882.556,868.87c-20.226,0-36.639-16.402-36.639-36.631V-54.513
		c0-20.229,16.413-36.617,36.639-36.617H4.167c20.219,0,36.639,16.388,36.639,36.617v886.752c0,20.229-16.42,36.631-36.639,36.631
		H-882.556z"/>
	<path id="path179" fill="#FFFFFF" d="M-882.084,759.064l885.79-0.044l-442.9-767.045L-882.084,759.064"/>
	<g id="g3838" transform="translate(-1462.7141,-1012.3878)">
		<path id="path181" d="M1157.127,1295.366c-10.354-10.361-24.131-16.06-38.777-16.06c-7.102,0-13.883,1.366-20.115,3.835
			l-14.02-29.627c0.926-1.59,1.777-3.056,2.533-4.365l11.154-0.53c2.4-0.116,4.256-2.153,4.143-4.547
			c-0.117-2.402-2.152-4.249-4.545-4.133l-1.256,0.058c6.199-5.119,0.633-15.381-1.154-19.257
			c-2.182-4.713-10.998-19.969-18.75-34.356c-7.752-14.395-16.199-29.071-27.789-38.845c-11.586-9.781-27.203-13.359-27.203-13.359
			c-2.897,0-5.078-4.349-5.801-7.239c-1.446-5.068-1.446-10.866-5.072-15.935c-4.339-5.798-11.586-8.688-18.833-7.248l-4.345,2.179
			c-6.519,5.789-14.578,18.014-13.037,19.555s2.169,0,3.621,0.721c2.175,2.178,2.897,5.069,5.066,7.248
			c2.181,2.898,0.611,8.953,3.161,9.019c1.458,0.034,1.732,0.216,3.363-2.501c0.724,1.449,1.631,2.261,2.898,3.255
			c1.715,0.82,0.835,1.109,1.267,1.358c1.283,0.745,1.087,2.451,2.169,2.99c3.621,0.721,7.433-2.535,10.33-1.085
			c2.169,1.449,5.067-0.729,6.514,1.449c0.723,2.899,2.169,5.79,1.451,7.968c0,0-2.085-2.659-0.358,0.936
			c-2.349,4.365-3.733,12.606-5.532,19.066c-2.31,8.299-1.771,17.774-1.497,23.216c-4.843,2.112-10.829,5.856-16.826,10.743
			c-4.333,3.536-8.071,7.181-10.975,10.56v-0.01l-4.182,4.398c-1.379,0.215-8.71,1.566-11.742,6.601
			c-1.032,1.723-1.968,4.58-0.561,8.457l0.213,0.605l5.549,5.549l-1.727,5.972c-3.391-7.305-13.268-6.957-13.268-6.957l0.628,16.979
			c0,0-0.264,4.39,2.999,4.39c2.932,0,4.982-1.375,6.424-3.264l-5.622,19.488c-5.98-2.187-12.354-3.338-18.912-3.338
			c-30.245,0-54.846,24.6-54.846,54.831c0,14.652,5.706,28.425,16.064,38.779c10.358,10.353,24.13,16.06,38.781,16.06
			c14.646,0,28.418-5.707,38.776-16.06c10.364-10.354,16.064-24.127,16.064-38.779c0-14.644-5.7-28.417-16.064-38.771
			c-3.946-3.951-8.386-7.214-13.184-9.749l3.728-12.912l44.6,39.987c-0.51,0.555-0.992,1.16-1.429,1.839
			c-0.482,0.968-0.482,3.378,0,3.378c2.539,0.912,5.011,0.796,7.443,0.166l2.55,2.294c-1.799,2.957-2.842,6.436-2.842,10.146
			c0,5.235,2.041,10.154,5.741,13.849c3.699,3.702,8.621,5.74,13.855,5.74c5.229,0,10.15-2.038,13.844-5.74
			c0.084-0.075,0.146-0.157,0.225-0.232c0.084,0.05,0.174,0.108,0.246,0.157c-0.992,1.425-2.639,3.479-5.33,6.461
			c-9.176,10.138-5.924,11.537-3.273,12.747c2.658,1.201,10.633-4.539,12.561-6.949c1.936-2.419,5.404-4.912,5.404-4.912
			s-0.201-1.855,1.727-2.824c0.773-0.381,1.535-0.223,2.18,0.091c2.494,8.986,7.266,17.236,14.035,24.011
			c10.359,10.354,24.131,16.061,38.781,16.061c14.646,0,28.424-5.707,38.777-16.061c10.357-10.353,16.064-24.127,16.064-38.778
			c0-14.644-5.707-28.417-16.064-38.771V1295.366z M972.366,1300.485c8.99,8.986,13.945,20.947,13.945,33.652
			c0,26.248-21.355,47.6-47.599,47.6c-12.718,0-24.668-4.953-33.664-13.939c-8.984-8.995-13.934-20.947-13.934-33.661
			c0-12.705,4.949-24.665,13.934-33.652c8.996-8.987,20.946-13.939,33.664-13.939c5.863,0,11.569,1.068,16.895,3.09l-4.558,15.786
			l-15.722,26.893c-1.015,1.723-0.432,3.943,1.3,4.953c1.727,1.01,3.94,0.431,4.949-1.3l15.958-27.283
			c0.146-0.257,0.264-0.53,0.348-0.82l4.366-15.099C965.898,1294.853,969.311,1297.429,972.366,1300.485L972.366,1300.485z
			 M1112.504,1330.253l-41.398-1.864c1.266-10.535,5.969-20.284,13.592-27.904c3.043-3.048,6.441-5.615,10.084-7.703
			L1112.504,1330.253z M999.926,1222.182c8.413-6.858,16.104-7.123,19.483-17.261c2.83-4.539,3.172-8.705,5.313-16.416
			c0.393-1.399,3.066-5.889,3.381-7.247c2.465,3.653,3.447,4.34,7.006,9.061c18.834,24.988,21.002,32.591,21.002,32.591
			s-0.779,4.63-4.881,5.848c-4.104,1.209-8.51,2.866-12.998,4.937c-8.695,4.025-15.998,8.829-20.711,13.302h-42.066l3.055-10.61
			l1.491,0.695l5.621-5.35C989.944,1229.529,994.932,1226.249,999.926,1222.182L999.926,1222.182z M967.697,1237.347
			c-0.409-1.516-0.067-2.385,0.252-2.923c0.857-1.425,2.803-2.427,4.591-3.064c-0.051,0.397-0.051,0.762-0.012,1.093
			c-0.381,0.406-0.678,0.886-0.841,1.458l-1.664,5.764L967.697,1237.347z M1018.737,1308.436l-48.395-43.384
			c-0.022-0.025-0.056-0.041-0.078-0.066l2.695-9.367c0.258,0.042,0.521,0.075,0.791,0.075h38.098
			c-0.084,0.786,0.011,1.524,0.313,2.178c0.448,0.96-0.207,3.992,0.97,4.514c0.106,5.268,2.467,9.525,4.114,16.499
			c2.596,10.966,6.451,20.135,10.004,24.549C1024.752,1305.662,1021.669,1306.946,1018.737,1308.436L1018.737,1308.436z
			 M1037.951,1345.758c-4.074,0-7.904-1.582-10.785-4.465c-2.869-2.874-4.461-6.7-4.461-10.775c0-2.551,0.623-5.002,1.794-7.19
			l11.031,9.89c0.623,0.555,1.418,0.878,2.254,0.919l4.596,0.208c2.063,2.957,4.242,5.333,6.172,7.089
			C1045.809,1344.101,1042.071,1345.758,1037.951,1345.758L1037.951,1345.758z M1029.348,1317.945
			c1.047-0.721,2.174-1.301,3.369-1.731c0.852,2.137,1.77,4.953,2.689,7.156L1029.348,1317.945z M1051.315,1260.953
			c-5.914,9.566-11.318,20.582-13.896,28.839c-0.139-3.263-0.627-6.94-1.586-10.99c-1.328-5.599-3.061-15.53-4.832-19.796
			c5.398-1.035,10.252-0.687,16.615-3.313h7.768C1053.533,1257.946,1051.869,1260.05,1051.315,1260.953z M1063.852,1328.057
			l-2.242-0.099l-3.379-6.129c-0.438-3.206-2.063-7.331-2.898-10.867c-0.93-3.934,1.789-5.333-1.631-13.326
			c5.309-6.767,9.613-11.355,16.17-21.129c3.504-5.21,6.889-10.593,9.871-15.504l11.939,25.245
			C1076.571,1294.696,1065.848,1310.077,1063.852,1328.057L1063.852,1328.057z M1118.35,1381.736
			c-12.711,0-24.662-4.952-33.652-13.939c-5.896-5.896-10.049-13.069-12.207-20.888l0.039-0.025c0,0,1.451-1.449-0.477-4.829
			c-0.225-0.389-0.51-0.812-0.813-1.251c-0.242-1.706-0.398-3.437-0.449-5.176l47.402,2.128c1.268,0.058,2.473-0.555,3.178-1.607
			c0.701-1.061,0.797-2.41,0.258-3.562l-20.307-42.903c5.363-2.054,11.115-3.139,17.027-3.139c12.719,0,24.668,4.953,33.66,13.939
			c8.996,8.987,13.945,20.947,13.945,33.652C1165.955,1360.384,1144.6,1381.736,1118.35,1381.736"/>
		<path id="path183" sodipodi:nodetypes="cccccccccccccccccccccccccccccccccccccccccccccccccc" d="M818.606,1721.72h51.96v-23.259
			h-51.96V1721.72z M889.226,1721.72h51.96v-23.259h-51.96V1721.72z M959.846,1721.72h51.96v-23.259h-51.96V1721.72z
			 M1030.467,1721.72h51.959v-23.259h-51.959V1721.72z M1101.086,1721.72h51.959v-23.259h-51.959V1721.72z M1171.686,1721.72h51.961
			v-23.259h-51.961V1721.72z M1242.307,1721.72h51.959v-23.259h-51.959V1721.72z M1312.926,1721.72h51.961v-23.259h-51.961V1721.72z
			 M747.986,1721.72h51.96v-23.259h-51.96V1721.72z M677.376,1721.72h51.96v-23.259h-51.96V1721.72z"/>
		<path id="path3822" sodipodi:nodetypes="ccccccccccccccccccccccccccccccccccccccccccccccccccccccc" d="M893.542,1535.155h25.064
			v-16.636h-25.064V1535.155z M936.111,1535.155h25.064v-16.636h-25.064V1535.155z M978.696,1535.155h25.057v-16.636h-25.057
			V1535.155z M1021.265,1535.155h25.057v-16.636h-25.057V1535.155z M1063.836,1535.155h25.057v-16.636h-25.057V1535.155z
			 M1106.412,1535.155h25.064v-16.636h-25.064V1535.155z M1148.983,1535.155h25.064v-16.636h-25.064V1535.155z M1191.553,1535.155
			h25.064v-16.636h-25.064V1535.155z M850.972,1535.155h25.063v-16.636h-25.063V1535.155z M808.388,1535.155h25.064v-16.636h-25.064
			V1535.155z M1234.129,1535.155h25.057v-16.636h-25.057V1535.155z"/>
		<path id="path3824" sodipodi:nodetypes="ccccccccccccccccccccccccccccccccccccccccccccccccccccccc" d="M937.505,1284.597h16.079
			v-12.307h-16.079V1284.597z M964.813,1284.597h16.079v-12.307h-16.079V1284.597z M992.132,1284.597h16.074v-12.307h-16.074
			V1284.597z M1019.44,1284.597h16.074v-12.307h-16.074V1284.597z M1046.748,1284.597h16.074v-12.307h-16.074V1284.597z
			 M1074.063,1284.597h16.078v-12.307h-16.078V1284.597z M1101.371,1284.597h16.078v-12.307h-16.078V1284.597z M1128.68,1284.597
			h16.08v-12.307h-16.08V1284.597z M910.196,1284.597h16.078v-12.307h-16.078V1284.597z M882.878,1284.597h16.079v-12.307h-16.079
			V1284.597z M1155.994,1284.597h16.074v-12.307h-16.074V1284.597z"/>
		<path id="path145" d="M1112.705,1629.389c-18.252-24.183-26.006-48.819-26.006-48.819c-1.725-10.346-5.277-20.692-6.904-25.128
			c2.328,0.021,3.709,0.03,3.709,0.03s-1.516-7.302-7.449-24.184c-5.934-16.888-8.979-29.661-7.158-34.908
			c1.828-5.247,1.074-16.435,1.074-16.435c10.727,0.454,17.863,13.695,17.863,13.695c-0.457,3.193,0.328,26.691,0,28.977
			c-0.322,2.285,2.283,2.739,2.283,2.739s0.695,0.052,1.783,0.126c0.209,2.903,0.441,8.136-0.186,12.192
			c-0.91,5.932-2.053,9.579,1.828,8.21c1.016-0.357,1.643-0.604,2.008-0.781c-0.104,0.781-0.439,2.716-1.328,4.659
			c-1.135,2.516-1.365,4.012,0.455,5.023c1.828,1.005,8.547-1.257,10.502-10.726c1.957-9.46,1.994-12.065,0.396-14.573
			c-1.068-1.675-2.203-2.448-2.434-3.253c1.434,0.082,2.619,0.127,3.283,0.127c2.965,0,1.344-3.23,0.889-8.023
			c-0.455-4.794-0.537-29.26-0.537-29.26s2.053,0-4.793-9.125c-6.844-9.125-29.893-29.661-39.477-35.363
			c-3.367-2.009-5.949,0.447-8.443-1.384c-4.336-3.179-9.33-3.201-9.33-3.201l-1.291-1.757c0-0.454,0.463-0.454,0.918-0.454
			c-0.455-2.738-2.283-5.478-1.828-8.217s1.828-5.479,1.828-8.671c0-0.908,1.367,0,1.822-0.454c0.918-2.277,1.373-5.933-0.455-7.757
			c-0.912-0.461-2.777,1.475-3.449,0.708c-2.127-2.435-1.111-9.379-5.217-9.833c-7.764-0.461-22.625-1.042-23.737-0.461
			c-1.112,0.588-0.455,16.427-7.755,20.989c-0.455,0.462-1.829,1.37-0.911,1.831c1.821,0.908,4.562,0,5.927,1.37
			c0.463,0.908-0.91,2.277,0.918,3.192c0.456,0.454-0.455,1.824-0.918,2.278c-0.455,1.831-0.91,4.563,0.463,5.933
			c0.911,1.369,4.105-0.455,5.017,1.369c0.91,1.823,1.373,4.108,2.283,5.932c0.456,0.915,2.739,0.915,4.561,1.369
			c0.911,0.454,0.455,1.37,0.455,1.824c-0.91,1.369-2.731,0-3.194,0.461c0-0.01-10.435,7.786-17.279,22.62
			c-6.845,14.827-10.271,21.891-13.234,24.86c-2.971,2.963-21.504,15.914-21.504,15.914s-4.202,4.086-2.881,7.621
			c-5.569,1.891-18.161,6.96-15.481,13.576c3.426,8.441,9.375,6.952,13.466,4.332c3.247-2.076,6.814-8.641,8.136-11.238
			c1.672,0.952,3.561,1.473,5.554,1.205c5.016-0.685,24.415-19.396,24.415-19.396s7.068-6.617,13.913-10.265
			c0,0,5.083,37.446,6.031,43.148c0.746,4.437,1.381,8.724,1.619,10.405c-4.448,7.116-14.898,24.867-22.854,46.542
			c-10.383,28.292-22.9,56.419-26.095,64.175c0,0,1.015,0.596,2.672,1.533c-1.881,0.856-4.755,1.623-9.054,1.683
			c-10.04,0.142-18.258,0.269-18.258,0.269s-2.284,0.163-2.963,1.994c-0.688,1.824,0.679,3.395,0.679,3.395l17.884,9.854
			l11.324,0.439v4.563l13.122,2.784c0,0,1.679,0.61,2.134-1.675c0.329-1.63,2.643-9.505,3.941-13.89
			c2.762,1.124,5.308,1.973,7.271,2.285c0,0,7.472-22.031,10.457-30.605c2.979-8.575,11.869-31.389,15.668-39.383
			c3.807-7.994,15.861-24.057,19.057-28.619c0.043-0.074,0.088-0.148,0.127-0.223c10.434,11.254,11.568,18.979,17.42,30.837
			c6.047,12.229,8.383,14.76,18.885,29.817c10.494,15.058,19.697,29.959,19.697,29.959c0.889-0.409,1.748-0.819,2.592-1.236
			c-1.59,5.255-5.158,16.115-8.24,18.512c-4.113,3.2-6.203,4.16-6.211,5.478c0,1.317,0.68,1.898,2.275,1.757
			c1.598-0.142,18.027,0.357,18.027,0.357s6.844-6.841,8.211-12.549c0,0,2.484-2.047,3.627-1.362
			c1.135,0.685,0.799,0.015,0.799,0.015l2.881-3.438c0,0,0.209-4.452-1.389-6.729c0,0-1.193-6.527-5.105-11.299
			c4.912-3.818,7.285-6.64,7.285-6.64S1130.961,1653.573,1112.705,1629.389"/>
	</g>
</g>
</svg>
