<?xml version="1.0" encoding="UTF-8" standalone="no"?>
<!-- Created with Inkscape (http://www.inkscape.org/) -->
<svg
   xmlns:svg="http://www.w3.org/2000/svg"
   xmlns="http://www.w3.org/2000/svg"
   version="1.0"
   width="1200"
   height="960"
   id="svg14420">
  <defs
     id="defs14422" />
  <g
     transform="translate(-254.2676,202.1982)"
     id="layer1">
    <path
       d="M 254.26757,733.38617 C 254.26757,739.91279 256.79727,746.03362 261.39481,750.64396 C 265.98185,755.2543 272.09091,757.80183 278.58835,757.80183 L 1429.9468,757.80183 C 1443.3615,757.80183 1454.2676,746.84522 1454.2676,733.38617 L 1454.2676,-177.79378 C 1454.2676,-184.3204 1451.7379,-190.44123 1447.1403,-195.05157 C 1442.5533,-199.66192 1436.4442,-202.19817 1429.9468,-202.19817 L 278.58835,-202.19817 C 272.09091,-202.19817 265.98185,-199.66192 261.39481,-195.05157 C 256.79727,-190.44123 254.26757,-184.3204 254.26757,-177.79378 L 254.26757,733.38617 z "
       style="fill:black;fill-rule:nonzero;stroke:none"
       id="path14445" />
    <path
       d="M 262.28702,-177.79378 C 262.28702,-186.81157 269.6032,-194.14979 278.58835,-194.14979 L 1429.9468,-194.14979 C 1434.3029,-194.14979 1438.3966,-192.44769 1441.4721,-189.35909 C 1444.5477,-186.2705 1446.2481,-182.16741 1446.2481,-177.79378 L 1446.2481,733.38617 C 1446.2481,737.75979 1444.5477,741.86289 1441.4721,744.95148 C 1438.3966,748.04007 1434.3029,749.74218 1429.9468,749.74218 L 278.58835,749.74218 C 274.23223,749.74218 270.13853,748.04007 267.06301,744.95148 C 263.98748,741.86289 262.28702,737.75979 262.28702,733.38617 L 262.28702,-177.79378"
       style="fill:white;fill-rule:nonzero;stroke:none"
       id="path11039" />
    <path
       d="M 291.95061,-164.50381 L 1416.9519,-164.50381 L 1416.9519,720.22019 L 291.95061,720.22019 L 291.95061,-164.50381 z "
       style="fill:#176fc1;fill-rule:nonzero;stroke:none"
       id="path11041" />
    <path
       d="M 510.30228,151.7275 C 537.61461,151.7275 559.75208,127.9769 559.75208,98.669088 C 559.75208,69.372546 537.61461,45.621944 510.30228,45.621944 C 482.98995,45.621944 460.85248,69.372546 460.85248,98.669088 C 460.85248,127.9769 482.98995,151.7275 510.30228,151.7275"
       style="fill:white;fill-rule:nonzero;stroke:none"
       id="path11043" />
    <path
       d="M 438.4316,353.75979 L 438.4316,399.7167 L 353.82846,531.9513 C 353.82846,531.9513 345.09523,543.201 351.21479,552.5795 C 357.33435,561.958 377.43546,595.71835 377.43546,595.71835 C 377.43546,595.71835 384.42624,602.27879 390.5458,595.71835 C 396.66536,589.1579 391.41703,583.53306 391.41703,583.53306 L 386.17919,570.4009 L 483.19988,420.91978 L 483.19988,570.4009 C 483.19988,586.33984 490.19066,588.21104 490.19066,588.21104 L 533.02756,619.1646 L 544.39545,606.03244 L 527.77923,585.40425 L 527.77923,353.75979 L 438.4316,353.75979"
       style="fill:white;fill-rule:nonzero;stroke:none"
       id="path11045" />
    <path
       d="M 527.77923,345.31689 L 527.77923,301.35517 L 570.53216,328.44235 C 570.53216,328.44235 595.09436,336.88526 605.58053,324.6887 C 616.0667,312.49214 618.69087,308.74975 618.69087,308.74975 C 618.69087,308.74975 623.68728,301.93005 615.1115,296.38411 C 608.63506,292.19084 554.18884,257.74289 527.77923,241.03743 L 527.77923,195.27215 C 527.77923,168.07225 505.92517,161.5118 505.92517,161.5118 L 480.58621,153.0689 C 470.08955,149.31525 463.96999,158.69375 463.96999,158.69375 C 463.96999,158.69375 368.69174,295.6176 355.5814,314.3746 C 342.47107,333.1316 352.08601,352.8242 352.08601,352.8242 L 366.94929,377.20605 L 438.4316,276.81551 L 438.4316,345.31689 L 527.77923,345.31689"
       style="fill:white;fill-rule:nonzero;stroke:none"
       id="path11047" />
    <path
       d="M 730.57484,607.37384 C 751.06434,607.37384 767.65957,589.5637 767.65957,567.58284 C 767.65957,545.61325 751.06434,527.79185 730.57484,527.79185 C 710.09584,527.79185 693.49012,545.61325 693.49012,567.58284 C 693.49012,589.5637 710.09584,607.37384 730.57484,607.37384"
       style="fill:white;fill-rule:nonzero;stroke:none"
       id="path11049" />
    <path
       d="M 938.61879,387.14816 C 957.73322,387.14816 973.2368,370.52161 973.2368,350.00614 C 973.2368,329.50194 957.73322,312.87539 938.61879,312.87539 C 919.50436,312.87539 904.00078,329.50194 904.00078,350.00614 C 904.00078,370.52161 919.50436,387.14816 938.61879,387.14816"
       style="fill:white;fill-rule:nonzero;stroke:none"
       id="path11051" />
    <path
       d="M 857.16465,459.74136 L 908.55633,401.27227 C 908.55633,401.27227 914.58142,391.74723 925.72888,391.74723 L 961.12364,391.74723 C 961.12364,391.74723 968.35585,392.43484 974.95825,399.95342 L 1024.2506,458.36615 L 1012.7148,486.02821 L 971.44187,437.11798 L 970.30823,472.62553 L 986.69352,515.53893 L 1028.6592,516.93669 L 1037.8333,549.29928 L 976.20735,546.48122 L 944.06656,514.1299 L 938.49283,611.19513 L 906.27856,613.53975 L 916.49181,435.65259 L 875.53382,482.25201 L 857.16465,459.74136"
       style="fill:white;fill-rule:nonzero;stroke:none"
       id="path11053" />
    <path
       d="M 1338.0905,597.58954 L 1338.0905,529.13325 L 1176.3788,382.83089 C 1176.3788,382.83089 1151.0293,363.13829 1096.8351,289.99275 C 1042.6408,216.83594 1047.0074,136.18309 1047.0074,136.18309 L 1022.5291,136.18309 C 1022.5291,136.18309 1023.5578,246.72991 1065.366,309.68535 C 1115.1937,384.71335 1156.2777,422.21608 1156.2777,422.21608 L 1338.0905,597.58954"
       style="fill:white;fill-rule:nonzero;stroke:none"
       id="path11055" />
    <path
       d="M 1244.0403,-51.8829 L 1239.6632,-55.027854 L 1216.9379,-38.705655 L 1216.9379,-56.064899 L 1198.5793,-56.064899 L 1198.5793,-25.517139 L 1116.4113,33.515562 L 1125.1656,47.538224 L 1147.8803,31.216026 L 1147.8803,262.79285 L 1332.3278,262.79285 L 1332.3278,31.847271 L 1354.1714,47.538224 L 1362.9256,33.515562 L 1244.0403,-51.8829 z M 1321.8311,251.54316 L 1158.377,251.54316 L 1158.377,23.686172 L 1239.6632,-34.715284 L 1321.8311,24.306145 L 1321.8311,251.54316"
       style="fill:white;fill-rule:nonzero;stroke:none"
       id="path11057" />
    <path
       d="M 1173.2613,110.86565 L 1224.8314,110.86565 L 1224.8314,39.591298 L 1173.2613,39.591298 L 1173.2613,110.86565 z "
       style="fill:white;fill-rule:nonzero;stroke:none"
       id="path11059" />
    <path
       d="M 1249.3096,110.86565 L 1300.8798,110.86565 L 1300.8798,39.591298 L 1249.3096,39.591298 L 1249.3096,110.86565 z "
       style="fill:white;fill-rule:nonzero;stroke:none"
       id="path11061" />
    <path
       d="M 1206.9766,258.5094 L 1266.4192,258.5094 L 1266.4192,146.90299 L 1206.9766,146.90299 L 1206.9766,258.5094 z "
       style="fill:white;fill-rule:nonzero;stroke:none"
       id="path11063" />
    <path
       d="M 796.57789,96.324463 C 775.14369,96.324463 729.42021,86.517617 723.4791,85.22131 L 723.4791,132.14763 C 723.4791,135.67584 720.81294,138.52772 717.52748,138.52772 L 686.15295,138.52772 C 682.86749,138.52772 680.21183,135.67584 680.21183,132.14763 L 680.21183,86.697973 C 672.91665,82.561062 669.56821,77.556189 665.78941,65.382174 C 657.3186,38.114635 665.78941,15.446167 669.71517,7.7021412 C 672.23437,2.7423572 685.51265,-1.0563864 694.72872,-3.1417501 L 732.22282,-73.886305 L 862.23454,-73.886305 L 899.72864,-3.1417501 C 908.94471,-1.0563864 922.22299,2.7423572 924.74219,7.7021412 C 928.67844,15.446167 937.14926,38.114635 928.67844,65.382174 C 924.88915,77.556189 921.55121,82.561062 914.25602,86.697973 L 914.25602,132.14763 C 914.25602,135.67584 911.58987,138.52772 908.30441,138.52772 L 876.92987,138.52772 C 873.64442,138.52772 870.98876,135.67584 870.98876,132.14763 L 870.98876,85.22131 C 865.03715,86.517617 819.31367,96.324463 797.88997,96.324463 L 796.57789,96.324463 z M 886.68128,-4.9903969 L 856.13598,-62.636613 L 738.33188,-62.636613 L 707.77608,-4.9903969 L 886.68128,-4.9903969 z M 695.94634,54.910267 C 707.20926,54.910267 716.34136,45.114693 716.34136,33.019584 C 716.34136,20.935747 707.20926,11.140173 695.94634,11.140173 C 684.67292,11.140173 675.54082,20.935747 675.54082,33.019584 C 675.54082,45.114693 684.67292,54.910267 695.94634,54.910267 z M 918.91654,33.019584 C 918.91654,20.935747 909.78444,11.140173 898.52152,11.140173 C 887.2586,11.140173 878.12649,20.935747 878.12649,33.019584 C 878.12649,45.114693 887.2586,54.910267 898.52152,54.910267 C 909.78444,54.910267 918.91654,45.114693 918.91654,33.019584"
       style="fill:white;fill-rule:nonzero;stroke:none"
       id="path11065" />
    <path
       d="M 391.94186,720.22019 L 291.95061,720.22019 L 291.95061,642.68975 L 1318.3567,-164.50381 L 1416.9414,-164.50381 L 1416.9414,-85.868692 L 391.94186,720.22019"
       style="fill:#f03120;fill-rule:nonzero;stroke:none"
       id="path11067" />
  </g>
</svg>
