<?xml version="1.0" encoding="UTF-8" standalone="no"?>
<!-- Created with Inkscape (http://www.inkscape.org/) -->

<svg
   version="1.1"
   id="svg1"
   width="630"
   height="630"
   viewBox="0 0 630 630"
   sodipodi:docname="Vorschriftszeichen 20 (2010).svg"
   inkscape:version="1.3.2 (091e20e, 2023-11-25, custom)"
   xmlns:inkscape="http://www.inkscape.org/namespaces/inkscape"
   xmlns:sodipodi="http://sodipodi.sourceforge.net/DTD/sodipodi-0.dtd"
   xmlns="http://www.w3.org/2000/svg"
   xmlns:svg="http://www.w3.org/2000/svg">
  <defs
     id="defs1">
    <clipPath
       clipPathUnits="userSpaceOnUse"
       id="clipPath2">
      <path
         d="M 0,841.98 H 595.2 V 0 H 0 Z"
         transform="translate(0,2.5000001e-5)"
         id="path2" />
    </clipPath>
    <clipPath
       clipPathUnits="userSpaceOnUse"
       id="clipPath4">
      <path
         d="M 0,841.98 H 595.2 V 0 H 0 Z"
         transform="translate(0,2.5000001e-5)"
         id="path4" />
    </clipPath>
    <clipPath
       clipPathUnits="userSpaceOnUse"
       id="clipPath349">
      <path
         d="M 0,841.98 H 595.2 V 0 H 0 Z"
         transform="translate(0,2.5000001e-5)"
         id="path349" />
    </clipPath>
    <clipPath
       clipPathUnits="userSpaceOnUse"
       id="clipPath352">
      <path
         d="M 79.333,841.98 H 595.2 V 799.435 H 79.333 Z"
         transform="matrix(0.00193816,0,0,-0.02210042,-0.1537236,18.64131)"
         id="path352" />
    </clipPath>
    <clipPath
       clipPathUnits="userSpaceOnUse"
       id="clipPath354">
      <path
         d="M 0,841.98 H 595.2 V 0 H 0 Z"
         transform="translate(8.5415005,-841.95502)"
         id="path354" />
    </clipPath>
    <clipPath
       clipPathUnits="userSpaceOnUse"
       id="clipPath356">
      <path
         d="M 0,841.98 H 595.2 V 0 H 0 Z"
         transform="translate(-603.74351,-841.95502)"
         id="path356" />
    </clipPath>
    <clipPath
       clipPathUnits="userSpaceOnUse"
       id="clipPath358">
      <path
         d="M 0,841.98 H 595.2 V 0 H 0 Z"
         transform="translate(8.5415005,-0.064025)"
         id="path358" />
    </clipPath>
    <clipPath
       clipPathUnits="userSpaceOnUse"
       id="clipPath360">
      <path
         d="M 0,841.98 H 595.2 V 0 H 0 Z"
         transform="translate(-603.74351,-0.064025)"
         id="path360" />
    </clipPath>
    <clipPath
       clipPathUnits="userSpaceOnUse"
       id="clipPath362">
      <path
         d="M 0,841.98 H 595.2 V 0 H 0 Z"
         transform="translate(0.0375,-850.45902)"
         id="path362" />
    </clipPath>
    <clipPath
       clipPathUnits="userSpaceOnUse"
       id="clipPath364">
      <path
         d="M 0,841.98 H 595.2 V 0 H 0 Z"
         transform="translate(0.0375,8.4400002)"
         id="path364" />
    </clipPath>
    <clipPath
       clipPathUnits="userSpaceOnUse"
       id="clipPath366">
      <path
         d="M 0,841.98 H 595.2 V 0 H 0 Z"
         transform="translate(-595.24051,-850.45902)"
         id="path366" />
    </clipPath>
    <clipPath
       clipPathUnits="userSpaceOnUse"
       id="clipPath368">
      <path
         d="M 0,841.98 H 595.2 V 0 H 0 Z"
         transform="translate(-595.24051,8.4400002)"
         id="path368" />
    </clipPath>
    <clipPath
       clipPathUnits="userSpaceOnUse"
       id="clipPath370">
      <path
         d="M 0,841.98 H 595.2 V 0 H 0 Z"
         transform="translate(8.5415005,-841.95502)"
         id="path370" />
    </clipPath>
    <clipPath
       clipPathUnits="userSpaceOnUse"
       id="clipPath372">
      <path
         d="M 0,841.98 H 595.2 V 0 H 0 Z"
         transform="translate(-603.74351,-841.95502)"
         id="path372" />
    </clipPath>
    <clipPath
       clipPathUnits="userSpaceOnUse"
       id="clipPath374">
      <path
         d="M 0,841.98 H 595.2 V 0 H 0 Z"
         transform="translate(8.5415005,-0.064025)"
         id="path374" />
    </clipPath>
    <clipPath
       clipPathUnits="userSpaceOnUse"
       id="clipPath376">
      <path
         d="M 0,841.98 H 595.2 V 0 H 0 Z"
         transform="translate(-603.74351,-0.064025)"
         id="path376" />
    </clipPath>
    <clipPath
       clipPathUnits="userSpaceOnUse"
       id="clipPath378">
      <path
         d="M 0,841.98 H 595.2 V 0 H 0 Z"
         transform="translate(0.0375,-850.45902)"
         id="path378" />
    </clipPath>
    <clipPath
       clipPathUnits="userSpaceOnUse"
       id="clipPath380">
      <path
         d="M 0,841.98 H 595.2 V 0 H 0 Z"
         transform="translate(0.0375,8.4400002)"
         id="path380" />
    </clipPath>
    <clipPath
       clipPathUnits="userSpaceOnUse"
       id="clipPath382">
      <path
         d="M 0,841.98 H 595.2 V 0 H 0 Z"
         transform="translate(-595.24051,-850.45902)"
         id="path382" />
    </clipPath>
    <clipPath
       clipPathUnits="userSpaceOnUse"
       id="clipPath384">
      <path
         d="M 0,841.98 H 595.2 V 0 H 0 Z"
         transform="translate(-595.24051,8.4400002)"
         id="path384" />
    </clipPath>
  </defs>
  <sodipodi:namedview
     id="namedview1"
     pagecolor="#505050"
     bordercolor="#ffffff"
     borderopacity="1"
     inkscape:showpageshadow="0"
     inkscape:pageopacity="0"
     inkscape:pagecheckerboard="1"
     inkscape:deskcolor="#505050"
     inkscape:zoom="0.3540761"
     inkscape:cx="-2.8242516"
     inkscape:cy="574.73521"
     inkscape:window-width="1920"
     inkscape:window-height="1051"
     inkscape:window-x="-9"
     inkscape:window-y="-9"
     inkscape:window-maximized="1"
     inkscape:current-layer="g1">
    <inkscape:page
       x="0"
       y="0"
       inkscape:label="22"
       id="page1"
       width="630"
       height="630"
       margin="0"
       bleed="0" />
  </sodipodi:namedview>
  <g
     id="g1"
     inkscape:groupmode="layer"
     inkscape:label="22"
     transform="translate(-147.352,-381.80801)">
    <g
       id="g384">
      <path
         id="path330"
         d="M 331.86752,1011.808 H 592.83648 L 777.352,827.28884 V 566.31479 L 592.83648,381.80801 H 331.86752 L 147.352,566.31479 v 260.97405"
         style="fill:#918f90;fill-opacity:1;fill-rule:nonzero;stroke:none;stroke-width:12.3472" />
      <path
         id="path331"
         d="M 331.86752,1011.808 H 592.83648 L 777.352,827.28884 V 566.31479 L 592.83648,381.80801 H 331.86752 L 147.352,566.31479 v 260.97405"
         style="fill:#000000;fill-opacity:1;fill-rule:nonzero;stroke:none;stroke-width:12.3472" />
      <path
         id="path332"
         d="M 333.94184,1006.8073 H 590.76216 L 772.35141,825.22682 V 568.38915 L 590.76216,386.80869 H 333.94184 L 152.35259,568.38915 v 256.83767"
         style="fill:#ffffff;fill-opacity:1;fill-rule:nonzero;stroke:none;stroke-width:12.3472" />
      <path
         id="path333"
         d="M 333.94184,1006.8073 H 590.76216 L 772.35141,825.22682 V 568.38915 L 590.76216,386.80869 H 333.94184 L 152.35259,568.38915 v 256.83767"
         style="fill:#ffffff;fill-opacity:1;fill-rule:nonzero;stroke:none;stroke-width:12.3472" />
      <path
         id="path334"
         d="M 346.36311,976.81549 H 578.32866 L 742.34794,812.79299 V 580.82292 L 578.32866,416.81277 H 346.36311 L 182.34383,580.82292 v 231.97007"
         style="fill:#ee1c23;fill-opacity:1;fill-rule:nonzero;stroke:none;stroke-width:12.3472" />
      <path
         id="path335"
         d="m 251.74699,778.71425 c 8.39604,0 15.44626,-2.6547 21.13828,-7.95172 5.70438,-5.29701 8.55657,-14.15009 8.55657,-26.54685 0,-6.19838 -1.00012,-11.50774 -3.00036,-15.90341 -1.98789,-4.39567 -4.59313,-8.19866 -7.80338,-11.39662 -3.18556,-3.21032 -6.8897,-6.00083 -11.10007,-8.40857 -4.18568,-2.39538 -8.49483,-4.80312 -12.90276,-7.19852 -4.98824,-2.59294 -9.93944,-5.3464 -14.84125,-8.24804 -4.90181,-2.90163 -9.29739,-6.54411 -13.19908,-10.95211 -3.90169,-4.39567 -7.0996,-9.69269 -9.59372,-15.90342 -2.50647,-6.19838 -3.75353,-13.89079 -3.75353,-23.08958 0,-10.40884 1.83972,-19.15078 5.54386,-26.25052 3.70414,-7.11209 8.4084,-12.85362 14.10043,-17.24928 5.70437,-4.40801 12.00141,-7.55659 18.90345,-9.44574 6.90205,-1.9015 13.55715,-2.85224 19.95297,-2.85224 4.98824,0 9.85301,0.4939 14.54492,1.49403 4.70425,1.00013 9.09983,2.14845 13.19908,3.44492 4.09925,1.29647 7.754,2.75347 10.9519,4.34628 3.19791,1.60515 5.80316,3.01275 7.80339,4.21045 l -9.9024,24.00329 c -6.19826,-3.40788 -12.29774,-6.14899 -18.29845,-8.26039 -6.0007,-2.09905 -12.59407,-3.14858 -19.80479,-3.14858 -7.19838,0 -13.39664,2.45712 -18.59478,7.35903 -5.19814,4.88955 -7.80339,11.93991 -7.80339,21.1387 0,4.80313 0.90134,9.00124 2.70402,12.60667 1.80268,3.59308 4.19803,6.8034 7.19838,9.59391 3.00035,2.80285 6.39581,5.35875 10.19873,7.65537 3.79057,2.29661 7.69226,4.44505 11.70508,6.44532 5.1858,2.6053 10.49506,5.55632 15.89076,8.85307 5.40804,3.29675 10.26046,7.45781 14.54492,12.44615 4.30915,5.00069 7.86512,11.10028 10.65557,18.31116 2.8028,7.19851 4.21037,15.98984 4.21037,26.39867 0,8.79133 -1.2594,17.00233 -3.75352,24.59597 -2.50647,7.59363 -6.21061,14.15009 -11.11242,19.65702 -4.88947,5.49457 -11.10007,9.84085 -18.59478,13.03882 -7.49471,3.21031 -16.24883,4.80312 -26.25,4.80312 -10.19873,0 -19.29857,-1.24708 -27.29951,-3.74125 -8.00094,-2.50651 -15.6932,-6.06256 -23.08913,-10.65578 l 10.49506,-24.59597 c 6.0007,3.39554 12.00141,6.149 18.00212,8.24805 5.98835,2.09905 12.79162,3.14859 20.39746,3.14859"
         style="fill:#ffffff;fill-opacity:1;fill-rule:nonzero;stroke:none;stroke-width:12.3472" />
      <path
         id="path336"
         d="m 399.9496,620.33447 v 183.0004 h -31.2012 v -183.0004 h -43.19026 v -27.00371 h 117.59407 v 27.00371"
         style="fill:#ffffff;fill-opacity:1;fill-rule:nonzero;stroke:none;stroke-width:12.3472" />
      <path
         id="path337"
         d="m 518.44502,806.31061 c -11.0013,0 -20.34807,-2.14844 -28.05268,-6.44532 -7.70461,-4.30924 -14.00165,-10.90272 -18.90346,-19.80519 -4.90181,-8.90245 -8.44544,-20.1509 -10.64323,-33.74536 -2.19779,-13.6068 -3.30903,-29.609 -3.30903,-48.00659 0,-36.8075 4.65487,-63.99643 13.95226,-81.60378 9.30974,-17.595 24.95355,-26.39868 46.95614,-26.39868 21.79268,0 37.39946,8.80368 46.79562,26.39868 9.39617,17.60735 14.10043,44.79628 14.10043,81.60378 0,18.39759 -1.0989,34.39979 -3.29669,48.00659 -2.21013,13.59446 -5.75376,24.84291 -10.65557,33.74536 -4.90181,8.90247 -11.19885,15.49595 -18.90346,19.80519 -7.69226,4.29688 -17.03904,6.44532 -28.04033,6.44532 m 0,-25.49731 c 5.19814,0 9.69249,-1.25944 13.49541,-3.75361 3.80292,-2.50652 6.95144,-6.90217 9.44556,-13.19933 2.50646,-6.29717 4.35853,-14.75511 5.5562,-25.34916 1.19768,-10.6064 1.80269,-24.00329 1.80269,-40.20305 0,-16.19974 -0.60501,-29.60899 -1.80269,-40.20304 -1.19767,-10.59404 -3.04974,-19.05199 -5.5562,-25.34916 -2.49412,-6.29715 -5.64264,-10.69282 -9.44556,-13.19933 -3.80292,-2.50652 -8.29727,-3.75361 -13.49541,-3.75361 -5.19815,0 -9.70485,1.24709 -13.50776,3.75361 -3.79057,2.50651 -6.93909,6.90218 -9.44556,13.19933 -2.49412,6.29717 -4.34619,14.75512 -5.55621,25.34916 -1.19767,10.59405 -1.79033,24.0033 -1.79033,40.20304 0,16.19976 0.59266,29.59665 1.79033,40.20305 1.21002,10.59405 3.06209,19.05199 5.55621,25.34916 2.50647,6.29716 5.65499,10.69281 9.44556,13.19933 3.80291,2.49417 8.30961,3.75361 13.50776,3.75361"
         style="fill:#ffffff;fill-opacity:1;fill-rule:nonzero;stroke:none;stroke-width:12.3472" />
      <path
         id="path338"
         d="m 721.83931,659.3275 c 0,12.60667 -1.45696,23.29949 -4.34619,32.10317 -2.90158,8.80367 -7.05021,15.9528 -12.44591,21.44738 -5.40804,5.50693 -11.85325,9.49513 -19.34795,12.00164 -7.50706,2.49417 -15.85372,3.75361 -25.03999,3.75361 h -14.12511 v 74.7016 h -31.2012 V 593.33079 h 45.00529 c 19.60724,0 34.74482,5.14886 45.44979,15.44656 10.69261,10.29772 16.05127,27.15188 16.05127,50.55015 m -31.80621,0.60502 c 0,-7.80354 -0.64205,-14.40939 -1.9385,-19.80518 -1.29645,-5.39581 -3.16087,-9.75443 -5.55621,-13.05118 -2.39534,-3.29674 -5.24753,-5.69214 -8.55656,-7.19852 -3.29669,-1.49403 -6.93909,-2.24721 -10.92721,-2.24721 h -16.52046 v 86.39456 h 16.52046 c 3.98812,0 7.63052,-0.59268 10.92721,-1.79037 3.30903,-1.21004 6.16122,-3.45727 8.55656,-6.75401 2.39534,-3.29676 4.25976,-7.80354 5.55621,-13.50803 1.29645,-5.69214 1.9385,-13.05117 1.9385,-22.04006"
         style="fill:#ffffff;fill-opacity:1;fill-rule:nonzero;stroke:none;stroke-width:12.3472" />
    </g>
  </g>
</svg>
