<?xml version="1.0" encoding="utf-8"?>
<!-- Generator: Adobe Illustrator 15.0.0, SVG Export Plug-In . SVG Version: 6.00 Build 0)  -->
<!DOCTYPE svg PUBLIC "-//W3C//DTD SVG 1.1//EN" "http://www.w3.org/Graphics/SVG/1.1/DTD/svg11.dtd">
<svg version="1.1" id="svg3602" xmlns:svg="http://www.w3.org/2000/svg"
	 xmlns="http://www.w3.org/2000/svg" xmlns:xlink="http://www.w3.org/1999/xlink" x="0px" y="0px" width="960px" height="960px"
	 viewBox="0 0 960 960" enable-background="new 0 0 960 960" xml:space="preserve">
<path fill-rule="evenodd" clip-rule="evenodd" fill="#EC1C24" d="M479.863-0.062c264.725,0,479.386,214.74,479.386,479.537
	C959.249,744.261,744.588,959,479.863,959C215.144,959,0.484,744.261,0.484,479.475C0.484,214.678,215.144-0.062,479.863-0.062"/>
<path fill-rule="evenodd" clip-rule="evenodd" fill="#FFFFFF" d="M479.863,122.379c-197.092,0-356.998,159.925-356.998,357.096
	c0,197.161,159.906,357.099,356.998,357.099c197.099,0,357.011-159.938,357.011-357.099
	C836.874,282.304,676.962,122.379,479.863,122.379"/>
<path fill-rule="evenodd" clip-rule="evenodd" fill="#231F20" d="M308.249,296.569c-8.856,0-16.617,5.904-18.901,14.516
	l-10.164,38.185h75.65l13.994-52.701H308.249z M624.937,532.744c-19.787-5.969-34.369-24.315-34.369-46.031
	c0-1.4,0.172-2.905,0.212-4.306H345.707c0.105,1.4,0.158,2.905,0.158,4.306c0,21.716-14.455,40.063-34.261,46.031H624.937z
	 M652.632,532.07h97.306v12.627H194.533V532.07h89.974c-19.819-5.969-34.315-24.33-34.315-46.018c0-1.426,0.079-2.879,0.146-4.307
	H221.08c-5.87,0-10.684-4.834-10.684-10.723c0-5.865,4.735-10.712,10.684-10.712h9.749l4.861-82.802
	c0.93-15.863,12.092-27.684,30.199-27.684l12.198-45.899c3.467-12.746,16.669-18.425,29.111-18.425h64.436
	c3.647-14.794,17.865-17.211,30.228-17.211h325.662v213.457h-40.695c0.079,1.428,0.157,2.881,0.157,4.307
	C686.986,507.74,672.484,526.102,652.632,532.07z"/>
<path fill-rule="evenodd" clip-rule="evenodd" fill="#231F20" d="M574.282,657.641v70.705c0,9.377,2.284,16.894,6.842,22.797
	c4.346,6.168,11.662,9.126,21.45,9.126c3.883,0,7.977-0.462,11.86-1.398c3.897-0.886,7.515-2.234,11.399-3.845l-5.68-16.63
	c-2.972,1.137-5.244,2.062-7.33,2.286c-2.021,0.448-3.872,0.66-5.693,0.66c-3.422,0-5.905-1.137-7.304-3.619
	c-1.546-2.549-2.286-5.969-2.286-10.274v-69.808h24.673V639.4h-24.673v-25.097h-23.259V639.4h-14.358l-2.008,18.24H574.282z
	 M505.006,643.482h36.691v-15.178h-55.033v65.408h13.692c3.725-1.493,6.881-2.218,9.258-2.218c5.402,0,9.483,1.861,12.589,5.744
	c3.169,3.896,4.676,10.58,4.676,20.368c0,4.819-0.583,8.915-1.507,12.019c-0.938,3.368-2.378,5.971-4.094,7.99
	c-1.652,2.073-3.686,3.381-6.116,4.097c-2.391,0.924-5.191,1.294-7.925,1.294c-2.802,0-6.116-0.569-9.848-1.507
	c-3.882-0.924-7.046-2.231-9.431-3.526l-5.744,14.305c1.083,0.739,2.582,1.452,4.614,2.231c1.863,0.885,3.878,1.652,6.314,2.18
	c2.377,0.768,4.814,1.295,7.607,1.811c2.603,0.567,5.179,0.779,7.781,0.779c4.819,0,9.429-0.779,14.04-2.18
	c4.45-1.507,8.546-3.885,12.072-7.411c3.512-3.367,6.26-7.818,8.346-13.168c2.022-5.388,3.158-12.218,3.158-20.195
	c0-12.455-2.801-22.097-8.347-29.085c-5.589-7.053-13.367-10.579-23.365-10.579c-1.455,0-2.959,0.172-4.597,0.37
	c-1.665,0.198-3.382,0.566-4.834,0.924V643.482z M444.274,747.471c0,3.314,0.732,5.744,2.397,7.409
	c1.497,1.651,2.582,2.577,3.512,3.104l-8.691,25.188h12.06l12.593-25.188c1.295-2.392,2.015-4.399,2.384-6.063
	c0.363-1.703,0.562-3.171,0.562-4.451c0-3.526-1.137-6.474-3.514-8.93c-2.43-2.378-5.389-3.513-8.916-3.513
	c-3.52,0-6.479,1.135-8.856,3.513C445.37,740.997,444.274,743.944,444.274,747.471z M375.896,590.636h53.624v-22.243h-80.424v95.629
	h20.063c5.384-2.181,9.993-3.264,13.513-3.264c7.885,0,13.836,2.748,18.393,8.389c4.609,5.706,6.788,15.44,6.788,29.811
	c0,7.039-0.824,13.01-2.178,17.619c-1.334,4.874-3.514,8.651-5.951,11.663c-2.43,2.944-5.396,4.86-8.908,5.956
	c-3.534,1.349-7.616,1.862-11.663,1.862c-4.042,0-8.916-0.779-14.351-2.166c-5.707-1.36-10.262-3.224-13.784-5.138l-8.4,20.844
	c1.611,1.069,3.791,2.165,6.735,3.247c2.696,1.361,5.714,2.444,9.227,3.277c3.534,1.083,7.046,1.862,11.088,2.642
	c3.791,0.818,7.562,1.083,11.406,1.083c7.046,0,13.782-1.083,20.571-3.211c6.466-2.126,12.43-5.652,17.554-10.83
	c5.184-4.872,9.226-11.346,12.23-19.231c2.959-7.817,4.609-17.883,4.609-29.493c0-18.135-4.087-32.241-12.223-42.543
	c-8.077-10.264-19.476-15.453-34.098-15.453c-2.166,0-4.345,0.315-6.774,0.567c-2.437,0.264-4.888,0.779-7.046,1.359V590.636z"/>
</svg>
