<?xml version="1.0" encoding="UTF-8" standalone="no"?>
<!-- Created with Inkscape (http://www.inkscape.org/) -->
<svg
   xmlns:svg="http://www.w3.org/2000/svg"
   xmlns="http://www.w3.org/2000/svg"
   version="1.0"
   width="960"
   height="960"
   id="svg10824">
  <defs
     id="defs10826" />
  <g
     transform="translate(-315.342,393.0283)"
     id="layer1">
    <path
       d="M 315.342,86.964745 C 315.342,-178.11392 530.2465,-393.02832 795.342,-393.02832 C 1060.4375,-393.02832 1275.342,-178.11392 1275.342,86.964745 C 1275.342,352.05728 1060.4375,566.97168 795.342,566.97168 C 530.2465,566.97168 315.342,352.05728 315.342,86.964745"
       style="fill:#176fc1;fill-rule:nonzero;stroke:none"
       id="path10502" />
    <path
       d="M 1154.2825,56.439023 C 1124.2842,26.440323 1084.3835,9.9084459 1041.9483,9.9084459 C 1021.6309,9.9084459 1002.1999,13.791773 984.32001,20.781761 L 947.52158,-61.045483 L 962.38222,-84.608955 C 988.43335,-79.338726 1014.1521,-74.207187 1015.5509,-74.207187 C 1030.1068,-74.207187 1041.9067,-86.009727 1041.9067,-100.55833 C 1041.9067,-115.10694 1030.1068,-126.89561 1015.5509,-126.89561 C 1014.8169,-126.89561 906.90066,-126.79853 906.90066,-126.79853 C 906.88681,-126.79853 906.88681,-126.79853 906.88681,-126.79853 C 898.39699,-126.79853 891.52758,-119.90562 891.52758,-111.41778 C 891.52758,-102.92994 898.39699,-96.050901 906.88681,-96.050901 L 906.88681,-95.898341 C 906.88681,-95.898341 923.02161,-92.597513 942.85426,-88.561627 L 930.91589,-69.644278 L 651.09825,-69.644278 C 658.35545,-91.377039 663.13356,-105.74535 663.13356,-105.74535 C 663.21666,-105.99499 663.24436,-106.24463 663.29976,-106.49428 C 663.36901,-106.75779 663.4521,-107.03517 663.4798,-107.29868 C 663.52135,-107.57606 663.5075,-107.83957 663.5075,-108.10308 C 663.52135,-108.38046 663.54905,-108.64397 663.5352,-108.90749 C 663.5075,-109.171 663.4521,-109.43451 663.39671,-109.69802 C 663.35516,-109.94766 663.32746,-110.21117 663.25821,-110.44695 C 663.20281,-110.71046 663.09201,-110.94623 662.99507,-111.18201 C 662.89812,-111.43165 662.82887,-111.68129 662.71807,-111.91706 C 662.59343,-112.13897 662.44108,-112.347 662.31644,-112.56891 C 662.17794,-112.79081 662.05329,-113.02659 661.8871,-113.24849 C 661.73475,-113.44266 661.54086,-113.62295 661.36081,-113.81712 C 661.18077,-114.01129 661.02842,-114.21932 660.82068,-114.39962 C 660.62678,-114.57992 660.39134,-114.71861 660.1836,-114.87117 C 659.962,-115.03759 659.76811,-115.20402 659.53266,-115.34271 C 659.29722,-115.4814 659.03408,-115.57849 658.77093,-115.68944 C 658.54934,-115.80039 658.32775,-115.92521 658.07845,-116.0223 L 612.44397,-131.88846 L 626.11354,-167.75376 L 736.13489,-168.97423 L 768.69534,-139.53029 C 772.0331,-136.50684 777.18515,-136.77036 780.20437,-140.11279 C 783.22359,-143.44136 782.96044,-148.60063 779.62269,-151.62408 L 744.69395,-183.21772 L 742.32567,-185.35355 L 739.14026,-185.31194 L 620.3798,-183.99438 L 614.83995,-183.93891 L 591.24021,-122.01371 L 599.17604,-119.25378 L 645.12906,-103.26279 L 603.78796,20.767892 C 585.60341,13.666952 566.07545,9.9084459 545.96581,9.9084459 C 458.35314,9.9084459 387.09686,81.181362 387.09686,168.77812 C 387.09686,211.21734 403.61945,251.10465 433.61772,281.11722 C 463.62984,311.11592 503.53059,327.64779 545.96581,327.64779 C 588.40103,327.64779 628.28793,311.11592 658.30005,281.11722 C 688.29832,251.10465 704.83476,211.21734 704.83476,168.77812 C 704.83476,126.33891 688.29832,86.451592 658.30005,56.439023 C 646.48632,44.636483 633.13529,34.955904 618.71784,27.508238 C 622.56804,15.96921 626.45978,4.291491 630.25457,-7.094978 L 751.12018,121.92856 C 742.78271,132.19163 737.76915,145.24239 737.76915,159.47201 C 737.76915,175.40751 743.97377,190.38606 755.24736,201.66158 C 766.52095,212.93709 781.50623,219.13655 797.44714,219.13655 C 799.82928,219.13655 802.18371,218.95625 804.51045,218.67887 L 807.48811,231.9654 L 788.12635,231.9654 L 788.12635,250.5915 L 841.69667,250.5915 L 841.69667,231.9654 L 817.0305,231.9654 L 813.65119,216.8759 C 823.37362,214.1437 832.30663,208.99829 839.64692,201.66158 C 848.42758,192.88248 854.07822,181.84274 856.16951,169.8599 L 883.13472,170.88621 C 883.67485,212.53489 900.1005,251.60393 929.61403,281.11722 C 959.6123,311.11592 999.51304,327.64779 1041.9483,327.64779 C 1084.3835,327.64779 1124.2842,311.11592 1154.2825,281.11722 C 1184.2946,251.10465 1200.8172,211.21734 1200.8172,168.77812 C 1200.8172,126.33891 1184.2946,86.451592 1154.2825,56.439023 z M 638.53664,76.202383 C 663.27206,100.93085 676.88623,133.81431 676.88623,168.77812 C 676.88623,240.96639 618.15001,299.70171 545.96581,299.70171 C 510.99553,299.70171 478.11654,286.08233 453.38113,261.35386 C 428.65956,236.62539 415.03154,203.7558 415.03154,168.77812 C 415.03154,133.81431 428.65956,100.93085 453.38113,76.202383 C 478.11654,51.473912 510.99553,37.85453 545.96581,37.85453 C 563.01469,37.85453 579.57883,41.113751 594.93805,47.313205 L 566.1724,133.60627 C 563.98416,139.54222 555.3974,156.53177 543.09894,161.15016 C 538.88866,162.73123 536.75581,167.41896 538.33467,171.63514 C 539.91353,175.85132 544.60855,177.98715 548.81883,176.40608 C 570.71507,168.19562 581.12999,140.15245 581.55932,138.95972 C 581.58702,138.8765 594.34252,100.6396 609.74329,54.414145 C 620.17205,60.253004 629.86679,67.520373 638.53664,76.202383 z M 969.45938,27.4805 C 922.20448,51.820638 888.67456,99.141749 883.7441,154.59011 L 856.8343,153.5638 C 855.50473,139.8612 849.50785,127.14331 839.64692,117.26856 C 838.70515,116.33934 837.72183,115.49333 836.7385,114.63345 L 937.09282,-44.499737 L 969.45938,27.4805 z M 980.89916,52.902422 L 1029.1235,160.13772 L 911.66493,155.65802 C 914.64259,125.64545 927.75818,97.810323 949.37743,76.202383 C 958.80902,66.771446 969.43168,58.963185 980.89916,52.902422 z M 785.82731,135.13187 L 772.65633,121.08255 C 775.4955,119.23797 778.52857,117.75398 781.67243,116.60285 L 785.82731,135.13187 z M 790.70238,114.30059 C 792.91832,113.98161 795.16195,113.7597 797.44714,113.7597 C 803.00084,113.7597 808.37449,114.78601 813.4296,116.6722 L 797.0455,142.63501 L 790.70238,114.30059 z M 829.17661,126.61629 C 829.37051,126.79658 829.57825,126.96301 829.7583,127.14331 C 836.86315,134.24425 841.28118,143.27298 842.65229,153.03678 L 813.22185,151.91339 L 829.17661,126.61629 z M 644.89362,-51.018178 L 919.17142,-51.018178 L 821.00534,104.63388 C 813.66504,101.48561 805.68766,99.793593 797.44714,99.793593 C 794.10938,99.793593 790.85472,100.14032 787.65546,100.66734 L 781.0215,70.987629 L 802.10061,70.987629 L 802.10061,52.347661 L 748.54415,52.347661 L 748.54415,70.987629 L 771.47911,70.987629 L 778.61166,102.88639 C 773.00257,104.7587 767.76741,107.43543 763.03085,110.8056 L 636.11296,-24.680901 C 639.18758,-33.903802 642.13755,-42.75224 644.89362,-51.018178 z M 797.44714,205.17044 C 785.24563,205.17044 773.7643,200.41337 765.13599,191.78683 C 756.49383,183.14643 751.74341,171.67675 751.74341,159.47201 C 751.74341,149.51405 754.94267,140.08311 760.78721,132.24711 L 792.83522,166.46199 L 801.43583,204.96241 C 800.12012,205.08723 798.79055,205.17044 797.44714,205.17044 z M 810.59043,203.21491 L 802.6823,167.82116 L 842.05676,169.31901 C 838.46971,185.50416 826.32359,198.48557 810.59043,203.21491 z M 1041.9483,299.70171 C 1006.978,299.70171 974.099,286.08233 949.37743,261.35386 C 925.3899,237.37432 911.90037,205.7252 911.09709,171.95413 L 1041.6436,176.91924 L 1049.7041,175.76811 L 1049.3855,165.43569 L 995.77365,46.231421 C 1010.3296,40.753156 1025.9104,37.85453 1041.9483,37.85453 C 1076.9185,37.85453 1109.7975,51.473912 1134.533,76.202383 C 1159.2545,100.93085 1172.8687,133.81431 1172.8687,168.77812 C 1172.8687,240.96639 1114.1463,299.70171 1041.9483,299.70171"
       style="fill:white;fill-rule:nonzero;stroke:none"
       id="path10504" />
  </g>
</svg>
