<?xml version="1.0" encoding="UTF-8" standalone="no"?>
<!-- Created with Inkscape (http://www.inkscape.org/) -->
<svg
   xmlns:svg="http://www.w3.org/2000/svg"
   xmlns="http://www.w3.org/2000/svg"
   version="1.0"
   width="960"
   height="960"
   id="svg10866">
  <defs
     id="defs10868" />
  <g
     transform="translate(-256.7701,704.4079)"
     id="layer1">
    <path
       d="M 256.77007,-224.40097 C 256.77007,-489.49265 471.68531,-704.40789 736.76315,-704.40789 C 1001.8548,-704.40789 1216.7701,-489.49265 1216.7701,-224.40097 C 1216.7701,40.676866 1001.8548,255.59211 736.76315,255.59211 C 471.68531,255.59211 256.77007,40.676866 256.77007,-224.40097"
       style="fill:#176fc1;fill-rule:nonzero;stroke:none"
       id="path10450" />
    <path
       d="M 957.12121,-503.49441 C 938.25831,-522.35731 913.17701,-532.74437 886.48919,-532.74437 C 873.70618,-532.74437 861.49099,-530.30688 850.25911,-525.91661 L 827.11674,-577.36719 L 836.45124,-592.18607 C 852.8351,-588.86221 869.01122,-585.64914 869.89759,-585.64914 C 879.0382,-585.64914 886.46149,-593.05858 886.46149,-602.21305 C 886.46149,-611.36751 879.0382,-618.77695 869.89759,-618.77695 C 869.42671,-618.77695 801.56456,-618.7077 801.56456,-618.7077 C 796.21869,-618.7077 791.89767,-614.38668 791.89767,-609.04081 C 791.89767,-603.70878 796.21869,-599.38777 801.56456,-599.38777 L 801.56456,-599.29082 C 801.56456,-599.29082 811.70234,-597.19956 824.18066,-594.66511 L 816.67428,-582.76847 L 640.71744,-582.76847 C 645.2739,-596.43784 648.29307,-605.46766 648.29307,-605.46766 C 648.33462,-605.63385 648.34847,-605.7862 648.39002,-605.95239 C 648.43157,-606.11858 648.48696,-606.28477 648.50081,-606.45097 C 648.52851,-606.61716 648.51466,-606.7972 648.52851,-606.9634 C 648.52851,-607.12959 648.54236,-607.29578 648.52851,-607.46197 C 648.51466,-607.62817 648.48696,-607.79436 648.44542,-607.96055 C 648.41772,-608.1129 648.40387,-608.27909 648.36232,-608.43143 C 648.32077,-608.59763 648.25152,-608.73612 648.19613,-608.90231 C 648.14073,-609.05466 648.08533,-609.207 648.01608,-609.35934 C 647.94684,-609.49784 647.84989,-609.63633 647.7668,-609.76098 C 647.6837,-609.91332 647.6006,-610.05182 647.50366,-610.19031 C 647.40671,-610.31495 647.28207,-610.4396 647.17127,-610.55039 C 647.06047,-610.67504 646.96353,-610.79968 646.82503,-610.92433 C 646.71424,-611.02127 646.5619,-611.11822 646.4234,-611.21517 C 646.28491,-611.31211 646.16026,-611.42291 646.02177,-611.506 C 645.86943,-611.60295 645.70323,-611.65835 645.55089,-611.7276 C 645.39854,-611.79684 645.26005,-611.87994 645.10771,-611.93534 L 616.41172,-621.92077 L 625.0122,-644.46762 L 694.19004,-645.24318 L 714.65948,-626.72651 C 716.76459,-624.82914 720.00535,-624.98149 721.90272,-627.0866 C 723.80009,-629.17786 723.6339,-632.41862 721.54264,-634.31599 L 699.57746,-654.18991 L 698.08173,-655.5333 L 696.07356,-655.5056 L 621.39751,-654.67464 L 617.90745,-654.64694 L 603.07473,-615.70238 L 636.96425,-603.91652 L 610.9689,-525.91661 C 599.52928,-530.38997 587.24485,-532.74437 574.60033,-532.74437 C 519.5212,-532.74437 474.70449,-487.92766 474.70449,-432.84853 C 474.70449,-406.16071 485.09155,-381.07941 503.9683,-362.20266 C 522.83121,-343.33975 547.92635,-332.95269 574.60033,-332.95269 C 601.28815,-332.95269 626.36945,-343.33975 645.2462,-362.20266 C 664.10911,-381.07941 674.49617,-406.16071 674.49617,-432.84853 C 674.49617,-459.53636 664.10911,-484.61765 645.2462,-503.49441 C 637.82291,-510.90384 629.41632,-516.99759 620.3588,-521.67869 C 622.7686,-528.93578 625.21995,-536.27597 627.61589,-543.44997 L 703.60764,-462.30624 C 698.37256,-455.85241 695.2149,-447.63971 695.2149,-438.70684 C 695.2149,-428.67986 699.12043,-419.26225 706.21133,-412.17135 C 713.30223,-405.08045 722.71984,-401.17492 732.74681,-401.17492 C 734.24255,-401.17492 735.72444,-401.29956 737.17863,-401.46575 L 739.0483,-393.11456 L 726.88851,-393.11456 L 726.88851,-381.39795 L 760.57029,-381.39795 L 760.57029,-393.11456 L 745.05895,-393.11456 L 742.92614,-402.60141 C 749.04758,-404.31873 754.65659,-407.5595 759.2823,-412.17135 C 764.79436,-417.68342 768.35366,-424.63583 769.66936,-432.16991 L 786.62104,-431.51899 C 786.95343,-405.32974 797.29894,-380.76088 815.84331,-362.20266 C 834.72007,-343.33975 859.80136,-332.95269 886.48919,-332.95269 C 913.17701,-332.95269 938.25831,-343.33975 957.12121,-362.20266 C 975.99797,-381.07941 986.38503,-406.16071 986.38503,-432.84853 C 986.38503,-459.53636 975.99797,-484.61765 957.12121,-503.49441 z M 632.82327,-491.05763 C 648.36232,-475.51858 656.93511,-454.84141 656.93511,-432.84853 C 656.93511,-387.45015 619.99872,-350.51375 574.60033,-350.51375 C 552.60745,-350.51375 531.94413,-359.08654 516.39123,-374.63943 C 500.83834,-390.17848 492.2794,-410.85566 492.2794,-432.84853 C 492.2794,-454.84141 500.83834,-475.51858 516.39123,-491.05763 C 531.94413,-506.61052 552.60745,-515.16946 574.60033,-515.16946 C 585.33363,-515.16946 595.73454,-513.11975 605.40143,-509.22806 L 587.31409,-454.96605 C 585.92915,-451.24056 580.54173,-440.54881 572.7999,-437.64043 C 570.15467,-436.65712 568.81127,-433.69335 569.80843,-431.04811 C 570.80559,-428.40287 573.75551,-427.05948 576.40075,-428.04278 C 590.16707,-433.20862 596.71785,-450.85277 596.99483,-451.60064 C 597.00868,-451.64219 605.0275,-475.69863 614.70824,-504.7547 C 621.25901,-501.08461 627.3666,-496.5143 632.82327,-491.05763 z M 840.91076,-521.69254 C 811.18991,-506.38893 790.1111,-476.64039 787.00883,-441.76756 L 770.08484,-442.40463 C 769.25388,-451.03282 765.48684,-459.03778 759.2823,-465.24232 C 758.68677,-465.82399 758.06355,-466.35027 757.44032,-466.90425 L 820.55211,-566.96628 L 840.91076,-521.69254 z M 848.0986,-505.71031 L 878.42883,-438.2775 L 804.56989,-441.10278 C 806.42571,-459.96569 814.67996,-477.47135 828.28009,-491.05763 C 834.20764,-496.99903 840.88306,-501.90172 848.0986,-505.71031 z M 725.43432,-454.01044 L 717.15237,-462.84637 C 718.93895,-463.99587 720.83632,-464.92378 722.83063,-465.6578 L 725.43432,-454.01044 z M 728.50889,-467.09814 C 729.89383,-467.30588 731.30648,-467.44437 732.74681,-467.44437 C 736.23687,-467.44437 739.61613,-466.79345 742.78764,-465.61625 L 732.49753,-449.28779 L 728.50889,-467.09814 z M 752.68997,-459.35632 C 752.81462,-459.24552 752.93926,-459.14857 753.06391,-459.02393 C 757.52342,-454.56442 760.30715,-448.88616 761.16582,-442.75087 L 742.663,-443.45719 L 752.68997,-459.35632 z M 636.81191,-571.06571 L 809.27869,-571.06571 L 747.55184,-473.17803 C 742.93999,-475.17235 737.9265,-476.2249 732.74681,-476.2249 C 730.6417,-476.2249 728.59199,-476.01716 726.58382,-475.68478 L 722.41515,-494.33994 L 735.66904,-494.33994 L 735.66904,-506.05655 L 701.98726,-494.33994 L 716.4045,-494.33994 L 720.89171,-474.28599 C 717.37396,-473.10879 714.0778,-471.41916 711.10018,-469.3002 L 631.29984,-554.50181 C 633.22491,-560.30471 635.08073,-565.85833 636.81191,-571.06571 z M 732.74681,-409.9693 C 725.06039,-409.9693 717.84484,-412.96077 712.41587,-418.37589 C 706.9869,-423.80486 704.00928,-431.03426 704.00928,-438.70684 C 704.00928,-444.96677 706.01744,-450.89432 709.68754,-455.82471 L 729.00747,-435.20293 L 729.83844,-434.30272 L 735.25356,-410.09394 C 734.42259,-410.02469 733.59163,-409.9693 732.74681,-409.9693 z M 741.01492,-411.18804 L 736.02913,-433.44406 L 760.79188,-432.5023 C 758.54828,-422.32298 750.9034,-414.16567 741.01492,-411.18804 z M 886.48919,-350.51375 C 864.49631,-350.51375 843.81913,-359.08654 828.28009,-374.63943 C 813.19807,-389.7076 804.70838,-409.60921 804.2098,-430.85422 L 886.29529,-427.72425 L 891.36418,-428.45827 L 891.15644,-434.95364 L 857.44696,-509.90669 C 866.61527,-513.35519 876.40681,-515.16946 886.48919,-515.16946 C 908.48206,-515.16946 929.15924,-506.61052 944.69828,-491.05763 C 960.25118,-475.51858 968.82397,-454.84141 968.82397,-432.84853 C 968.82397,-387.45015 931.88757,-350.51375 886.48919,-350.51375"
       style="fill:white;fill-rule:nonzero;stroke:none"
       id="path10452" />
    <path
       d="M 936.95646,64.151626 C 936.95646,64.151626 936.95646,44.263864 931.98452,23.545137 C 928.28673,8.1030381 919.5062,-6.8681811 915.28212,-13.488202 C 914.79739,-14.73465 914.03568,-15.939549 912.92772,-17.047502 L 905.2136,-18.584787 C 916.08539,-23.764469 923.61947,-34.857852 923.61947,-47.71011 C 923.61947,-65.492761 909.18838,-79.923853 891.39188,-79.923853 C 873.59538,-79.923853 859.16429,-65.492761 859.16429,-47.71011 C 859.16429,-36.575179 861.28325,-25.329453 869.84219,-19.526548 C 872.62592,-17.656877 876.75305,-16.63202 880.99097,-16.078043 L 874.81413,-15.385572 C 874.81413,-15.385572 875.29886,-15.385572 874.44019,-13.488202 C 870.18842,-12.311002 860.78467,-10.92606 843.3344,-13.737492 C 826.25807,-16.479676 820.17818,-28.01624 818.01767,-35.453377 C 819.38876,-36.699824 820.67676,-38.126314 821.79856,-39.691298 C 827.31063,-47.433122 824.00062,-58.471107 816.82662,-63.443047 C 814.31988,-65.174224 812.43636,-67.16854 811.02372,-69.038212 C 813.89055,-74.190194 815.16469,-78.358869 815.16469,-78.358869 C 809.0848,-95.476748 794.16898,-139.11626 794.16898,-139.11626 C 790.30499,-176.1219 790.30499,-222.53129 790.30499,-222.53129 C 790.30499,-222.53129 791.316,-230.49471 780.36111,-237.43327 C 754.11646,-254.08026 733.82707,-260.82493 725.94675,-263.04084 L 725.08809,-273.56639 C 732.08204,-279.23081 737.40022,-288.38527 740.29475,-298.2322 C 740.44709,-298.74463 740.57173,-299.25706 740.69638,-299.76949 C 748.06427,-298.63384 753.53479,-297.92752 755.51526,-297.92752 C 763.79721,-297.92752 762.96624,-304.54754 752.1914,-310.35044 C 749.03373,-312.05392 746.29154,-313.32807 743.42471,-314.36677 C 744.24183,-318.97863 746.33309,-330.72294 747.63494,-337.27371 C 749.29687,-345.56951 739.35299,-347.63307 731.07104,-345.56951 C 722.78908,-343.4921 712.01424,-348.46404 707.45778,-351.35857 C 702.90132,-354.26694 700.40843,-353.0205 696.68293,-348.87952 C 693.63606,-345.48641 688.08245,-329.32414 686.17123,-323.57664 L 666.85129,-324.4353 C 666.85129,-324.4353 649.45642,-318.63239 663.54128,-314.49142 C 667.10058,-313.45271 674.21918,-311.87388 682.98586,-310.10115 C 682.68117,-308.79931 682.41804,-307.45592 682.23799,-306.09867 C 680.47912,-293.13562 685.04942,-281.03123 693.26213,-273.99573 L 691.33706,-266.51704 C 686.48976,-264.34268 675.60412,-259.20455 651.93547,-247.37715 C 631.13365,-236.97624 623.66881,-229.78839 621.16207,-225.39812 L 620.73273,-226.39528 C 620.73273,-226.39528 604.72281,-156.78811 604.15498,-118.67452 C 603.61486,-80.574775 603.61486,-44.663239 603.61486,-44.663239 L 612.76932,-44.663239 C 610.99659,-35.453377 609.95789,-26.257364 611.89681,-17.047502 C 612.45078,-13.183515 615.76079,-8.7655512 619.62478,-7.6575979 C 624.59672,-6.5496445 624.59672,-8.2115745 629.56866,-8.2115745 C 629.56866,-9.3195278 637.64287,-12.671087 637.85061,-13.183515 C 639.51254,-17.047502 641.17447,-23.127396 635.64856,-30.85537 C 632.61553,-35.093292 631.78457,-36.381288 630.12264,-41.353228 C 629.87335,-42.378085 629.01469,-43.513737 628.12832,-44.663239 L 633.98663,-44.663239 C 633.98663,-44.663239 633.98663,-47.433122 636.75651,-89.96468 C 639.4156,-130.88971 639.51254,-128.34141 648.37617,-157.1482 L 650.0104,-153.4781 C 667.12828,-91.058784 653.32041,-78.912845 647.24052,-60.133037 C 646.09102,-56.573737 643.93051,-34.165381 648.90245,-32.5173 C 650.63362,-31.935625 652.62794,-31.464745 654.83,-31.076961 C 654.22062,-17.490684 654.24832,7.0089342 657.73838,47.019898 C 663.81827,116.62707 674.8701,150.59968 672.6542,167.71756 C 672.6542,167.71756 641.72845,166.8866 649.45642,186.22038 C 657.1844,205.55417 674.8701,214.3901 674.8701,214.3901 L 679.28807,213.83612 L 681.49012,219.36204 L 690.88003,224.88795 C 690.88003,224.88795 698.62185,227.64399 703.03982,221.57794 C 707.45778,215.49805 706.34983,211.08009 706.34983,211.08009 L 709.65984,196.71824 C 709.65984,196.71824 709.65984,133.74494 702.48584,97.29328 C 695.29799,60.841616 698.62185,40.953854 701.37789,25.484056 C 702.40274,19.736548 704.5771,15.429379 706.9038,12.299411 C 711.8065,23.351246 717.6925,35.497184 724.60336,48.072454 C 725.94675,73.264542 728.97977,137.24885 726.79157,163.57659 C 726.62537,165.48781 726.51458,167.21898 726.43148,168.81167 L 719.04974,174.35143 C 719.04974,174.35143 718.21878,183.46435 720.71167,185.11243 C 723.19072,186.77436 724.02168,193.40823 724.02168,193.40823 C 724.02168,193.40823 732.31748,201.69018 738.9375,212.46503 C 745.57137,223.22602 758.82527,222.39506 763.79721,220.74698 C 768.76915,219.08505 767.93818,225.71892 767.10722,209.14117 C 766.49784,196.89828 759.54544,184.6554 755.97229,179.10178 C 762.37072,178.32622 767.89663,177.24596 768.76915,175.72253 C 770.69422,172.35712 770.51417,80.355444 770.44493,56.866833 C 770.77731,56.562146 770.9712,56.423652 770.9712,56.423652 C 770.9712,56.423652 775.02908,-1.342264 749.15837,-37.2815 C 755.09977,-38.334055 759.85012,-38.971128 762.13528,-41.353228 C 767.17646,-46.588308 764.35118,-54.60712 764.35118,-54.60712 C 764.35118,-54.60712 762.7585,-56.656833 756.60936,-75.602835 C 743.90944,-114.81053 758.27129,-157.89607 758.27129,-157.89607 C 758.27129,-157.89607 763.24323,-121.4444 767.66119,-107.63654 C 772.07916,-93.828667 793.62885,-51.851086 793.62885,-51.851086 C 795.02764,-52.446611 796.34333,-53.152931 797.58978,-53.956197 C 797.52054,-51.172464 797.34049,-48.208689 796.93886,-45.771192 C 795.83091,-39.137321 795.83091,-37.489241 801.35682,-32.5173 C 802.31243,-31.658637 803.37884,-31.09081 804.51449,-30.758425 C 803.87742,-22.891956 804.2098,-7.5606519 813.50276,6.9812353 C 818.18386,14.279878 835.01091,20.082783 848.30635,23.669782 C 822.87882,55.814278 797.76982,74.095507 797.76982,74.095507 C 797.76982,74.095507 802.81101,84.191732 814.76306,93.775528 C 812.81029,111.79362 809.41718,148.16219 811.85468,165.23852 C 815.16469,188.43629 817.64374,171.02757 819.30567,182.63338 C 819.34722,182.91037 819.38876,183.17351 819.44416,183.4505 C 816.54963,183.03502 813.83515,183.58899 811.78543,185.29247 C 806.79964,189.40575 807.61676,198.61561 813.59971,205.84501 C 819.58266,213.0744 828.47398,215.595 833.45977,211.46787 C 834.80316,210.34607 835.70338,208.86418 836.22965,207.14685 L 836.70053,207.49309 C 836.70053,207.49309 839.19343,198.38017 837.5315,186.77436 C 835.96652,175.80562 833.66751,160.39122 847.43383,115.29752 C 847.79392,127.02798 848.99882,140.91894 852.44732,147.8298 C 859.08119,161.08369 863.22217,161.08369 868.19411,168.54853 C 871.68416,173.78361 871.08864,183.11811 870.42386,188.20085 C 863.26372,193.83756 860.0368,200.29139 861.56024,203.33826 C 866.83686,213.87767 875.14651,208.15786 883.65006,202.23031 C 889.18982,198.35247 892.76297,193.11739 893.53854,188.47784 L 893.87093,188.43629 C 893.87093,188.43629 906.3077,191.7463 888.08187,163.57659 C 877.37627,147.04038 878.13799,139.54785 882.27896,124.63203 C 884.23173,117.59652 885.99061,112.25065 887.32015,108.53901 C 891.28108,107.77729 895.39436,106.79398 899.67383,105.57523 C 899.67383,105.57523 892.22284,86.518434 894.70189,64.982591 C 895.6852,56.534447 898.56588,45.039432 901.7097,34.16764 C 914.27112,40.496823 916.86096,55.731181 914.58965,63.320661 C 912.56764,70.079177 910.53177,75.729739 909.85315,77.58556 C 904.54883,79.275189 900.62944,85.230438 900.62944,92.321339 C 900.62944,100.72794 906.14151,107.5557 912.92772,107.5557 C 919.72779,107.5557 925.23985,100.72794 925.23985,92.321339 C 925.23985,89.93924 924.78282,87.681785 923.99341,85.67362 C 935.40533,76.602252 936.95646,64.151626 936.95646,64.151626"
       style="fill:white;fill-rule:nonzero;stroke:none"
       id="path10454" />
  </g>
</svg>
