<?xml version="1.0" encoding="UTF-8" standalone="no"?>
<!-- Created with Inkscape (http://www.inkscape.org/) -->

<svg
   xmlns:dc="http://purl.org/dc/elements/1.1/"
   xmlns:cc="http://creativecommons.org/ns#"
   xmlns:rdf="http://www.w3.org/1999/02/22-rdf-syntax-ns#"
   xmlns:svg="http://www.w3.org/2000/svg"
   xmlns="http://www.w3.org/2000/svg"
   xmlns:sodipodi="http://sodipodi.sourceforge.net/DTD/sodipodi-0.dtd"
   xmlns:inkscape="http://www.inkscape.org/namespaces/inkscape"
   width="397.90625"
   height="397.90741"
   id="svg2"
   version="1.1"
   inkscape:version="0.47 r22583"
   sodipodi:docname="Vorschriftszeichen 15a.svg">
  <defs
     id="defs4">
    <inkscape:perspective
       sodipodi:type="inkscape:persp3d"
       inkscape:vp_x="0 : 526.18109 : 1"
       inkscape:vp_y="0 : 1000 : 0"
       inkscape:vp_z="744.09448 : 526.18109 : 1"
       inkscape:persp3d-origin="372.04724 : 350.78739 : 1"
       id="perspective10" />
    <inkscape:perspective
       id="perspective2825"
       inkscape:persp3d-origin="480 : 320 : 1"
       inkscape:vp_z="960 : 480 : 1"
       inkscape:vp_y="0 : 1000 : 0"
       inkscape:vp_x="0 : 480 : 1"
       sodipodi:type="inkscape:persp3d" />
    <inkscape:perspective
       id="perspective2839"
       inkscape:persp3d-origin="0.5 : 0.33333333 : 1"
       inkscape:vp_z="1 : 0.5 : 1"
       inkscape:vp_y="0 : 1000 : 0"
       inkscape:vp_x="0 : 0.5 : 1"
       sodipodi:type="inkscape:persp3d" />
    <inkscape:perspective
       id="perspective2859"
       inkscape:persp3d-origin="345 : 230 : 1"
       inkscape:vp_z="690 : 345 : 1"
       inkscape:vp_y="0 : 1000 : 0"
       inkscape:vp_x="0 : 345 : 1"
       sodipodi:type="inkscape:persp3d" />
    <inkscape:perspective
       id="perspective3691"
       inkscape:persp3d-origin="480 : 320 : 1"
       inkscape:vp_z="960 : 480 : 1"
       inkscape:vp_y="0 : 1000 : 0"
       inkscape:vp_x="0 : 480 : 1"
       sodipodi:type="inkscape:persp3d" />
  </defs>
  <sodipodi:namedview
     id="base"
     pagecolor="#ffffff"
     bordercolor="#666666"
     borderopacity="1.0"
     inkscape:pageopacity="0.0"
     inkscape:pageshadow="2"
     inkscape:zoom="0.59068275"
     inkscape:cx="673.10482"
     inkscape:cy="32.564628"
     inkscape:document-units="px"
     inkscape:current-layer="layer1"
     showgrid="false"
     inkscape:window-width="1600"
     inkscape:window-height="838"
     inkscape:window-x="-8"
     inkscape:window-y="-8"
     inkscape:window-maximized="1" />
  <metadata
     id="metadata7">
    <rdf:RDF>
      <cc:Work
         rdf:about="">
        <dc:format>image/svg+xml</dc:format>
        <dc:type
           rdf:resource="http://purl.org/dc/dcmitype/StillImage" />
        <dc:title></dc:title>
      </cc:Work>
    </rdf:RDF>
  </metadata>
  <g
     inkscape:label="Livello 1"
     inkscape:groupmode="layer"
     id="layer1"
     transform="translate(452.73807,-258.44939)">
    <g
       id="g3699">
      <path
         d="m -452.73807,457.40598 c 0,-109.87723 89.07532,-198.95659 198.9537,-198.95659 109.87839,0 198.952557,89.07936 198.952557,198.95659 0,109.87089 -89.074167,198.95082 -198.952557,198.95082 -109.87838,0 -198.9537,-89.07993 -198.9537,-198.95082 z"
         style="fill:#ee1c23;fill-rule:nonzero;stroke:none"
         id="path2664" />
      <path
         d="m -253.78437,604.92237 c 81.47472,0 147.52447,-66.0486 147.52447,-147.51639 0,-81.47944 -66.04975,-147.5285 -147.52447,-147.5285 -81.47471,0 -147.52446,66.04906 -147.52446,147.5285 0,81.46779 66.04975,147.51639 147.52446,147.51639"
         style="fill:#ffffff;fill-rule:nonzero;stroke:none"
         id="path85" />
      <path
         d="m -161.27647,486.01998 c 2.85625,1.78196 7.14062,7.49597 7.14062,7.49597 -0.71863,-6.06876 -5.003,-11.06901 -5.003,-11.06901 -5.70944,-4.28224 -3.56878,-5.355 -8.20637,-18.20597 -4.64368,-12.85098 2.49693,-17.49223 -12.14057,-26.77076 -6.03221,-3.82608 -12.36284,-4.46371 -15.95904,-4.45945 -0.15225,-0.18179 -0.3045,-0.36327 -0.4598,-0.5408 -8.84278,-9.94539 -29.0189,-8.12934 -43.47978,-7.13269 -1.8727,-3.98262 -5.48259,-11.68565 -7.03465,-15.1783 -2.14218,-4.81846 0,-11.0646 0.71284,-14.10105 0.71285,-3.03224 1.60687,-3.5686 1.96528,-13.56485 0.33738,-9.49789 -8.66648,-13.35364 -9.56051,-13.71262 l 0.63245,-0.20694 -1.78378,-2.85908 -2.20156,1.00934 c 1.05023,-2.67327 1.21466,-5.90823 0.77618,-7.79173 -1.33281,-5.70129 -4.28467,-9.81468 -10.07085,-8.50126 -2.93542,0.67149 -5.03132,3.18428 -5.81146,6.38545 l -0.005,-0.0254 0,-0.53635 c 0,0 -0.3584,4.10493 -3.0362,5.35498 0,0 -1.42569,2.14114 0,2.32275 l 2.97317,-1.68084 c 0.0378,0.18162 0.0801,0.36322 0.12637,0.54903 0.92356,3.6995 3.31483,6.54591 6.14458,7.76641 l -2.10442,0.86152 0.79292,1.58369 c -0.12666,0.004 -0.40073,0.1647 -0.97014,0.73483 -1.24817,1.25005 -6.42717,9.99625 -7.85254,12.67372 -1.42965,2.6775 -0.53563,2.14114 -3.03652,4.81865 -2.07458,2.22562 -13.1366,11.95997 -16.82657,15.19501 -17.2066,-16.05654 -20.09116,-15.42729 -27.08348,-17.87252 -5.9506,-2.082 -10.41219,-0.19847 -11.73221,0.48989 -4.04017,-1.79484 -5.40251,-3.70371 -5.40251,-3.70371 0,0 -0.68301,2.39876 -0.7506,4.40477 -0.56517,-0.29984 -1.10078,-0.63769 -1.5688,-1.01357 -2.67781,-2.14114 -5.35592,-1.96378 -5.35592,-1.96378 0,0 -1.24817,0 -0.17722,1.25009 1.07124,1.25005 1.51003,2.68171 3.74935,3.75017 2.53865,1.21205 2.70308,2.33962 2.54291,3.88532 -2.09164,2.44943 -3.9686,5.24517 -4.33126,7.71582 0,0 -0.35414,14.81472 -0.88976,18.7422 0,0 -1.60687,9.63755 -2.5009,11.77851 0,0 -1.78377,1.609 0.53563,3.39126 0,0 2.31971,1.24999 4.82029,3.92749 0,0 0.89403,0.53653 2.67812,-0.71376 0,0 -0.89403,1.25029 1.78378,1.07276 2.67811,-0.18148 4.64338,-0.71375 4.99751,-3.75027 0.0844,-0.70522 0.27832,-1.55813 0.53989,-2.48321 3.54655,-2.25516 7.66253,-3.59803 11.77455,-4.83553 0.43422,-0.1352 0.87301,-0.24908 1.30723,-0.35901 1.10505,3.56878 2.64858,7.17959 4.40709,10.53279 3.92627,7.50022 3.56787,11.78247 4.28467,17.85122 0.6285,5.3678 0.43027,17.15026 8.27854,21.5339 -2.35747,4.90312 -8.03798,16.21269 -13.15791,22.61092 0,0 -2.61873,1.19092 -1.42964,6.19117 0,0 0,0 -0.71254,2.37757 -1.45096,4.83125 -7.51942,18.27784 -9.65764,20.89626 0,0 -1.83038,1.79505 0.0759,2.98597 l -0.65346,2.06087 c 0,0 -3.45826,3.66562 -1.02924,9.9116 l 7.19483,-3.18845 0.63245,-0.32948 c 0,0 -0.65347,-3.1714 -0.9193,-4.8818 -0.2363,-1.48659 1.50151,-0.79811 -0.64098,-1.98903 -1.04171,-0.57885 0,-1.90467 0,-1.90467 2.06636,-0.81941 1.18939,-3.09558 1.18939,-3.09558 3.56757,-9.51909 6.66315,-19.98853 9.51818,-21.65661 2.85928,-1.66381 2.86356,-3.55569 2.86356,-3.55569 0,0 -0.46377,-0.15225 0.2235,-1.21649 0.68757,-1.05998 8.50631,-8.72068 10.92286,-10.90427 0.008,0.0551 1.73749,-1.65956 2.96464,-3.85137 1.26948,-2.26795 2.04109,-5.01305 2.04961,-4.95397 0.0211,0.0971 0.98264,0.84895 0.98264,0.84895 -0.53137,0.86145 -0.71285,3.14644 -1.83038,4.81878 -1.53073,2.29717 -3.99813,3.96982 -3.98534,4.02036 0.86449,3.98656 2.73688,9.3711 6.21614,16.6393 0,0 -0.53531,2.32276 1.01217,3.39125 0,0 9.99503,13.8056 11.90122,17.61067 1.90193,3.80934 0.71254,3.33189 2.61904,3.57275 l 2.85503,2.85473 0.63672,0.82794 1.59408,0.75577 c 0,0 0.5146,5.01731 6.82788,7.25968 l 2.28987,-7.52581 0.16443,-0.69671 c 0.005,0 -2.82549,-1.57945 -4.2932,-2.49601 -1.28196,-0.79384 0.37546,-1.65529 -1.9272,-0.81486 -1.11753,0.40957 -1.96101,0.78532 -1.96101,0.78532 l -1.5478,-1.24999 c 0,0 3.92629,-1.36814 -3.92626,-8.0325 -7.85254,-6.66406 -8.0928,-13.32812 -8.0928,-13.32812 1.42965,-2.61843 -1.18939,-4.04595 -1.18939,-4.04595 0.9869,-4.46799 -0.47655,-15.46514 -1.18909,-16.89691 -0.71283,-1.42752 0,-1.90467 0.47655,-3.09133 1.27344,-3.18419 1.23537,-6.2545 0.74634,-8.77579 8.07179,0.24908 15.50686,-0.0167 21.81586,-0.73903 1.514,0.8995 3.36964,1.87514 5.2801,2.61416 4.64308,1.78226 2.50089,-2.85898 2.50089,-2.85898 0,0 5.35591,1.07247 8.92349,1.42721 2.04535,0.20706 1.86416,-2.75333 1.33706,-5.3212 4.66836,-1.09379 5.80294,-0.38825 5.80294,-0.38825 -0.34592,2.16624 1.56027,4.14704 1.41685,5.96706 -1.03318,13.17221 2.74541,17.70354 3.58067,20.21235 0.95308,2.85472 0.71253,9.99624 0.71253,9.99624 -3.09132,7.37782 -9.75447,18.79732 -10.70757,21.65631 -0.9531,2.85472 0.23599,3.56848 0.23599,3.56848 l -1.42538,1.66412 c -4.04412,1.66806 -6.42685,9.28248 -6.42685,9.28248 l 10.47127,-1.42752 c 3.57213,-7.85496 -0.47655,-7.13726 -0.47655,-7.13726 l 1.42964,-1.66807 c 3.80813,-0.2366 4.04442,-2.85472 4.04442,-2.85472 1.66595,-13.80559 12.85432,-26.65686 13.56686,-29.03443 0.71285,-2.38183 -0.47655,-2.38183 -0.9531,-3.57274 -0.47655,-1.18665 -0.47655,-4.99599 -0.47655,-4.99599 -1.90193,-15.23311 7.61656,-19.75195 9.52275,-21.42001 1.90194,-1.66381 0.47656,-3.33219 0.47656,-3.33219 -2.38275,-3.56848 -3.09559,-9.75539 -3.09559,-9.75539 l 1.66593,-1.78652 c 0,0 3.92597,19.27904 16.06288,27.84778 0,0 12.85615,14.63323 17.49374,23.20197 4.63759,8.56874 1.78439,3.92749 2.85624,8.56874 1.06882,4.64155 3.86112,14.39693 6.06877,19.27478 2.25941,5.00024 9.40002,10.71 9.40002,10.71 l 4.04686,-8.32818 c 0,0 -0.9531,-2.61843 -5.23746,-1.66806 l 0.47806,-2.14128 c 0,0 -1.19061,1.19091 -3.56878,-1.66381 0,0 -0.95309,2.37756 -0.34714,-0.91655 0.61206,-3.28986 -1.79656,-4.79746 -1.79656,-4.79746 -4.52493,-7.61442 -5.23747,-16.66031 -5.23747,-16.66031 0.47808,-0.71375 0.47808,-2.37787 0.47808,-2.37787 -0.54203,-3.69089 -0.9531,-8.32787 -4.2996,-13.79706 -4.57973,-7.49597 -7.12538,-15.83268 -7.12538,-15.83268 0.6364,-8.27306 2.40862,-32.15528 -5.31056,-46.34516 11.37322,0.86997 13.76053,9.73864 12.09489,12.07418 -1.78743,2.49997 -2.14065,8.56874 0,10.71 2.13762,2.14097 0.35627,4.64125 2.85625,10.71001 2.49693,6.06876 9.21428,13.94901 9.21428,13.94901 -0.63641,-0.42661 2.35687,2.46648 1.13885,0.32947 -4.28437,-7.49626 -8.92805,-19.63347 -8.92805,-19.63347 4.28436,5.35499 7.46339,14.47275 9.28128,18.38349 2.32031,5.00025 3.39216,6.42746 6.24536,8.92774 2.85929,2.49571 5.17962,5.88698 5.17962,5.88698 0.3593,-2.85473 -1.42813,-5.70975 -3.21252,-7.49597 -1.78439,-1.78652 -2.49693,-4.996 -2.49693,-4.996 z m -175.68281,-94.83984 c -0.0633,-0.0211 -0.12636,-0.0381 -0.18544,-0.0591 l 0.3584,-0.10137 c -0.0591,0.0549 -0.11815,0.10557 -0.17296,0.16048 z m 11.64392,37.00758 c -2.49663,0.89129 -4.99752,1.96375 -6.95852,3.74601 -0.13064,0.0843 -0.2573,0.16047 -0.38367,0.24086 1.35351,-3.71647 3.06148,-7.37812 3.06148,-7.37812 0,0 5.12845,-2.32276 6.90797,-7.75358 0.63671,-1.94274 1.12179,-6.17017 0.40925,0.61235 -0.29963,2.84651 0.0293,6.03923 0.80541,9.33731 -1.29475,0.33373 -2.57245,0.72654 -3.84192,1.19517 z m 48.84848,-7.95211 c -1.80936,-0.86145 -3.66469,-1.87087 -5.57515,-3.05753 7.65856,-3.86841 12.59701,-8.80107 12.59701,-8.80107 -1.56484,3.52189 -4.36933,7.97313 -7.02186,11.8586"
         style="fill:#000000;fill-rule:nonzero;stroke:none"
         id="path10414" />
    </g>
  </g>
</svg>
