<?xml version="1.0" encoding="UTF-8" standalone="no"?>
<!-- Created with Inkscape (http://www.inkscape.org/) -->
<svg
   xmlns:svg="http://www.w3.org/2000/svg"
   xmlns="http://www.w3.org/2000/svg"
   version="1.0"
   width="960"
   height="960"
   id="svg2824">
  <defs
     id="defs2826" />
  <g
     transform="translate(31.80086,190.1227)"
     id="layer1">
    <path
       d="M -31.800857,289.87733 C -31.800857,24.781825 183.10364,-190.12267 448.19914,-190.12267 C 713.29465,-190.12267 928.19914,24.781825 928.19914,289.87733 C 928.19914,554.97283 713.29465,769.87733 448.19914,769.87733 C 183.10364,769.87733 -31.800857,554.97283 -31.800857,289.87733 z "
       style="fill:#ee1c23;fill-rule:nonzero;stroke:none"
       id="path2836" />
    <path
       d="M 448.19914,645.79862 C 644.76675,645.79862 804.12043,486.44493 804.12043,289.87733 C 804.12043,93.309727 644.76675,-66.043958 448.19914,-66.043958 C 251.64539,-66.043958 92.291705,93.309727 92.291705,289.87733 C 92.291705,486.44493 251.64539,645.79862 448.19914,645.79862"
       style="fill:white;fill-rule:nonzero;stroke:none"
       id="path341" />
    <path
       d="M 709.5968,279.75326 C 688.76698,258.92344 661.0539,247.44211 631.59576,247.44211 C 626.15286,247.44211 620.82076,247.88529 615.58561,248.64702 L 588.98049,188.96903 L 595.04662,179.52359 C 597.56725,179.86983 599.40925,180.13297 600.29563,180.27147 C 603.2456,181.87802 606.63875,182.77825 610.23965,182.77825 C 627.98101,182.7367 631.01408,177.54309 631.05563,161.96227 C 631.08333,150.46709 621.73483,141.1463 610.23965,141.1463 C 607.74672,141.1463 605.39229,141.60334 603.17635,142.39277 L 603.09325,142.26812 C 564.56362,155.50835 529.70413,154.76047 529.70413,154.76047 C 524.30278,154.76047 519.91245,159.1508 519.91245,164.566 C 519.91245,169.96735 524.30278,174.35768 529.70413,174.35768 C 540.70073,173.6098 558.85758,175.17481 574.106,176.89216 L 490.66207,306.74616 L 489.59564,306.55227 C 466.50833,318.10285 438.79525,307.71564 438.79525,307.71564 C 438.79525,307.71564 423.78227,312.32756 404.15736,265.00342 C 380.34987,207.56906 360.29563,198.04052 334.89543,188.80283 C 325.89318,185.53432 316.0461,183.15219 306.89151,182.03037 L 312.23746,160.00948 C 312.56985,158.63837 312.33441,157.19801 311.57268,156.00694 C 310.8248,154.81587 309.61988,153.9849 308.24877,153.7079 L 284.67672,148.79129 L 284.67672,126.56266 L 354.16025,99.846745 L 386.84534,121.83994 C 392.03895,125.30234 399.71163,121.65989 401.80293,119.69325 C 404.4482,117.22801 408.20145,107.40864 404.15736,104.52792 L 392.20514,96.42589 L 362.60851,87.202046 C 361.2651,86.481866 354.07715,88.739353 352.65064,89.293338 L 277.61342,118.15594 C 275.60522,118.91767 274.28951,120.84276 274.28951,123.0033 L 274.28951,153.01542 C 274.28951,155.48065 276.00686,157.59965 278.4167,158.09823 L 300.88077,162.7794 L 296.37965,181.31019 C 288.36072,181.26864 281.65751,182.61205 277.58572,185.64512 C 274.12331,173.40206 258.99954,162.93175 246.41023,162.68245 L 245.38536,214.92321 C 256.07727,215.13095 268.84661,209.8681 274.85734,201.25364 C 275.77142,203.58037 277.03173,205.89326 278.48594,208.09535 L 269.55294,246.72193 C 254.55381,244.45059 239.11149,245.17077 224.22315,249.18716 C 211.7308,252.56646 199.64008,258.20326 188.54654,266.20834 L 193.07536,272.48221 C 170.84673,288.52007 156.19383,312.24446 151.81736,339.29276 C 147.44088,366.34106 153.8671,393.47246 169.8911,415.70109 C 185.91511,437.91588 209.6395,452.56877 236.70165,456.94525 C 263.74995,461.32173 281.64366,460.24146 313.09614,438.8715 C 347.51243,415.5072 354.29874,375.95269 354.29874,375.95269 L 361.90218,377.4346 C 368.00986,344.22322 359.79704,315.04208 342.55427,291.13765 C 329.68798,273.29934 312.4175,260.51614 293.30503,253.06505 L 298.42939,237.44268 L 439.33539,348.7936 C 438.98915,350.3863 438.37976,350.74639 438.36591,352.4499 C 438.36591,352.79614 437.64573,356.31394 437.64573,357.35266 C 437.64573,366.93659 440.45721,374.26304 446.0109,379.11041 C 453.93288,386.02137 464.59709,385.28734 466.61913,385.06574 L 533.42968,387.73872 C 538.2632,403.65193 546.96076,418.22172 559.05147,430.31244 C 578.42708,449.68805 604.18737,460.35226 631.59576,460.35226 C 658.9903,460.35226 684.75059,449.68805 704.1262,430.31244 C 723.50181,410.93683 734.17987,385.17654 734.17987,357.76815 L 741.9218,357.76815 C 741.9218,328.29617 730.44047,300.59693 709.5968,279.75326 z M 204.21045,287.93838 C 221.50862,275.45988 242.46309,270.15548 263.51451,272.8146 L 245.8147,349.33373 L 177.03751,321.08052 C 182.97899,307.97878 192.23054,296.58054 204.21045,287.93838 z M 301.96104,423.42918 C 264.60863,450.38053 212.28478,441.90457 185.33343,404.55215 C 172.28709,386.4507 167.05193,364.36057 170.62513,342.33968 C 171.35916,337.81085 172.46713,333.40667 173.87979,329.14099 L 243.83421,357.87895 L 242.71239,362.72631 C 242.68469,362.85096 242.68469,362.9756 242.67084,363.10025 C 242.62929,363.33569 242.58774,363.57114 242.57389,363.80658 C 242.56004,364.04203 242.56004,364.26362 242.56004,364.48521 C 242.57389,364.70681 242.58774,364.9284 242.61544,365.16384 C 242.64314,365.38544 242.68469,365.60703 242.74009,365.81478 C 242.78163,366.03637 242.83703,366.24411 242.90628,366.45186 C 242.97553,366.67345 243.05863,366.8812 243.15557,367.07509 C 243.23867,367.28284 243.33562,367.47673 243.44642,367.67062 C 243.55721,367.86452 243.66801,368.04456 243.80651,368.22461 C 243.93115,368.40465 244.0558,368.5847 244.20815,368.75089 C 244.34664,368.93094 244.49899,369.08329 244.66518,369.23563 C 244.81753,369.38798 244.98372,369.54032 245.16377,369.67882 C 245.34381,369.83116 245.52386,369.95581 245.71775,370.08046 C 245.91165,370.2051 246.09169,370.3159 246.29944,370.41285 C 246.50718,370.52365 246.72878,370.62059 246.95037,370.70369 C 247.07502,370.75909 247.17196,370.82834 247.29661,370.85604 C 247.40741,370.89759 247.50435,370.89759 247.6013,370.92528 C 247.7121,370.95298 247.7952,371.00838 247.90599,371.03608 C 248.03064,371.06378 248.15529,371.04993 248.27993,371.07763 C 248.52923,371.11918 248.76467,371.14688 249.00011,371.17458 C 249.22171,371.18843 249.4433,371.18843 249.66489,371.17458 C 249.88649,371.17458 250.12193,371.16073 250.34353,371.13303 C 250.56512,371.10533 250.78671,371.06378 251.00831,371.00838 C 251.21605,370.96683 251.4238,370.89759 251.64539,370.82834 C 251.85313,370.75909 252.06088,370.67599 252.26862,370.59289 C 252.46252,370.49595 252.65641,370.399 252.85031,370.30205 C 253.0442,370.19125 253.22425,370.06661 253.40429,369.94196 C 253.59819,369.81731 253.76438,369.67882 253.94443,369.54032 C 254.11062,369.38798 254.26297,369.24948 254.42916,369.08329 C 254.58151,368.93094 254.72,368.76474 254.8585,368.5847 C 255.01085,368.40465 255.13549,368.22461 255.26014,368.03071 C 255.38479,367.83682 255.49558,367.65677 255.59253,367.44903 C 255.70333,367.24129 255.80027,367.01969 255.88337,366.7981 C 255.93877,366.67345 256.00802,366.56266 256.04957,366.43801 L 258.36245,359.3747 L 336.52969,359.3747 C 336.37734,362.58782 336.07265,365.80093 335.54636,369.02789 C 331.98701,391.04878 320.04864,410.36899 301.96104,423.42918 z M 320.83807,306.81541 C 330.25581,319.86175 335.57406,335.01323 336.47429,350.71869 L 261.21547,350.71869 L 284.95371,278.4514 C 299.20497,284.29593 311.60038,294.00452 320.83807,306.81541 z M 631.59576,274.22726 C 653.90749,274.22726 674.88966,282.92482 690.66437,298.69954 C 704.47244,312.52145 712.85146,330.31821 714.72116,349.51378 L 669.23902,350.4417 C 667.30007,340.35918 659.11495,332.5203 648.85238,331.06609 L 634.35184,299.15657 C 635.52905,296.70519 635.7091,293.81062 634.51803,291.13765 L 627.03924,274.36576 C 628.54885,274.28266 630.0723,274.22726 631.59576,274.22726 z M 617.12291,298.89343 C 618.63252,302.28659 621.88718,304.32248 625.36343,304.48868 L 637.3018,330.74755 L 552.6945,330.20741 C 556.78013,318.49064 563.48335,307.74333 572.52715,298.69954 C 582.48502,288.74166 594.53419,281.60911 607.67747,277.70352 L 617.12291,298.89343 z M 596.72243,253.1343 C 565.2561,263.64616 540.03595,287.95223 528.34687,318.87843 C 526.97576,322.50703 525.81239,326.23257 524.82907,330.04122 L 498.4594,329.87502 L 576.66818,208.12305 L 596.72243,253.1343 z M 466.03745,378.16863 C 465.98205,378.16863 462.54734,378.58412 458.46171,377.6839 C 459.90207,377.96089 461.37013,378.12708 462.89358,378.14093 L 466.12055,378.15478 L 466.03745,378.16863 z M 467.24236,378.16863 L 531.11679,378.57027 C 531.26914,379.29045 531.43534,380.01063 531.60153,380.73081 L 467.24236,378.16863 z M 631.59576,441.30903 C 609.28403,441.30903 588.30186,432.61148 572.52715,416.83676 C 564.32818,408.63779 558.0543,399.02616 553.91326,388.55585 L 610.66899,390.82718 C 612.58024,390.91028 614.20064,389.41452 614.26989,387.50327 C 614.35299,385.59203 612.85723,383.98547 610.94598,383.91622 L 551.47573,381.53409 C 551.19874,380.59232 550.9356,379.63669 550.6863,378.69492 L 645.29303,379.29045 C 657.95158,379.37355 668.39419,369.72037 669.57141,357.35266 L 715.0951,356.42474 C 715.10895,356.88177 715.1228,357.32496 715.1228,357.76815 C 715.1228,403.83197 677.65959,441.30903 631.59576,441.30903"
       style="fill:black;fill-rule:nonzero;stroke:none"
       id="path343" />
  </g>
</svg>
