<?xml version="1.0" encoding="UTF-8" standalone="no"?>
<!-- Created with Inkscape (http://www.inkscape.org/) -->
<svg
   xmlns:svg="http://www.w3.org/2000/svg"
   xmlns="http://www.w3.org/2000/svg"
   version="1.0"
   width="960"
   height="960"
   id="svg10794">
  <defs
     id="defs10796" />
  <g
     transform="translate(-636.7706,550.1227)"
     id="layer1">
    <path
       d="M 1596.7706,-70.12267 C 1596.7706,-335.21817 1381.8661,-550.12267 1116.7706,-550.12267 C 851.67507,-550.12267 636.77057,-335.21817 636.77057,-70.12267 C 636.77057,194.97283 851.67507,409.87733 1116.7706,409.87733 C 1381.8661,409.87733 1596.7706,194.97283 1596.7706,-70.12267"
       style="fill:#176fc1;fill-rule:nonzero;stroke:none"
       id="path10494" />
    <path
       d="M 974.49347,-139.62004 L 974.54887,-139.5785 C 978.56527,-141.62824 983.09407,-142.80546 987.91377,-142.80546 C 1004.1456,-142.80546 1017.3027,-129.64832 1017.3027,-113.43042 C 1017.3027,-109.52483 1016.5271,-105.82698 1015.156,-102.41998 L 995.82187,-42.423437 L 1078.241,-42.423437 C 1110.7045,-42.561934 1149.3865,-29.598693 1186.0326,-7.1069161 L 1186.0326,-175.6429 L 1126.0499,-156.30883 C 1122.6429,-154.93772 1118.9312,-154.16214 1115.0394,-154.16214 C 1098.8077,-154.16214 1085.6505,-167.31928 1085.6505,-183.55103 C 1085.6505,-188.37069 1086.8416,-192.89952 1088.8914,-196.91591 L 1088.8498,-196.97131 L 1251.8459,-476.20727 L 1414.842,-196.97131 L 1414.8005,-196.91591 C 1416.8502,-192.89952 1418.0413,-188.37069 1418.0413,-183.55103 C 1418.0413,-167.31928 1404.8842,-154.16214 1388.6524,-154.16214 C 1384.7468,-154.16214 1381.049,-154.93772 1377.642,-156.30883 L 1317.6454,-175.6429 L 1317.6454,298.73416 L 1186.0326,298.73416 L 1186.0326,189.14215 C 1181.0328,133.27279 1123.363,89.189466 1078.6703,89.189466 L 995.82187,89.189466 L 1015.156,149.186 C 1016.5271,152.57916 1017.3027,156.29086 1017.3027,160.1826 C 1017.3027,176.41435 1004.1456,189.57148 987.91377,189.57148 C 983.09407,189.57148 978.56527,188.39427 974.54887,186.33067 L 974.49347,186.37222 L 695.25757,23.376089 L 974.49347,-139.62004"
       style="fill:white;fill-rule:nonzero;stroke:none"
       id="path10496" />
  </g>
</svg>
