<?xml version="1.0" encoding="UTF-8" standalone="no"?>
<!-- Created with Inkscape (http://www.inkscape.org/) -->
<svg
   xmlns:svg="http://www.w3.org/2000/svg"
   xmlns="http://www.w3.org/2000/svg"
   version="1.0"
   width="690"
   height="690"
   id="svg2648">
  <defs
     id="defs2650" />
  <g
     transform="translate(-315.342,122.9793)"
     id="layer1">
    <path
       d="M 315.342,222.02566 C 315.342,31.491012 469.80461,-122.97932 660.342,-122.97932 C 850.87939,-122.97932 1005.342,31.491012 1005.342,222.02566 C 1005.342,412.55035 850.87939,567.02068 660.342,567.02068 C 469.80461,567.02068 315.342,412.55035 315.342,222.02566 z "
       style="fill:#ee1c23;fill-rule:nonzero;stroke:none"
       id="path2664" />
    <path
       d="M 660.342,477.83044 C 801.62496,477.83044 916.16043,363.29663 916.16043,222.02566 C 916.16043,80.734776 801.62496,-33.799032 660.342,-33.799032 C 519.05904,-33.799032 404.52357,80.734776 404.52357,222.02566 C 404.52357,363.29663 519.05904,477.83044 660.342,477.83044"
       style="fill:white;fill-rule:nonzero;stroke:none"
       id="path85" />
    <path
       d="M 586.58976,220.91078 L 733.45715,220.91078 L 733.45715,74.045508 L 586.58976,74.045508 L 586.58976,220.91078 z "
       style="fill:#fff100;fill-rule:nonzero;stroke:none"
       id="path81" />
    <path
       d="M 550.31589,243.29793 L 566.90989,81.4913 C 566.90989,81.4913 567.48725,68.789654 574.38566,62.408969 C 583.45412,54.007566 599.48073,53.539716 599.48073,53.539716 L 718.5554,53.539716 C 718.5554,53.539716 734.582,54.007566 743.65047,62.408969 C 750.53892,68.789654 751.12623,81.4913 751.12623,81.4913 L 767.72024,243.29793 L 550.31589,243.29793 z M 586.58976,220.91078 L 733.45715,220.91078 L 733.45715,74.045508 L 586.58976,74.045508 L 586.58976,220.91078 z "
       style="fill:black;fill-rule:nonzero;stroke:none"
       id="path83" />
    <path
       d="M 784.07534,307.67218 L 784.07534,302.98372 C 784.07534,293.23849 776.18149,285.34476 766.43612,285.34476 L 761.26978,285.34476 C 751.52441,285.34476 743.62061,293.23849 743.62061,302.98372 L 743.62061,310.85755 L 731.48618,310.85755 L 731.48618,321.74751 L 712.19453,321.74751 L 712.19453,319.40826 L 674.51708,319.40826 C 670.824,314.09268 664.9708,310.63855 658.37103,310.63855 C 651.7613,310.63855 645.9081,314.09268 642.21502,319.40826 L 604.53757,319.40826 L 604.53757,321.74751 L 585.24592,321.74751 L 585.24592,310.85755 L 573.11149,310.85755 L 573.11149,302.98372 C 573.11149,293.23849 565.20769,285.34476 555.46232,285.34476 L 550.29598,285.34476 C 540.55061,285.34476 532.65676,293.23849 532.65676,302.98372 L 532.65676,307.67218 C 530.53647,308.83683 529.07317,311.06659 529.07317,313.65469 L 529.07317,346.64314 C 529.07317,349.23125 530.53647,351.461 532.65676,352.6157 L 532.65676,357.31411 C 532.65676,367.05934 540.55061,374.95308 550.29598,374.95308 L 555.46232,374.95308 C 565.20769,374.95308 573.11149,367.05934 573.11149,357.31411 L 573.11149,349.44029 L 585.24592,349.44029 L 585.24592,338.55032 L 604.53757,338.55032 L 604.53757,341.81532 C 604.53757,341.81532 630.98644,342.99988 644.67376,348.81317 C 644.68371,348.82312 644.68371,348.82312 644.69366,348.82312 C 644.74344,348.88285 644.80316,348.92267 644.86289,348.98239 C 645.06198,349.17152 649.50165,354.726 658.37103,354.63642 C 667.08114,354.54683 671.67012,349.17152 671.86921,348.98239 C 671.92894,348.92267 671.98866,348.88285 672.03843,348.82312 C 672.04839,348.82312 672.04839,348.82312 672.05834,348.81317 C 685.74566,342.99988 712.19453,341.81532 712.19453,341.81532 L 712.19453,338.55032 L 731.48618,338.55032 L 731.48618,349.44029 L 743.62061,349.44029 L 743.62061,357.31411 C 743.62061,367.05934 751.52441,374.95308 761.26978,374.95308 L 766.43612,374.95308 C 776.18149,374.95308 784.07534,367.05934 784.07534,357.31411 L 784.07534,352.6157 C 786.19563,351.461 787.65893,349.23125 787.65893,346.64314 L 787.65893,313.65469 C 787.65893,311.06659 786.19563,308.83683 784.07534,307.67218"
       style="fill:black;fill-rule:nonzero;stroke:none"
       id="path87" />
    <path
       d="M 531.41246,279.06361 L 786.15581,279.06361 L 786.15581,254.16799 L 531.41246,254.16799 L 531.41246,279.06361 z "
       style="fill:black;fill-rule:nonzero;stroke:none"
       id="path89" />
    <path
       d="M 586.58976,220.91078 L 733.45715,220.91078 L 733.45715,74.045508 L 586.58976,74.045508 L 586.58976,220.91078 z "
       style="fill:#f6836c;fill-rule:nonzero;stroke:none"
       id="path91" />
  </g>
</svg>
