<?xml version="1.0" encoding="UTF-8" standalone="no"?>
<!-- Created with Inkscape (http://www.inkscape.org/) -->

<svg
   version="1.0"
   width="960.00006"
   height="960"
   id="svg3482"
   sodipodi:docname="Vorschriftszeichen_6c.svg"
   inkscape:version="1.1.2 (b8e25be833, 2022-02-05)"
   xmlns:inkscape="http://www.inkscape.org/namespaces/inkscape"
   xmlns:sodipodi="http://sodipodi.sourceforge.net/DTD/sodipodi-0.dtd"
   xmlns="http://www.w3.org/2000/svg"
   xmlns:svg="http://www.w3.org/2000/svg">
  <sodipodi:namedview
     id="namedview13"
     pagecolor="#ffffff"
     bordercolor="#666666"
     borderopacity="1.0"
     inkscape:pageshadow="2"
     inkscape:pageopacity="0.0"
     inkscape:pagecheckerboard="0"
     showgrid="false"
     inkscape:snap-intersection-paths="false"
     inkscape:snap-smooth-nodes="false"
     inkscape:snap-bbox="false"
     inkscape:snap-bbox-edge-midpoints="false"
     inkscape:bbox-nodes="false"
     showguides="true"
     inkscape:guide-bbox="true"
     inkscape:snap-bbox-midpoints="false"
     inkscape:object-paths="false"
     inkscape:snap-global="true"
     inkscape:zoom="0.59514821"
     inkscape:cx="486.43346"
     inkscape:cy="462.9099"
     inkscape:window-width="1920"
     inkscape:window-height="1001"
     inkscape:window-x="-9"
     inkscape:window-y="-9"
     inkscape:window-maximized="1"
     inkscape:current-layer="layer1" />
  <defs
     id="defs3484" />
  <g
     transform="translate(-582.5339,438.6941)"
     id="layer1"
     inkscape:label="g12">
    <path
       d="m 1062.5339,-438.6941 c -265.0964,0 -480.00004,214.9045 -480.00004,480 0,265.0955 214.90364,480 480.00004,480 265.0963,0 480,-214.9045 480,-480 0,-265.0955 -214.9037,-480 -480,-480 z"
       style="fill:#ee1c23;fill-rule:nonzero;stroke:none"
       id="path3497"
       inkscape:label="path2" />
    <path
       id="path5848"
       style="fill:#ffffff;fill-opacity:1;stroke:none;stroke-width:119.988;stroke-linecap:round;stroke-opacity:1"
       d="M 832.59375,526.5293 H 127.40625 C 150.73858,703.47862 301.51907,835.7849 480,835.92188 658.48093,835.7849 809.26142,703.47862 832.59375,526.5293 Z"
       transform="translate(582.5339,-438.6941)"
       sodipodi:nodetypes="cccc"
       inkscape:label="path4" />
    <path
       d="m 1234.4859,276.3896 c -1.2783,-11.50114 -5.4199,-22.13428 -11.6709,-31.19735 l 8.5776,-12.56063 -41.6854,-28.45289 -8.8328,12.94358 c -4.6531,-0.99566 -9.4723,-1.54455 -14.4065,-1.54455 -3.4259,0 -6.7878,0.25529 -10.073,0.75312 l -2.1475,-16.91344 5.9952,-3.20399 c 10.367,1.39137 13.128,1.39137 13.128,1.39137 4.1546,-19.36432 -3.4513,-42.17513 -3.4513,-42.17513 0,0 -29.8227,-0.63825 -44.6892,33.07378 l -45.354,-19.21113 c 0.051,-0.19148 0.1279,-0.39571 0.1535,-0.56166 1.0482,-4.65917 4.1545,-8.80775 4.1545,-8.80775 6.7365,-1.04673 12.9618,2.7572 18.663,-1.39138 -1.0354,-4.14858 4.1545,-6.90579 7.7849,-5.87184 2.5948,-2.59127 -2.595,-6.73986 0,-9.33111 1.5468,-1.04672 3.234,-0.52337 3.2853,-1.04672 0.5112,-5.18255 -0.1791,-9.84173 -3.8094,-13.9903 0,0 -25.3997,-30.597404 -46.1464,11.39903 0,0 -37.8631,-4.14859 -40.4453,1.5573 0,0 3.1831,6.75263 -2.0837,6.22926 -10.3669,-1.04672 -34.74388,5.7059 -34.74388,5.7059 v 8.80776 c 0,0 25.41238,-4.65919 41.49338,-1.55732 l -0.5241,2.08068 c 0,0 -29.15782,17.52617 -36.81488,24.36814 -11.76027,10.50549 -17.05238,24.07454 -18.65025,28.83585 -2.69724,-0.53613 -5.47114,-0.82973 -8.3089,-0.82973 -32.4048,0 -60.15656,31.108 -73.29743,72.59382 -0.28122,0.88079 12.52729,-1.60837 12.56564,-0.6893 0.10222,2.10619 0.31956,4.17411 0.63914,6.21649 H 891.967 v 9.68853 h 14.17629 c 7.79759,23.24484 29.74591,39.99235 55.61862,39.99235 25.36127,0 46.95169,-16.08374 55.14539,-38.61373 h 63.8254 c 0,0 8.5262,0.4723 16.1831,-9.22901 -0.703,6.77816 -1.6234,15.17742 -2.3647,20.29614 l 19.43,-4.87617 c 9.6256,19.22389 29.5159,32.42277 52.4868,32.42277 32.392,0 58.6608,-26.25734 58.6608,-58.66735 0,-2.5785 -0.1662,-5.11872 -0.4857,-7.62063 z m -176.7497,-66.17308 c 1.2271,-7.73551 8.181,-17.36023 11.1211,-21.1514 l 24.9523,11.37351 c -17.5765,3.94433 -29.6436,7.86314 -36.1246,10.19912 0.026,-0.14041 0.026,-0.28083 0.051,-0.42123 z m -78.51283,35.71609 c 8.55178,4.05924 13.52433,8.5397 20.43983,19.59408 l -25.55301,0.12766 z m -62.24016,42.23897 c -0.12783,-1.36585 -0.20451,-2.74446 -0.20451,-4.14859 0,-1.62114 2.68441,-0.48506 2.85058,-2.06791 2.40321,-22.58105 19.00824,-39.0605 40.22795,-39.76257 l -3.86044,23.46184 h -4.56357 c -8.90967,0 -16.13205,8.53969 -16.13205,19.05795 0,1.18712 0.10223,2.33597 0.28124,3.45928 z m 44.7787,40.83481 c -17.64049,0 -32.89056,-10.14806 -40.26631,-24.92978 h 80.5326 c -7.37584,14.78172 -22.63864,24.92978 -40.26629,24.92978 z m 141.11089,-70.29613 -8.2068,0.1787 c 2.0582,-10.32679 9.3317,-32.29513 34.7569,-47.37043 l 1.4444,14.02859 c -12.5782,7.68444 -22.4723,19.31325 -27.9945,33.16314 z m 63.5951,70.29613 c -24.8501,0 -44.9832,-20.14296 -44.9832,-44.9834 0,-14.94766 7.299,-28.18484 18.5224,-36.36711 l 27.1511,48.12355 11.0572,-4.14857 -18.6631,-50.4723 -0.2045,-1.54456 c 2.3136,-0.37018 4.6914,-0.56164 7.1201,-0.56164 24.8373,0 44.9704,20.13018 44.9704,44.97063 0,24.84044 -20.1331,44.9834 -44.9704,44.9834"
       style="display:inline;fill:#000000;fill-rule:nonzero;stroke:none;stroke-width:0.921676"
       id="path182"
       inkscape:label="path6" />
    <path
       id="path8186"
       style="fill:#ffffff;fill-opacity:1;stroke:none;stroke-width:119.988;stroke-linecap:round;stroke-opacity:1"
       d="M 480,124.07812 C 301.51907,124.2151 150.73858,256.52138 127.40625,433.4707 H 832.77148 C 809.43027,256.45437 658.54857,124.12599 480,124.07812 Z"
       transform="translate(582.5339,-438.6941)"
       sodipodi:nodetypes="cccc"
       inkscape:label="path8" />
    <path
       id="path3558-4"
       style="fill:#000000;fill-rule:nonzero;stroke:none;stroke-width:0.970587;stroke-opacity:1"
       d="m 1000.0831,-284.91938 c -32.30724,0 -58.58411,26.28038 -58.58411,58.5821 v 77.97868 c -5.22291,1.10226 -11.22602,0.92695 -16.30091,5.06714 -6.85176,5.56511 -8.5078,21.1861 -8.5078,21.1861 v 25.781197 h 22.31969 v 12.932322 h -1.54876 c -2.63835,0 -4.76574,2.136888 -4.76574,4.758133 0,2.634689 2.12739,4.771422 4.76574,4.771422 h 1.54876 v 24.505422 c 0,7.971256 6.46059,14.437467 14.44317,14.437478 7.96909,-1.1e-5 14.44317,-6.466234 14.44317,-14.437478 v -24.505422 h 189.81799 v 24.505422 c 0,7.971256 6.4741,14.437467 14.4431,14.437478 7.9826,0 14.4432,-6.466234 14.4432,-14.437478 v -24.505422 h 1.5489 c 2.6383,0 4.7656,-2.136733 4.7656,-4.771422 0,-2.621245 -2.1273,-4.758133 -4.7656,-4.758133 h -1.5489 v -12.932322 h 22.3198 v -25.781197 c 0,0 -1.6561,-15.62098 -8.508,-21.1861 -5.0749,-4.1402 -11.0779,-3.96488 -16.3009,-5.06714 v -77.97868 c 0,-32.30173 -26.2769,-58.5821 -58.584,-58.5821 z m 0,28.5925 h 125.4444 c 8.0096,0 15.5475,3.1178 21.2147,8.77698 5.6538,5.67263 8.7769,13.20106 8.7769,21.21262 v 47.69334 c -4.2269,-2.11042 -8.9653,-3.32122 -13.9863,-3.32122 -8.4267,0 -16.3414,3.28083 -22.2913,9.23573 -1.198,1.19638 -2.2627,2.50021 -3.2454,3.84445 v -20.70082 l -47.8278,-24.5585 v -7.20545 h -10.7259 v 7.20545 l -47.8279,24.5585 v 20.70082 c -0.9827,-1.34424 -2.0474,-2.64807 -3.2453,-3.84445 -5.95,-5.9549 -13.8647,-9.23573 -22.2914,-9.23573 -5.02104,0 -9.75949,1.2108 -13.9863,3.32122 v -47.69334 c 0,-8.01156 3.12321,-15.53999 8.77698,-21.21262 5.66716,-5.65918 13.20513,-8.77698 21.21462,-8.77698 z m -15.99962,82.53588 c 12.89548,-1.3e-4 23.34912,10.45366 23.34902,23.34905 10e-5,12.8954 -10.45354,23.34919 -23.34902,23.34905 -12.89462,-9.5e-4 -23.34724,-10.45442 -23.34714,-23.34905 -8e-5,-12.89462 10.45252,-23.34809 23.34714,-23.34905 z m 157.44362,0 c 12.8945,9.7e-4 23.3473,10.45444 23.3472,23.34905 10e-5,12.89462 -10.4527,23.34809 -23.3472,23.34905 -12.8954,8e-5 -23.3491,-10.45369 -23.349,-23.34905 -10e-5,-12.89536 10.4536,-23.34912 23.349,-23.34905 z m -131.9126,41.79209 v 26.01059 c -3.5268,-4.23431 -8.2794,-9.74664 -13.54277,-15.28485 3.80945,-1.57274 7.29547,-3.88368 10.29747,-6.88129 1.1979,-1.19637 2.2626,-2.50023 3.2453,-3.84445 z m 106.3816,0 c 0.9827,1.34422 2.0474,2.64808 3.2454,3.84445 3.0019,2.99761 6.4879,5.30855 10.2973,6.88129 -5.2633,5.53821 -10.0158,11.05054 -13.5427,15.28485 z m -89.4476,31.80378 h 72.5136 v 17.017489 h -72.5136 z m -58.65219,3.870967 h 34.23219 l 7.486,8.039566 v 4.851033 l -41.71819,0.04178 z m 155.58589,0 h 34.2321 v 12.932322 l -41.7182,-0.04178 v -4.851056 z"
       inkscape:label="path10" />
  </g>
</svg>
