<?xml version="1.0" encoding="UTF-8" standalone="no"?>
<!-- Created with Inkscape (http://www.inkscape.org/) -->
<svg
   xmlns:svg="http://www.w3.org/2000/svg"
   xmlns="http://www.w3.org/2000/svg"
   version="1.0"
   width="960"
   height="960"
   id="svg10794">
  <defs
     id="defs10796" />
  <g
     transform="translate(-636.7706,550.1227)"
     id="layer1">
    <path
       d="M 636.77057,-70.12267 C 636.77057,-335.21817 851.67507,-550.12267 1116.7706,-550.12267 C 1381.8661,-550.12267 1596.7706,-335.21817 1596.7706,-70.12267 C 1596.7706,194.97283 1381.8661,409.87733 1116.7706,409.87733 C 851.67507,409.87733 636.77057,194.97283 636.77057,-70.12267"
       style="fill:#176fc1;fill-rule:nonzero;stroke:none"
       id="path10494" />
    <path
       d="M 1259.0477,-139.62004 L 1258.9923,-139.5785 C 1254.9759,-141.62824 1250.4471,-142.80546 1245.6274,-142.80546 C 1229.3956,-142.80546 1216.2385,-129.64832 1216.2385,-113.43042 C 1216.2385,-109.52483 1217.0141,-105.82698 1218.3852,-102.41998 L 1237.7193,-42.423437 L 1155.3002,-42.423437 C 1122.8367,-42.561934 1084.1547,-29.598693 1047.5086,-7.1069161 L 1047.5086,-175.6429 L 1107.4913,-156.30883 C 1110.8983,-154.93772 1114.61,-154.16214 1118.5018,-154.16214 C 1134.7335,-154.16214 1147.8907,-167.31928 1147.8907,-183.55103 C 1147.8907,-188.37069 1146.6996,-192.89952 1144.6498,-196.91591 L 1144.6914,-196.97131 L 981.69526,-476.20727 L 818.69913,-196.97131 L 818.74068,-196.91591 C 816.69093,-192.89952 815.49987,-188.37069 815.49987,-183.55103 C 815.49987,-167.31928 828.657,-154.16214 844.88875,-154.16214 C 848.79435,-154.16214 852.49219,-154.93772 855.8992,-156.30883 L 915.89574,-175.6429 L 915.89574,298.73416 L 1047.5086,298.73416 L 1047.5086,189.14215 C 1052.5084,133.27279 1110.1782,89.189466 1154.8709,89.189466 L 1237.7193,89.189466 L 1218.3852,149.186 C 1217.0141,152.57916 1216.2385,156.29086 1216.2385,160.1826 C 1216.2385,176.41435 1229.3956,189.57148 1245.6274,189.57148 C 1250.4471,189.57148 1254.9759,188.39427 1258.9923,186.33067 L 1259.0477,186.37222 L 1538.2836,23.376089 L 1259.0477,-139.62004"
       style="fill:white;fill-rule:nonzero;stroke:none"
       id="path10496" />
  </g>
</svg>
