<?xml version="1.0" encoding="utf-8"?>
<!-- Generator: Adobe Illustrator 15.0.0, SVG Export Plug-In . SVG Version: 6.00 Build 0)  -->
<!DOCTYPE svg PUBLIC "-//W3C//DTD SVG 1.1//EN" "http://www.w3.org/Graphics/SVG/1.1/DTD/svg11.dtd">
<svg version="1.1" id="svg3621" xmlns:svg="http://www.w3.org/2000/svg"
	 xmlns="http://www.w3.org/2000/svg" xmlns:xlink="http://www.w3.org/1999/xlink" x="0px" y="0px" width="960px" height="960px"
	 viewBox="0 0 960 960" enable-background="new 0 0 960 960" xml:space="preserve">
<path fill-rule="evenodd" clip-rule="evenodd" fill="#EC1C24" d="M481.562,3.134C745.756,3.134,960,217.38,960,481.562
	C960,745.768,745.756,960,481.562,960C217.38,960,3.134,745.768,3.134,481.562C3.134,217.38,217.38,3.134,481.562,3.134"/>
<path fill-rule="evenodd" clip-rule="evenodd" fill="#FFFFFF" d="M481.562,125.275c-196.708,0-356.286,159.591-356.286,356.287
	c0,196.72,159.577,356.284,356.286,356.284c196.708,0,356.298-159.564,356.298-356.284
	C837.859,284.866,678.27,125.275,481.562,125.275"/>
<path fill-rule="evenodd" clip-rule="evenodd" fill="#231F20" d="M383.787,717.206l-5.354,11.366
	c-1.581,3.218-3.243,6.382-4.945,9.469c-1.159,2.108-2.359,4.192-3.572,6.211c-3.811-0.672-7.568-1.504-11.262-2.48
	c-4.442-1.094-8.86-2.373-13.199-3.85l1.861-7.451l-20.267,2.151c-7.807-3.18-15.337-6.95-22.576-11.21
	c-6.328-3.678-12.394-7.753-18.196-12.236l5.947-8.254c2.375,1.162,4.866,2.07,7.464,2.677c2.293,0.607,4.682,0.988,7.095,1.056
	c2.702,0.145,5.392-0.343,8.096-0.634c4.127-0.422,8.253-1.134,12.394-1.741c3.311-0.302,6.659-0.724,10.021-1.251
	c3.205-0.436,6.447-1.004,9.639-1.648l-5.721-5.354c2.187-5.155,4.442-10.313,6.855-15.441c4.298-8.03,8.4-16.166,12.355-24.42
	c2.043-4.26,4.035-8.597,5.999-12.936c4.141-9.165,7.663-18.618,11.025-28.099c2.043-5.737,4.758-11.235,7.133-16.893
	c2.334-5.458,4.932-10.812,7.016-16.415c1.094-3.061,2.016-6.186,3.112-9.323c2.122-6.093,4.151-12.235,6.646-18.224
	c2.742-6.751,6.026-13.318,9.269-19.858c5.419-10.786,11.143-21.4,17.247-31.844c3.852-6.605,7.807-13.106,11.907-19.595
	l0.065-0.302l-6.012-40.509c-2.955-16.586-5.169-33.308-6.711-50.106c-0.593-6.341-1.094-12.712-1.477-19.105l0.145-0.16
	c-1.306,1.504-2.623,2.94-3.942,4.339c-2.492,2.598-5.169,5.011-7.767,7.451c-2.558,2.427-5.128,4.785-7.715,7.095
	c-3.665,3.283-7.422,6.328-11.129,9.494l-9.783,8.371c-2.334,1.953-4.682,3.958-7.016,5.83c-3.507,2.821-7.081,5.433-10.628,8.096
	c-2.557,1.899-5.09,3.811-7.527,5.775c-1.926,1.542-3.812,3.047-5.658,4.603l-7.041-3.033l-17.38,10.337l3.283,6.738
	c-2.334,2.519-5.049,4.641-8.017,6.224c-3.468,1.847-7.198,3.284-11.129,3.39c-2.927,0.104-5.868-0.106-8.544-1.333
	c-1.912-0.816-3.572-2.163-5.117-3.534c-2.082-1.727-4.337-3.428-5.365-5.987c-0.753-1.766-0.924-3.691-0.856-5.604
	c0.038-2.794,0.71-5.577,2.293-7.924c1.662-2.492,4.524-3.691,6.975-5.313c4.219-2.756,8.849-4.774,13.569-6.673
	c3.229-1.279,6.855-1.7,9.981-3.428c0.593-0.329,1.306-0.528,1.847-1.094c0.686-0.713,0.975-1.662,1.042-2.666l0.196-3.52
	l49.026-39.44l4.733-9.796c3.099-6.382,6.04-12.818,9.35-19.107c3.469-6.592,7.239-13.066,11.037-19.514
	c3.85-6.528,7.095-13.49,11.945-19.372c3.125-3.811,6.594-7.345,10.405-10.509c3.771-2.796,7.647-5.432,11.643-7.951
	c1.872-1.173,3.771-2.307,5.723-3.428l-1.2-5.209c-0.832,0.199-1.662,0.264-2.453,0.305c-0.909,0.079-1.807,0.185-2.636-0.041
	c-0.634-0.145-1.241-0.381-1.728-0.792c-0.528-0.408-0.846-1.015-1.175-1.581c-0.765-1.624-1.478-3.245-2.109-4.932
	c-0.949-2.295-1.727-4.668-2.44-7.094l-7.965,0.911l1.477-15.337l-3.613-1.621l0.185-8.438l-15.19,0.079l14.505-14.926
	c0.343-3.798,0.871-7.609,1.622-11.42c0.527-2.188,1.015-4.404,1.504-6.632c0.724-3.572,1.357-7.146,1.924-10.811
	c6.711-1.24,13.49-2.032,20.307-2.415c4.075-0.158,8.175-0.183,12.329-0.158c5.459,0.133,10.958,0.383,16.456,0.871l1.847,6.567
	l1.358,5.802l2.375,7.081l10.1,0.223c0.487,2.269,0.896,4.483,1.2,6.752c0.236,1.833,0.381,3.653,0.501,5.459l-9.008,3.243
	c0.106,2.834,0.066,5.604-0.078,8.414c-0.065,1.08,0.145,2.161-0.264,3.15c-0.487,0.713-0.977,1.371-1.557,1.964
	c-0.514,0.568-1.08,1.042-1.648,1.463l3.27,21.969c5.816,2.492,11.725,4.627,17.789,6.486c5.051,1.583,10.245,2.704,15.375,4.037
	c2.94,0.871,5.987,1.344,8.847,2.53c1.809,0.778,3.588,1.635,5.288,2.704c1.991,1.319,3.691,2.981,5.498,4.51
	c2.492,2.228,4.644,4.839,7.228,6.948c1.66,1.384,3.428,2.625,5.169,3.956c2.307,1.727,4.682,3.351,6.935,5.117
	c8.479,8.333,16.76,16.852,24.869,25.555c7.305,7.938,14.464,16.047,21.467,24.301c0.146,1.438,0.317,2.861,0.421,4.26
	c0.251,4.179-0.274,8.398-0.274,12.5c-0.027,5.049,0.236,10.101,0.381,15.111c0.119,5.024,0.343,9.995,0.422,14.965
	c0,3.284-0.186,6.554,0,9.799l2.097,16.126l1.583,10.958l-6.963,2.334c1.384,4.127,2.48,8.268,3.283,12.473
	c0.674,3.771,1.728,7.516,1.346,11.314c-0.329,2.94-1.452,5.696-2.439,8.452c-1.662,4.483-3.283,9.007-6.251,12.726
	c-2.571,3.164-5.512,6.026-9.111,7.832c-1.792,0.909-3.481,2.571-5.552,2.043c-1.317-0.302-2.451-1.055-3.164-2.189
	c-0.908-1.316-0.713-2.938-0.606-4.483c0.119-1.659,0.99-3.136,1.478-4.747c0.473-1.739,1.172-3.441,1.463-5.272
	c0.487-1.926,0.566-3.958,0.145-5.908c-0.367-1.594-1.001-3.139-1.912-4.497c0.383,2.796-0.646,5.552-2.675,7.385
	c-0.753,0.686-1.385,1.885-2.48,1.556c-0.713-0.199-1.066-0.871-1.409-1.477c-0.963-1.518-0.291-3.349-0.291-5.09
	c-0.079-2.783,0-5.579,0.448-8.36c0.449-2.862,1.502-5.658,2.267-8.479c1.004-2.677,1.728-5.512,2.189-8.374
	c0.37-2.717,0.515-5.459,0.395-8.215l-8.359-1.501c0.384-5.433,0.634-10.893,0.767-16.39c0.145-8.362-0.04-16.774-0.66-25.174
	c-0.737-9.981-2.017-19.897-3.863-29.774c-4.788-3.308-9.692-6.447-14.703-9.375c-5.762-3.322-11.644-6.368-17.628-9.165
	l-1.741,59.404l29.206,85.221l-7.277,4.075c1.134,7.345,2.451,14.648,3.955,21.929c1.662,8.068,3.586,16.02,5.656,23.931
	c1.702,6.711,3.495,13.411,5.538,20.003c1.173,3.877,2.269,7.767,3.732,11.539c1.094,2.928,2.334,5.787,3.651,8.624
	c2.151,4.826,4.629,9.453,7.162,14.056c3.571,6.633,7.462,13.12,11.615,19.41c4.878,7.527,10.207,14.807,15.85,21.769l9.045,12.592
	c3.574,5.658,7.279,11.263,11.036,16.814c4.075,6.051,8.178,12.052,12.448,17.971l-6.039,6.516l-6.632,7.119
	c1.437,2.296,2.717,4.709,3.85,7.16l2.823,8.096l4.284,11.868l-7.636,11.907l-7.66-1.912c-1.08,4.206-2.438,8.359-4.021,12.394
	c-1.74,4.339-3.759,8.479-6.079,12.476c-2.359,0.408-4.693,0.71-7.027,0.975c-5.236,0.606-10.522,0.938-15.759,0.976l-20.463,0.158
	l0.079-8.676c1.135-0.144,2.267-0.329,3.401-0.567c2.36-0.368,4.733-0.961,7.028-1.807c1.807-0.632,3.6-1.423,5.327-2.359
	l13.859-35.154l-10.101,0.329c-1.319-2.438-2.625-4.864-3.996-7.277c-2.56-4.404-5.459-8.585-8.058-12.962
	c-1.515-2.479-2.899-5.076-4.403-7.568c-1.886-2.981-4.035-5.737-5.882-8.743c-2.451-4.442-4.904-8.9-7.41-13.292
	c-2.992-5.103-5.999-10.152-9.097-15.19l-7.952-11.92l-1.991-3.534l-4.866-8.438c-1.924-3.39-3.877-6.776-5.762-10.245
	c-3.243-5.895-6.211-11.961-9.375-17.907c-5.617-10.311-11.947-20.227-17.445-30.591l-11.156-21.967l-5.233-10.59
	c-4.443,6.186-8.782,12.355-13.042,18.62c-6.21,9.149-12.593,18.156-18.118,27.69c-4.298,7.343-8.294,14.808-11.88,22.454
	c-3.112,6.896-6.012,13.833-8.729,20.835c-1.662,4.258-3.243,8.559-4.72,12.856l-5.525,12.435c-0.911,2.479-1.86,4.905-2.821,7.305
	c-1.98,4.787-4.497,9.336-6.382,14.135c-1.809,4.549-3.152,9.191-4.747,13.792l-4.301,13.003c-2.517,6.776-4.733,13.673-6.67,20.596
	c-1.003,3.627-1.953,7.212-2.77,10.825c-2.426-0.343-4.799-0.79-7.133-1.437C388.231,718.828,385.977,718.077,383.787,717.206"/>
</svg>
