<?xml version="1.0" encoding="UTF-8" standalone="no"?>
<!-- Created with Inkscape (http://www.inkscape.org/) -->
<svg
   xmlns:svg="http://www.w3.org/2000/svg"
   xmlns="http://www.w3.org/2000/svg"
   version="1.0"
   width="960.00006"
   height="1200"
   id="svg3895">
  <defs
     id="defs3897" />
  <g
     transform="translate(-622.3579,315.4185)"
     id="layer1">
    <path
       d="M 1532.8192,884.58147 C 1546.0526,884.58147 1558.4993,879.76908 1567.8551,871.02164 C 1577.2108,862.28709 1582.3579,850.66254 1582.3579,838.30258 L 1582.3579,-269.13964 C 1582.3579,-281.4996 1577.2108,-293.12415 1567.8551,-301.8587 C 1558.4993,-310.60614 1546.0526,-315.41853 1532.8192,-315.41853 L 671.91026,-315.41853 C 644.58813,-315.41853 622.35786,-294.65947 622.35786,-269.13964 L 622.35786,838.30258 C 622.35786,850.66254 627.51871,862.28709 636.87447,871.02164 C 646.23021,879.76908 658.67696,884.58147 671.91026,884.58147 L 1532.8192,884.58147 z "
       style="fill:black;fill-rule:nonzero;stroke:none"
       id="path3921" />
    <path
       d="M 671.91026,874.2729 C 661.61615,874.2729 651.95682,870.53137 644.68472,863.7321 C 637.41262,856.93283 633.4109,847.90154 633.4109,838.30258 L 633.4109,-269.13964 C 633.4109,-278.7386 637.41262,-287.76989 644.68472,-294.56916 C 651.95682,-301.36843 661.61615,-305.10996 671.91026,-305.10996 L 1532.8192,-305.10996 C 1543.0996,-305.10996 1552.7727,-301.36843 1560.0448,-294.56916 C 1567.3169,-287.76989 1571.3185,-278.7386 1571.3185,-269.13964 L 1571.3185,838.30258 C 1571.3185,858.1327 1554.0559,874.2729 1532.8192,874.2729 L 671.91026,874.2729"
       style="fill:white;fill-rule:nonzero;stroke:none"
       id="path271" />
    <path
       d="M 1100.2742,-194.5412 C 888.98311,-194.5412 717.6817,-34.493898 717.6817,162.93003 C 717.6817,360.35397 888.98311,520.40127 1100.2742,520.40127 C 1311.579,520.40127 1482.8804,360.35397 1482.8804,162.93003 C 1482.8804,-34.493898 1311.579,-194.5412 1100.2742,-194.5412"
       style="fill:#ee1c23;fill-rule:nonzero;stroke:none"
       id="path273" />
    <path
       d="M 816.5795,162.93003 C 816.5795,101.50438 838.94776,44.968525 876.48118,0.031421618 L 1274.6252,372.03013 C 1226.5217,407.09733 1166.0129,427.98541 1100.2742,427.98541 C 943.59977,427.98541 816.5795,309.31429 816.5795,162.93003"
       style="fill:#176fc1;fill-rule:nonzero;stroke:none"
       id="path275" />
    <path
       d="M 1324.081,325.82865 L 925.93697,-46.170062 C 974.04047,-81.237259 1034.5493,-102.13824 1100.2742,-102.13824 C 1256.9624,-102.13824 1383.9827,16.532873 1383.9827,162.93003 C 1383.9827,224.34279 1361.6144,280.87864 1324.081,325.82865"
       style="fill:#176fc1;fill-rule:nonzero;stroke:none"
       id="path277" />
    <path
       d="M 1076.1396,734.80403 L 1075.7947,734.80403 C 1071.1305,740.77758 1067.322,743.17732 1058.8632,743.17732 C 1050.7356,743.17732 1039.8481,739.47449 1039.8481,721.38611 C 1039.8481,702.65265 1045.3677,692.40859 1067.6256,691.18291 C 1070.0405,691.05389 1072.5105,690.97648 1076.1396,691.14421 L 1076.1396,685.54481 C 1076.1396,680.04862 1073.8904,675.85553 1067.322,675.85553 C 1062.8374,675.85553 1058.3389,678.75844 1057.304,684.0869 L 1040.1931,684.0869 C 1040.7037,676.82316 1043.4773,670.68189 1048.1413,666.32107 C 1052.8055,661.96025 1059.3738,659.37988 1067.322,659.37988 C 1082.0181,659.37988 1093.7611,668.10152 1093.7611,685.22226 L 1093.7611,742.20968 L 1076.1396,742.20968 L 1076.1396,734.80403 z M 1076.1396,704.05895 C 1074.2354,703.7364 1072.7313,704.07185 1071.1719,704.22667 C 1063.5411,704.96207 1057.4695,709.43901 1057.4695,718.16066 C 1057.4695,724.45675 1060.9331,728.64985 1066.632,728.64985 C 1072.5105,728.64985 1076.1396,724.7793 1076.1396,718.16066 L 1076.1396,704.05895"
       style="fill:black;fill-rule:nonzero;stroke:none"
       id="path279" />
    <path
       d="M 1476.0775,708.16173 L 1476.0775,718.18646 C 1476.0775,723.34719 1479.3617,726.25011 1484.7157,726.25011 C 1491.4635,726.25011 1493.0227,722.6892 1493.3678,719.14119 L 1510.9891,719.14119 C 1510.9891,725.91466 1508.3949,731.1012 1503.8964,735.46202 C 1499.2324,739.97766 1492.8433,742.72576 1484.7157,742.72576 C 1474.0077,742.72576 1465.8801,738.04239 1461.7403,730.93348 C 1459.3117,726.74038 1458.4561,720.92165 1458.4561,714.30301 L 1458.4561,687.33816 C 1458.4561,680.71952 1459.3117,674.91369 1461.7403,670.70769 C 1465.8801,663.61168 1474.0077,658.92831 1484.7157,658.92831 C 1500.971,658.92831 1510.9891,670.0626 1510.9891,684.43525 L 1510.9891,708.16173 L 1476.0775,708.16173 z M 1476.0775,694.12453 L 1493.3678,694.12453 L 1493.3678,684.7578 C 1493.3678,678.61652 1490.0836,675.39106 1484.7157,675.39106 C 1479.3617,675.39106 1476.0775,678.61652 1476.0775,684.7578 L 1476.0775,694.12453"
       style="fill:black;fill-rule:nonzero;stroke:none"
       id="path281" />
    <path
       d="M 1171.3117,627.2543 L 1188.9469,627.2543 L 1188.9469,696.0469 L 1189.2919,696.0469 L 1210.5424,660.36042 L 1228.1776,660.36042 L 1207.272,693.62136 L 1232.4967,742.22258 L 1213.316,742.22258 L 1197.4195,706.85864 L 1188.9469,719.29602 L 1188.9469,742.22258 L 1171.3117,742.22258 L 1171.3117,627.2543"
       style="fill:black;fill-rule:nonzero;stroke:none"
       id="path283" />
    <path
       d="M 1385.9007,659.74113 L 1403.5221,659.74113 L 1403.5221,663.7536 L 1403.8671,663.7536 C 1409.98,658.05099 1409.9249,658.05099 1418.0525,658.05099 C 1426.8701,658.05099 1438.6132,664.10195 1438.6132,678.79715 L 1438.6132,741.6033 L 1420.978,741.6033 L 1420.978,684.93842 C 1420.978,678.95197 1417.8731,675.24914 1412.3397,675.24914 C 1405.7713,675.24914 1403.5221,679.27451 1403.5221,686.55115 L 1403.5221,741.6033 L 1385.9007,741.6033 L 1385.9007,659.74113"
       style="fill:black;fill-rule:nonzero;stroke:none"
       id="path285" />
    <path
       d="M 1314.2974,687.71232 C 1314.2974,681.09367 1315.153,675.27494 1317.5816,671.08185 C 1321.7213,663.97293 1330.4424,659.28957 1341.1642,659.28957 C 1351.8723,659.28957 1360.5933,663.97293 1364.7467,671.06894 C 1367.1616,675.27494 1368.0309,681.08077 1368.0309,687.69941 L 1368.0309,714.67716 C 1368.0309,721.2958 1367.1616,727.10163 1364.7467,731.30763 C 1360.5933,738.40364 1351.8723,743.08701 1341.1642,743.08701 C 1330.4424,743.08701 1321.7213,738.40364 1317.5816,731.30763 C 1315.153,727.10163 1314.2974,721.2958 1314.2974,714.67716 L 1314.2974,687.71232 z M 1331.9189,717.25753 C 1331.9189,723.3859 1335.7964,726.62426 1341.1642,726.62426 C 1346.5182,726.62426 1350.3957,723.3859 1350.3957,717.25753 L 1350.3957,685.11905 C 1350.3957,678.99067 1346.5182,675.75231 1341.1642,675.75231 C 1335.7964,675.75231 1331.9189,678.99067 1331.9189,685.11905 L 1331.9189,717.25753"
       style="fill:black;fill-rule:nonzero;stroke:none"
       id="path287" />
    <path
       d="M 968.74163,660.2443 L 986.37682,660.2443 L 986.37682,665.44374 C 990.86151,660.76038 994.32507,659.27666 1003.1427,659.27666 C 1010.2216,659.27666 1015.41,661.68931 1018.5148,667.01777 C 1020.5985,670.57867 1021.454,675.58459 1021.454,684.62878 L 1021.454,715.78672 C 1021.454,727.579 1020.9434,732.26236 1018.6942,735.64265 C 1015.755,740.00347 1009.4626,742.89348 1000.99,742.89348 C 994.07669,742.89348 990.53033,743.35795 986.72179,738.02949 L 986.37682,738.02949 L 986.37682,775.21258 L 968.74163,775.21258 L 968.74163,660.2443 z M 1003.8326,686.8866 C 1003.8326,680.26796 1001.2384,675.73941 995.19442,675.73941 C 989.82658,675.73941 986.37682,679.94541 986.37682,685.91896 L 986.37682,717.72199 C 986.37682,722.89563 990.18536,726.61136 995.19442,726.61136 C 1001.9283,726.61136 1003.8326,722.08281 1003.8326,716.92208 L 1003.8326,686.8866"
       style="fill:black;fill-rule:nonzero;stroke:none"
       id="path289" />
    <path
       d="M 843.05987,660.28301 L 860.69506,660.28301 L 860.68126,663.41815 C 867.93957,657.4446 873.83176,659.31537 884.02926,659.31537 L 884.02926,676.74575 C 882.29057,676.10066 880.5657,675.77812 878.66143,675.77812 C 871.23754,675.77812 860.68126,674.55244 860.68126,687.95745 L 860.69506,742.14517 L 843.05987,742.14517 L 843.05987,660.28301"
       style="fill:black;fill-rule:nonzero;stroke:none"
       id="path291" />
    <path
       d="M 819.80847,742.13227 L 802.17329,742.13227 L 802.18708,737.01024 L 801.84211,737.01024 C 797.95078,741.16463 796.84686,742.51933 788.73302,742.51933 C 782.27505,742.51933 766.99951,735.38461 767.08231,718.61222 L 767.0961,660.2572 L 784.7175,660.2572 L 784.7175,716.93498 C 784.7175,722.90853 787.83608,726.62426 793.3557,726.62426 C 799.92404,726.62426 802.17329,722.58599 802.17329,715.32225 L 802.17329,660.2572 L 819.80847,660.2572 L 819.80847,742.13227"
       style="fill:black;fill-rule:nonzero;stroke:none"
       id="path293" />
    <path
       d="M 896.84857,728.05637 L 928.35181,674.91369 L 899.69118,674.91369 L 899.69118,660.38622 L 948.40183,660.37332 L 948.40183,673.45578 L 916.89859,725.63082 L 948.38803,725.63082 L 948.40183,742.24839 L 896.84857,742.24839 L 896.84857,728.05637"
       style="fill:black;fill-rule:nonzero;stroke:none"
       id="path295" />
    <path
       d="M 688.48291,626.63501 L 706.1181,626.63501 L 706.1181,679.10679 L 706.46308,679.10679 L 732.21211,626.63501 L 749.84729,626.63501 L 725.82314,672.64297 L 754.33198,741.59039 L 735.67566,741.59039 L 715.62564,690.57652 L 706.1181,707.20699 L 706.1181,741.59039 L 688.48291,741.59039 L 688.48291,626.63501"
       style="fill:black;fill-rule:nonzero;stroke:none"
       id="path297" />
    <path
       d="M 1113.1487,659.89595 L 1130.7701,659.89595 L 1130.7701,663.0311 C 1138.0146,657.05755 1143.9068,658.91541 1154.1042,658.91541 L 1154.1042,676.3587 C 1152.3793,675.71361 1150.6545,675.39106 1148.7502,675.39106 C 1141.3126,675.39106 1130.7701,674.16539 1130.7701,687.5704 L 1130.7701,741.75812 L 1113.1487,741.75812 L 1113.1487,659.89595"
       style="fill:black;fill-rule:nonzero;stroke:none"
       id="path299" />
    <path
       d="M 1245.7714,728.01766 L 1277.2746,674.87499 L 1248.614,674.88789 L 1248.614,660.34752 L 1297.3246,660.34752 L 1297.3246,673.42998 L 1265.8214,725.60502 L 1297.3246,725.59211 L 1297.3246,742.20968 L 1245.7714,742.22258 L 1245.7714,728.01766"
       style="fill:black;fill-rule:nonzero;stroke:none"
       id="path301" />
  </g>
</svg>
