<?xml version="1.0" encoding="utf-8"?>
<!-- Generator: Adobe Illustrator 15.0.0, SVG Export Plug-In . SVG Version: 6.00 Build 0)  -->
<!DOCTYPE svg PUBLIC "-//W3C//DTD SVG 1.1//EN" "http://www.w3.org/Graphics/SVG/1.1/DTD/svg11.dtd">
<svg version="1.1" id="svg3621" xmlns:svg="http://www.w3.org/2000/svg"
	 xmlns="http://www.w3.org/2000/svg" xmlns:xlink="http://www.w3.org/1999/xlink" x="0px" y="0px" width="960px" height="960px"
	 viewBox="0 0 960 960" enable-background="new 0 0 960 960" xml:space="preserve">
<path fill-rule="evenodd" clip-rule="evenodd" fill="#EC1C24" d="M482.816,6.633C745.779,6.633,959,219.867,959,482.83
	C959,745.764,745.779,959,482.816,959C219.869,959,6.633,745.764,6.633,482.83C6.633,219.867,219.869,6.633,482.816,6.633"/>
<path fill-rule="evenodd" clip-rule="evenodd" fill="#FFFFFF" d="M482.816,128.199c-195.781,0-354.617,158.836-354.617,354.631
	c0,195.768,158.836,354.604,354.617,354.604c195.781,0,354.619-158.836,354.619-354.604
	C837.436,287.036,678.598,128.199,482.816,128.199"/>
<path fill-rule="evenodd" clip-rule="evenodd" fill="#231F20" d="M679.293,492.634v116.474c0,15.434,3.739,27.848,11.261,37.573
	c7.164,10.183,19.199,15.026,35.355,15.026c6.379,0,13.123-0.761,19.516-2.258c6.377-1.497,12.401-3.701,18.779-6.325l-9.356-27.454
	c-4.896,1.862-8.662,3.357-12.063,3.777c-3.385,0.709-6.365,1.117-9.368,1.117c-5.658,0-9.766-1.902-12.035-6.023
	c-2.626-4.161-3.755-9.777-3.755-16.931V492.634h40.566v-30.04h-40.566v-41.342h-38.334v41.342h-23.688l-3.333,30.04H679.293z
	 M546.652,425.741h74.423v-30.788H509.432v132.628h27.796c7.573-2.979,13.952-4.514,18.847-4.514
	c10.853,0,19.148,3.739,25.524,11.68c6.379,7.86,9.411,21.393,9.411,41.313c0,9.79-1.129,18.021-3.032,24.411
	c-1.85,6.785-4.882,12.035-8.228,16.143c-3.398,4.173-7.508,6.799-12.403,8.293c-4.896,1.903-10.552,2.626-16.167,2.626
	c-5.656,0-12.403-1.129-19.923-2.991c-7.927-1.903-14.304-4.517-19.188-7.14l-11.641,28.925c2.271,1.483,5.264,3.032,9.423,4.514
	c3.753,1.865,7.873,3.359,12.771,4.488c4.893,1.535,9.763,2.624,15.379,3.701c5.25,1.129,10.552,1.549,15.814,1.549
	c9.764,0,19.135-1.549,28.557-4.476c9.003-2.979,17.231-7.873,24.385-15.04c7.166-6.731,12.769-15.788,16.943-26.653
	c4.121-10.906,6.379-24.804,6.379-40.974c0-25.172-5.658-44.726-16.93-59.03c-11.261-14.252-27.022-21.419-47.353-21.419
	c-2.979,0-5.957,0.422-9.368,0.788c-3.401,0.354-6.799,1.129-9.777,1.838V425.741z M423.497,636.535
	c0,6.799,1.497,11.694,4.884,15.041c2.978,3.384,5.248,5.287,7.151,6.376l-17.705,51.054h24.451l25.524-51.054
	c2.678-4.828,4.175-9.016,4.896-12.362c0.761-3.385,1.129-6.431,1.129-9.055c0-7.088-2.258-13.123-7.099-18.005
	c-4.896-4.896-10.906-7.153-18.073-7.153c-7.151,0-13.124,2.258-18.005,7.153C425.754,623.412,423.497,629.447,423.497,636.535z
	 M299.149,318.571h108.744v-45.027H244.751v193.877h40.644c11.025-4.435,20.342-6.601,27.481-6.601
	c15.92,0,28.007,5.461,37.324,16.995c9.371,11.575,13.728,31.34,13.728,60.422c0,14.305-1.627,26.353-4.356,35.724
	c-2.781,9.883-7.153,17.534-12.1,23.623c-4.947,6.011-10.958,9.869-18.111,12.035c-7.153,2.781-15.395,3.87-23.624,3.87
	c-8.242,0-18.122-1.652-29.134-4.382c-11.537-2.783-20.854-6.59-27.993-10.448l-17.047,42.312c3.292,2.166,7.73,4.356,13.752,6.587
	c5.512,2.732,11.523,4.937,18.676,6.59c7.151,2.153,14.253,3.805,22.495,5.445c7.716,1.654,15.393,2.166,23.109,2.166
	c14.252,0,28.007-2.166,41.734-6.536c13.191-4.383,25.224-11.522,35.672-21.982c10.446-9.883,18.674-23.058,24.712-38.964
	c6.063-15.945,9.369-36.273,9.369-59.843c0-36.801-8.242-65.372-24.712-86.277c-16.47-20.84-39.58-31.275-69.227-31.275
	c-4.37,0-8.805,0.566-13.741,1.064c-4.947,0.577-9.883,1.652-14.252,2.781V318.571z"/>
</svg>
