<?xml version="1.0" encoding="UTF-8" standalone="no"?>
<!-- Created with Inkscape (http://www.inkscape.org/) -->
<svg
   xmlns:svg="http://www.w3.org/2000/svg"
   xmlns="http://www.w3.org/2000/svg"
   version="1.0"
   width="960"
   height="960"
   id="svg3958">
  <defs
     id="defs3960" />
  <g
     transform="translate(-315.3415,392.9408)"
     id="layer1">
    <path
       d="M 795.34842,-392.94082 C 530.25674,-392.94082 315.3415,-178.0427 315.3415,87.05918 C 315.3415,352.14723 530.25674,567.05918 795.34842,567.05918 C 1060.4401,567.05918 1275.3415,352.14723 1275.3415,87.05918 C 1275.3415,-178.0427 1060.4401,-392.94082 795.34842,-392.94082"
       style="fill:#ee1c23;fill-rule:nonzero;stroke:none"
       id="path237" />
    <path
       d="M 576.02907,367.26784 C 636.48177,414.64946 712.58431,442.98159 795.34842,442.98159 C 877.80785,442.98159 953.73035,414.91231 1014.0723,367.83504 L 794.76675,148.52386 L 576.02907,367.26784"
       style="fill:#176fc1;fill-rule:nonzero;stroke:none"
       id="path239" />
    <path
       d="M 732.31973,86.076963 L 514.56536,-131.67097 C 467.49119,-71.326848 439.43227,4.5805795 439.43227,87.05918 C 439.43227,169.02592 467.20035,244.46299 513.76209,304.62727 L 732.31973,86.076963"
       style="fill:#176fc1;fill-rule:nonzero;stroke:none"
       id="path241" />
    <path
       d="M 1012.4796,-194.0902 C 952.02687,-241.47182 875.92433,-269.80395 793.16022,-269.80395 C 710.70079,-269.80395 634.77829,-241.73466 574.43638,-194.65739 L 793.74189,24.653785 L 1012.4796,-194.0902"
       style="fill:#176fc1;fill-rule:nonzero;stroke:none"
       id="path243" />
    <path
       d="M 856.18891,87.100682 L 1073.9433,304.84861 C 1121.0175,244.50449 1149.0764,168.59707 1149.0764,86.118465 C 1149.0764,4.151724 1121.2944,-71.285345 1074.7466,-131.44962 L 856.18891,87.100682"
       style="fill:#176fc1;fill-rule:nonzero;stroke:none"
       id="path245" />
  </g>
</svg>
