<?xml version="1.0" encoding="UTF-8" standalone="no"?>
<!-- Created with Inkscape (http://www.inkscape.org/) -->
<svg
   xmlns:svg="http://www.w3.org/2000/svg"
   xmlns="http://www.w3.org/2000/svg"
   version="1.0"
   width="960"
   height="960"
   id="svg10945">
  <defs
     id="defs10947" />
  <g
     transform="translate(-591.0563,610.1227)"
     id="layer1">
    <path
       d="M 591.05629,-130.12267 C 591.05629,-395.21817 805.96079,-610.12267 1071.0563,-610.12267 C 1336.1518,-610.12267 1551.0563,-395.21817 1551.0563,-130.12267 C 1551.0563,134.97283 1336.1518,349.87733 1071.0563,349.87733 C 805.96079,349.87733 591.05629,134.97283 591.05629,-130.12267"
       style="fill:#176fc1;fill-rule:nonzero;stroke:none"
       id="path10426" />
    <path
       d="M 1113.3392,43.870059 C 1113.3392,109.71113 1166.7156,163.10141 1232.5705,163.10141 C 1298.4116,163.10141 1351.8019,109.71113 1351.8019,43.870059 L 1351.8019,-300.63915 C 1351.8019,-366.48022 1298.4116,-419.87049 1232.5705,-419.87049 C 1166.7156,-419.87049 1113.3392,-366.48022 1113.3392,-300.63915 L 1113.3392,43.870059 z M 1272.3051,43.870059 C 1272.3051,65.821701 1254.5222,83.604608 1232.5705,83.604608 C 1210.6189,83.604608 1192.8221,65.821701 1192.8221,43.870059 L 1192.8221,-300.63915 C 1192.8221,-322.59079 1210.6189,-340.38754 1232.5705,-340.38754 C 1254.5222,-340.38754 1272.3051,-322.59079 1272.3051,-300.63915 L 1272.3051,43.870059"
       style="fill:white;fill-rule:nonzero;stroke:none"
       id="path10428" />
    <path
       d="M 1028.815,-120.30329 C 1024.203,-127.98983 1011.2536,-132.94799 1011.2536,-132.94799 C 1011.2536,-132.94799 1020.2836,-137.08903 1026.4744,-143.72299 C 1036.0306,-153.95786 1034.7564,-165.74388 1034.7564,-165.74388 L 1034.7564,-300.63915 C 1034.7564,-366.48022 981.38002,-419.87049 915.5251,-419.87049 C 849.68402,-419.87049 796.29375,-366.48022 796.29375,-300.63915 L 875.79055,-300.63915 C 875.79055,-322.59079 893.57346,-340.38754 915.5251,-340.38754 C 937.47674,-340.38754 955.2735,-322.59079 955.2735,-300.63915 L 955.2735,-182.44652 L 955.12115,-182.44652 C 955.12115,-175.13392 949.19352,-169.19244 941.88092,-169.19244 L 941.88092,-169.17859 L 875.41661,-169.17859 L 875.41661,-94.861547 L 942.4072,-94.861547 C 949.47051,-94.570705 955.12115,-88.795415 955.12115,-81.662863 L 955.2735,-81.662863 L 955.2735,43.870059 C 955.2735,65.821701 937.47674,83.604608 915.5251,83.604608 C 893.57346,83.604608 875.79055,65.821701 875.79055,43.870059 L 796.29375,43.870059 C 796.29375,109.71113 849.68402,163.10141 915.5251,163.10141 C 981.38002,163.10141 1034.7564,109.71113 1034.7564,43.870059 L 1034.7564,-94.155217 C 1034.7564,-94.155217 1035.8506,-108.60037 1028.815,-120.30329"
       style="fill:white;fill-rule:nonzero;stroke:none"
       id="path10430" />
    <path
       d="M 694.72067,167.79643 C 717.72488,196.85292 744.03915,223.19489 773.06795,246.2268 L 1447.4058,-428.13871 C 1424.36,-457.16751 1398.0457,-483.46793 1368.9892,-506.47214 L 694.72067,167.79643"
       style="fill:#ee1c23;fill-rule:nonzero;stroke:none"
       id="path10432" />
  </g>
</svg>
