<?xml version="1.0" encoding="UTF-8" standalone="no"?>
<!-- Created with Inkscape (http://www.inkscape.org/) -->
<svg
   xmlns:svg="http://www.w3.org/2000/svg"
   xmlns="http://www.w3.org/2000/svg"
   version="1.0"
   width="960"
   height="960"
   id="svg10901">
  <defs
     id="defs10903" />
  <g
     transform="translate(-839.6277,587.2655)"
     id="layer1">
    <path
       d="M 839.62771,-107.26553 C 839.62771,-372.36103 1054.5322,-587.26553 1319.6277,-587.26553 C 1584.7232,-587.26553 1799.6277,-372.36103 1799.6277,-107.26553 C 1799.6277,157.82997 1584.7232,372.73447 1319.6277,372.73447 C 1054.5322,372.73447 839.62771,157.82997 839.62771,-107.26553"
       style="fill:#176fc1;fill-rule:nonzero;stroke:none"
       id="path10402" />
    <path
       d="M 1271.2095,-124.03742 C 1255.1439,-140.10297 1233.7739,-148.95287 1211.0467,-148.95287 C 1200.1748,-148.95287 1189.7737,-146.87543 1180.2036,-143.13604 L 1160.4956,-186.94237 L 1168.4453,-199.55937 C 1182.4057,-196.73405 1196.1722,-193.99183 1196.9201,-193.99183 C 1204.7174,-193.99183 1211.0329,-200.30725 1211.0329,-208.10459 C 1211.0329,-215.88807 1204.7174,-222.2035 1196.9201,-222.2035 C 1196.5323,-222.2035 1138.7379,-222.1481 1138.7379,-222.1481 C 1134.1952,-222.1481 1130.5112,-218.4641 1130.5112,-213.92142 C 1130.5112,-209.3649 1134.1952,-205.69475 1138.7379,-205.69475 L 1138.7379,-205.61165 C 1138.7379,-205.61165 1147.38,-203.8389 1157.9888,-201.67836 L 1151.6042,-191.54044 L 1001.779,-191.54044 C 1005.6569,-203.18797 1008.2191,-210.87451 1008.2191,-210.87451 C 1008.2606,-211.01301 1008.2745,-211.13765 1008.316,-211.27615 C 1008.3437,-211.42849 1008.3853,-211.56699 1008.413,-211.70549 C 1008.4268,-211.85783 1008.413,-211.99633 1008.4268,-212.14867 C 1008.4268,-212.28717 1008.4407,-212.42567 1008.4268,-212.56416 C 1008.4268,-212.70266 1008.3853,-212.855 1008.3576,-212.9935 C 1008.3437,-213.132 1008.3299,-213.27049 1008.2883,-213.39514 C 1008.2468,-213.53364 1008.1914,-213.65828 1008.1498,-213.79678 C 1008.0944,-213.92142 1008.0529,-214.05992 1007.9975,-214.18457 C 1007.9282,-214.30921 1007.859,-214.42001 1007.7759,-214.53081 C 1007.7067,-214.65545 1007.6374,-214.7801 1007.5543,-214.8909 C 1007.4712,-215.00169 1007.3743,-215.09864 1007.2773,-215.19559 C 1007.1804,-215.30639 1007.0973,-215.41718 1006.9865,-215.51413 C 1006.8757,-215.61108 1006.751,-215.68033 1006.6402,-215.76342 C 1006.5294,-215.84652 1006.4186,-215.94347 1006.294,-216.01272 C 1006.1693,-216.09581 1006.017,-216.13736 1005.8924,-216.20661 C 1005.7677,-216.26201 1005.6431,-216.33126 1005.5184,-216.37281 L 981.08769,-224.87647 L 988.40029,-244.08589 L 1047.3027,-244.73682 L 1064.7394,-228.96211 C 1066.526,-227.35555 1069.282,-227.49405 1070.9025,-229.28065 C 1072.5229,-231.06725 1072.3844,-233.82332 1070.5978,-235.44373 L 1051.9008,-252.35411 L 1050.6266,-253.50363 L 1048.9231,-253.48978 L 985.32567,-252.78345 L 982.36186,-252.7419 L 969.73101,-219.58592 L 973.96899,-218.10401 L 998.57976,-209.54495 L 976.43422,-143.13604 C 966.69794,-146.93083 956.24148,-148.95287 945.48033,-148.95287 C 898.57168,-148.95287 860.41598,-110.78333 860.41598,-63.874682 C 860.41598,-41.161312 869.26589,-19.791354 885.33144,-3.7257989 C 901.397,12.339756 922.75311,21.189661 945.48033,21.189661 C 968.1937,21.189661 989.56366,12.339756 1005.6292,-3.7257989 C 1021.6948,-19.791354 1030.5447,-41.161312 1030.5447,-63.874682 C 1030.5447,-86.601903 1021.6948,-107.95801 1005.6292,-124.03742 C 999.31379,-130.35284 992.15353,-135.5326 984.4393,-139.52129 C 986.50289,-145.71206 988.58033,-151.95824 990.61623,-158.05207 L 1055.3355,-88.970187 C 1050.8759,-83.471889 1048.1891,-76.477833 1048.1891,-68.860544 C 1048.1891,-60.329181 1051.513,-52.310253 1057.5376,-46.27182 C 1063.576,-40.233387 1071.5949,-36.909479 1080.1401,-36.909479 C 1081.4143,-36.909479 1082.6746,-37.006427 1083.9211,-37.158773 L 1085.5138,-30.053919 L 1075.1543,-30.053919 L 1075.1543,-20.068346 L 1103.823,-20.068346 L 1103.823,-30.053919 L 1090.6243,-30.053919 L 1088.81,-38.128246 C 1094.0175,-39.582455 1098.7956,-42.338529 1102.7289,-46.27182 C 1107.4377,-50.96684 1110.457,-56.880626 1111.5788,-63.306848 L 1126.0101,-62.752863 C 1126.3009,-40.454981 1135.1093,-19.528211 1150.8978,-3.7257989 C 1166.9772,12.339756 1188.3333,21.189661 1211.0467,21.189661 C 1233.7739,21.189661 1255.1439,12.339756 1271.2095,-3.7257989 C 1287.275,-19.791354 1296.1249,-41.161312 1296.1249,-63.874682 C 1296.1249,-86.601903 1287.275,-107.95801 1271.2095,-124.03742 z M 995.0481,-113.45631 C 1008.2883,-100.21608 1015.5871,-82.599363 1015.5871,-63.874682 C 1015.5871,-25.220403 984.13461,6.2182256 945.48033,6.2182256 C 926.75565,6.2182256 909.15278,-1.0666726 895.91255,-14.306906 C 882.67232,-27.547139 875.37357,-45.150001 875.37357,-63.874682 C 875.37357,-82.599363 882.67232,-100.21608 895.91255,-113.45631 C 909.15278,-126.69654 926.75565,-133.98144 945.48033,-133.98144 C 954.62107,-133.98144 963.48483,-132.23639 971.69765,-128.92633 L 956.29688,-82.71016 C 955.13351,-79.538598 950.53544,-70.4394 943.94302,-67.960319 C 941.68553,-67.115492 940.54986,-64.608712 941.39469,-62.351225 C 942.23952,-60.093737 944.76015,-58.944219 947.01763,-59.789045 C 958.73441,-64.193223 964.31581,-79.206207 964.5374,-79.84329 C 964.5651,-79.884839 971.37911,-100.36842 979.63348,-125.11769 C 985.21488,-121.98767 990.40848,-118.09593 995.0481,-113.45631 z M 1172.2401,-139.53514 C 1146.9368,-126.50265 1128.9877,-101.1717 1126.3425,-71.478122 L 1111.9389,-72.018257 C 1111.2187,-79.372403 1108.0194,-86.172564 1102.7289,-91.463118 C 1102.2303,-91.961704 1101.704,-92.418741 1101.1777,-92.875779 L 1154.9142,-178.07862 L 1172.2401,-139.53514 z M 1178.3616,-125.92096 L 1204.1912,-68.514304 L 1141.3001,-70.910287 C 1142.8928,-86.975842 1149.9145,-101.87803 1161.4789,-113.45631 C 1166.5341,-118.49757 1172.2262,-122.68015 1178.3616,-125.92096 z M 1073.9078,-81.893033 L 1066.8722,-89.413375 C 1068.3818,-90.410547 1070.0022,-91.199975 1071.6919,-91.823208 L 1073.9078,-81.893033 z M 1076.5254,-93.041974 C 1077.7165,-93.222019 1078.9214,-93.346666 1080.1401,-93.346666 C 1083.104,-93.346666 1085.9847,-92.792681 1088.6854,-91.781659 L 1079.9186,-77.876644 L 1076.5254,-93.041974 z M 1097.1198,-86.463406 C 1097.2306,-86.352609 1097.3414,-86.269512 1097.4383,-86.172564 C 1101.2331,-82.37777 1103.6014,-77.544254 1104.3354,-72.309099 L 1088.5884,-72.918482 L 1097.1198,-86.463406 z M 998.45511,-181.56872 L 1145.3164,-181.56872 L 1092.7571,-98.221731 C 1088.8239,-99.911384 1084.5443,-100.82546 1080.1401,-100.82546 C 1078.3535,-100.82546 1076.6085,-100.63156 1074.8911,-100.35457 L 1071.3456,-116.25393 L 1082.6331,-116.25393 L 1082.6331,-126.22565 L 1053.9505,-116.25393 L 1066.2351,-116.25393 L 1070.0576,-99.163504 C 1067.0523,-98.166332 1064.2408,-96.725972 1061.7063,-94.925522 L 993.74624,-167.46981 C 995.39434,-172.40028 996.9732,-177.15069 998.45511,-181.56872 z M 1080.1401,-44.388272 C 1073.6031,-44.388272 1067.4539,-46.936602 1062.8281,-51.562373 C 1058.2162,-56.188145 1055.6679,-62.323525 1055.6679,-68.860544 C 1055.6679,-74.192646 1057.3852,-79.247756 1060.5152,-83.44419 L 1076.9547,-65.882877 L 1077.6611,-65.121148 L 1082.273,-44.499069 C 1081.5667,-44.443671 1080.8603,-44.388272 1080.1401,-44.388272 z M 1087.1758,-45.440843 L 1082.9378,-64.387118 L 1104.0169,-63.58384 C 1102.1056,-54.92783 1095.5963,-47.975323 1087.1758,-45.440843 z M 1211.0467,6.2182256 C 1192.322,6.2182256 1174.7192,-1.0666726 1161.4789,-14.306906 C 1148.6403,-27.1455 1141.4247,-44.09743 1140.9954,-62.185029 L 1210.8944,-59.525903 L 1215.2155,-60.135286 L 1215.0354,-65.675132 L 1186.3252,-129.49416 C 1194.1225,-132.43028 1202.4738,-133.98144 1211.0467,-133.98144 C 1229.7852,-133.98144 1247.3881,-126.69654 1260.6283,-113.45631 C 1273.8686,-100.21608 1281.1535,-82.599363 1281.1535,-63.874682 C 1281.1535,-25.220403 1249.7148,6.2182256 1211.0467,6.2182256"
       style="fill:white;fill-rule:nonzero;stroke:none"
       id="path10404" />
    <path
       d="M 1704.8825,15.45592 C 1704.8825,15.45592 1704.8825,-5.706294 1699.5919,-27.754883 C 1695.6448,-44.194378 1686.3101,-60.121436 1681.8229,-67.170891 C 1681.2966,-68.500454 1680.4933,-69.774619 1679.3161,-70.951836 L 1671.1033,-72.599941 C 1682.6677,-78.098238 1690.6728,-89.898111 1690.6728,-103.58153 C 1690.6728,-122.51396 1675.3274,-137.87318 1656.395,-137.87318 C 1637.4487,-137.87318 1622.1033,-122.51396 1622.1033,-103.58153 C 1622.1033,-91.74011 1624.347,-79.760192 1633.46,-73.597113 C 1636.4238,-71.602768 1640.8003,-70.508648 1645.3291,-69.926965 L 1638.7506,-69.192935 C 1638.7506,-69.192935 1639.263,-69.192935 1638.3489,-67.170891 C 1633.834,-65.910576 1623.8207,-64.428667 1605.2483,-67.434034 C 1587.0776,-70.356303 1580.6099,-82.627063 1578.297,-90.535194 C 1579.7651,-91.864757 1581.1362,-93.388215 1582.3272,-95.050168 C 1588.1995,-103.29069 1584.6817,-115.03516 1577.0367,-120.32572 C 1574.3776,-122.16772 1572.3694,-124.30056 1570.8736,-126.28105 C 1573.9067,-131.7655 1575.2778,-136.19738 1575.2778,-136.19738 C 1568.81,-154.42347 1552.9383,-200.86124 1552.9383,-200.86124 C 1548.825,-240.2357 1548.825,-289.60958 1548.825,-289.60958 C 1548.825,-289.60958 1549.8914,-298.09939 1538.2439,-305.48124 C 1510.3092,-323.1949 1488.7177,-330.369 1480.3248,-332.72343 L 1479.4107,-343.92777 C 1486.8618,-349.95236 1492.5263,-359.70249 1495.6009,-370.18664 C 1495.7533,-370.72678 1495.8918,-371.26691 1496.0303,-371.80705 C 1503.8692,-370.60213 1509.686,-369.85425 1511.7911,-369.85425 C 1520.6133,-369.85425 1519.727,-376.90371 1508.2595,-383.08064 C 1504.894,-384.88109 1501.9856,-386.23835 1498.9248,-387.34632 C 1499.7974,-392.24908 1502.0133,-404.74144 1503.4121,-411.72164 C 1505.1849,-420.54385 1494.6038,-422.74594 1485.7816,-420.54385 C 1476.9594,-418.34176 1465.5057,-423.63231 1460.6584,-426.72078 C 1455.811,-429.80924 1453.1657,-428.47968 1449.1909,-424.0755 C 1445.9362,-420.46075 1440.0363,-403.27338 1438.0004,-397.15185 L 1417.4475,-398.06592 C 1417.4475,-398.06592 1398.9306,-391.88899 1413.9297,-387.48482 C 1417.7107,-386.363 1425.2864,-384.68719 1434.6211,-382.80365 C 1434.2887,-381.41868 1434.0117,-379.99217 1433.8178,-378.55181 C 1431.9481,-364.7576 1436.8232,-351.87745 1445.5484,-344.38481 L 1443.5125,-336.43513 C 1438.3466,-334.10839 1426.7545,-328.65165 1401.5759,-316.06234 C 1379.4442,-304.9965 1371.4945,-297.33766 1368.8354,-292.67034 L 1368.3645,-293.72291 C 1368.3784,-293.73676 1351.3295,-219.66902 1350.7339,-179.10349 C 1350.1523,-138.55181 1350.1523,-100.34072 1350.1523,-100.34072 L 1359.9024,-100.34072 C 1358.005,-90.549043 1356.897,-80.757364 1358.9606,-70.951836 C 1359.5562,-66.8385 1363.074,-62.14348 1367.2011,-60.966263 C 1372.4778,-59.789045 1372.4778,-61.547947 1377.7684,-61.547947 C 1377.7684,-62.725164 1386.3552,-66.298365 1386.5906,-66.8385 C 1388.3495,-70.951836 1390.1223,-77.419607 1384.2362,-85.646279 C 1381.0231,-90.161254 1380.1228,-91.532366 1378.3639,-96.822919 C 1378.0869,-97.903189 1377.1867,-99.121956 1376.2449,-100.34072 L 1382.4773,-100.34072 C 1382.4773,-100.34072 1382.4773,-103.29069 1385.4134,-148.55124 C 1388.2387,-192.10828 1388.3495,-189.39375 1397.7949,-220.04296 L 1399.5261,-216.13736 C 1417.7384,-149.7146 1403.0439,-136.79291 1396.59,-116.80792 C 1395.3574,-113.01312 1393.0584,-89.177931 1398.3489,-87.41903 C 1400.1909,-86.795797 1402.3099,-86.297211 1404.6644,-85.881723 C 1404.0134,-71.422723 1404.0273,-45.357745 1407.7528,-2.7701754 C 1414.2206,71.283723 1425.9789,107.44507 1423.6245,125.65732 C 1423.6245,125.65732 1390.7039,124.78479 1398.9306,145.35147 C 1407.1573,165.932 1425.9789,175.33589 1425.9789,175.33589 L 1430.6739,174.74036 L 1433.0284,180.62644 L 1443.0139,186.49868 C 1443.0139,186.49868 1451.2545,189.4348 1455.9495,182.96703 C 1460.6584,176.51311 1459.4811,171.80424 1459.4811,171.80424 L 1462.9989,156.52811 C 1462.9989,156.52811 1462.9989,89.509818 1455.3678,50.717043 C 1447.7228,11.924267 1451.2545,-9.2379462 1454.1906,-25.69129 C 1455.2847,-31.812821 1457.5976,-36.397044 1460.0628,-39.720952 C 1465.2841,-27.976477 1471.5442,-15.040935 1478.8983,-1.6622061 C 1480.3248,25.150651 1483.5656,93.235364 1481.225,121.25314 C 1481.0588,123.28903 1480.9342,125.13103 1480.8511,126.82068 L 1472.9984,132.72062 C 1472.9984,132.72062 1472.112,142.41535 1474.7573,144.17425 C 1477.4025,145.947 1478.2889,152.99646 1478.2889,152.99646 C 1478.2889,152.99646 1487.1111,161.80481 1494.1606,173.2723 C 1501.21,184.73978 1515.3228,183.8534 1520.6133,182.0945 C 1525.9039,180.32175 1525.0175,187.38506 1524.1311,169.74064 C 1523.4802,156.70816 1516.0845,143.68952 1512.2759,137.77573 C 1519.0899,136.9586 1524.976,135.79524 1525.9039,134.18868 C 1527.9536,130.60163 1527.7597,32.698692 1527.6905,7.7001345 C 1528.0506,7.3677437 1528.2445,7.2153979 1528.2445,7.2153979 C 1528.2445,7.2153979 1532.5656,-54.249199 1505.0325,-92.487989 C 1511.3479,-93.609808 1516.4031,-94.28844 1518.8406,-96.822919 C 1524.2142,-102.39047 1521.195,-110.92183 1521.195,-110.92183 C 1521.195,-110.92183 1519.4915,-113.09622 1512.9684,-133.26126 C 1499.4511,-174.99015 1514.7273,-220.84623 1514.7273,-220.84623 C 1514.7273,-220.84623 1520.0178,-182.05346 1524.7267,-167.35901 C 1529.4217,-152.66457 1552.3567,-107.98571 1552.3567,-107.98571 C 1553.8386,-108.62279 1555.2512,-109.38452 1556.5808,-110.22935 C 1556.4977,-107.27938 1556.3038,-104.12167 1555.8745,-101.51794 C 1554.6972,-94.468485 1554.6972,-92.709583 1560.5833,-87.41903 C 1561.5944,-86.504955 1562.73,-85.895572 1563.9349,-85.549332 C 1563.2702,-77.170314 1563.6164,-60.855466 1573.505,-45.385445 C 1578.477,-37.61581 1596.3846,-31.438881 1610.5389,-27.630237 C 1583.4767,6.5921652 1556.7608,26.037026 1556.7608,26.037026 C 1556.7608,26.023177 1562.1345,36.770479 1574.8484,46.977646 C 1572.7571,66.159365 1569.1562,104.85519 1571.7461,123.01204 C 1575.2778,147.70591 1577.9231,129.18897 1579.682,141.52898 C 1579.7235,141.81982 1579.7789,142.11066 1579.8205,142.4015 C 1576.7458,141.95831 1573.8651,142.55385 1571.6769,144.3543 C 1566.3725,148.74463 1567.2311,158.53631 1573.602,166.23669 C 1579.9728,173.92323 1589.4321,176.61005 1594.7365,172.21973 C 1596.163,171.02866 1597.1325,169.43595 1597.6865,167.62165 L 1598.1989,167.98174 C 1598.1989,167.98174 1600.8442,158.28701 1599.0853,145.947 C 1597.4095,134.27178 1594.9581,117.85998 1609.611,69.884911 C 1609.9849,82.349566 1611.2729,97.140956 1614.9431,104.4951 C 1622.0064,118.60786 1626.4106,118.60786 1631.7011,126.54369 C 1635.4267,132.12509 1634.7757,142.05526 1634.0694,147.45661 C 1626.466,153.4535 1623.0174,160.32291 1624.6517,163.57757 C 1630.2469,174.7819 1639.1107,168.68807 1648.1406,162.3865 C 1654.0544,158.25931 1657.8492,152.69177 1658.6802,147.74745 L 1659.0403,147.70591 C 1659.0403,147.70591 1672.2528,151.23756 1652.8633,121.25314 C 1641.4789,103.66413 1642.2822,95.686747 1646.6864,79.815086 C 1648.7638,72.336294 1650.6474,66.644101 1652.0462,62.683111 C 1656.2842,61.865984 1660.6468,60.841112 1665.2033,59.539248 C 1665.2033,59.539248 1657.2675,39.24956 1659.9128,16.328445 C 1660.9515,7.3400445 1664.0261,-4.8891667 1667.3777,-16.453596 C 1680.7288,-9.7226827 1683.4987,6.4952179 1681.075,14.569544 C 1678.9145,21.757495 1676.7678,27.768228 1676.0476,29.748724 C 1670.3969,31.549174 1666.2282,37.878448 1666.2282,45.426489 C 1666.2282,54.387191 1672.0866,61.63054 1679.3161,61.63054 C 1686.5456,61.63054 1692.404,54.387191 1692.404,45.426489 C 1692.404,42.892009 1691.9192,40.496026 1691.0744,38.349335 C 1703.2205,28.710002 1704.8825,15.45592 1704.8825,15.45592"
       style="fill:white;fill-rule:nonzero;stroke:none"
       id="path10406" />
    <path
       d="M 1312.7029,-577.44615 L 1312.7029,362.91509 C 1312.7029,366.73759 1315.8052,369.8399 1319.6277,369.8399 C 1323.4502,369.8399 1326.5525,366.73759 1326.5525,362.91509 L 1326.5525,-577.44615 C 1326.5525,-581.2825 1323.4502,-584.38481 1319.6277,-584.38481 C 1315.8052,-584.38481 1312.7029,-581.2825 1312.7029,-577.44615"
       style="fill:white;fill-rule:nonzero;stroke:none"
       id="path10408" />
    <path
       d="M 943.29209,190.65357 C 966.2963,219.71006 992.61057,246.03818 1021.6532,269.08394 L 1695.9772,-405.28157 C 1672.9314,-434.31037 1646.6171,-460.61079 1617.5607,-483.615 L 943.29209,190.65357"
       style="fill:#ee1c23;fill-rule:nonzero;stroke:none"
       id="path10410" />
  </g>
</svg>
