<?xml version="1.0" encoding="UTF-8" standalone="no"?>
<!-- Generator: Adobe Illustrator 15.0.0, SVG Export Plug-In . SVG Version: 6.00 Build 0)  -->

<svg
   xmlns:dc="http://purl.org/dc/elements/1.1/"
   xmlns:cc="http://creativecommons.org/ns#"
   xmlns:rdf="http://www.w3.org/1999/02/22-rdf-syntax-ns#"
   xmlns:svg="http://www.w3.org/2000/svg"
   xmlns="http://www.w3.org/2000/svg"
   xmlns:sodipodi="http://sodipodi.sourceforge.net/DTD/sodipodi-0.dtd"
   xmlns:inkscape="http://www.inkscape.org/namespaces/inkscape"
   version="1.1"
   id="svg3923"
   x="0px"
   y="0px"
   width="960px"
   height="960px"
   viewBox="0 0 960 960"
   enable-background="new 0 0 960 960"
   xml:space="preserve"
   sodipodi:docname="Vorschriftszeichen_12_(2010).svg"
   inkscape:version="0.92.5 (2060ec1f9f, 2020-04-08)"><metadata
   id="metadata17"><rdf:RDF><cc:Work
       rdf:about=""><dc:format>image/svg+xml</dc:format><dc:type
         rdf:resource="http://purl.org/dc/dcmitype/StillImage" /></cc:Work></rdf:RDF></metadata><defs
   id="defs15" /><sodipodi:namedview
   pagecolor="#ffffff"
   bordercolor="#666666"
   borderopacity="1"
   objecttolerance="10"
   gridtolerance="10"
   guidetolerance="10"
   inkscape:pageopacity="0"
   inkscape:pageshadow="2"
   inkscape:window-width="1366"
   inkscape:window-height="705"
   id="namedview13"
   showgrid="false"
   inkscape:zoom="0.49166667"
   inkscape:cx="480"
   inkscape:cy="480"
   inkscape:window-x="-8"
   inkscape:window-y="-8"
   inkscape:window-maximized="1"
   inkscape:current-layer="svg3923" />
<path
   fill-rule="evenodd"
   clip-rule="evenodd"
   fill="#EC1C24"
   d="M479.741,3.827c263.258,0,476.746,213.488,476.746,476.748  c0,263.258-213.488,476.746-476.746,476.746C216.481,957.321,3,743.833,3,480.575C3,217.315,216.481,3.827,479.741,3.827"
   id="path2" />
<path
   fill-rule="evenodd"
   clip-rule="evenodd"
   fill="#F1F2F2"
   d="M479.741,125.537c-196.014,0-355.031,159.024-355.031,355.038  c0,196.012,159.017,355.036,355.031,355.036c196.013,0,355.037-159.024,355.037-355.036  C834.778,284.561,675.754,125.537,479.741,125.537"
   id="path4"
   style="fill:#ffffff;fill-opacity:1" />
<path
   fill-rule="evenodd"
   clip-rule="evenodd"
   fill="#231F20"
   d="M479.333,530.95H214.792  c-23.105,0.158-41.834-17.987-42.144-40.941c-0.191-23.047,18.046-41.981,41.041-42.321h533.279  c22.704,0.59,40.731,19.274,40.627,41.926c-0.092,22.456-18.079,40.733-40.481,41.337H479.333z"
   id="path6" />
<path
   fill-rule="evenodd"
   clip-rule="evenodd"
   fill="#231F20"
   d="M673.072,689.831h57.104V675.09h-38.34v-40.614h34.017v-14.781  h-34.017v-36.647h38.34v-14.728h-57.104V689.831z M624.142,689.831h24.309V568.319h-16.542v94.09l-26.542-94.09h-23.955v121.512  h16.479V596.45L624.142,689.831z M567.144,689.831l-26.91-121.512h-24.307l-26.542,121.512h18.907l5.059-27.565h29.314l5.189,27.565  H567.144z M515.927,647.456l11.997-64.039l11.955,64.039H515.927z M476.187,655.446v-87.127h-18.539v86.825  c0,7.777-1.401,13.178-4.028,16.488c-2.633,3.299-6.439,4.993-11.123,4.993c-4.696,0-8.303-1.536-10.924-4.848  c-2.641-3.285-3.969-8.856-3.969-16.634v-86.825h-18.448v87.127c0,5.217,0.709,10.104,2.11,14.426  c1.386,4.337,3.448,8.147,6.233,11.286c2.787,3.298,6.242,5.718,10.414,7.635c4.165,1.854,9.065,2.733,14.584,2.733  c5.56,0,10.452-0.88,14.572-2.733c4.187-1.917,7.68-4.337,10.615-7.635c2.78-3.139,4.842-6.949,6.446-11.286  C475.51,665.55,476.187,660.663,476.187,655.446z M353.091,691.526c12.673,0,21.902-5.005,27.462-15.202  c5.353-10.104,8.14-25.858,8.14-47.262c0-21.326-2.787-37-8.14-47.197c-5.56-10.248-14.789-15.294-27.462-15.294  c-12.672,0-21.851,5.046-27.257,15.294c-5.571,10.197-8.343,25.871-8.343,47.197c0,21.403,2.772,37.157,8.343,47.262  C331.24,686.521,340.418,691.526,353.091,691.526z M353.091,676.822c-2.937,0-5.571-0.709-7.628-2.259  c-2.259-1.394-4.026-4.021-5.414-7.622c-1.34-3.665-2.423-8.499-3.094-14.583c-0.709-6.084-1.019-13.914-1.019-23.296  c0-9.368,0.309-17.214,1.019-23.23c0.671-6.084,1.754-11.129,3.094-14.796c1.388-3.652,3.154-6.083,5.414-7.619  c2.057-1.394,4.691-2.116,7.628-2.116c2.982,0,5.564,0.723,7.831,2.116c2.055,1.536,3.803,3.967,5.202,7.619  c1.394,3.667,2.425,8.712,3.134,14.796c0.676,6.017,1.038,13.862,1.038,23.23c0,9.382-0.362,17.212-1.038,23.296  c-0.709,6.084-1.741,10.918-3.134,14.583c-1.399,3.602-3.147,6.229-5.202,7.622C358.655,676.113,356.073,676.822,353.091,676.822z   M299.81,628.549c0-13.547-1.24-24.32-3.461-32.296c-2.253-7.792-5.406-13.875-9.211-18.041c-3.974-4.178-8.507-6.963-13.553-8.198  c-5.006-1.182-10.412-1.694-15.767-1.694H233.49v121.512h26.022c5.045,0,9.887-0.671,14.788-1.919  c4.691-1.182,9.013-3.967,12.836-8.304c3.805-4.361,6.958-10.446,9.211-18.591C298.569,652.883,299.81,642.109,299.81,628.549z   M280.692,628.549c0,9.749-0.513,17.529-1.549,23.6c-1.236,6.082-2.57,10.983-4.534,14.282c-1.912,3.441-3.968,5.716-6.393,6.897  c-2.417,1.235-5.044,1.762-7.627,1.762h-8.343v-92.043h8.501c2.425,0,4.848,0.37,7.267,1.235c2.477,0.881,4.539,2.943,6.45,6.084  c1.892,3.102,3.292,7.636,4.528,13.718C280.18,610.168,280.692,618.301,280.692,628.549z"
   id="path8" />
<path
   fill-rule="evenodd"
   clip-rule="evenodd"
   fill="#231F20"
   d="M729.283,415.679v-21.508h-64.726V253.619h-24.977v162.06H729.283z   M616.494,415.679v-21.508h-64.724V253.619h-24.991v162.06H616.494z M493.287,334.557c0-16.424-2.116-31.022-5.973-43.228  c-3.92-12.522-10.164-22.206-18.5-29.158c-8.304-6.923-18.972-10.419-32.107-10.616c-19.426,0.197-33.753,7.41-42.773,21.943  c-9.265,14.334-13.652,34.688-13.652,61.058c0,25.201,4.388,45.305,13.652,60.349c9.021,15.005,23.348,22.573,42.773,23.033  c19.631-0.209,33.959-7.581,42.979-22.364C488.951,381.044,493.287,360.691,493.287,334.557z M468.611,334.557  c0,23.349-2.785,39.983-8.357,49.68c-5.519,9.735-13.4,14.322-23.546,14.125c-10.195,0.197-18.038-4.39-23.597-14.125  c-5.572-9.697-8.356-26.331-8.356-49.68c0-23.336,2.785-39.774,8.356-49.456c5.559-9.487,13.402-14.125,23.597-13.915  c10.146-0.21,18.027,4.428,23.546,13.915C465.826,294.783,468.611,311.221,468.611,334.557z M354.825,276.284v-22.665h-92.231  v20.812h65.441l-70.742,118.61v22.638h95.477v-20.772h-67.707L354.825,276.284z"
   id="path10" />
</svg>