<?xml version="1.0" encoding="UTF-8" standalone="no"?>
<!-- Created with Inkscape (http://www.inkscape.org/) -->
<svg
   xmlns:svg="http://www.w3.org/2000/svg"
   xmlns="http://www.w3.org/2000/svg"
   version="1.0"
   width="959.99969"
   height="959.99969"
   id="svg3653">
  <defs
     id="defs3655"><clipPath
   id="id52">
      <path
   d="M 351.32,174.76 L 422.24,174.76 L 422.24,103.84 L 351.32,103.84 L 351.32,174.76 z "
   id="path12" />

    </clipPath>

        
        
      </defs>
  <g
     transform="translate(-565.3885,475.8851)"
     id="layer1">
    <path
       d="M 565.3885,4.1077657 C 565.3885,-260.97081 780.30284,-475.88515 1045.3953,-475.88515 C 1310.4739,-475.88515 1525.3882,-260.97081 1525.3882,4.1077657 C 1525.3882,269.20021 1310.4739,484.11455 1045.3953,484.11455 C 780.30284,484.11455 565.3885,269.20021 565.3885,4.1077657 z "
       style="fill:#ee1c23;fill-rule:nonzero;stroke:none"
       id="path3670" />
    <path
       d="M 1045.3953,360.02843 C 1241.947,360.02843 1401.3021,200.67339 1401.3021,4.1077657 C 1401.3021,-192.44399 1241.947,-351.79903 1045.3953,-351.79903 C 848.82967,-351.79903 689.47463,-192.44399 689.47463,4.1077657 C 689.47463,200.67339 848.82967,360.02843 1045.3953,360.02843"
       style="fill:white;fill-rule:nonzero;stroke:none"
       id="path248" />
    <path
       d="M 1283.9702,132.63197 C 1301.2232,127.44496 1313.8024,111.44011 1313.8024,92.49503 C 1313.8024,74.2434 1302.1386,58.723966 1285.8564,52.968323 L 1353.1766,52.968323 C 1355.7423,52.968323 1357.8088,50.88797 1357.8088,48.336071 C 1357.8088,45.770302 1355.7423,43.703818 1353.1766,43.703818 L 1353.1766,43.523521 C 1352.8021,40.930014 1352.4415,40.930014 1350.9575,39.085434 C 1350.9575,37.601449 1350.2086,35.743 1352.0671,34.633479 C 1352.0671,33.149494 1354.2861,30.181523 1351.6926,29.072002 C 1351.6926,27.588017 1350.5831,27.588017 1350.9575,26.104031 C 1354.6606,22.401003 1348.364,18.323511 1351.6926,14.246019 C 1350.5831,10.168527 1351.332,7.5750207 1351.6926,3.1369343 C 1351.332,2.0274127 1350.2086,0.5434276 1350.2086,-1.3150211 C 1350.2086,-3.9085278 1349.848,-6.127571 1350.2086,-8.3604832 C 1349.4735,-10.205063 1351.332,-11.314585 1349.0991,-11.689048 C 1352.8021,-15.76654 1349.0991,-20.953553 1349.4735,-25.766103 C 1349.0991,-27.624552 1347.9896,-30.218059 1348.7246,-32.076507 C 1346.88,-33.560493 1348.364,-35.405072 1345.3961,-36.153999 L 1346.1311,-36.514594 C 1344.2865,-38.373043 1344.661,-40.966549 1342.8026,-42.450534 C 1338.7251,-41.341013 1337.2411,-46.153563 1335.3965,-48.012011 C 1327.2415,-46.528026 1319.8216,-50.231055 1312.0411,-51.71504 C 1307.9636,-53.199025 1302.7766,-55.418068 1298.6991,-54.308547 C 1295.3705,-58.386038 1290.1835,-53.934083 1287.59,-58.011575 C 1287.59,-62.824125 1283.5125,-63.947515 1282.7636,-68.760065 C 1280.1701,-69.495123 1278.3255,-73.212021 1276.0926,-74.321542 C 1275.732,-74.321542 1275.3575,-76.166122 1274.6086,-74.682137 L 1273.8735,-75.805528 C 1270.545,-75.805528 1269.061,-78.399034 1266.093,-78.024571 C 1263.4995,-79.508556 1264.9835,-83.946642 1262.0155,-85.805091 C 1262.0155,-88.773061 1259.0475,-89.882583 1259.0475,-92.850553 C 1255.3445,-96.179118 1253.4861,-101.36613 1249.048,-103.95964 C 1248.299,-104.3341 1246.4545,-103.59904 1246.4545,-105.08303 C 1246.08,-107.67654 1242.377,-105.44362 1241.628,-107.30207 C 1237.925,-106.19255 1235.706,-109.14665 1232.738,-109.52112 C 1228.6605,-106.19255 1225.332,-111.0051 1221.2545,-109.14665 C 1216.428,-104.70857 1209.3964,-109.89558 1204.9445,-105.08303 C 1200.867,-104.70857 1197.5384,-102.11506 1193.4609,-102.11506 C 1191.228,-100.25661 1188.2739,-99.147088 1185.306,-99.147088 C 1185.6804,-95.818523 1180.4934,-95.069596 1179.0094,-92.101626 C 1174.5575,-89.508119 1175.2925,-86.179554 1170.8544,-83.946642 L 1171.5895,-83.211584 C 1168.996,-81.353136 1167.512,-79.134092 1164.5579,-76.915049 C 1161.9644,-78.399034 1158.9964,-76.915049 1156.4029,-76.915049 C 1153.435,-76.166122 1150.467,-73.572615 1147.8735,-73.212021 C 1144.9055,-69.495123 1140.8419,-69.869587 1138.609,-65.792095 C 1135.2804,-65.792095 1136.3899,-62.46353 1133.0475,-61.714603 C 1130.454,-59.121096 1129.3445,-56.52759 1126.0159,-53.934083 L 1126.3765,-53.559619 C 1123.783,-50.231055 1119.7055,-47.637548 1115.6419,-45.779099 C 1113.7834,-39.857028 1110.8155,-36.514594 1107.4869,-30.218059 C 1106.3774,-30.218059 1106.3774,-29.483001 1106.0029,-28.35961 C 1104.8934,-27.624552 1104.5189,-27.624552 1103.0349,-27.999016 C 1101.9254,-26.140567 1098.583,-26.889494 1095.9895,-26.51503 C 1093.396,-29.483001 1090.0674,-22.812002 1087.8484,-27.250088 C 1091.5514,-29.843595 1088.209,-35.405072 1092.6609,-38.373043 C 1093.7704,-40.966549 1091.1769,-42.824998 1094.1449,-45.044041 C 1090.4419,-49.121533 1096.3639,-53.934083 1094.8799,-58.011575 C 1094.1449,-65.792095 1094.8799,-68.760065 1094.1449,-76.540586 C 1094.8799,-81.727599 1091.912,-85.805091 1093.396,-90.617641 C 1090.4419,-93.585611 1091.5514,-96.179118 1091.5514,-99.147088 C 1089.6929,-99.521552 1091.912,-101.74059 1089.6929,-102.47565 C 1096.3639,-105.44362 1098.583,-112.86355 1098.9574,-119.53455 C 1101.1904,-122.12805 1102.2999,-125.45662 1103.0349,-128.79905 C 1098.583,-132.87654 1093.0354,-134.34666 1088.5834,-137.31463 C 1081.1774,-142.50164 1080.4284,-129.90857 1074.867,-129.53411 C 1073.0224,-128.79905 1071.1639,-129.90857 1069.6799,-128.05013 C 1068.196,-125.08216 1072.6479,-126.20555 1073.383,-124.72156 C 1073.0224,-123.23758 1071.1639,-123.61204 1070.7895,-122.48865 C 1069.3193,-121.37913 1070.7895,-119.89514 1071.5384,-118.78562 C 1070.7895,-116.19211 1068.5704,-113.97307 1067.4609,-111.37956 C 1065.2419,-105.44362 1072.6479,-107.67654 1074.867,-105.08303 C 1074.1319,-102.47565 1070.7895,-102.11506 1071.5384,-99.147088 C 1068.196,-98.037567 1068.9449,-93.585611 1065.9769,-93.225017 C 1063.7579,-86.914613 1059.6804,-82.837121 1057.0869,-77.650107 C 1054.1189,-75.431064 1052.6349,-79.508556 1049.6669,-78.024571 C 1047.0734,-80.992541 1041.5258,-77.650107 1040.7769,-81.727599 C 1034.8548,-83.586048 1027.0743,-84.321106 1021.8734,-80.243614 C 1021.6515,-79.439211 1021.499,-78.60707 1021.4435,-77.774928 C 996.85372,-69.065184 904.31961,-36.84745 845.63979,-23.768964 L 845.48723,-23.921524 C 838.44177,-23.172597 831.39631,-29.483001 827.69328,-35.030609 C 831.03571,-37.624115 833.98981,-41.341013 832.50583,-46.153563 C 831.77077,-49.482128 829.55173,-53.199025 826.20929,-55.418068 C 822.1318,-57.276517 817.69372,-53.934083 816.20973,-50.966113 C 813.97682,-52.089503 811.38331,-53.559619 810.27379,-55.792532 C 801.00928,-67.27608 786.55777,-68.760065 773.9647,-74.321542 C 770.2478,-74.682137 768.02875,-78.399034 763.59067,-78.024571 C 762.10668,-80.243614 759.87377,-82.102063 756.91967,-82.476526 C 752.84218,-82.837121 749.87421,-87.66354 745.06166,-86.914613 L 752.84218,-68.760065 C 745.79672,-60.605082 747.65516,-48.372606 740.98417,-40.231491 C 739.12572,-33.186029 737.64173,-27.250088 739.12572,-19.844032 C 740.23524,-19.095105 742.45428,-18.73451 741.71922,-16.876062 C 742.82875,-13.173033 748.76469,-16.501598 748.76469,-13.173033 C 749.87421,-13.173033 750.98373,-13.173033 751.73266,-13.908091 C 751.73266,-13.908091 752.10712,-14.310293 752.66188,-14.892792 C 758.20949,-13.838746 767.95941,-12.354761 780.63569,-11.8 C 780.6773,-6.3772134 782.18902,-2.3551976 786.55777,2.3880073 C 789.52574,3.1369343 792.11924,2.0274127 793.97769,0.5434276 C 795.44781,4.2464559 801.38375,7.2144262 798.41578,12.40144 C 797.68072,13.510961 800.64869,14.246019 799.1647,14.994946 C 801.00928,17.21399 801.38375,22.401003 802.11881,24.99451 C 802.86773,26.104031 803.60279,27.588017 803.60279,29.072002 C 805.46124,30.93045 806.1963,33.523957 807.30582,35.743 C 807.77737,36.921867 806.45981,37.795615 805.04517,38.378114 L 776.58594,34.023242 C 774.31142,33.676516 772.17559,35.229847 771.82887,37.504366 C 771.48214,39.778885 773.04934,41.914714 775.32386,42.26144 L 796.7515,45.548397 C 796.37703,46.006075 796.14126,46.297325 796.14126,46.297325 C 795.53102,49.556544 788.77681,52.052968 788.41621,56.865518 C 781.37075,60.568546 788.77681,66.87895 788.04175,72.426558 C 789.15127,75.394529 790.26079,78.362499 790.26079,81.691064 C 791.74478,84.28457 791.00972,89.485453 794.71275,90.955569 C 794.33829,95.033061 799.5253,96.89151 802.49327,99.485016 C 806.57076,101.34346 812.13224,103.56251 816.20973,101.34346 C 819.91276,97.626568 815.83527,92.439554 815.4608,88.001468 C 812.8673,82.814454 803.60279,88.001468 801.00928,82.439991 C 796.19673,80.207078 799.89976,75.394529 797.68072,72.065964 C 799.1647,70.207515 800.27423,67.614008 801.00928,65.020502 C 804.71231,53.897548 815.83527,58.349503 824.72531,57.614445 C 825.09977,57.975039 825.09977,58.723966 824.72531,59.084561 C 826.58376,67.988472 827.31882,75.020065 828.44221,82.814454 C 827.31882,90.594974 831.03571,96.517046 832.14523,103.18804 C 834.73874,104.29757 835.1132,107.26554 837.33225,109.48458 C 836.58332,110.23351 835.4738,110.5941 835.84826,111.71749 C 832.50583,117.27897 831.77077,124.31056 830.66125,129.87204 C 832.60291,131.16186 834.68326,132.03561 836.87457,132.63197 L 747.30844,132.63197 L 747.30844,144.12939 L 1337.2549,144.12939 L 1337.2549,132.63197 L 1283.9702,132.63197 z M 1257.8964,52.968323 C 1241.6142,58.723966 1229.9503,74.2434 1229.9503,92.49503 C 1229.9503,111.44011 1242.5157,127.44496 1259.7826,132.63197 L 1085.7541,132.63197 C 1103.0072,127.44496 1115.5864,111.44011 1115.5864,92.49503 C 1115.5864,89.693488 1115.309,86.961291 1114.782,84.312308 L 1121.2172,84.312308 C 1123.5195,84.312308 1125.3779,82.439991 1125.3779,80.137733 C 1125.3779,77.835476 1123.5195,75.963158 1121.2172,75.963158 L 1112.1885,75.963158 C 1107.5978,65.270144 1098.6801,56.865518 1087.6403,52.968323 L 1257.8964,52.968323 z M 1023.3713,-72.560177 L 1027.0743,-69.869587 L 1027.3101,-69.758635 C 1027.5597,-66.499415 1027.1991,-62.948946 1025.2159,-60.63282 C 1024.2173,-59.467822 1024.356,-57.720325 1025.521,-56.721756 C 1026.686,-55.723187 1028.4473,-55.848008 1029.4459,-57.026874 C 1031.762,-59.731333 1032.6774,-63.129243 1032.8854,-66.416201 C 1033.5095,-66.027868 1034.0782,-65.667274 1034.4804,-65.431501 C 1035.9644,-63.573052 1037.8089,-64.682573 1040.0418,-65.431501 C 1046.7128,-66.166559 1052.6349,-62.46353 1057.8219,-63.198588 L 1060.0548,-63.198588 C 1057.8219,-61.714603 1060.0548,-59.121096 1058.1964,-56.902053 C 1059.6804,-56.153126 1058.9314,-54.308547 1057.8219,-53.559619 C 1057.8219,-50.966113 1058.9314,-47.263084 1056.3379,-45.418505 C 1054.1189,-47.637548 1052.2605,-44.669578 1050.4159,-45.044041 C 1045.5895,-43.93452 1039.2929,-45.418505 1036.3249,-39.857028 C 1034.4804,-39.108101 1031.5124,-38.373043 1030.4029,-36.514594 C 1031.5124,-34.670014 1028.5444,-36.153999 1028.1838,-34.670014 C 1025.2159,-32.076507 1026.6998,-27.999016 1022.2479,-27.250088 C 1018.9193,-25.766103 1019.2799,-20.953553 1015.5769,-19.844032 C 1015.9514,-17.624989 1012.9834,-17.250525 1012.9834,-15.017613 C 1009.2804,-12.79857 1008.9059,-7.6115562 1004.8284,-7.2370926 C 1002.9838,-5.392513 1002.9838,-6.8764981 1000.7509,-5.7669765 C 997.04788,-7.2370926 997.42235,-11.689048 993.34485,-11.314585 C 990.98712,-11.314585 988.64326,-10.995597 987.11766,-9.553219 L 984.53803,-13.242378 C 983.06791,-15.3366 980.18315,-15.835885 978.08893,-14.365769 C 975.99471,-12.895653 975.48156,-10.010897 976.95167,-7.9166746 L 1018.2952,50.985053 C 1019.1551,52.233265 1020.5697,52.968323 1022.0815,52.968323 L 1059.6665,52.968323 C 1049.3896,56.602006 1040.9572,64.119015 1036.1308,73.771853 L 1000.8619,68.362935 C 1000.9173,59.833488 1000.529,46.144765 1000.529,46.144765 C 999.46109,36.769308 996.65955,26.617185 992.23533,18.697975 C 987.79725,10.778764 976.29983,1.2784857 976.29983,1.2784857 C 973.29025,-2.1332933 967.7149,-8.7765538 960.62784,-13.173033 C 944.26239,-23.311287 920.46315,-25.10039 889.27173,-19.857901 C 862.80964,-15.405945 852.9349,-18.221356 850.54942,-19.192188 C 909.81175,-32.880911 999.3224,-64.044599 1023.3713,-72.560177 z M 1041.1514,-23.921524 C 1046.3384,-24.656582 1051.1509,-23.172597 1055.9773,-26.140567 L 1058.1964,-26.140567 L 1039.7367,43.703818 L 1024.4947,43.703818 L 1005.2999,16.35411 C 1007.6577,14.883994 1007.1168,10.69555 1010.3899,11.291918 C 1015.5769,9.4334694 1015.5769,2.0274127 1021.5128,1.2784857 C 1023.3574,-2.0500791 1027.0743,-3.5340643 1030.0284,-6.127571 C 1031.1379,-8.7210778 1034.1059,-10.579526 1036.3249,-12.79857 C 1035.9644,-17.624989 1041.8864,-19.095105 1041.1514,-23.921524 z M 921.22595,56.172067 L 886.10959,50.790887 C 895.33249,45.93673 903.30718,38.308769 914.0418,37.601449 C 914.0418,37.601449 915.87251,45.784171 921.22595,56.172067 z M 764.70019,-26.140567 C 766.91923,-29.108537 769.8872,-31.702044 771.37119,-35.030609 C 774.69975,-32.811566 779.15171,-32.811566 783.5898,-32.076507 C 783.96426,-27.250088 784.71319,-22.437539 786.19717,-18.360047 C 785.83658,-17.985583 785.50372,-17.61112 785.18473,-17.264394 C 773.53476,-17.555644 764.03448,-18.692903 757.68247,-19.691473 C 759.76282,-22.035337 760.71978,-25.225212 764.70019,-26.140567 z M 977.78381,114.311 C 974.08078,118.38849 972.5968,122.09152 970.73835,127.27853 C 970.96026,130.14942 972.88805,131.56406 975.12096,132.63197 L 846.44419,132.63197 C 848.64937,127.1121 847.78949,119.38706 848.8158,113.56207 L 847.70627,112.07809 C 847.70627,109.85904 844.00325,107.64 844.36384,106.15601 C 845.11277,106.15601 844.36384,105.04649 845.48723,105.04649 C 846.22229,102.45299 843.62878,102.07852 843.62878,100.22007 C 847.33181,95.407524 842.89372,89.846047 841.7842,84.659034 C 841.7842,75.394529 839.92575,66.130023 839.55129,57.614445 L 840.66081,55.755996 C 849.81437,59.999916 860.70155,58.488193 870.2573,56.796173 L 926.69034,65.436572 C 929.61671,69.791444 933.13944,74.215662 937.38336,78.362499 C 939.97686,79.47202 938.13229,82.065527 938.13229,83.549512 C 939.97686,87.627004 938.86734,92.439554 939.97686,96.142582 C 935.53878,102.81358 933.30587,110.5941 929.22837,117.63956 C 927.74439,120.982 922.19678,123.20104 922.93184,127.653 C 923.68077,130.6071 926.63487,131.35602 928.86778,131.73049 C 933.68033,130.98156 941.08639,131.73049 942.20978,126.16901 C 938.86734,118.01403 946.2734,113.56207 948.13185,106.89107 C 949.61583,99.110553 953.31886,91.330033 951.47428,83.175049 C 953.31886,79.47202 952.9444,74.65947 954.42838,70.956442 C 961.84831,76.50405 965.55134,86.143019 975.92536,85.768555 C 975.92536,86.143019 975.19031,86.517483 975.19031,86.878077 C 975.19031,89.110989 977.03489,94.298003 978.51887,96.517046 C 978.89333,102.81358 975.5509,108.37506 977.78381,114.311 z M 986.43808,66.157761 L 983.30368,65.672346 C 980.18315,64.285444 977.72834,60.610153 977.03489,59.459025 C 976.10566,57.919563 973.24864,55.076414 973.24864,52.607729 C 973.24864,50.139043 970.00329,46.491491 970.00329,46.491491 C 974.63555,37.837222 978.51887,24.620046 978.51887,24.620046 C 978.51887,24.620046 980.51601,34.161932 981.94452,39.348946 C 983.37303,44.535959 983.16499,48.682796 982.74892,52.926716 C 982.33285,57.184505 986.67386,66.130023 986.67386,66.130023 C 986.59064,66.143892 986.5213,66.143892 986.43808,66.157761 z M 988.5323,110.5941 C 989.26736,105.40709 987.40891,98.736089 988.8929,93.188481 C 985.56433,90.594974 991.12581,88.736526 991.12581,85.407961 C 991.98569,81.080827 990.59879,77.877083 988.54617,74.922982 L 990.04403,75.144886 C 990.84843,75.810599 991.74992,76.296015 992.97039,76.143456 C 993.19229,76.004765 993.37259,75.852206 993.51128,75.671909 L 996.03544,76.060241 C 996.86758,85.685341 1002.6232,84.159749 1002.6232,84.159749 C 1002.6232,84.159749 1001.3334,81.358207 1000.8896,76.809169 L 1033.1212,81.74654 C 1032.2197,85.172188 1031.7343,88.778133 1031.7343,92.49503 C 1031.7343,111.44011 1044.2996,127.44496 1061.5527,132.63197 L 987.42278,132.63197 C 988.32427,131.67501 989.12867,130.51001 989.64183,129.49758 C 990.37688,122.82658 990.37688,117.63956 988.5323,110.5941"
       style="fill:black;fill-rule:nonzero;stroke:none"
       id="path250" />
  </g>
</svg>
