<?xml version="1.0" encoding="UTF-8" standalone="no"?>
<!-- Created with Inkscape (http://www.inkscape.org/) -->
<svg
   xmlns:svg="http://www.w3.org/2000/svg"
   xmlns="http://www.w3.org/2000/svg"
   version="1.0"
   width="960"
   height="960"
   id="svg3413">
  <defs
     id="defs3415" />
  <g
     transform="translate(-756.7701,392.9798)"
     id="layer1">
    <path
       d="M 756.77007,87.02018 C 756.77007,-178.07532 971.68531,-392.97982 1236.7631,-392.97982 C 1501.8548,-392.97982 1716.7701,-178.07532 1716.7701,87.02018 C 1716.7701,352.11568 1501.8548,567.02018 1236.7631,567.02018 C 971.68531,567.02018 756.77007,352.11568 756.77007,87.02018 z "
       style="fill:#ee1c23;fill-rule:nonzero;stroke:none"
       id="path3426" />
    <path
       d="M 1236.7631,442.94147 C 1433.3279,442.94147 1592.6793,283.58778 1592.6793,87.02018 C 1592.6793,-109.54742 1433.3279,-268.90111 1236.7631,-268.90111 C 1040.2122,-268.90111 880.86084,-109.54742 880.86084,87.02018 C 880.86084,283.58778 1040.2122,442.94147 1236.7631,442.94147"
       style="fill:white;fill-rule:nonzero;stroke:none"
       id="path154" />
    <path
       d="M 1166.8513,226.30577 L 1166.8513,-150.91623 L 1070.7363,-150.91623 L 1070.7363,226.30577 L 1027.3046,226.30577 L 1118.6415,328.47439 L 1210.2831,226.30577 L 1166.8513,226.30577"
       style="fill:black;fill-rule:nonzero;stroke:none"
       id="path156" />
    <path
       d="M 1297.8806,-62.804969 L 1297.8806,314.41703 L 1393.9817,314.41703 L 1393.9817,-62.804969 L 1437.4135,-62.804969 L 1346.0766,-164.97359 L 1254.435,-62.804969 L 1297.8806,-62.804969"
       style="fill:#ee1c23;fill-rule:nonzero;stroke:none"
       id="path158" />
  </g>
</svg>
