<?xml version="1.0" encoding="UTF-8" standalone="no"?>
<!-- Created with Inkscape (http://www.inkscape.org/) -->
<svg
   xmlns:svg="http://www.w3.org/2000/svg"
   xmlns="http://www.w3.org/2000/svg"
   version="1.0"
   width="960"
   height="960"
   id="svg10934">
  <defs
     id="defs10936" />
  <g
     transform="translate(-676.7706,824.4079)"
     id="layer1">
    <path
       d="M 676.77057,-344.40097 C 676.77057,-609.49264 891.67507,-824.40789 1156.7706,-824.40789 C 1421.8661,-824.40789 1636.7706,-609.49264 1636.7706,-344.40097 C 1636.7706,-79.309288 1421.8661,135.59211 1156.7706,135.59211 C 891.67507,135.59211 676.77057,-79.309288 676.77057,-344.40097"
       style="fill:#176fc1;fill-rule:nonzero;stroke:none"
       id="path10420" />
    <path
       d="M 1199.0534,-170.4246 C 1199.0534,-104.57062 1252.4299,-51.194972 1318.2848,-51.194972 C 1384.1259,-51.194972 1437.5161,-104.57062 1437.5161,-170.4246 L 1437.5161,-514.91498 C 1437.5161,-580.76895 1384.1259,-634.1446 1318.2848,-634.1446 C 1252.4299,-634.1446 1199.0534,-580.76895 1199.0534,-514.91498 L 1199.0534,-170.4246 z M 1358.0332,-170.4246 C 1358.0332,-148.47327 1340.2364,-130.67677 1318.2848,-130.67677 C 1296.3332,-130.67677 1278.5364,-148.47327 1278.5364,-170.4246 L 1278.5364,-514.91498 C 1278.5364,-536.8663 1296.3332,-554.6628 1318.2848,-554.6628 C 1340.2364,-554.6628 1358.0332,-536.8663 1358.0332,-514.91498 L 1358.0332,-170.4246"
       style="fill:white;fill-rule:nonzero;stroke:none"
       id="path10422" />
    <path
       d="M 1114.5292,-334.59559 C 1109.9173,-342.28201 1096.9679,-347.22625 1096.9679,-347.22625 C 1096.9679,-347.22625 1105.9979,-351.36723 1112.1887,-358.01493 C 1121.7449,-368.24965 1120.4707,-380.03551 1120.4707,-380.03551 L 1120.4707,-514.91498 C 1120.4707,-580.76895 1067.0943,-634.1446 1001.2394,-634.1446 C 935.3983,-634.1446 882.00803,-580.76895 882.00803,-514.91498 L 961.50483,-514.91498 C 961.50483,-536.8663 979.28774,-554.6628 1001.2394,-554.6628 C 1023.191,-554.6628 1040.9878,-536.8663 1040.9878,-514.91498 L 1040.9878,-396.72405 L 1040.8354,-396.72405 C 1040.8354,-389.41156 1034.9078,-383.48401 1027.5952,-383.48401 L 1027.5952,-383.45631 L 961.13089,-383.45631 L 961.13089,-309.14036 L 1028.1215,-309.14036 C 1035.1848,-308.86337 1040.8354,-303.08816 1040.8354,-295.95571 L 1040.9878,-295.95571 L 1040.9878,-170.4246 C 1040.9878,-148.47327 1023.191,-130.67677 1001.2394,-130.67677 C 979.28774,-130.67677 961.50483,-148.47327 961.50483,-170.4246 L 882.00803,-170.4246 C 882.00803,-104.57062 935.3983,-51.194972 1001.2394,-51.194972 C 1067.0943,-51.194972 1120.4707,-104.57062 1120.4707,-170.4246 L 1120.4707,-308.43404 C 1120.4707,-308.43404 1121.5648,-322.87898 1114.5292,-334.59559"
       style="fill:white;fill-rule:nonzero;stroke:none"
       id="path10424" />
  </g>
</svg>
