<?xml version="1.0" encoding="UTF-8" standalone="no"?>
<!-- Created with Inkscape (http://www.inkscape.org/) -->
<svg
   xmlns:svg="http://www.w3.org/2000/svg"
   xmlns="http://www.w3.org/2000/svg"
   version="1.0"
   width="960"
   height="960"
   id="svg10804">
  <defs
     id="defs10806" />
  <g
     transform="translate(-445.342,578.6941)"
     id="layer1">
    <path
       d="M 445.342,-98.6941 C 445.342,-363.7896 660.2465,-578.6941 925.342,-578.6941 C 1190.4375,-578.6941 1405.342,-363.7896 1405.342,-98.6941 C 1405.342,166.4014 1190.4375,381.3059 925.342,381.3059 C 660.2465,381.3059 445.342,166.4014 445.342,-98.6941"
       style="fill:#176fc1;fill-rule:nonzero;stroke:none"
       id="path10498" />
    <path
       d="M 1007.858,-393.30314 L 1007.8026,-393.26159 C 1003.7862,-395.31133 999.2574,-396.48855 994.43774,-396.48855 C 978.20599,-396.48855 965.04885,-383.33141 965.04885,-367.11351 C 965.04885,-363.20792 965.82443,-359.51007 967.19554,-356.10307 L 986.48806,-296.23118 L 958.74727,-296.23118 C 794.32463,-296.23118 661.02207,-162.94247 661.02207,1.494024 L 661.02207,226.49489 L 793.25821,226.49489 L 793.25821,1.494024 C 793.25821,-89.913443 867.35366,-164.00889 958.74727,-164.00889 L 986.37726,-164.00889 L 967.19554,-104.51094 C 965.82443,-101.10393 965.04885,-97.392236 965.04885,-93.500494 C 965.04885,-77.268744 978.20599,-64.111608 994.43774,-64.111608 C 999.2574,-64.111608 1003.7862,-65.288826 1007.8026,-67.352418 L 1007.858,-67.31087 L 1287.094,-230.307 L 1007.858,-393.30314"
       style="fill:white;fill-rule:nonzero;stroke:none"
       id="path10500" />
  </g>
</svg>
