<?xml version="1.0" encoding="UTF-8" standalone="no"?>
<!-- Created with Inkscape (http://www.inkscape.org/) -->
<svg
   xmlns:svg="http://www.w3.org/2000/svg"
   xmlns="http://www.w3.org/2000/svg"
   version="1.0"
   width="960"
   height="960"
   id="svg10914">
  <defs
     id="defs10916" />
  <g
     transform="translate(-376.7706,213.0283)"
     id="layer1">
    <path
       d="M 376.77057,266.96475 C 376.77057,1.8860821 591.67507,-213.02832 856.77057,-213.02832 C 1121.8661,-213.02832 1336.7706,1.8860821 1336.7706,266.96475 C 1336.7706,532.05728 1121.8661,746.97168 856.77057,746.97168 C 591.67507,746.97168 376.77057,532.05728 376.77057,266.96475"
       style="fill:#176fc1;fill-rule:nonzero;stroke:none"
       id="path10412" />
    <path
       d="M 1156.3793,375.19861 C 1165.7555,381.05134 1179.8267,399.81613 1179.8267,399.81613 C 1177.4723,379.88634 1163.4011,363.46542 1163.4011,363.46542 C 1144.6487,349.40223 1151.6843,345.87949 1136.4497,303.67605 C 1121.2013,261.47261 1144.6487,246.23055 1096.5767,215.76031 C 1076.7717,203.19497 1055.9835,201.10075 1044.1697,201.11462 C 1043.6711,200.51825 1043.1726,199.92188 1042.6601,199.33938 C 1013.6175,166.67783 947.36091,172.64151 899.87058,175.9146 C 893.72135,162.83611 881.86607,137.53901 876.76942,126.06933 C 869.73381,110.24477 876.76942,89.732483 879.11,79.760654 C 881.45059,69.802695 884.3867,68.041329 885.56392,35.213348 C 886.67189,4.0219119 857.10296,-8.6405074 854.16684,-9.8193745 L 856.24428,-10.498957 L 850.3859,-19.888286 L 843.1564,-16.573589 C 846.60495,-25.352682 847.14509,-35.976354 845.70473,-42.161939 C 841.32825,-60.885122 831.63352,-74.393552 812.63184,-70.080286 C 802.99251,-67.875111 796.10925,-59.623041 793.54707,-49.110321 L 793.53322,-49.193535 L 793.53322,-50.954901 C 793.53322,-50.954901 792.356,-37.474209 783.5615,-33.368978 C 783.5615,-33.368978 778.88033,-26.337383 783.5615,-25.741014 L 793.32548,-31.260886 C 793.45012,-30.664518 793.58862,-30.06815 793.74097,-29.457913 C 796.77403,-17.308648 804.62676,-7.9609252 813.91986,-3.9527772 L 807.0089,-1.1234962 L 809.61263,4.077388 C 809.19714,4.091257 808.29691,4.6182799 806.42721,6.4905982 C 802.32773,10.595829 785.3204,39.318579 780.63923,48.11154 C 775.94421,56.904502 778.88033,55.143136 770.66751,63.936097 C 763.85349,71.245073 727.52595,103.21317 715.40754,113.83685 C 658.9011,61.106816 649.42797,63.173301 626.4653,55.143136 C 606.92349,48.305707 592.2706,54.491292 587.93567,56.751943 C 574.66774,50.857607 570.19431,44.588808 570.19431,44.588808 C 570.19431,44.588808 567.95067,52.466414 567.72908,59.054201 C 565.87323,58.0695 564.11433,56.959978 562.57702,55.725635 C 553.78252,48.694039 544.98801,49.276538 544.98801,49.276538 C 544.98801,49.276538 540.88852,49.276538 544.40633,53.38177 C 547.92413,57.487001 549.36449,62.1886 556.71863,65.697463 C 565.0561,69.677873 565.59624,73.380903 565.06995,78.456966 C 558.20054,86.501 552.03746,95.682294 550.8464,103.79567 C 550.8464,103.79567 549.68303,152.44821 547.92413,165.3464 C 547.92413,165.3464 542.64742,196.99552 539.71131,204.02711 C 539.71131,204.02711 533.85292,209.31121 541.47021,215.16394 C 541.47021,215.16394 549.0875,219.26917 557.30032,228.06213 C 557.30032,228.06213 560.23644,229.8235 566.09482,225.71827 C 566.09482,225.71827 563.15871,229.8235 571.95321,229.241 C 580.74772,228.64463 587.20164,226.89713 588.36501,216.92531 C 588.642,214.60918 589.27908,211.80764 590.13776,208.77032 C 601.78529,201.36426 615.30251,196.95391 628.80589,192.89029 C 630.2324,192.44648 631.67276,192.07201 633.09927,191.71142 C 636.72787,203.43074 641.79683,215.28876 647.57212,226.30077 C 660.46611,250.93215 659.28889,264.99534 661.64333,284.92513 C 663.70692,302.55266 663.05599,341.24724 688.83012,355.64329 C 681.08819,371.74522 662.43275,408.88647 645.61932,429.89804 C 645.61932,429.89804 637.01871,433.80911 640.9243,450.23003 C 640.9243,450.23003 640.9243,450.23003 638.58372,458.03829 C 633.81945,473.90446 613.88985,518.06343 606.86809,526.66223 C 606.86809,526.66223 600.85736,532.55656 607.11739,536.46763 L 604.9707,543.23571 C 604.9707,543.23571 593.61401,555.27402 601.59139,575.78631 L 625.21884,565.3152 L 627.29628,564.23341 C 627.29628,564.23341 625.14959,553.81778 624.27706,548.20082 C 623.50148,543.31893 629.20753,545.57958 622.17192,541.66851 C 618.75107,539.76846 622.17192,535.41358 622.17192,535.41358 C 628.95823,532.72299 626.07751,525.24759 626.07751,525.24759 C 637.79429,493.98681 647.95991,459.60549 657.3361,454.12723 C 666.72614,448.66283 666.73999,442.44951 666.73999,442.44951 C 666.73999,442.44951 665.21653,441.95023 667.47402,438.45523 C 669.7315,434.97411 695.40869,409.8157 703.34452,402.64541 C 703.37222,402.82571 709.05056,397.19488 713.0808,389.99686 C 717.24954,382.54919 719.78402,373.53433 719.81171,373.7285 C 719.88096,374.04748 723.03868,376.51617 723.03868,376.51617 C 721.29362,379.34545 720.69809,386.84859 717.02794,392.34073 C 712.00053,399.88548 703.89851,405.37761 703.94005,405.54404 C 706.77923,418.6364 712.92846,436.3194 724.35439,460.18799 C 724.35439,460.18799 722.59549,467.81596 727.6783,471.32482 C 727.6783,471.32482 760.50189,516.66266 766.76191,529.15865 C 773.00809,541.66851 769.1025,540.10131 775.36253,540.89185 L 784.73872,550.26731 L 786.83001,552.98564 L 792.06516,555.46819 C 792.06516,555.46819 793.75482,571.94459 814.48769,579.30904 L 822.00803,554.59444 L 822.54817,552.30605 C 822.56202,552.30605 813.26893,547.11904 808.44926,544.10946 C 804.23898,541.50208 809.68187,538.6728 802.11998,541.43274 C 798.44984,542.77803 795.67991,544.01238 795.67991,544.01238 L 790.5971,539.90715 C 790.5971,539.90715 803.4911,535.41358 777.70311,513.52826 C 751.91513,491.64294 751.1257,469.75762 751.1257,469.75762 C 755.82072,461.15883 747.22011,456.47109 747.22011,456.47109 C 750.46092,441.79767 745.6551,405.68273 743.31451,400.98113 C 740.97393,396.2934 743.31451,394.7262 744.87952,390.829 C 749.0621,380.37176 748.93746,370.28898 747.3309,362.00917 C 773.83907,362.82744 798.25594,361.95369 818.97497,359.58209 C 823.94698,362.53619 830.04081,365.73994 836.31469,368.16702 C 851.56311,374.01974 844.52751,358.77769 844.52751,358.77769 C 844.52751,358.77769 862.11652,362.30042 873.8333,363.46542 C 880.55036,364.145 879.95483,354.42281 878.22363,345.99045 C 893.55515,342.39837 897.2807,344.7145 897.2807,344.7145 C 896.14503,351.82931 902.40506,358.33388 901.93417,364.31143 C 898.54101,407.56891 910.95027,422.45038 913.69249,430.68858 C 916.82251,440.06404 916.03308,463.51656 916.03308,463.51656 C 905.88131,487.74574 883.99892,525.24759 880.8689,534.63692 C 877.73889,544.01238 881.64448,546.35624 881.64448,546.35624 L 876.96331,551.82064 C 863.68153,557.2989 855.8565,582.30475 855.8565,582.30475 L 890.24509,577.61702 C 901.97572,551.82064 888.68009,554.17837 888.68009,554.17837 L 893.37511,548.70011 C 905.88131,547.92344 906.65689,539.32465 906.65689,539.32465 C 912.12749,493.98681 948.87052,451.78336 951.2111,443.9751 C 953.55169,436.15297 949.6461,436.15297 948.08109,432.24191 C 946.51608,428.34471 946.51608,415.83485 946.51608,415.83485 C 940.26991,365.80928 971.52849,350.96943 977.78852,345.49116 C 984.03469,340.02677 979.35352,334.5485 979.35352,334.5485 C 971.52849,322.82918 969.18791,302.51106 969.18791,302.51106 L 974.6585,296.64446 C 974.6585,296.64446 987.5525,359.95655 1027.4117,388.0968 C 1027.4117,388.0968 1069.6253,436.15297 1084.8599,464.29322 C 1100.0945,492.43348 1090.7183,477.19142 1094.2361,492.43348 C 1097.7539,507.67553 1106.9223,539.71298 1114.1657,555.7317 C 1121.5891,572.15263 1145.0365,590.90355 1145.0365,590.90355 L 1158.3321,563.55383 C 1158.3321,563.55383 1155.2021,554.95504 1141.1309,558.07557 L 1142.6959,551.04397 C 1142.6959,551.04397 1138.7903,554.95504 1130.9791,545.57958 C 1130.9791,545.57958 1127.8491,553.38784 1129.8435,542.57 C 1131.8516,531.76603 1123.9435,526.81479 1123.9435,526.81479 C 1109.0829,501.80894 1106.7423,472.10149 1106.7423,472.10149 C 1108.3073,469.75762 1108.3073,464.29322 1108.3073,464.29322 C 1106.5345,452.1717 1105.1773,436.94351 1094.1945,418.98312 C 1079.1539,394.3656 1070.7887,366.98815 1070.7887,366.98815 C 1072.88,339.81873 1078.6968,261.3894 1053.352,214.78948 C 1090.7044,217.64649 1098.5433,246.77145 1093.0727,254.44102 C 1087.2005,262.65148 1086.0371,282.58127 1093.0727,289.61286 C 1100.0945,296.64446 1094.2361,304.85492 1102.4489,324.78471 C 1110.6479,344.7145 1132.7103,370.5941 1132.7103,370.5941 C 1130.619,369.19332 1140.4523,378.69361 1136.4497,371.67588 C 1122.3785,347.05836 1107.1301,307.19879 1107.1301,307.19879 C 1121.2013,324.78471 1131.6439,354.72793 1137.6131,367.57065 C 1145.2304,383.99157 1148.7482,388.6793 1158.1244,396.88977 C 1167.5144,405.08636 1175.1317,416.22319 1175.1317,416.22319 C 1176.3089,406.84773 1170.4367,397.47227 1164.5783,391.60567 C 1158.7199,385.73907 1156.3793,375.19861 1156.3793,375.19861 z M 579.432,63.741931 C 579.22426,63.672586 579.01652,63.61711 578.82262,63.547765 L 579.99984,63.214908 C 579.80594,63.395205 579.61205,63.561634 579.432,63.741931 z M 617.6708,185.27619 C 609.47182,188.20256 601.259,191.72529 594.81893,197.57802 C 594.38959,197.8554 593.9741,198.10504 593.55861,198.36855 C 598.00434,186.16381 603.61343,174.13937 603.61343,174.13937 C 603.61343,174.13937 620.45457,166.5114 626.29911,148.67584 C 628.3904,142.29609 629.9831,128.41319 627.64252,150.68684 C 626.6592,160.03457 627.73947,170.51955 630.2878,181.35126 C 626.03596,182.44691 621.83953,183.73673 617.6708,185.27619 z M 778.0909,159.16082 C 772.14941,156.33154 766.05558,153.01684 759.78171,149.11965 C 784.93261,136.41562 801.15051,120.2166 801.15051,120.2166 C 796.0123,131.78336 786.80231,146.40132 778.0909,159.16082"
       style="fill:white;fill-rule:nonzero;stroke:none"
       id="path10414" />
  </g>
</svg>
