<?xml version="1.0" encoding="UTF-8" standalone="no"?>
<!-- Created with Inkscape (http://www.inkscape.org/) -->
<svg
   xmlns:svg="http://www.w3.org/2000/svg"
   xmlns="http://www.w3.org/2000/svg"
   version="1.0"
   width="960"
   height="960"
   id="svg10967">
  <defs
     id="defs10969" />
  <g
     transform="translate(-315.391,392.9798)"
     id="layer1">
    <path
       d="M 315.391,87.02018 C 315.391,-178.07532 530.30851,-392.97982 795.391,-392.97982 C 1060.4874,-392.97982 1275.391,-178.07532 1275.391,87.02018 C 1275.391,352.11568 1060.4874,567.02018 795.391,567.02018 C 530.30851,567.02018 315.391,352.11568 315.391,87.02018"
       style="fill:#176fc1;fill-rule:nonzero;stroke:none"
       id="path10986" />
    <path
       d="M 1014.3722,80.926349 C 1014.3722,207.89963 980.69771,323.61317 928.6049,375.71543 C 908.34197,395.97742 886.24829,406.23998 862.93412,406.23998 L 728.29169,406.23998 C 704.97752,406.23998 682.88385,395.97742 662.62091,375.71543 C 610.51423,323.61317 576.85363,207.89963 576.85363,80.926349 C 576.85363,-48.165924 609.54339,-161.05415 662.16323,-213.66884 C 682.55099,-234.05547 704.79722,-244.38729 728.29169,-244.38729 L 862.93412,-244.38729 C 886.24829,-244.38729 908.34197,-234.11087 928.6049,-213.84888 C 980.69771,-161.74663 1014.3722,-46.046933 1014.3722,80.926349"
       style="fill:white;fill-rule:nonzero;stroke:none"
       id="path10988" />
    <path
       d="M 921.94768,-206.91023 C 903.59869,-225.26097 883.83505,-234.56791 863.21151,-234.56791 L 728.56908,-234.56791 C 649.16776,-234.56791 586.95042,-95.988649 586.95042,80.926349 C 586.95042,205.4344 619.48762,318.41957 669.84678,368.76292 C 688.19576,387.12751 707.95941,396.43446 728.56908,396.43446 L 863.21151,396.43446 C 883.83505,396.43446 903.59869,387.12751 921.94768,368.76292 C 972.30683,318.41957 1004.8302,205.4344 1004.8302,80.926349 C 1004.8302,-43.567852 972.30683,-156.55302 921.94768,-206.91023 z M 923.44555,246.47081 C 922.64114,245.70908 922.18345,244.68421 922.14185,243.57624 C 922.11411,242.46827 922.51631,241.40185 923.27912,240.59857 C 924.84634,238.93662 927.49537,238.85352 929.15967,240.43238 L 956.84265,266.5943 C 957.64706,267.36988 958.11861,268.39475 958.14635,269.50272 C 958.17409,270.61069 957.77188,271.67711 957.00908,272.48039 C 956.24627,273.28367 955.21995,273.74071 954.11041,273.78226 C 953.55564,273.7961 953.02861,273.69916 952.52932,273.51911 C 952.39062,273.40832 952.2658,273.28367 952.12711,273.18672 C 951.94681,273.07592 951.73877,273.00668 951.5446,272.90973 C 951.41978,272.81278 951.25335,272.75738 951.12852,272.64659 L 923.44555,246.47081 z M 950.47667,283.61548 C 949.88029,284.55726 948.95106,285.20819 947.86926,285.45748 L 910.72747,293.87805 C 909.6318,294.12734 908.52227,293.93345 907.59303,293.35176 C 906.64992,292.75623 905.99807,291.82831 905.74842,290.74804 C 905.23526,288.51825 906.64992,286.28846 908.88287,285.77602 L 946.03852,277.34161 C 946.91228,277.14771 947.79991,277.30006 948.6182,277.66015 C 948.88171,277.85404 949.17296,277.99254 949.45035,278.14488 C 950.21316,278.74042 950.79566,279.52985 951.0037,280.47162 C 951.25335,281.56574 951.05918,282.67371 950.47667,283.61548 z M 956.87038,282.14742 C 956.87038,280.85941 957.36968,279.66834 958.27118,278.75427 C 958.7566,278.26953 959.33911,277.92329 959.96322,277.68785 C 959.14494,279.93148 958.31278,282.14742 957.46676,284.33566 C 957.10616,283.65703 956.87038,282.93685 956.87038,282.14742 z M 963.47213,267.70227 C 963.0838,265.74948 962.12682,263.96288 960.64281,262.57792 L 932.95984,236.40214 C 930.99041,234.54629 928.43847,233.67377 925.91427,233.78456 C 925.91427,233.74301 925.92814,233.70147 925.92814,233.65992 C 925.84493,231.07004 924.777,228.67406 922.89078,226.88745 L 895.20781,200.72553 C 893.27999,198.89738 890.7974,198.0387 888.32868,198.08025 C 888.52284,197.20773 888.64767,196.3075 888.64767,195.39343 C 888.64767,195.11643 888.57832,194.83944 888.56445,194.56245 C 888.66154,194.604 888.74475,194.6594 888.85571,194.70095 C 891.29669,195.57347 893.93184,195.43498 896.26187,194.32701 L 930.68529,177.98446 C 933.12627,176.82109 934.85992,174.74365 935.67821,172.36152 C 935.71982,172.37536 935.74755,172.40306 935.77529,172.41691 C 938.21628,173.28944 940.85143,173.15094 943.19533,172.04297 L 977.60488,155.68658 C 979.81008,154.64786 981.47439,152.83356 982.38976,150.58992 C 983.83216,151.32395 985.41325,151.75329 987.07756,151.75329 C 987.18851,151.75329 987.28559,151.71174 987.39655,151.71174 C 983,194.6594 974.73395,234.07541 963.47213,267.70227 z M 920.38045,233.82611 C 920.42206,234.93408 920.01985,235.98665 919.25705,236.78993 C 918.49424,237.60706 917.45405,238.06409 916.34451,238.09179 C 915.23497,238.11949 914.18091,237.71785 913.3765,236.95613 L 885.69352,210.7942 C 884.87524,210.03247 884.41755,208.99375 884.38982,207.88578 C 884.36208,206.77781 884.76428,205.72524 885.52709,204.92196 C 887.09431,203.24616 889.72947,203.17691 891.39377,204.75577 L 919.09062,230.91769 C 919.89503,231.67942 920.35272,232.71814 920.38045,233.82611 z M 890.32584,181.80695 L 924.73539,165.46441 C 925.73397,164.99352 926.87125,164.93812 927.91144,165.31206 C 928.95163,165.67215 929.79766,166.43388 930.26921,167.4449 C 931.25393,169.50849 930.3663,171.98758 928.29978,172.9709 L 893.89023,189.31345 C 892.89165,189.79818 891.75437,189.85358 890.71418,189.47964 C 889.66012,189.1057 888.82797,188.35782 888.35641,187.3468 C 887.3717,185.28321 888.24546,182.79028 890.32584,181.80695 z M 987.96519,146.11649 C 987.67393,146.17189 987.38268,146.19959 987.07756,146.19959 C 985.77385,146.19959 984.53949,145.701 983.62412,144.77308 C 982.69488,143.85901 982.19559,142.62639 982.19559,141.32453 C 982.19559,140.02266 982.69488,138.79005 983.62412,137.87597 C 984.53949,136.94805 985.77385,136.43561 987.07756,136.43561 C 987.66006,136.43561 988.2287,136.57411 988.75573,136.768 C 988.50609,139.89801 988.25644,143.02803 987.96519,146.11649 z M 982.20946,131.14506 C 981.72403,132.14223 980.87801,132.89011 979.82395,133.2502 C 978.78376,133.61029 977.64648,133.54104 976.66177,133.0563 L 942.44639,116.28442 C 941.44781,115.79968 940.69887,114.94101 940.33827,113.90229 C 939.97767,112.84971 940.06088,111.71405 940.54631,110.71687 C 941.55876,108.66713 944.04135,107.80845 946.10787,108.81948 L 980.30937,125.59136 C 982.37589,126.60238 983.22191,129.09531 982.20946,131.14506 z M 974.8449,143.01418 C 975.88509,143.38812 976.71724,144.14985 977.20267,145.14702 C 977.67422,146.15804 977.7297,147.27986 977.35523,148.33243 C 976.99463,149.37115 976.23182,150.21598 975.23324,150.68687 L 940.80982,167.02941 C 939.81124,167.51415 938.68783,167.56955 937.63377,167.19561 C 936.59358,166.82167 935.76142,166.05994 935.276,165.06277 C 934.29129,162.98533 935.17892,160.50624 937.24543,159.52292 L 971.66885,143.18037 C 972.66743,142.70949 973.79084,142.64024 974.8449,143.01418 z M 987.99292,130.99271 C 988.71412,126.85168 986.71696,122.5583 982.75036,120.6055 L 948.54885,103.84746 C 946.10787,102.64255 943.41724,102.58715 941.03173,103.43198 C 941.03173,103.39043 941.01786,103.34888 941.01786,103.32118 C 940.17184,100.8698 938.42432,98.889301 936.10815,97.753633 L 901.89278,80.981747 C 900.32555,80.206169 898.63351,79.943026 896.99694,80.053823 C 896.98307,79.832229 896.9692,79.624485 896.94146,79.402891 C 897.02468,79.416741 897.09403,79.45829 897.17724,79.472139 C 899.82626,79.901477 902.48915,79.250545 904.66662,77.671689 L 937.10674,53.933447 C 939.43677,52.243794 940.79595,49.709314 941.14268,47.036338 C 941.23977,47.064037 941.32298,47.091736 941.42007,47.119436 C 944.06909,47.534924 946.73198,46.897842 948.90945,45.305136 L 981.34957,21.580743 C 983.47156,20.029586 984.77526,17.799798 985.26069,15.389965 C 986.10671,15.763904 987.00821,15.971649 987.93745,16.096295 C 989.92075,37.120013 990.98868,58.822361 990.98868,80.926349 C 990.98868,98.030625 990.36456,114.78866 989.19955,131.11736 C 988.81121,131.04811 988.39513,131.02041 987.99292,130.99271 z M 895.83193,86.009158 C 896.94146,85.469023 898.25904,85.372076 899.45179,85.95376 L 933.66717,102.72564 C 934.66576,103.21038 935.41469,104.05521 935.77529,105.10778 C 936.12202,106.16035 936.05268,107.28217 935.56725,108.27934 C 934.5548,110.34293 932.05834,111.18776 930.0057,110.19059 L 895.80419,93.418703 C 894.8056,92.933966 894.05667,92.07529 893.69607,91.036569 C 893.47416,90.399486 893.47416,89.762404 893.55737,89.125322 C 893.62672,89.056074 893.69607,89.014525 893.76541,88.945277 C 894.6253,88.0866 895.29103,87.075578 895.83193,86.009158 z M 896.12318,65.73332 L 928.57717,42.008927 C 929.54801,41.302597 930.7269,41.011755 931.90578,41.205649 C 933.09853,41.385694 934.13872,42.036626 934.84606,43.033799 C 936.33006,45.097392 935.87238,47.978112 933.8336,49.460021 L 901.39348,73.198263 C 900.42264,73.904593 899.24376,74.195435 898.051,74.001541 C 896.87212,73.807646 895.81806,73.156714 895.11073,72.159542 C 893.64059,70.109799 894.09827,67.215229 896.12318,65.73332 z M 888.0929,-34.011616 C 889.16083,-34.828744 890.54775,-35.174984 891.9208,-34.717947 L 927.98079,-22.447187 C 929.03485,-22.087097 929.88087,-21.339218 930.3663,-20.342045 C 930.86559,-19.344873 930.93493,-18.223054 930.57433,-17.170483 C 930.21373,-16.117912 929.47867,-15.273086 928.48008,-14.774499 C 927.4815,-14.289763 926.35809,-14.220515 925.30403,-14.580605 L 889.24404,-26.851365 C 888.18998,-27.211455 887.34396,-27.945484 886.84467,-28.942657 C 886.73371,-29.1781 886.71985,-29.441243 886.6505,-29.690536 C 887.38557,-31.033949 887.88486,-32.488159 888.0929,-34.011616 z M 885.13875,-43.914092 C 884.94458,-44.121836 884.80589,-44.35728 884.59785,-44.565024 C 884.58398,-44.565024 884.57012,-44.578874 884.57012,-44.592723 C 883.48832,-46.254677 883.71022,-48.498315 885.23584,-49.800179 L 912.8772,-73.455323 C 913.64001,-74.106255 914.59699,-74.424797 915.59557,-74.327849 C 916.59416,-74.244752 917.49565,-73.760015 918.14751,-72.956737 C 919.52056,-71.280934 919.29865,-68.774153 917.66209,-67.375342 L 890.03459,-43.734047 C 889.27178,-43.069265 888.30094,-42.764574 887.31622,-42.847672 C 886.48407,-42.91692 885.749,-43.332408 885.13875,-43.914092 z M 929.76992,-27.696191 C 929.76992,-27.696191 897.55171,-38.651238 894.02893,-39.856154 C 897.30206,-42.653777 921.26808,-63.165059 921.26808,-63.165059 C 923.22364,-64.840862 924.33318,-67.167598 924.54122,-69.577431 C 927.00994,-69.369687 929.42319,-70.145265 931.32327,-71.76567 L 958.95077,-95.406965 C 961.53044,-97.622904 962.59837,-100.97451 962.11295,-104.14607 C 962.62611,-104.24302 963.1254,-104.39537 963.61083,-104.57541 C 973.59667,-74.687939 981.14153,-40.590184 985.74611,-3.9302499 C 985.59355,-3.8610018 985.42712,-3.8333026 985.27456,-3.7779041 C 985.10813,-4.5534826 984.88622,-5.3152115 984.52562,-6.0492412 C 983.37447,-8.3759767 981.40504,-10.121028 978.95019,-10.952005 L 942.87634,-23.222765 C 940.31053,-24.095291 937.63377,-23.818299 935.38695,-22.68263 C 935.37309,-22.724179 935.35922,-22.751878 935.34535,-22.793427 C 934.1942,-25.120163 932.22477,-26.851365 929.76992,-27.696191 z M 958.40987,-110.4338 C 957.84123,-111.01548 957.52224,-111.77721 957.52224,-112.59434 C 957.52224,-113.39762 957.84123,-114.15935 958.40987,-114.74103 C 958.79821,-115.12882 959.28363,-115.33656 959.78292,-115.47506 C 960.47638,-113.60536 961.16984,-111.74951 961.83557,-109.83827 C 961.44723,-109.65822 961.03115,-109.54742 960.57347,-109.54742 C 959.75518,-109.54742 958.99238,-109.85211 958.40987,-110.4338 z M 952.69575,-117.19241 C 952.37676,-115.98749 951.61395,-114.97647 950.53215,-114.35324 C 949.49196,-113.75771 948.27146,-113.59151 947.10645,-113.91005 L 908.12006,-124.49116 C 905.67908,-125.15594 904.22281,-127.71812 904.88853,-130.1972 C 905.20752,-131.41597 905.97033,-132.42699 907.05213,-133.03637 C 908.09232,-133.64576 909.31281,-133.7981 910.47783,-133.49341 L 949.46422,-122.9123 C 951.9052,-122.24752 953.3476,-119.68534 952.69575,-117.19241 z M 950.54602,-105.69723 C 951.30882,-106.34816 952.27967,-106.6667 953.26439,-106.58361 C 954.26297,-106.48666 955.17834,-106.00192 955.83019,-105.21249 C 957.18938,-103.52284 956.98134,-101.01606 955.34477,-99.617249 L 927.71727,-75.975954 C 926.95447,-75.325022 925.98362,-75.006481 924.99891,-75.089578 C 924.00032,-75.186526 923.08495,-75.671262 922.4331,-76.46069 C 921.07391,-78.150343 921.28195,-80.643274 922.91852,-82.055935 L 950.54602,-105.69723 z M 984.47014,5.8198799 C 984.47014,4.518016 984.9833,3.2854002 985.89867,2.3713255 C 986.0651,2.2051301 986.28701,2.135882 986.45344,1.9973858 C 986.77243,4.7396099 987.09142,7.4818339 987.38268,10.251757 C 986.84178,10.016314 986.32862,9.6977725 985.89867,9.2684344 C 984.9833,8.3405101 984.47014,7.1217439 984.47014,5.8198799 z M 935.8169,-15.383883 C 936.56584,-17.558272 938.92361,-18.72164 941.10108,-17.973761 L 977.16106,-5.7030008 C 978.21512,-5.3567604 979.06114,-4.6088811 979.54657,-3.6117087 C 980.04586,-2.6145364 980.1152,-1.4788678 979.7546,-0.44014662 C 979.394,0.61242421 978.65894,1.4711004 977.66035,1.955837 C 976.66177,2.4405736 975.53836,2.5236713 974.4843,2.1635812 C 974.4843,2.1635812 938.42432,-10.107179 938.41045,-10.107179 C 937.37025,-10.467269 936.52423,-11.215148 936.02494,-12.21232 C 935.53952,-13.209493 935.47017,-14.331312 935.8169,-15.383883 z M 976.14861,8.8390963 C 977.34136,9.0329909 978.38155,9.6839229 979.08888,10.681095 C 980.57289,12.730838 980.1152,15.625408 978.07643,17.107317 L 945.63631,40.83171 C 944.66547,41.55189 943.48658,41.828882 942.29383,41.648837 C 941.11494,41.454943 940.06088,40.804011 939.35355,39.806838 C 937.88342,37.743245 938.3411,34.862525 940.37988,33.380616 L 972.81999,9.6562236 C 973.79084,8.9360436 974.96972,8.6590513 976.14861,8.8390963 z M 900.3949,-207.29801 C 904.3615,-204.37575 908.28649,-200.98259 912.156,-197.11855 C 929.2845,-179.97272 944.23552,-154.97416 956.38496,-124.42191 C 955.08125,-126.22236 953.20891,-127.63502 950.90662,-128.25825 L 911.92023,-138.83936 C 909.32668,-139.54569 906.60831,-139.1856 904.27828,-137.84219 C 904.1812,-137.78679 904.09798,-137.70369 904.0009,-137.64829 C 902.72493,-140.03043 900.54746,-141.92783 897.74588,-142.68956 L 858.75949,-153.27066 C 856.76232,-153.8108 854.70967,-153.71385 852.80959,-153.03522 C 852.69864,-153.40916 852.60155,-153.79695 852.46286,-154.15704 C 853.68335,-154.57253 854.80676,-155.26501 855.69439,-156.26218 L 873.90468,-176.56572 C 875.16678,-177.96453 875.7909,-179.73728 875.86024,-181.51003 C 877.64937,-181.74547 879.29981,-182.5626 880.53417,-183.94756 L 898.74446,-204.23725 C 899.54888,-205.13747 900.08978,-206.19005 900.3949,-207.29801 z M 899.53501,-131.62371 C 899.21602,-130.4188 898.43934,-129.40777 897.37141,-128.78454 C 896.33122,-128.17516 895.11073,-128.02281 893.94571,-128.34135 L 854.95932,-138.92246 C 852.87894,-139.47644 851.53362,-141.41539 851.57523,-143.52053 C 852.11613,-144.46231 852.53221,-145.47333 852.80959,-146.5259 C 853.12858,-146.87214 853.46144,-147.21838 853.87752,-147.46767 C 854.93158,-148.07706 856.15207,-148.2294 857.31709,-147.91086 L 896.30348,-137.32975 C 898.74446,-136.67882 900.18686,-134.10279 899.53501,-131.62371 z M 851.57523,-159.96003 C 851.18689,-159.54454 850.67373,-159.29525 850.11896,-159.26755 C 849.56419,-159.2537 849.02329,-159.46144 848.59335,-159.84923 C 847.67798,-160.70791 847.60863,-162.16212 848.44078,-163.09004 L 866.65108,-183.37973 C 867.03942,-183.80907 867.55258,-184.05836 868.10735,-184.07221 C 868.66211,-184.09991 869.21688,-183.89216 869.63296,-183.49052 C 870.54833,-182.63185 870.61768,-181.19149 869.78552,-180.26356 L 851.57523,-159.96003 z M 892.94713,-211.75759 C 893.5019,-211.78529 894.0428,-211.57755 894.47274,-211.17591 C 895.38811,-210.31723 895.45746,-208.86302 894.6253,-207.94895 L 876.41501,-187.64541 C 876.02667,-187.21607 875.51351,-186.98063 874.95874,-186.95293 C 874.40397,-186.92523 873.8492,-187.13297 873.43313,-187.53461 C 872.51776,-188.39329 872.44841,-189.8475 873.28057,-190.76157 L 891.49086,-211.06511 C 891.86533,-211.4806 892.39236,-211.72989 892.94713,-211.75759 z M 745.76691,-219.19484 C 745.76691,-214.81836 742.20252,-211.24516 737.83372,-211.24516 C 735.71173,-211.24516 733.71456,-212.07613 732.21668,-213.57189 C 730.70494,-215.0815 729.88665,-217.07584 729.88665,-219.19484 C 729.88665,-219.70727 729.94213,-220.21971 730.03921,-220.71829 L 745.62822,-220.71829 C 745.71144,-220.21971 745.76691,-219.70727 745.76691,-219.19484 z M 640.58271,-136.76192 C 641.52582,-136.58187 642.41345,-136.20793 643.10691,-135.51545 C 644.02228,-134.60138 644.53544,-133.36876 644.53544,-132.0669 C 644.53544,-129.38007 642.3441,-127.19183 639.65348,-127.19183 C 638.62715,-127.19183 637.69791,-127.57962 636.8935,-128.16131 C 638.08625,-131.08358 639.33448,-133.95045 640.58271,-136.76192 z M 609.9456,-30.424566 C 611.17996,-30.369167 612.34497,-29.89828 613.2326,-29.025755 C 614.14797,-28.09783 614.66113,-26.879064 614.66113,-25.56335 C 614.66113,-22.876525 612.46979,-20.688286 609.77916,-20.688286 C 609.30761,-20.688286 608.8638,-20.826782 608.41998,-20.951428 C 608.9054,-24.13684 609.41857,-27.280703 609.9456,-30.424566 z M 600.90286,92.047591 C 600.83351,88.363593 600.80578,84.651896 600.80578,80.926349 C 600.80578,80.704755 600.80578,80.483161 600.80578,80.261567 C 601.6518,79.333643 602.65038,78.807358 603.71831,78.807358 C 605.02202,78.807358 606.24251,79.555237 607.17175,80.940198 C 608.08712,82.32516 608.60028,84.153309 608.60028,86.106105 C 608.60028,90.136344 606.40894,93.418703 603.71831,93.418703 C 602.69199,93.418703 601.72115,92.933966 600.90286,92.047591 z M 610.7084,196.63989 C 611.56829,195.96126 612.56688,195.53192 613.67642,195.53192 C 614.98012,195.53192 616.20062,196.04436 617.12985,196.95843 C 618.04522,197.88636 618.55838,199.11897 618.55838,200.42084 C 618.55838,203.10766 616.36705,205.2959 613.67642,205.2959 C 613.19099,205.2959 612.71944,205.15741 612.27563,205.01891 C 611.73473,202.24899 611.2077,199.45136 610.7084,196.63989 z M 647.89179,313.80765 C 646.82386,311.74405 645.78367,309.65276 644.74348,307.51992 C 644.97926,306.86899 645.33986,306.25961 645.83915,305.74717 C 646.76839,304.81925 647.98888,304.32066 649.29259,304.32066 C 650.59629,304.32066 651.83065,304.81925 652.74602,305.74717 C 653.67526,306.67509 654.17455,307.89386 654.17455,309.19572 C 654.17455,311.8964 651.98322,314.08464 649.29259,314.08464 C 648.80716,314.08464 648.34948,313.94614 647.89179,313.80765 z M 743.56171,381.79541 C 743.56171,380.49355 744.07487,379.27478 744.99024,378.34686 C 745.91948,377.43278 747.13997,376.92035 748.44367,376.92035 C 749.74738,376.92035 750.98174,377.43278 751.89711,378.34686 C 752.82635,379.27478 753.32564,380.49355 753.32564,381.79541 C 753.32564,382.0724 753.28403,382.3217 753.2563,382.57099 L 743.71427,382.57099 C 743.67266,382.30785 743.56171,382.0724 743.56171,381.79541 z M 863.21151,382.57099 L 758.79012,382.57099 C 758.81785,382.3217 758.87333,382.05855 758.87333,381.79541 C 758.87333,379.01164 757.79153,376.39406 755.8221,374.42742 C 753.85267,372.46077 751.23139,371.3805 748.44367,371.3805 C 742.70182,371.3805 738.02789,376.04782 738.02789,381.79541 C 738.02789,382.05855 738.08336,382.3217 738.09723,382.57099 L 728.56908,382.57099 C 711.75957,382.57099 695.2968,374.63516 679.63845,358.97124 C 669.20879,348.54248 659.58355,335.2053 650.90142,319.47214 C 653.07888,319.1259 655.08992,318.15643 656.67101,316.57757 C 658.64044,314.59707 659.72224,311.9795 659.72224,309.19572 C 659.72224,306.41195 658.64044,303.79437 656.67101,301.82773 C 654.70158,299.86108 652.0803,298.78081 649.29259,298.78081 C 646.46326,298.78081 643.89746,299.91648 642.02511,301.75848 C 630.09758,275.8043 620.38912,244.94735 613.4129,210.80805 C 613.49612,210.8219 613.57933,210.83575 613.67642,210.83575 C 616.46413,210.83575 619.07155,209.75548 621.04098,207.78883 C 623.01041,205.82219 624.0922,203.20461 624.0922,200.42084 C 624.0922,197.63706 623.01041,195.01949 621.04098,193.03899 C 619.07155,191.07235 616.46413,189.99208 613.67642,189.99208 C 612.26176,189.99208 610.91644,190.28292 609.69595,190.79535 C 604.93881,162.48674 601.99853,132.32227 601.1109,101.16064 C 601.95692,101.47918 602.81681,101.71462 603.71831,101.71462 C 606.50603,101.71462 609.11344,100.08037 611.08287,97.144249 C 613.0523,94.194281 614.14797,90.27484 614.14797,86.106105 C 614.14797,81.937371 613.0523,78.017929 611.08287,75.081811 C 609.11344,72.131843 606.50603,70.511437 603.71831,70.511437 C 602.7336,70.511437 601.79049,70.77458 600.88899,71.162369 C 601.30507,41.247198 603.60736,12.135305 607.57396,-15.397732 C 608.29516,-15.231537 609.03023,-15.148439 609.77916,-15.148439 C 612.56688,-15.148439 615.17429,-16.228709 617.14372,-18.195355 C 619.11315,-20.162 620.19495,-22.779578 620.19495,-25.56335 C 620.19495,-28.347123 619.11315,-30.964701 617.14372,-32.945196 C 615.45168,-34.634849 613.26034,-35.632022 610.90257,-35.881315 C 616.6583,-67.860079 624.75793,-97.290513 634.79925,-122.89845 C 636.28325,-122.10903 637.91982,-121.65199 639.65348,-121.65199 C 642.42732,-121.65199 645.0486,-122.73226 647.01803,-124.6989 C 648.98746,-126.66555 650.06926,-129.28313 650.06926,-132.0669 C 650.06926,-134.85067 648.98746,-137.46825 647.01803,-139.4349 C 645.86689,-140.59826 644.4661,-141.41539 642.94048,-141.91398 C 653.56431,-164.57195 665.89405,-183.37973 679.63845,-197.11855 C 694.02084,-211.49445 709.08281,-219.29178 724.47765,-220.469 C 724.43605,-220.03966 724.33896,-219.63802 724.33896,-219.19484 C 724.33896,-215.59394 725.73975,-212.20078 728.29169,-209.65245 C 730.84363,-207.11797 734.22772,-205.70531 737.83372,-205.70531 C 741.42585,-205.70531 744.80994,-207.11797 747.36187,-209.65245 C 749.91381,-212.20078 751.3146,-215.59394 751.3146,-219.19484 C 751.3146,-219.70727 751.21752,-220.20586 751.16204,-220.71829 L 863.21151,-220.71829 C 871.44983,-220.71829 879.60493,-218.77935 887.62134,-214.9984 C 887.53813,-214.9153 887.44104,-214.84606 887.3717,-214.76296 L 869.14754,-194.45942 C 867.88544,-193.06061 867.27519,-191.30171 867.20585,-189.51511 C 865.41672,-189.27966 863.76628,-188.46254 862.53192,-187.07758 L 844.32162,-166.78789 C 843.18435,-165.52757 842.56023,-163.96257 842.3938,-162.36986 C 841.76969,-162.46681 841.1317,-162.56375 840.47985,-162.56375 C 833.43428,-162.56375 827.69242,-156.83001 827.69242,-149.76671 C 827.69242,-146.3597 829.02387,-143.14659 831.43712,-140.72291 C 833.85036,-138.31308 837.06802,-136.98351 840.47985,-136.98351 C 842.87923,-136.98351 845.13991,-137.66214 847.13708,-138.88091 C 848.38531,-136.36028 850.60438,-134.35209 853.50305,-133.57651 L 892.48944,-122.9954 C 895.09686,-122.28907 897.80136,-122.63531 900.14525,-123.99257 C 900.24234,-124.04797 900.32555,-124.11722 900.42264,-124.18647 C 901.68474,-121.79048 903.87608,-119.90694 906.66379,-119.14521 C 906.67766,-119.14521 945.0122,-108.7303 945.44214,-108.6195 C 939.72802,-103.73058 919.31252,-86.266219 919.31252,-86.266219 C 917.35696,-84.590415 916.26129,-82.263679 916.03939,-79.853846 C 913.57066,-80.06159 911.17129,-79.286012 909.2712,-77.665607 L 881.64371,-54.010462 C 879.77136,-52.417756 878.70343,-50.215667 878.42605,-47.916631 C 877.55229,-48.096676 876.67853,-48.221323 875.76316,-48.221323 C 868.88402,-48.221323 863.28086,-42.612228 863.28086,-35.728969 C 863.28086,-32.391211 864.58456,-29.247348 866.94233,-26.892914 C 869.3001,-24.538479 872.43454,-23.236615 875.76316,-23.236615 C 878.24575,-23.236615 880.60352,-23.956795 882.62842,-25.286358 C 883.79344,-23.582855 885.45775,-22.280991 887.45491,-21.60236 L 923.5149,-9.3316003 C 925.96975,-8.5006233 928.6049,-8.6668187 930.92106,-9.8024872 C 930.96267,-9.8301864 930.99041,-9.8440361 931.01815,-9.8717353 C 931.03202,-9.8301864 931.04589,-9.8024872 931.05976,-9.7609384 C 932.19703,-7.4342028 934.18033,-5.7030008 936.63519,-4.8720238 C 936.63519,-4.8720238 958.9369,2.7314155 968.46506,5.9722257 C 962.97284,9.9886144 937.10674,28.90719 937.10674,28.90719 C 934.77671,30.610693 933.41752,33.131323 933.07079,35.804299 C 932.97371,35.790449 932.87663,35.748901 932.77954,35.735051 C 930.13052,35.305713 927.4815,35.942795 925.30403,37.535501 L 892.86391,61.259894 C 889.99298,63.351186 888.56445,66.716643 888.74475,70.04055 C 887.77391,69.777408 886.77532,69.583513 885.749,69.583513 C 879.49398,69.583513 874.40397,74.680172 874.40397,80.926349 C 874.40397,83.959415 875.58286,86.812436 877.71872,88.945277 C 879.86845,91.091967 882.71164,92.269185 885.749,92.269185 C 886.59502,92.269185 887.44104,92.158388 888.24546,91.964493 C 888.31481,92.255335 888.35641,92.546177 888.4535,92.823169 C 889.28565,95.274551 891.03317,97.255046 893.3632,98.390715 L 927.56471,115.1626 C 930.0057,116.35367 932.69633,116.42292 935.06796,115.57809 C 935.08183,115.61964 935.08183,115.64734 935.0957,115.68889 C 935.94172,118.14027 937.67538,120.12076 940.00541,121.25643 C 940.00541,121.25643 966.06568,134.03963 972.69517,137.28044 C 971.53015,137.37738 970.37901,137.65438 969.28334,138.18066 L 934.87379,154.52321 C 932.41894,155.68658 930.68529,157.75017 929.88087,160.1323 C 929.83926,160.11845 929.81153,160.1046 929.76992,160.09076 C 927.32894,159.21823 924.69378,159.35673 922.36375,160.46469 L 887.94034,176.80724 C 884.75042,178.3307 882.79485,181.37762 882.48973,184.67382 C 880.58965,183.55201 878.42605,182.90107 876.1515,182.90107 C 869.27236,182.90107 863.66919,188.51017 863.66919,195.39343 C 863.66919,198.73118 864.95903,201.8612 867.3168,204.22948 C 869.68844,206.58392 872.82288,207.88578 876.1515,207.88578 C 877.08073,207.88578 877.9961,207.76113 878.88373,207.56724 C 878.88373,207.71959 878.84213,207.88578 878.84213,208.05198 C 878.92534,210.64185 879.99327,213.03784 881.87949,214.82444 L 909.57633,240.98636 C 911.44867,242.77296 913.91739,243.70089 916.51094,243.63164 C 916.53868,243.63164 916.58029,243.61779 916.60802,243.61779 C 916.60802,243.65934 916.60802,243.68704 916.60802,243.72859 C 916.67737,246.31847 917.75917,248.7283 919.64538,250.50105 C 919.64538,250.50105 936.46875,266.41426 942.80699,272.39729 C 939.21486,273.21442 907.64851,280.37467 907.64851,280.37467 C 905.01335,280.97021 902.86362,282.61831 901.54605,284.765 C 901.51831,284.7373 901.49057,284.7096 901.46283,284.69575 C 899.27149,283.31079 896.66408,282.8676 894.13988,283.43544 L 856.9981,291.86985 C 854.01621,292.54849 851.71392,294.55668 850.46569,297.09116 C 848.27435,295.35996 845.61146,294.36278 842.78214,294.36278 C 835.88914,294.36278 830.28597,299.97188 830.28597,306.85514 C 830.28597,310.1929 831.57581,313.33676 833.94744,315.69119 C 836.30521,318.04563 839.43966,319.34749 842.78214,319.34749 C 844.05811,319.34749 845.2786,319.0982 846.47135,318.73811 C 846.721,320.35851 847.45607,321.92352 848.71817,323.16999 L 869.09206,343.22423 C 870.46511,344.58149 872.26811,345.34322 874.18207,345.45402 C 874.32076,347.30987 875.0697,349.11032 876.49823,350.50913 L 896.85825,370.56337 C 897.1495,370.85422 897.48236,371.08966 897.81522,371.33895 C 886.80306,378.65155 875.19452,382.57099 863.21151,382.57099 z M 847.73345,-149.76671 C 847.73345,-149.46202 847.67798,-149.17118 847.63637,-148.86648 C 847.09547,-148.00781 846.63779,-147.07988 846.3604,-146.05501 C 846.31879,-145.84727 846.31879,-145.65337 846.27719,-145.44563 C 844.94574,-143.68673 842.85149,-142.52336 840.47985,-142.52336 C 838.55203,-142.52336 836.72129,-143.27124 835.36211,-144.64235 C 833.98905,-146.01346 833.24011,-147.84161 833.24011,-149.76671 C 833.24011,-151.70566 833.98905,-153.5338 835.36211,-154.89107 C 836.72129,-156.26218 838.55203,-157.02391 840.47985,-157.02391 C 842.42154,-157.02391 844.23841,-156.26218 845.61146,-154.89107 C 846.98452,-153.5338 847.73345,-151.70566 847.73345,-149.76671 z M 882.65616,-36.310653 C 882.143,-35.576623 881.69919,-34.787195 881.39406,-33.900819 C 881.08894,-32.986745 880.96412,-32.058821 880.92251,-31.117047 C 879.66041,-29.690536 877.82967,-28.776461 875.76316,-28.776461 C 873.91855,-28.776461 872.17103,-29.496642 870.85345,-30.812355 C 869.54974,-32.128069 868.81468,-33.87312 868.81468,-35.728969 C 868.81468,-37.584817 869.54974,-39.329869 870.85345,-40.645583 C 872.17103,-41.947447 873.91855,-42.681476 875.76316,-42.681476 C 877.46907,-42.681476 879.05016,-42.044394 880.32613,-40.936425 C 880.38161,-40.867176 880.40935,-40.784079 880.46482,-40.714831 C 880.74221,-40.38244 881.04733,-40.105448 881.35246,-39.828455 C 882.11526,-38.789734 882.55908,-37.584817 882.65616,-36.310653 z M 891.54634,80.926349 C 891.54634,81.397236 891.47699,81.854273 891.36604,82.297461 C 890.36745,83.128438 889.5353,84.181009 888.92505,85.413625 C 888.85571,85.56597 888.8141,85.718316 888.75862,85.870662 C 887.87099,86.396947 886.84467,86.729338 885.749,86.729338 C 884.19565,86.729338 882.73938,86.133805 881.64371,85.025835 C 880.54804,83.931716 879.93779,82.477506 879.93779,80.926349 C 879.93779,79.375192 880.54804,77.920982 881.64371,76.826862 C 882.73938,75.732743 884.19565,75.12336 885.749,75.12336 C 887.28848,75.12336 888.74475,75.732743 889.84042,76.826862 C 890.93609,77.920982 891.54634,79.375192 891.54634,80.926349 z M 883.09998,195.39343 C 883.09998,199.22977 879.99327,202.34593 876.1515,202.34593 C 874.29302,202.34593 872.55937,201.62575 871.24179,200.31004 C 869.92421,198.99433 869.20301,197.24928 869.20301,195.39343 C 869.20301,193.53758 869.92421,191.79253 871.24179,190.47681 C 872.55937,189.1611 874.29302,188.44092 876.1515,188.44092 C 878.00997,188.44092 879.75749,189.1611 881.07507,190.47681 C 882.37878,191.79253 883.09998,193.53758 883.09998,195.39343 z M 856.92875,304.84694 C 855.98564,304.25141 855.33379,303.33734 855.08414,302.25707 C 854.58485,300.01343 855.98564,297.78364 858.21859,297.28505 L 895.37424,288.85064 C 896.45604,288.60134 897.56558,288.79524 898.50869,289.37692 C 899.45179,289.97246 900.10365,290.90038 900.33942,291.98065 C 900.85259,294.21044 899.45179,296.44023 897.20498,296.95266 L 860.0632,305.38708 C 858.9814,305.63637 857.85799,305.44248 856.92875,304.84694 z M 876.3734,335.81469 C 877.33038,336.75646 877.34425,338.29377 876.40114,339.24939 C 875.94346,339.70643 875.34708,339.96957 874.69523,339.96957 C 874.04337,339.96957 873.43313,339.73413 872.97544,339.27709 L 852.60155,319.22285 C 851.65844,318.28107 851.64458,316.74376 852.58768,315.78814 C 853.0315,315.31725 853.64174,315.06796 854.2936,315.05411 C 854.93158,315.05411 855.54183,315.3034 856.01338,315.76044 L 876.3734,335.81469 z M 849.73062,306.85514 C 849.73062,310.69148 846.61005,313.80765 842.78214,313.80765 C 840.92366,313.80765 839.17614,313.08747 837.85857,311.77175 C 836.54099,310.45604 835.81979,308.71099 835.81979,306.85514 C 835.81979,304.99929 836.54099,303.25424 837.85857,301.95237 C 839.17614,300.63666 840.92366,299.91648 842.78214,299.91648 C 844.62675,299.91648 846.37427,300.63666 847.69185,301.95237 C 848.99555,303.25424 849.73062,304.99929 849.73062,306.85514 z M 904.1812,366.58853 C 903.72351,367.04557 903.11327,367.30871 902.47528,367.30871 C 901.82343,367.32256 901.21318,367.07327 900.7555,366.61623 L 880.38161,346.56199 C 879.42463,345.62021 879.41076,344.08291 880.35387,343.12728 C 880.81156,342.67025 881.4218,342.4071 882.05979,342.4071 C 882.71164,342.4071 883.32189,342.64255 883.77957,343.09958 L 904.15346,363.15383 C 905.11044,364.0956 905.11044,365.63291 904.1812,366.58853 z M 909.79824,361.81042 C 909.4099,360.86864 908.81352,359.96842 908.03684,359.20669 L 887.67682,339.15244 C 886.2899,337.79518 884.50077,337.03345 882.57295,336.90881 C 882.43425,335.06681 881.68532,333.26636 880.25679,331.86755 L 859.89676,311.8133 C 859.57777,311.50861 859.24491,311.24547 858.88431,310.99617 C 859.68873,311.01002 860.49314,310.96847 861.28369,310.78843 L 898.43934,302.35401 C 901.08836,301.75848 903.22422,300.11038 904.5418,297.96369 C 904.56954,297.99138 904.59728,298.01908 904.62501,298.03293 C 906.81635,299.41789 909.42377,299.86108 911.94796,299.29325 L 949.10362,290.85883 C 950.83727,290.45719 952.37676,289.58467 953.62499,288.3936 C 953.8885,288.72599 954.12428,289.05838 954.4294,289.36307 C 954.66518,289.61237 954.95643,289.79241 955.20608,290.01401 C 942.54347,321.07869 927.09316,345.77256 909.79824,361.81042"
       style="fill:black;fill-rule:nonzero;stroke:none"
       id="path10990" />
    <path
       d="M 835.8614,314.66632 C 812.04794,361.14563 781.92398,386.72588 751.03722,386.72588 L 751.03722,392.27957 C 784.10145,392.27957 815.9868,365.60521 840.79884,317.2008 L 835.8614,314.66632"
       style="fill:black;fill-rule:nonzero;stroke:none"
       id="path10992" />
    <path
       d="M 871.58852,204.89426 C 864.93129,239.46291 855.63891,270.61069 843.97489,297.47895 L 849.05103,299.68104 C 860.88148,272.43884 870.29868,240.90327 877.03913,205.94683 L 871.58852,204.89426"
       style="fill:black;fill-rule:nonzero;stroke:none"
       id="path10994" />
    <path
       d="M 882.90581,89.346916 C 882.51747,122.43365 879.84071,154.8556 874.95874,185.74024 L 880.42322,186.59892 C 885.36066,155.46498 888.05129,122.76604 888.4535,89.402314 L 882.90581,89.346916"
       style="fill:black;fill-rule:nonzero;stroke:none"
       id="path10996" />
    <path
       d="M 874.72297,-25.341757 C 879.77136,6.0414738 882.53134,39.045109 882.90581,72.741226 L 888.4535,72.671978 C 888.06516,38.698869 885.27745,5.4320907 880.18744,-26.228132 L 874.72297,-25.341757"
       style="fill:black;fill-rule:nonzero;stroke:none"
       id="path10998" />
    <path
       d="M 842.18576,-139.65649 C 854.48777,-112.37275 864.27944,-80.43553 871.26953,-44.731219 L 876.70626,-45.79764 C 869.63296,-81.917439 859.71646,-114.25629 847.23416,-141.94168 L 842.18576,-139.65649"
       style="fill:black;fill-rule:nonzero;stroke:none"
       id="path11000" />
    <path
       d="M 751.03722,-224.87318 C 780.70349,-224.87318 809.88434,-201.05184 833.22625,-157.81334 L 838.10821,-160.44476 C 813.39325,-206.21774 783.29704,-230.41302 751.03722,-230.41302 L 751.03722,-224.87318"
       style="fill:black;fill-rule:nonzero;stroke:none"
       id="path11002" />
    <path
       d="M 827.47052,12.453846 L 868.87015,-31.186295 L 864.80647,-34.95339 L 826.4858,5.4320907 C 822.39438,-22.391788 816.07001,-47.653488 807.90104,-68.829552 L 837.35927,-140.18277 L 832.24153,-142.28792 L 804.9469,-76.183698 C 797.31882,-94.105101 788.30383,-108.6749 778.15155,-118.82667 C 770.73152,-126.25006 762.92314,-131.04203 754.86513,-133.20257 C 754.43518,-134.08894 753.86654,-134.93377 753.1176,-135.68165 C 750.9124,-137.88374 747.62539,-139.1579 744.10261,-139.1579 C 743.82522,-139.1579 743.54784,-139.1025 743.27045,-139.08865 L 740.38565,-208.71068 L 734.83796,-208.48908 L 737.77824,-137.60675 C 734.72701,-135.97249 732.67437,-133.18872 732.53567,-130.01716 C 728.55521,-132.46854 722.93817,-131.66526 719.12413,-127.82892 L 698.43125,-106.98524 C 695.36615,-103.89678 694.32596,-99.644948 695.31067,-96.030198 C 694.33983,-95.96095 693.35511,-95.780905 692.41201,-95.393116 C 689.54108,-94.229748 687.15557,-91.792215 685.86573,-88.676052 L 678.69534,-71.267084 L 646.93482,-126.52705 L 642.1222,-123.75713 L 676.01858,-64.785464 L 674.22945,-60.436684 C 672.64836,-56.586491 673.05057,-52.459305 674.92291,-49.426239 C 674.35428,-49.190796 673.81338,-48.927653 673.27248,-48.581413 C 670.73441,-46.974857 668.87593,-44.260332 668.1686,-41.130319 L 661.74715,-12.475463 C 660.88726,-8.6252698 661.91358,-4.8443246 664.17426,-2.268296 C 663.63336,-1.9913036 663.1202,-1.6589129 662.63478,-1.2711236 C 660.27701,0.61242421 658.72366,3.506994 658.36306,6.6924057 C 658.36306,6.6924057 658.23824,7.731127 658.04407,9.4069305 L 617.97588,-25.854192 L 615.86775,-20.023504 L 657.28126,16.179393 C 656.31041,24.696907 655.04831,35.873547 655.04831,35.873547 C 654.68771,39.058959 655.54761,42.230521 657.41995,44.584956 C 657.54478,44.737302 657.68347,44.848099 657.79442,44.986595 C 654.86801,46.745496 652.87085,49.917058 652.87085,53.587206 L 652.87085,83.211536 L 613.06617,83.197686 L 612.77492,88.668284 L 652.87085,88.682134 L 652.87085,108.27934 C 652.87085,110.96617 653.92491,113.4868 655.82499,115.38419 C 656.42137,115.99358 657.10096,116.46446 657.80829,116.8938 C 657.68347,117.0323 657.54478,117.1431 657.41995,117.29544 C 655.54761,119.64988 654.68771,122.83529 655.04831,126.00685 L 658.2105,153.91383 L 620.00078,195.06104 L 622.30307,200.42084 L 660.15219,160.2708 C 660.83178,161.36492 661.6362,162.36209 662.63478,163.15152 C 663.1202,163.53931 663.63336,163.8717 664.17426,164.16254 C 661.91358,166.72472 660.88726,170.50567 661.74715,174.35586 L 668.1686,203.01072 C 668.87593,206.14073 670.73441,208.85525 673.27248,210.47566 C 673.81338,210.80805 674.35428,211.08504 674.92291,211.30664 C 673.05057,214.3397 672.64836,218.48074 674.22945,222.31708 L 681.58014,240.15539 L 652.41316,302.27092 L 657.43382,304.6392 L 684.52042,247.27409 L 685.86573,250.55645 C 687.15557,253.67261 689.54108,256.12399 692.41201,257.27351 C 693.35511,257.6613 694.33983,257.84135 695.31067,257.92444 C 694.32596,261.53919 695.36615,265.77718 698.43125,268.87949 L 719.12413,289.72316 C 722.85495,293.46256 728.29169,294.27969 732.25829,292.0499 C 732.59115,293.65645 733.4233,295.19376 734.6854,296.45408 C 736.89061,298.67002 740.17762,299.93033 743.7004,299.93033 C 744.39386,299.93033 745.05958,299.84723 745.73918,299.75029 L 745.75304,372.59927 L 751.28687,372.59927 L 751.273,297.6036 C 751.77229,297.24351 752.27158,296.88342 752.70153,296.45408 C 753.04826,296.12169 753.33951,295.74775 753.61689,295.35996 C 762.11873,293.37946 770.34318,288.49055 778.15155,280.67936 C 788.38704,270.4445 797.48525,255.69466 805.15493,237.53781 L 834.2387,299.43174 L 839.25936,297.07731 L 807.98426,230.5022 C 816.37514,208.66136 822.8382,182.49943 826.90188,153.65068 L 865.22255,192.762 L 869.17528,188.88411 L 827.83112,146.68433 C 830.35532,126.64393 831.72837,105.42632 831.82545,83.557776 L 877.06686,83.557776 L 877.06686,78.017929 L 831.82545,78.017929 C 831.7145,55.24916 830.20275,33.200571 827.47052,12.453846 z M 738.52718,-132.24694 C 739.81702,-133.53496 741.8974,-134.31054 744.10261,-134.31054 C 746.30781,-134.31054 748.40207,-133.53496 749.67804,-132.24694 C 750.21893,-131.72066 750.87079,-130.83428 750.87079,-129.68477 C 750.87079,-127.19183 747.76408,-125.07284 744.10261,-125.07284 C 741.8974,-125.07284 739.81702,-125.83457 738.52718,-127.12259 C 737.98628,-127.66272 737.34829,-128.5491 737.34829,-129.68477 C 737.34829,-130.83428 737.98628,-131.72066 738.52718,-132.24694 z M 702.37011,-103.0935 L 723.06299,-123.92333 C 725.28207,-126.16696 728.5136,-126.55475 730.28886,-124.79585 C 731.20423,-123.89563 731.3984,-122.75996 731.3984,-121.95668 C 731.3984,-120.40552 730.70494,-118.79897 729.47057,-117.56635 L 708.77769,-96.722679 C 706.55862,-94.492891 703.32709,-94.105101 701.55183,-95.850153 C 699.79043,-97.609054 700.15103,-100.84986 702.37011,-103.0935 z M 690.99735,-86.57091 C 691.71854,-88.302112 692.98064,-89.645525 694.47852,-90.254908 C 695.18585,-90.5319 696.28152,-90.781193 697.40493,-90.282607 C 699.72109,-89.257736 700.59485,-85.809181 699.33275,-82.748416 L 687.69647,-54.509048 C 686.97527,-52.763997 685.71317,-51.420584 684.21529,-50.825051 C 683.49409,-50.534209 682.4123,-50.298765 681.27502,-50.797351 C 678.97273,-51.808373 678.0851,-55.256928 679.36107,-58.317693 L 690.99735,-86.57091 z M 667.15615,-11.256697 L 673.5776,-39.911553 C 673.96594,-41.615056 674.93678,-43.069265 676.24049,-43.900242 C 676.92008,-44.329581 677.98801,-44.786618 679.23624,-44.495776 C 680.48447,-44.218784 681.26115,-43.360107 681.6911,-42.681476 C 682.52325,-41.365763 682.77289,-39.64841 682.39843,-37.944907 L 675.96311,-9.2900514 C 675.58864,-7.5865486 674.61779,-6.1323389 673.30021,-5.3013619 C 672.63449,-4.8720238 671.56656,-4.4149865 670.31833,-4.7058284 C 667.87735,-5.2459635 666.46269,-8.1959317 667.15615,-11.256697 z M 660.5544,36.49678 L 663.85527,7.3156385 C 664.06331,5.5844364 664.86773,4.0332794 666.08822,3.0638063 C 666.71233,2.5790697 667.72479,2.0112355 669.00075,2.1497316 C 670.27672,2.3020774 671.12275,3.0776559 671.62204,3.7008886 C 672.59288,4.9196549 673.0367,6.6093081 672.84253,8.3405101 L 669.52779,37.521652 C 669.16719,40.651665 666.86489,42.964551 664.39617,42.673709 C 663.1202,42.535213 662.26031,41.759634 661.76102,41.136401 C 660.79017,39.917635 660.34636,38.227982 660.5544,36.49678 z M 658.41854,53.587206 C 658.41854,52.38229 658.89009,51.246621 659.73611,50.387945 C 660.596,49.543118 661.71941,49.072231 662.92603,49.072231 C 664.13266,49.072231 665.26993,49.543118 666.12983,50.387945 C 666.97585,51.246621 667.4474,52.38229 667.4474,53.587206 L 667.4474,108.27934 C 667.4474,110.77227 665.42249,112.79432 662.92603,112.79432 C 661.71941,112.79432 660.596,112.32343 659.73611,111.46475 C 658.89009,110.61993 658.41854,109.48426 658.41854,108.27934 L 658.41854,53.587206 z M 663.85527,154.56476 L 660.5544,125.38362 C 660.34636,123.65241 660.79017,121.96276 661.76102,120.744 C 662.26031,120.12076 663.1202,119.34518 664.39617,119.20669 C 666.86489,118.9297 669.16719,121.24258 669.52779,124.3726 L 672.84253,153.55374 C 673.0367,155.28494 672.59288,156.97459 671.62204,158.19336 C 671.12275,158.81659 670.27672,159.57832 669.00075,159.73067 C 667.72479,159.86916 666.71233,159.31518 666.08822,158.81659 C 664.86773,157.84712 664.06331,156.29596 663.85527,154.56476 z M 676.24049,205.79449 C 674.93678,204.96351 673.96594,203.5093 673.5776,201.8058 L 667.15615,173.15094 C 666.46269,170.07633 667.87735,167.12636 670.31833,166.58623 C 671.56656,166.30923 672.63449,166.75242 673.30021,167.18176 C 674.61779,168.01274 675.58864,169.46695 675.96311,171.17045 L 682.39843,199.8253 C 682.77289,201.52881 682.52325,203.26001 681.6911,204.57572 C 681.26115,205.2405 680.48447,206.09918 679.23624,206.39002 C 677.98801,206.66701 676.92008,206.20998 676.24049,205.79449 z M 697.40493,252.163 C 696.28152,252.66159 695.18585,252.42615 694.47852,252.1353 C 692.98064,251.53977 691.71854,250.19636 690.99735,248.45131 L 679.36107,220.21194 C 678.0851,217.13732 678.97273,213.70262 681.27502,212.67775 C 682.4123,212.17916 683.49409,212.41461 684.21529,212.70545 C 685.71317,213.31483 686.97527,214.65824 687.69647,216.38945 L 699.33275,244.64266 C 700.59485,247.70343 699.72109,251.15198 697.40493,252.163 z M 730.28886,286.67625 C 728.5136,288.43515 725.28207,288.04736 723.06299,285.81757 L 702.37011,264.9739 C 700.15103,262.74411 699.79043,259.48945 701.55183,257.7444 C 703.32709,255.9855 706.55862,256.37329 708.77769,258.60308 L 729.47057,279.44675 C 730.70494,280.69321 731.3984,282.28592 731.3984,283.83708 C 731.3984,284.64035 731.20423,285.77602 730.28886,286.67625 z M 738.1111,293.03322 C 737.58407,292.49309 736.93222,291.60671 736.93222,290.47104 C 736.93222,289.32152 737.58407,288.43515 738.1111,287.89501 C 739.40094,286.62085 741.48132,285.84527 743.7004,285.84527 C 745.90561,285.84527 747.98599,286.62085 749.27583,287.89501 C 749.81673,288.43515 750.45471,289.32152 750.45471,290.47104 C 750.45471,292.96397 747.36187,295.08296 743.7004,295.08296 C 741.48132,295.08296 739.40094,294.32124 738.1111,293.03322 z M 753.45046,285.37438 C 753.21469,285.06969 752.97891,284.75115 752.70153,284.47416 C 750.49632,282.27207 747.20931,280.99791 743.7004,280.99791 C 741.12072,280.99791 738.76296,281.70424 736.83513,282.8676 C 736.59936,280.19463 735.4066,277.5632 733.40943,275.54116 L 712.71655,254.69748 C 710.49748,252.4677 707.65428,251.27663 704.88044,251.13813 C 705.72646,248.50671 705.65712,245.43209 704.45049,242.52367 L 692.81421,214.2843 C 691.53824,211.18199 689.18048,208.75831 686.32342,207.59494 C 686.33729,207.56724 686.35115,207.55339 686.36502,207.53954 C 687.97385,204.99121 688.50088,201.73655 687.80742,198.62039 L 681.3721,169.95168 C 680.67864,166.83552 678.82017,164.10714 676.26823,162.50059 C 676.01858,162.34824 675.75507,162.2513 675.50542,162.1128 C 675.65798,161.9466 675.82441,161.80811 675.96311,161.64191 C 677.83545,159.28748 678.70921,156.10207 678.34861,152.91665 L 675.03387,123.73551 C 674.61779,120.13461 672.68997,117.12925 670.08255,115.34265 C 671.9549,113.4591 672.99509,110.93847 672.99509,108.27934 L 672.99509,53.587206 C 672.99509,50.91423 671.9549,48.4213 670.09642,46.523902 C 672.70384,44.751151 674.61779,41.745784 675.03387,38.144884 L 678.34861,8.9637428 C 678.70921,5.7783311 677.83545,2.606769 675.96311,0.23848458 C 675.82441,0.072289181 675.65798,-0.066206981 675.50542,-0.23240238 C 675.75507,-0.35704892 676.01858,-0.46784585 676.26823,-0.62019163 C 678.82017,-2.2267471 680.67864,-4.9412719 681.3721,-8.0712852 L 687.80742,-36.726141 C 688.50088,-39.856154 687.97385,-43.110814 686.36502,-45.645294 C 686.35115,-45.672993 686.33729,-45.686843 686.32342,-45.700693 C 689.18048,-46.86406 691.53824,-49.301593 692.81421,-52.390057 L 704.45049,-80.643274 C 705.65712,-83.537844 705.72646,-86.612459 704.88044,-89.257736 C 707.65428,-89.382382 710.49748,-90.587299 712.71655,-92.817087 L 733.40943,-113.66076 C 735.65625,-115.9321 736.94609,-118.96516 736.93222,-121.98438 C 736.93222,-122.06748 736.91835,-122.15057 736.91835,-122.24752 C 738.94326,-120.94566 741.45358,-120.22548 744.10261,-120.22548 C 747.58378,-120.22548 750.81531,-121.47194 753.02052,-123.61863 C 759.22006,-121.80433 765.33639,-117.92644 771.30016,-111.95726 C 776.30695,-106.95755 781.02248,-100.66982 785.4329,-93.301824 C 782.25684,-95.102274 778.95597,-96.044048 775.55801,-96.044048 C 741.74484,-96.044048 723.49294,-4.8581742 723.49294,80.926349 C 723.49294,160.74169 737.9308,228.81255 759.4281,250.30716 C 764.46263,255.34842 769.89936,257.89675 775.55801,257.89675 C 778.91436,257.89675 782.1875,256.98267 785.33581,255.20992 C 775.80765,271.19238 764.97579,281.81503 753.45046,285.37438 z M 775.55801,246.81705 C 772.93673,246.81705 770.14901,245.34899 767.26421,242.46827 C 751.02335,226.22267 734.57445,165.5198 734.57445,80.926349 C 734.57445,-3.6671072 751.02335,-64.369975 767.26421,-80.615575 C 770.14901,-83.496295 772.93673,-84.964355 775.55801,-84.964355 C 778.17929,-84.964355 780.98088,-83.496295 783.86567,-80.615575 C 800.10654,-64.369975 816.55544,-3.6671072 816.55544,80.926349 C 816.55544,183.70435 792.67263,246.81705 775.55801,246.81705"
       style="fill:black;fill-rule:nonzero;stroke:none"
       id="path11004" />
    <path
       d="M 775.28062,236.99767 C 775.66896,236.99767 775.89087,237.08077 775.89087,237.08077 C 775.89087,237.08077 775.21128,236.81763 773.92144,235.52962 C 762.39611,223.99288 744.10261,171.83523 744.10261,80.926349 C 744.10261,-9.9825322 762.39611,-62.140187 773.92144,-73.663068 C 775.21128,-74.951082 775.89087,-75.214225 775.89087,-75.228074 C 775.89087,-75.228074 775.66896,-75.144977 775.28062,-75.144977 C 774.87842,-75.144977 774.65651,-75.228074 774.65651,-75.228074 C 774.67038,-75.214225 775.34997,-74.951082 776.63981,-73.663068 C 788.16513,-62.140187 806.44477,-9.9825322 806.44477,80.926349 C 806.44477,181.8762 783.67151,233.53527 774.6149,237.09462 C 774.6149,237.09462 774.85068,236.99767 775.28062,236.99767"
       style="fill:#176fc1;fill-rule:nonzero;stroke:none"
       id="path11006" />
  </g>
</svg>
