<?xml version="1.0" encoding="UTF-8" standalone="no"?>
<!-- Created with Inkscape (http://www.inkscape.org/) -->
<svg
   xmlns:svg="http://www.w3.org/2000/svg"
   xmlns="http://www.w3.org/2000/svg"
   version="1.0"
   width="960"
   height="960"
   id="svg3971">
  <defs
     id="defs3973" />
  <g
     transform="translate(-785.342,181.5512)"
     id="layer1">
    <path
       d="M 1265.342,690.29594 C 1481.7423,690.29594 1657.1753,514.86285 1657.1753,298.44875 C 1657.1753,82.048496 1481.7423,-93.384593 1265.342,-93.384593 C 1048.9417,-93.384593 873.50866,82.048496 873.50866,298.44875 C 873.50866,514.86285 1048.9417,690.29594 1265.342,690.29594"
       style="fill:#176fc1;fill-rule:nonzero;stroke:none"
       id="path247" />
    <path
       d="M 1220.3169,580.71778 L 1310.3671,580.71778 L 1310.3671,16.179721 L 1220.3169,16.179721 L 1220.3169,580.71778 z "
       style="fill:white;fill-rule:nonzero;stroke:none"
       id="path249" />
    <path
       d="M 1745.342,298.44875 C 1745.342,563.54425 1530.4375,778.44875 1265.342,778.44875 C 1000.2465,778.44875 785.342,563.54425 785.342,298.44875 C 785.342,33.367095 1000.2465,-181.55125 1265.342,-181.55125 C 1530.4375,-181.55125 1745.342,33.367095 1745.342,298.44875 z M 1265.342,654.37004 C 1347.8165,654.37004 1423.7262,626.31072 1484.0828,579.22202 L 984.56873,79.721761 C 937.48003,140.06454 909.42071,215.97429 909.42071,298.44875 C 909.42071,495.01635 1068.7744,654.37004 1265.342,654.37004 z M 1621.2633,298.44875 C 1621.2633,101.88115 1461.9096,-57.472538 1265.342,-57.472538 C 1182.8675,-57.472538 1106.9578,-29.399366 1046.6012,17.67548 L 1546.1153,517.18959 C 1593.204,456.83296 1621.2633,380.92321 1621.2633,298.44875"
       style="fill:#ee1c23;fill-rule:nonzero;stroke:none"
       id="path251" />
  </g>
</svg>
