<?xml version="1.0" encoding="UTF-8" standalone="no"?>
<!-- Created with Inkscape (http://www.inkscape.org/) -->
<svg
   xmlns:svg="http://www.w3.org/2000/svg"
   xmlns="http://www.w3.org/2000/svg"
   version="1.0"
   width="960"
   height="960"
   id="svg10834">
  <defs
     id="defs10836" />
  <g
     transform="translate(-1099.628,535.8855)"
     id="layer1">
    <path
       d="M 1099.6277,-55.892395 C 1099.6277,-320.97106 1314.5322,-535.88546 1579.6277,-535.88546 C 1844.7232,-535.88546 2059.6277,-320.97106 2059.6277,-55.892395 C 2059.6277,209.20014 1844.7232,424.11454 1579.6277,424.11454 C 1314.5322,424.11454 1099.6277,209.20014 1099.6277,-55.892395"
       style="fill:#176fc1;fill-rule:nonzero;stroke:none"
       id="path10506" />
    <path
       d="M 1938.5682,-86.418117 C 1908.5699,-116.41682 1868.6692,-132.94869 1826.234,-132.94869 C 1805.9166,-132.94869 1786.4856,-129.06537 1768.6057,-122.07538 L 1731.8073,-203.90262 L 1746.6679,-227.4661 C 1772.719,-222.19587 1798.4378,-217.06433 1799.8366,-217.06433 C 1814.3925,-217.06433 1826.1924,-228.86687 1826.1924,-243.41547 C 1826.1924,-257.96408 1814.3925,-269.75275 1799.8366,-269.75275 C 1799.1026,-269.75275 1691.1864,-269.65567 1691.1864,-269.65567 C 1691.1725,-269.65567 1691.1725,-269.65567 1691.1725,-269.65567 C 1682.6827,-269.65567 1675.8133,-262.76276 1675.8133,-254.27492 C 1675.8133,-245.78708 1682.6827,-238.90804 1691.1725,-238.90804 L 1691.1725,-238.75548 C 1691.1725,-238.75548 1707.3073,-235.45465 1727.14,-231.41877 L 1715.2016,-212.50142 L 1435.3839,-212.50142 C 1442.6273,-234.23418 1447.4193,-248.60249 1447.4193,-248.60249 C 1447.5024,-248.85213 1447.5301,-249.10177 1447.5855,-249.35142 C 1447.6547,-249.61493 1447.7378,-249.89231 1447.7655,-250.15582 C 1447.8071,-250.4332 1447.7932,-250.69671 1447.7932,-250.96022 C 1447.8071,-251.2376 1447.8348,-251.50111 1447.8209,-251.76463 C 1447.7932,-252.02814 1447.7378,-252.29165 1447.6824,-252.55516 C 1447.6409,-252.8048 1447.6132,-253.06831 1447.5439,-253.30409 C 1447.4885,-253.5676 1447.3777,-253.80337 1447.2808,-254.03915 C 1447.1838,-254.28879 1447.1146,-254.53843 1447.0038,-254.7742 C 1446.8791,-254.99611 1446.7268,-255.20414 1446.6021,-255.42605 C 1446.4636,-255.64795 1446.339,-255.88373 1446.1728,-256.10563 C 1446.0205,-256.2998 1445.8266,-256.48009 1445.6465,-256.67426 C 1445.4665,-256.86843 1445.3141,-257.07646 1445.1064,-257.25676 C 1444.9125,-257.43706 1444.677,-257.57575 1444.4693,-257.72831 C 1444.2477,-257.89473 1444.0538,-258.06116 1443.8184,-258.19985 C 1443.5829,-258.33854 1443.3198,-258.43563 1443.0566,-258.54658 C 1442.835,-258.65753 1442.6134,-258.78235 1442.3642,-258.87944 L 1396.7297,-274.7456 L 1410.3992,-310.6109 L 1520.4206,-311.83137 L 1552.981,-282.38743 C 1556.3188,-279.36398 1561.4709,-279.6275 1564.4901,-282.96993 C 1567.5093,-286.2985 1567.2461,-291.45777 1563.9084,-294.48122 L 1528.9797,-326.07486 L 1526.6114,-328.21069 L 1523.426,-328.16908 L 1404.6655,-326.85152 L 1399.1257,-326.79605 L 1375.5259,-264.87085 L 1383.4479,-262.11092 L 1429.4148,-246.11993 L 1388.0737,-122.08925 C 1369.8891,-129.19019 1350.3612,-132.94869 1330.2515,-132.94869 C 1242.6388,-132.94869 1171.3826,-61.675778 1171.3826,25.92098 C 1171.3826,68.360195 1187.9052,108.24751 1217.9034,138.26008 C 1247.9155,168.25878 1287.8163,184.79065 1330.2515,184.79065 C 1372.6867,184.79065 1412.5736,168.25878 1442.5857,138.26008 C 1472.584,108.24751 1489.1205,68.360195 1489.1205,25.92098 C 1489.1205,-16.518234 1472.584,-56.405548 1442.5857,-86.418117 C 1430.772,-98.220657 1417.421,-107.90124 1403.0035,-115.3489 C 1406.8537,-126.88793 1410.7455,-138.56565 1414.5403,-149.95212 L 1535.4059,-20.928584 C 1527.0684,-10.665506 1522.0548,2.385246 1522.0548,16.614865 C 1522.0548,32.550374 1528.2595,47.52892 1539.5331,58.804437 C 1550.8066,70.079954 1565.7919,76.279408 1581.7328,76.279408 C 1584.115,76.279408 1586.4694,76.099111 1588.7961,75.82173 L 1591.76,89.108256 L 1572.412,89.108256 L 1572.412,107.73436 L 1625.9824,107.73436 L 1625.9824,89.108256 L 1601.3162,89.108256 L 1597.9369,74.018757 C 1607.6593,71.286559 1616.5923,66.141151 1623.9326,58.804437 C 1632.7133,50.025345 1638.3639,38.985601 1640.4552,27.002764 L 1667.4204,28.029072 C 1667.9606,69.677752 1684.3862,108.74679 1713.8997,138.26008 C 1743.898,168.25878 1783.7987,184.79065 1826.234,184.79065 C 1868.6692,184.79065 1908.5699,168.25878 1938.5682,138.26008 C 1968.5803,108.24751 1985.1029,68.360195 1985.1029,25.92098 C 1985.1029,-16.518234 1968.5803,-56.405548 1938.5682,-86.418117 z M 1422.8223,-66.654757 C 1447.5578,-41.926287 1461.1719,-9.0428301 1461.1719,25.92098 C 1461.1719,98.109252 1402.4357,156.84457 1330.2515,156.84457 C 1295.2812,156.84457 1262.4022,143.22519 1237.6668,118.49672 C 1212.9453,93.768248 1199.3172,60.89866 1199.3172,25.92098 C 1199.3172,-9.0428301 1212.9453,-41.926287 1237.6668,-66.654757 C 1262.4022,-91.383228 1295.2812,-105.00261 1330.2515,-105.00261 C 1347.3004,-105.00261 1363.8645,-101.74339 1379.2238,-95.543935 L 1350.4581,-9.2508655 C 1348.2699,-3.314923 1339.6831,13.674632 1327.3846,18.293017 C 1323.1744,19.874086 1321.0415,24.561816 1322.6204,28.777999 C 1324.1992,32.994183 1328.8942,35.130013 1333.1045,33.548944 C 1355.0008,25.338481 1365.4157,-2.7046859 1365.845,-3.897422 C 1365.8727,-3.9806362 1378.6282,-42.217536 1394.029,-88.442995 C 1404.4578,-82.604136 1414.1525,-75.336767 1422.8223,-66.654757 z M 1753.7451,-115.37664 C 1706.4902,-91.036502 1672.9603,-43.715391 1668.0298,11.732968 L 1641.12,10.706661 C 1639.7904,-2.9959354 1633.7935,-15.713831 1623.9326,-25.588576 C 1622.9908,-26.517801 1622.0075,-27.363811 1621.0242,-28.223691 L 1721.3785,-187.35688 L 1753.7451,-115.37664 z M 1765.1849,-89.954718 L 1813.4092,17.280578 L 1695.9506,12.800883 C 1698.9283,-17.211685 1712.0439,-45.046817 1733.6631,-66.654757 C 1743.0947,-76.085694 1753.7174,-83.893955 1765.1849,-89.954718 z M 1570.113,-7.7252728 L 1556.942,-21.774594 C 1559.7812,-23.619175 1562.8004,-25.10316 1565.9581,-26.254289 L 1570.113,-7.7252728 z M 1574.9881,-28.556547 C 1577.204,-28.875535 1579.4477,-29.097439 1581.7328,-29.097439 C 1587.2865,-29.097439 1592.6602,-28.071132 1597.7153,-26.184944 L 1581.3312,-0.22213057 L 1574.9881,-28.556547 z M 1613.4623,-16.240854 C 1613.6562,-16.060556 1613.864,-15.894128 1614.044,-15.713831 C 1621.1488,-8.6128903 1625.5669,0.41584456 1626.938,10.179638 L 1597.5076,9.0562468 L 1613.4623,-16.240854 z M 1429.1793,-193.87532 L 1703.4571,-193.87532 L 1605.291,-38.223257 C 1597.9507,-41.371526 1589.9734,-43.063547 1581.7328,-43.063547 C 1578.3951,-43.063547 1575.1404,-42.716821 1571.9412,-42.189798 L 1565.3072,-71.869511 L 1586.3863,-71.869511 L 1586.3863,-90.509479 L 1532.8298,-71.869511 L 1555.7648,-71.869511 L 1562.8974,-39.970755 C 1557.2883,-38.098436 1552.0531,-35.421714 1547.3165,-32.051542 L 1420.3987,-167.53804 C 1423.4733,-176.76094 1426.4232,-185.60938 1429.1793,-193.87532 z M 1581.7328,62.3133 C 1569.5313,62.3133 1558.05,57.556225 1549.4217,48.929692 C 1540.7795,40.28929 1536.0291,28.819607 1536.0291,16.614865 C 1536.0291,6.6569055 1539.2284,-2.7740311 1545.0729,-10.61003 L 1577.1071,23.604853 L 1585.7215,62.105265 C 1584.4058,62.230086 1583.0763,62.3133 1581.7328,62.3133 z M 1594.8761,60.357768 L 1586.968,24.964018 L 1626.3425,26.461872 C 1622.7554,42.647024 1610.6093,55.628431 1594.8761,60.357768 z M 1826.234,156.84457 C 1791.2637,156.84457 1758.3847,143.22519 1733.6631,118.49672 C 1709.6756,94.517175 1696.1861,62.868061 1695.3828,29.096987 L 1825.9293,34.062098 L 1833.9898,32.910969 L 1833.6712,22.578546 L 1780.0593,-96.625719 C 1794.6153,-102.10398 1810.1961,-105.00261 1826.234,-105.00261 C 1861.2042,-105.00261 1894.0832,-91.383228 1918.8187,-66.654757 C 1943.5402,-41.926287 1957.1544,-9.0428301 1957.1544,25.92098 C 1957.1544,98.109252 1898.432,156.84457 1826.234,156.84457"
       style="fill:white;fill-rule:nonzero;stroke:none"
       id="path10508" />
    <path
       d="M 1203.2782,242.02812 C 1226.2963,271.08372 1252.5967,297.421 1281.6394,320.45745 L 1955.9633,-353.89612 C 1932.9314,-382.92399 1906.6033,-409.21966 1877.5606,-432.22837 L 1203.2782,242.02812"
       style="fill:#ee1c23;fill-rule:nonzero;stroke:none"
       id="path10510" />
  </g>
</svg>
