<?xml version="1.0" encoding="UTF-8" standalone="no"?>
<!-- Created with Inkscape (http://www.inkscape.org/) -->
<svg
   xmlns:svg="http://www.w3.org/2000/svg"
   xmlns="http://www.w3.org/2000/svg"
   version="1.0"
   width="960"
   height="960"
   id="svg3372">
  <defs
     id="defs3374" />
  <g
     transform="translate(-315.3905,392.9798)"
     id="layer1">
    <path
       d="M 315.3905,87.02018 C 315.3905,-178.07532 530.3049,-392.97982 795.38357,-392.97982 C 1060.4761,-392.97982 1275.3905,-178.07532 1275.3905,87.02018 C 1275.3905,352.11568 1060.4761,567.02018 795.38357,567.02018 C 530.3049,567.02018 315.3905,352.11568 315.3905,87.02018 z "
       style="fill:#ee1c23;fill-rule:nonzero;stroke:none"
       id="path3386" />
    <path
       d="M 795.38357,442.94147 C 991.94925,442.94147 1151.3043,283.58778 1151.3043,87.02018 C 1151.3043,-109.54742 991.94925,-268.90111 795.38357,-268.90111 C 598.83175,-268.90111 439.47666,-109.54742 439.47666,87.02018 C 439.47666,283.58778 598.83175,442.94147 795.38357,442.94147"
       style="fill:white;fill-rule:nonzero;stroke:none"
       id="path134" />
    <path
       d="M 1009.2717,21.497646 L 1035.7338,71.716354 L 1046.8845,71.716354 C 1053.389,71.716354 1058.6731,76.993058 1058.6731,83.502377 L 1058.6731,148.83102 C 1058.6731,155.34034 1053.389,160.61704 1046.8845,160.61704 C 1046.8845,160.61704 1043.6252,161.07408 1038.3134,161.79426 L 1038.3134,182.69333 C 1038.3134,188.10853 1033.9308,192.51271 1028.508,192.51271 L 1021.0049,192.51271 C 1015.5821,192.51271 1011.1856,188.10853 1011.1856,182.69333 L 1011.1856,165.36746 C 988.23235,168.27588 960.77168,171.47514 950.14801,171.51669 C 939.52434,171.54439 912.06367,168.27588 889.11043,165.36746 L 889.11043,182.69333 C 889.11043,188.10853 884.71395,192.51271 879.29116,192.51271 L 871.80189,192.51271 C 866.3791,192.51271 861.98262,188.10853 861.98262,182.69333 L 861.98262,161.79426 C 856.67078,161.07408 853.41156,160.61704 853.41156,160.61704 C 846.90699,160.61704 841.63676,155.34034 841.63676,148.83102 L 841.63676,83.502377 C 841.63676,76.993058 846.90699,71.716354 853.41156,71.716354 L 864.56226,71.716354 L 891.02436,21.497646 L 1009.2717,21.497646 z M 1023.9867,71.716354 L 1003.0029,31.884858 L 897.29316,31.884858 L 876.30932,71.716354 L 1023.9867,71.716354"
       style="fill:black;fill-rule:nonzero;stroke:none"
       id="path136" />
    <path
       d="M 748.76977,-62.624924 L 564.56139,-62.624924 L 539.45846,-37.515569 L 539.45846,160.75554 L 563.70151,160.75554 L 563.70151,182.69333 C 563.70151,188.10853 568.09799,192.51271 573.52078,192.51271 L 581.01006,192.51271 C 586.43284,192.51271 590.82932,188.10853 590.82932,182.69333 L 590.82932,160.75554 L 626.04278,160.75554 C 627.41581,168.26203 640.59138,174.14812 656.66558,174.14812 C 672.73978,174.14812 685.91536,168.26203 687.28839,160.75554 L 722.50184,160.75554 L 722.50184,182.69333 C 722.50184,188.10853 726.89832,192.51271 732.32111,192.51271 L 739.81038,192.51271 C 745.23317,192.51271 749.62965,188.10853 749.62965,182.69333 L 749.62965,160.75554 L 773.87271,160.75554 L 773.87271,-37.515569 L 748.76977,-62.624924"
       style="fill:#ee1c23;fill-rule:nonzero;stroke:none"
       id="path138" />
    <path
       d="M 513.12118,211.48668 L 1086.8827,211.48668 L 1086.8827,197.63706 L 513.12118,197.63706 L 513.12118,211.48668 z "
       style="fill:black;fill-rule:nonzero;stroke:none"
       id="path140" />
  </g>
</svg>
