<?xml version="1.0" encoding="UTF-8" standalone="no"?>
<!-- Created with Inkscape (http://www.inkscape.org/) -->
<svg
   xmlns:svg="http://www.w3.org/2000/svg"
   xmlns="http://www.w3.org/2000/svg"
   version="1.0"
   width="960"
   height="960"
   id="svg2838">
  <defs
     id="defs2840" />
  <g
     transform="translate(-591.0173,164.4084)"
     id="layer1">
    <path
       d="M 591.01729,315.59161 C 591.01729,50.496105 805.92924,-164.40839 1071.0173,-164.40839 C 1336.1053,-164.40839 1551.0173,50.496105 1551.0173,315.59161 C 1551.0173,580.68711 1336.1053,795.59161 1071.0173,795.59161 C 805.92924,795.59161 591.01729,580.68711 591.01729,315.59161 z "
       style="fill:#ee1c23;fill-rule:nonzero;stroke:none"
       id="path2850" />
    <path
       d="M 1071.0173,671.5129 C 1267.5853,671.5129 1426.9397,512.15921 1426.9397,315.59161 C 1426.9397,119.02401 1267.5853,-40.329678 1071.0173,-40.329678 C 874.44929,-40.329678 715.09488,119.02401 715.09488,315.59161 C 715.09488,512.15921 874.44929,671.5129 1071.0173,671.5129"
       style="fill:white;fill-rule:nonzero;stroke:none"
       id="path345" />
    <path
       d="M 1336.714,289.19424 C 1314.3859,266.88251 1284.7257,254.58405 1253.1702,254.58405 C 1238.0496,254.58405 1223.6069,257.47862 1210.3123,262.67223 L 1182.9486,201.81701 L 1193.9882,184.29725 C 1213.3697,188.21669 1232.4883,192.02533 1233.5397,192.02533 C 1244.3579,192.02533 1253.1287,183.25853 1253.1287,172.44198 C 1253.1287,161.61158 1244.3579,152.84477 1233.5397,152.84477 C 1232.9863,152.84477 1152.735,152.92787 1152.735,152.92787 C 1146.4129,152.92787 1141.2943,158.03838 1141.2943,164.3538 C 1141.2943,170.66923 1146.4129,175.77973 1152.735,175.77973 L 1152.735,175.90438 C 1152.735,175.90438 1164.7291,178.35576 1179.4762,181.36113 L 1170.5948,195.41849 L 962.50301,195.41849 C 967.89829,179.25599 971.45364,168.57793 971.45364,168.57793 C 971.52281,168.39789 971.53664,168.20399 971.57815,168.02395 C 971.63348,167.8162 971.68882,167.62231 971.71649,167.41457 C 971.74415,167.22067 971.73032,167.02678 971.73032,166.81903 C 971.74415,166.62514 971.75799,166.43124 971.74415,166.23735 C 971.73032,166.0296 971.68882,165.83571 971.64732,165.64181 C 971.61965,165.44792 971.60581,165.26788 971.55048,165.07398 C 971.49514,164.89394 971.42597,164.71389 971.3568,164.53385 C 971.28763,164.3538 971.23229,164.15991 971.13546,163.99371 C 971.05245,163.81367 970.94178,163.66132 970.84494,163.49512 C 970.7481,163.32893 970.65126,163.16273 970.52676,162.99654 C 970.41609,162.84419 970.27774,162.71955 970.1394,162.5672 C 970.00106,162.4287 969.89039,162.27636 969.73822,162.13786 C 969.58604,162.01322 969.42003,161.90242 969.25403,161.79162 C 969.10185,161.66697 968.94968,161.54233 968.76983,161.44538 C 968.60382,161.33458 968.41015,161.26534 968.21647,161.18224 C 968.03663,161.09914 967.88445,161.00219 967.69078,160.93295 L 933.75586,149.13307 L 943.92388,122.45871 L 1025.7384,121.54464 L 1049.9619,143.45473 C 1052.4382,145.69837 1056.2702,145.50447 1058.5113,143.02539 C 1060.7663,140.54631 1060.5726,136.70997 1058.0825,134.46633 L 1032.1159,110.96353 L 1030.359,109.37082 L 1027.9796,109.39852 L 939.66299,110.38185 L 935.54045,110.42339 L 917.98504,156.48722 L 923.89218,158.53696 L 958.06228,170.41993 L 927.32302,262.65838 C 913.79332,257.38167 899.26757,254.58405 884.31296,254.58405 C 819.16843,254.58405 766.17019,307.58653 766.17019,372.73513 C 766.17019,404.2984 778.45482,433.96428 800.76914,456.27601 C 823.0973,478.58774 852.7575,490.8862 884.31296,490.8862 C 915.86843,490.8862 945.54247,478.58774 967.85679,456.27601 C 990.17111,433.96428 1002.4557,404.2984 1002.4557,372.73513 C 1002.4557,341.17185 990.17111,311.50597 967.85679,289.19424 C 959.07217,280.41358 949.15315,273.21178 938.41793,267.67194 C 941.28158,259.08518 944.18673,250.41532 947.00887,241.93935 L 1036.8887,337.88949 C 1030.691,345.52063 1026.9558,355.22921 1026.9558,365.81032 C 1026.9558,377.66559 1031.5764,388.80068 1039.9598,397.19355 C 1048.3433,405.57257 1059.4797,410.18449 1071.3355,410.18449 C 1073.1062,410.18449 1074.8632,410.04599 1076.5924,409.8521 L 1078.8059,419.72687 L 1064.4184,419.72687 L 1064.4184,433.57649 L 1104.2467,433.57649 L 1104.2467,419.72687 L 1085.9027,419.72687 L 1083.3849,408.50869 C 1090.6201,406.47279 1097.2605,402.6503 1102.7249,397.19355 C 1109.2546,390.65653 1113.4602,382.44371 1115.0096,373.5384 L 1135.0551,374.30013 C 1135.4563,405.26788 1147.6856,434.33822 1169.6264,456.27601 C 1191.9407,478.58774 1221.6147,490.8862 1253.1702,490.8862 C 1284.7257,490.8862 1314.3859,478.58774 1336.714,456.27601 C 1359.0284,433.96428 1371.313,404.2984 1371.313,372.73513 C 1371.313,341.17185 1359.0284,311.50597 1336.714,289.19424 z M 953.16503,303.88868 C 971.55048,322.28097 981.677,346.72555 981.677,372.73513 C 981.677,426.43009 938.00291,470.09793 884.31296,470.09793 C 858.30495,470.09793 833.86019,459.97386 815.47474,441.58157 C 797.07545,423.18928 786.94893,398.74471 786.94893,372.73513 C 786.94893,346.72555 797.07545,322.28097 815.47474,303.88868 C 833.86019,285.49639 858.30495,275.37232 884.31296,275.37232 C 896.99879,275.37232 909.31109,277.79601 920.73802,282.40793 L 899.35058,346.5732 C 897.71816,350.99123 891.34066,363.63593 882.18252,367.05678 C 879.05603,368.234 877.46511,371.7241 878.641,374.86797 C 879.8169,377.99798 883.31691,379.59069 886.44341,378.41347 C 902.72608,372.30579 910.47315,351.44827 910.79133,350.56189 C 910.819,350.50649 920.29533,322.05938 931.74992,287.68463 C 939.49699,292.03341 946.70453,297.43476 953.16503,303.88868 z M 1199.2589,267.65809 C 1164.1204,285.75954 1139.1915,320.95141 1135.5116,362.18172 L 1115.5076,361.41999 C 1114.5115,351.22667 1110.057,341.76738 1102.7249,334.42709 C 1102.0332,333.73461 1101.2862,333.11137 1100.553,332.46044 L 1175.1877,214.11547 L 1199.2589,267.65809 z M 1207.7669,286.56281 L 1243.6247,366.3089 L 1156.2904,362.985 C 1158.49,340.65942 1168.243,319.95424 1184.3182,303.88868 C 1191.332,296.86693 1199.2313,291.06394 1207.7669,286.56281 z M 1062.6892,347.70887 L 1052.9085,337.26626 C 1055.0113,335.89515 1057.2662,334.78718 1059.618,333.9285 L 1062.6892,347.70887 z M 1066.3275,332.225 C 1067.9738,331.98956 1069.6477,331.82336 1071.3355,331.82336 C 1075.4719,331.82336 1079.4699,332.58509 1083.2189,333.9839 L 1071.045,353.29027 L 1066.3275,332.225 z M 1094.9364,341.3796 C 1095.0747,341.51809 1095.2269,341.62889 1095.3791,341.78123 C 1100.6498,347.04409 1103.9423,353.76115 1104.9522,361.01835 L 1083.0667,360.18737 L 1094.9364,341.3796 z M 957.89627,209.28196 L 1161.8655,209.28196 L 1088.8632,325.03705 C 1083.3988,322.68261 1077.464,321.43615 1071.3355,321.43615 C 1068.8592,321.43615 1066.4382,321.68544 1064.0588,322.08708 L 1059.12,300.01079 L 1074.8078,300.01079 L 1074.8078,286.14733 L 1034.9796,286.14733 L 1034.9796,300.01079 L 1052.0231,300.01079 L 1057.3354,323.73518 C 1053.1575,325.12015 1049.2702,327.11449 1045.7425,329.62127 L 951.3666,228.86531 C 953.64922,222.00975 955.84883,215.41734 957.89627,209.28196 z M 1071.3355,399.79728 C 1062.2603,399.79728 1053.7247,396.26562 1047.3057,389.8394 C 1040.8867,383.42703 1037.3452,374.88182 1037.3452,365.81032 C 1037.3452,358.41462 1039.7385,351.39287 1044.0824,345.57603 L 1066.9224,369.95135 L 1067.9046,371.00392 L 1074.3098,399.64493 C 1073.3276,399.72803 1072.3454,399.79728 1071.3355,399.79728 z M 1081.1161,398.34307 L 1075.2228,372.0288 L 1104.5095,373.13677 C 1101.8534,385.17208 1092.8059,394.82526 1081.1161,398.34307 z M 1253.1702,470.09793 C 1227.1622,470.09793 1202.7036,459.97386 1184.3182,441.58157 C 1166.4861,423.75711 1156.4564,400.21277 1155.8615,375.08956 L 1252.935,378.78741 L 1258.939,377.92873 L 1258.69,370.25605 L 1218.8203,281.60465 C 1229.6523,277.51901 1241.2453,275.37232 1253.1702,275.37232 C 1279.1782,275.37232 1303.623,285.49639 1322.0084,303.88868 C 1340.4077,322.28097 1350.5343,346.72555 1350.5343,372.73513 C 1350.5343,426.43009 1306.8602,470.09793 1253.1702,470.09793"
       style="fill:black;fill-rule:nonzero;stroke:none"
       id="path347" />
  </g>
</svg>
