<?xml version="1.0" encoding="UTF-8" standalone="no"?>
<!-- Created with Inkscape (http://www.inkscape.org/) -->
<svg
   xmlns:svg="http://www.w3.org/2000/svg"
   xmlns="http://www.w3.org/2000/svg"
   version="1.0"
   width="960.00006"
   height="960"
   id="svg3428">
  <defs
     id="defs3430" />
  <g
     transform="translate(-302.4849,407.2655)"
     id="layer1">
    <path
       d="M 302.48486,72.73447 C 302.48486,-192.36103 517.38936,-407.26553 782.48486,-407.26553 C 1047.5804,-407.26553 1262.4849,-192.36103 1262.4849,72.73447 C 1262.4849,337.82997 1047.5804,552.73447 782.48486,552.73447 C 517.38936,552.73447 302.48486,337.82997 302.48486,72.73447 z "
       style="fill:#ee1c23;fill-rule:nonzero;stroke:none"
       id="path3440" />
    <path
       d="M 782.48486,428.65576 C 979.05246,428.65576 1138.4061,269.30207 1138.4061,72.73447 C 1138.4061,-123.83313 979.05246,-283.18682 782.48486,-283.18682 C 585.91726,-283.18682 426.56357,-123.83313 426.56357,72.73447 C 426.56357,269.30207 585.91726,428.65576 782.48486,428.65576"
       style="fill:white;fill-rule:nonzero;stroke:none"
       id="path174" />
    <path
       d="M 1030.4761,176.70354 L 1030.4761,132.9803 C 1030.4761,132.9803 1027.6646,106.49983 1016.0448,97.054396 C 1007.4442,90.04649 997.26471,90.323483 988.40095,88.467634 L 988.40095,-43.796201 C 988.40095,-98.571433 943.83289,-143.1395 889.05766,-143.1395 L 676.27215,-143.20875 C 621.49692,-143.20875 576.92886,-98.640681 576.92886,-43.865449 L 576.92886,88.384536 C 568.0651,90.254235 557.88563,89.977242 549.28502,96.985148 C 537.66519,106.43059 534.85372,132.91105 534.85372,132.91105 L 534.85372,176.63429 L 572.70472,176.63429 L 572.70472,198.57208 L 570.05945,198.57208 C 565.59987,198.57208 561.98512,202.18683 561.98512,206.64641 C 561.98512,211.11984 565.59987,214.73459 570.05945,214.73459 L 572.70472,214.73459 L 572.70472,256.29728 C 572.70472,269.81451 583.67362,280.78341 597.19084,280.78341 C 610.72192,280.78341 621.67697,269.81451 621.67697,256.29728 L 621.67697,214.73459 L 943.65284,214.80383 L 943.65284,256.36653 C 943.65284,269.89761 954.60789,280.85265 968.13897,280.85265 C 981.65619,280.85265 992.62509,269.89761 992.62509,256.36653 L 992.62509,214.80383 L 995.27036,214.80383 C 999.72994,214.80383 1003.3447,211.18908 1003.3447,206.72951 C 1003.3447,202.25608 999.72994,198.64133 995.27036,198.64133 L 992.62509,198.64133 L 992.62509,176.70354 L 1030.4761,176.70354 z M 692.43466,198.57208 L 621.67697,198.57208 L 621.67697,176.63429 L 679.74841,176.63429 L 692.43466,190.27616 L 692.43466,198.57208 z M 692.43466,160.2502 C 686.46547,153.06224 678.40499,143.71375 669.47199,134.32371 C 675.92591,131.66459 681.85355,127.74515 686.93636,122.66234 C 688.9861,120.62644 690.7727,118.42435 692.43466,116.12532 L 692.43466,160.2502 z M 692.43466,53.580451 C 690.7727,51.295264 688.9861,49.093175 686.93636,47.057281 C 676.83999,36.960911 663.41971,31.393365 649.14075,31.393365 C 640.60939,31.393365 632.57661,33.456958 625.41636,37.030159 L 625.41636,-43.865449 C 625.41636,-57.451923 630.70692,-70.221269 640.31855,-79.832903 C 649.91633,-89.430687 662.68568,-94.72124 676.27215,-94.72124 L 889.05766,-94.651992 C 902.64413,-94.651992 915.41348,-89.361439 925.02511,-79.763655 C 934.62289,-70.152021 939.91345,-57.382675 939.91345,-43.796201 L 939.91345,37.099407 C 932.7532,33.526206 924.72042,31.476463 916.18906,31.476463 C 901.9101,31.476463 888.47597,37.030159 878.3796,47.12653 C 876.35756,49.162423 874.55711,51.364512 872.89515,53.649699 L 872.89515,18.540922 L 791.77795,-23.104874 L 791.77795,-35.320236 L 773.59341,-35.320236 L 773.59341,-23.201822 L 692.43466,18.471674 L 692.43466,53.580451 z M 878.3796,122.73158 C 883.47626,127.81439 889.4039,131.74768 895.85782,134.39296 C 886.92482,143.783 878.86434,153.13149 872.89515,160.31944 L 872.89515,116.20842 C 874.55711,118.4936 876.35756,120.69569 878.3796,122.73158 z M 943.65284,198.64133 L 872.89515,198.57208 L 872.89515,190.34541 L 885.59525,176.70354 L 943.65284,176.70354 L 943.65284,198.64133 z M 720.79867,170.13882 L 844.1849,170.13882 L 844.1849,199.00142 L 720.79867,199.00142 L 720.79867,170.13882 z "
       style="fill:black;fill-rule:nonzero;stroke:none"
       id="path3458" />
    <path
       d="M 621.13683,112.85681 C 613.65804,105.37802 609.5447,95.433991 609.5447,84.852884 C 609.5447,74.271777 613.65804,64.327753 621.13683,56.84896 C 628.61562,49.370167 638.55965,45.256831 649.14075,45.256831 C 659.72186,45.256831 669.66589,49.370167 677.14468,56.84896 C 684.62347,64.327753 688.75066,74.271777 688.75066,84.852884 C 688.75066,106.69373 670.9816,124.46279 649.14075,124.46279 C 638.55965,124.46279 628.61562,120.3356 621.13683,112.85681 z "
       style="fill:white;fill-rule:nonzero;stroke:none"
       id="path3456" />
    <path
       d="M 944.19298,112.92606 C 936.71419,120.4187 926.77016,124.53203 916.18906,124.53203 C 894.34821,124.53203 876.57915,106.76298 876.57915,84.922132 C 876.57915,74.354875 880.70634,64.410851 888.18513,56.918208 C 895.66392,49.439415 905.60795,45.326079 916.18906,45.326079 C 926.77016,45.326079 936.71419,49.439415 944.19298,56.918208 C 951.67177,64.410851 955.78511,74.354875 955.78511,84.922132 C 955.78511,95.503239 951.67177,105.44726 944.19298,112.92606 z "
       style="fill:white;fill-rule:nonzero;stroke:none"
       id="path3444" />
  </g>
</svg>
