<?xml version="1.0" encoding="UTF-8" standalone="no"?>
<!-- Created with Inkscape (http://www.inkscape.org/) -->
<svg
   xmlns:svg="http://www.w3.org/2000/svg"
   xmlns="http://www.w3.org/2000/svg"
   version="1.0"
   width="960"
   height="960"
   id="svg2713">
  <defs
     id="defs2715" />
  <g
     transform="translate(-315.303,393.0283)"
     id="layer1">
    <path
       d="M 315.303,86.97858 C 315.303,-178.11392 530.21496,-393.02832 795.303,-393.02832 C 1060.4049,-393.02832 1275.303,-178.11392 1275.303,86.97858 C 1275.303,352.07118 1060.4049,566.97168 795.303,566.97168 C 530.21496,566.97168 315.303,352.07118 315.303,86.97858 z "
       style="fill:#ee1c23;fill-rule:nonzero;stroke:none"
       id="path2727" />
    <path
       d="M 795.303,442.88548 C 991.871,442.88548 1151.2254,283.54428 1151.2254,86.97858 C 1151.2254,-109.58702 991.871,-268.94212 795.303,-268.94212 C 598.735,-268.94212 439.39442,-109.58702 439.39442,86.97858 C 439.39442,283.54428 598.735,442.88548 795.303,442.88548"
       style="fill:white;fill-rule:nonzero;stroke:none"
       id="path93" />
    <path
       d="M 937.08817,229.24708 C 958.73845,229.24708 976.28003,211.70278 976.28003,190.06708 C 976.28003,168.43138 958.73845,150.88708 937.08817,150.88708 C 915.45172,150.88708 897.91014,168.43138 897.91014,190.06708 C 897.91014,211.70278 915.45172,229.24708 937.08817,229.24708"
       style="fill:black;fill-rule:nonzero;stroke:none"
       id="path95" />
    <path
       d="M 661.1819,230.41208 C 682.81835,230.41208 700.35992,212.86778 700.35992,191.21818 C 700.35992,169.58248 682.81835,152.03818 661.1819,152.03818 C 639.53161,152.03818 621.99004,169.58248 621.99004,191.21818 C 621.99004,212.86778 639.53161,230.41208 661.1819,230.41208"
       style="fill:black;fill-rule:nonzero;stroke:none"
       id="path97" />
    <path
       d="M 1058.2744,166.51748 C 1061.8298,163.14728 1064.0847,158.40408 1064.0847,153.11998 L 1064.0847,108.10118 C 1064.0847,97.89358 1061.1934,79.29518 1060.2804,79.12878 L 1026.5945,-36.44182 C 1032.1696,-37.53752 1036.3751,-42.43322 1036.3751,-48.32762 C 1036.3751,-55.02632 1030.9522,-60.44912 1024.2565,-60.44912 L 551.50556,-60.44912 C 550.45417,-60.44912 549.45812,-60.26882 548.4759,-60.01922 C 544.85138,-59.51992 536.9383,-57.85562 531.58452,-52.65472 C 524.44615,-45.73412 520.55879,-30.94972 520.55879,-30.94972 L 520.55879,141.51158 L 520.33743,141.71968 C 520.33743,141.71968 519.46589,152.98128 524.22481,159.04208 C 526.5766,162.03778 530.50546,164.70058 533.88098,166.64228 C 528.34735,167.76568 524.16948,172.66148 524.16948,178.52808 C 524.16948,185.21288 529.60625,190.64958 536.30193,190.64958 L 615.48803,190.64958 C 615.80621,165.67148 636.12843,145.50588 661.1819,145.50588 C 686.23535,145.50588 706.54374,165.67148 706.86193,190.64958 L 891.40814,190.64958 C 891.40814,190.45538 891.38047,190.26128 891.38047,190.06708 C 891.38047,164.82548 911.84103,144.35478 937.08817,144.35478 C 962.33531,144.35478 982.8097,164.82548 982.8097,190.06708 C 982.8097,190.26128 982.78203,190.45538 982.78203,190.64958 L 1057.1539,190.64958 C 1063.8496,190.64958 1069.2725,185.21288 1069.2725,178.52808 C 1069.2725,172.21768 1064.4444,167.08608 1058.2744,166.51748 z M 605.18166,50.37828 L 537.87901,50.37828 L 537.87901,-22.04582 C 538.00352,-23.89032 539.29009,-36.20602 551.50556,-36.20602 L 605.18166,-36.20602 L 605.18166,50.37828 z M 622.50189,-36.20602 L 688.31047,-36.20602 L 688.31047,50.37828 L 622.50189,50.37828 L 622.50189,-36.20602 z M 705.63069,-36.20602 L 774.89778,-36.20602 L 774.89778,50.37828 L 705.63069,50.37828 L 705.63069,-36.20602 z M 792.20418,-36.20602 L 859.97718,-36.20602 L 859.97718,50.37828 L 792.20418,50.37828 L 792.20418,-36.20602 z M 877.29741,-36.20602 L 944.60006,-36.20602 L 944.60006,50.37828 L 877.29741,50.37828 L 877.29741,-36.20602 z M 961.92028,50.37828 L 961.92028,-36.20602 L 1008.6379,-36.20602 L 1033.8573,50.37828 L 961.92028,50.37828"
       style="fill:black;fill-rule:nonzero;stroke:none"
       id="path99" />
  </g>
</svg>
