<?xml version="1.0" encoding="UTF-8" standalone="no"?>
<!-- Created with Inkscape (http://www.inkscape.org/) -->
<svg
   xmlns:svg="http://www.w3.org/2000/svg"
   xmlns="http://www.w3.org/2000/svg"
   version="1.0"
   width="959.99969"
   height="960.00006"
   id="svg3388">
  <defs
     id="defs3390"><clipPath
   id="id51">
      <path
   d="M 351.32,477.52 L 422.24,477.52 L 422.24,406.42 L 351.32,406.42 L 351.32,477.52 z "
   id="path15" />

    </clipPath>

        
        
        
        
        
      </defs>
  <g
     transform="translate(-765.3888,424.3702)"
     id="layer1">
    <path
       d="M 765.38884,55.629794 C 765.38884,-209.47211 980.2924,-424.37024 1245.3887,-424.37024 C 1510.4849,-424.37024 1725.3885,-209.47211 1725.3885,55.629794 C 1725.3885,320.71786 1510.4849,535.62983 1245.3887,535.62983 C 980.2924,535.62983 765.38884,320.71786 765.38884,55.629794 z "
       style="fill:black;fill-rule:nonzero;stroke:none"
       id="path3411" />
    <path
       d="M 1245.3887,519.30565 C 1501.47,519.30565 1709.0644,311.69806 1709.0644,55.629794 C 1709.0644,-200.45231 1501.47,-408.04606 1245.3887,-408.04606 C 989.32126,-408.04606 781.71291,-200.45231 781.71291,55.629794 C 781.71291,311.69806 989.32126,519.30565 1245.3887,519.30565"
       style="fill:white;fill-rule:nonzero;stroke:none"
       id="path150" />
    <path
       d="M 1520.346,-40.682862 L 1554.7416,24.60002 L 1569.235,24.60002 C 1577.6952,24.60002 1584.5466,31.447875 1584.5466,39.914313 L 1584.5466,124.84155 C 1584.5466,133.30799 1577.6952,140.15584 1569.235,140.15584 C 1569.235,140.15584 1564.991,140.7507 1558.098,141.69142 L 1558.098,168.86149 C 1558.098,175.90302 1552.3839,181.61649 1545.3383,181.61649 L 1535.5882,181.61649 C 1528.5427,181.61649 1522.8285,175.90302 1522.8285,168.86149 L 1522.8285,146.33966 C 1492.982,150.13019 1457.2826,154.26657 1443.4827,154.32191 C 1429.669,154.37724 1393.9696,150.13019 1364.1231,146.33966 L 1364.1231,168.86149 C 1364.1231,175.90302 1358.4089,181.61649 1351.3634,181.61649 L 1341.6133,181.61649 C 1334.5678,181.61649 1328.8536,175.90302 1328.8536,168.86149 L 1328.8536,141.69142 C 1321.9606,140.7507 1317.7167,140.15584 1317.7167,140.15584 C 1309.2564,140.15584 1302.405,133.30799 1302.405,124.84155 L 1302.405,39.914313 C 1302.405,31.447875 1309.2564,24.60002 1317.7167,24.60002 L 1332.21,24.60002 L 1366.6057,-40.682862 L 1520.346,-40.682862 z M 1539.4716,24.60002 L 1512.1909,-27.180829 L 1374.7608,-27.180829 L 1347.48,24.60002 L 1539.4716,24.60002"
       style="fill:#999;fill-rule:nonzero;stroke:none"
       id="path144" />
    <path
       d="M 1181.6735,-150.05486 L 942.20752,-150.05486 L 909.55938,-117.42034 L 909.55938,140.34952 L 941.08412,140.34952 L 941.08412,168.86149 C 941.08412,175.90302 946.79824,181.61649 953.8438,181.61649 L 963.59386,181.61649 C 970.63942,181.61649 976.35354,175.90302 976.35354,168.86149 L 976.35354,140.34952 L 1022.122,140.34952 C 1023.925,150.10252 1041.0535,157.75275 1061.9405,157.75275 C 1082.8414,157.75275 1099.9699,150.10252 1101.759,140.34952 L 1147.5275,140.34952 L 1147.5275,168.86149 C 1147.5275,175.90302 1153.2416,181.61649 1160.2871,181.61649 L 1170.0372,181.61649 C 1177.0828,181.61649 1182.7969,175.90302 1182.7969,168.86149 L 1182.7969,140.34952 L 1214.3216,140.34952 L 1214.3216,-117.42034 L 1181.6735,-150.05486"
       style="fill:#999;fill-rule:nonzero;stroke:none"
       id="path146" />
    <path
       d="M 875.33014,204.81619 L 1621.2307,204.81619 L 1621.2307,186.80426 L 875.33014,186.80426 L 875.33014,204.81619 z "
       style="fill:#999;fill-rule:nonzero;stroke:none"
       id="path148" />
    <path
       d="M 970.66716,440.09188 L 1629.8712,-219.1006 L 1520.1241,-328.84612 L 860.92002,330.34636 L 970.66716,440.09188"
       style="fill:black;fill-rule:nonzero;stroke:none"
       id="path152" />
  </g>
</svg>
