<?xml version="1.0" encoding="UTF-8" standalone="no"?>
<!-- Created with Inkscape (http://www.inkscape.org/) -->
<svg
   xmlns:svg="http://www.w3.org/2000/svg"
   xmlns="http://www.w3.org/2000/svg"
   version="1.0"
   width="960.00012"
   height="959.99902"
   id="svg3328">
  <defs
     id="defs3330">
    <clipPath
       id="id50">
      <path
   d="M 440.78,628.72 L 511.88,628.72 L 511.88,557.8 L 440.78,557.8 L 440.78,628.72 z "
   id="path21" />

    </clipPath>
  </defs>
  <g
     transform="translate(788.9842,893.0283)"
     id="layer1">
    <path
       d="M 82.857147 419.99902 A 260 348.57144 0 1 1  -437.14285,419.99902 A 260 348.57144 0 1 1  82.857147 419.99902 z"
       transform="matrix(1.730769,0,0,1.290984,-2.390902,-955.2414)"
       style="opacity:1;fill:white;fill-opacity:1;fill-rule:evenodd;stroke:none;stroke-width:0.25;stroke-linejoin:round;stroke-miterlimit:4;stroke-dasharray:none;stroke-opacity:1"
       id="path3345" />
    <path
       d="M -305.09121,-697.07101 C -426.81704,-697.07101 -525.49534,-598.39194 -525.49534,-476.66232 L -525.49534,-297.00122 L -583.128,-297.00122 L -474.36468,-152.41522 L -365.36618,-297.00122 L -422.63916,-297.00122 L -422.63916,-476.66232 C -422.63916,-541.58386 -370.00059,-594.21732 -305.09121,-594.21732 C -240.168,-594.21732 -187.52943,-541.58386 -187.52943,-476.66232 L -187.52943,-159.76588 L -84.673253,-159.76588 L -84.673253,-476.66232 C -84.673253,-598.39194 -183.35155,-697.07101 -305.09121,-697.07101"
       style="fill:black;fill-rule:nonzero;stroke:none"
       id="path94" />
    <g
       transform="matrix(13.83405,0,0,-13.86916,-6896.821,7816.721)"
       clip-path="url(#id50)"
       id="g96">
        <path
   d="M 500.739,617.857 C 487.19,631.373 465.22,631.373 451.67,617.857 C 438.12,604.342 438.12,582.428 451.67,568.912 C 465.22,555.397 487.189,555.397 500.739,568.912 C 514.289,582.428 514.289,604.342 500.739,617.857 z M 458.013,575.239 C 448.502,584.725 447.996,599.789 456.49,609.872 L 492.734,573.719 C 482.625,565.247 467.523,565.752 458.013,575.239 z M 495.92,576.898 L 459.676,613.05 C 469.784,621.522 484.887,621.017 494.397,611.531 C 503.907,602.045 504.414,586.98 495.92,576.898"
   style="fill:#ee1c23;fill-rule:nonzero;stroke:none"
   id="path98" />

      </g>
  </g>
</svg>
