<?xml version="1.0" encoding="UTF-8" standalone="no"?>
<!-- Created with Inkscape (http://www.inkscape.org/) -->
<svg
   xmlns:svg="http://www.w3.org/2000/svg"
   xmlns="http://www.w3.org/2000/svg"
   version="1.0"
   width="960"
   height="960"
   id="svg3468">
  <defs
     id="defs3470" />
  <g
     transform="translate(-679.6277,-95.6306)"
     id="layer1">
    <path
       d="M 679.62771,575.6306 C 679.62771,310.54249 894.53221,95.6306 1159.6277,95.6306 C 1424.7232,95.6306 1639.6277,310.54249 1639.6277,575.6306 C 1639.6277,840.7186 1424.7232,1055.6306 1159.6277,1055.6306 C 894.53221,1055.6306 679.62771,840.7186 679.62771,575.6306 z "
       style="fill:#ee1c23;fill-rule:nonzero;stroke:none"
       id="path3480" />
    <path
       d="M 1159.6277,931.55273 C 1356.1953,931.55273 1515.549,772.19807 1515.549,575.6306 C 1515.549,379.06249 1356.1953,219.70825 1159.6277,219.70825 C 963.06011,219.70825 803.70642,379.06249 803.70642,575.6306 C 803.70642,772.19807 963.06011,931.55273 1159.6277,931.55273"
       style="fill:white;fill-rule:nonzero;stroke:none"
       id="path178" />
    <path
       d="M 1441.6059,635.03433 C 1439.4731,615.8322 1432.5759,598.069 1422.1195,582.949 L 1436.44,561.9762 L 1366.8457,514.4562 L 1352.082,536.06473 C 1344.3262,534.405 1336.2796,533.49193 1328.0252,533.49193 C 1322.3192,533.49193 1316.7101,533.9346 1311.2118,534.73673 L 1307.6247,506.50207 L 1317.638,501.16233 C 1334.95,503.47167 1339.5758,503.47167 1339.5758,503.47167 C 1346.5006,471.15593 1333.8005,433.05684 1333.8005,433.05684 C 1333.8005,433.05684 1284.0111,431.97769 1259.1788,488.2962 L 1183.449,456.20116 C 1183.546,455.89684 1183.6568,455.55092 1183.7122,455.27433 C 1185.4434,447.48575 1190.6509,440.55487 1190.6509,440.55487 C 1201.8967,438.82559 1212.2978,445.17545 1221.8125,438.24457 C 1220.0813,431.32756 1228.7373,426.70697 1234.8034,428.43625 C 1239.1384,424.10612 1230.4685,417.17535 1234.8034,412.84521 C 1237.4072,411.11604 1240.2048,411.97375 1240.2879,411.11604 C 1241.1466,402.45588 1239.997,394.66729 1233.9309,387.73641 C 1233.9309,387.73641 1191.5095,336.66111 1156.8716,406.78591 C 1156.8716,406.78591 1093.6758,399.86889 1089.3409,409.38676 C 1089.3409,409.38676 1094.6592,420.66153 1085.8785,419.77609 C 1068.5665,418.04681 1027.8625,429.30772 1027.8625,429.30772 L 1027.8625,444.02719 C 1027.8625,444.02719 1070.2977,436.22484 1097.1382,441.42644 L 1096.2657,444.88489 C 1096.2657,444.88489 1047.5843,474.15753 1034.7873,485.58473 C 1015.1485,503.12607 1006.3125,525.77247 1003.6672,533.72767 C 999.13836,532.82847 994.51259,532.3442 989.76217,532.3442 C 935.66557,532.3442 889.32475,584.29087 867.40081,653.55807 C 866.92992,655.02367 888.31373,650.86047 888.38298,652.3954 C 888.54917,655.909 888.90926,659.38207 889.43555,662.78473 L 869.69984,662.78473 L 869.69984,678.95753 L 893.35499,678.95753 C 906.38748,717.7618 943.03356,745.74793 986.23051,745.74793 C 1028.5688,745.74793 1064.6332,718.86793 1078.3166,681.26687 L 1184.8756,681.26687 C 1184.8756,681.26687 1199.1268,682.04233 1211.91,665.84287 C 1210.7328,677.17193 1209.1816,691.18687 1207.9629,699.7362 L 1240.3848,691.6018 C 1256.4781,723.69673 1289.6756,745.74793 1328.0252,745.74793 C 1382.1218,745.74793 1425.9835,701.8802 1425.9835,647.78847 C 1425.9835,643.47273 1425.7065,639.22527 1425.1664,635.06207 L 1441.6059,635.03433 z M 1146.4844,524.54153 C 1148.5203,511.6338 1160.1401,495.55913 1165.0568,489.22313 L 1206.7164,508.2034 C 1177.3691,514.8018 1157.2179,521.33193 1146.4013,525.23273 C 1146.429,525.01193 1146.4567,524.76233 1146.4844,524.54153 z M 1015.3978,584.17993 C 1029.6768,590.9586 1037.9727,598.42953 1049.5094,616.8978 L 1006.8526,617.10473 L 1015.3978,584.17993 z M 911.45644,654.7058 C 911.24869,652.42313 911.12405,650.11273 911.12405,647.78847 C 911.12405,645.06313 915.59747,646.9586 915.88831,644.31647 C 919.9047,606.6322 947.63163,579.08873 983.05895,577.941 L 976.60503,617.10473 L 968.98774,617.10473 C 954.11325,617.10473 942.05024,631.35433 942.05024,648.93727 C 942.05024,650.91593 942.21643,652.83807 942.52113,654.7058 L 911.45644,654.7058 z M 986.23051,722.87967 C 956.78623,722.87967 931.31679,705.93353 919.00448,681.26687 L 1053.4566,681.26687 C 1041.1442,705.93353 1015.6748,722.87967 986.23051,722.87967 z M 1221.8679,605.49833 L 1208.1429,605.80233 C 1211.5776,588.55113 1223.7376,551.89087 1266.1728,526.71327 L 1268.6103,550.14793 C 1247.5866,562.9586 1231.0779,582.38153 1221.8679,605.49833 z M 1328.0252,722.87967 C 1286.5456,722.87967 1252.9187,689.26367 1252.9187,647.78847 C 1252.9187,622.81887 1265.1202,600.71113 1283.8588,587.0578 L 1329.1747,667.40553 L 1347.6501,660.4882 L 1316.4746,576.21193 L 1316.1561,573.6242 C 1320.0201,573.0162 1323.9811,572.6834 1328.0252,572.6834 C 1369.5048,572.6834 1403.1317,606.30047 1403.1317,647.78847 C 1403.1317,689.26367 1369.5048,722.87967 1328.0252,722.87967"
       style="fill:black;fill-rule:nonzero;stroke:none"
       id="path180" />
  </g>
</svg>
