<?xml version="1.0" encoding="UTF-8" standalone="no"?>
<!-- Created with Inkscape (http://www.inkscape.org/) -->
<svg
   xmlns:svg="http://www.w3.org/2000/svg"
   xmlns="http://www.w3.org/2000/svg"
   version="1.0"
   width="689.99994"
   height="690"
   id="svg10877">
  <defs
     id="defs10879" />
  <g
     transform="translate(-468.1986,571.5507)"
     id="layer1">
    <path
       d="M 468.19864,-226.54575 C 468.19864,-417.08041 622.66897,-571.55075 813.19366,-571.55075 C 1003.7283,-571.55075 1158.1986,-417.08041 1158.1986,-226.54575 C 1158.1986,-36.021091 1003.7283,118.44925 813.19366,118.44925 C 622.66897,118.44925 468.19864,-36.021091 468.19864,-226.54575"
       style="fill:#176fc1;fill-rule:nonzero;stroke:none"
       id="path10464" />
    <path
       d="M 971.57602,-427.14417 C 958.01831,-440.70189 939.99113,-448.16759 920.80926,-448.16759 C 911.62147,-448.16759 902.8418,-446.41564 894.76889,-443.26014 L 878.13531,-480.24024 L 884.84448,-490.89131 C 896.62038,-488.50229 908.24697,-486.1929 908.88404,-486.1929 C 915.45386,-486.1929 920.78935,-491.51843 920.78935,-498.0982 C 920.78935,-504.67797 915.45386,-510.00351 908.88404,-510.00351 C 908.5456,-510.00351 859.76968,-509.95374 859.76968,-509.95374 C 855.92734,-509.95374 852.8216,-506.848 852.8216,-503.00566 C 852.8216,-499.17326 855.92734,-496.06753 859.76968,-496.06753 L 859.76968,-495.99785 C 859.76968,-495.99785 867.05621,-494.49476 876.025,-492.67313 L 870.62979,-484.12241 L 744.16081,-484.12241 C 747.43577,-493.94727 749.6058,-500.43745 749.6058,-500.43745 C 749.63566,-500.55691 749.64562,-500.6664 749.67548,-500.78585 C 749.70534,-500.90531 749.74516,-501.02476 749.75511,-501.14421 C 749.77502,-501.26366 749.76507,-501.39306 749.76507,-501.51252 C 749.77502,-501.63197 749.78498,-501.75142 749.77502,-501.87087 C 749.76507,-501.99032 749.7352,-502.10977 749.7153,-502.22922 C 749.69539,-502.33872 749.68543,-502.45817 749.65557,-502.56767 C 749.62571,-502.68712 749.57594,-502.78666 749.53612,-502.90611 C 749.4963,-503.01561 749.45648,-503.12511 749.40671,-503.2346 C 749.35694,-503.33415 749.28726,-503.43369 749.22754,-503.52328 C 749.16781,-503.63278 749.10809,-503.73232 749.03841,-503.83186 C 748.96873,-503.92145 748.87914,-504.01104 748.7995,-504.09067 C 748.71987,-504.18026 748.65019,-504.26985 748.55065,-504.35944 C 748.47101,-504.42912 748.36151,-504.4988 748.26197,-504.56848 C 748.16243,-504.63816 748.07284,-504.71779 747.9733,-504.77752 C 747.8638,-504.8472 747.74435,-504.88701 747.63485,-504.93678 C 747.52536,-504.98656 747.42581,-505.04628 747.31632,-505.0861 L 726.69107,-512.26313 L 732.87267,-528.46868 L 782.59424,-529.02611 L 797.30665,-515.71726 C 798.8197,-514.35352 801.149,-514.46302 802.51273,-515.97607 C 803.87647,-517.47916 803.75702,-519.80846 802.25392,-521.1722 L 786.46645,-535.45657 L 785.39139,-536.42214 L 783.94802,-536.40223 L 730.27461,-535.80497 L 727.76613,-535.78506 L 717.10511,-507.79366 L 741.46321,-499.32258 L 722.77905,-443.26014 C 714.55682,-446.47536 705.72738,-448.16759 696.63914,-448.16759 C 657.05101,-448.16759 624.839,-415.95558 624.839,-376.36745 C 624.839,-357.18557 632.3047,-339.15839 645.87237,-325.59073 C 659.43008,-312.03301 677.46722,-304.56731 696.63914,-304.56731 C 715.82101,-304.56731 733.84819,-312.03301 747.41586,-325.59073 C 760.97357,-339.15839 768.43927,-357.18557 768.43927,-376.36745 C 768.43927,-395.54933 760.97357,-413.57651 747.41586,-427.14417 C 742.08037,-432.46971 736.03813,-436.84959 729.52804,-440.21413 C 731.26008,-445.43017 733.02199,-450.70593 734.74408,-455.86224 L 789.36315,-397.54018 C 785.60043,-392.90149 783.33086,-386.99861 783.33086,-380.57811 C 783.33086,-373.37122 786.13796,-366.60231 791.23455,-361.50573 C 796.33113,-356.40914 803.10004,-353.60204 810.30693,-353.60204 C 811.38199,-353.60204 812.44709,-353.69163 813.49229,-353.81108 L 814.83612,-347.80865 L 806.09627,-347.80865 L 806.09627,-339.38734 L 830.30505,-339.38734 L 830.30505,-347.80865 L 819.15627,-347.80865 L 817.62331,-354.62733 C 822.0231,-355.86166 826.05458,-358.19096 829.3793,-361.50573 C 833.3411,-365.46753 835.89935,-370.46457 836.845,-375.87969 L 849.02903,-375.41184 C 849.26793,-356.58832 856.70377,-338.92945 870.03253,-325.59073 C 883.6002,-312.03301 901.62738,-304.56731 920.80926,-304.56731 C 939.99113,-304.56731 952.10547,-317.53772 965.66319,-331.10539 C 979.23085,-344.6631 992.60939,-357.18557 992.60939,-376.36745 C 992.60939,-395.54933 985.14369,-413.57651 971.57602,-427.14417 z M 738.48688,-418.20524 C 749.65557,-407.03655 755.81726,-392.17483 755.81726,-376.36745 C 755.81726,-343.73736 729.26923,-317.18932 696.63914,-317.18932 C 680.83176,-317.18932 665.97999,-323.35102 654.80135,-334.52966 C 643.62271,-345.69835 637.47097,-360.56007 637.47097,-376.36745 C 637.47097,-392.17483 643.62271,-407.03655 654.80135,-418.20524 C 665.97999,-429.38389 680.83176,-435.53562 696.63914,-435.53562 C 704.3537,-435.53562 711.82935,-434.06239 718.77743,-431.26524 L 705.77716,-392.26442 C 704.78173,-389.58672 700.90952,-381.90202 695.34508,-379.81163 C 693.44382,-379.10487 692.47825,-376.97466 693.19496,-375.0734 C 693.90171,-373.17213 696.03193,-372.20657 697.93319,-372.91332 C 707.82774,-376.62626 712.5361,-389.308 712.73519,-389.84553 C 712.74514,-389.87539 718.50866,-407.16596 725.4667,-428.05001 C 730.17507,-425.41213 734.5649,-422.12722 738.48688,-418.20524 z M 888.04976,-440.22408 C 866.6879,-429.22462 851.5375,-407.84285 849.30775,-382.778 L 837.14363,-383.2359 C 836.53642,-389.43741 833.83881,-395.19097 829.3793,-399.65048 C 828.95127,-400.06856 828.50333,-400.44683 828.05539,-400.845 L 873.41698,-472.76459 L 888.04976,-440.22408 z M 893.21602,-428.73686 L 915.01587,-380.26952 L 861.92976,-382.30019 C 863.26363,-395.85791 869.19638,-408.4401 878.97147,-418.20524 C 883.23189,-422.47562 888.02985,-425.99943 893.21602,-428.73686 z M 805.05107,-391.57757 L 799.09842,-397.9284 C 800.38252,-398.7546 801.74625,-399.42154 803.17967,-399.94911 L 805.05107,-391.57757 z M 807.26092,-400.98436 C 808.25635,-401.13367 809.27168,-401.23321 810.30693,-401.23321 C 812.80545,-401.23321 815.24424,-400.76536 817.52377,-399.91925 L 810.12775,-388.18317 L 807.26092,-400.98436 z M 824.64107,-395.41992 C 824.73066,-395.34029 824.82025,-395.27061 824.90984,-395.18102 C 828.11511,-391.97574 830.11592,-387.89449 830.73308,-383.48475 L 817.43418,-383.99242 L 824.64107,-395.41992 z M 741.35371,-475.71105 L 865.31421,-475.71105 L 820.94804,-405.35428 C 817.63327,-406.7877 814.02982,-407.54422 810.30693,-407.54422 C 808.79388,-407.54422 807.32064,-407.39491 805.87728,-407.156 L 802.88104,-420.5644 L 812.40728,-420.5644 L 812.40728,-428.98571 L 788.1985,-420.5644 L 798.56089,-420.5644 L 801.78607,-406.15062 C 799.25769,-405.30451 796.88857,-404.09009 794.7484,-402.56709 L 737.39191,-463.80575 C 738.77555,-467.97658 740.10943,-471.96825 741.35371,-475.71105 z M 810.30693,-359.923 C 804.78231,-359.923 799.59613,-362.07312 795.69406,-365.96524 C 791.79199,-369.86731 789.65182,-375.06344 789.65182,-380.57811 C 789.65182,-385.07744 791.09519,-389.33786 793.73307,-392.88158 L 807.61927,-378.05968 L 808.21653,-377.41265 L 812.10865,-360.01259 C 811.51139,-359.96282 810.91414,-359.923 810.30693,-359.923 z M 816.24962,-360.79897 L 812.66609,-376.79548 L 830.46432,-376.11859 C 828.85173,-368.80221 823.35697,-362.93914 816.24962,-360.79897 z M 920.80926,-317.18932 C 905.00188,-317.18932 890.14016,-323.35102 878.97147,-334.52966 C 868.13127,-345.3599 862.0293,-359.66419 861.67095,-374.93404 L 920.6699,-372.68437 L 924.31316,-373.21195 L 924.16384,-377.8805 L 899.93515,-431.753 C 906.52488,-434.23161 913.56255,-435.53562 920.80926,-435.53562 C 936.61663,-435.53562 951.47835,-429.38389 962.64704,-418.20524 C 973.82569,-407.03655 979.98738,-392.17483 979.98738,-376.36745 C 979.98738,-343.73736 953.43935,-317.18932 920.80926,-317.18932"
       style="fill:white;fill-rule:nonzero;stroke:none"
       id="path10466" />
    <path
       d="M 957.08261,-19.148606 C 957.08261,-19.148606 957.08261,-33.442935 953.50903,-48.334521 C 950.85124,-59.433531 944.54023,-70.194055 941.50418,-74.952196 C 941.15578,-75.84808 940.60829,-76.714101 939.81195,-77.510443 L 934.26743,-78.615367 C 942.08153,-82.338263 947.49665,-90.311632 947.49665,-99.549194 C 947.49665,-112.33047 937.1243,-122.70282 924.33307,-122.70282 C 911.54183,-122.70282 901.16948,-112.33047 901.16948,-99.549194 C 901.16948,-91.545962 902.68253,-83.463095 908.84422,-79.292257 C 910.84503,-77.948431 913.8114,-77.211815 916.85741,-76.813644 L 912.41781,-76.315931 C 912.41781,-76.315931 912.76621,-76.315931 912.14904,-74.952196 C 909.09308,-74.106083 902.33413,-73.110656 889.79176,-75.131373 C 877.51814,-77.102318 873.14822,-85.394224 871.59535,-90.739666 C 872.58083,-91.63555 873.50657,-92.66084 874.31287,-93.785672 C 878.27467,-99.350108 875.8956,-107.28366 870.73929,-110.85724 C 868.93756,-112.10153 867.58378,-113.53494 866.56845,-114.87877 C 868.62898,-118.58176 869.54477,-121.57799 869.54477,-121.57799 C 865.17485,-133.88147 854.4541,-165.24737 854.4541,-165.24737 C 851.67686,-191.84517 851.67686,-225.20193 851.67686,-225.20193 C 851.67686,-225.20193 852.40352,-230.92563 844.5297,-235.91272 C 825.66636,-247.87775 811.08336,-252.72548 805.41938,-254.31816 L 804.80221,-261.88341 C 809.82912,-265.9547 813.65156,-272.53447 815.732,-279.61196 C 815.8415,-279.98027 815.93109,-280.34857 816.02067,-280.71688 C 821.31635,-279.90063 825.24828,-279.39297 826.67174,-279.39297 C 832.62439,-279.39297 832.02714,-284.15111 824.28272,-288.32194 C 822.01314,-289.54632 820.0422,-290.46211 817.98167,-291.20868 C 818.56897,-294.52345 820.06211,-302.96467 821.00776,-307.67304 C 822.20228,-313.63565 815.05511,-315.11884 809.10246,-313.63565 C 803.14981,-312.14251 795.40539,-315.71609 792.13043,-317.79653 C 788.85548,-319.88693 787.06371,-318.99105 784.38601,-316.01472 C 782.19607,-313.57592 778.20441,-301.95929 776.83072,-297.82827 L 762.94452,-298.44544 C 762.94452,-298.44544 750.44196,-294.2746 760.56545,-291.29827 C 763.12369,-290.5517 768.24019,-289.41691 774.54124,-288.14277 C 774.32225,-287.20707 774.13311,-286.2415 774.00371,-285.26598 C 772.73952,-275.94879 776.02443,-267.24876 781.92731,-262.19199 L 780.54366,-256.81668 C 777.05967,-255.25386 769.23562,-251.56083 752.22377,-243.05988 C 737.27246,-235.58423 731.90711,-230.41796 730.10539,-227.26246 L 729.7968,-227.97917 C 729.7968,-227.97917 718.28967,-177.94901 717.88155,-150.55487 C 717.49333,-123.17067 717.49333,-97.359254 717.49333,-97.359254 L 724.0731,-97.359254 C 722.79895,-90.739666 722.05238,-84.130031 723.44598,-77.510443 C 723.84415,-74.733202 726.22322,-71.55779 729.00046,-70.761449 C 732.57405,-69.965107 732.57405,-71.159619 736.14763,-71.159619 C 736.14763,-71.955961 741.95097,-74.364894 742.10028,-74.733202 C 743.29479,-77.510443 744.4893,-81.880367 740.51755,-87.434849 C 738.33757,-90.480855 737.74031,-91.406602 736.5458,-94.980184 C 736.36662,-95.7168 735.74946,-96.53305 735.11238,-97.359254 L 739.32304,-97.359254 C 739.32304,-97.359254 739.32304,-99.350108 741.31389,-129.91967 C 743.22511,-159.33453 743.29479,-157.50295 749.66552,-178.20782 L 750.84013,-175.56994 C 763.1436,-130.70605 753.2192,-121.97616 748.84927,-108.47817 C 748.02307,-105.91993 746.4702,-89.813919 750.04379,-88.629361 C 751.28807,-88.211282 752.72148,-87.872836 754.30421,-87.594117 C 753.86623,-77.828979 753.88613,-60.219918 756.39461,-31.462036 C 760.76453,18.568118 768.70804,42.985939 767.11536,55.289415 C 767.11536,55.289415 744.88748,54.692159 750.44196,68.588318 C 755.99644,82.484477 768.70804,88.835301 768.70804,88.835301 L 771.88345,88.43713 L 773.46618,92.408883 L 780.21517,96.380636 C 780.21517,96.380636 785.77961,98.361536 788.95502,94.001566 C 792.13043,89.631642 791.33409,86.456231 791.33409,86.456231 L 793.71316,76.133654 C 793.71316,76.133654 793.71316,30.871594 788.55685,4.6719594 C 783.39058,-21.527676 785.77961,-35.822005 787.76051,-46.940924 C 788.49712,-51.071945 790.05994,-54.167723 791.73226,-56.417387 C 795.25607,-48.473881 799.48664,-39.743987 804.45382,-30.705511 C 805.41938,-12.598697 807.59936,33.390024 806.02659,52.313089 C 805.90714,53.686778 805.8275,54.931062 805.76778,56.075803 L 800.46215,60.05751 C 800.46215,60.05751 799.8649,66.607419 801.65667,67.791977 C 803.43848,68.986489 804.03574,73.754584 804.03574,73.754584 C 804.03574,73.754584 809.99834,79.707236 814.75648,87.451657 C 819.52458,95.186124 829.05081,94.588868 832.62439,93.40431 C 836.19798,92.209798 835.60072,96.977893 835.00346,85.062633 C 834.56548,76.263059 829.56843,67.463486 827.00023,63.471824 C 831.5991,62.914385 835.57086,62.137952 836.19798,61.042983 C 837.58162,58.624095 837.45221,-7.5021112 837.40244,-24.384551 C 837.64135,-24.603545 837.78071,-24.703087 837.78071,-24.703087 C 837.78071,-24.703087 840.69731,-66.222302 822.10273,-92.053629 C 826.37311,-92.810154 829.78743,-93.26805 831.42988,-94.980184 C 835.05324,-98.742898 833.02256,-104.50642 833.02256,-104.50642 C 833.02256,-104.50642 831.87782,-105.97965 827.45813,-119.59709 C 818.33007,-147.77763 828.65264,-178.74535 828.65264,-178.74535 C 828.65264,-178.74535 832.22622,-152.54572 835.40163,-142.62131 C 838.57705,-132.69691 854.06589,-102.52552 854.06589,-102.52552 C 855.07127,-102.95355 856.01692,-103.46122 856.91281,-104.03857 C 856.86304,-102.03776 856.73363,-99.907547 856.44496,-98.155596 C 855.64862,-93.387501 855.64862,-92.202943 859.62037,-88.629361 C 860.29726,-88.012196 861.07369,-87.604071 861.88994,-87.365169 C 861.43205,-81.711144 861.67095,-70.691769 868.35026,-60.239826 C 871.7148,-54.993927 883.80924,-50.823088 893.36534,-48.244933 C 875.0893,-25.141075 857.04221,-12.001441 857.04221,-12.001441 C 857.04221,-12.001441 860.66557,-4.7447788 869.2561,2.1435751 C 867.85255,15.094079 865.41375,41.233988 867.1657,53.507601 C 869.54477,70.181001 871.32659,57.668486 872.5211,66.010163 C 872.55096,66.209248 872.58083,66.398379 872.62064,66.597465 C 870.5402,66.298837 868.58916,66.697007 867.11593,67.921382 C 863.5324,70.8778 864.1197,77.497389 868.41994,82.693517 C 872.72019,87.889645 879.11083,89.701322 882.69436,86.73495 C 883.65993,85.928654 884.30695,84.863548 884.68522,83.629218 L 885.02366,83.878075 C 885.02366,83.878075 886.81543,77.328166 885.62092,68.986489 C 884.49609,61.102708 882.84368,50.023607 892.73822,17.612509 C 892.99703,26.043774 893.86305,36.027906 896.34166,40.995086 C 901.10976,50.521321 904.08608,50.521321 907.65967,55.886672 C 910.16814,59.649385 909.74011,66.358562 909.2623,70.011779 C 904.11595,74.063166 901.7966,78.701855 902.89157,80.891794 C 906.67419,88.466993 912.65671,84.35588 918.76863,80.095453 C 922.75034,77.308258 925.31854,73.545544 925.87598,70.210864 L 926.11488,70.181001 C 926.11488,70.181001 935.05381,72.560072 921.954,52.313089 C 914.25935,40.427692 914.80683,35.042433 917.78316,24.321686 C 919.18671,19.264917 920.4509,15.42257 921.40651,12.754826 C 924.25343,12.207341 927.20985,11.500588 930.28572,10.624612 C 930.28572,10.624612 924.93032,-3.0724616 926.71214,-18.551349 C 927.41889,-24.623453 929.48938,-32.885496 931.749,-40.699597 C 940.77752,-36.150496 942.63896,-25.200801 941.00646,-19.745862 C 939.55314,-14.888179 938.08986,-10.826837 937.60211,-9.4929649 C 933.78962,-8.2785441 930.97256,-3.9982086 930.97256,1.0983769 C 930.97256,7.140618 934.93436,12.048072 939.81195,12.048072 C 944.6995,12.048072 948.6613,7.140618 948.6613,1.0983769 C 948.6613,-0.61375729 948.33281,-2.2363031 947.76541,-3.679672 C 955.96773,-10.199718 957.08261,-19.148606 957.08261,-19.148606"
       style="fill:white;fill-rule:nonzero;stroke:none"
       id="path10468" />
    <path
       d="M 542.70634,-12.41952 C 559.25033,8.4645357 578.15349,27.3876 599.02759,43.951503 L 1083.6909,-440.74171 C 1067.137,-461.60585 1048.2139,-480.50901 1027.3299,-497.053 L 542.70634,-12.41952"
       style="fill:#ee1c23;fill-rule:nonzero;stroke:none"
       id="path10470" />
  </g>
</svg>
