<?xml version="1.0" encoding="UTF-8" standalone="no"?>
<!-- Created with Inkscape (http://www.inkscape.org/) -->
<svg
   xmlns:svg="http://www.w3.org/2000/svg"
   xmlns="http://www.w3.org/2000/svg"
   version="1.0"
   width="1357.645"
   height="1357.6462"
   id="svg11067">
  <defs
     id="defs11069" />
  <g
     transform="translate(-25.94378,2146.669)"
     id="layer1">
    <path
       d="M 1056.7709,-1016.9111 L 2010.611,-1014.424 L 2006.8804,-67.78043 L 1061.745,-64.049858 L 1056.7709,-1016.9111 z "
       transform="matrix(0.707107,-0.707107,0.707107,0.707107,0,0)"
       style="fill:white;fill-opacity:1;fill-rule:evenodd;stroke:none;stroke-width:0.25;stroke-linejoin:round;stroke-miterlimit:4;stroke-opacity:1"
       id="rect11090" />
    <path
       d="M 704.77376,-1113.8445 L 1058.7831,-1467.8529 L 704.77376,-1821.8614 L 350.76442,-1467.8529 L 704.77376,-1113.8445"
       style="fill:#fff100;fill-rule:nonzero;stroke:none"
       id="path10330" />
    <path
       d="M 1371.2981,-1497.6596 L 734.57672,-2134.3748 C 718.18905,-2150.7665 691.35846,-2150.7665 674.97079,-2134.3748 L 38.249376,-1497.6596 C 21.84189,-1481.2679 21.84189,-1454.438 38.249376,-1438.0463 L 674.97079,-801.3311 C 691.35846,-784.91959 718.18905,-784.91959 734.57672,-801.3311 L 1371.2981,-1438.0463 C 1387.6858,-1454.438 1387.6858,-1481.2679 1371.2981,-1497.6596 z M 704.77376,-2103.4172 L 962.97368,-1845.2186 L 327.40159,-1209.6345 L 69.201661,-1467.8529 L 704.77376,-2103.4172 z M 704.77376,-832.26889 L 446.57383,-1090.4675 L 1082.1459,-1726.0515 L 1340.3458,-1467.8529 L 704.77376,-832.26889"
       style="fill:#221e1f;fill-rule:nonzero;stroke:none"
       id="path10332" />
  </g>
</svg>
