<?xml version="1.0" encoding="UTF-8" standalone="no"?>
<!-- Created with Inkscape (http://www.inkscape.org/) -->
<svg
   xmlns:svg="http://www.w3.org/2000/svg"
   xmlns="http://www.w3.org/2000/svg"
   version="1.0"
   width="960"
   height="960"
   id="svg3982">
  <defs
     id="defs3984" />
  <g
     transform="translate(-315.391,392.9798)"
     id="layer1">
    <path
       d="M 794.17051,478.85352 C 1010.572,478.85352 1186.0038,303.42043 1186.0038,87.02018 C 1186.0038,-129.38007 1010.572,-304.81316 794.17051,-304.81316 C 577.76899,-304.81316 402.3233,-129.38007 402.3233,87.02018 C 402.3233,303.42043 577.76899,478.85352 794.17051,478.85352"
       style="fill:#176fc1;fill-rule:nonzero;stroke:none"
       id="path303" />
    <path
       d="M 675.32512,369.28921 L 765.378,369.28921 L 765.378,-195.24885 L 675.32512,-195.24885 L 675.32512,369.28921 z "
       style="fill:white;fill-rule:nonzero;stroke:none"
       id="path305" />
    <path
       d="M 822.94915,369.28921 L 913.00203,369.28921 L 913.00203,-195.24885 L 822.94915,-195.24885 L 822.94915,369.28921 z "
       style="fill:white;fill-rule:nonzero;stroke:none"
       id="path307" />
    <path
       d="M 1275.391,87.02018 C 1275.391,352.11568 1060.4874,567.02018 795.391,567.02018 C 530.29464,567.02018 315.391,352.11568 315.391,87.02018 C 315.391,-178.07532 530.29464,-392.97982 795.391,-392.97982 C 1060.4874,-392.97982 1275.391,-178.07532 1275.391,87.02018 z M 795.391,442.94147 C 877.87128,442.94147 953.77755,414.88215 1014.1225,367.79345 L 514.62241,-131.70681 C 467.5364,-71.364031 439.47895,4.5457152 439.47895,87.02018 C 439.47895,283.58778 598.82248,442.94147 795.391,442.94147 z M 1151.3169,87.02018 C 1151.3169,-109.54742 991.95952,-268.90111 795.391,-268.90111 C 712.92459,-268.90111 637.00445,-240.84179 576.65946,-193.75309 L 1076.1735,305.76102 C 1123.2456,245.40439 1151.3169,169.49464 1151.3169,87.02018"
       style="fill:#ee1c23;fill-rule:nonzero;stroke:none"
       id="path309" />
  </g>
</svg>
