<?xml version="1.0" encoding="UTF-8" standalone="no"?>
<!-- Created with Inkscape (http://www.inkscape.org/) -->
<svg
   xmlns:svg="http://www.w3.org/2000/svg"
   xmlns="http://www.w3.org/2000/svg"
   version="1.0"
   width="960"
   height="960"
   id="svg10804">
  <defs
     id="defs10806" />
  <g
     transform="translate(-445.342,578.6941)"
     id="layer1">
    <path
       d="M 1405.342,-98.6941 C 1405.342,-363.7896 1190.4375,-578.6941 925.342,-578.6941 C 660.2465,-578.6941 445.342,-363.7896 445.342,-98.6941 C 445.342,166.4014 660.2465,381.3059 925.342,381.3059 C 1190.4375,381.3059 1405.342,166.4014 1405.342,-98.6941"
       style="fill:#176fc1;fill-rule:nonzero;stroke:none"
       id="path10498" />
    <path
       d="M 842.826,-393.30314 L 842.8814,-393.26159 C 846.8978,-395.31133 851.4266,-396.48855 856.24626,-396.48855 C 872.47801,-396.48855 885.63515,-383.33141 885.63515,-367.11351 C 885.63515,-363.20792 884.85957,-359.51007 883.48846,-356.10307 L 864.19594,-296.23118 L 891.93673,-296.23118 C 1056.3594,-296.23118 1189.6619,-162.94247 1189.6619,1.494024 L 1189.6619,226.49489 L 1057.4258,226.49489 L 1057.4258,1.494024 C 1057.4258,-89.913443 983.33034,-164.00889 891.93673,-164.00889 L 864.30674,-164.00889 L 883.48846,-104.51094 C 884.85957,-101.10393 885.63515,-97.392236 885.63515,-93.500494 C 885.63515,-77.268744 872.47801,-64.111608 856.24626,-64.111608 C 851.4266,-64.111608 846.8978,-65.288826 842.8814,-67.352418 L 842.826,-67.31087 L 563.59,-230.307 L 842.826,-393.30314"
       style="fill:white;fill-rule:nonzero;stroke:none"
       id="path10500" />
  </g>
</svg>
