<?xml version="1.0" encoding="utf-8"?>
<!-- Generator: Adobe Illustrator 15.0.2, SVG Export Plug-In . SVG Version: 6.00 Build 0)  -->
<!DOCTYPE svg PUBLIC "-//W3C//DTD SVG 1.1//EN" "http://www.w3.org/Graphics/SVG/1.1/DTD/svg11.dtd">
<svg version="1.1" id="Vrstva_1" xmlns="http://www.w3.org/2000/svg" xmlns:xlink="http://www.w3.org/1999/xlink" x="0px" y="0px"
	 width="960px" height="960px" viewBox="0 0 960 960" enable-background="new 0 0 960 960" xml:space="preserve">
<g>
	<path fill-rule="evenodd" clip-rule="evenodd" fill="#1D1D1B" d="M480.003,0C214.931,0,0,214.924,0,480.021
		c0,265.085,214.931,480.005,480.003,480.005c265.097,0,480.029-214.92,480.029-480.005C960.032,214.924,745.101,0,480.003,0"/>
	<path fill-rule="evenodd" clip-rule="evenodd" fill="#FFFFFF" d="M480.003,10.002c259.569,0,470.027,210.467,470.027,470.02
		c0,259.543-210.458,470.016-470.027,470.016c-259.528,0-470-210.473-470-470.016C10.003,220.469,220.476,10.002,480.003,10.002"/>
	<path fill-rule="evenodd" clip-rule="evenodd" fill="#868686" d="M789.845,481.16c0-51.927-2.396-96.677-7.964-133.402
		c-5.61-36.739-13.574-66.301-24.793-89.467c-12-23.165-26.382-39.921-44.716-50.339c-18.39-10.367-39.981-15.189-65.528-15.189
		c-26.367,0-47.918,4.822-66.295,15.189c-18.402,10.418-32.781,27.174-43.947,50.339c-11.986,23.166-19.979,52.728-25.561,89.467
		c-5.584,36.725-7.964,81.475-7.964,133.402c0,51.914,2.38,96.67,7.964,132.642c5.582,36.727,13.574,66.295,25.561,89.46
		c11.166,23.18,25.545,39.173,43.947,49.532c18.377,10.305,39.928,15.136,66.295,15.136c25.547,0,47.139-4.831,65.528-15.136
		c18.334-10.359,32.716-26.353,44.716-49.532c11.219-23.165,19.183-52.733,24.793-89.46
		C787.449,577.83,789.845,533.074,789.845,481.16 M707.556,481.16c0,47.139-0.781,84.685-3.215,113.433
		c-2.396,29.567-5.584,51.926-10.358,67.92c-4.777,16.776-11.193,27.176-18.39,32.772c-7.978,5.582-17.57,8.798-28.749,8.798
		c-11.18,0-20.784-3.216-27.955-10.426c-7.964-6.404-14.366-18.337-19.183-35.152c-4.789-16.775-7.991-39.927-10.371-68.676
		c-2.396-27.941-3.203-64.72-3.203-108.669c0-44.704,0.808-81.488,3.203-111.05c2.38-28.755,5.582-51.926,10.371-68.682
		c4.816-16.77,11.219-27.949,19.183-35.151c7.171-6.41,16.775-9.613,27.955-9.613c10.412,0,19.963,3.203,27.982,8.799
		c7.154,5.576,13.573,16.809,18.335,33.57c4.842,16.769,8.784,39.12,11.18,67.921C706.774,396.476,707.556,434.016,707.556,481.16z
		 M437.589,592.197c0-24.727-3.202-44.744-8.785-61.505c-6.403-16.763-14.367-30.337-23.972-40.742
		c-9.551-10.364-19.976-19.156-31.963-24.746c-11.986-5.583-23.18-9.598-34.345-12c10.426-3.188,21.592-7.963,31.963-15.18
		c10.412-6.391,19.183-14.374,27.981-24.74c7.978-9.604,14.381-20.777,19.964-34.391c4.775-13.56,7.171-27.935,7.171-44.709
		c0-27.988-3.97-51.153-11.166-69.496c-7.991-18.383-18.417-32.758-30.402-43.176c-12.741-10.365-27.123-18.343-43.13-22.352
		c-15.954-3.955-31.937-6.397-48.713-6.397c-23.971,0-46.33,4.008-67.101,12.807c-20.783,8.778-40.747,19.95-59.137,35.14
		l34.384,53.5c15.969-11.939,31.156-20.731,45.523-25.554c13.574-4.782,27.188-7.17,39.174-7.17c5.583,0,11.934,0.761,19.143,1.575
		c7.17,0.814,13.561,4.021,19.978,8.792c5.57,5.596,11.166,12.805,15.174,23.171c3.983,10.413,6.417,24.786,6.417,43.128
		c0,30.376-6.417,52.728-18.403,66.342c-12.792,13.56-28.748,20.73-48.724,20.73h-21.592v64.726h25.573
		c9.591,0,19.197,0.815,27.981,3.196c8.785,2.388,15.956,7.209,23.18,14.373c6.376,7.23,11.985,17.59,15.927,31.203
		c4.023,13.562,5.611,31.129,5.611,53.475c0,19.977-2.408,35.983-6.351,49.532c-4.829,13.574-11.245,23.985-18.402,31.964
		c-7.965,8.797-16.762,14.367-27.188,17.582c-10.359,4.01-20.758,5.584-31.116,5.584c-16.021,0-31.144-2.383-44.77-7.979
		c-13.561-5.582-25.547-11.987-35.151-19.144l-35.151,56.704c11.986,9.578,28.789,18.375,49.532,26.353
		c20.017,8.745,44.743,12.753,73.505,12.753c21.591,0,41.554-3.202,60.698-10.357c18.39-7.171,35.165-17.583,49.546-31.965
		c14.38-14.381,25.598-32.757,34.344-54.294C433.566,647.326,437.589,621.78,437.589,592.197z"/>
	<path fill-rule="evenodd" clip-rule="evenodd" fill="#1D1D1B" d="M742.349,90.214L89.964,742.753
		c33.894,49.901,77.009,93.281,126.952,127.073L869.82,217.478C835.925,167.376,792.543,124.201,742.349,90.214"/>
</g>
</svg>
