<?xml version="1.0" encoding="UTF-8" standalone="no"?>
<!-- Created with Inkscape (http://www.inkscape.org/) -->
<svg
   xmlns:svg="http://www.w3.org/2000/svg"
   xmlns="http://www.w3.org/2000/svg"
   version="1.0"
   width="960.00024"
   height="959.99969"
   id="svg2420">
  <defs
     id="defs2422"><clipPath
   id="id48">
      <path
   d="M 262.22,628.72 L 332.24,628.72 L 332.24,557.8 L 262.22,557.8 L 262.22,628.72 z "
   id="path24" />

    </clipPath>

        
      </defs>
  <g
     transform="translate(-333.9137,638.7423)"
     id="layer1">
    <path
       d="M 908.57144 477.14255 A 432.85715 440 0 1 1  42.857147,477.14255 A 432.85715 440 0 1 1  908.57144 477.14255 z"
       transform="matrix(-1.039604,0,0,1.022727,1308.469,-646.7291)"
       style="opacity:1;fill:white;fill-opacity:1;fill-rule:evenodd;stroke:none;stroke-width:0.25;stroke-linejoin:round;stroke-miterlimit:4;stroke-dasharray:none;stroke-opacity:1"
       id="path2441" />
    <path
       d="M 1089.8246,-287.32435 L 1033.3324,-228.5882 L 795.43923,-228.5882 C 774.7065,-228.5882 757.89319,-211.7787 757.89319,-191.03035 L 757.89319,103.89864 L 699.15739,55.342499 L 640.33849,103.89864 L 640.33849,-191.03035 C 640.33849,-276.70053 709.77997,-346.14372 795.43923,-346.14372 L 1033.3324,-346.14372 L 1089.8246,-287.32435"
       style="fill:black;fill-rule:nonzero;stroke:none"
       id="path82" />
    <path
       d="M 474.50371,-498.15001 C 661.95695,-685.60639 965.87081,-685.60639 1153.3241,-498.15001 C 1340.7773,-310.7075 1340.7773,-6.7774137 1153.3241,180.66509 C 965.87081,368.12147 661.95695,368.12147 474.50371,180.66509 C 287.05041,-6.7774137 287.05041,-310.7075 474.50371,-498.15001 z M 1065.5874,92.928409 C 1197.1439,-38.635012 1204.1518,-247.56094 1086.6525,-387.40429 L 585.25831,113.99575 C 725.09691,231.50966 934.01692,224.49183 1065.5874,92.928409 z M 541.17531,69.919373 L 1042.5695,-431.48067 C 902.7447,-548.9807 693.81084,-541.97674 562.24041,-410.41332 C 430.68381,-278.8499 423.67591,-69.923972 541.17531,69.919373"
       style="fill:#ee1c23;fill-rule:nonzero;stroke:none"
       id="path86" />
  </g>
</svg>
