<?xml version="1.0" encoding="UTF-8" standalone="no"?>
<!-- Created with Inkscape (http://www.inkscape.org/) -->
<svg
   xmlns:svg="http://www.w3.org/2000/svg"
   xmlns="http://www.w3.org/2000/svg"
   version="1.0"
   width="960"
   height="960"
   id="svg3840">
  <defs
     id="defs3842" />
  <g
     transform="translate(-315.3415,392.9798)"
     id="layer1">
    <path
       d="M 315.3415,87.02018 C 315.3415,-178.07532 530.25674,-392.97982 795.33458,-392.97982 C 1060.4263,-392.97982 1275.3415,-178.07532 1275.3415,87.02018 C 1275.3415,352.11568 1060.4263,567.02018 795.33458,567.02018 C 530.25674,567.02018 315.3415,352.11568 315.3415,87.02018 z "
       style="fill:black;fill-rule:nonzero;stroke:none"
       id="path3852" />
    <path
       d="M 795.33458,550.70533 C 1051.4103,550.70533 1259.013,343.09958 1259.013,87.02018 C 1259.013,-169.05922 1051.4103,-376.65112 795.33458,-376.65112 C 539.27271,-376.65112 331.66996,-169.05922 331.66996,87.02018 C 331.66996,343.09958 539.27271,550.70533 795.33458,550.70533"
       style="fill:white;fill-rule:nonzero;stroke:none"
       id="path145" />
    <path
       d="M 520.61755,471.49938 L 1179.8082,-187.70081 L 1070.0654,-297.44517 L 410.87477,361.75502 L 520.61755,471.49938"
       style="fill:black;fill-rule:nonzero;stroke:none"
       id="path147" />
  </g>
</svg>
