<?xml version="1.0" encoding="UTF-8" standalone="no"?>
<!-- Created with Inkscape (http://www.inkscape.org/) -->
<svg
   xmlns:svg="http://www.w3.org/2000/svg"
   xmlns="http://www.w3.org/2000/svg"
   version="1.0"
   width="960"
   height="960"
   id="svg10957">
  <defs
     id="defs10959" />
  <g
     transform="translate(-345.342,181.5512)"
     id="layer1">
    <path
       d="M 345.342,298.44875 C 345.342,33.353245 560.2465,-181.55125 825.342,-181.55125 C 1090.4375,-181.55125 1305.342,33.353245 1305.342,298.44875 C 1305.342,563.54425 1090.4375,778.44875 825.342,778.44875 C 560.2465,778.44875 345.342,563.54425 345.342,298.44875"
       style="fill:#176fc1;fill-rule:nonzero;stroke:none"
       id="path10344" />
    <path
       d="M 833.99801,-67.319615 C 681.16749,-67.319615 557.26883,56.579052 557.26883,209.40957 L 557.26883,425.57438 L 475.80539,425.57438 L 623.70544,612.75194 L 771.61934,425.57438 L 690.32209,425.57438 L 690.32209,209.40957 C 690.32209,130.06512 754.65356,65.733648 833.99801,65.733648 C 913.34246,65.733648 977.67393,130.06512 977.67393,209.40957 L 977.67393,598.61148 L 1110.741,598.61148 L 1110.741,209.40957 C 1110.741,56.579052 986.82853,-67.319615 833.99801,-67.319615"
       style="fill:white;fill-rule:nonzero;stroke:none"
       id="path10346" />
  </g>
</svg>
