<?xml version="1.0" encoding="UTF-8" standalone="no"?>
<!-- Created with Inkscape (http://www.inkscape.org/) -->

<svg
   version="1.0"
   width="959.99994"
   height="960"
   id="svg10845"
   sodipodi:docname="Vorschriftszeichen_17.svg"
   inkscape:version="1.1.2 (b8e25be833, 2022-02-05)"
   xmlns:inkscape="http://www.inkscape.org/namespaces/inkscape"
   xmlns:sodipodi="http://sodipodi.sourceforge.net/DTD/sodipodi-0.dtd"
   xmlns="http://www.w3.org/2000/svg"
   xmlns:svg="http://www.w3.org/2000/svg">
  <sodipodi:namedview
     id="namedview7"
     pagecolor="#ffffff"
     bordercolor="#666666"
     borderopacity="1.0"
     inkscape:pageshadow="2"
     inkscape:pageopacity="0.0"
     inkscape:pagecheckerboard="0"
     showgrid="false"
     inkscape:snap-intersection-paths="false"
     inkscape:snap-smooth-nodes="false"
     inkscape:snap-bbox="false"
     inkscape:snap-bbox-edge-midpoints="false"
     inkscape:bbox-nodes="false"
     showguides="true"
     inkscape:guide-bbox="true"
     inkscape:snap-bbox-midpoints="false"
     inkscape:zoom="0.59514821"
     inkscape:cx="615.81299"
     inkscape:cy="609.09198"
     inkscape:window-width="1920"
     inkscape:window-height="1001"
     inkscape:window-x="-9"
     inkscape:window-y="-9"
     inkscape:window-maximized="1"
     inkscape:current-layer="layer1" />
  <defs
     id="defs10847" />
  <g
     transform="translate(-268.1991,361.5997)"
     id="layer1">
    <path
       d="m 268.19914,118.39332 c 0,-265.07867 214.9045,-479.99307 480,-479.99307 265.09546,0 479.99996,214.9144 479.99996,479.99307 0,265.09253 -214.9045,480.00693 -479.99996,480.00693 -265.0955,0 -480,-214.9144 -480,-480.00693"
       style="fill:#176fc1;fill-rule:nonzero;stroke:none"
       id="path10446" />
    <path
       d="m 572.6591,-10.732808 c -1.61147,2.2423945 -3.54023,5.0473469 -4.55655,6.4845317 -1.01735,1.4721395 -1.1225,1.6114681 -2.10306,3.36489334 -0.98053,1.75342521 -2.83913,5.08230046 -4.20611,8.16669906 -4.76711,10.3050059 -9.84942,23.2388159 -15.49272,38.6263849 -2.66379,6.975061 -5.1525,15.211959 -6.48426,22.362357 -0.7019,3.575206 -1.0857,6.905145 -1.36699,11.356534 -0.55994,9.008197 -0.63091,22.713048 0.4206,36.908698 0.49161,7.1504 1.12252,15.45749 1.89277,25.1668 0.10516,1.50631 0.18401,2.97925 0.21031,4.48635 0.0263,1.15668 0,2.31337 -0.0788,3.43507 -0.10517,1.50632 -0.42061,2.94429 -0.9122,4.34625 -0.4206,1.05153 -1.01736,2.03208 -1.7876,2.83913 l -4.20612,4.45165 -2.41854,18.54189 2.10308,4.03078 c 1.92693,2.24239 1.68245,8.09678 1.22766,11.04106 -0.18402,0.98056 -0.34964,1.64828 -1.01737,2.62884 -0.66509,0.98054 -1.85857,2.27919 -4.10094,3.15459 -2.2424,0.84121 -5.53789,1.29601 -7.85126,1.36698 -2.34754,0.0788 -3.71558,-0.2366 -5.08257,-0.70189 -2.73398,-0.98055 -5.43274,-2.62883 -7.71114,-5.67827 -2.27919,-3.04944 -4.17115,-7.46587 -4.97716,-10.34022 -1.15667,-4.31128 0.21032,-5.11727 2.76895,-14.47589 0.31545,-0.70189 0.59673,-1.43796 0.9122,-2.20822 0.55994,-1.43795 1.15667,-2.87435 1.71661,-4.31126 -4.52157,-1.22767 -5.15249,-1.19086 -7.29051,-7.18563 -0.77024,-4.13594 -1.29601,-7.88648 -1.61147,-13.28425 -0.34963,-5.3628 -0.45477,-12.44301 -0.23659,-18.92754 l 1.85857,-55.100165 c 0.63092,-21.731709 2.73399,-46.898244 5.50292,-68.98036969 1.40117,-11.00610131 2.97925,-21.24091231 4.69693,-31.09032231 5.11727,-29.442839 11.56683,-54.995017 19.13784,-77.778003 1.92694,-5.5731 4.20613,-11.35654 6.48427,-16.19356 9.18354,-19.38338 18.75246,-23.97487 27.33978,-26.00802 6.55472,-1.92693 13.14412,-3.68036 19.76876,-5.32757 8.37728,-1.96374 20.92545,-6.13411 38.94184,-13.17935 14.40596,-5.36281 14.75638,-9.18329 12.16253,-15.03689 l -5.74819,-12.23271 c -0.80704,-1.68245 -1.43798,-3.39985 -1.96374,-5.22268 -0.45479,-1.61148 -0.77025,-3.25975 -0.94638,-4.90697 l -0.73607,-7.78132 -4.06601,-10.48034 c -0.184,-1.0857 -0.184,-2.17404 0,-3.25974 0.34965,-1.92693 0.84123,-3.82048 1.50632,-5.64331 2.06888,-6.62463 1.47214,-5.29262 0.10517,-6.8699 -2.24238,-1.08571 -4.5568,-2.03209 -6.90514,-2.80417 l -9.49872,-3.11937 c -11.46169,-0.70188 -10.5855,-14.40595 0.0262,-11.35652 1.50632,0.42061 4.59177,0.66509 7.18537,1.15669 2.27919,0.4206 4.62674,0.52576 6.97533,0.28129 1.85858,-0.21032 3.64513,-0.77026 5.32758,-1.64828 1.89275,-0.98055 3.61042,-2.27921 5.11752,-3.78551 1.57729,-1.61147 2.90933,-3.43509 3.96086,-5.433 l 7.36071,-13.98535 c 1.43796,-3.68034 5.29261,-6.55444 8.13175,-8.27212 5.64329,-3.50502 7.1504,-2.55785 17.77086,0.10517 2.59465,1.01735 5.5731,2.06888 7.18537,2.66405 1.64827,0.55994 1.96371,0.7019 2.9795,0.8754 1.9979,0.38644 6.72978,1.1225 12.47798,0.80705 5.50318,0.23659 8.938,-0.34964 12.82866,0.34963 3.8557,0.7019 8.20194,2.66378 10.90095,5.50292 5.433,5.71349 4.31127,14.75665 2.38435,21.73171 -0.91221,2.69901 -1.57731,5.50292 -2.03208,8.34205 -0.59674,2.73398 1.0857,5.95875 5.7834,7.39593 l 12.93383,3.78551 c 4.76711,1.05153 12.51329,8.2369 7.32575,10.305 -1.05153,0.42061 -2.59386,0.63092 -4.38147,0.9122 -3.5752,0.55994 -8.09677,1.43797 -11.39149,0.0788 -3.505,-0.84123 -7.08022,-1.43797 -10.62045,-1.75343 -3.61016,0.10517 -4.41642,0.84122 -5.95876,5.92379 l -0.94636,3.85544 c -0.13146,0.59673 -0.38645,1.12251 -0.73608,1.57729 -1.29601,1.61148 -2.66379,3.18982 -4.13593,4.66196 -3.04943,3.1546 -6.16908,6.48426 -9.18327,11.98745 -1.99792,3.64512 -3.96086,8.23689 -5.18773,12.05737 -1.82178,5.71348 -1.96373,9.63912 0.7019,13.52976 1.78759,2.62884 4.76684,5.22269 11.8121,8.65751 7.01028,3.40012 18.08631,7.64122 25.44702,10.37519 3.68035,1.36699 6.41434,2.34755 9.25347,3.25975 5.29279,1.78759 10.62053,3.57519 15.98332,5.29261 14.72144,4.41642 24.71098,10.09469 25.9027,24.3955 0.38566,4.76711 -0.2103,10.5153 0.0342,15.52769 l -2.20822,32.141842 c -0.52578,7.851249 -0.84123,15.772953 -0.98133,23.44913 -0.0342,11.321291 0.80625,20.048994 1.57728,26.007749 3.11954,25.44703131 6.13394,47.669275 9.28854,67.192768 0.35042,2.137235 0.77102,4.066004 1.2968,5.993721 l 9.77923,34.525152 c 1.89274,6.729785 3.99579,13.424616 6.30916,20.049248 0.63094,1.82178 1.43719,3.57521 2.41854,5.2227 1.7174,2.69875 2.87414,5.32756 3.61023,7.11517 2.24318,5.29287 0.73608,2.73397 -1.12172,9.04317 1.50711,1.78759 5.95865,6.0639 8.48234,12.65357 1.26182,3.25975 2.03286,7.11518 1.19164,8.13176 l -2.17326,8.02658 c -0.13933,0.45479 -0.17613,0.9122 0,1.54312 0.63093,12.05762 4.41642,23.97489 7.81635,29.7583 1.71741,2.90933 3.29482,4.24109 7.81642,5.29261 6.79987,1.5773 20.11925,2.41852 30.21394,0.94639 13.45958,-1.92694 21.17079,-7.99163 23.69448,-16.71934 1.26183,-4.34624 1.22685,-9.35861 0.38565,-12.16251 -0.84123,-2.80418 -2.52368,-3.40012 -5.53806,-7.2908 -2.31337,-2.06888 -4.17107,-4.52157 -5.39786,-6.06364 -2.45347,-3.11963 -2.41852,-2.7692 -2.2082,-7.11545 0.071,-2.17403 0.21029,-5.50292 1.05152,-8.55235 1.33202,-5.74845 1.92772,-11.63702 2.17324,-14.02057 0.21031,-2.41852 0.071,-1.36698 0.24449,-3.92562 -2.90923,-2.73398 -4.03086,-3.11964 -4.76693,-5.11754 -0.70111,-2.03207 -1.01656,-5.71323 1.08649,-9.18327 2.13803,-3.435091 6.69476,-6.694831 12.89878,-10.375188 3.11952,-1.858575 6.62464,-3.820475 9.0081,-5.012119 2.34833,-1.227662 3.61026,-1.716619 5.74837,-2.452695 2.17325,-0.770241 5.2226,-1.787591 8.62254,-2.279188 10.1648,-1.472141 23.27387,1.892752 31.96652,7.115184 8.72767,5.222679 13.10907,12.267928 13.56473,16.789516 3.11955,8.41223 3.85562,17.42043 4.52157,22.08212 0.35044,2.34755 0.66589,3.61017 0.45559,5.67827 -0.24449,2.06888 -0.98134,4.94218 -2.03288,7.39567 -3.15459,7.4309 -9.0782,11.2164 -16.82448,16.33395 -5.88857,4.69665 -8.55243,4.10096 -6.27413,14.09049 2.27841,10.0245 8.62255,14.26559 23.6945,21.90679 3.89065,1.89276 6.83493,3.5752 9.28849,5.1525 12.2328,7.85151 11.77715,13.3894 15.52762,31.93155 0.35041,2.76894 0.84121,6.06365 1.15672,7.81629 0.28045,1.75341 0.38561,1.99789 0.66587,2.69901 l 5.25766,14.82658 c 0.77103,2.17403 1.33202,4.03076 2.03288,7.32548 0.70118,3.29496 1.50706,7.99162 2.10297,12.16279 0.59601,4.17114 0.91154,7.81628 1.15676,10.69063 0.21036,2.8741 0.28048,5.01213 0.21036,7.67617 -0.13937,5.3628 -0.91154,12.89859 -2.45357,18.8224 l -4.3463,18.0863 c -4.73193,14.30081 -4.31134,15.38731 -11.56687,18.85735 -1.82256,0.8754 -5.11746,1.26184 -7.67617,1.05154 -7.67616,-0.66509 -8.86792,-7.11545 -7.3607,-8.55236 l 6.02876,-7.9217 c 0.87618,-1.12251 1.54234,-2.38435 1.9979,-3.71532 0.17614,-0.45479 0.071,-0.98054 -0.24448,-1.367 l -4.8721,-5.95875 c -0.45558,-0.52577 -0.63093,-1.22766 -0.52576,-1.85858 0.63092,-3.64538 1.54232,-7.22059 2.66389,-10.7256 0.52576,-1.47214 0.77103,-2.62883 1.01657,-5.29288 0.21031,-2.69875 0.42062,-6.86991 0.35042,-10.65542 -0.071,-3.78551 -0.42062,-7.18536 -0.38565,-9.88438 0.45557,-19.10287 -15.38739,-22.15232 -17.66571,-21.97697 -3.11954,4.20612 -4.06592,4.6617 -6.76483,8.6575 -1.36697,1.99791 -3.15458,4.87226 -4.34634,7.15041 -2.41853,4.5568 -2.48871,6.69483 -2.69892,11.49691 -0.071,2.38434 0.13932,6.13384 0.45558,9.84915 0.31547,3.75055 0.70111,7.4309 1.05153,10.58549 0.35043,3.15458 0.63092,5.78341 1.15669,9.60388 0.52576,3.82074 1.29679,8.83285 2.03287,12.72352 0.73606,3.92588 1.40195,6.72979 2.2784,9.95458 0.52576,1.96372 1.01657,3.96084 1.43718,5.95875 0.24448,1.36699 0.45557,2.73398 0.63091,4.10097 0.17614,1.75342 0.0342,3.53996 -0.45557,5.22242 -0.2805,1.05153 -0.87618,1.96373 -1.7174,2.62883 l -7.25555,5.85361 c -0.49082,0.38643 -0.77105,0.49158 -0.98136,2.10305 -0.21029,1.61146 -0.35041,4.69693 -0.24448,7.29051 0.13933,2.69903 0.17613,5.36282 0.13933,8.02686 -0.0342,2.83913 -0.2103,5.67828 -0.42062,8.55235 -0.24446,3.18956 -0.4206,6.76476 -0.45556,8.93801 -0.0342,2.20822 0.071,3.01447 0.31546,4.24109 0.21031,1.19085 0.56073,2.80417 1.43718,5.01238 0.87619,2.20821 2.31336,5.04734 3.61024,7.53605 2.69894,5.01212 5.01231,8.58732 7.88648,13.1089 0.77102,1.19085 1.50711,2.38436 2.24318,3.61043 0.4908,0.84122 0.98134,1.71662 1.43719,2.59465 0.63091,1.22766 1.1217,2.55785 1.43716,3.92589 0.31546,1.47214 0.49081,2.94428 0.45558,4.41642 -0.0342,1.29601 -0.0342,2.59465 0,3.89066 0,0.0788 0,0.18402 0.0342,0.2366 l 4.20613,7.85151 -1.75265,7.36071 c -0.24448,4.31127 -3.61023,6.34414 -5.32777,6.8699 -1.68244,0.52578 -1.68244,-0.52576 -4.34631,-0.87539 -0.87618,3.22452 -1.01656,3.71532 -1.85779,6.58941 -0.42062,1.43798 -1.01657,3.47006 -1.82255,5.29287 -6.41434,14.61628 -26.04292,16.54399 -24.95632,6.7298 1.01657,-2.20821 1.96295,-4.80208 3.1546,-7.25556 0.80625,-1.64828 1.36698,-2.9795 2.17324,-5.32783 2.45348,-7.08021 4.17109,-15.03688 4.59169,-21.17073 0.10516,-2.03208 -0.2805,-5.18772 -0.91141,-7.78131 -1.85778,-7.78133 -5.81845,-10.62046 -11.74206,-16.75455 -2.59387,-2.2424 -5.22262,-4.90697 -6.97517,-6.62464 -1.78761,-1.71663 -2.69891,-2.52368 -3.82055,-3.9606 -2.27841,-2.90932 -5.46797,-8.55262 -7.39575,-13.63492 -1.92772,-5.04734 -2.55865,-9.60389 -3.99582,-15.49245 -0.49081,-2.48951 -1.01657,-4.9422 -1.64749,-7.39594 -0.2805,-1.15669 -0.59595,-2.27919 -1.01657,-3.36489 -0.17613,-0.4916 -0.38564,-0.98056 -0.63091,-1.47216 -0.59596,-1.22766 -1.22687,-2.45269 -1.89276,-3.64513 -0.87619,1.54313 -1.68244,3.11937 -2.48871,4.6617 -0.13932,0.2366 -0.21029,0.49159 -0.24448,0.73608 l -3.5752,19.69857 -4.48652,18.85762 c -0.21029,1.54311 -0.28049,3.0844 -0.24447,4.48635 0.63093,15.49272 2.13802,26.1831 3.50511,33.29854 l 3.47006,17.80581 c 0.35041,4.27631 0.2805,9.42882 -0.52576,13.14413 -2.45349,11.11127 -11.8823,9.18354 -23.65943,4.17116 -1.96295,-0.84122 -4.41643,-2.17403 -6.09887,-3.04944 -1.64749,-0.8754 -2.52369,-1.296 -3.47006,-2.03208 -2.90924,-2.24238 -6.83494,-7.29078 -9.04315,-10.72561 -3.75046,-5.74845 -2.80409,-7.08048 3.99582,-8.83285 l 6.90503,-0.63091 c 0.24447,0 0.52575,-0.0263 0.77102,-0.0788 0.77104,-0.0788 1.57729,-0.18401 2.34833,-0.23659 -0.59595,-1.61146 -1.19164,-3.18982 -1.82256,-4.76711 -0.071,-0.23659 -0.13933,-0.45479 -0.2103,-0.70189 l -5.39788,-17.66571 c -2.03287,-6.65987 -4.03086,-13.35443 -5.99373,-20.01429 -0.28048,-1.05154 -0.56071,-2.10306 -0.77102,-3.1546 -0.77104,-3.82047 -1.33202,-7.18536 -1.68245,-11.67198 -0.35043,-4.52157 -0.52577,-10.12965 -0.56073,-14.02031 0,-3.92563 0.10516,-6.16907 0.2103,-9.91935 0.10516,-3.78551 0.17614,-9.11335 0.35043,-13.77503 0.28049,-2.48951 -0.13933,-5.32784 -0.35043,-7.22061 -0.42061,-3.82047 -0.10517,-3.82047 -2.2784,-6.83494 -2.20821,-3.04943 -6.94009,-9.14832 -10.09469,-12.58339 -1.57729,-1.71663 -2.76901,-2.76895 -3.68035,-3.71533 l -12.65339,-11.74216 c -1.26185,-1.19086 -2.38357,-2.45269 -3.36492,-3.85544 -0.87618,-1.22767 -1.61225,-2.52367 -2.2082,-3.92589 -0.38565,-0.98055 -0.63092,-2.03208 -0.7011,-3.11936 -0.071,-0.9122 0.0342,-1.85858 0.35042,-2.73398 0.24448,-0.73607 0.56074,-1.43797 0.91141,-2.10305 0.56072,-1.05154 1.19164,-2.06889 1.89276,-3.01448 3.39993,-4.90723 5.08237,-7.29053 7.67616,-11.28634 2.59386,-3.96085 6.09888,-9.53396 10.76065,-17.49062 2.34833,-3.99582 4.97726,-8.58733 6.69475,-11.77714 3.5051,-6.41433 5.74838,-11.111 8.27205,-16.75429 1.22688,-2.80417 2.55864,-5.8536 3.5752,-8.58759 8.13181,-21.6615 -2.38356,-21.06556 -15.49257,-25.76247 -11.91733,-2.76896 -20.46976,-6.94011 -27.02432,-21.76668 -2.20821,-4.9422 -4.136,-11.07603 -5.43288,-15.94803 -0.66589,-2.41851 -1.15669,-4.55681 -1.6475,-7.08047 -0.52575,-2.52368 -1.05152,-5.46796 -1.33202,-7.04526 -0.28049,-1.5773 -0.31545,-1.7876 -0.49079,-2.76895 -0.13933,-1.01735 -0.45558,-2.76893 -0.66588,-4.17115 -2.76903,-0.84122 -3.36491,-0.59674 -6.02876,-1.68245 -1.33203,-0.52576 -3.18965,-1.43796 -4.62674,-2.45269 -4.31127,-3.08439 -4.83704,-7.39568 -4.03086,-12.37309 l 2.45348,-9.91935 c 0.0342,-0.18401 0.071,-0.31545 0.10517,-0.45478 0.13934,-0.73608 0.24448,-1.47215 0.38564,-2.17404 -0.87618,-0.18401 -1.71741,-0.38645 -2.55863,-0.59674 -0.38565,-0.10516 -0.80625,-0.2366 -1.19164,-0.42062 -1.1567,-0.49158 -2.20821,-1.15667 -3.15459,-1.92693 -0.77103,-0.66509 -1.43718,-1.43795 -1.92772,-2.31337 l -6.16902,-16.12338 -8.30709,-21.52139 c -0.59595,-1.472153 -1.08649,-2.944293 -1.54234,-4.451402 -2.0681,-6.624636 -4.0659,-13.319467 -6.02875,-19.979065 L 743.24521,41.42362 c -1.33177,-4.591768 -2.69881,-9.358617 -3.61023,-12.863624 -1.92692,-7.010295 -2.24238,-8.903049 -2.55785,-10.270038 -1.54311,-7.851508 -3.11962,-15.6678028 -4.59177,-22.9583198 -2.34753,-13.2143182 -1.54312,-8.5526182 -2.13723,-16.3339432 -2.4185,5.327841 -3.78551,8.517403 -4.34648,9.814456 -3.50502,9.4285529 -6.55447,18.857351 -9.04317,33.263313 -1.26185,7.150414 -2.34755,15.597611 -2.87411,22.53771 -0.52576,6.940097 -0.49158,12.44328 -0.184,17.981162 0.31545,5.538145 0.94638,11.146222 1.75342,16.579214 1.40117,9.393584 3.04943,18.7522 4.94219,28.07585 1.296,6.34414 2.73398,12.61835 4.34624,18.89257 0.84123,3.25974 1.82177,6.48426 3.01447,9.63885 1.43798,3.50528 2.27921,7.32575 2.8741,10.05973 0.59674,2.69902 1.01736,4.27632 0.87541,5.95875 -0.23661,3.32967 -2.59466,7.04526 -4.83706,9.14832 -2.24238,2.10305 -4.38147,2.66379 -7.46586,4.55653 0.23659,2.34755 0.52576,5.18748 0.66509,6.48453 0.13144,1.33283 0.13144,1.08571 0.18402,1.36699 l 6.69457,35.33141 c 0.87541,4.5915 1.54312,9.21824 1.99791,13.59971 2.69901,26.74382 4.38146,50.01787 4.97741,69.71643 0.18402,4.9422 0.13143,9.6039 -0.10517,14.26585 -0.10516,1.96373 -0.28128,3.96058 -0.55994,5.92353 -1.99789,14.93172 -4.06572,29.89841 -6.20402,44.83014 -0.73608,5.01239 -1.33281,10.02477 -1.85857,15.00192 -2.76921,26.14814 -5.01237,51.41981 -6.87019,75.78035 -0.34962,4.83705 -0.63091,9.56893 -0.84121,14.37073 -0.0263,0.9122 -0.10516,2.80417 -0.2103,5.78343 -4.34625,-0.0263 -4.83704,0 -5.88857,0 -2.2082,0.10516 -4.41643,0.18401 -6.62464,0.28127 -0.55995,0.0263 -1.08571,0.0263 -1.61147,0.0788 -1.08571,0.0262 -2.13723,0.0788 -3.22478,0.10515 2.41852,3.08441 3.92589,5.08232 4.62672,6.06365 3.71559,5.39803 6.62464,10.90095 8.62256,16.4391 l 6.30918,17.1749 c 1.19086,3.22478 2.24238,6.51949 2.90931,9.74427 3.85571,6.7298 -2.27919,12.5132 -11.07601,9.60387 -5.25765,-1.7166 -11.49692,-6.58966 -18.43702,-12.82865 -4.62672,-4.17117 -9.56893,-8.93801 -12.93381,-13.24929 -1.68246,-2.13723 -2.94429,-4.13593 -3.5752,-5.18745 -0.59676,-1.01736 -0.55994,-1.01736 -0.84123,-1.85858 -0.31546,-0.80705 -0.98056,-2.38434 -1.43796,-3.6454 -4.90724,-0.9122 -10.58549,1.50633 -12.44329,-7.11517 -0.34964,-1.71663 -0.45479,-4.17116 -0.45479,-6.27422 0,-4.20612 0.42061,-7.11544 0.59675,-8.90304 0.18402,-1.75343 0.13143,-2.38434 0.49159,-4.59151 -0.7019,-0.38643 -1.36699,-0.84122 -1.99791,-1.29601 -0.18401,-0.13143 -0.34962,-0.34963 -0.45477,-0.55994 -0.23661,-0.49158 -0.38646,-1.01736 -0.34966,-1.54312 0.0263,-1.47214 0.23661,-2.90906 0.55994,-4.34624 0.38644,-1.61146 0.59676,-3.22477 0.70192,-4.87199 0.21028,-3.36491 0.28126,-6.76503 0.21028,-10.16488 -0.10515,-4.90723 -0.0788,-9.84941 0.10517,-14.75638 0.18402,-4.66197 0.45478,-9.35862 0.87541,-14.02058 l 2.80416,-31.33559 c 0.0788,-0.91221 0.10517,-1.82178 0.13143,-2.73398 0.52578,-30.73965 1.01737,-61.47929 1.47216,-92.25416 0.13145,-7.53604 0.10516,-15.07183 -0.10517,-22.64285 -0.10515,-5.88858 -0.84121,-12.12784 -2.24238,-18.6121 -1.29603,-5.99371 -2.80417,-12.26792 -4.10098,-17.13993 -1.3328,-4.90722 -2.41852,-8.41224 -3.32993,-11.84732 -0.9122,-3.43509 -1.64826,-6.79999 -2.80416,-10.0245 -2.24238,-6.44957 -6.09888,-12.47826 -7.64095,-14.68646 -1.54312,-2.20821 -0.77024,-0.63092 -3.25973,-3.08439 -1.82179,3.47003 -2.69902,5.18744 -2.62884,5.18744 -1.36698,3.43509 -2.45268,6.97507 -3.22476,10.65542 -3.04945,13.56474 -4.83706,30.14396 -6.97507,49.38695 -0.38645,3.54023 -0.66509,7.1504 -0.84123,10.76057 -0.38644,6.83494 -0.59674,13.66989 -0.63091,20.50484 -0.10517,27.76039 -0.0788,55.52078 0.13143,83.28117 l 0.31547,38.90661 c 0.0262,7.18563 0.23659,14.371 0.63091,21.55637 0.31546,6.20403 0.80705,12.37309 1.47214,18.50693 0.98055,9.2887 1.92693,18.57712 2.80418,27.90077 0.2103,1.99791 0.34962,4.55655 0.42059,5.71322 0.0788,1.1567 0.0263,0.87541 0.0263,1.89276 -0.0263,1.01735 -0.0263,3.29471 -0.0788,5.08231 -0.59675,0.2103 -1.15668,0.45478 -1.7876,0.63091 -0.31547,0.10517 -0.63091,0.21031 -0.94638,0.31546 -1.78761,0.38645 -3.32966,1.05154 -4.24109,1.33282 -1.7876,0.63091 -1.01734,-0.18403 -1.61147,2.62883 -0.28127,1.43796 0.0263,4.38147 0.34965,6.79998 0.52576,6.51949 -0.66511,13.17909 -4.97717,17.42016 -4.31127,4.20613 -11.70721,6.02896 -15.24717,2.97951 l -10.34022,-8.72769 c -0.18403,-0.13143 -0.38646,-0.28129 -0.59675,-0.38643 -2.7692,-1.54313 -5.57311,-3.08442 -8.34232,-4.62674 -2.52367,-1.15669 -7.50081,-4.76684 -11.8121,-8.55235 -4.2763,-3.75056 -7.92143,-7.64122 -10.62045,-11.39176 -4.10097,-5.64303 -6.13384,-10.93591 -8.97296,-17.06975 -3.78551,-8.20192 1.68243,-13.45958 6.48426,-13.66989 2.38434,-0.10517 4.59176,1.01735 6.69481,2.24239 1.08571,0.63092 3.36491,1.92692 5.2227,3.01447 0.42061,0.28129 0.8754,0.52576 1.33281,0.77025 0.9122,0.52577 1.85859,1.01735 2.7692,1.50632 l -0.59673,-6.20404 c -0.6651,-7.01028 -1.26184,-14.05553 -1.75344,-21.06582 -0.34963,-4.34624 -0.59674,-8.7277 -0.80704,-13.07393 l -2.31337,-53.59307 -2.27919,-50.43821 c -0.10516,-5.88857 -0.0788,-11.81237 0.0262,-17.70094 0.18403,-9.46377 0.4548,-18.92754 0.84123,-28.35609 0.4548,-11.35651 0.84123,-22.71304 1.19086,-34.06957 0.0788,-2.45269 0.10516,-4.90722 0.0788,-7.39593 l -0.6651,-49.49184 0.0262,-3.29497 c -2.48949,-1.0857 -2.52366,-0.9122 -5.22241,-2.24238 -1.36699,-0.6651 -3.3649,-1.71663 -5.04734,-2.76894 -1.71663,-1.01737 -3.11964,-2.06889 -4.69694,-3.68036 -1.57729,-1.57729 -3.32992,-3.71559 -4.38145,-5.71349 -1.01737,-1.9979 -1.29602,-3.82047 -1.36699,-5.64303 -0.0788,-1.82178 0.0788,-3.6454 0.84123,-6.79999 0.77024,-3.15459 2.13723,-7.60598 3.68034,-11.70694 0.91221,-2.38434 1.71664,-4.80209 2.52369,-7.5011 2.83912,-9.49873 6.16904,-22.57266 10.05971,-39.11691 0.38645,-1.57729 0.73607,-3.434816 1.01736,-5.32757 l 3.04944,-21.451219 4.13592,-26.428629 c 0.34964,-3.890662 0.52577,-7.67617 0.55995,-12.232712 0.0262,-9.078122 -0.59675,-21.1707176 -1.61147,-29.1623433 -0.21031,-2.1030668 -0.55994,-3.680357 -0.73608,-4.5568097 -0.42061,-1.7534261 -0.31546,-0.7702423 -1.57729,-4.135925"
       style="fill:#ffffff;fill-opacity:1;fill-rule:nonzero;stroke:none;stroke-width:35.0508"
       id="path622"
       inkscape:label="path10448" />
  </g>
</svg>
