<?xml version="1.0" encoding="UTF-8" standalone="no"?>
<!-- Created with Inkscape (http://www.inkscape.org/) -->
<svg
   xmlns:svg="http://www.w3.org/2000/svg"
   xmlns="http://www.w3.org/2000/svg"
   version="1.0"
   width="960"
   height="960"
   id="svg10889">
  <defs
     id="defs10891" />
  <g
     transform="translate(-1088.199,275.837)"
     id="layer1">
    <path
       d="M 1088.1991,204.16304 C 1088.1991,-60.932465 1303.1036,-275.83696 1568.1991,-275.83696 C 1833.2946,-275.83696 2048.1991,-60.932465 2048.1991,204.16304 C 2048.1991,469.25854 1833.2946,684.16304 1568.1991,684.16304 C 1303.1036,684.16304 1088.1991,469.25854 1088.1991,204.16304"
       style="fill:#176fc1;fill-rule:nonzero;stroke:none"
       id="path10456" />
    <path
       d="M 1519.7808,187.39115 C 1503.7014,171.3256 1482.3453,162.4757 1459.6181,162.4757 C 1448.7462,162.4757 1438.3451,164.55314 1428.775,168.29253 L 1409.067,124.4862 L 1417.0167,111.8692 C 1430.9771,114.69452 1444.7436,117.43674 1445.4915,117.43674 C 1453.2888,117.43674 1459.6043,111.12132 1459.6043,103.32398 C 1459.6043,95.5405 1453.2888,89.225075 1445.4915,89.225075 C 1445.1037,89.225075 1387.3093,89.280473 1387.3093,89.280473 C 1382.7666,89.280473 1379.0826,92.964471 1379.0826,97.507145 C 1379.0826,102.06367 1382.7666,105.73382 1387.3093,105.73382 L 1387.3093,105.81692 C 1387.3093,105.81692 1395.9514,107.58967 1406.5602,109.75021 L 1400.1756,119.88813 L 1250.3504,119.88813 C 1254.2283,108.2406 1256.7905,100.55406 1256.7905,100.55406 C 1256.832,100.41556 1256.8459,100.29092 1256.8874,100.15242 C 1256.9151,100.00008 1256.9567,99.86158 1256.9844,99.723084 C 1256.9982,99.570738 1256.9844,99.432242 1256.9982,99.279896 C 1256.9982,99.1414 1257.0121,99.002904 1256.9982,98.864408 C 1256.9982,98.712062 1256.9567,98.573566 1256.929,98.43507 C 1256.9151,98.296573 1256.9013,98.158077 1256.8597,98.033431 C 1256.8182,97.894935 1256.7628,97.770288 1256.7212,97.631792 C 1256.6658,97.507145 1256.6243,97.368649 1256.5689,97.244003 C 1256.4996,97.119356 1256.4165,97.008559 1256.3473,96.897762 C 1256.278,96.773116 1256.2088,96.648469 1256.1257,96.537672 C 1256.0426,96.426875 1255.9457,96.329928 1255.8487,96.232981 C 1255.7518,96.122184 1255.6548,96.011387 1255.5579,95.914439 C 1255.4471,95.817492 1255.3224,95.748244 1255.2116,95.665146 C 1255.1008,95.582049 1254.99,95.485101 1254.8654,95.415853 C 1254.7407,95.332756 1254.5884,95.291207 1254.4637,95.221959 C 1254.3391,95.16656 1254.2144,95.097312 1254.0898,95.055763 L 1229.6591,86.552099 L 1236.9717,67.342681 L 1295.8741,66.691749 L 1313.3108,82.466462 C 1315.0974,84.073017 1317.8534,83.934521 1319.4738,82.147921 C 1321.0942,80.36132 1320.9558,77.605247 1319.1692,75.984842 L 1300.4722,59.07446 L 1299.198,57.924942 L 1297.4945,57.938792 L 1233.8971,58.645122 L 1230.9332,58.686671 L 1218.3024,91.842652 L 1222.5404,93.324561 L 1247.1511,101.88362 L 1225.0056,168.29253 C 1215.2693,164.49774 1204.8129,162.4757 1194.0517,162.4757 C 1147.1431,162.4757 1108.9874,200.64524 1108.9874,247.55389 C 1108.9874,270.26726 1117.8373,291.63722 1133.9028,307.70277 C 1149.9684,323.76833 1171.3245,332.61823 1194.0517,332.61823 C 1216.7651,332.61823 1238.135,323.76833 1254.2006,307.70277 C 1270.2662,291.63722 1279.1161,270.26726 1279.1161,247.55389 C 1279.1161,224.82667 1270.2662,203.47056 1254.2006,187.39115 C 1247.8852,181.07573 1240.7249,175.89597 1233.0107,171.90728 C 1235.0743,165.71651 1237.1517,159.47033 1239.1876,153.3765 L 1303.9069,222.45838 C 1299.4334,227.95668 1296.7605,234.95074 1296.7605,242.56803 C 1296.7605,251.09939 1300.0844,259.11832 1306.109,265.15675 C 1312.1474,271.19518 1320.1663,274.51909 1328.7115,274.51909 C 1329.9857,274.51909 1331.246,274.42214 1332.4925,274.2698 L 1334.0852,281.3885 L 1323.7257,281.3885 L 1323.7257,291.36022 L 1352.3944,291.36022 L 1352.3944,281.3885 L 1339.1957,281.3885 L 1337.3814,273.30032 C 1342.5889,271.84611 1347.367,269.09004 1351.3003,265.15675 C 1356.0091,260.46173 1359.0283,254.54794 1360.1502,248.12172 L 1374.5815,248.67571 C 1374.8723,270.97359 1383.6807,291.90036 1399.4692,307.70277 C 1415.5348,323.76833 1436.9047,332.61823 1459.6181,332.61823 C 1482.3453,332.61823 1503.7014,323.76833 1519.7808,307.70277 C 1535.8464,291.63722 1544.6963,270.26726 1544.6963,247.55389 C 1544.6963,224.82667 1535.8464,203.47056 1519.7808,187.39115 z M 1243.6195,197.97226 C 1256.8597,211.21249 1264.1585,228.82921 1264.1585,247.55389 C 1264.1585,286.20817 1232.706,317.6468 1194.0517,317.6468 C 1175.327,317.6468 1157.7242,310.3619 1144.4839,297.12166 C 1131.2437,283.88143 1123.945,266.27857 1123.945,247.55389 C 1123.945,228.82921 1131.2437,211.21249 1144.4839,197.97226 C 1157.7242,184.73203 1175.327,177.44713 1194.0517,177.44713 C 1203.1786,177.44713 1212.0424,179.19218 1220.269,182.50224 L 1204.8683,228.71841 C 1203.7049,231.88997 1199.1068,240.98917 1192.5144,243.46825 C 1190.2569,244.31308 1189.1213,246.81986 1189.9661,249.07735 C 1190.8109,251.33483 1193.3315,252.48435 1195.589,251.63952 C 1207.3058,247.23535 1212.8872,232.22236 1213.1088,231.58528 C 1213.1365,231.54373 1219.9505,211.06015 1228.2049,186.31088 C 1233.7863,189.4409 1238.9799,193.33264 1243.6195,197.97226 z M 1420.8115,171.89343 C 1395.5082,184.92592 1377.5591,210.25687 1374.9139,239.95045 L 1360.5103,239.41031 C 1359.7901,232.05617 1356.5908,225.25601 1351.3003,219.96545 C 1350.8017,219.46687 1350.2754,219.00983 1349.7491,218.55279 L 1403.4856,133.34995 L 1420.8115,171.89343 z M 1426.933,185.50761 L 1452.7625,242.91427 L 1389.8714,240.51828 C 1391.4503,224.45273 1398.4859,209.55054 1410.0503,197.97226 C 1415.1054,192.931 1420.7976,188.74842 1426.933,185.50761 z M 1322.4792,229.53554 L 1315.4298,222.0152 C 1316.9532,221.01802 1318.5736,220.22859 1320.2633,219.60536 L 1322.4792,229.53554 z M 1325.0968,218.3866 C 1326.2879,218.20655 1327.4928,218.0819 1328.7115,218.0819 C 1331.6754,218.0819 1334.5561,218.63589 1337.2567,219.64691 L 1328.4899,233.55193 L 1325.0968,218.3866 z M 1345.6912,224.96516 C 1345.802,225.07596 1345.9128,225.15906 1346.0097,225.25601 C 1349.8045,229.0508 1352.1728,233.88432 1352.9068,239.11947 L 1337.1598,238.51009 L 1345.6912,224.96516 z M 1247.0265,129.85985 L 1393.8878,129.85985 L 1341.3285,213.20684 C 1337.3952,211.51719 1333.1157,210.60311 1328.7115,210.60311 C 1326.9249,210.60311 1325.1799,210.79701 1323.4625,211.074 L 1319.9032,195.18849 L 1331.2045,195.18849 L 1331.2045,185.20292 L 1302.5219,195.18849 L 1314.8065,195.18849 L 1318.6152,212.26507 C 1315.6098,213.26224 1312.8122,214.7026 1310.2777,216.50305 L 1242.3176,143.95876 C 1243.9657,139.02829 1245.5446,134.27788 1247.0265,129.85985 z M 1328.7115,267.0403 C 1322.1745,267.0403 1316.0253,264.49197 1311.3995,259.8662 C 1306.7876,255.24042 1304.2393,249.10504 1304.2393,242.56803 C 1304.2393,237.23592 1305.9566,232.18081 1309.0728,227.98438 L 1325.5261,245.54569 L 1326.2325,246.30742 L 1330.8444,266.9295 C 1330.138,266.9849 1329.4317,267.0403 1328.7115,267.0403 z M 1335.7471,265.98773 L 1331.5092,247.04145 L 1352.5883,247.84473 C 1350.677,256.50074 1344.1677,263.45325 1335.7471,265.98773 z M 1459.6181,317.6468 C 1440.8934,317.6468 1423.2906,310.3619 1410.0503,297.12166 C 1397.2117,284.28307 1389.9961,267.33114 1389.5667,249.24354 L 1459.4519,251.90267 L 1463.7868,251.29328 L 1463.6068,245.75344 L 1434.8965,181.93441 C 1442.6939,178.99829 1451.0452,177.44713 1459.6181,177.44713 C 1478.3566,177.44713 1495.9595,184.73203 1509.1997,197.97226 C 1522.44,211.21249 1529.7249,228.82921 1529.7249,247.55389 C 1529.7249,286.20817 1498.2862,317.6468 1459.6181,317.6468"
       style="fill:white;fill-rule:nonzero;stroke:none"
       id="path10458" />
    <path
       d="M 1953.4539,326.88449 C 1953.4539,326.88449 1953.4539,305.72228 1948.1633,283.67369 C 1944.2162,267.24804 1934.8815,251.30713 1930.3943,244.25768 C 1929.868,242.92812 1929.0647,241.65395 1927.8875,240.47673 L 1919.6747,238.82863 C 1931.2391,233.33033 1939.2442,221.53046 1939.2442,207.84704 C 1939.2442,188.91461 1923.8988,173.55539 1904.9664,173.55539 C 1886.0201,173.55539 1870.6747,188.91461 1870.6747,207.84704 C 1870.6747,219.68846 1872.9184,231.66838 1882.0314,237.83146 C 1884.9952,239.8258 1889.3717,240.91992 1893.9005,241.50161 L 1887.322,242.23564 C 1887.322,242.23564 1887.8344,242.23564 1886.9203,244.25768 C 1882.4053,245.51799 1872.3921,246.9999 1853.8197,243.99454 C 1835.649,241.07227 1829.1813,228.80151 1826.8684,220.89338 C 1828.3364,219.56381 1829.7076,218.04036 1830.8986,216.3784 C 1836.7709,208.13788 1833.2531,196.39341 1825.6081,191.10285 C 1822.9489,189.26085 1820.9407,187.12801 1819.445,185.14752 C 1822.4781,179.66307 1823.8492,175.23119 1823.8492,175.23119 C 1817.3814,157.0051 1801.5097,110.56733 1801.5097,110.56733 C 1797.3964,71.192874 1797.3964,21.818992 1797.3964,21.818992 C 1797.3964,21.818992 1798.4628,13.329178 1786.8153,5.9473322 C 1758.8806,-11.766327 1737.2891,-18.940428 1728.8962,-21.294863 L 1727.9821,-32.499202 C 1735.4332,-38.523786 1741.0839,-48.273915 1744.1723,-58.758075 C 1744.3247,-59.29821 1744.4632,-59.838345 1744.6017,-60.37848 C 1752.4405,-59.173563 1758.2574,-58.425684 1760.3625,-58.425684 C 1769.1847,-58.425684 1768.2984,-65.475139 1756.8309,-71.652068 C 1753.4654,-73.452518 1750.557,-74.80978 1747.4962,-75.917749 C 1748.3688,-80.820514 1750.5847,-93.312867 1751.9835,-100.29307 C 1753.7563,-109.11528 1743.1752,-111.31737 1734.3529,-109.11528 C 1725.5307,-106.91319 1714.0771,-112.20374 1709.2297,-115.29221 C 1704.3824,-118.38067 1701.7233,-117.05111 1697.7623,-112.64693 C 1694.5076,-109.03218 1688.6077,-91.830958 1686.5718,-85.723278 L 1666.0189,-86.637352 C 1666.0189,-86.637352 1647.502,-80.460424 1662.5011,-76.056246 C 1666.2821,-74.934427 1673.8578,-73.258623 1683.1925,-71.375075 C 1682.8601,-69.990114 1682.5831,-68.563603 1682.3892,-67.123243 C 1680.5195,-53.329025 1685.3807,-40.448882 1694.1198,-32.95624 L 1692.0839,-25.00656 C 1686.918,-22.679825 1675.3259,-17.223076 1650.1473,-4.6337746 C 1628.0156,6.4320688 1620.0521,14.090907 1617.4068,18.758227 L 1616.9359,17.705656 C 1616.9359,17.705656 1599.9009,91.759555 1599.3053,132.32508 C 1598.7237,172.87676 1598.7237,211.08785 1598.7237,211.08785 L 1608.4738,211.08785 C 1606.5764,220.87953 1605.4684,230.67121 1607.532,240.47673 C 1608.1275,244.59007 1611.6453,249.28509 1615.7587,250.46231 C 1621.0492,251.63952 1621.0492,249.88062 1626.3398,249.88062 C 1626.3398,248.70341 1634.9266,245.1302 1635.162,244.59007 C 1636.9209,240.47673 1638.6936,234.00896 1632.8076,225.78229 C 1629.5944,221.26732 1628.6942,219.8962 1626.9353,214.60565 C 1626.6583,213.52538 1625.7581,212.30661 1624.8025,211.08785 L 1631.0487,211.08785 C 1631.0487,211.08785 1631.0487,208.13788 1633.9848,162.87733 C 1636.8101,119.32029 1636.9209,122.03482 1646.3663,91.385615 L 1648.0975,95.291207 C 1666.3098,161.71397 1651.6153,174.63566 1645.1476,194.62065 C 1643.9288,198.41545 1641.6298,222.25064 1646.9203,224.00954 C 1648.7623,224.63277 1650.8813,225.13136 1653.2357,225.54685 C 1652.5848,240.00585 1652.5987,266.07082 1656.3242,308.65839 C 1662.792,382.71229 1674.5503,418.87364 1672.1959,437.08589 C 1672.1959,437.08589 1639.2753,436.21336 1647.502,456.78004 C 1655.7287,477.36057 1674.5503,486.76446 1674.5503,486.76446 L 1679.2453,486.16893 L 1681.5998,492.05501 L 1691.5853,497.92725 C 1691.5853,497.92725 1699.812,500.86337 1704.5209,494.3956 C 1709.2297,487.94168 1708.0525,483.23281 1708.0525,483.23281 L 1711.5703,467.95668 C 1711.5703,467.95668 1711.5703,400.93839 1703.9392,362.14561 C 1696.2942,323.35284 1699.812,302.19062 1702.762,285.73728 C 1703.8561,279.61575 1706.169,275.03153 1708.6342,271.70762 C 1713.8555,283.45209 1720.1155,296.38763 1727.4697,309.76636 C 1728.8962,336.57922 1732.137,404.66393 1729.7964,432.68171 C 1729.6302,434.7176 1729.5056,436.5596 1729.4225,438.24925 L 1721.5698,444.14919 C 1721.5698,444.14919 1720.6834,453.84392 1723.3287,455.60282 C 1725.9739,457.37557 1726.8603,464.42503 1726.8603,464.42503 C 1726.8603,464.42503 1735.6687,473.23338 1742.732,484.70087 C 1749.7814,496.16835 1763.8942,495.28197 1769.1847,493.52307 C 1774.4753,491.75032 1773.5889,498.81363 1772.7025,481.16921 C 1772.0516,468.13673 1764.6559,455.11809 1760.8473,449.2043 C 1767.6613,448.38717 1773.5474,447.22381 1774.4753,445.61725 C 1776.525,442.0302 1776.3311,344.12726 1776.2619,319.1287 C 1776.622,318.79631 1776.8159,318.64397 1776.8159,318.64397 C 1776.8159,318.64397 1781.1369,257.17937 1753.6039,218.94058 C 1759.9193,217.81876 1764.9744,217.14013 1767.412,214.60565 C 1772.7856,209.0381 1769.7664,200.50674 1769.7664,200.50674 C 1769.7664,200.50674 1768.0629,198.33235 1761.5397,178.16731 C 1748.0225,136.43842 1763.2986,90.582337 1763.2986,90.582337 C 1763.2986,90.582337 1768.5892,129.37511 1773.2981,144.06956 C 1777.9931,158.764 1800.9281,203.44286 1800.9281,203.44286 C 1802.41,202.80578 1803.8226,202.04405 1805.1383,201.19922 C 1805.0691,204.14919 1804.8752,207.3069 1804.4459,209.91063 C 1803.2686,216.96009 1803.2686,218.71899 1809.1547,224.00954 C 1810.1657,224.92361 1811.3014,225.533 1812.5063,225.87924 C 1811.8415,234.25826 1812.1878,250.5731 1822.0764,266.04313 C 1827.0484,273.81276 1844.956,279.98969 1859.1103,283.79833 C 1832.0481,318.02074 1805.3322,337.4656 1805.3322,337.4656 C 1805.3322,337.4656 1810.7059,348.19905 1823.4198,358.40622 C 1821.3285,377.58793 1817.7276,416.28376 1820.3175,434.44061 C 1823.8492,459.13448 1826.4944,440.61754 1828.2533,452.95755 C 1828.2949,453.24839 1828.3503,453.53923 1828.3918,453.83007 C 1825.3172,453.38688 1822.4365,453.98242 1820.2483,455.78287 C 1814.9439,460.1732 1815.8025,469.96488 1822.1734,477.66526 C 1828.5442,485.3518 1838.0035,488.03862 1843.3079,483.6483 C 1844.7344,482.45723 1845.7039,480.86452 1846.2578,479.05022 L 1846.7703,479.41031 C 1846.7703,479.41031 1849.4156,469.71558 1847.6567,457.37557 C 1845.9809,445.70035 1843.5295,429.28855 1858.1824,381.31348 C 1858.5563,393.77814 1859.8443,408.56953 1863.5145,415.92367 C 1870.5778,430.03643 1874.9819,430.03643 1880.2725,437.97226 C 1883.998,443.55366 1883.3471,453.48383 1882.6408,458.88518 C 1875.0373,464.88207 1871.5888,471.75148 1873.223,475.00614 C 1878.8183,486.21047 1887.682,480.11664 1896.712,473.81507 C 1902.6258,469.68788 1906.4206,464.12034 1907.2516,459.17602 L 1907.5978,459.13448 C 1907.5978,459.13448 1920.8242,462.66613 1901.4347,432.68171 C 1890.0503,415.0927 1890.8536,407.11532 1895.2578,391.24366 C 1897.3352,383.76486 1899.2188,378.07267 1900.6176,374.11168 C 1904.8417,373.29455 1909.2182,372.26968 1913.7747,370.96782 C 1913.7747,370.96782 1905.8389,350.69198 1908.4842,327.75702 C 1909.5229,318.76861 1912.5975,306.5394 1915.9353,294.97497 C 1929.3001,301.70589 1932.0701,317.92379 1929.6464,325.99811 C 1927.4858,333.18606 1925.3392,339.1968 1924.6051,341.17729 C 1918.9683,342.97774 1914.7857,349.30702 1914.7857,356.85506 C 1914.7857,365.81576 1920.658,373.05911 1927.8875,373.05911 C 1935.117,373.05911 1940.9754,365.81576 1940.9754,356.85506 C 1940.9754,354.32058 1940.4906,351.9246 1939.6458,349.77791 C 1951.7919,340.13857 1953.4539,326.88449 1953.4539,326.88449"
       style="fill:white;fill-rule:nonzero;stroke:none"
       id="path10460" />
    <path
       d="M 1561.2743,-266.01758 L 1561.2743,674.34366 C 1561.2743,678.16616 1564.3766,681.26847 1568.1991,681.26847 C 1572.0216,681.26847 1575.1239,678.16616 1575.1239,674.34366 L 1575.1239,-266.01758 C 1575.1239,-269.85393 1572.0216,-272.95624 1568.1991,-272.95624 C 1564.3766,-272.95624 1561.2743,-269.85393 1561.2743,-266.01758"
       style="fill:white;fill-rule:nonzero;stroke:none"
       id="path10462" />
  </g>
</svg>
