<?xml version="1.0" encoding="utf-8"?>
<!-- Generator: Adobe Illustrator 15.0.2, SVG Export Plug-In . SVG Version: 6.00 Build 0)  -->
<!DOCTYPE svg PUBLIC "-//W3C//DTD SVG 1.1//EN" "http://www.w3.org/Graphics/SVG/1.1/DTD/svg11.dtd">
<svg version="1.1" id="Vrstva_1" xmlns="http://www.w3.org/2000/svg" xmlns:xlink="http://www.w3.org/1999/xlink" x="0px" y="0px"
	 width="960px" height="960px" viewBox="0 0 960 960" enable-background="new 0 0 960 960" xml:space="preserve">
<path fill-rule="evenodd" clip-rule="evenodd" fill="#E20613" d="M480.042,0c265.084,0,480.05,214.967,480.05,480.056
	c0,265.07-214.966,480.036-480.05,480.036C214.96,960.092,0,745.126,0,480.056C0,214.967,214.96,0,480.042,0"/>
<path fill-rule="evenodd" clip-rule="evenodd" fill="#FFFFFF" d="M480.042,122.553c-197.37,0-357.491,160.125-357.491,357.502
	c0,197.37,160.121,357.483,357.491,357.483s357.497-160.113,357.497-357.483C837.539,282.679,677.412,122.553,480.042,122.553"/>
<path fill-rule="evenodd" clip-rule="evenodd" fill="#1D1D1B" d="M711.005,480.526c0-37.873-1.708-70.512-5.808-97.282
	c-4.103-26.825-9.91-48.403-18.048-65.326c-8.784-16.855-19.262-29.107-32.638-36.675c-13.442-7.593-29.174-11.112-47.79-11.112
	c-19.25,0-34.979,3.519-48.408,11.112c-13.389,7.568-23.869,19.82-32.019,36.675c-8.771,16.922-14.58,38.5-18.681,65.326
	c-4.049,26.77-5.796,59.41-5.796,97.282c0,37.885,1.747,70.51,5.796,96.759c4.101,26.832,9.91,48.371,18.681,65.279
	c8.149,16.922,18.63,28.551,32.019,36.119c13.429,7.515,29.158,11.033,48.408,11.033c18.616,0,34.348-3.519,47.79-11.033
	c13.376-7.568,23.854-19.197,32.638-36.119c8.138-16.908,13.945-38.447,18.048-65.279
	C709.297,551.036,711.005,518.411,711.005,480.526 M650.979,480.526c0,34.405-0.57,61.791-2.331,82.748
	c-1.719,21.593-4.047,37.892-7.579,49.563c-3.479,12.249-8.139,19.817-13.376,23.906c-5.821,4.061-12.833,6.389-20.972,6.389
	c-8.216,0-15.147-2.328-20.399-7.579c-5.862-4.671-10.519-13.376-14.012-25.628c-3.466-12.252-5.808-29.16-7.568-50.116
	c-1.758-20.387-2.328-47.205-2.328-79.282c0-32.633,0.57-59.405,2.328-80.99c1.761-20.971,4.103-37.873,7.568-50.122
	c3.493-12.252,8.149-20.388,14.012-25.635c5.252-4.67,12.184-7.005,20.399-7.005c7.582,0,14.527,2.335,20.388,6.435
	c5.24,4.056,9.91,12.192,13.39,24.444c3.521,12.245,6.431,28.583,8.149,49.541C650.409,418.78,650.979,446.172,650.979,480.526z
	 M454.07,561.567c0-18.112-2.335-32.638-6.435-44.876c-4.605-12.252-10.48-22.147-17.478-29.729
	c-6.952-7.568-14.541-14.003-23.304-18.053c-8.713-4.107-16.908-7.005-25.065-8.771c7.594-2.342,15.729-5.81,23.304-11.055
	c7.575-4.677,14.01-10.484,20.448-18.06c5.808-7.005,10.484-15.15,14.52-25.058c3.533-9.91,5.3-20.448,5.3-32.64
	c0-20.434-2.958-37.303-8.205-50.738c-5.808-13.39-13.38-23.867-22.16-31.442c-9.28-7.575-19.767-13.442-31.428-16.338
	c-11.675-2.912-23.307-4.677-35.549-4.677c-17.478,0-33.831,2.956-48.98,9.333c-15.141,6.438-29.735,14.594-43.117,25.635
	l25.058,39.068c11.685-8.766,22.737-15.141,33.209-18.68c9.915-3.468,19.818-5.226,28.583-5.226c4.054,0,8.727,0.621,13.971,1.19
	c5.226,0.567,9.903,2.898,14.573,6.384c4.095,4.086,8.149,9.327,11.061,16.908c2.949,7.573,4.656,18.053,4.656,31.493
	c0,22.155-4.656,38.447-13.382,48.35c-9.333,9.924-20.956,15.162-35.536,15.162h-15.771v47.213h18.667
	c7.007,0,13.952,0.569,20.39,2.342c6.436,1.746,11.682,5.24,16.92,10.479c4.677,5.225,8.712,12.82,11.625,22.716
	c2.956,9.922,4.093,22.729,4.093,39.068c0,14.527-1.758,26.209-4.656,36.105c-3.486,9.924-8.164,17.491-13.39,23.313
	c-5.814,6.428-12.252,10.517-19.825,12.858c-7.582,2.898-15.157,4.05-22.729,4.05c-11.678,0-22.718-1.774-32.64-5.808
	c-9.896-4.103-18.676-8.772-25.628-14.013l-25.674,41.412c8.766,6.998,21.011,13.376,36.158,19.197
	c14.573,6.375,32.64,9.273,53.598,9.273c15.71,0,30.305-2.328,44.315-7.516c13.382-5.237,25.634-12.819,36.105-23.297
	c10.485-10.48,18.68-23.92,25.058-39.652C451.168,601.789,454.07,583.093,454.07,561.567z"/>
</svg>
