<?xml version="1.0" encoding="UTF-8" standalone="no"?>
<svg
   xmlns:svg="http://www.w3.org/2000/svg"
   xmlns="http://www.w3.org/2000/svg"
   version="1.0"
   width="960"
   height="960"
   id="svg3347">
  <defs
     id="defs" />
  <path
     d="M 183.34766,-82.403435 A 391.41632,391.41632 0 1 1 -599.48499,-82.403435 A 391.41632,391.41632 0 1 1 183.34766,-82.403435 z"
     transform="matrix(1.2263158,0,0,1.2263158,735.1582,581.05312)"
     id="path3167"
     style="opacity:1;fill:#ee1c23;fill-opacity:1;fill-rule:nonzero;stroke:none;" />
  <path
     d="M 397.59658,-55.622318 A 352.27469,352.27469 0 1 1 -306.9528,-55.622318 A 352.27469,352.27469 0 1 1 397.59658,-55.622318 z"
     transform="matrix(1.0103548,0,0,1.0103548,434.20796,536.19876)"
     id="path3165"
     style="opacity:1;fill:#ffffff;fill-opacity:1;fill-rule:nonzero;stroke:none;" />
  <path
     d="M 440.79199,440.8086 L 440.79199,397.63254 C 440.79199,370.18578 418.46639,347.82395 391.03032,347.85763 L 267.0624,348.0098 C 239.61248,348.04349 217.28687,370.33796 217.28687,397.78471 L 217.28687,440.96078 C 179.0992,461.23102 181.18364,544.40122 219.76596,560.51463 L 219.76596,588.27957 C 219.76596,614.10104 258.94652,614.58732 258.94652,588.27957 L 258.94652,562.27155 L 304.58101,562.27155 C 311.65573,586.82872 345.74418,587.6371 353.35936,562.27155 L 399.1462,562.27155 L 399.1462,588.11356 C 399.1462,614.06826 438.32676,614.28531 438.32676,588.11356 L 438.32676,560.34862 C 478.929,542.37629 477.09983,459.18553 440.79199,440.8086 z M 413.09276,438.04179 L 244.99996,438.04179 L 244.99996,397.78471 C 244.99996,385.03849 255.39482,375.7194 267.0624,375.7194 L 391.03032,375.56723 C 403.12531,375.56723 413.09276,385.32922 413.09276,397.63254 L 413.09276,438.04179"
     id="path3163"
     style="opacity:1;fill:#ee1c23;fill-opacity:1;fill-rule:nonzero;stroke:none" />
  <path
     d="M 187.92569,629.50504 L 772.08869,629.50504 L 772.08869,607.56424 L 187.92569,607.56424 L 187.92569,629.50504 z"
     id="path122"
     style="fill:#000000;fill-rule:nonzero;stroke:none" />
  <path
     d="M 742.4782,440.65643 L 742.4782,397.48037 C 742.4782,370.03361 720.1526,347.67178 692.71653,347.70546 L 568.74861,347.85763 C 541.29869,347.89132 518.97308,370.18579 518.97308,397.63254 L 518.97308,440.80861 C 480.78541,461.07885 482.86985,544.24905 521.45217,560.36246 L 521.45217,588.1274 C 521.45217,613.94887 560.63273,614.43515 560.63273,588.1274 L 560.63273,562.11938 L 606.26722,562.11938 C 613.34194,586.67655 647.43039,587.48493 655.04557,562.11938 L 700.83241,562.11938 L 700.83241,587.96139 C 700.83241,613.91609 740.01297,614.13314 740.01297,587.96139 L 740.01297,560.19645 C 780.61521,542.22412 778.78604,459.03336 742.4782,440.65643 z M 714.77897,437.88962 L 546.68617,437.88962 L 546.68617,397.63254 C 546.68617,384.88632 557.08103,375.56723 568.74861,375.56723 L 692.71653,375.41506 C 704.81152,375.41506 714.77897,385.17705 714.77897,397.48037 L 714.77897,437.88962"
     id="path2391"
     style="opacity:1;fill:#000000;fill-opacity:1;fill-rule:nonzero;stroke:none" />
</svg>