<?xml version="1.0" encoding="UTF-8" standalone="no"?>
<!-- Created with Inkscape (http://www.inkscape.org/) -->
<svg
   xmlns:svg="http://www.w3.org/2000/svg"
   xmlns="http://www.w3.org/2000/svg"
   version="1.0"
   width="953.82385"
   height="983.54559"
   id="svg3994">
  <defs
     id="defs3996" />
  <g
     transform="translate(-315.2857,405.4342)"
     id="layer1">
    <path
       d="M 1219.8888,578.11145 C 1233.0281,578.11145 1245.3847,572.82414 1254.6934,563.2391 C 1263.9884,553.65407 1269.1095,540.91619 1269.1095,527.35865 L 1269.1095,-354.68137 C 1269.1095,-368.23891 1263.9884,-380.97679 1254.6934,-390.56182 C 1245.3847,-400.14686 1233.0281,-405.43417 1219.8888,-405.43417 L 364.50633,-405.43417 C 337.36288,-405.43417 315.28566,-382.65909 315.28566,-354.68137 L 315.28566,527.35865 C 315.28566,540.91619 320.40681,553.65407 329.70176,563.2391 C 338.9967,572.82414 351.36709,578.11145 364.50633,578.11145 L 1219.8888,578.11145 z "
       style="fill:black;fill-rule:nonzero;stroke:none"
       id="path4009" />
    <path
       d="M 364.50633,566.80156 C 354.2915,566.80156 344.68077,562.68765 337.45899,555.23737 C 330.23721,547.78694 326.25562,537.89086 326.25562,527.35865 L 326.25562,-354.68137 C 326.25562,-365.21358 330.23721,-375.10966 337.45899,-382.56009 C 344.68077,-390.01037 354.2915,-394.12428 364.50633,-394.12428 L 1219.8888,-394.12428 C 1230.1037,-394.12428 1239.7007,-390.01037 1246.9362,-382.56009 C 1254.1579,-375.10966 1258.1395,-365.21358 1258.1395,-354.68137 L 1258.1395,527.35865 C 1258.1395,549.10175 1240.9775,566.80156 1219.8888,566.80156 L 364.50633,566.80156"
       style="fill:white;fill-rule:nonzero;stroke:none"
       id="path311" />
    <path
       d="M 792.1336,445.62714 C 984.57037,445.62714 1140.5669,284.7736 1140.5669,86.345153 C 1140.5669,-112.06925 984.57037,-272.93683 792.1336,-272.93683 C 599.71057,-272.93683 443.70026,-112.06925 443.70026,86.345153 C 443.70026,284.7736 599.71057,445.62714 792.1336,445.62714 z "
       style="fill:#a6a6a6;fill-rule:nonzero;stroke:black;stroke-width:8.35917664;stroke-linecap:butt;stroke-linejoin:miter;stroke-miterlimit:4"
       id="path315" />
    <path
       d="M 979.32936,227.71801 C 1007.5102,188.09187 1024.1938,139.24153 1024.1938,86.345153 C 1024.1938,-45.80365 920.29215,-152.94044 792.1336,-152.94044 C 740.8344,-152.94044 693.45927,-135.73751 655.04326,-106.67904 L 979.32936,227.71801 z "
       style="fill:#666;fill-rule:nonzero;stroke:black;stroke-width:8.35917664;stroke-linecap:butt;stroke-linejoin:miter;stroke-miterlimit:4"
       id="path319" />
    <path
       d="M 604.93785,-55.013522 C 576.75698,-15.401419 560.07345,33.448781 560.07345,86.345153 C 560.07345,218.49396 663.97505,325.63074 792.1336,325.63074 C 843.43266,325.63074 890.82153,308.42767 929.23755,279.36934 L 604.93785,-55.013522 z "
       style="fill:#666;fill-rule:nonzero;stroke:black;stroke-width:8.35917664;stroke-linecap:butt;stroke-linejoin:miter;stroke-miterlimit:4"
       id="path323" />
    <path
       d="M 335.05631,561.38703 C 347.63263,572.00405 361.91144,572.58387 361.91144,572.58387 L 441.19997,573.03618 L 1263.906,-275.30041 L 1263.6177,-356.46253 C 1263.6177,-356.46253 1265.7595,-370.16162 1253.7598,-383.42229 C 1241.7602,-396.68312 1226.3281,-399.77937 1226.3281,-399.77937 L 1142.0556,-399.62377 L 321.13448,446.86075 L 320.77751,534.87957 C 320.77751,534.87957 324.97877,552.89057 335.05631,561.38703"
       style="fill:black;fill-rule:nonzero;stroke:none"
       id="path325" />
  </g>
</svg>
