<?xml version="1.0" encoding="UTF-8" standalone="no"?>
<!-- Created with Inkscape (http://www.inkscape.org/) -->

<svg
   width="960mm"
   height="960mm"
   viewBox="0 0 960 960"
   version="1.1"
   id="svg137"
   inkscape:version="1.1 (c68e22c387, 2021-05-23)"
   sodipodi:docname="Vorschriftszeichen_15_links_rechts.svg"
   xmlns:inkscape="http://www.inkscape.org/namespaces/inkscape"
   xmlns:sodipodi="http://sodipodi.sourceforge.net/DTD/sodipodi-0.dtd"
   xmlns="http://www.w3.org/2000/svg"
   xmlns:svg="http://www.w3.org/2000/svg">
  <sodipodi:namedview
     id="namedview139"
     pagecolor="#505050"
     bordercolor="#eeeeee"
     borderopacity="1"
     inkscape:pageshadow="0"
     inkscape:pageopacity="0"
     inkscape:pagecheckerboard="0"
     inkscape:document-units="mm"
     showgrid="false"
     width="960mm"
     inkscape:zoom="0.25575084"
     inkscape:cx="2164.2158"
     inkscape:cy="2430.0995"
     inkscape:window-width="1920"
     inkscape:window-height="1001"
     inkscape:window-x="-9"
     inkscape:window-y="-9"
     inkscape:window-maximized="1"
     inkscape:current-layer="layer1" />
  <defs
     id="defs134" />
  <g
     inkscape:label="Ebene 1"
     inkscape:groupmode="layer"
     id="layer1">
    <path
       style="fill:#176fc1;fill-opacity:1;stroke-width:1.31776"
       d="M 535.06132,956.7494 C 693.87884,938.41546 832.86881,842.17306 906.76698,699.365 954.69752,606.73926 970.88582,500.09494 952.78769,396.19192 931.94652,276.54075 864.00798,167.08838 764.92877,93.541925 706.11874,49.887219 634.07332,18.971981 562.73764,6.7800926 507.11752,-2.7258807 440.62119,-2.2042574 388.77236,8.1446943 342.41359,17.397849 305.50062,30.070613 264.22904,50.902229 216.09449,75.197899 178.45216,102.43107 140.34634,140.52791 61.435765,219.41986 15.069676,316.12267 1.9931413,429.08231 c -2.65752175,22.95654 -2.65752175,78.4993 0,101.4558 10.3195647,89.14413 41.4388627,168.19807 93.3608447,237.1694 30.985554,41.16009 73.223064,81.35429 115.499354,109.91191 95.89273,64.77552 209.13298,92.41427 324.20798,79.12998 z"
       id="path303" />
    <path
       style="fill:#ffffff;stroke-width:1.31776"
       d="m 424.97164,810.41383 c -2.17414,-1.26603 -2.30635,-9.55912 -2.30635,-144.69051 0,-136.36549 -0.11955,-143.69473 -2.45351,-150.47711 -8.41466,-24.45186 -25.69031,-44.76742 -47.42432,-55.76928 -14.1238,-7.14959 -24.00429,-8.66445 -56.51212,-8.66445 -17.83476,0 -30.53853,0.54015 -32.07818,1.36397 -3.76023,2.0119 -3.24222,6.27076 3.35979,27.6234 3.28898,10.63755 5.90754,21.73323 5.90803,25.03455 10e-4,8.24356 -4.39704,15.47779 -11.817,19.4365 -10.23756,5.46192 -13.1653,4.47111 -49.42196,-16.72511 -11.59771,-6.78021 -27.61042,-15.99795 -35.58381,-20.48389 -7.97342,-4.48594 -21.31733,-12.18352 -29.65317,-17.10578 -8.33584,-4.92225 -19.30749,-11.30293 -24.3815,-14.17925 -5.07397,-2.87637 -14.85953,-8.52847 -21.74564,-12.56027 -6.88615,-4.03177 -18.15436,-10.5906 -25.040468,-14.57516 -22.014103,-12.73809 -38.63725,-23.35921 -40.040466,-25.58322 -1.831454,-2.90281 1.484545,-6.46886 10.958841,-11.78534 8.909998,-4.99983 32.953666,-19.03132 56.098943,-32.73848 9.42315,-5.58058 23.06361,-13.5699 30.31213,-17.75402 11.34924,-6.55114 29.68201,-17.24497 58.64738,-34.20991 53.84246,-31.53542 55.83403,-32.45698 64.51861,-29.85563 6.93737,2.07798 12.22555,6.72056 15.2218,13.36351 2.9927,6.63506 2.0664,12.35029 -5.9647,36.802 -2.88418,8.78117 -5.24392,17.01558 -5.24392,18.29872 0,5.12835 2.15886,5.49524 32.33793,5.49524 49.07049,0 71.16964,5.18766 104.06667,24.42914 7.24857,4.2397 17.33064,9.85751 22.40461,12.48408 5.07401,2.62653 13.1337,7.20285 17.91041,10.1696 8.83031,5.48436 20.0257,9.58022 26.14959,9.56692 5.79454,-0.0149 12.41361,-2.41106 20.57218,-7.45447 4.31934,-2.67008 10.22561,-6.11389 13.12503,-7.65292 2.89942,-1.53898 13.46002,-7.42519 23.46794,-13.08043 20.46594,-11.56482 34.77369,-17.71113 51.08224,-21.94384 9.64069,-2.50211 16.04559,-2.99449 48.30058,-3.71317 32.63661,-0.72716 37.46173,-1.10435 39.43926,-3.08305 2.52318,-2.52476 3.08949,0.20953 -6.62404,-31.98041 -5.54435,-18.37357 -5.76249,-21.91875 -1.77729,-28.88634 4.78986,-8.37439 8.96817,-10.67606 19.23199,-10.59411 7.53439,0.0601 10.00878,0.72824 16.70575,4.51025 7.80015,4.40504 40.33537,23.52358 60.57813,35.5973 5.79883,3.45867 12.61908,7.32024 15.15605,8.58127 2.537,1.261 11.13644,6.27681 19.10983,11.14625 14.12309,8.62509 45.48357,26.96116 83.20599,48.64945 10.24541,5.89054 19.37683,11.61211 20.29203,12.71463 2.77621,3.34435 -0.30484,7.45705 -9.42386,12.57995 -4.62522,2.59829 -11.37475,6.53236 -14.99903,8.74233 -3.62428,2.20997 -16.67168,9.79124 -28.99421,16.84728 -28.7813,16.48047 -37.75738,21.68217 -54.69363,31.69517 -7.61098,4.49972 -27.47862,16.05173 -44.15029,25.67114 -16.67168,9.6194 -35.15389,20.2971 -41.07163,23.72822 -13.26834,7.69302 -19.0278,9.6585 -25.68624,8.76563 -6.04051,-0.81 -13.46402,-6.04446 -16.27239,-11.474 -3.07045,-5.93622 -2.39138,-15.41097 2.03603,-28.40811 7.12266,-20.90941 9.21805,-29.64304 7.76388,-32.35958 -1.24482,-2.32542 -3.4255,-2.47481 -36.12472,-2.47481 -33.99626,0 -35.01528,0.0777 -44.12545,3.36313 -26.71721,9.63517 -48.9514,32.03894 -57.30722,57.7444 l -3.37402,10.37965 v 142.0871 c 0,139.12884 -0.053,142.11549 -2.54922,143.45107 -3.45385,1.84802 -107.94161,1.79237 -111.12129,-0.059 z"
       id="path305" />
  </g>
</svg>
