<?xml version="1.0" encoding="utf-8"?>
<!-- Generator: Adobe Illustrator 15.0.0, SVG Export Plug-In . SVG Version: 6.00 Build 0)  -->
<!DOCTYPE svg PUBLIC "-//W3C//DTD SVG 1.1//EN" "http://www.w3.org/Graphics/SVG/1.1/DTD/svg11.dtd">
<svg version="1.1" id="Vrstva_1" xmlns="http://www.w3.org/2000/svg" xmlns:xlink="http://www.w3.org/1999/xlink" x="0px" y="0px"
	 width="900px" height="1200px" viewBox="0 0 900 1200" enable-background="new 0 0 900 1200" xml:space="preserve">
<path fill-rule="evenodd" clip-rule="evenodd" d="M3,1162.827C3,1183.399,19.588,1200,40.173,1200h817.665
	c20.523,0,37.16-16.601,37.16-37.173V41.479c0-20.542-16.637-37.223-37.16-37.223H40.173C19.588,4.257,3,20.937,3,41.479V1162.827z"
	/>
<path fill-rule="evenodd" clip-rule="evenodd" fill="#FFFFFF" d="M12.075,1162.778V40.606c0-15.476,12.58-28.105,28.147-28.105
	h818.194c15.457,0,28.049,12.629,28.049,28.105v1122.172c0,15.555-12.592,28.158-28.049,28.158H40.222
	C24.655,1190.937,12.075,1178.333,12.075,1162.778"/>
<path fill-rule="evenodd" clip-rule="evenodd" d="M316.359,716.734c-117.384-51.253-199.453-168.355-199.453-304.592
	c0-183.388,148.729-332.125,332.162-332.174c98.915,0,187.76,43.254,248.604,111.908l11.424-15.715
	c-64.201-70.731-156.908-115.129-259.98-115.129c-193.896,0-351.098,157.216-351.098,351.111
	c0,142.508,84.935,265.243,206.956,320.258L316.359,716.734z"/>
<path fill-rule="evenodd" clip-rule="evenodd" d="M748.201,267.606c21.16,43.678,33.027,92.71,33.027,144.536
	c0,183.433-148.73,332.163-332.161,332.163c-15.274,0-30.276-1.021-45.02-3.051l-12.542,17.315
	c18.765,3.085,37.985,4.673,57.609,4.673c193.884,0,351.101-157.203,351.101-351.1c0-58.385-14.217-113.438-39.438-161.844
	L748.201,267.606z"/>
<path fill-rule="evenodd" clip-rule="evenodd" fill="#808285" d="M682.35,412.789c0-38.723-1.77-72.079-5.35-99.463
	c-4.143-27.374-10.119-49.465-18.457-66.729c-8.914-17.247-19.676-29.791-32.783-37.495c-13.697-7.771-29.732-11.332-48.83-11.332
	c-19.049,0-35.145,3.561-48.844,11.332c-13.686,7.704-24.385,20.248-32.721,37.495c-8.965,17.263-14.906,39.355-18.457,66.729
	c-4.207,27.384-5.99,60.74-5.99,99.463c0,38.703,1.783,72.058,5.99,98.872c3.551,27.435,9.492,49.458,18.457,66.723
	c8.336,17.301,19.035,29.21,32.721,36.932c13.699,7.717,29.795,11.271,48.844,11.271c19.098,0,35.133-3.554,48.83-11.271
	c13.107-7.722,23.869-19.631,32.783-36.932c8.338-17.265,14.314-39.289,18.457-66.723C680.58,484.847,682.35,451.492,682.35,412.789
	 M623.398,412.789c0,35.144-0.578,63.149-2.361,84.602c-1.783,22.024-4.203,38.71-7.758,50.625
	c-4.145,12.524-8.916,20.241-14.904,24.434c-5.928,4.145-13.107,6.567-21.445,6.567c-8.928,0-16.049-2.422-22.037-7.772
	c-5.926-4.771-10.697-13.686-14.264-26.229c-3.615-12.481-5.975-29.746-7.771-51.197c-1.77-20.869-2.348-48.253-2.348-81.03
	c0-33.368,1.156-60.747,2.926-82.783c1.795-21.451,4.193-38.703,7.771-51.247c3.566-12.481,8.338-20.83,14.314-26.179
	c5.938-4.771,13.07-7.176,21.408-7.176s15.518,2.405,21.445,6.549c5.35,4.193,10.133,12.537,14.314,25.018
	c3.576,12.542,6.564,29.223,8.348,50.62C622.82,349.68,623.398,377.645,623.398,412.789z M423.281,495.607
	c0-18.464-2.349-33.355-6.542-45.897c-4.157-12.482-10.121-22.602-17.265-30.374c-7.146-7.709-14.893-14.27-23.807-18.458
	c-8.965-4.145-17.313-7.144-25.651-8.914c7.747-2.417,16.096-5.984,23.855-11.339c7.722-4.771,14.264-10.705,20.253-18.458
	c5.926-7.138,10.698-15.476,14.891-25.603c3.566-10.12,5.35-20.873,5.35-33.366c0-20.875-2.976-38.127-8.338-51.833
	c-5.977-13.68-13.698-24.439-22.663-32.143c-8.915-7.772-19.662-13.698-31.565-16.681c-11.904-2.988-23.819-4.771-35.722-4.771
	c-17.892,0-34.567,2.983-49.458,9.543c-15.481,6.506-29.746,14.842-43.444,25.596l24.987,39.289
	c11.313-8.915,22.65-14.898,32.771-18.457c10.12-2.933,20.251-4.777,29.794-4.777c4.145,0,9.543,0.632,14.891,1.21
	c5.35,0.634,10.121,2.983,14.905,6.548c4.721,4.206,8.915,9.555,11.89,17.265c3,7.754,4.771,18.459,4.771,32.206
	c0,22.607-4.771,39.289-14.313,49.415c-9.543,10.127-22.024,15.475-36.917,15.475h-14.903v48.253h17.892
	c7.711,0,14.893,0.626,21.445,2.417c6.517,1.776,11.904,5.355,17.252,10.703c5.35,5.35,9.543,13.109,12.495,23.229
	c2.986,10.127,4.191,23.236,4.191,39.923c0,14.891-1.781,26.806-5.348,36.927c-3.567,10.126-8.338,17.879-13.736,23.812
	c-5.939,6.561-12.494,10.705-20.253,13.122c-7.697,2.981-15.469,4.143-23.807,4.143c-12.494,0-23.252-1.789-33.361-5.355
	c-10.119-3.56-19.048-8.349-25.601-13.698l-25.59,41.704c8.902,7.138,21.397,13.699,36.301,19.675
	c14.891,5.877,32.77,8.865,54.228,8.865c15.458,0,30.361-2.359,44.638-7.709c13.736-5.355,26.217-13.06,36.927-23.813
	c10.748-10.705,19.084-24.391,25.639-40.494C420.304,536.679,423.281,517.644,423.281,495.607z"/>
<path fill-rule="evenodd" clip-rule="evenodd" d="M77.592,1190.937L885.887,78.259V41.46c0-15.469-12.58-28.104-28.049-28.104
	h-30.373l-815.39,1122.27v27.188c0,15.519,12.591,28.122,28.098,28.122H77.592z"/>
<path fill-rule="evenodd" clip-rule="evenodd" d="M676.584,1035.112h94.021v-21.655c0-14.743-1.119-28-3.002-39.756
	c-2.311-11.78-5.682-21.618-10.648-29.561c-4.918-8.006-11.719-13.65-19.676-17.843c-7.992-4.146-18.223-6.063-29.979-6.063
	c-23.475,0-40.555,8.326-51.549,25.013c-10.969,17.067-16.293,43.961-16.293,81.135c0,20.448,2.275,37.124,6.469,50.034
	c4.154,12.889,9.455,22.714,16.293,29.943c6.799,7.182,14.756,12.112,23.486,14.769c8.719,2.644,17.83,3.752,27.287,3.752
	c10.6,0,20.867-1.502,30.311-4.49c9.494-3.036,17.463-6.063,23.143-9.492l-10.992-27.681c-14.412,7.242-27.668,10.613-40.199,10.613
	c-5.299,0-10.217-0.332-14.756-1.501c-4.574-0.762-8.338-3.024-11.768-7.182c-3.42-3.8-6.457-9.493-8.338-17.45
	C678.131,1059.755,676.977,1049.131,676.584,1035.112 M706.576,950.165c5.311,0,9.836,0.774,13.254,2.656
	c3.42,1.918,6.455,4.955,8.719,9.1c2.262,4.206,4.158,10.23,5.313,17.843c1.119,7.956,1.488,17.399,1.881,29.168h-58.766
	c0.393-12.874,1.537-23.13,3.418-31.098c1.549-7.958,3.432-13.65,6.074-17.782c2.656-4.193,5.693-6.85,9.125-7.969
	C698.963,950.939,702.383,950.165,706.576,950.165z M561.373,1121.128h37.174V982.42c0-21.986-4.205-37.937-12.924-47.784
	c-8.73-9.495-21.223-14.401-37.887-14.401c-9.125,0-17.842,1.918-25.785,6.063c-7.969,4.192-14.77,10.993-20.449,20.116
	l-6.076-22.379h-25.785v197.093h37.172V991.151c0-7.625,1.107-14.043,3.025-19.343c1.881-5.35,4.537-9.494,7.943-12.925
	c3.432-3.025,6.801-5.299,10.625-6.801c3.801-1.144,7.563-1.918,11.361-1.918c6.418,0,11.77,2.312,15.926,6.85
	c3.801,4.906,5.68,14.019,5.68,27.287V1121.128z M358.993,1124.88c10.267,0,19.711-1.502,28.062-4.883
	c8.336-3.407,15.518-9.1,21.593-17.055c5.693-7.958,10.269-18.176,13.65-31.48c3.024-12.876,4.574-29.168,4.574-48.881
	c0-19.723-1.55-36.017-4.574-49.273c-3.381-12.874-7.957-23.475-13.65-31.48c-6.075-7.955-13.257-13.267-21.593-16.687
	c-8.351-3.381-17.795-4.906-28.062-4.906c-10.207,0-19.712,1.525-28.05,4.906c-8.349,3.42-15.518,8.731-21.21,16.687
	c-6.087,8.006-10.601,18.606-13.65,31.48c-3.407,13.257-4.906,29.551-4.906,49.273c0,18.557,1.5,34.505,4.906,47.379
	c3.049,13.257,7.563,23.87,13.65,31.825c5.693,8.006,12.862,14.019,21.21,17.448C339.281,1122.997,348.786,1124.88,358.993,1124.88z
	 M358.993,950.939c5.312,0,9.886,1.144,13.648,3.038c3.8,1.881,6.851,5.693,9.494,10.992c2.656,5.302,4.536,12.531,5.693,21.595
	c1.106,9.493,1.501,21.261,1.501,36.017c0,13.257-0.395,24.632-1.501,33.743c-1.157,9.1-3.037,16.294-5.693,21.986
	c-2.643,5.683-5.694,9.838-9.494,12.148c-3.762,2.646-8.336,3.752-13.648,3.752c-5.301,0-9.837-1.106-13.637-3.752
	c-3.764-2.311-6.801-6.466-9.444-12.148c-2.656-5.692-4.193-12.887-5.299-21.986c-1.169-9.111-1.943-20.486-1.943-33.743
	c0-14.756,0.774-26.523,1.943-36.017c1.106-9.063,2.644-16.293,5.299-21.595c2.644-5.299,5.68-9.111,9.444-10.992
	C349.156,952.083,353.692,950.939,358.993,950.939z M168.724,1087.029l92.841-194.855v-36.35H134.207v34.087h87.209l-94.01,194.855
	v36.361h131.121v-34.099H168.724z"/>
</svg>
