<?xml version="1.0" encoding="UTF-8" standalone="no"?>
<!-- Created with Inkscape (http://www.inkscape.org/) -->
<svg
   xmlns:svg="http://www.w3.org/2000/svg"
   xmlns="http://www.w3.org/2000/svg"
   version="1.0"
   width="960.00024"
   height="959.99969"
   id="svg2420">
  <defs
     id="defs2422"><clipPath
   id="id48">
      <path
   d="M 262.22,628.72 L 332.24,628.72 L 332.24,557.8 L 262.22,557.8 L 262.22,628.72 z "
   id="path24" />

    </clipPath>

        
      </defs>
  <g
     transform="translate(-333.9137,638.7423)"
     id="layer1">
    <path
       d="M 908.57144 477.14255 A 432.85715 440 0 1 1  42.857147,477.14255 A 432.85715 440 0 1 1  908.57144 477.14255 z"
       transform="matrix(1.039604,0,0,1.022727,319.3592,-646.7291)"
       style="opacity:1;fill:white;fill-opacity:1;fill-rule:evenodd;stroke:none;stroke-width:0.25;stroke-linejoin:round;stroke-miterlimit:4;stroke-dasharray:none;stroke-opacity:1"
       id="path2441" />
    <path
       d="M 538.00315,-287.32435 L 594.49533,-228.5882 L 832.38848,-228.5882 C 853.12121,-228.5882 869.93452,-211.7787 869.93452,-191.03035 L 869.93452,103.89864 L 928.67032,55.342499 L 987.48922,103.89864 L 987.48922,-191.03035 C 987.48922,-276.70053 918.04774,-346.14372 832.38848,-346.14372 L 594.49533,-346.14372 L 538.00315,-287.32435"
       style="fill:black;fill-rule:nonzero;stroke:none"
       id="path82" />
    <path
       d="M 1153.324,-498.15001 C 965.87076,-685.60639 661.9569,-685.60639 474.50364,-498.15001 C 287.05039,-310.7075 287.05039,-6.7774137 474.50364,180.66509 C 661.9569,368.12147 965.87076,368.12147 1153.324,180.66509 C 1340.7773,-6.7774137 1340.7773,-310.7075 1153.324,-498.15001 z M 562.24035,92.928409 C 430.68376,-38.635012 423.6759,-247.56094 541.17523,-387.40429 L 1042.5694,113.99575 C 902.7308,231.50966 693.81079,224.49183 562.24035,92.928409 z M 1086.6524,69.919373 L 585.25825,-431.48067 C 725.08301,-548.9807 934.01687,-541.97674 1065.5873,-410.41332 C 1197.1439,-278.8499 1204.1518,-69.923972 1086.6524,69.919373"
       style="fill:#ee1c23;fill-rule:nonzero;stroke:none"
       id="path86" />
  </g>
</svg>
