<?xml version="1.0" encoding="UTF-8" standalone="no"?>
<!-- Created with Inkscape (http://www.inkscape.org/) -->
<svg
   xmlns:svg="http://www.w3.org/2000/svg"
   xmlns="http://www.w3.org/2000/svg"
   version="1.0"
   width="960"
   height="960"
   id="svg3640">
  <defs
     id="defs3642" />
  <g
     transform="translate(-315.391,392.9793)"
     id="layer1">
    <path
       d="M 577.14285 438.57144 A 374.28571 412.85715 0 1 1  -171.42856,438.57144 A 374.28571 412.85715 0 1 1  577.14285 438.57144 z"
       transform="matrix(1.229008,0,0,1.114187,546.078,-401.63)"
       style="opacity:1;fill:white;fill-opacity:1;fill-rule:evenodd;stroke:none;stroke-width:0.25;stroke-linejoin:round;stroke-miterlimit:4;stroke-dasharray:none;stroke-opacity:1"
       id="path3651" />
    <path
       d="M 1061.7772,-44.832689 L 696.39247,-44.832689 L 696.39247,128.34041 L 710.23396,128.34041 L 710.23396,152.57689 L 524.80242,152.57689 C 518.92187,138.35354 504.92783,128.34041 488.58988,128.34041 C 466.94002,128.34041 449.39545,145.87378 449.39545,167.52041 C 449.39545,184.67984 460.44922,199.22173 475.80245,204.52605 L 410.6587,204.52605 L 410.6587,213.18194 L 1061.7772,213.18194 L 1061.7772,204.52605 L 977.57714,204.52605 C 992.93037,199.22173 1003.9841,184.67984 1003.9841,167.52041 C 1003.9841,145.87378 986.43957,128.34041 964.80358,128.34041 C 943.15372,128.34041 925.62302,145.87378 925.62302,167.52041 C 925.62302,184.67984 936.66292,199.22173 952.03002,204.52605 L 758.54047,204.52605 C 770.02419,201.13295 778.4012,190.51044 778.4012,177.93517 C 778.4012,171.39825 776.12665,165.40145 772.35422,160.66495 L 796.81953,160.66495 L 796.81953,128.34041 L 1061.7772,128.34041 L 1061.7772,-44.832689 z M 742.75729,204.52605 L 501.36343,204.52605 C 516.71667,199.22173 527.77044,184.67984 527.77044,167.52041 C 527.77044,164.77823 527.47919,162.09144 526.93829,159.5016 L 710.23396,159.5016 L 710.23396,160.66495 L 728.94354,160.66495 C 725.15725,165.40145 722.89656,171.39825 722.89656,177.93517 C 722.89656,190.51044 731.27357,201.13295 742.75729,204.52605"
       style="fill:black;fill-rule:nonzero;stroke:none"
       id="path240" />
    <path
       d="M 571.70814,-44.832689 L 438.36942,-44.832689 L 415.84579,128.34041 L 571.70814,128.34041 L 571.70814,-44.832689"
       style="fill:black;fill-rule:nonzero;stroke:none"
       id="path242" />
    <path
       d="M 315.391,87.013755 C 315.391,-178.06408 530.29464,-392.97932 795.391,-392.97932 C 1060.4874,-392.97932 1275.391,-178.06408 1275.391,87.013755 C 1275.391,352.10544 1060.4874,567.02068 795.391,567.02068 C 530.29464,567.02068 315.391,352.10544 315.391,87.013755 z M 795.391,442.92991 C 991.95952,442.92991 1151.303,283.57852 1151.303,87.013755 C 1151.303,-109.55101 991.95952,-268.88855 795.391,-268.88855 C 598.82248,-268.88855 439.46508,-109.55101 439.46508,87.013755 C 439.46508,283.57852 598.82248,442.92991 795.391,442.92991"
       style="fill:#ee1c23;fill-rule:nonzero;stroke:none"
       id="path244" />
  </g>
</svg>
