<?xml version="1.0" encoding="UTF-8" standalone="no"?>
<!-- Created with Inkscape (http://www.inkscape.org/) -->
<svg
   xmlns:dc="http://purl.org/dc/elements/1.1/"
   xmlns:cc="http://web.resource.org/cc/"
   xmlns:rdf="http://www.w3.org/1999/02/22-rdf-syntax-ns#"
   xmlns:svg="http://www.w3.org/2000/svg"
   xmlns="http://www.w3.org/2000/svg"
   xmlns:sodipodi="http://sodipodi.sourceforge.net/DTD/sodipodi-0.dtd"
   xmlns:inkscape="http://www.inkscape.org/namespaces/inkscape"
   version="1.0"
   width="959.99994"
   height="960"
   id="svg2807"
   sodipodi:version="0.32"
   inkscape:version="0.44"
   sodipodi:docname="Vorschriftszeichen_8a.svg"
   sodipodi:docbase="F:\Diverses\Wikipedia\AT-StVZVO">
  <metadata
     id="metadata17009">
    <rdf:RDF>
      <cc:Work
         rdf:about="">
        <dc:format>image/svg+xml</dc:format>
        <dc:type
           rdf:resource="http://purl.org/dc/dcmitype/StillImage" />
      </cc:Work>
    </rdf:RDF>
  </metadata>
  <sodipodi:namedview
     inkscape:window-height="480"
     inkscape:window-width="640"
     inkscape:pageshadow="2"
     inkscape:pageopacity="0.0"
     guidetolerance="10.0"
     gridtolerance="10.0"
     objecttolerance="10.0"
     borderopacity="1.0"
     bordercolor="#666666"
     pagecolor="#ffffff"
     id="base"
     inkscape:zoom="0.52962941"
     inkscape:cx="355.60968"
     inkscape:cy="355.90924"
     inkscape:current-layer="svg2807" />
  <defs
     id="defs2809" />
  <g
     transform="translate(-828.1991,855.8365)"
     id="layer1">
    <path
       d="M 1308.1991,-855.83646 C 1043.1036,-855.83646 828.19914,-640.92122 828.19914,-375.82954 C 828.19914,-110.7517 1043.1036,104.16354 1308.1991,104.16354 C 1573.2946,104.16354 1788.1991,-110.7517 1788.1991,-375.82954 C 1788.1991,-640.92122 1573.2946,-855.83646 1308.1991,-855.83646 z "
       style="fill:#ee1c23;fill-rule:nonzero;stroke:none"
       id="path2822" />
    <path
       d="M 1308.1991,-731.74569 C 1500.0025,-731.74569 1656.3508,-580.01148 1663.8019,-390.03904 L 952.58254,-390.03904 C 960.03364,-580.01148 1116.382,-731.74569 1308.1991,-731.74569 z "
       style="fill:white;fill-rule:nonzero;stroke:none"
       id="path2820" />
    <path
       d="M 1308.1991,-19.927231 C 1116.382,-19.927231 960.03364,-171.66144 952.58254,-361.63388 L 1663.8019,-361.63388 C 1656.3508,-171.66144 1500.0025,-19.927231 1308.1991,-19.927231"
       style="fill:white;fill-rule:nonzero;stroke:none"
       id="path101" />
    <path
       d="M 1483.6461,-210.78604 C 1469.8103,-224.62161 1451.4042,-232.25263 1431.8347,-232.25263 C 1428.2199,-232.25263 1424.6744,-231.9618 1421.1982,-231.44937 L 1403.526,-271.10025 L 1407.5563,-277.37403 C 1409.2321,-277.13859 1410.4509,-276.95855 1411.0464,-276.87545 C 1412.9992,-275.80905 1415.2567,-275.19968 1417.6388,-275.21352 C 1429.4387,-275.22737 1431.4469,-278.68973 1431.4746,-289.03524 C 1431.4884,-296.68012 1425.2838,-302.87081 1417.6388,-302.87081 C 1415.9907,-302.87081 1414.4257,-302.56612 1412.9576,-302.026 L 1412.8884,-302.12294 C 1387.3081,-293.32856 1364.1516,-293.81329 1364.1516,-293.81329 C 1360.5507,-293.81329 1357.6423,-290.90491 1357.6423,-287.31791 C 1357.6423,-283.71707 1360.5507,-280.80869 1364.1516,-280.80869 C 1371.4503,-281.29342 1383.5134,-280.25471 1393.6374,-279.11906 L 1338.2113,-192.85105 L 1337.5049,-192.98954 C 1322.1596,-185.31696 1303.7534,-192.21397 1303.7534,-192.21397 C 1303.7534,-192.21397 1293.7817,-189.15325 1280.7492,-220.59143 C 1264.9329,-258.74657 1251.6096,-265.07575 1234.7408,-271.21104 C 1228.7577,-273.3854 1222.2069,-274.96424 1216.1407,-275.69825 L 1219.6862,-290.33709 C 1219.9078,-291.2373 1219.7416,-292.19291 1219.2431,-292.99618 C 1218.7445,-293.78559 1217.955,-294.33957 1217.0271,-294.51961 L 1201.377,-297.78807 L 1201.377,-312.55155 L 1247.524,-330.29265 L 1269.2402,-315.68152 C 1272.7026,-313.38252 1277.7854,-315.80616 1279.1842,-317.10801 C 1280.9431,-318.75609 1283.436,-325.27917 1280.7492,-327.19038 L 1272.7995,-332.57781 L 1253.1469,-338.69925 C 1252.2605,-339.17013 1247.4686,-337.67439 1246.5406,-337.31431 L 1196.682,-318.13287 C 1195.3525,-317.62044 1194.4661,-316.34629 1194.4661,-314.9198 L 1194.4661,-294.97664 C 1194.4661,-293.34241 1195.6156,-291.92977 1197.2222,-291.59738 L 1212.1382,-288.49512 L 1209.1467,-276.18298 C 1203.8284,-276.21068 1199.3689,-275.31047 1196.6682,-273.30231 C 1194.3691,-281.43191 1184.3143,-288.38432 1175.963,-288.55051 L 1175.2705,-253.85772 C 1182.3754,-253.71923 1190.8652,-257.20928 1194.8539,-262.92909 C 1195.4633,-261.39181 1196.2942,-259.85452 1197.2637,-258.38648 L 1191.3222,-232.73736 C 1181.3644,-234.2331 1171.1156,-233.76222 1161.2132,-231.08928 C 1152.9172,-228.84568 1144.8845,-225.10634 1137.5165,-219.78816 L 1140.5218,-215.61949 C 1125.7581,-204.96928 1116.0357,-189.20865 1113.1273,-171.24596 C 1110.2189,-153.26941 1114.4707,-135.25132 1125.1211,-120.48784 C 1135.7714,-105.72437 1151.5323,-95.988227 1169.5091,-93.079849 C 1187.472,-90.171472 1199.355,-90.891641 1220.2541,-105.08729 C 1243.1198,-120.61249 1247.6348,-146.88483 1247.6348,-146.88483 L 1252.676,-145.90152 C 1256.734,-167.96364 1251.2772,-187.35283 1239.8236,-203.22426 C 1231.2784,-215.07936 1219.797,-223.56905 1207.1108,-228.52714 L 1210.5178,-238.90035 L 1304.1135,-164.93062 C 1303.8919,-163.86422 1303.4764,-163.62878 1303.4626,-162.49312 C 1303.4626,-162.27153 1302.9917,-159.93098 1302.9917,-159.23851 C 1302.9917,-152.86778 1304.8614,-148.00663 1308.5454,-144.79357 C 1313.8082,-140.19556 1320.8992,-140.69414 1322.2427,-140.83264 L 1366.6168,-139.05991 C 1369.8299,-128.49281 1375.6191,-118.81206 1383.638,-110.7794 C 1396.5181,-97.913295 1413.6224,-90.822394 1431.8347,-90.822394 C 1450.0331,-90.822394 1467.1512,-97.913295 1480.0175,-110.7794 C 1492.8838,-123.64551 1499.9748,-140.76339 1499.9748,-158.96152 L 1505.113,-158.96152 C 1505.113,-178.5446 1497.4957,-196.93662 1483.6461,-210.78604 z M 1147.9314,-205.35707 C 1159.4127,-213.63902 1173.3316,-217.17062 1187.3197,-215.3979 L 1175.5614,-164.57054 L 1129.8715,-183.3365 C 1133.8186,-192.04778 1139.9679,-199.60956 1147.9314,-205.35707 z M 1212.8584,-115.34971 C 1188.0399,-97.442415 1153.2912,-103.07913 1135.3836,-127.88343 C 1126.7138,-139.90473 1123.2514,-154.58511 1125.6058,-169.22394 C 1126.1044,-172.22926 1126.8384,-175.15149 1127.7802,-177.97677 L 1174.2457,-158.89228 L 1173.4978,-155.67921 C 1173.4839,-155.59611 1173.4839,-155.51302 1173.4701,-155.41607 C 1173.4424,-155.26373 1173.4147,-155.11139 1173.4147,-154.94519 C 1173.4008,-154.8067 1173.4008,-154.65435 1173.4008,-154.50201 C 1173.4008,-154.34967 1173.4147,-154.21117 1173.4424,-154.05883 C 1173.4562,-153.90649 1173.4839,-153.75414 1173.5116,-153.61565 C 1173.5532,-153.47715 1173.5809,-153.33866 1173.6363,-153.20017 C 1173.6778,-153.04782 1173.7332,-152.92318 1173.7886,-152.78468 C 1173.8579,-152.64619 1173.9133,-152.52154 1173.9825,-152.38305 C 1174.0656,-152.25841 1174.1349,-152.13376 1174.218,-152.02297 C 1174.3011,-151.89832 1174.398,-151.77368 1174.4949,-151.66288 C 1174.5919,-151.55209 1174.6888,-151.45514 1174.7996,-151.34434 C 1174.8966,-151.2474 1175.0074,-151.15045 1175.132,-151.05351 C 1175.2428,-150.95656 1175.3675,-150.87346 1175.506,-150.79037 C 1175.6168,-150.70727 1175.7414,-150.63802 1175.8799,-150.56878 C 1176.0184,-150.48568 1176.1707,-150.43028 1176.3231,-150.37488 C 1176.3923,-150.33334 1176.4616,-150.29179 1176.5447,-150.26409 C 1176.6139,-150.25024 1176.6832,-150.23639 1176.7524,-150.22254 C 1176.8217,-150.20869 1176.8771,-150.16714 1176.9463,-150.15329 C 1177.0294,-150.13944 1177.1125,-150.13944 1177.1956,-150.1256 C 1177.3618,-150.0979 1177.5142,-150.0702 1177.6804,-150.0702 C 1177.8189,-150.05635 1177.9712,-150.05635 1178.1235,-150.05635 C 1178.2759,-150.05635 1178.4144,-150.0702 1178.5667,-150.08405 C 1178.7191,-150.11175 1178.8576,-150.13944 1179.0099,-150.16714 C 1179.1484,-150.20869 1179.2869,-150.23639 1179.4254,-150.29179 C 1179.5778,-150.33334 1179.7024,-150.38873 1179.8409,-150.44413 C 1179.9794,-150.51338 1180.104,-150.56878 1180.2425,-150.63802 C 1180.3672,-150.72112 1180.4918,-150.79037 1180.6026,-150.87346 C 1180.7273,-150.95656 1180.8519,-151.05351 1180.9627,-151.15045 C 1181.0735,-151.2474 1181.1705,-151.34434 1181.2813,-151.45514 C 1181.3782,-151.55209 1181.4752,-151.66288 1181.5721,-151.78753 C 1181.669,-151.89832 1181.7521,-152.02297 1181.8352,-152.14761 C 1181.9183,-152.27225 1181.9876,-152.3969 1182.0568,-152.53539 C 1182.1261,-152.67389 1182.1953,-152.82623 1182.2507,-152.96473 C 1182.2784,-153.04782 1182.3338,-153.11707 1182.3615,-153.20017 L 1183.8988,-157.89512 L 1235.821,-157.89512 C 1235.7241,-155.76231 1235.5164,-153.6295 1235.1701,-151.48284 C 1232.8018,-136.85785 1224.8798,-124.01945 1212.8584,-115.34971 z M 1225.3923,-192.82335 C 1231.6523,-184.13976 1235.184,-174.08509 1235.7933,-163.65648 L 1185.7962,-163.65648 L 1201.5571,-211.65855 C 1211.0302,-207.76687 1219.2569,-201.32689 1225.3923,-192.82335 z M 1431.8347,-214.45613 C 1446.6538,-214.45613 1460.5865,-208.68093 1471.0706,-198.19692 C 1480.2391,-189.02861 1485.8066,-177.2012 1487.0531,-164.45974 L 1456.8471,-163.83652 C 1455.5591,-170.52579 1450.1162,-175.74702 1443.3021,-176.70263 L 1433.6628,-197.90608 C 1434.4522,-199.52646 1434.563,-201.45153 1433.7736,-203.22426 L 1428.8016,-214.37304 C 1429.8126,-214.42844 1430.8236,-214.45613 1431.8347,-214.45613 z M 1422.2092,-198.07228 C 1423.2202,-195.82867 1425.3807,-194.47143 1427.6936,-194.36063 L 1435.6156,-176.91037 L 1379.4277,-177.27045 C 1382.1284,-185.05382 1386.588,-192.20012 1392.5849,-198.19692 C 1399.205,-204.83079 1407.21,-209.55344 1415.9353,-212.15713 L 1422.2092,-198.07228 z M 1408.6643,-228.47174 C 1387.7652,-221.49164 1371.0071,-205.34322 1363.2375,-184.80453 C 1362.3373,-182.39474 1361.5617,-179.91569 1360.9108,-177.38125 L 1343.391,-177.49204 L 1395.3409,-258.37263 L 1408.6643,-228.47174 z M 1321.8549,-145.41679 C 1321.8133,-145.41679 1319.5281,-145.13981 1316.8275,-145.73533 C 1317.7692,-145.55529 1318.7525,-145.44449 1319.7636,-145.43064 L 1321.9103,-145.41679 L 1321.8549,-145.41679 z M 1322.6581,-145.41679 L 1365.0795,-145.15365 C 1365.1903,-144.66893 1365.3011,-144.1842 1365.4119,-143.71332 L 1322.6581,-145.41679 z M 1431.8347,-103.46691 C 1417.0017,-103.46691 1403.069,-109.24212 1392.5849,-119.72613 C 1387.142,-125.16895 1382.9732,-131.55353 1380.231,-138.50594 L 1417.9296,-136.99635 C 1419.2038,-136.9548 1420.2702,-137.93811 1420.3256,-139.21226 C 1420.3672,-140.4864 1419.3839,-141.55281 1418.1235,-141.59435 L 1378.6106,-143.18704 C 1378.4305,-143.81026 1378.2505,-144.43349 1378.0843,-145.07056 L 1440.9339,-144.66893 C 1449.3406,-144.61353 1456.2792,-151.02581 1457.0548,-159.23851 L 1487.3024,-159.86174 C 1487.3024,-159.55705 1487.3162,-159.26621 1487.3162,-158.96152 C 1487.3162,-128.36816 1462.4285,-103.46691 1431.8347,-103.46691"
       style="fill:black;fill-rule:nonzero;stroke:none"
       id="path103" />
    <path
       d="M 1480.5438,-552.70043 C 1466.3341,-566.90993 1447.4432,-574.73485 1427.3335,-574.73485 C 1417.7081,-574.73485 1408.5119,-572.89288 1400.0359,-569.58287 L 1382.6131,-608.34739 L 1389.6487,-619.49617 C 1401.9887,-617.00327 1414.1626,-614.57963 1414.8412,-614.57963 C 1421.7244,-614.57963 1427.3197,-620.17479 1427.3197,-627.05795 C 1427.3197,-633.95496 1421.7244,-639.53627 1414.8412,-639.53627 C 1414.4811,-639.53627 1363.3622,-639.48088 1363.3622,-639.48088 C 1359.3458,-639.48088 1356.0911,-636.22626 1356.0911,-632.20993 C 1356.0911,-628.17975 1359.3458,-624.92514 1363.3622,-624.92514 L 1363.3622,-624.85589 C 1363.3622,-624.85589 1371.0071,-623.29091 1380.3972,-621.37969 L 1374.7465,-612.41912 L 1242.2057,-612.41912 C 1245.6404,-622.70923 1247.9118,-629.5093 1247.9118,-629.5093 C 1247.9395,-629.63394 1247.9533,-629.75859 1247.9949,-629.86938 C 1248.0226,-629.99403 1248.0503,-630.13252 1248.078,-630.25716 C 1248.0918,-630.38181 1248.078,-630.50645 1248.0918,-630.6311 C 1248.0918,-630.76959 1248.1057,-630.89424 1248.0918,-631.01888 C 1248.0918,-631.14353 1248.0503,-631.26817 1248.0364,-631.39282 C 1248.0087,-631.50361 1247.9949,-631.62826 1247.9672,-631.7529 C 1247.9395,-631.8637 1247.8841,-631.97449 1247.8425,-632.09914 C 1247.801,-632.20993 1247.7594,-632.33458 1247.704,-632.44537 C 1247.6486,-632.54232 1247.5794,-632.65311 1247.524,-632.75006 C 1247.4547,-632.86086 1247.3993,-632.97165 1247.3162,-633.0686 C 1247.247,-633.16554 1247.15,-633.24864 1247.0669,-633.34558 C 1246.9838,-633.42868 1246.9146,-633.53948 1246.8176,-633.62257 C 1246.7207,-633.70567 1246.6099,-633.76107 1246.5129,-633.84416 C 1246.4022,-633.91341 1246.3052,-633.99651 1246.1944,-634.06575 C 1246.0836,-634.135 1245.959,-634.17655 1245.8482,-634.23195 C 1245.7374,-634.2735 1245.6266,-634.34274 1245.5158,-634.38429 L 1223.8965,-641.90452 L 1230.3781,-658.89776 L 1282.4804,-659.46558 L 1297.9089,-645.51922 C 1299.4877,-644.09273 1301.9253,-644.21738 1303.3656,-645.79621 C 1304.7921,-647.37504 1304.6675,-649.81254 1303.0886,-651.25288 L 1286.5383,-666.21025 L 1285.4165,-667.22126 L 1283.9069,-667.20741 L 1227.6636,-666.58418 L 1225.0322,-666.55649 L 1213.8556,-637.22342 L 1239.3804,-628.34595 L 1219.797,-569.59672 C 1211.1826,-572.96213 1201.931,-574.73485 1192.4025,-574.73485 C 1150.909,-574.73485 1117.1575,-540.98383 1117.1575,-499.49097 C 1117.1575,-479.38162 1124.9826,-460.49102 1139.1923,-446.28152 C 1153.4158,-432.05817 1172.3067,-424.23325 1192.4025,-424.23325 C 1212.5121,-424.23325 1231.403,-432.05817 1245.6127,-446.28152 C 1259.8224,-460.49102 1267.6613,-479.38162 1267.6613,-499.49097 C 1267.6613,-519.58648 1259.8224,-538.47708 1245.6127,-552.70043 C 1240.0175,-558.28175 1233.7021,-562.87975 1226.8742,-566.39751 C 1228.6885,-571.86803 1230.5305,-577.39394 1232.3309,-582.79521 L 1289.5853,-521.67774 C 1285.6381,-516.81659 1283.256,-510.62591 1283.256,-503.89509 C 1283.256,-496.34716 1286.2059,-489.24241 1291.5381,-483.91038 C 1296.884,-478.57836 1303.975,-475.62843 1311.523,-475.62843 C 1312.6587,-475.62843 1313.7667,-475.71153 1314.8747,-475.85002 L 1316.2735,-469.56239 L 1307.1189,-469.56239 L 1307.1189,-460.74031 L 1332.4775,-460.74031 L 1332.4775,-469.56239 L 1320.8023,-469.56239 L 1319.1957,-476.70868 C 1323.8077,-477.99668 1328.0318,-480.43418 1331.508,-483.91038 C 1335.6768,-488.06521 1338.3498,-493.30029 1339.3469,-498.97855 L 1352.1163,-498.49382 C 1352.3656,-478.7584 1360.1491,-460.25558 1374.1233,-446.28152 C 1388.333,-432.05817 1407.2377,-424.23325 1427.3335,-424.23325 C 1447.4432,-424.23325 1466.3341,-432.05817 1480.5438,-446.28152 C 1494.7535,-460.49102 1502.5924,-479.38162 1502.5924,-499.49097 C 1502.5924,-519.58648 1494.7535,-538.47708 1480.5438,-552.70043 z M 1236.2504,-543.33823 C 1247.9672,-531.62162 1254.4211,-516.05488 1254.4211,-499.49097 C 1254.4211,-465.29677 1226.5972,-437.47329 1192.4025,-437.47329 C 1175.8384,-437.47329 1160.2714,-443.92712 1148.5546,-455.62987 C 1136.8378,-467.34648 1130.3978,-482.92707 1130.3978,-499.49097 C 1130.3978,-516.05488 1136.8378,-531.62162 1148.5546,-543.33823 C 1160.2714,-555.05483 1175.8384,-561.49481 1192.4025,-561.49481 C 1200.4907,-561.49481 1208.3296,-559.95753 1215.6006,-557.02145 L 1201.9726,-516.15182 C 1200.9477,-513.34039 1196.8759,-505.28003 1191.0452,-503.10567 C 1189.0509,-502.3578 1188.0399,-500.12805 1188.7877,-498.13373 C 1189.5356,-496.13942 1191.7654,-495.12841 1193.7598,-495.87628 C 1204.1331,-499.75411 1209.0636,-513.04955 1209.2713,-513.60353 C 1209.2852,-513.64508 1215.3236,-531.76012 1222.6224,-553.65604 C 1227.5528,-550.88616 1232.1509,-547.4515 1236.2504,-543.33823 z M 1393.0003,-566.41136 C 1370.6194,-554.88864 1354.7339,-532.46644 1352.4071,-506.20794 L 1339.6516,-506.69267 C 1339.0284,-513.18805 1336.1892,-519.21254 1331.508,-523.8798 C 1331.0649,-524.32298 1330.594,-524.72461 1330.1369,-525.14009 L 1377.6688,-600.50862 L 1393.0003,-566.41136 z M 1398.4155,-554.37621 L 1421.2674,-503.57655 L 1365.6335,-505.69551 C 1367.0323,-519.91886 1373.2508,-533.10351 1383.4857,-543.33823 C 1387.9591,-547.81159 1392.9865,-551.49553 1398.4155,-554.37621 z M 1306.0248,-515.4178 L 1299.7786,-522.07937 C 1301.122,-522.95189 1302.5623,-523.65821 1304.0581,-524.19833 L 1306.0248,-515.4178 z M 1308.3376,-525.29244 C 1309.3902,-525.44478 1310.4428,-525.54173 1311.523,-525.54173 C 1314.1545,-525.54173 1316.7028,-525.057 1319.0988,-524.17063 L 1311.343,-511.87235 L 1308.3376,-525.29244 z M 1326.5499,-519.46183 C 1326.6468,-519.36489 1326.7438,-519.29564 1326.8407,-519.21254 C 1330.1923,-515.84714 1332.2836,-511.56767 1332.9346,-506.94196 L 1319.0018,-507.48209 L 1326.5499,-519.46183 z M 1239.2696,-603.59704 L 1369.179,-603.59704 L 1322.6858,-529.86275 C 1319.2096,-531.35848 1315.4286,-532.16175 1311.523,-532.16175 C 1309.9442,-532.16175 1308.4069,-531.99556 1306.8834,-531.74627 L 1303.7396,-545.80342 L 1313.7251,-545.80342 L 1313.7251,-554.63935 L 1288.3665,-554.63935 L 1288.3665,-545.80342 L 1299.2246,-545.80342 L 1302.6039,-530.69371 C 1299.9448,-529.80735 1297.4657,-528.5332 1295.222,-526.95437 L 1235.1147,-591.11871 C 1236.5689,-595.49513 1237.9677,-599.67765 1239.2696,-603.59704 z M 1311.523,-482.24845 C 1305.7478,-482.24845 1300.3049,-484.50591 1296.2192,-488.59148 C 1292.1336,-492.67706 1289.8761,-498.11988 1289.8761,-503.89509 C 1289.8761,-508.60389 1291.3996,-513.07725 1294.1556,-516.7889 L 1308.7116,-501.2637 L 1309.3348,-500.58508 L 1313.4204,-482.3454 C 1312.7972,-482.29 1312.1601,-482.24845 1311.523,-482.24845 z M 1317.7554,-483.17636 L 1314.0021,-499.93416 L 1332.6576,-499.22784 C 1330.9541,-491.56911 1325.2065,-485.41997 1317.7554,-483.17636 z M 1427.3335,-437.47329 C 1410.7694,-437.47329 1395.2024,-443.92712 1383.4857,-455.62987 C 1372.129,-466.98639 1365.7304,-481.98531 1365.3565,-497.98139 L 1427.195,-495.62699 L 1431.0175,-496.18096 L 1430.8513,-501.06981 L 1405.465,-557.53388 C 1412.3621,-560.12372 1419.7439,-561.49481 1427.3335,-561.49481 C 1443.8977,-561.49481 1459.4785,-555.05483 1471.1814,-543.33823 C 1482.8982,-531.62162 1489.3521,-516.05488 1489.3521,-499.49097 C 1489.3521,-465.29677 1461.5282,-437.47329 1427.3335,-437.47329"
       style="fill:black;fill-rule:nonzero;stroke:none"
       id="path105" />
  </g>
</svg>
