<?xml version="1.0" encoding="UTF-8" standalone="no"?>
<!-- Created with Inkscape (http://www.inkscape.org/) -->
<svg
   xmlns:svg="http://www.w3.org/2000/svg"
   xmlns="http://www.w3.org/2000/svg"
   version="1.0"
   width="690"
   height="690"
   id="svg3588">
  <defs
     id="defs3590" />
  <g
     transform="translate(794.658,597.2265)"
     id="layer1">
    <path
       d="M -794.658,-252.22653 C -794.658,-442.75857 -640.19539,-597.22653 -449.658,-597.22653 C -259.12061,-597.22653 -104.658,-442.75857 -104.658,-252.22653 C -104.658,-61.694498 -259.12061,92.773468 -449.658,92.773468 C -640.19539,92.773468 -794.658,-61.694498 -794.658,-252.22653 z "
       style="fill:#ee1c23;fill-rule:nonzero;stroke:none"
       id="path3600" />
    <path
       d="M -449.658,3.5927031 C -308.37504,3.5927031 -193.83957,-110.94328 -193.83957,-252.22653 C -193.83957,-393.50978 -308.37504,-508.04577 -449.658,-508.04577 C -590.94096,-508.04577 -705.47643,-393.50978 -705.47643,-252.22653 C -705.47643,-110.94328 -590.94096,3.5927031 -449.658,3.5927031"
       style="fill:white;fill-rule:nonzero;stroke:none"
       id="path194" />
    <path
       d="M -268.04971,-351.17154 L -511.37535,-351.17154 C -518.17422,-351.17154 -526.51601,-345.663 -526.51601,-338.85189 L -526.57574,-338.59336 L -570.15615,-338.59336 C -571.19141,-338.59336 -580.42911,-338.4641 -586.80988,-333.67147 C -593.10107,-328.94844 -595.49013,-322.19699 -595.73899,-321.44131 C -595.71908,-321.52085 -604.08079,-297.89575 -608.01278,-286.77923 L -616.33467,-286.77923 C -623.14349,-286.77923 -628.65823,-281.26074 -628.65823,-274.45958 L -628.65823,-208.15817 L -636.17381,-208.15817 C -640.37457,-208.15817 -643.77898,-204.75759 -643.77898,-200.5516 C -643.77898,-196.35556 -640.37457,-192.94504 -636.17381,-192.94504 L -615.78718,-192.94504 C -615.52836,-172.7603 -599.12349,-156.45341 -578.87622,-156.45341 C -558.61899,-156.45341 -542.21412,-172.7603 -541.95531,-192.94504 L -368.72863,-192.94504 C -368.46982,-172.7603 -352.06495,-156.45341 -331.80772,-156.45341 C -311.55049,-156.45341 -295.14562,-172.7603 -294.88681,-192.94504 L -268.04971,-192.94504 L -268.04971,-351.17154 z M -584.44073,-317.56345 C -584.41087,-317.66288 -582.98739,-321.6004 -579.64271,-324.10609 C -576.92515,-326.14445 -571.7389,-326.64161 -570.13624,-326.65155 C -570.15615,-326.65155 -546.14611,-326.65155 -529.56206,-326.65155 L -539.50652,-286.77923 L -595.33086,-286.77923 L -584.44073,-317.56345"
       style="fill:black;fill-rule:nonzero;stroke:none"
       id="path196" />
  </g>
</svg>
