<?xml version="1.0" encoding="UTF-8" standalone="no"?>
<!-- Created with Inkscape (http://www.inkscape.org/) -->
<svg
   xmlns:svg="http://www.w3.org/2000/svg"
   xmlns="http://www.w3.org/2000/svg"
   version="1.0"
   width="960"
   height="960"
   id="svg10924">
  <defs
     id="defs10926" />
  <g
     transform="translate(-253.9624,847.2655)"
     id="layer1">
    <path
       d="M 253.96243,-367.26554 C 253.96243,-632.36104 468.86607,-847.26553 733.96243,-847.26553 C 999.05879,-847.26553 1213.9624,-632.36104 1213.9624,-367.26554 C 1213.9624,-102.17005 999.05879,112.73447 733.96243,112.73447 C 468.86607,112.73447 253.96243,-102.17005 253.96243,-367.26554"
       style="fill:#176fc1;fill-rule:nonzero;stroke:none"
       id="path10416" />
    <path
       d="M 1099.6661,-294.52736 L 1000.099,-294.52736 L 1012.3871,-241.19249 L 886.09396,-241.19249 L 898.38209,-187.85762 L 848.2171,-187.85762 C 850.18653,-189.49187 853.9867,-192.74653 856.06708,-195.25331 C 856.06708,-195.25331 854.56921,-201.361 863.5842,-201.01476 L 873.97225,-209.10293 L 871.65609,-214.87822 C 871.65609,-214.87822 871.08746,-219.49014 864.73535,-222.95255 C 861.18483,-224.89149 860.33881,-228.45084 860.28333,-231.22077 L 872.2386,-239.11505 C 872.2386,-239.11505 877.42569,-242.00962 871.65609,-248.35274 C 865.8865,-254.70972 835.29099,-302.03385 813.93238,-321.09092 C 813.93238,-321.09092 829.7433,-374.1488 830.6864,-416.47323 C 835.16616,-416.69482 838.45317,-417.05491 840.13135,-417.5535 C 853.66771,-421.56989 849.8398,-421.74993 848.56383,-442.30276 C 847.30173,-462.85559 845.56808,-471.5116 838.64734,-499.22468 C 831.71273,-526.92392 842.2256,-565.25965 842.2256,-565.25965 C 842.2256,-565.25965 867.27342,-550.24667 875.35918,-528.30888 C 883.43107,-506.37109 882.62665,-443.79852 882.62665,-443.79852 C 882.62665,-443.81237 883.75006,-440.90395 890.40729,-440.10067 C 889.14519,-428.86864 888.00791,-405.76748 898.7843,-398.44103 C 913.22216,-388.62165 922.91675,-391.97326 925.34386,-399.00886 C 927.70163,-405.85057 926.49501,-415.75305 911.48851,-416.90257 C 904.26264,-417.45655 905.96856,-433.8545 906.96714,-440.58541 C 916.28726,-441.04245 919.9626,-440.87625 919.9626,-440.87625 C 919.9626,-440.87625 919.921,-512.11868 913.7908,-535.23368 C 908.60371,-554.85859 902.2516,-561.21556 902.2516,-561.21556 C 902.2516,-561.21556 871.65609,-631.64086 831.25504,-650.68408 C 820.45092,-655.78074 810.38186,-657.45654 802.71218,-657.84433 C 816.17919,-665.78016 825.90152,-688.24424 825.90152,-714.75241 C 825.90152,-715.97117 825.87378,-717.10684 825.83217,-718.21481 L 842.79424,-718.21481 C 846.30315,-718.21481 849.14634,-721.06783 849.14634,-724.57178 C 849.14634,-728.07574 846.30315,-730.91491 842.79424,-730.91491 L 824.75038,-730.91491 C 824.50073,-739.10003 823.9737,-754.12686 823.16928,-763.82159 C 822.07361,-777.04798 811.63009,-771.90977 807.01164,-769.59688 C 815.06966,-773.62712 790.28535,-764.98496 782.76823,-770.17857 C 766.02808,-781.7153 762.56077,-762.09039 762.56077,-762.09039 L 759.14894,-730.91491 L 730.81412,-730.91491 C 727.3052,-730.91491 724.46201,-728.07574 724.46201,-724.57178 C 724.46201,-721.06783 727.3052,-718.21481 730.81412,-718.21481 L 758.15036,-718.21481 C 758.12262,-717.10684 758.09488,-715.97117 758.09488,-714.75241 C 758.09488,-688.49353 767.63691,-666.22335 780.90976,-658.07978 C 771.15969,-659.07695 754.47501,-659.49244 745.82062,-652.41528 C 733.11641,-642.02807 707.72186,-612.01596 700.80111,-592.39105 C 693.8665,-572.75229 676.55771,-538.12825 662.70235,-521.96575 C 648.847,-505.80325 611.89938,-471.16536 611.89938,-471.16536 C 611.89938,-471.16536 599.55577,-467.35672 607.62766,-460.43191 C 608.5569,-459.62863 609.6387,-458.78381 610.77598,-457.91128 C 604.52096,-453.60405 597.29509,-446.37455 595.74174,-435.37795 C 592.89854,-415.19906 593.42558,-410.55944 597.47539,-407.09704 C 601.51133,-403.63464 603.24499,-409.97776 603.82749,-416.90257 C 604.35452,-423.28724 613.21696,-439.42204 626.33725,-447.35787 C 630.51188,-444.72645 633.61859,-442.88445 633.61859,-442.88445 C 633.61859,-442.88445 639.70718,-443.96472 645.01909,-448.2304 C 650.331,-452.49608 690.74593,-497.16109 702.29899,-512.16022 C 713.83818,-527.17321 731.39662,-555.44027 731.39662,-555.44027 C 731.39662,-555.44027 729.31624,-520.80239 714.30974,-481.55257 C 699.30324,-442.30276 691.56421,-427.28978 691.56421,-427.28978 C 691.56421,-427.28978 689.83056,-423.60578 699.06746,-421.2929 C 700.3573,-420.97435 703.8246,-420.58656 708.78979,-420.17108 C 700.31569,-400.15838 679.41477,-348.98405 677.12635,-325.70285 C 677.12635,-325.70285 675.9752,-293.95953 677.70885,-288.18424 C 679.44251,-282.40895 686.36325,-196.40283 685.79461,-180.24033 C 685.2121,-164.07783 684.6296,-168.12192 693.29786,-169.27144 C 694.71252,-169.46533 697.13964,-169.79772 700.177,-170.21321 L 699.64997,-164.65951 C 699.64997,-164.65951 697.56958,-160.85087 688.0969,-154.2723 C 678.63809,-147.67988 669.6231,-136.94643 669.6231,-136.94643 L 670.164,-134.52275 L 658.0839,-134.52275 L 670.37203,-81.187879 L 544.07887,-81.187879 L 556.36701,-27.85298 L 460.66936,-27.85298 L 460.66936,-7.0647071 L 575.60362,-7.0647071 L 563.31549,-60.413427 L 689.60865,-60.413427 L 677.32052,-113.74833 L 803.61368,-113.74833 L 791.32554,-167.0832 L 917.6187,-167.0832 L 905.33057,-220.41807 L 1031.6237,-220.41807 L 1019.3356,-273.75294 L 1099.6661,-273.75294 L 1099.6661,-294.52736 z M 784.37706,-134.52275 L 693.38108,-134.52275 L 716.37625,-140.40884 C 716.39012,-140.40884 716.37625,-149.64653 723.31087,-143.30341 L 736.01508,-145.60244 L 737.16622,-151.37773 C 737.16622,-151.37773 740.63353,-157.73471 733.11641,-162.34663 L 733.11641,-174.82513 C 741.06347,-175.94695 746.97176,-176.77793 746.97176,-176.77793 C 746.97176,-176.77793 757.35981,-176.77793 752.75523,-187.16514 C 749.31566,-194.89322 737.55456,-221.59528 736.11216,-240.87395 C 733.69891,-273.17125 720.98084,-297.14494 719.27492,-302.61554 C 719.27492,-302.61554 748.13678,-347.64064 751.59021,-363.80314 C 753.32387,-371.89132 757.23499,-377.8051 760.7023,-381.71069 C 762.13083,-355.34102 763.93382,-325.05191 764.87693,-318.77804 C 764.87693,-318.77804 767.76173,-305.49626 774.09997,-296.25856 C 780.45207,-287.03472 826.63659,-221.80303 826.63659,-221.80303 L 829.31335,-220.59811 C 827.16362,-216.13854 824.22334,-211.02803 820.86699,-207.95341 C 814.80614,-202.39972 800.79822,-192.87118 796.22138,-187.85762 L 772.08893,-187.85762 L 784.37706,-134.52275"
       style="fill:white;fill-rule:nonzero;stroke:none"
       id="path10418" />
  </g>
</svg>
