<?xml version="1.0" encoding="utf-8"?>
<!-- Generator: Adobe Illustrator 15.0.0, SVG Export Plug-In . SVG Version: 6.00 Build 0)  -->
<!DOCTYPE svg PUBLIC "-//W3C//DTD SVG 1.1//EN" "http://www.w3.org/Graphics/SVG/1.1/DTD/svg11.dtd">
<svg version="1.1" id="svg3621" xmlns:svg="http://www.w3.org/2000/svg"
	 xmlns="http://www.w3.org/2000/svg" xmlns:xlink="http://www.w3.org/1999/xlink" x="0px" y="0px" width="960px" height="960px"
	 viewBox="0 0 960 960" enable-background="new 0 0 960 960" xml:space="preserve">
<path fill-rule="evenodd" clip-rule="evenodd" fill="#EC1C24" d="M480.94,3.949c263.779,0,477.673,213.907,477.673,477.673
	c0,263.766-213.894,477.659-477.673,477.659c-263.76,0-477.659-213.894-477.659-477.659C3.281,217.856,217.181,3.949,480.94,3.949"
	/>
<path fill-rule="evenodd" clip-rule="evenodd" fill="#FFFFFF" d="M480.94,125.896c-196.385,0-355.712,159.333-355.712,355.726
	c0,196.391,159.327,355.712,355.712,355.712c196.404,0,355.727-159.321,355.727-355.712
	C836.667,285.229,677.345,125.896,480.94,125.896"/>
<path fill-rule="evenodd" clip-rule="evenodd" fill="#231F20" d="M294.563,306.077c-9.344,0-17.541,6.189-19.971,15.277
	l-10.747,40.376h79.925l14.82-55.653H294.563z M630.227,553.867c-20.912-6.294-36.295-25.653-36.295-48.581
	c0-1.486,0.158-3.095,0.265-4.597H335.224c0.106,1.502,0.158,3.11,0.158,4.597c0,22.928-15.29,42.287-36.196,48.581
	c-9.507,2.846-19.563,2.846-29.07,0c-20.96-6.294-36.236-25.653-36.236-48.581c0-1.486,0.053-3.095,0.145-4.597h-30.921
	c-6.189,0-11.259-5.108-11.259-11.299c0-6.202,5.017-11.312,11.259-11.312h10.331l5.11-87.508
	c0.974-16.778,12.801-29.275,31.909-29.275l12.905-48.477c3.668-13.473,17.6-19.464,30.776-19.464h68.045
	c3.865-15.644,18.893-18.173,31.942-18.173h344.104v225.508H695.23c0.104,1.502,0.145,3.11,0.145,4.597
	c0,22.928-15.291,42.287-36.282,48.581C649.69,556.713,639.629,556.713,630.227,553.867z"/>
<polygon fill-rule="evenodd" clip-rule="evenodd" fill="#231F20" points="611.816,682.953 611.816,629.67 668.036,629.67 
	668.036,593.007 748.328,658.155 667.364,719.509 667.521,682.888 "/>
<polygon fill-rule="evenodd" clip-rule="evenodd" fill="#231F20" points="350.079,682.953 294.373,682.888 294.523,719.509 
	213.573,658.155 293.866,593.007 293.866,629.67 350.079,629.67 "/>
<path fill-rule="evenodd" clip-rule="evenodd" fill="#231F20" d="M548.631,728.241h13.879v-46.724c0-2.846,0.276-5.321,0.844-7.23
	c0.5-1.91,1.186-3.411,2.158-4.492c0.924-1.091,1.911-1.908,2.846-2.33c0.975-0.409,2.055-0.658,2.989-0.658
	c2.886,0,4.912,0.817,6.15,2.567c1.225,1.765,1.896,5.176,1.896,10.233v48.634h13.894v-49.306c0-8.06-1.488-13.788-4.333-17.463
	c-2.897-3.659-7.638-5.466-14.196-5.466c-2.844,0-5.583,0.581-8.165,1.807c-2.581,1.237-5.058,3.264-7.071,5.833
	c-2.884-5.004-7.888-7.64-15.421-7.64c-2.845,0-5.585,0.726-8.167,1.91c-2.579,1.238-4.766,3.306-6.557,6.044l-1.765-6.557h-9.799
	v70.837h13.882v-45.75c0-3.147,0.314-5.729,0.829-7.797c0.565-2.001,1.237-3.556,2.172-4.753c0.977-1.237,1.897-2.055,2.886-2.477
	c0.934-0.409,2.015-0.658,2.987-0.658c2.846,0,4.913,0.817,6.151,2.567c1.197,1.765,1.91,5.176,1.91,10.233V728.241z
	 M500.563,657.404c0-13.155-0.566-24.521-2.009-33.872c-1.388-9.349-3.471-16.829-6.293-22.716
	c-3.056-5.887-6.717-10.168-11.36-12.801c-4.648-2.635-10.127-3.873-16.567-3.873c-6.722,0-12.195,1.238-16.89,3.873
	c-4.647,2.633-8.322,6.914-11.153,12.801c-3.049,5.887-5.057,13.367-6.513,22.716c-1.39,9.352-2.009,20.717-2.009,33.872
	c0,13.222,0.619,24.572,2.009,33.713c1.456,9.35,3.464,16.829,6.513,22.716c2.831,5.888,6.506,9.958,11.153,12.603
	c4.695,2.583,10.168,3.82,16.89,3.82c6.439,0,11.918-1.237,16.567-3.82c4.644-2.645,8.305-6.715,11.36-12.603
	c2.822-5.887,4.905-13.366,6.293-22.716C499.996,681.977,500.563,670.626,500.563,657.404z M479.663,657.404
	c0,11.97-0.165,21.531-0.784,28.854c-0.619,7.493-1.441,13.169-2.627,17.252c-1.185,4.239-2.791,6.927-4.655,8.31
	c-2.009,1.448-4.438,2.225-7.264,2.225c-2.851,0-5.332-0.776-7.137-2.646c-2.009-1.596-3.667-4.637-4.86-8.931
	c-1.225-4.226-2.06-10.101-2.625-17.448c-0.621-7.058-0.824-16.409-0.824-27.615c0-11.353,0.203-20.704,0.824-28.196
	c0.565-7.322,1.4-13.209,2.625-17.449c1.192-4.279,2.851-7.125,4.86-8.928c1.805-1.646,4.286-2.423,7.137-2.423
	c2.627,0,5.057,0.776,7.059,2.224c1.864,1.384,3.472,4.282,4.697,8.522c1.144,4.279,2.171,9.955,2.791,17.237
	C479.498,635.925,479.663,645.434,479.663,657.404z M389,609.744v118.497h20.703V586.212h-21.525l-30.824,25.139l12.189,14.408
	L389,609.744z"/>
</svg>
