<?xml version="1.0" encoding="UTF-8" standalone="no"?>
<!-- Created with Inkscape (http://www.inkscape.org/) -->

<svg
   version="1.0"
   width="960"
   height="960"
   id="svg10814"
   sodipodi:docname="Vorschriftszeichen_15_gerade.svg"
   inkscape:version="1.1.2 (b8e25be833, 2022-02-05)"
   xmlns:inkscape="http://www.inkscape.org/namespaces/inkscape"
   xmlns:sodipodi="http://sodipodi.sourceforge.net/DTD/sodipodi-0.dtd"
   xmlns="http://www.w3.org/2000/svg"
   xmlns:svg="http://www.w3.org/2000/svg">
  <sodipodi:namedview
     id="namedview7"
     pagecolor="#ffffff"
     bordercolor="#666666"
     borderopacity="1.0"
     inkscape:pageshadow="2"
     inkscape:pageopacity="0.0"
     inkscape:pagecheckerboard="0"
     showgrid="false"
     inkscape:snap-intersection-paths="false"
     inkscape:snap-smooth-nodes="false"
     inkscape:snap-bbox="false"
     inkscape:snap-bbox-edge-midpoints="false"
     inkscape:bbox-nodes="false"
     showguides="true"
     inkscape:guide-bbox="true"
     inkscape:snap-bbox-midpoints="false"
     inkscape:zoom="0.81145833"
     inkscape:cx="480"
     inkscape:cy="480"
     inkscape:window-width="1920"
     inkscape:window-height="1001"
     inkscape:window-x="-9"
     inkscape:window-y="-9"
     inkscape:window-maximized="1"
     inkscape:current-layer="layer1" />
  <defs
     id="defs10816" />
  <g
     transform="translate(-979.6277,352.9798)"
     id="layer1">
    <path
       d="m 1459.6277,-352.97982 c -265.0955,0 -480,214.90449 -480,479.99989 0,265.0956 214.9045,480.0001 480,480.0001 265.0955,0 480,-214.9045 480,-480.0001 0,-265.0954 -214.9045,-479.99989 -480,-479.99989"
       style="fill:#176fc1;fill-rule:nonzero;stroke:none"
       id="path10490" />
    <path
       id="path5566"
       style="display:inline;fill:#ffffff;fill-opacity:1;stroke-width:18.5545;stroke-linecap:round;stroke-linejoin:round"
       d="M 1394.8595,527.79249 V 64.171802 l -119.8634,34.052029 c -12.1846,3.461529 -24.8681,-3.609888 -28.3296,-15.794361 -2.5442,-8.960635 -1.5579,-18.907121 3.5618,-27.555497 L 1459.6277,-298.84897 1669.027,54.873973 c 5.1199,8.648376 6.106,18.594862 3.5618,27.555497 -3.4615,12.184473 -16.145,19.25589 -28.3296,15.794361 L 1524.3958,64.171802 V 527.79249 Z"
       sodipodi:nodetypes="cccccccccccc"
       inkscape:label="path10492" />
  </g>
</svg>
