<?xml version="1.0" encoding="UTF-8" standalone="no"?>
<!-- Created with Inkscape (http://www.inkscape.org/) -->
<svg
   xmlns:svg="http://www.w3.org/2000/svg"
   xmlns="http://www.w3.org/2000/svg"
   version="1.0"
   width="960"
   height="959.99994"
   id="svg3347">
  <defs
     id="defs3349" />
  <g
     transform="translate(866.4593,1275.426)"
     id="layer1">
    <path
       d="M -866.45934,-795.42564 C -866.45934,-1060.5073 -651.5441,-1275.4256 -386.46626,-1275.4256 C -121.37458,-1275.4256 93.54066,-1060.5073 93.54066,-795.42564 C 93.54066,-530.33014 -121.37458,-315.42564 -386.46626,-315.42564 C -651.5441,-315.42564 -866.45934,-530.33014 -866.45934,-795.42564 z "
       style="fill:black;fill-rule:nonzero;stroke:none"
       id="path3370" />
    <path
       d="M -386.46626,-331.74049 C -130.39055,-331.74049 77.212198,-539.34624 77.212198,-795.42564 C 77.212198,-1051.505 -130.39055,-1259.0969 -386.46626,-1259.0969 C -642.52813,-1259.0969 -850.13088,-1051.505 -850.13088,-795.42564 C -850.13088,-539.34624 -642.52813,-331.74049 -386.46626,-331.74049"
       style="fill:white;fill-rule:nonzero;stroke:none"
       id="path130" />
    <path
       d="M -73.815688,-834.7724 L -73.815688,-877.94165 C -73.815688,-905.39159 -96.140948,-927.71717 -123.57664,-927.71717 L -247.54277,-927.56483 C -274.97846,-927.56483 -297.31757,-905.23925 -297.31757,-877.78931 L -297.31757,-834.6062 C -313.28595,-826.78117 -324.89176,-803.20912 -324.89176,-775.3437 C -324.89176,-746.06561 -312.0672,-721.57949 -294.83853,-715.05632 L -294.83853,-687.30169 C -294.83853,-676.48514 -286.07184,-667.70448 -275.2416,-667.70448 C -264.42521,-667.70448 -255.65853,-676.48514 -255.65853,-687.30169 L -255.65853,-713.29742 L -210.0247,-713.29742 C -207.08862,-702.49471 -197.29709,-694.55888 -185.63588,-694.55888 C -173.97467,-694.55888 -164.18313,-702.49471 -161.24705,-713.29742 L -115.46088,-713.29742 L -115.46088,-687.45403 C -115.46088,-676.63748 -106.6942,-667.87067 -95.877809,-667.87067 C -85.061415,-667.87067 -76.280884,-676.63748 -76.280884,-687.45403 L -76.280884,-715.22251 C -59.05221,-721.74568 -46.227651,-746.21795 -46.227651,-775.49604 C -46.227651,-803.36147 -57.833462,-826.93352 -73.815688,-834.7724 z M -101.51452,-837.54232 L -269.60489,-837.54232 L -269.60489,-877.78931 C -269.60489,-883.67539 -267.30589,-889.22909 -263.13721,-893.38398 C -258.96854,-897.55271 -253.42877,-899.85175 -247.54277,-899.85175 L -123.57664,-900.00409 C -117.69064,-900.00409 -112.15087,-897.71891 -107.9822,-893.55017 C -103.81352,-889.38144 -101.51452,-883.84159 -101.51452,-877.94165 L -101.51452,-837.54232"
       style="fill:#999;fill-rule:nonzero;stroke:none"
       id="path124" />
    <path
       d="M -473.66219,-834.6062 L -473.66219,-877.78931 C -473.66219,-905.23925 -495.98745,-927.56483 -523.42314,-927.56483 L -647.38927,-927.39863 C -674.82496,-927.39863 -697.16407,-905.07305 -697.16407,-877.62311 L -697.16407,-834.45386 C -713.13245,-826.62883 -724.73826,-803.04293 -724.73826,-775.1775 C -724.73826,-745.89941 -711.9137,-721.42714 -694.68503,-714.90397 L -694.68503,-687.14934 C -694.68503,-676.31894 -685.91835,-667.55213 -675.0881,-667.55213 C -664.27171,-667.55213 -655.50503,-676.31894 -655.50503,-687.14934 L -655.50503,-713.14507 L -609.85735,-713.14507 C -606.93513,-702.34237 -597.14359,-694.39269 -585.48238,-694.39269 C -573.82117,-694.39269 -564.02963,-702.34237 -561.09356,-713.14507 L -515.30739,-713.14507 L -515.30739,-687.30169 C -515.30739,-676.48514 -506.54071,-667.70448 -495.72431,-667.70448 C -484.89407,-667.70448 -476.12739,-676.48514 -476.12739,-687.30169 L -476.12739,-715.05632 C -458.89871,-721.57949 -446.07415,-746.06561 -446.07415,-775.3437 C -446.07415,-803.20912 -457.67996,-826.78117 -473.66219,-834.6062 z M -501.36102,-837.37613 L -669.45139,-837.37613 L -669.45139,-877.62311 C -669.45139,-883.52305 -667.15239,-889.0629 -662.98371,-893.23163 C -658.81504,-897.40036 -653.27527,-899.6994 -647.38927,-899.6994 L -523.42314,-899.85175 C -517.53714,-899.85175 -511.99738,-897.55271 -507.8287,-893.38398 C -503.66003,-889.22909 -501.36102,-883.67539 -501.36102,-877.78931 L -501.36102,-837.37613"
       style="fill:#999;fill-rule:nonzero;stroke:none"
       id="path126" />
    <path
       d="M -726.53869,-645.91903 L -44.219485,-645.91903 L -44.219485,-667.85682 L -726.53869,-667.85682 L -726.53869,-645.91903 z "
       style="fill:#999;fill-rule:nonzero;stroke:none"
       id="path128" />
    <path
       d="M -661.18329,-410.94644 L -1.9926147,-1070.1466 L -111.73539,-1179.891 L -770.92607,-520.6908 L -661.18329,-410.94644"
       style="fill:black;fill-rule:nonzero;stroke:none"
       id="path132" />
  </g>
</svg>
