<?xml version="1.0" encoding="UTF-8" standalone="no"?>
<!-- Created with Inkscape (http://www.inkscape.org/) -->
<svg
   xmlns:svg="http://www.w3.org/2000/svg"
   xmlns="http://www.w3.org/2000/svg"
   version="1.0"
   width="960"
   height="960"
   id="svg3573">
  <defs
     id="defs3575" />
  <g
     transform="translate(-359.6277,267.265)"
     id="layer1">
    <path
       d="M 359.62771,212.72805 C 359.62771,-52.349786 574.53221,-267.26503 839.62771,-267.26503 C 1104.7232,-267.26503 1319.6277,-52.349786 1319.6277,212.72805 C 1319.6277,477.81973 1104.7232,692.73497 839.62771,692.73497 C 574.53221,692.73497 359.62771,477.81973 359.62771,212.72805 z "
       style="fill:#ee1c23;fill-rule:nonzero;stroke:none"
       id="path3586" />
    <path
       d="M 839.62771,568.6442 C 1036.1953,568.6442 1195.5351,409.29281 1195.5351,212.72805 C 1195.5351,16.163278 1036.1953,-143.18811 839.62771,-143.18811 C 643.06011,-143.18811 483.70642,16.163278 483.70642,212.72805 C 483.70642,409.29281 643.06011,568.6442 839.62771,568.6442"
       style="fill:white;fill-rule:nonzero;stroke:none"
       id="path188" />
    <path
       d="M 882.25683,414.2509 C 929.59482,414.2509 967.9721,375.87417 967.9721,328.53687 C 967.9721,281.19956 929.59482,242.82283 882.25683,242.82283 C 834.91884,242.82283 796.54155,281.19956 796.54155,328.53687 C 796.54155,375.87417 834.91884,414.2509 882.25683,414.2509"
       style="fill:black;fill-rule:nonzero;stroke:none"
       id="path190" />
    <path
       d="M 681.38199,42.809555 L 681.38199,316.41863 L 580.94458,316.41863 L 580.94458,306.03156 L 567.09496,306.03156 L 567.09496,326.80569 L 781.88866,326.80569 C 782.81658,272.15589 827.38465,228.1286 882.25683,228.1286 C 937.12901,228.1286 981.69707,272.15589 982.625,326.80569 L 1077.9381,326.80569 L 1077.9381,42.809555 L 681.38199,42.809555"
       style="fill:black;fill-rule:nonzero;stroke:none"
       id="path192" />
  </g>
</svg>
