<?xml version="1.0" encoding="UTF-8" standalone="no"?>
<!-- Created with Inkscape (http://www.inkscape.org/) -->
<svg
   xmlns:svg="http://www.w3.org/2000/svg"
   xmlns="http://www.w3.org/2000/svg"
   version="1.0"
   width="960"
   height="960"
   id="svg11008">
  <defs
     id="defs11010" />
  <g
     transform="translate(-305.303,618.6941)"
     id="layer1">
    <path
       d="M 305.303,-138.6941 C 305.303,-403.78957 520.21495,-618.6941 785.303,-618.6941 C 1050.391,-618.6941 1265.303,-403.78957 1265.303,-138.6941 C 1265.303,126.40137 1050.391,341.3059 785.303,341.3059 C 520.21495,341.3059 305.303,126.40137 305.303,-138.6941"
       style="fill:#176fc1;fill-rule:nonzero;stroke:none"
       id="path10370" />
    <path
       d="M 1004.2822,-144.78797 C 1004.2822,-17.814633 970.61009,97.89886 918.51106,150.00115 C 898.24418,170.26313 876.1512,180.52574 852.84083,180.52574 L 718.19403,180.52574 C 694.88366,180.52574 672.79068,170.26313 652.5238,150.00115 C 600.42477,97.89886 566.76653,-17.814633 566.76653,-144.78797 C 566.76653,-273.88023 599.45639,-386.76845 652.06727,-439.38317 C 672.45866,-459.76973 694.70381,-470.10157 718.19403,-470.10157 L 852.84083,-470.10157 C 876.1512,-470.10157 898.24418,-459.82519 918.51106,-439.56311 C 970.61009,-387.46093 1004.2822,-271.76119 1004.2822,-144.78797"
       style="fill:white;fill-rule:nonzero;stroke:none"
       id="path10372" />
    <path
       d="M 911.85688,-432.62455 C 893.4991,-450.97527 873.74408,-460.28215 853.11751,-460.28215 L 718.48454,-460.28215 C 639.0771,-460.28215 576.86538,-321.70295 576.86538,-144.78797 C 576.86538,-20.279913 609.40307,92.70526 659.759,143.04862 C 678.10295,161.41321 697.87181,170.72019 718.48454,170.72019 L 853.11751,170.72019 C 873.74408,170.72019 893.4991,161.41321 911.85688,143.04862 C 962.21282,92.70526 994.7505,-20.279913 994.7505,-144.78797 C 994.7505,-269.28215 962.21282,-382.26733 911.85688,-432.62455 z M 913.35096,20.756567 C 912.54858,19.994753 912.07823,18.9699 912.05056,17.861953 C 912.02289,16.754007 912.42408,15.687553 913.18495,14.884247 C 914.76203,13.22238 917.3905,13.139287 919.06442,14.71806 L 946.74635,40.87998 C 947.56256,41.655553 948.01908,42.680513 948.04675,43.78846 C 948.08826,44.896407 947.67323,45.96286 946.91236,46.76606 C 946.15149,47.569367 945.12777,48.026433 944.00721,48.067927 C 943.46768,48.081793 942.94199,47.984833 942.44396,47.80478 C 942.30562,47.69406 942.18112,47.569367 942.02894,47.472407 C 941.8491,47.361687 941.64159,47.292353 941.46175,47.1955 C 941.32341,47.09854 941.17123,47.043073 941.04672,46.932353 L 913.35096,20.756567 z M 940.38269,57.901207 C 939.78783,58.842967 938.86094,59.493953 937.78189,59.743233 L 900.62363,68.16382 C 899.54458,68.4131 898.43785,68.21918 897.49714,67.637527 C 896.55642,67.0419 895.90622,66.114007 895.65721,65.033793 C 895.14535,62.803927 896.55642,60.574167 898.7837,60.06174 L 935.94196,51.627287 C 936.82734,51.433473 937.71272,51.585793 938.51509,51.9459 C 938.79177,52.139713 939.08229,52.278273 939.35897,52.430593 C 940.11984,53.026113 940.70087,53.815553 940.90838,54.757313 C 941.1574,55.8515 940.96372,56.959447 940.38269,57.901207 z M 946.77402,56.433153 C 946.77402,55.145153 947.27205,53.954113 948.17126,53.03998 C 948.66929,52.555287 949.25032,52.209047 949.87285,51.973527 C 949.05664,54.217153 948.2266,56.433153 947.38272,58.62142 C 947.02303,57.9427 946.77402,57.222593 946.77402,56.433153 z M 953.3867,41.988033 C 952.98551,40.03518 952.03096,38.24862 950.55072,36.86366 L 922.86878,10.687873 C 920.89051,8.83198 918.34505,7.9594467 915.82725,8.0702733 C 915.82725,8.02878 915.82725,7.98718 915.82725,7.9456867 C 915.75808,5.3557133 914.67903,2.9597667 912.7976,1.1732067 L 885.11566,-24.988713 C 883.1789,-26.816873 880.7026,-27.67554 878.24014,-27.634047 C 878.43382,-28.50658 878.55832,-29.40674 878.55832,-30.320873 C 878.55832,-30.597887 878.48915,-30.874793 878.47532,-31.151807 C 878.57216,-31.110313 878.65516,-31.054847 878.76584,-31.013353 C 881.20063,-30.14082 883.8291,-30.279273 886.16705,-31.38722 L 920.58617,-47.729833 C 923.03479,-48.89314 924.76405,-50.97058 925.58026,-53.352767 C 925.62176,-53.3389 925.64943,-53.311167 925.69093,-53.297407 C 928.12572,-52.424873 930.76803,-52.563327 933.10598,-53.671273 L 967.51126,-70.027753 C 969.71087,-71.066473 971.38479,-72.880767 972.29784,-75.124393 C 973.73658,-74.390313 975.31366,-73.96098 976.98758,-73.96098 C 977.09826,-73.96098 977.19509,-74.00258 977.30577,-74.00258 C 972.92037,-31.054847 964.64761,8.3611533 953.3867,41.988033 z M 910.29363,8.1118733 C 910.3213,9.21982 909.92011,10.272407 909.15924,11.075607 C 908.39837,11.89278 907.36081,12.349847 906.25409,12.377473 C 905.14737,12.405207 904.09598,12.003607 903.27977,11.241793 L 875.59784,-14.920127 C 874.78163,-15.681833 874.32511,-16.720553 874.29744,-17.8285 C 874.26977,-18.936447 874.67096,-19.989033 875.43183,-20.79234 C 877.00891,-22.468073 879.63738,-22.537407 881.3113,-20.958527 L 908.99323,5.2033933 C 909.79561,5.9651 910.26597,7.00382 910.29363,8.1118733 z M 880.23224,-43.907327 L 914.63752,-60.249833 C 915.64741,-60.720767 916.76797,-60.776127 917.81936,-60.40226 C 918.87074,-60.042153 919.70079,-59.280447 920.18498,-58.269353 C 921.1672,-56.20578 920.28182,-53.72674 918.20671,-52.74338 L 883.80143,-36.400873 C 882.79154,-35.916073 881.67099,-35.860713 880.6196,-36.234687 C 879.56821,-36.608553 878.73817,-37.3565 878.25398,-38.367487 C 877.27176,-40.43106 878.15714,-42.923967 880.23224,-43.907327 z M 977.87296,-79.59778 C 977.58245,-79.54242 977.29193,-79.514687 976.98758,-79.514687 C 975.67335,-79.514687 974.45595,-80.013247 973.52907,-80.941247 C 972.60219,-81.855273 972.10416,-83.087913 972.10416,-84.38978 C 972.10416,-85.691647 972.60219,-86.924287 973.52907,-87.838313 C 974.45595,-88.766207 975.67335,-89.278633 976.98758,-89.278633 C 977.56861,-89.278633 978.13581,-89.14018 978.67534,-88.94626 C 978.42632,-85.816233 978.16348,-82.686207 977.87296,-79.59778 z M 972.118,-94.569193 C 971.63381,-93.572073 970.78993,-92.824127 969.73854,-92.464127 C 968.68715,-92.10402 967.55276,-92.173247 966.55671,-92.65794 L 932.35894,-109.42989 C 931.36289,-109.91458 930.61585,-110.77325 930.25617,-111.81197 C 929.89648,-112.86455 929.96565,-114.00023 930.44984,-114.99735 C 931.45973,-117.04717 933.94986,-117.90583 936.01113,-116.89485 L 970.22273,-100.1229 C 972.28401,-99.111913 973.12788,-96.619007 972.118,-94.569193 z M 964.74445,-82.700073 C 965.79584,-82.326207 966.62588,-81.564393 967.11007,-80.567273 C 967.58043,-79.556287 967.63577,-78.434367 967.26225,-77.381887 C 966.90256,-76.343167 966.14169,-75.49826 965.1318,-75.027433 L 930.72652,-58.68482 C 929.71664,-58.200127 928.59608,-58.144767 927.54469,-58.518633 C 926.50714,-58.892607 925.66326,-59.654313 925.1929,-60.65154 C 924.19685,-62.72898 925.08223,-65.20802 927.15734,-66.19138 L 961.57645,-82.533887 C 962.5725,-83.00482 963.7069,-83.074047 964.74445,-82.700073 z M 977.90063,-94.72162 C 978.62,-98.862633 976.61406,-103.15597 972.65753,-105.10882 L 938.44592,-121.86679 C 936.01113,-123.0717 933.32732,-123.12717 930.94787,-122.28226 C 930.93403,-122.32386 930.93403,-122.36535 930.9202,-122.39309 C 930.07632,-124.8445 928.33323,-126.82498 926.00911,-127.96066 L 891.81134,-144.7325 C 890.23426,-145.50807 888.54651,-145.77122 886.91409,-145.6605 C 886.88642,-145.88205 886.87259,-146.08983 886.84492,-146.31138 C 886.92792,-146.29751 886.99709,-146.25602 887.09393,-146.24215 C 889.73624,-145.81282 892.39237,-146.4637 894.56432,-148.04258 L 927.019,-171.78082 C 929.34312,-173.47053 930.69886,-176.00493 931.04471,-178.67799 C 931.14155,-178.65026 931.23838,-178.62253 931.33522,-178.59479 C 933.97753,-178.17933 936.6475,-178.81645 938.81944,-180.40919 L 971.26029,-204.13357 C 973.3769,-205.68471 974.6773,-207.91447 975.17532,-210.32429 C 976.0192,-209.95042 976.91841,-209.74263 977.84529,-209.61794 C 979.82356,-188.59426 980.88879,-166.89197 980.88879,-144.78797 C 980.88879,-127.68365 980.26625,-110.92557 979.10419,-94.596927 C 978.71684,-94.666153 978.30182,-94.693887 977.90063,-94.72162 z M 885.7382,-139.70509 C 886.85875,-140.24525 888.17299,-140.34221 889.36272,-139.76055 L 923.57432,-122.98861 C 924.57037,-122.50391 925.31741,-121.65911 925.6771,-120.60653 C 926.03678,-119.55394 925.96761,-118.43213 925.46959,-117.4349 C 924.47353,-115.37133 921.96957,-114.52653 919.92213,-115.52365 L 885.71053,-132.29559 C 884.71448,-132.78029 883.96744,-133.63895 883.60775,-134.67767 C 883.38641,-135.31479 883.37257,-135.95191 883.46941,-136.58893 C 883.53858,-136.65815 883.60775,-136.69975 883.67692,-136.76898 C 884.53463,-137.62765 885.19867,-138.63874 885.7382,-139.70509 z M 886.04255,-159.98093 L 918.48339,-183.7053 C 919.45177,-184.41165 920.6415,-184.70253 921.8174,-184.50861 C 923.00712,-184.32855 924.04468,-183.67767 924.76405,-182.68045 C 926.23046,-180.61687 925.77393,-177.73613 923.74033,-176.25421 L 891.29948,-152.51597 C 890.3311,-151.80973 889.14137,-151.51885 887.96548,-151.71277 C 886.77575,-151.90669 885.7382,-152.55757 885.01883,-153.55469 C 883.55242,-155.6045 884.00894,-158.49901 886.04255,-159.98093 z M 878.00496,-259.72589 C 879.07018,-260.54306 880.46742,-260.8893 881.82316,-260.43223 L 917.88853,-248.16151 C 918.93991,-247.80141 919.78379,-247.05346 920.28182,-246.05634 C 920.76601,-245.05911 920.84901,-243.9373 920.48933,-242.88471 C 920.12964,-241.83223 919.3826,-240.98733 918.38655,-240.48877 C 917.3905,-240.00407 916.26994,-239.93485 915.21855,-240.29485 L 879.13935,-252.56567 C 878.1018,-252.92578 877.24409,-253.65975 876.7599,-254.65698 C 876.63539,-254.89239 876.62156,-255.15554 876.55239,-255.40482 C 877.29943,-256.74818 877.79745,-258.20247 878.00496,-259.72589 z M 875.04448,-269.62839 C 874.8508,-269.83607 874.71246,-270.07159 874.50495,-270.27927 C 874.49111,-270.27927 874.49111,-270.29314 874.47728,-270.30701 C 873.38439,-271.96898 873.61957,-274.21261 875.14131,-275.51447 L 902.78174,-299.16962 C 903.54262,-299.8205 904.511,-300.13911 905.49322,-300.04215 C 906.5031,-299.95906 907.40232,-299.47426 908.05252,-298.67106 C 909.42209,-296.99522 909.21458,-294.48845 907.58216,-293.08962 L 879.94173,-269.44834 C 879.18086,-268.78359 878.21247,-268.47885 877.23026,-268.56194 C 876.38638,-268.63117 875.65317,-269.04674 875.04448,-269.62839 z M 919.67312,-253.41047 C 919.67312,-253.41047 887.46745,-264.36557 883.93977,-265.57047 C 887.20461,-268.36802 911.17901,-288.87938 911.17901,-288.87938 C 913.12961,-290.55511 914.23634,-292.88183 914.44385,-295.29175 C 916.92014,-295.08397 919.32727,-295.85954 921.22253,-297.47991 L 948.86296,-321.12119 C 951.4361,-323.33719 952.50132,-326.68877 952.01713,-329.86039 C 952.52898,-329.95735 953.02701,-330.10967 953.5112,-330.28973 C 963.49939,-300.40226 971.05278,-266.30445 975.65951,-229.6445 C 975.50734,-229.57527 975.34133,-229.54754 975.18916,-229.49218 C 975.02315,-230.26775 974.78797,-231.02946 974.42828,-231.76354 C 973.29389,-234.09026 971.30179,-235.83533 968.85316,-236.66626 L 932.7878,-248.93709 C 930.21466,-249.80962 927.54469,-249.53261 925.28974,-248.39693 C 925.27591,-248.43842 925.26207,-248.46615 925.24824,-248.50775 C 924.11385,-250.83447 922.12175,-252.56567 919.67312,-253.41047 z M 948.32343,-336.14807 C 947.7424,-336.72973 947.42422,-337.49154 947.42422,-338.30861 C 947.42422,-339.11191 947.7424,-339.87362 948.32343,-340.45527 C 948.71079,-340.84311 949.18115,-341.05079 949.693,-341.18935 C 950.38471,-339.31959 951.07641,-337.46381 951.74044,-335.55255 C 951.35309,-335.3725 950.93807,-335.26167 950.48155,-335.26167 C 949.66534,-335.26167 948.90446,-335.56642 948.32343,-336.14807 z M 942.60997,-342.90669 C 942.27795,-341.70178 941.51708,-340.69079 940.43803,-340.06754 C 939.40047,-339.47202 938.18308,-339.30583 937.02102,-339.62434 L 898.03667,-350.20546 C 895.58804,-350.87021 894.13546,-353.43245 894.7995,-355.91149 C 895.11768,-357.13026 895.87855,-358.14125 896.95761,-358.75063 C 898.009,-359.36002 899.22639,-359.51234 900.38845,-359.2077 L 939.3728,-348.62658 C 941.8076,-347.96183 943.26017,-345.39959 942.60997,-342.90669 z M 940.45186,-331.41154 C 941.22657,-332.06242 942.19495,-332.38103 943.17717,-332.29783 C 944.17322,-332.20098 945.08627,-331.71618 945.73647,-330.92674 C 947.10604,-329.23714 946.88469,-326.73037 945.25228,-325.33154 L 917.62568,-301.69026 C 916.85097,-301.03927 915.89642,-300.72077 914.90037,-300.80386 C 913.90432,-300.90082 912.99127,-301.38551 912.34107,-302.17495 C 910.9715,-303.86466 911.19285,-306.35757 912.82526,-307.77026 L 940.45186,-331.41154 z M 974.38678,-219.89442 C 974.38678,-221.19629 974.88481,-222.42893 975.81169,-223.34295 C 975.9777,-223.50914 976.18521,-223.57837 976.36505,-223.71693 C 976.68323,-220.97463 977.00142,-218.23245 977.29193,-215.46253 C 976.7524,-215.69794 976.24055,-216.01655 975.81169,-216.44589 C 974.88481,-217.37378 974.38678,-218.59255 974.38678,-219.89442 z M 925.73243,-241.09815 C 926.46564,-243.27255 928.83126,-244.43597 931.0032,-243.68802 L 967.06857,-231.4173 C 968.11996,-231.07106 968.96384,-230.32311 969.46186,-229.32599 C 969.94605,-228.32877 970.02906,-227.19319 969.66937,-226.15447 C 969.30969,-225.10189 968.56265,-224.24322 967.5666,-223.75842 C 966.57054,-223.27373 965.44999,-223.19063 964.3986,-223.55074 C 964.3986,-223.55074 928.33323,-235.82146 928.3194,-235.82146 C 927.28185,-236.18157 926.42413,-236.92941 925.93994,-237.92663 C 925.44192,-238.92375 925.37275,-240.04557 925.73243,-241.09815 z M 966.05868,-216.87522 C 967.24841,-216.6813 968.2998,-216.03031 969.00534,-215.03319 C 970.47175,-212.98349 970.01522,-210.08887 967.98162,-208.60695 L 935.54077,-184.88258 C 934.57239,-184.16237 933.38266,-183.88535 932.20677,-184.06541 C 931.01704,-184.25933 929.97948,-184.91031 929.26011,-185.90743 C 927.79371,-187.97101 928.25023,-190.85175 930.28383,-192.33367 L 962.72468,-216.05805 C 963.69306,-216.77826 964.88279,-217.05527 966.05868,-216.87522 z M 890.30343,-433.01229 C 894.2738,-430.09005 898.18884,-426.69687 902.06237,-422.83287 C 919.18893,-405.68695 934.14353,-380.68845 946.28983,-350.13623 C 944.98943,-351.93666 943.12183,-353.34935 940.82538,-353.9725 L 901.8272,-364.55362 C 899.24023,-365.25997 896.51492,-364.89986 894.1908,-363.5565 C 894.08013,-363.50103 894.01096,-363.41794 893.91412,-363.36258 C 892.64139,-365.74466 890.45561,-367.64215 887.66113,-368.40386 L 848.67678,-378.98498 C 846.67084,-379.52503 844.6234,-379.42818 842.7143,-378.74946 C 842.61747,-379.12343 842.50679,-379.51127 842.36845,-379.87127 C 843.59968,-380.28685 844.70641,-380.97933 845.60562,-381.97645 L 863.81123,-402.28002 C 865.08396,-403.67885 865.70649,-405.45154 865.76183,-407.22434 C 867.56026,-407.45975 869.20651,-408.27693 870.43774,-409.66189 L 888.65718,-429.95149 C 889.45956,-430.85175 889.99908,-431.90434 890.30343,-433.01229 z M 889.44572,-357.33794 C 889.1137,-356.13303 888.35283,-355.12205 887.28761,-354.49879 C 886.23622,-353.88941 885.01883,-353.73709 883.85677,-354.05559 L 844.87242,-364.63671 C 842.79731,-365.19074 841.44157,-367.12962 841.48307,-369.23479 C 842.0226,-370.17655 842.43762,-371.18765 842.7143,-372.24013 C 843.03249,-372.58637 843.3645,-372.93261 843.79336,-373.18199 C 844.84475,-373.79138 846.06214,-373.9437 847.2242,-373.62519 L 886.20855,-363.04407 C 888.64335,-362.39309 890.09592,-359.81709 889.44572,-357.33794 z M 841.48307,-385.67426 C 841.09572,-385.25879 840.58386,-385.00951 840.0305,-384.98178 C 839.4633,-384.96802 838.92377,-385.1757 838.50875,-385.56354 C 837.59571,-386.42221 837.52654,-387.87639 838.35658,-388.80429 L 856.56219,-409.09399 C 856.94954,-409.52333 857.4614,-409.77261 858.01476,-409.78647 C 858.58196,-409.81421 859.12149,-409.60642 859.53651,-409.20482 C 860.44955,-408.34615 860.51872,-406.90573 859.68868,-405.97783 L 841.48307,-385.67426 z M 882.84688,-437.47191 C 883.41408,-437.49954 883.9536,-437.29186 884.38246,-436.89015 C 885.29551,-436.03149 885.36468,-434.5773 884.53463,-433.66327 L 866.31519,-413.3597 C 865.94167,-412.93037 865.41598,-412.69495 864.86262,-412.66722 C 864.30925,-412.63949 863.75589,-412.84727 863.34087,-413.24887 C 862.42782,-414.10754 862.35865,-415.56173 863.1887,-416.47586 L 881.40814,-436.77943 C 881.78166,-437.1949 882.29352,-437.44418 882.84688,-437.47191 z M 735.68027,-444.90914 C 735.68027,-440.53261 732.11108,-436.95949 727.73952,-436.95949 C 725.60908,-436.95949 723.61698,-437.79042 722.1229,-439.28621 C 720.61499,-440.79575 719.79878,-442.7901 719.79878,-444.90914 C 719.79878,-445.42157 719.84028,-445.93399 719.93712,-446.43255 L 735.52809,-446.43255 C 735.62493,-445.93399 735.68027,-445.42157 735.68027,-444.90914 z M 630.49999,-362.47618 C 631.42687,-362.29613 632.32609,-361.92226 633.01779,-361.22978 C 633.93084,-360.31565 634.4427,-359.08301 634.4427,-357.78114 C 634.4427,-355.09431 632.25692,-352.90615 629.55928,-352.90615 C 628.53556,-352.90615 627.60867,-353.29389 626.79247,-353.87554 C 627.99603,-356.79789 629.24109,-359.66477 630.49999,-362.47618 z M 599.85757,-256.13879 C 601.0888,-256.08343 602.2647,-255.61261 603.13624,-254.74007 C 604.06312,-253.81207 604.57498,-252.5933 604.57498,-251.27767 C 604.57498,-248.59085 602.37537,-246.40258 599.69156,-246.40258 C 599.20737,-246.40258 598.76468,-246.54103 598.32199,-246.66573 C 598.82002,-249.85111 599.31804,-252.99501 599.85757,-256.13879 z M 590.8101,-133.66669 C 590.75477,-137.35074 590.71327,-141.06242 590.71327,-144.78797 C 590.71327,-145.00951 590.7271,-145.23117 590.7271,-145.45271 C 591.55714,-146.38061 592.56703,-146.9069 593.63225,-146.9069 C 594.93265,-146.9069 596.16388,-146.15906 597.07693,-144.7741 C 598.00381,-143.38914 598.51567,-141.56098 598.51567,-139.60813 C 598.51567,-135.57794 596.31606,-132.29559 593.63225,-132.29559 C 592.5947,-132.29559 591.62631,-132.78029 590.8101,-133.66669 z M 600.61845,-29.074367 C 601.47616,-29.75298 602.48604,-30.182313 603.57893,-30.182313 C 604.89317,-30.182313 606.11056,-29.669887 607.03744,-28.75586 C 607.96433,-27.827967 608.46235,-26.595327 608.46235,-25.29346 C 608.46235,-22.606633 606.27657,-20.418367 603.57893,-20.418367 C 603.09474,-20.418367 602.63822,-20.556927 602.18169,-20.69538 C 601.64216,-23.4653 601.11647,-26.262953 600.61845,-29.074367 z M 637.80437,88.093313 C 636.73915,86.02974 635.68776,83.938433 634.65021,81.805633 C 634.89922,81.154753 635.24507,80.545367 635.75693,80.03294 C 636.66998,79.10494 637.90121,78.60638 639.20161,78.60638 C 640.50201,78.60638 641.73324,79.10494 642.66012,80.03294 C 643.57317,80.960833 644.08503,82.179607 644.08503,83.481473 C 644.08503,86.182167 641.89925,88.370327 639.20161,88.370327 C 638.71742,88.370327 638.26089,88.231873 637.80437,88.093313 z M 733.46682,156.08115 C 733.46682,154.77929 733.97868,153.56051 734.90556,152.63262 C 735.81861,151.71849 737.04984,151.20606 738.35024,151.20606 C 739.66447,151.20606 740.88187,151.71849 741.80875,152.63262 C 742.73563,153.56051 743.23366,154.77929 743.23366,156.08115 C 743.23366,156.35817 743.20599,156.60745 743.16449,156.85673 L 733.61899,156.85673 C 733.57749,156.59358 733.46682,156.35817 733.46682,156.08115 z M 853.11751,156.85673 L 748.69811,156.85673 C 748.72577,156.60745 748.78111,156.3443 748.78111,156.08115 C 748.78111,153.29737 747.68822,150.67977 745.72379,148.71315 C 743.75935,146.74654 741.14472,145.66622 738.35024,145.66622 C 732.60911,145.66622 727.9332,150.33353 727.9332,156.08115 C 727.9332,156.3443 727.98853,156.60745 728.00237,156.85673 L 718.48454,156.85673 C 701.67617,156.85673 685.21366,148.92083 669.55351,133.25694 C 659.12264,122.82825 649.49414,109.49107 640.82019,93.757847 C 642.9783,93.411607 644.99807,92.442113 646.57516,90.86334 C 648.53959,88.882753 649.63248,86.26526 649.63248,83.481473 C 649.63248,80.697687 648.53959,78.080087 646.57516,76.113473 C 644.61072,74.146753 641.98225,73.06654 639.20161,73.06654 C 636.37946,73.06654 633.80633,74.20222 631.9249,76.044247 C 619.99995,50.090007 610.30228,19.233047 603.31608,-14.90626 C 603.41292,-14.892393 603.49593,-14.878527 603.57893,-14.878527 C 606.37341,-14.878527 608.98804,-15.958847 610.95248,-17.92546 C 612.93075,-19.892073 614.0098,-22.509673 614.0098,-25.29346 C 614.0098,-28.077247 612.93075,-30.69474 610.95248,-32.675327 C 608.98804,-34.64194 606.37341,-35.722153 603.57893,-35.722153 C 602.16786,-35.722153 600.82596,-35.43138 599.59473,-34.918953 C 594.84965,-63.22754 591.91683,-93.39202 591.01762,-124.55362 C 591.86149,-124.23511 592.73304,-123.9997 593.63225,-123.9997 C 596.41289,-123.9997 599.02753,-125.63394 601.0058,-128.57005 C 602.97023,-131.52002 604.04929,-135.43949 604.04929,-139.60813 C 604.04929,-143.77687 602.97023,-147.69634 601.0058,-150.63245 C 599.02753,-153.58242 596.41289,-155.20279 593.63225,-155.20279 C 592.6362,-155.20279 591.69548,-154.93965 590.79627,-154.55191 C 591.21129,-184.46711 593.50774,-213.57901 597.49195,-241.11202 C 598.21132,-240.94583 598.94453,-240.86274 599.69156,-240.86274 C 602.47221,-240.86274 605.08684,-241.94295 607.06511,-243.90967 C 609.02955,-245.87629 610.1086,-248.49389 610.1086,-251.27767 C 610.1086,-254.06135 609.02955,-256.67895 607.06511,-258.65943 C 605.36352,-260.34914 603.16391,-261.34626 600.81212,-261.59565 C 606.56709,-293.57431 614.66,-323.00482 624.70352,-348.61271 C 626.1976,-347.82327 627.83002,-347.36631 629.55928,-347.36631 C 632.33992,-347.36631 634.96839,-348.44653 636.93282,-350.41314 C 638.89726,-352.37986 639.99015,-354.99735 639.99015,-357.78114 C 639.99015,-360.56493 638.89726,-363.18253 636.93282,-365.14914 C 635.77076,-366.31255 634.37352,-367.12962 632.85178,-367.62829 C 643.47633,-390.28621 655.80247,-409.09399 669.55351,-422.83287 C 683.92709,-437.20877 698.99237,-445.0061 714.37583,-446.18327 C 714.33433,-445.75394 714.25132,-445.35234 714.25132,-444.90914 C 714.25132,-441.30818 715.64856,-437.91501 718.20786,-435.36674 C 720.75333,-432.83223 724.14267,-431.41954 727.73952,-431.41954 C 731.33637,-431.41954 734.72572,-432.83223 737.27118,-435.36674 C 739.81665,-437.91501 741.22772,-441.30818 741.22772,-444.90914 C 741.22772,-445.42157 741.13088,-445.92013 741.07555,-446.43255 L 853.11751,-446.43255 C 861.3626,-446.43255 869.51086,-444.49367 877.53461,-440.71266 C 877.4516,-440.62957 877.35476,-440.56034 877.27176,-440.47725 L 859.06615,-420.17367 C 857.79342,-418.77485 857.18472,-417.01602 857.11555,-415.22935 C 855.31712,-414.99394 853.67087,-414.17677 852.43964,-412.79181 L 834.2202,-392.50221 C 833.08581,-391.24183 832.47711,-389.67682 832.3111,-388.08418 C 831.67473,-388.18114 831.03837,-388.27799 830.38817,-388.27799 C 823.34663,-388.27799 817.6055,-382.54434 817.6055,-375.48098 C 817.6055,-372.07394 818.93357,-368.86082 821.35453,-366.43714 C 823.76166,-364.02733 826.97116,-362.69783 830.38817,-362.69783 C 832.78146,-362.69783 835.05024,-363.37645 837.04234,-364.59522 C 838.28741,-362.07458 840.51469,-360.06637 843.41984,-359.29079 L 882.40419,-348.70967 C 885.00499,-348.00333 887.71647,-348.34957 890.05442,-349.7069 C 890.15126,-349.76226 890.23426,-349.83149 890.3311,-349.90071 C 891.60383,-347.50477 893.78961,-345.62125 896.58409,-344.85954 C 896.58409,-344.85954 934.91824,-334.44461 935.3471,-334.33378 C 929.63363,-329.44482 909.22841,-311.9805 909.22841,-311.9805 C 907.26398,-310.30466 906.15725,-307.97794 905.94974,-305.56813 C 903.47345,-305.77591 901.08016,-305.00034 899.17106,-303.37986 L 871.54446,-279.72471 C 869.67687,-278.13207 868.61164,-275.92994 868.33496,-273.63095 C 867.46342,-273.81101 866.57804,-273.93559 865.67882,-273.93559 C 858.78947,-273.93559 853.18668,-268.32653 853.18668,-261.44322 C 853.18668,-258.10551 854.48708,-254.96162 856.83887,-252.60717 C 859.20449,-250.25271 862.34482,-248.95085 865.67882,-248.95085 C 868.15512,-248.95085 870.52074,-249.67106 872.52668,-251.00066 C 873.70257,-249.29709 875.36266,-247.99522 877.35476,-247.31661 L 913.42013,-235.04589 C 915.88259,-234.21495 918.51106,-234.38114 920.83518,-235.51682 C 920.86285,-235.54445 920.89051,-235.55831 920.93202,-235.58605 C 920.94585,-235.54445 920.94585,-235.51682 920.95969,-235.47522 C 922.10791,-233.1485 924.08618,-231.4173 926.53481,-230.58626 C 926.53481,-230.58626 948.84913,-222.98285 958.38079,-219.7421 C 952.87484,-215.72567 927.00516,-196.80706 927.00516,-196.80706 C 924.68104,-195.10359 923.32531,-192.58295 922.97946,-189.90999 C 922.88262,-189.92386 922.78578,-189.96535 922.68894,-189.97922 C 920.04664,-190.40855 917.3905,-189.77143 915.21855,-188.17879 L 882.76388,-164.45442 C 879.90023,-162.36311 878.47532,-158.99767 878.65516,-155.67373 C 877.68678,-155.93687 876.69073,-156.13079 875.65317,-156.13079 C 869.40018,-156.13079 864.30925,-151.03415 864.30925,-144.78797 C 864.30925,-141.7549 865.48515,-138.90189 867.62943,-136.76898 C 869.7737,-134.62231 872.62352,-133.44514 875.65317,-133.44514 C 876.51089,-133.44514 877.34093,-133.55586 878.15714,-133.74978 C 878.22631,-133.4589 878.26781,-133.16813 878.36465,-132.89111 C 879.19469,-130.4397 880.93778,-128.45922 883.2619,-127.32354 L 917.4735,-110.5517 C 919.9083,-109.36066 922.60594,-109.29133 924.98539,-110.13623 C 924.99923,-110.09463 924.99923,-110.0669 925.01306,-110.02541 C 925.8431,-107.57399 927.58619,-105.59351 929.91031,-104.45783 C 929.91031,-104.45783 955.97366,-91.674687 962.60017,-88.433833 C 961.43811,-88.336873 960.27605,-88.05986 959.197,-87.533567 L 924.77788,-71.19106 C 922.32926,-70.027753 920.6,-67.964073 919.78379,-65.581993 C 919.74229,-65.59586 919.71462,-65.609727 919.67312,-65.623487 C 917.23833,-66.49602 914.60986,-66.357567 912.2719,-65.24962 L 877.85279,-48.907007 C 874.65712,-47.383593 872.70652,-44.33666 872.40217,-41.040447 C 870.49307,-42.16226 868.33496,-42.813247 866.06618,-42.813247 C 859.17682,-42.813247 853.57403,-37.204073 853.57403,-30.320873 C 853.57403,-26.98306 854.87443,-23.853033 857.22622,-21.48482 C 859.59184,-19.130367 862.73217,-17.8285 866.06618,-17.8285 C 866.99306,-17.8285 867.90611,-17.953193 868.79149,-18.147007 C 868.79149,-17.994687 868.74998,-17.8285 868.76382,-17.662313 C 868.83299,-15.072447 869.91204,-12.676393 871.79347,-10.889833 L 899.47541,15.272087 C 901.35684,17.058647 903.8193,17.986647 906.40627,17.917313 C 906.44777,17.917313 906.48927,17.903553 906.51694,17.903553 C 906.51694,17.945047 906.51694,17.97278 906.51694,18.014273 C 906.58611,20.60414 907.66516,23.01406 909.54659,24.786753 C 909.54659,24.786753 926.38263,40.699927 932.71863,46.682967 C 929.12177,47.50014 897.56631,54.660353 897.56631,54.660353 C 894.91017,55.255873 892.77973,56.90398 891.46549,59.050753 C 891.42399,59.02302 891.39632,58.995287 891.36865,58.98142 C 889.18287,57.59646 886.58207,57.153367 884.05044,57.721153 L 846.90602,66.155607 C 843.9317,66.83422 841.62141,68.842433 840.37635,71.376833 C 838.19057,69.645633 835.5206,68.648513 832.68462,68.648513 C 825.79526,68.648513 820.19247,74.25758 820.19247,81.140887 C 820.19247,84.478593 821.49287,87.622487 823.84466,89.97694 C 826.21028,92.331393 829.35061,93.63326 832.68462,93.63326 C 833.95735,93.63326 835.18858,93.383873 836.37831,93.023873 C 836.62732,94.644247 837.37436,96.20926 838.63326,97.45566 L 858.99698,117.50995 C 860.38038,118.86718 862.17881,119.62899 864.08791,119.73971 C 864.22625,121.59561 864.98712,123.39603 866.3982,124.79486 L 886.77575,144.84905 C 887.06626,145.13993 887.39828,145.37534 887.71647,145.62462 C 876.7184,152.93726 865.11163,156.85673 853.11751,156.85673 z M 837.63721,-375.48098 C 837.63721,-375.17634 837.59571,-374.88546 837.5542,-374.58071 C 837.00084,-373.72205 836.54432,-372.79415 836.28147,-371.7693 C 836.22613,-371.56151 836.22613,-371.3677 836.18463,-371.15991 C 834.85656,-369.40098 832.76762,-368.23767 830.38817,-368.23767 C 828.4514,-368.23767 826.63914,-368.98551 825.26957,-370.35661 C 823.9,-371.7277 823.13912,-373.55586 823.13912,-375.48098 C 823.13912,-377.41997 823.9,-379.24813 825.26957,-380.60535 C 826.63914,-381.97645 828.4514,-382.73815 830.38817,-382.73815 C 832.32493,-382.73815 834.15103,-381.97645 835.5206,-380.60535 C 836.89017,-379.24813 837.63721,-377.41997 837.63721,-375.48098 z M 872.56818,-262.02498 C 872.05632,-261.2909 871.61363,-260.50146 871.30928,-259.61506 C 870.9911,-258.70103 870.86659,-257.77314 870.83893,-256.83127 C 869.56619,-255.40482 867.72626,-254.49079 865.67882,-254.49079 C 863.82506,-254.49079 862.08197,-255.2109 860.76774,-256.52663 C 859.4535,-257.84237 858.73413,-259.58743 858.73413,-261.44322 C 858.73413,-263.29911 859.4535,-265.04418 860.76774,-266.35991 C 862.08197,-267.66167 863.82506,-268.39575 865.67882,-268.39575 C 867.38041,-268.39575 868.95749,-267.75863 870.23023,-266.65069 C 870.28556,-266.58146 870.31323,-266.49837 870.3824,-266.42914 C 870.64525,-266.09677 870.96343,-265.81975 871.26778,-265.54274 C 872.01482,-264.50402 872.45751,-263.29911 872.56818,-262.02498 z M 881.44964,-144.78797 C 881.44964,-144.31703 881.38047,-143.85997 881.2698,-143.41677 C 880.28758,-142.58583 879.42987,-141.53325 878.83501,-140.30061 C 878.752,-140.14829 878.72433,-139.99597 878.65516,-139.84365 C 877.78362,-139.31735 876.7599,-138.98498 875.65317,-138.98498 C 874.10376,-138.98498 872.65119,-139.5805 871.5583,-140.68845 C 870.45157,-141.78253 869.85671,-143.23682 869.85671,-144.78797 C 869.85671,-146.33911 870.45157,-147.7933 871.5583,-148.88738 C 872.65119,-149.98157 874.10376,-150.59095 875.65317,-150.59095 C 877.20259,-150.59095 878.65516,-149.98157 879.74805,-148.88738 C 880.85478,-147.7933 881.44964,-146.33911 881.44964,-144.78797 z M 873.01087,-30.320873 C 873.01087,-26.4845 869.89821,-23.36834 866.06618,-23.36834 C 864.21242,-23.36834 862.46933,-24.088553 861.15509,-25.404287 C 859.84086,-26.719913 859.12149,-28.46498 859.12149,-30.320873 C 859.12149,-32.17666 859.84086,-33.921727 861.15509,-35.23746 C 862.46933,-36.553193 864.21242,-37.273407 866.06618,-37.273407 C 867.91994,-37.273407 869.66303,-36.553193 870.97727,-35.23746 C 872.2915,-33.921727 873.01087,-32.17666 873.01087,-30.320873 z M 846.83685,79.132673 C 845.89613,78.537153 845.24593,77.62302 844.99692,76.542807 C 844.48506,74.29918 845.89613,72.069313 848.12342,71.570753 L 885.28167,63.136407 C 886.36073,62.88702 887.48129,63.08094 888.40817,63.662593 C 889.34888,64.25822 890.01292,65.186113 890.2481,66.266327 C 890.75996,68.496193 889.34888,70.725953 887.1216,71.23838 L 849.96335,79.672833 C 848.88429,79.922113 847.77757,79.728193 846.83685,79.132673 z M 866.28752,110.10035 C 867.24207,111.04222 867.25591,112.5795 866.31519,113.53513 C 865.85867,113.99219 865.24997,114.25534 864.59977,114.25534 C 863.9634,114.25534 863.34087,114.01982 862.88435,113.56286 L 842.52063,93.508567 C 841.56608,92.566807 841.55224,91.029527 842.49296,90.0739 C 842.94948,89.602967 843.54435,89.353687 844.19455,89.33982 C 844.84475,89.33982 845.45345,89.5891 845.90997,90.046167 L 866.28752,110.10035 z M 839.62931,81.140887 C 839.62931,84.977153 836.51665,88.093313 832.68462,88.093313 C 830.83086,88.093313 829.08777,87.373207 827.77353,86.057473 C 826.4593,84.74174 825.73993,82.996673 825.73993,81.140887 C 825.73993,79.284993 826.4593,77.539927 827.77353,76.23806 C 829.08777,74.922433 830.83086,74.20222 832.68462,74.20222 C 834.53838,74.20222 836.28147,74.922433 837.59571,76.23806 C 838.90994,77.539927 839.62931,79.284993 839.62931,81.140887 z M 894.08013,140.87422 C 893.63744,141.33129 893.02874,141.59443 892.37854,141.59443 C 891.72834,141.6083 891.11964,141.35902 890.66312,140.90195 L 870.28556,120.84766 C 869.33101,119.9059 869.33101,118.36862 870.2579,117.41299 C 870.71442,116.95593 871.32312,116.69278 871.97332,116.69278 C 872.62352,116.69278 873.23222,116.9283 873.68874,117.38526 L 894.05246,137.43955 C 895.00701,138.38131 895.02084,139.91859 894.08013,140.87422 z M 899.71059,136.09609 C 899.3094,135.15433 898.72837,134.25417 897.93983,133.49246 L 877.57611,113.43817 C 876.1927,112.08094 874.40811,111.31913 872.48518,111.19454 C 872.34684,109.35251 871.5998,107.55209 870.17489,106.15326 L 849.79734,86.099073 C 849.49299,85.794327 849.14714,85.53118 848.80129,85.2819 C 849.58983,85.295767 850.3922,85.254167 851.19458,85.074113 L 888.35283,76.639767 C 890.99513,76.044247 893.12558,74.39614 894.45365,72.249367 C 894.48132,72.2771 894.50898,72.304833 894.53665,72.3187 C 896.73627,73.70366 899.33707,74.146753 901.85486,73.578967 L 939.01312,65.144513 C 940.74238,64.742913 942.27795,63.87038 943.53685,62.67934 C 943.7997,63.011713 944.03488,63.344087 944.33923,63.648833 C 944.57441,63.898113 944.86492,64.078167 945.11393,64.299713 C 932.45578,95.36446 916.98931,120.05833 899.71059,136.09609"
       style="fill:black;fill-rule:nonzero;stroke:none"
       id="path10374" />
    <path
       d="M 825.76759,88.952087 C 801.9592,135.43134 771.82864,161.01161 740.9372,161.01161 L 740.9372,166.56531 C 774.01442,166.56531 805.88806,139.89097 830.70635,91.486487 L 825.76759,88.952087"
       style="fill:black;fill-rule:nonzero;stroke:none"
       id="path10376" />
    <path
       d="M 861.50094,-20.819967 C 854.84676,13.748673 845.55028,44.896407 833.87435,71.764673 L 838.96528,73.966807 C 850.79339,46.724567 860.21438,15.188993 866.95156,-19.767487 L 861.50094,-20.819967"
       style="fill:black;fill-rule:nonzero;stroke:none"
       id="path10378" />
    <path
       d="M 872.81719,-136.36738 C 872.42984,-103.28066 869.74604,-70.858687 864.86262,-39.973993 L 870.3409,-39.115327 C 875.26582,-70.2493 877.96346,-102.94829 878.35081,-136.31191 L 872.81719,-136.36738"
       style="fill:black;fill-rule:nonzero;stroke:none"
       id="path10380" />
    <path
       d="M 864.62744,-251.05602 C 869.67687,-219.67277 872.42984,-186.66914 872.81719,-152.97303 L 878.36465,-153.04226 C 877.97729,-187.01538 875.19665,-220.28215 870.09189,-251.94242 L 864.62744,-251.05602"
       style="fill:black;fill-rule:nonzero;stroke:none"
       id="path10382" />
    <path
       d="M 832.08975,-365.37079 C 844.40206,-338.08706 854.18273,-306.14978 861.16893,-270.44546 L 866.60571,-271.51191 C 859.53651,-307.6317 849.61749,-339.97058 837.13918,-367.65591 L 832.08975,-365.37079"
       style="fill:black;fill-rule:nonzero;stroke:none"
       id="path10384" />
    <path
       d="M 740.9372,-450.58743 C 770.61124,-450.58743 799.80108,-426.7661 823.13912,-383.52759 L 828.02254,-386.15906 C 803.31493,-431.93207 773.19821,-456.12727 740.9372,-456.12727 L 740.9372,-450.58743"
       style="fill:black;fill-rule:nonzero;stroke:none"
       id="path10386" />
    <path
       d="M 817.38416,-213.26039 L 858.77563,-256.90061 L 854.72226,-260.66765 L 816.40194,-220.28215 C 812.30706,-248.10605 805.97107,-273.36781 797.80898,-294.54381 L 827.2755,-365.89709 L 822.15691,-368.00215 L 794.84849,-301.89794 C 787.22593,-319.81943 778.20613,-334.38914 768.06577,-344.54093 C 760.63689,-351.96439 752.83449,-356.75629 744.76924,-358.91682 C 744.34038,-359.80322 743.77318,-360.64802 743.02615,-361.39597 C 740.8127,-363.59799 737.53403,-364.87223 734.02018,-364.87223 C 733.72967,-364.87223 733.45298,-364.81677 733.1763,-364.8029 L 730.28499,-434.42498 L 724.75137,-434.20333 L 727.69802,-363.32098 C 724.64069,-361.68674 722.59326,-358.90295 722.45492,-355.73143 C 718.45687,-358.18285 712.84025,-357.37954 709.03589,-353.54317 L 688.34015,-332.69954 C 685.26899,-329.61111 684.23144,-325.35927 685.22749,-321.74445 C 684.24527,-321.67522 683.26305,-321.49517 682.3085,-321.10743 C 679.44486,-319.94402 677.0654,-317.50647 675.77883,-314.39031 L 668.59896,-296.98135 L 636.84982,-352.2413 L 632.03557,-349.47138 L 665.92899,-290.49975 L 664.1444,-286.15095 C 662.55348,-282.30082 662.95467,-278.17357 664.8361,-275.1405 C 664.2689,-274.90509 663.71554,-274.64194 663.18985,-274.2957 C 660.64438,-272.68909 658.77679,-269.97463 658.08508,-266.84461 L 651.65225,-238.18978 C 650.79454,-234.33954 651.83209,-230.55863 654.08704,-227.98253 C 653.54752,-227.70562 653.03566,-227.37314 652.53763,-226.98541 C 650.18584,-225.10189 648.6226,-222.20727 648.26291,-219.02189 C 648.26291,-219.02189 648.15224,-217.98317 647.95856,-216.30733 L 607.89515,-251.56845 L 605.77855,-245.73783 L 647.18385,-209.53485 C 646.21547,-201.01741 644.95657,-189.84077 644.95657,-189.84077 C 644.59689,-186.65527 645.4546,-183.48375 647.33603,-181.1293 C 647.4467,-180.97698 647.58504,-180.86615 647.70955,-180.7277 C 644.77673,-178.96877 642.78463,-175.79725 642.78463,-172.12706 L 642.78463,-142.50274 L 602.97023,-142.51661 L 602.67972,-137.04599 L 642.78463,-137.03213 L 642.78463,-117.4349 C 642.78463,-114.74807 643.83601,-112.22743 645.73128,-110.33005 C 646.32614,-109.72066 647.00401,-109.24983 647.72338,-108.8205 C 647.59888,-108.68194 647.4467,-108.57122 647.33603,-108.41879 C 645.4546,-106.06445 644.59689,-102.87895 644.95657,-99.707433 L 648.12457,-71.800447 L 609.91493,-30.653247 L 612.22521,-25.29346 L 650.06134,-65.443433 C 650.7392,-64.349353 651.55541,-63.352233 652.53763,-62.562793 C 653.03566,-62.174953 653.54752,-61.84258 654.08704,-61.5517 C 651.83209,-58.989567 650.79454,-55.20866 651.65225,-51.35842 L 658.08508,-22.703593 C 658.77679,-19.573567 660.64438,-16.859007 663.18985,-15.238633 C 663.71554,-14.90626 664.2689,-14.629247 664.8361,-14.407593 C 662.95467,-11.374527 662.55348,-7.2335133 664.1444,-3.3972467 L 671.49028,14.441153 L 642.3281,76.556673 L 647.33603,78.924887 L 674.4231,21.559767 L 675.77883,24.84222 C 677.0654,27.95838 679.44486,30.409687 682.3085,31.559233 C 683.26305,31.947073 684.24527,32.12702 685.22749,32.210113 C 684.23144,35.82494 685.26899,40.062913 688.34015,43.165207 L 709.03589,64.008833 C 712.75725,67.748247 718.19403,68.56542 722.1644,66.33566 C 722.49642,67.942167 723.32646,69.479447 724.59919,70.73982 C 726.79881,72.955713 730.09131,74.216087 733.60516,74.216087 C 734.29686,74.216087 734.97473,74.132993 735.63876,74.036033 L 735.6526,146.88499 L 741.20005,146.88499 L 741.18622,71.889367 C 741.68424,71.52926 742.18227,71.169153 742.61112,70.73982 C 742.95698,70.407447 743.24749,70.033473 743.52417,69.645633 C 752.03211,67.665153 760.26337,62.7763 768.06577,54.9651 C 778.30297,44.73022 787.40578,29.980353 795.06984,11.823553 L 824.14901,73.71742 L 829.17077,71.363073 L 797.89198,4.7879267 C 806.28925,-17.052927 812.73592,-43.214847 816.80313,-72.063593 L 855.13728,-32.952233 L 859.09382,-36.830207 L 817.73001,-79.029993 C 820.26164,-99.070313 821.63121,-120.28791 821.74189,-142.1565 L 866.97923,-142.1565 L 866.97923,-147.69634 L 821.74189,-147.69634 C 821.61738,-170.46509 820.10947,-192.51373 817.38416,-213.26039 z M 728.43122,-357.96119 C 729.71779,-359.24919 731.80673,-360.02477 734.02018,-360.02477 C 736.21979,-360.02477 738.30874,-359.24919 739.5953,-357.96119 C 740.13483,-357.4349 740.7712,-356.54861 740.7712,-355.39906 C 740.7712,-352.90615 737.67237,-350.78711 734.02018,-350.78711 C 731.80673,-350.78711 729.71779,-351.54882 728.43122,-352.83682 C 727.8917,-353.37698 727.25533,-354.26338 727.25533,-355.39906 C 727.25533,-356.54861 727.8917,-357.4349 728.43122,-357.96119 z M 692.28285,-328.80781 L 712.96476,-349.63757 C 715.19204,-351.88119 718.42921,-352.26903 720.19997,-350.5101 C 721.11301,-349.60994 721.30669,-348.47426 721.30669,-347.67095 C 721.30669,-346.11981 720.61499,-344.5133 719.38376,-343.28066 L 698.68802,-322.43693 C 696.47457,-320.20717 693.22357,-319.81943 691.46665,-321.56439 C 689.69589,-323.32333 690.05557,-326.56418 692.28285,-328.80781 z M 680.89743,-312.28514 C 681.6168,-314.01634 682.88953,-315.35981 684.38361,-315.96919 C 685.10298,-316.24621 686.18204,-316.49549 687.31643,-315.99693 C 689.62672,-314.97197 690.5121,-311.52343 689.23936,-308.46274 L 677.60493,-280.22338 C 676.88556,-278.47831 675.61283,-277.13485 674.11875,-276.53933 C 673.41321,-276.24845 672.32032,-276.01303 671.18593,-276.51159 C 668.87564,-277.52269 668.0041,-280.97122 669.263,-284.03202 L 680.89743,-312.28514 z M 657.06137,-236.97101 L 663.4942,-265.62583 C 663.86772,-267.3293 664.8361,-268.78359 666.15034,-269.61453 C 666.8282,-270.04386 667.89343,-270.50093 669.15232,-270.21005 C 670.39739,-269.93303 671.1721,-269.07437 671.60095,-268.39575 C 672.43099,-267.08002 672.68001,-265.36269 672.30649,-263.65922 L 665.87365,-235.00429 C 665.50014,-233.30082 664.53175,-231.84663 663.21752,-231.01559 C 662.53965,-230.58626 661.47443,-230.1293 660.22936,-230.42007 C 657.79457,-230.96023 656.36966,-233.91021 657.06137,-236.97101 z M 650.46252,-189.21751 L 653.76886,-218.39863 C 653.96254,-220.12983 654.77875,-221.68098 655.99614,-222.65047 C 656.61868,-223.13517 657.62856,-223.70306 658.90129,-223.5645 C 660.17403,-223.41218 661.03174,-222.63661 661.52976,-222.01335 C 662.49815,-220.79458 662.94084,-219.10498 662.74716,-217.37378 L 659.44082,-188.19266 C 659.08114,-185.06263 656.77085,-182.74978 654.30839,-183.04055 C 653.02182,-183.17911 652.16411,-183.95469 651.66609,-184.57783 C 650.6977,-185.79661 650.26885,-187.48631 650.46252,-189.21751 z M 648.31825,-172.12706 C 648.31825,-173.33197 648.7886,-174.46765 649.64631,-175.32631 C 650.50403,-176.17111 651.63842,-176.64205 652.84198,-176.64205 C 654.04554,-176.64205 655.17993,-176.17111 656.03765,-175.32631 C 656.88152,-174.46765 657.36571,-173.33197 657.36571,-172.12706 L 657.36571,-117.4349 C 657.36571,-114.94199 655.33211,-112.91991 652.84198,-112.91991 C 651.63842,-112.91991 650.50403,-113.39085 649.64631,-114.24951 C 648.7886,-115.09431 648.31825,-116.22999 648.31825,-117.4349 L 648.31825,-172.12706 z M 653.76886,-71.149567 L 650.46252,-100.33069 C 650.26885,-102.06189 650.6977,-103.75149 651.66609,-104.97026 C 652.16411,-105.59351 653.02182,-106.36909 654.30839,-106.50754 C 656.77085,-106.78455 659.08114,-104.4717 659.44082,-101.34167 L 662.74716,-72.160553 C 662.94084,-70.429353 662.49815,-68.739647 661.52976,-67.520873 C 661.03174,-66.897727 660.17403,-66.135913 658.90129,-65.983593 C 657.62856,-65.84514 656.61868,-66.39906 655.99614,-66.897727 C 654.77875,-67.867113 653.96254,-69.418367 653.76886,-71.149567 z M 666.15034,-19.919807 C 664.8361,-20.75074 663.86772,-22.204927 663.4942,-23.9085 L 657.06137,-52.563327 C 656.36966,-55.637993 657.79457,-58.587967 660.22936,-59.12802 C 661.47443,-59.405033 662.53965,-58.961833 663.21752,-58.5325 C 664.53175,-57.701567 665.50014,-56.24738 665.87365,-54.543807 L 672.30649,-25.88898 C 672.68001,-24.185513 672.43099,-22.454313 671.60095,-21.13858 C 671.1721,-20.473727 670.39739,-19.61506 669.15232,-19.324287 C 667.89343,-19.047273 666.8282,-19.50434 666.15034,-19.919807 z M 687.31643,26.448727 C 686.18204,26.947287 685.10298,26.711873 684.38361,26.420993 C 682.88953,25.825473 681.6168,24.482113 680.89743,22.737047 L 669.263,-5.5023133 C 668.0041,-8.57698 668.87564,-12.011647 671.18593,-13.0365 C 672.32032,-13.535167 673.41321,-13.299647 674.11875,-13.008873 C 675.61283,-12.399487 676.88556,-11.05602 677.60493,-9.32482 L 689.23936,18.928407 C 690.5121,21.9891 689.62672,25.43774 687.31643,26.448727 z M 720.19997,60.962007 C 718.42921,62.720833 715.19204,62.3331 712.96476,60.10334 L 692.28285,39.259607 C 690.05557,37.029847 689.69589,33.775127 691.46665,32.030167 C 693.22357,30.271233 696.47457,30.658967 698.68802,32.888833 L 719.38376,53.73246 C 720.61499,54.978967 721.30669,56.571607 721.30669,58.122753 C 721.30669,58.92606 721.11301,60.06174 720.19997,60.962007 z M 728.03004,67.318913 C 727.49051,66.77886 726.84031,65.89246 726.84031,64.75678 C 726.84031,63.607233 727.49051,62.720833 728.03004,62.18078 C 729.3166,60.90654 731.39171,60.130967 733.60516,60.130967 C 735.81861,60.130967 737.89371,60.90654 739.18028,62.18078 C 739.71981,62.720833 740.37001,63.607233 740.37001,64.75678 C 740.37001,67.249687 737.27118,69.368727 733.60516,69.368727 C 731.39171,69.368727 729.3166,68.606913 728.03004,67.318913 z M 743.35816,59.66014 C 743.12298,59.355393 742.88781,59.036887 742.61112,58.759873 C 740.41151,56.55774 737.11901,55.283607 733.60516,55.283607 C 731.03203,55.283607 728.6664,55.989953 726.74347,57.153367 C 726.50829,54.4803 725.31856,51.84894 723.31263,49.82686 L 702.61689,28.983233 C 700.40344,26.753367 697.56746,25.562327 694.78682,25.423873 C 695.63069,22.792407 695.56152,19.717847 694.35796,16.809367 L 682.72353,-11.429993 C 681.45079,-14.532287 679.08517,-16.955967 676.23536,-18.11938 C 676.24919,-18.147007 676.26303,-18.160873 676.27686,-18.17474 C 677.89544,-20.723113 678.4073,-23.977727 677.7156,-27.093887 L 671.28277,-55.76258 C 670.59107,-58.87874 668.72347,-61.607167 666.178,-63.213673 C 665.92899,-63.365993 665.66614,-63.462953 665.41713,-63.601513 C 665.56931,-63.7677 665.73531,-63.906153 665.87365,-64.07234 C 667.74125,-66.426793 668.6128,-69.61218 668.25311,-72.797673 L 664.93294,-101.97879 C 664.53175,-105.57965 662.60882,-108.58509 659.98035,-110.37165 C 661.86178,-112.25517 662.89933,-114.77581 662.89933,-117.4349 L 662.89933,-172.12706 C 662.89933,-174.80002 661.86178,-177.29303 659.99418,-179.19042 C 662.60882,-180.96311 664.53175,-183.96845 664.93294,-187.56941 L 668.25311,-216.75053 C 668.6128,-219.93591 667.74125,-223.10754 665.87365,-225.47575 C 665.73531,-225.64194 665.56931,-225.7805 665.41713,-225.94669 C 665.66614,-226.07138 665.92899,-226.1821 666.178,-226.33442 C 668.72347,-227.94103 670.59107,-230.65559 671.28277,-233.78551 L 677.7156,-262.44045 C 678.4073,-265.57047 677.89544,-268.82509 676.27686,-271.35959 C 676.26303,-271.38722 676.24919,-271.40109 676.23536,-271.41495 C 679.08517,-272.57837 681.45079,-275.01591 682.72353,-278.10434 L 694.35796,-306.35757 C 695.56152,-309.25207 695.63069,-312.32674 694.78682,-314.97197 C 697.56746,-315.09666 700.40344,-316.30157 702.61689,-318.53133 L 723.31263,-339.37506 C 725.56758,-341.64642 726.85414,-344.67949 726.84031,-347.69869 C 726.84031,-347.78178 726.82647,-347.86487 726.82647,-347.96183 C 728.84625,-346.65997 731.36404,-345.93975 734.02018,-345.93975 C 737.49253,-345.93975 740.72969,-347.18626 742.94314,-349.33293 C 749.12696,-347.51863 755.24161,-343.64077 761.20409,-337.67149 C 766.21201,-332.67181 770.92942,-326.38413 775.34248,-319.01613 C 772.16065,-320.81655 768.85432,-321.75831 765.46497,-321.75831 C 731.65456,-321.75831 713.39361,-230.5725 713.39361,-144.78797 C 713.39361,-64.972607 727.83636,3.09822 749.33447,24.592833 C 754.37007,29.634113 759.80685,32.182487 765.46497,32.182487 C 768.82665,32.182487 772.09148,31.268353 775.24565,29.49566 C 765.72782,45.47806 754.88193,56.10078 743.35816,59.66014 z M 765.46497,21.102807 C 762.85034,21.102807 760.05586,19.634753 757.16454,16.754007 C 740.92337,0.50835333 724.48852,-60.194473 724.48852,-144.78797 C 724.48852,-229.38135 740.92337,-290.08429 757.16454,-306.32983 C 760.05586,-309.21058 762.85034,-310.67863 765.46497,-310.67863 C 768.09344,-310.67863 770.88792,-309.21058 773.7654,-306.32983 C 790.02041,-290.08429 806.45526,-229.38135 806.45526,-144.78797 C 806.45526,-42.00994 782.59153,21.102807 765.46497,21.102807"
       style="fill:black;fill-rule:nonzero;stroke:none"
       id="path10388" />
    <path
       d="M 765.18829,11.283393 C 765.57565,11.283393 765.79699,11.366487 765.81082,11.366487 C 765.79699,11.366487 765.11912,11.10334 763.83256,9.81534 C 752.29496,-1.7214067 734.02018,-53.87906 734.02018,-144.78797 C 734.02018,-235.69677 752.29496,-287.85442 763.83256,-299.3773 C 765.11912,-300.66541 765.79699,-300.92855 765.81082,-300.94231 C 765.79699,-300.94231 765.57565,-300.85922 765.18829,-300.85922 C 764.78711,-300.85922 764.56576,-300.94231 764.56576,-300.94231 C 764.57959,-300.92855 765.25746,-300.66541 766.54403,-299.3773 C 778.06779,-287.85442 796.35641,-235.69677 796.35641,-144.78797 C 796.35641,-43.8381 773.58556,7.8209933 764.52426,11.380353 C 764.52426,11.380353 764.75944,11.283393 765.18829,11.283393"
       style="fill:#176fc1;fill-rule:nonzero;stroke:none"
       id="path10390" />
    <path
       d="M 408.96153,159.22505 C 431.98139,188.28147 458.27991,214.60958 487.31758,237.65534 L 1161.6445,-436.7101 C 1138.6108,-465.7389 1112.2846,-492.03938 1083.2331,-515.04354 L 408.96153,159.22505"
       style="fill:#ee1c23;fill-rule:nonzero;stroke:none"
       id="path10392" />
  </g>
</svg>
