<?xml version="1.0" encoding="utf-8"?>
<!-- Generator: Adobe Illustrator 15.0.0, SVG Export Plug-In . SVG Version: 6.00 Build 0)  -->
<!DOCTYPE svg PUBLIC "-//W3C//DTD SVG 1.1//EN" "http://www.w3.org/Graphics/SVG/1.1/DTD/svg11.dtd">
<svg version="1.1" id="Vrstva_1" xmlns="http://www.w3.org/2000/svg" xmlns:xlink="http://www.w3.org/1999/xlink" x="0px" y="0px"
	 width="900px" height="1200px" viewBox="0 0 900 1200" enable-background="new 0 0 900 1200" xml:space="preserve">
<path fill-rule="evenodd" clip-rule="evenodd" fill="#231F20" d="M6.235,1138.361c0,31.282,25.396,56.678,56.666,56.678h774.454
	c31.292,0,56.664-25.396,56.664-56.678V61.598c0-31.283-25.372-56.667-56.664-56.667H62.901c-31.271,0-56.666,25.384-56.666,56.667
	V1138.361z"/>
<path fill-rule="evenodd" clip-rule="evenodd" fill="#FFFFFF" d="M15.695,1138.361c0,26.104,21.101,47.205,47.206,47.205h774.454
	c26.116,0,47.216-21.101,47.216-47.205V61.598c0-26.094-21.1-47.218-47.216-47.218H62.901c-26.105,0-47.206,21.124-47.206,47.218
	V1138.361z"/>
<path fill-rule="evenodd" clip-rule="evenodd" fill="#EB2227" d="M450.187,74.973c-192.956,0-349.418,156.477-349.418,349.457
	c0,192.984,156.462,349.446,349.418,349.446c192.982,0,349.434-156.462,349.434-349.446
	C799.621,231.449,643.169,74.973,450.187,74.973"/>
<path fill-rule="evenodd" clip-rule="evenodd" fill="#FFFFFF" d="M450.187,169.397c140.821,0,255.009,114.2,255.009,255.032
	c0,140.821-114.188,255.01-255.009,255.01c-140.808,0-254.998-114.189-254.998-255.01
	C195.189,283.597,309.379,169.397,450.187,169.397"/>
<path fill-rule="evenodd" clip-rule="evenodd" fill="#231F20" d="M615.426,424.932c0-27.122-1.237-50.497-4.162-69.677
	c-2.938-19.213-7.099-34.671-12.938-46.776c-6.278-12.092-13.779-20.854-23.375-26.264c-9.609-5.434-20.879-7.955-34.221-7.955
	c-13.782,0-25.029,2.521-34.66,7.955c-9.582,5.41-17.098,14.172-22.936,26.264c-6.277,12.104-10.439,27.563-13.363,46.776
	c-2.903,19.18-4.162,42.555-4.162,69.677c0,27.134,1.259,50.509,4.162,69.31c2.924,19.213,7.086,34.636,13.363,46.738
	c5.838,12.129,13.354,20.439,22.936,25.863c9.631,5.396,20.878,7.929,34.66,7.929c13.342,0,24.611-2.534,34.221-7.929
	c9.596-5.423,17.097-13.733,23.375-25.863c5.839-12.103,9.999-27.525,12.938-46.738
	C614.188,475.441,615.426,452.066,615.426,424.932 M572.428,424.932c0,24.636-0.415,44.27-1.677,59.272
	c-1.209,15.458-2.898,27.124-5.409,35.493c-2.496,8.763-5.849,14.197-9.593,17.122c-4.161,2.914-9.18,4.579-15.019,4.579
	c-5.874,0-10.844-1.665-14.601-5.423c-4.197-3.354-7.539-9.596-10.035-18.357c-2.472-8.763-4.162-20.88-5.423-35.909
	c-1.26-14.587-1.664-33.803-1.664-56.776c0-23.375,0.404-42.556,1.664-58c1.261-15.017,2.951-27.132,5.423-35.898
	c2.496-8.773,5.838-14.612,10.035-18.358c3.757-3.34,8.727-5.005,14.601-5.005c5.435,0,10.404,1.666,14.615,4.59
	c3.743,2.899,7.085,8.727,9.582,17.515c2.533,8.762,4.614,20.475,5.823,35.468C572.013,380.714,572.428,400.345,572.428,424.932z
	 M431.413,482.98c0-12.973-1.663-23.375-4.59-32.138c-3.315-8.79-7.515-15.876-12.531-21.296
	c-4.98-5.434-10.403-10.035-16.695-12.938c-6.239-2.925-12.102-5.005-17.94-6.277c5.42-1.664,11.272-4.162,16.693-7.906
	c5.41-3.353,10.024-7.515,14.639-12.938c4.161-5.03,7.501-10.855,10.401-17.955c2.534-7.097,3.782-14.636,3.782-23.375
	c0-14.639-2.116-26.706-5.863-36.337c-4.159-9.585-9.582-17.1-15.86-22.52c-6.657-5.423-14.161-9.631-22.52-11.701
	c-8.372-2.092-16.692-3.34-25.458-3.34c-12.52,0-24.232,2.103-35.062,6.682c-10.857,4.601-21.297,10.439-30.882,18.345
	l17.944,27.989c8.358-6.289,16.267-10.854,23.768-13.375c7.111-2.485,14.211-3.757,20.489-3.757c2.889,0,6.242,0.453,9.986,0.854
	c3.757,0.417,7.1,2.081,10.453,4.579c2.925,2.925,5.824,6.682,7.905,12.116c2.119,5.42,3.342,12.924,3.342,22.556
	c0,15.862-3.342,27.525-9.584,34.625c-6.693,7.097-15.016,10.854-25.456,10.854h-11.286v33.816h13.367
	c5.016,0,9.999,0.415,14.601,1.663c4.615,1.275,8.359,3.757,12.116,7.515c3.353,3.747,6.242,9.181,8.323,16.278
	c2.116,7.089,2.936,16.278,2.936,27.979c0,10.404-1.259,18.763-3.354,25.874c-2.471,7.086-5.825,12.509-9.582,16.67
	c-4.162,4.625-8.763,7.551-14.186,9.216c-5.435,2.078-10.854,2.9-16.278,2.9c-8.358,0-16.264-1.248-23.375-4.162
	c-7.1-2.938-13.377-6.278-18.348-10.035l-18.394,29.666c6.278,5.006,15.041,9.571,25.898,13.733
	c10.439,4.576,23.375,6.657,38.38,6.657c11.261,0,21.701-1.677,31.736-5.385c9.582-3.757,18.359-9.181,25.859-16.682
	c7.504-7.501,13.378-17.122,17.944-28.394C429.333,511.778,431.413,498.404,431.413,482.98z"/>
<path fill-rule="evenodd" clip-rule="evenodd" fill="#231F20" d="M676.631,1030.916h93.554v-21.541
	c0-14.676-1.101-27.867-2.975-39.578c-2.299-11.716-5.665-21.505-10.598-29.414c-4.895-7.965-11.651-13.584-19.57-17.756
	c-7.968-4.124-18.138-6.047-29.85-6.047c-23.353,0-40.353,8.299-51.282,24.907c-10.941,16.987-16.217,43.754-16.217,80.751
	c0,20.352,2.252,36.938,6.426,49.8c4.126,12.825,9.401,22.604,16.217,29.803c6.756,7.146,14.675,12.043,23.363,14.686
	c8.689,2.633,17.747,3.733,27.16,3.733c10.549,0,20.77-1.493,30.179-4.454c9.448-3.023,17.357-6.046,23.022-9.448l-10.941-27.551
	c-14.345,7.207-27.536,10.563-39.996,10.563c-5.3,0-10.183-0.331-14.699-1.494c-4.552-0.759-8.285-3.013-11.701-7.148
	c-3.414-3.783-6.425-9.46-8.295-17.379C678.174,1055.441,677.011,1044.882,676.631,1030.916 M706.47,946.369
	c5.286,0,9.792,0.784,13.194,2.657c3.414,1.908,6.437,4.931,8.688,9.055c2.253,4.187,4.124,10.173,5.276,17.761
	c1.101,7.919,1.494,17.318,1.87,29.016h-58.488c0.391-12.801,1.529-23.02,3.417-30.938c1.528-7.919,3.412-13.584,6.045-17.708
	c2.63-4.176,5.666-6.806,9.068-7.919C698.905,947.153,702.297,946.369,706.47,946.369z M561.965,1116.526h36.986V978.484
	c0-21.883-4.172-37.771-12.863-47.56c-8.665-9.448-21.101-14.345-37.708-14.345c-9.056,0-17.744,1.923-25.663,6.047
	c-7.909,4.172-14.675,10.941-20.342,20.01l-6.045-22.264h-25.666v196.153h36.984V987.163c0-7.577,1.103-13.965,3.023-19.24
	c1.872-5.336,4.516-9.448,7.919-12.864c3.415-3.023,6.769-5.273,10.551-6.767c3.807-1.139,7.539-1.923,11.332-1.923
	c6.376,0,11.701,2.313,15.825,6.819c3.795,4.893,5.666,13.961,5.666,27.156V1116.526z M360.549,1120.26
	c10.222,0,19.634-1.493,27.93-4.847c8.298-3.39,15.458-9.056,21.493-16.975c5.666-7.933,10.218-18.091,13.572-31.346
	c3.037-12.801,4.565-29.017,4.565-48.637c0-19.631-1.529-35.848-4.565-49.053c-3.354-12.802-7.906-23.351-13.572-31.332
	c-6.035-7.919-13.195-13.192-21.493-16.595c-8.296-3.367-17.708-4.896-27.93-4.896c-10.168,0-19.617,1.529-27.916,4.896
	c-8.298,3.402-15.445,8.676-21.111,16.595c-6.045,7.981-10.562,18.53-13.585,31.332c-3.403,13.205-4.886,29.422-4.886,49.053
	c0,18.469,1.483,34.342,4.886,47.156c3.023,13.194,7.54,23.758,13.585,31.663c5.666,7.979,12.813,13.964,21.111,17.377
	C340.932,1118.399,350.38,1120.26,360.549,1120.26z M360.549,947.153c5.276,0,9.841,1.139,13.574,3.022
	c3.807,1.859,6.83,5.666,9.462,10.941c2.644,5.276,4.503,12.472,5.652,21.491c1.115,9.448,1.494,21.149,1.494,35.848
	c0,13.195-0.379,24.503-1.494,33.586c-1.149,9.055-3.008,16.215-5.652,21.88c-2.632,5.655-5.655,9.779-9.462,12.092
	c-3.733,2.633-8.298,3.736-13.574,3.736c-5.273,0-9.778-1.104-13.585-3.736c-3.733-2.313-6.742-6.437-9.399-12.092
	c-2.629-5.665-4.172-12.825-5.273-21.88c-1.152-9.083-1.912-20.391-1.912-33.586c0-14.698,0.76-26.399,1.912-35.848
	c1.101-9.02,2.644-16.215,5.273-21.491c2.657-5.275,5.666-9.082,9.399-10.941C350.771,948.292,355.276,947.153,360.549,947.153z
	 M171.19,1082.6l92.404-193.935v-36.192H136.835v33.939h86.787l-93.553,193.936v36.179h130.502V1082.6H171.19z"/>
</svg>
