<?xml version="1.0" encoding="UTF-8" standalone="no"?>
<!-- Created with Inkscape (http://www.inkscape.org/) -->

<svg
   version="1.0"
   width="690"
   height="690"
   id="svg10855"
   sodipodi:docname="Vorschriftszeichen_17c.svg"
   inkscape:version="1.1.2 (b8e25be833, 2022-02-05)"
   xmlns:inkscape="http://www.inkscape.org/namespaces/inkscape"
   xmlns:sodipodi="http://sodipodi.sourceforge.net/DTD/sodipodi-0.dtd"
   xmlns="http://www.w3.org/2000/svg"
   xmlns:svg="http://www.w3.org/2000/svg">
  <sodipodi:namedview
     id="namedview8"
     pagecolor="#ffffff"
     bordercolor="#666666"
     borderopacity="1.0"
     inkscape:pageshadow="2"
     inkscape:pageopacity="0.0"
     inkscape:pagecheckerboard="0"
     showgrid="false"
     inkscape:snap-intersection-paths="false"
     inkscape:snap-smooth-nodes="false"
     inkscape:snap-bbox="false"
     inkscape:snap-bbox-edge-midpoints="false"
     inkscape:bbox-nodes="false"
     showguides="true"
     inkscape:guide-bbox="true"
     inkscape:zoom="1.1289855"
     inkscape:cx="345"
     inkscape:cy="345"
     inkscape:window-width="1920"
     inkscape:window-height="1001"
     inkscape:window-x="-9"
     inkscape:window-y="-9"
     inkscape:window-maximized="1"
     inkscape:current-layer="layer1" />
  <defs
     id="defs10857" />
  <g
     transform="translate(-191.0563,291.5997)"
     id="layer1">
    <path
       d="m 191.05629,53.395266 c 0,-190.525286 154.46261,-344.995016 345,-344.995016 190.53739,0 345,154.46973 345,344.995016 0,190.535254 -154.46261,345.004984 -345,345.004984 -190.53739,0 -345,-154.46973 -345,-345.004984"
       style="fill:#176fc1;fill-rule:nonzero;stroke:none"
       id="path10472" />
    <path
       d="m 409.88688,-39.414134 c -1.1582,1.611725 -2.5446,3.627783 -3.27499,4.660756 -0.7312,1.058101 -0.8068,1.158244 -1.5116,2.418522 -0.7048,1.260271 -2.0406,3.652903 -3.0232,5.869816 -3.4263,7.406718 -7.0792,16.70289 -11.1353,27.76271 -1.9147,5.01332 -3.7034,10.9336 -4.6606,16.07295 -0.5045,2.56967 -0.7803,4.96307 -0.9825,8.1625 -0.4025,6.47465 -0.4535,16.32501 0.3023,26.52813 0.3533,5.13935 0.8068,11.11007 1.3604,18.08864 0.076,1.08266 0.1322,2.14133 0.1511,3.22456 0.019,0.83137 0,1.66274 -0.057,2.46896 -0.076,1.08267 -0.3023,2.11621 -0.6557,3.12387 -0.3023,0.75578 -0.7312,1.46055 -1.2848,2.04062 l -3.0232,3.19962 -1.7383,13.32699 1.5117,2.89712 c 1.3849,1.61172 1.2092,5.81956 0.8823,7.93576 -0.1323,0.70478 -0.2513,1.1847 -0.7312,1.88948 -0.478,0.70476 -1.3359,1.63817 -2.9476,2.26736 -1.6117,0.60462 -3.9804,0.93151 -5.643,0.98252 -1.6874,0.0566 -2.6706,-0.17006 -3.6532,-0.50449 -1.965,-0.70477 -3.9048,-1.88947 -5.5424,-4.08125 -1.6381,-2.19179 -2.998,-5.3661 -3.5773,-7.43204 -0.8314,-3.09873 0.1512,-3.67803 1.9902,-10.40454 0.2267,-0.50448 0.4289,-1.03353 0.6556,-1.58716 0.4025,-1.03352 0.8314,-2.06594 1.2338,-3.09872 -3.2498,-0.88238 -3.7033,-0.85593 -5.24,-5.16467 -0.5536,-2.9727 -0.9315,-5.6684 -1.1582,-9.54805 -0.2514,-3.85451 -0.3269,-8.94341 -0.1701,-13.60417 l 1.3358,-39.60324 c 0.4536,-15.61967 1.9651,-33.70812 3.9553,-49.579642 1.007,-7.910642 2.1413,-15.266912 3.3759,-22.346175 3.6781,-21.162043 8.3136,-39.527663 13.7553,-55.902943 1.385,-4.00566 3.0232,-8.16251 4.6606,-11.63912 6.6006,-13.9318 13.4783,-17.23194 19.6505,-18.69326 4.7112,-1.38498 9.4473,-2.64526 14.2087,-3.82919 6.0212,-1.41144 15.0402,-4.4089 27.9895,-9.47266 10.3543,-3.85452 10.6062,-6.60049 8.7418,-10.80777 l -4.1315,-8.79226 c -0.58,-1.20926 -1.0336,-2.44364 -1.4114,-3.7538 -0.3269,-1.15825 -0.5537,-2.34294 -0.6802,-3.52688 l -0.5291,-5.59283 -2.9225,-7.53274 c -0.1322,-0.78035 -0.1322,-1.56259 0,-2.34294 0.2514,-1.38498 0.6047,-2.74597 1.0827,-4.05613 1.487,-4.76145 1.0581,-3.80407 0.076,-4.93774 -1.6117,-0.78035 -3.2752,-1.46056 -4.963,-2.0155 l -6.8272,-2.24204 c -8.2381,-0.50448 -7.6083,-10.35428 0.019,-8.1625 1.0826,0.30231 3.3003,0.47803 5.1644,0.83137 1.6382,0.30231 3.3255,0.37789 5.0136,0.20218 1.3358,-0.15117 2.61989,-0.55363 3.8291,-1.18471 1.3605,-0.70477 2.5951,-1.63818 3.67829,-2.72083 1.1336,-1.15824 2.091,-2.46897 2.8468,-3.90497 l 5.2905,-10.05197 c 1.0336,-2.64524 3.8041,-4.711 5.8447,-5.94559 4.0562,-2.51923 5.1394,-1.83845 12.7728,0.0756 1.8649,0.73122 4.0057,1.487 5.1645,1.91478 1.1847,0.40246 1.4114,0.50449 2.1415,0.6292 1.436,0.27775 4.8371,0.80679 8.9686,0.58006 3.9554,0.17005 6.4242,-0.2513 9.2205,0.2513 2.7713,0.50449 5.8952,1.91459 7.8351,3.95522 3.905,4.10657 3.0988,10.60634 1.7138,15.61967 -0.6557,1.93991 -1.1337,3.95522 -1.4605,5.99585 -0.429,1.96505 0.7803,4.28285 4.1568,5.31582 l 9.2961,2.72084 c 3.4264,0.75578 8.994,5.92027 5.2654,7.40672 -0.7558,0.30231 -1.8643,0.45347 -3.1491,0.65564 -2.5697,0.40246 -5.8196,1.03354 -8.1877,0.0566 -2.5192,-0.60464 -5.0889,-1.03354 -7.6335,-1.26028 -2.5947,0.0756 -3.1743,0.60463 -4.2828,4.25772 l -0.6802,2.7711 c -0.094,0.4289 -0.2777,0.80681 -0.5291,1.13368 -0.9315,1.15825 -1.9146,2.29268 -2.9727,3.35078 -2.1917,2.26737 -4.434,4.66056 -6.6005,8.61598 -1.4359,2.61993 -2.8468,5.92027 -3.7286,8.66624 -1.3094,4.10656 -1.4114,6.92811 0.5045,9.72451 1.2848,1.88948 3.4261,3.75381 8.4899,6.22259 5.0387,2.44383 12.9996,5.49212 18.2901,7.45716 2.6452,0.98253 4.6103,1.68731 6.6509,2.34295 3.8042,1.28483 7.6335,2.56967 11.488,3.80406 10.5811,3.17431 17.761,7.25556 18.6176,17.53427 0.2772,3.42636 -0.1512,7.55787 0.024,11.16053 l -1.5871,23.10195 c -0.378,5.64308 -0.6046,11.33681 -0.7053,16.85406 -0.025,8.137176 0.5794,14.410218 1.1336,18.693069 2.24221,18.290053 4.40881,34.262291 6.6762,48.294801 0.2518,1.53614 0.5541,2.92244 0.932,4.30799 l 7.02881,24.81495 c 1.3605,4.83704 2.872,9.64895 4.5348,14.4104 0.4534,1.3094 1.033,2.56968 1.7383,3.75382 1.2343,1.93972 2.0658,3.82918 2.5948,5.11402 1.6123,3.80425 0.52909,1.96504 -0.8062,6.49978 1.0832,1.28483 4.28279,4.35843 6.0967,9.09476 0.9069,2.34294 1.4611,5.11403 0.8565,5.8447 l -1.5621,5.7691 c -0.1001,0.32688 -0.1266,0.65565 0,1.10912 0.4535,8.66641 3.1744,17.23195 5.618,21.38877 1.2344,2.09109 2.3682,3.04829 5.6181,3.80407 4.8874,1.13368 14.4607,1.73831 21.7163,0.68022 9.674,-1.38499 15.2164,-5.74398 17.0303,-12.01703 0.907,-3.12386 0.8819,-6.7265 0.2773,-8.7418 -0.6047,-2.0155 -1.814,-2.44384 -3.9806,-5.24026 -1.6626,-1.48701 -2.9979,-3.24988 -3.8796,-4.35824 -1.7635,-2.24224 -1.7384,-1.99037 -1.5872,-5.11423 0.051,-1.56259 0.1512,-3.95523 0.7558,-6.14701 0.9574,-4.13169 1.3855,-8.3641 1.562,-10.07728 0.1511,-1.73831 0.051,-0.98252 0.1757,-2.82154 -2.091,-1.96505 -2.8971,-2.24224 -3.4262,-3.67823 -0.5039,-1.46055 -0.7307,-4.10639 0.7809,-6.60048 1.5367,-2.46897 4.8119,-4.81191 9.271,-7.45716 2.2422,-1.33585 4.7615,-2.74597 6.4746,-3.60247 1.6879,-0.88238 2.5949,-1.23382 4.1316,-1.76287 1.5621,-0.55361 3.7538,-1.28483 6.1975,-1.63816 7.306,-1.05811 16.728,1.36041 22.9759,5.11403 6.2731,3.7538 9.4222,8.81758 9.7497,12.06747 2.2422,6.04629 2.7712,12.52093 3.2499,15.87152 0.2518,1.6873 0.4786,2.59481 0.3274,4.08126 -0.1757,1.48701 -0.7054,3.55219 -1.4611,5.31564 -2.2674,5.34096 -6.525,8.06178 -12.0926,11.74002 -4.2325,3.37572 -6.1471,2.94757 -4.5095,10.12754 1.6376,7.20511 6.1974,10.25339 17.0304,15.7455 2.7963,1.36043 4.9126,2.56968 6.6761,3.70336 8.7923,5.64328 8.4648,9.62364 11.1604,22.95081 0.2519,1.99017 0.6047,4.35824 0.8314,5.61795 0.2016,1.26027 0.2772,1.43599 0.4786,1.93992 l 3.7789,10.6566 c 0.5543,1.56259 0.9575,2.89711 1.4612,5.26519 0.504,2.36825 1.0832,5.74398 1.5115,8.74201 0.4284,2.998 0.6552,5.61795 0.8315,7.68389 0.1511,2.06576 0.2015,3.60246 0.1511,5.51724 -0.1002,3.85452 -0.6551,9.27087 -1.7635,13.5286 l -3.1239,12.99953 c -3.4011,10.27871 -3.0988,11.05963 -8.3136,13.55372 -1.31,0.6292 -3.6782,0.90695 -5.5173,0.7558 -5.5173,-0.47804 -6.3738,-5.11423 -5.2905,-6.14701 l 4.3332,-5.69372 c 0.6297,-0.80681 1.1085,-1.71376 1.436,-2.67039 0.1265,-0.32688 0.051,-0.70476 -0.1758,-0.98253 l -3.5018,-4.28285 c -0.3274,-0.3779 -0.4534,-0.88238 -0.3779,-1.33586 0.4535,-2.62011 1.1085,-5.1898 1.9147,-7.70902 0.3779,-1.0581 0.5541,-1.88947 0.7307,-3.80426 0.1511,-1.93973 0.3023,-4.93775 0.2518,-7.65858 -0.051,-2.72084 -0.3023,-5.16448 -0.2771,-7.1044 0.3273,-13.73019 -11.0597,-15.92198 -12.6973,-15.79595 -2.2422,3.02315 -2.9224,3.3506 -4.8622,6.22258 -0.9826,1.436 -2.2674,3.50194 -3.1239,5.13936 -1.7384,3.2752 -1.7888,4.81191 -1.9399,8.2634 -0.051,1.71375 0.1001,4.4087 0.3274,7.07908 0.2268,2.69571 0.5039,5.34096 0.7559,7.60832 0.2518,2.26735 0.4534,4.15682 0.8313,6.90279 0.3779,2.74615 0.932,6.34861 1.4611,9.14503 0.5291,2.82172 1.0077,4.83703 1.6376,7.15485 0.3779,1.41143 0.7307,2.84686 1.033,4.28285 0.1757,0.98253 0.3275,1.96505 0.4535,2.94758 0.1266,1.26027 0.024,2.54434 -0.3275,3.75361 -0.2016,0.75579 -0.6297,1.41143 -1.2344,1.88947 l -5.2149,4.20728 c -0.3527,0.27775 -0.5542,0.35333 -0.7054,1.51157 -0.1511,1.15824 -0.2518,3.37592 -0.1756,5.24005 0.1001,1.93993 0.1265,3.85453 0.1001,5.76931 -0.024,2.04062 -0.1512,4.08126 -0.3023,6.147 -0.1757,2.2925 -0.3023,4.86217 -0.3275,6.4242 -0.024,1.58715 0.051,2.16665 0.2268,3.04828 0.1511,0.85592 0.403,2.0155 1.0329,3.60265 0.6298,1.58715 1.6628,3.62777 2.5949,5.41653 1.9398,3.60247 3.6026,6.17214 5.6684,9.42203 0.5542,0.85592 1.0833,1.71375 1.6123,2.59499 0.3527,0.60463 0.7053,1.23382 1.033,1.86491 0.4534,0.88238 0.8062,1.83845 1.0329,2.82173 0.2268,1.0581 0.3528,2.1162 0.3275,3.1743 -0.024,0.93151 -0.024,1.86491 0,2.79641 0,0.0566 0,0.13227 0.024,0.17006 l 3.0232,5.64327 -1.2597,5.29051 c -0.1757,3.09873 -2.5949,4.55985 -3.8294,4.93774 -1.2093,0.37791 -1.2093,-0.37789 -3.1239,-0.62918 -0.6297,2.31762 -0.7306,2.67038 -1.3353,4.73614 -0.3023,1.03354 -0.7306,2.4941 -1.31,3.80425 -4.6102,10.50545 -18.7183,11.89099 -17.9373,4.83704 0.7307,-1.58715 1.4109,-3.45149 2.2674,-5.21493 0.5795,-1.1847 0.9825,-2.14152 1.562,-3.82938 1.7634,-5.0889 2.9979,-10.80776 3.3002,-15.21646 0.076,-1.46056 -0.2016,-3.72868 -0.655,-5.59282 -1.3352,-5.59283 -4.182,-7.63346 -8.4396,-12.04233 -1.8644,-1.61173 -3.7537,-3.52689 -5.0134,-4.76146 -1.2848,-1.23383 -1.9398,-1.8139 -2.746,-2.84668 -1.6377,-2.09108 -3.9301,-6.1472 -5.3157,-9.8001 -1.3856,-3.62778 -1.839,-6.9028 -2.872,-11.1352 -0.3528,-1.78934 -0.7307,-3.55221 -1.1841,-5.31583 -0.2017,-0.83137 -0.4284,-1.63817 -0.7307,-2.41852 -0.1266,-0.35334 -0.2772,-0.70478 -0.4535,-1.05811 -0.4283,-0.88238 -0.8818,-1.76287 -1.3604,-2.61994 -0.6297,1.10912 -1.2093,2.24205 -1.7888,3.3506 -0.1001,0.17005 -0.1511,0.35333 -0.1757,0.52905 l -2.5696,14.15835 -3.2248,13.55392 c -0.1511,1.10911 -0.2015,2.21691 -0.1756,3.22456 0.4534,11.13539 1.5367,18.8191 2.5193,23.93333 l 2.494,12.79792 c 0.2519,3.0736 0.2016,6.77697 -0.3778,9.44734 -1.7635,7.98623 -8.5404,6.60067 -17.0052,2.99803 -1.4109,-0.60463 -3.1744,-1.56259 -4.3836,-2.19179 -1.1841,-0.62919 -1.8139,-0.9315 -2.4941,-1.46056 -2.091,-1.61171 -4.9126,-5.24024 -6.4998,-7.70903 -2.6956,-4.1317 -2.0154,-5.08909 2.872,-6.34861 l 4.963,-0.45347 c 0.1757,0 0.3779,-0.0189 0.5541,-0.0566 0.5543,-0.0566 1.1337,-0.13226 1.6879,-0.17005 -0.4283,-1.15824 -0.8565,-2.29269 -1.3099,-3.42636 -0.051,-0.17005 -0.1002,-0.32688 -0.1512,-0.50449 l -3.8797,-12.69723 c -1.4611,-4.78678 -2.8972,-9.59849 -4.308,-14.38527 -0.2016,-0.75579 -0.403,-1.51157 -0.5542,-2.26737 -0.5542,-2.74596 -0.9573,-5.16447 -1.2093,-8.38923 -0.2518,-3.24988 -0.3778,-7.28069 -0.403,-10.0771 0,-2.82155 0.076,-4.43402 0.1512,-7.12953 0.076,-2.72084 0.1266,-6.55022 0.2518,-9.9008 0.2016,-1.78934 -0.1001,-3.82939 -0.2518,-5.18982 -0.3023,-2.74596 -0.076,-2.74596 -1.6376,-4.91261 -1.5872,-2.19178 -4.9882,-6.57536 -7.2556,-9.04431 -1.1337,-1.23383 -1.9902,-1.99019 -2.6452,-2.6704 l -9.0946,-8.43967 c -0.907,-0.85593 -1.7132,-1.76287 -2.4185,-2.7711 -0.6298,-0.88239 -1.1589,-1.81389 -1.5872,-2.82173 -0.2772,-0.70477 -0.4535,-1.46056 -0.5039,-2.24204 -0.051,-0.65565 0.024,-1.33586 0.2518,-1.96505 0.1758,-0.52905 0.403,-1.03354 0.6551,-1.51157 0.403,-0.75579 0.8565,-1.48701 1.3604,-2.16666 2.4437,-3.52707 3.653,-5.24007 5.5173,-8.11205 1.8643,-2.84686 4.3835,-6.85254 7.7342,-12.57139 1.6879,-2.87199 3.5774,-6.17214 4.8118,-8.46482 2.5193,-4.6103 4.1317,-7.98603 5.9456,-12.04214 0.8818,-2.0155 1.839,-4.20728 2.5697,-6.17233 5.8447,-15.56921 -1.7132,-15.14087 -11.1353,-18.51678 -8.5656,-1.99019 -14.7127,-4.9882 -19.4237,-15.6448 -1.5872,-3.55221 -2.9728,-7.9609 -3.9049,-11.46264 -0.4787,-1.73831 -0.8314,-3.27521 -1.1842,-5.08909 -0.3779,-1.8139 -0.7558,-3.9301 -0.9574,-5.06378 -0.2016,-1.13369 -0.2267,-1.28484 -0.3527,-1.99018 -0.1002,-0.73122 -0.3275,-1.99017 -0.4786,-2.99802 -1.9903,-0.60462 -2.4186,-0.4289 -4.3332,-1.20926 -0.9574,-0.37789 -2.2926,-1.03353 -3.3255,-1.76287 -3.0987,-2.2169 -3.4766,-5.31564 -2.8972,-8.89316 l 1.7635,-7.12953 c 0.024,-0.13226 0.051,-0.22673 0.076,-0.32687 0.1001,-0.52906 0.1757,-1.05811 0.2771,-1.5626 -0.6297,-0.13225 -1.2344,-0.27776 -1.839,-0.4289 -0.2772,-0.0756 -0.5795,-0.17006 -0.8564,-0.30232 -0.8314,-0.35333 -1.5872,-0.83136 -2.2674,-1.38498 -0.5542,-0.47804 -1.033,-1.03353 -1.3856,-1.66274 l -4.434,-11.58868 -5.9707,-15.4685 c -0.4283,-1.0581 -0.7809,-2.11621 -1.1085,-3.19944 -1.4865,-4.76146 -2.9224,-9.57337 -4.3332,-14.35996 l -4.2324,-14.48598 c -0.9572,-3.30033 -1.9398,-6.72651 -2.5949,-9.24573 -1.385,-5.03865 -1.6116,-6.39906 -1.8384,-7.381588 -1.1091,-5.643273 -2.2422,-11.261231 -3.3004,-16.501292 -1.6872,-9.497793 -1.1091,-6.147196 -1.5361,-11.74002 -1.7383,3.829385 -2.7208,6.121881 -3.124,7.054136 -2.5192,6.77677 -4.7111,13.55372 -6.4998,23.908004 -0.9069,5.13937 -1.6873,11.21079 -2.0658,16.19898 -0.3778,4.9882 -0.3533,8.94361 -0.1322,12.92397 0.2267,3.98053 0.6802,8.01134 1.2602,11.9163 1.0071,6.75164 2.1918,13.47815 3.5522,20.17952 0.9315,4.55985 1.9651,9.06944 3.1239,13.57903 0.6046,2.34294 1.3094,4.66057 2.1666,6.92793 1.0336,2.51942 1.6383,5.26538 2.0658,7.23043 0.4289,1.93992 0.7312,3.0736 0.6293,4.28285 -0.1702,2.3932 -1.865,5.06378 -3.4767,6.57536 -1.6117,1.51156 -3.1492,1.91459 -5.3661,3.275 0.17,1.6873 0.3779,3.7285 0.478,4.66076 0.094,0.95797 0.094,0.78035 0.1323,0.98252 l 4.8117,25.39445 c 0.6292,3.30014 1.1091,6.62561 1.436,9.77479 1.9399,19.22212 3.1492,35.95034 3.5775,50.10868 0.1323,3.55221 0.094,6.90281 -0.075,10.25358 -0.076,1.41144 -0.2022,2.84667 -0.4025,4.25754 -1.436,10.73218 -2.9223,21.48948 -4.4592,32.22166 -0.529,3.60266 -0.9579,7.20531 -1.3358,10.78263 -1.9904,18.79398 -3.6026,36.95799 -4.938,54.46713 -0.2513,3.47663 -0.4534,6.87767 -0.6046,10.32896 -0.019,0.65565 -0.076,2.0155 -0.1512,4.15684 -3.1238,-0.0189 -3.4765,0 -4.2323,0 -1.5872,0.0756 -3.1744,0.13226 -4.7615,0.20217 -0.4024,0.0189 -0.7804,0.0189 -1.1582,0.0566 -0.7804,0.0188 -1.5362,0.0566 -2.3178,0.0756 1.7383,2.21692 2.8217,3.65292 3.3254,4.35825 2.6706,3.87983 4.7614,7.83506 6.1975,11.8156 l 4.5347,12.34446 c 0.8559,2.31781 1.6117,4.68589 2.091,7.0037 2.7714,4.83704 -1.6381,8.99386 -7.9608,6.90278 -3.7789,-1.23381 -8.2634,-4.73632 -13.2516,-9.22059 -3.3255,-2.99803 -6.8777,-6.4242 -9.2962,-9.52293 -1.2093,-1.53614 -2.1162,-2.9727 -2.5697,-3.72848 -0.4289,-0.73123 -0.4024,-0.73123 -0.6046,-1.33586 -0.2268,-0.58006 -0.7048,-1.71374 -1.0336,-2.62013 -3.527,-0.65564 -7.6083,1.08268 -8.9436,-5.11403 -0.2513,-1.23382 -0.3269,-2.99802 -0.3269,-4.50959 0,-3.02315 0.3023,-5.11422 0.42899,-6.39906 0.13221,-1.26028 0.094,-1.71375 0.3533,-3.30015 -0.5045,-0.27775 -0.9825,-0.60463 -1.43599,-0.93151 -0.13221,-0.0945 -0.25131,-0.25129 -0.32691,-0.40245 -0.17,-0.35333 -0.2778,-0.73123 -0.2513,-1.10912 0.019,-1.0581 0.17,-2.09089 0.4025,-3.12386 0.2777,-1.15824 0.4289,-2.3178 0.5045,-3.50174 0.1511,-2.41853 0.2022,-4.86237 0.1511,-7.30601 -0.076,-3.52707 -0.057,-7.07926 0.076,-10.60615 0.1323,-3.35079 0.3269,-6.72651 0.6292,-10.07729 l 2.0155,-22.52246 c 0.057,-0.65565 0.076,-1.3094 0.094,-1.96504 0.378,-22.09413 0.7313,-44.18824 1.0582,-66.30768 0.095,-5.41653 0.076,-10.83288 -0.076,-16.27455 -0.076,-4.23242 -0.6046,-8.71689 -1.6117,-13.37745 -0.9316,-4.30798 -2.0155,-8.81756 -2.9476,-12.31932 -0.9579,-3.52707 -1.7383,-6.0463 -2.3934,-8.51526 -0.6557,-2.46897 -1.1847,-4.8875 -2.0155,-7.20511 -1.6117,-4.63563 -4.3836,-8.96875 -5.4919,-10.5559 -1.1091,-1.58715 -0.5536,-0.45347 -2.3429,-2.2169 -1.3095,2.49408 -1.94,3.72847 -1.8895,3.72847 -0.9825,2.46897 -1.7629,5.01333 -2.31779,7.65858 -2.1918,9.74966 -3.4767,21.66598 -5.0134,35.49687 -0.2777,2.54455 -0.478,5.13935 -0.6046,7.73416 -0.2777,4.91262 -0.4289,9.82524 -0.4534,14.73786 -0.076,19.95278 -0.057,39.90556 0.094,59.85834 l 0.2268,27.96413 c 0.019,5.16467 0.17,10.32915 0.4534,15.49364 0.2268,4.45914 0.5801,8.89315 1.0581,13.30185 0.7048,6.67626 1.385,13.35231 2.0155,20.05368 0.1512,1.436 0.2513,3.27502 0.3023,4.10638 0.057,0.83138 0.019,0.6292 0.019,1.36042 -0.019,0.73122 -0.019,2.36807 -0.057,3.65291 -0.4289,0.15115 -0.8314,0.32687 -1.2848,0.45347 -0.22681,0.0756 -0.45351,0.15116 -0.6802,0.22673 -1.2849,0.27776 -2.3932,0.7558 -3.0483,0.95797 -1.2849,0.45346 -0.7312,-0.13227 -1.15821,1.88947 -0.2022,1.03353 0.019,3.14918 0.25131,4.88748 0.3779,4.68589 -0.4781,9.47247 -3.5773,12.52074 -3.0988,3.02316 -8.4147,4.33332 -10.959,2.14153 l -7.432,-6.27303 c -0.1323,-0.0945 -0.27781,-0.20218 -0.4289,-0.27775 -1.99041,-1.10912 -4.0057,-2.21692 -5.9961,-3.32547 -1.8139,-0.83137 -5.39121,-3.42616 -8.4899,-6.147 -3.0736,-2.69571 -5.69351,-5.49212 -7.63351,-8.18783 -2.94749,-4.05592 -4.4087,-7.86018 -6.44929,-12.26888 -2.7208,-5.89513 1.20929,-9.67407 4.66059,-9.82523 1.71371,-0.0756 3.3003,0.73122 4.8119,1.61172 0.7804,0.45347 2.4185,1.38497 3.7538,2.16665 0.3023,0.20217 0.62921,0.37789 0.95801,0.55361 0.6556,0.3779 1.33589,0.73122 1.9903,1.08267 l -0.4289,-4.45915 c -0.47801,-5.03864 -0.90691,-10.10241 -1.2603,-15.14106 -0.2512,-3.12386 -0.4288,-6.27304 -0.58,-9.39689 l -1.6627,-38.52002 -1.6382,-36.25246 c -0.076,-4.23241 -0.057,-8.49014 0.019,-12.72255 0.1322,-6.80209 0.3269,-13.60417 0.6046,-20.38094 0.3269,-8.16249 0.6047,-16.325 0.8559,-24.4875 0.057,-1.76288 0.076,-3.52707 0.057,-5.31583 l -0.478,-35.57226 0.019,-2.36826 c -1.7894,-0.78034 -1.8139,-0.65564 -3.7536,-1.61171 -0.9826,-0.47804 -2.4186,-1.23382 -3.6279,-1.99017 -1.2338,-0.73124 -2.2422,-1.48702 -3.3759,-2.64526 -1.1336,-1.13368 -2.3933,-2.67058 -3.1492,-4.10657 -0.7311,-1.43599 -0.9315,-2.74596 -0.9824,-4.05593 -0.057,-1.3094 0.057,-2.62013 0.6046,-4.88749 0.5536,-2.26736 1.5361,-5.4668 2.6452,-8.41436 0.6557,-1.71375 1.2339,-3.45151 1.8139,-5.39142 2.0406,-6.82721 4.4341,-16.2241 7.2304,-28.11528 0.2778,-1.13368 0.5291,-2.46878 0.7313,-3.82919 l 2.1917,-15.41806 2.9727,-18.99558 c 0.2514,-2.79641 0.3779,-5.51725 0.4025,-8.79226 0.019,-6.524902 -0.4289,-15.216459 -1.1582,-20.960435 -0.15121,-1.511582 -0.4025,-2.645259 -0.52911,-3.275208 -0.3023,-1.260277 -0.2267,-0.553617 -1.1336,-2.972699"
       style="fill:#ffffff;fill-opacity:1;fill-rule:nonzero;stroke:none;stroke-width:25.1928"
       id="path622"
       inkscape:label="path10474" />
    <path
       d="m 265.55511,267.52563 c 16.54423,20.88372 35.44766,39.81364 56.32206,56.37109 l 484.67035,-484.69163 c -16.55419,-20.86378 -35.47752,-39.7638 -56.35193,-56.30131 L 265.55511,267.52563"
       style="fill:#ee1c23;fill-rule:nonzero;stroke:none"
       id="path10476" />
  </g>
</svg>
