<?xml version="1.0" encoding="UTF-8" standalone="no"?>
<!-- Created with Inkscape (http://www.inkscape.org/) -->
<svg
   xmlns:svg="http://www.w3.org/2000/svg"
   xmlns="http://www.w3.org/2000/svg"
   version="1.0"
   width="960"
   height="960"
   id="svg4011">
  <defs
     id="defs4013" />
  <g
     transform="translate(-315.431,392.9798)"
     id="layer1">
    <path
       d="M -100.00002 444.28571 A 205.71428 275.71429 0 1 1  -511.42857,444.28571 A 205.71428 275.71429 0 1 1  -100.00002 444.28571 z"
       transform="matrix(2.236111,0,0,1.668394,1479.042,-654.2235)"
       style="opacity:1;fill:white;fill-opacity:1;fill-rule:evenodd;stroke:none;stroke-width:0.25;stroke-linejoin:round;stroke-miterlimit:4;stroke-dasharray:none;stroke-opacity:1"
       id="path4028" />
    <path
       d="M 494.35663,136.04782 C 520.32209,87.560315 613.8394,82.366709 613.8394,82.366709 L 819.91074,80.635507 C 850.49999,77.173103 865.98207,103.97211 871.93885,114.35932 L 747.92948,114.35932 C 711.30013,114.35932 681.51622,144.14985 681.51622,180.75438 L 681.51622,191.10005 C 681.51622,208.8414 688.43109,225.51634 700.96949,238.06409 C 713.50789,250.598 730.1841,257.50896 747.92948,257.50896 L 852.92992,257.50896 C 870.67529,257.50896 887.35151,250.598 899.88991,238.06409 C 912.42831,225.51634 923.38379,209.20149 923.38379,191.46014 L 924.24468,180.75438 L 924.24468,148.98336 L 958.01366,155.09104 C 964.51197,181.50226 994.97626,209.61698 1032.161,209.61698 C 1075.4414,209.61698 1110.5295,174.53591 1110.5295,131.25585 C 1110.5295,87.975804 1075.4414,52.880876 1032.161,52.880876 C 994.68467,52.880876 961.47109,81.923521 957.15277,108.33474 L 924.24468,114.35932 L 920.78724,100.98059 L 919.34318,96.604114 L 917.85745,93.252507 C 916.62166,90.468734 887.01826,16.553333 787.44697,10.930388 L 579.20953,-5.9522939 C 579.20953,-5.9522939 523.79341,-9.414698 492.62097,-49.246194 L 494.35663,136.04782 z M 884.69942,180.75438 L 884.69942,191.10005 C 884.69942,208.61981 870.45313,222.87107 852.92992,222.87107 L 747.92948,222.87107 C 739.43169,222.87107 731.46155,219.57486 725.46311,213.56412 C 719.45079,207.56724 716.15998,199.58986 716.15998,191.10005 L 716.15998,180.75438 C 716.15998,172.27842 719.45079,164.30104 725.46311,158.29031 C 731.46155,152.29342 739.43169,148.98336 747.92948,148.98336 L 884.69942,148.98336 L 884.69942,180.75438"
       style="fill:black;fill-rule:nonzero;stroke:none"
       id="path327" />
    <path
       d="M 1275.431,87.02018 C 1275.431,352.11568 1060.5147,567.02018 795.431,567.02018 C 530.33337,567.02018 315.431,352.11568 315.431,87.02018 C 315.431,-178.07532 530.33337,-392.97982 795.431,-392.97982 C 1060.5147,-392.97982 1275.431,-178.07532 1275.431,87.02018 z M 795.431,442.94147 C 877.89564,442.94147 953.80642,414.8683 1014.1657,367.79345 L 514.6569,-131.72066 C 467.57194,-71.364031 439.5098,4.5457152 439.5098,87.02018 C 439.5098,283.58778 598.85719,442.94147 795.431,442.94147 z M 1151.3383,87.02018 C 1151.3383,-109.54742 991.99092,-268.90111 795.431,-268.90111 C 712.95248,-268.90111 637.04169,-240.84179 576.6963,-193.75309 L 1076.2051,305.74717 C 1123.2762,245.40439 1151.3383,169.49464 1151.3383,87.02018"
       style="fill:#ee1c23;fill-rule:nonzero;stroke:none"
       id="path329" />
  </g>
</svg>
