<?xml version="1.0" encoding="UTF-8" standalone="no"?>
<!-- Created with Inkscape (http://www.inkscape.org/) -->
<svg
   xmlns:svg="http://www.w3.org/2000/svg"
   xmlns="http://www.w3.org/2000/svg"
   version="1.0"
   x="0.00000000"
   y="0.00000000"
   width="470.00000"
   height="230.00000"
   id="svg3368">
  <defs
     id="defs3370" />
  <path
     d="M 464.16062,5.7908700 C 460.39357,2.0550900 455.38484,0.00000000 450.05727,0.00000000 L 19.942663,0.00000000 C 8.9477500,0.00000000 -3.6690423e-005,8.8651900 -3.6690423e-005,19.760520 L -3.6690423e-005,210.23948 C -3.6690423e-005,215.51866 2.0764538,220.48167 5.8435016,224.21329 C 9.6105490,227.94491 14.615101,230.00000 19.942663,230.00000 L 450.05727,230.00000 C 455.38484,230.00000 460.39357,227.94491 464.16062,224.21329 C 467.92349,220.48167 469.99996,215.51866 469.99996,210.23948 L 469.99996,19.760520 C 469.99996,14.485500 467.92349,9.5224900 464.16062,5.7908700 z "
     style="fill:#000000;fill-rule:nonzero;stroke:none"
     id="path82" />
  <path
     d="M 465.80504,210.23948 C 465.80504,218.84259 458.74077,225.84405 450.05727,225.84405 L 19.942663,225.84405 C 15.739342,225.84405 11.783523,224.22161 8.8093175,221.27209 C 5.8351117,218.32673 4.1990885,214.40791 4.1990885,210.23948 L 4.1990885,19.760520 C 4.1990885,15.596250 5.8351117,11.677430 8.8093175,8.7279100 C 11.783523,5.7825500 15.739342,4.1601100 19.942663,4.1601100 L 450.05727,4.1601100 C 454.26478,4.1601100 458.21640,5.7825500 461.19060,8.7279100 C 464.16482,11.677430 465.80504,15.596250 465.80504,19.760520 L 465.80504,210.23948"
     style="fill:#ffffff;fill-opacity:1.0000000;fill-rule:nonzero;stroke:none"
     id="path3382" />
  <path
     d="M 217.66651,106.38649 C 225.81306,98.765170 230.90571,87.969690 230.90571,75.992730 C 230.90571,52.904120 212.01594,34.183620 188.71729,34.183620 C 168.04049,34.183620 150.76996,49.031060 147.16232,68.487890 L 169.58422,68.487890 C 172.70105,61.178580 180.20578,55.624830 188.71729,55.624830 C 200.06878,55.624830 209.27245,64.743790 209.27245,75.992730 C 209.27245,87.241670 200.06878,96.360630 188.71729,96.360630 L 167.08404,96.360630 L 167.08404,117.80183 L 188.71729,117.80183 C 202.45989,117.80183 213.59743,128.83861 213.59743,142.45465 C 213.59743,156.07069 202.45989,167.11162 188.71729,167.11162 C 178.39777,167.11162 169.51710,160.97546 165.75005,152.10194 L 142.97997,152.10194 C 147.38045,173.02729 166.29959,188.55282 188.71729,188.55282 C 214.40705,188.55282 235.23488,167.91452 235.23488,142.45465 C 235.23488,127.84434 228.36778,114.83568 217.66651,106.38649"
     style="fill:#000000;fill-rule:nonzero;stroke:none"
     id="path72" />
  <path
     d="M 251.26371,118.25113 L 261.17633,118.25113 L 261.17633,159.29477 L 261.37349,159.29477 L 273.32904,137.99917 L 283.24586,137.99917 L 271.48327,157.84705 L 285.67472,186.84718 L 274.88536,186.84718 L 265.94177,165.74710 L 261.17633,173.16458 L 261.17633,186.84718 L 251.26371,186.84718 L 251.26371,118.25113"
     style="fill:#000000;fill-rule:nonzero;stroke:none"
     id="path74" />
  <path
     d="M 291.65250,137.99917 L 301.56930,137.99917 L 301.56930,142.72090 L 301.76229,142.72090 C 303.80521,139.63825 306.52772,137.42091 311.09599,137.42091 C 315.37482,137.42091 318.19382,139.92946 319.94309,142.33816 C 322.37198,139.63825 324.99800,137.42091 330.24587,137.42091 C 335.20846,137.42091 341.03940,140.60340 341.03940,149.36875 L 341.03940,186.84718 L 331.12259,186.84718 L 331.12259,153.02965 C 331.12259,149.46443 329.37332,147.25125 326.26066,147.25125 C 322.56914,147.25125 321.30228,149.65996 321.30228,153.99479 L 321.30228,186.84718 L 311.38544,186.84718 L 311.38544,153.02965 C 311.38544,149.46443 309.63617,147.25125 306.52772,147.25125 C 302.83199,147.25125 301.56930,149.65996 301.56930,153.99479 L 301.56930,186.84718 L 291.65250,186.84718 L 291.65250,137.99917"
     style="fill:#000000;fill-rule:nonzero;stroke:none"
     id="path76" />
  <path
     d="M 115.95204,96.531190 L 74.489345,23.067810 L 33.022455,96.535350 C 31.159907,99.073020 31.516475,102.80048 33.819493,104.85973 C 35.275132,106.15769 37.158658,106.47801 38.819848,105.89560 L 62.005233,99.218630 L 62.005233,198.28332 L 86.969265,198.28332 L 86.969265,99.218630 L 110.15884,105.89560 C 111.82003,106.47801 113.70355,106.15769 115.15920,104.85973 C 117.46221,102.80048 117.81459,99.073020 115.95204,96.531190"
     style="fill:#000000;fill-rule:nonzero;stroke:none"
     id="path78" />
  <path
     d="M 438.55057,96.531190 L 397.08369,23.067810 L 355.62100,96.535350 C 353.75844,99.073020 354.11500,102.80048 356.41802,104.85973 C 357.86946,106.15769 359.75719,106.47801 361.41420,105.89560 L 384.60377,99.218630 L 384.60377,198.28332 L 409.56779,198.28332 L 409.56779,99.218630 L 432.75736,105.89560 C 434.41855,106.47801 436.30207,106.15769 437.75772,104.85973 C 440.05656,102.80048 440.41312,99.073020 438.55057,96.531190"
     style="fill:#000000;fill-rule:nonzero;stroke:none"
     id="path80" />
</svg>
