<?xml version="1.0" encoding="UTF-8" standalone="no"?>
<!-- Created with Inkscape (http://www.inkscape.org/) -->
<svg
   xmlns:svg="http://www.w3.org/2000/svg"
   xmlns="http://www.w3.org/2000/svg"
   version="1.0"
   x="0.00000000"
   y="0.00000000"
   width="470.00000"
   height="230.00000"
   id="svg1848">
  <defs
     id="defs1850" />
  <g
     transform="matrix(0.420168,0.000000,0.000000,0.416011,0.000000,-1.570000e-6)"
     id="layer1">
    <path
       d="M 1104.7002,13.919631 C 1095.7304,4.9397918 1083.8106,-0.00011984581 1071.1308,-0.00011984581 L 47.469151,-0.00011984581 C 21.299619,-0.00011984581 0.00000000,21.309499 0.00000000,47.509031 L 0.00000000,505.36085 C 0.00000000,518.05062 4.9399117,529.98041 13.909751,538.95025 C 22.869591,547.93009 34.789378,552.87000 47.469151,552.87000 L 1071.1308,552.87000 C 1083.8106,552.87000 1095.7304,547.93009 1104.7002,538.95025 C 1113.6601,529.98041 1118.6000,518.05062 1118.6000,505.36085 L 1118.6000,47.509031 C 1118.6000,34.819257 1113.6601,22.889471 1104.7002,13.919631 z "
       style="fill:#000000;fill-opacity:1.0000000;fill-rule:nonzero;stroke:none"
       id="path62" />
    <path
       d="M 1108.6102,505.36085 C 1108.6102,526.04048 1091.8005,542.87018 1071.1308,542.87018 L 47.469151,542.87018 C 37.459330,542.87018 28.049498,538.97025 20.969625,531.88038 C 13.889752,524.80050 9.9898214,515.38067 9.9898214,505.36085 L 9.9898214,47.509031 C 9.9898214,37.489210 13.889752,28.069378 20.969625,20.989505 C 28.049498,13.899632 37.459330,9.9997011 47.469151,9.9997011 L 1071.1308,9.9997011 C 1081.1507,9.9997011 1090.5605,13.899632 1097.6304,20.989505 C 1104.7102,28.069378 1108.6102,37.489210 1108.6102,47.509031 L 1108.6102,505.36085"
       style="fill:#ffffff;fill-opacity:1.0000000;fill-rule:nonzero;stroke:none"
       id="path2608" />
    <path
       d="M 722.00706,193.81642 L 774.21613,193.81642 L 774.21613,220.30595 L 775.24611,220.30595 C 785.99592,203.00626 800.32566,190.57648 824.38523,190.57648 C 846.90483,190.57648 861.74456,204.62623 870.96440,218.14598 C 883.75417,203.00626 897.57392,190.57648 925.21343,190.57648 C 951.32296,190.57648 982.03241,208.41616 982.03241,257.60528 L 982.03241,467.88152 L 929.82335,467.88152 L 929.82335,278.14491 C 929.82335,258.14527 920.61351,245.71549 904.23380,245.71549 C 884.78415,245.71549 878.12427,259.22525 878.12427,283.55482 L 878.12427,467.88152 L 825.91520,467.88152 L 825.91520,278.14491 C 825.91520,258.14527 816.70537,245.71549 800.32566,245.71549 C 780.87601,245.71549 774.21613,259.22525 774.21613,283.55482 L 774.21613,467.88152 L 722.00706,467.88152 L 722.00706,193.81642"
       style="fill:#000000;fill-rule:nonzero;stroke:none"
       id="path64" />
    <path
       d="M 175.43683,154.46712 L 123.24780,204.35623 L 123.22780,134.75748 L 175.42683,86.748329 L 227.63590,86.748329 L 227.63590,467.88152 L 175.42683,467.88152 L 175.43683,154.46712"
       style="fill:#000000;fill-rule:nonzero;stroke:none"
       id="path66" />
    <path
       d="M 289.30480,164.17695 C 289.30480,112.81787 325.65415,81.468423 367.11341,81.468423 C 408.57266,81.468423 444.91202,112.81787 444.91202,164.17695 L 444.91202,390.12291 C 444.91202,441.47199 408.57266,472.83143 367.11341,472.83143 C 325.65415,472.83143 289.30480,441.47199 289.30480,390.12291 L 289.30480,164.17695 z M 341.52386,390.12291 C 341.52386,405.80263 352.26367,417.69242 367.11341,417.69242 C 381.95314,417.69242 392.70295,405.80263 392.70295,390.12291 L 392.70295,164.17695 C 392.70295,148.49723 381.95314,136.60744 367.11341,136.60744 C 352.26367,136.60744 341.52386,148.49723 341.52386,164.17695 L 341.52386,390.12291"
       style="fill:#000000;fill-rule:nonzero;stroke:none"
       id="path68" />
    <path
       d="M 505.63093,164.22695 C 505.63093,112.86787 541.97028,81.518423 583.43954,81.518423 C 624.89880,81.518423 661.23815,112.86787 661.23815,164.22695 L 661.23815,390.17291 C 661.23815,441.52199 624.89880,472.87143 583.43954,472.87143 C 541.97028,472.87143 505.63093,441.52199 505.63093,390.17291 L 505.63093,164.22695 z M 557.84000,390.17291 C 557.84000,405.85263 568.58980,417.74242 583.43954,417.74242 C 598.27927,417.74242 609.02908,405.85263 609.02908,390.17291 L 609.02908,164.22695 C 609.02908,148.54723 598.27927,136.65744 583.43954,136.65744 C 568.58980,136.65744 557.84000,148.54723 557.84000,164.22695 L 557.84000,390.17291"
       style="fill:#000000;fill-rule:nonzero;stroke:none"
       id="path70" />
  </g>
</svg>
