<?xml version="1.0" encoding="UTF-8" standalone="no"?>
<!-- Created with Inkscape (http://www.inkscape.org/) -->
<svg
   xmlns:svg="http://www.w3.org/2000/svg"
   xmlns="http://www.w3.org/2000/svg"
   version="1.0"
   width="470"
   height="310"
   id="svg2564">
  <defs
     id="defs2566" />
  <g
     transform="translate(773.1629,243.4715)"
     id="layer1">
    <path
       d="M -309.0064,-237.64799 C -312.77345,-241.40332 -317.778,-243.47146 -323.10556,-243.47146 L -753.22016,-243.47146 C -764.21927,-243.47146 -773.16286,-234.55415 -773.16286,-223.58963 L -773.16286,46.646709 C -773.16286,51.955228 -771.09056,56.949759 -767.32352,60.705077 C -763.55647,64.460394 -758.54772,66.52854 -753.22016,66.52854 L -323.10556,66.52854 C -317.778,66.52854 -312.77345,64.460394 -309.0064,60.705077 C -305.23935,56.949759 -303.16286,51.955228 -303.16286,46.646709 L -303.16286,-223.58963 C -303.16286,-228.89815 -305.23935,-233.89268 -309.0064,-237.64799 z "
       style="fill:black;fill-rule:nonzero;stroke:none"
       id="path2589" />
    <path
       d="M -307.36199,46.646709 C -307.36199,55.304453 -314.42625,62.346197 -323.10556,62.346197 L -753.22016,62.346197 C -757.42768,62.346197 -761.3793,60.71345 -764.35351,57.7452 C -767.32771,54.781136 -768.96793,50.837425 -768.96793,46.646709 L -768.96793,-223.58963 C -768.96793,-227.78034 -767.32771,-231.72406 -764.35351,-234.68812 C -761.3793,-237.65637 -757.42768,-239.28912 -753.22016,-239.28912 L -323.10556,-239.28912 C -318.90224,-239.28912 -314.94642,-237.65637 -311.97221,-234.68812 C -308.99801,-231.72406 -307.36199,-227.78034 -307.36199,-223.58963 L -307.36199,46.646709"
       style="fill:white;fill-rule:nonzero;stroke:none"
       id="path130" />
    <path
       d="M -616.84717,42.108509 L -454.23489,42.108509 L -454.23489,-120.0358 L -616.84717,-120.0358 L -616.84717,42.108509 z "
       style="fill:#176fc1;fill-rule:nonzero;stroke:none"
       id="path128" />
    <path
       d="M -732.23712,-157.88623 L -732.4175,-157.88623 C -734.84637,-154.57049 -736.82218,-153.23499 -741.22686,-153.23499 C -745.45115,-153.23499 -751.1185,-155.29477 -751.1185,-165.33406 C -751.1185,-175.73341 -748.24917,-181.41871 -736.66697,-182.10112 C -735.41268,-182.17648 -734.12484,-182.21415 -732.23712,-182.12205 L -732.23712,-185.23683 C -732.23712,-188.28043 -733.4075,-190.61233 -736.82218,-190.61233 C -739.15875,-190.61233 -741.49953,-189.00052 -742.03648,-186.04064 L -750.93812,-186.04064 C -750.66545,-190.07646 -749.23078,-193.48011 -746.80192,-195.89992 C -744.37305,-198.32392 -740.95838,-199.75571 -736.82218,-199.75571 C -729.18321,-199.75571 -723.067,-194.91609 -723.067,-185.41266 L -723.067,-153.77086 L -732.23712,-153.77086 L -732.23712,-157.88623 z M -732.23712,-174.95053 C -733.22712,-175.13054 -734.01157,-174.94215 -734.817,-174.85842 C -738.7938,-174.44813 -741.94838,-171.96971 -741.94838,-167.1259 C -741.94838,-163.63014 -740.14876,-161.30243 -737.18294,-161.30243 C -734.12484,-161.30243 -732.23712,-163.45431 -732.23712,-167.1259 L -732.23712,-174.95053"
       style="fill:black;fill-rule:nonzero;stroke:none"
       id="path132" />
    <path
       d="M -596.74087,-172.36743 L -596.74087,-166.80353 C -596.74087,-163.93576 -595.03353,-162.31976 -592.2481,-162.31976 C -588.74114,-162.31976 -587.93151,-164.29999 -587.75113,-166.27184 L -578.58101,-166.27184 C -578.58101,-162.50815 -579.93178,-159.632 -582.26836,-157.21219 C -584.69303,-154.70028 -588.01961,-153.17638 -592.2481,-153.17638 C -597.81896,-153.17638 -602.04326,-155.77621 -604.20365,-159.71993 C -605.46213,-162.05182 -605.91099,-165.27964 -605.91099,-168.95541 L -605.91099,-183.92645 C -605.91099,-187.59803 -605.46213,-190.82584 -604.20365,-193.15774 C -602.04326,-197.10145 -597.81896,-199.70128 -592.2481,-199.70128 C -583.79531,-199.70128 -578.58101,-193.51778 -578.58101,-185.53825 L -578.58101,-172.36743 L -596.74087,-172.36743 z M -596.74087,-180.15857 L -587.75113,-180.15857 L -587.75113,-185.35823 C -587.75113,-188.76608 -589.45847,-190.55791 -592.2481,-190.55791 C -595.03353,-190.55791 -596.74087,-188.76608 -596.74087,-185.35823 L -596.74087,-180.15857"
       style="fill:black;fill-rule:nonzero;stroke:none"
       id="path134" />
    <path
       d="M -633.2913,-149.76017 C -633.2032,-147.60829 -631.58396,-145.2764 -628.43776,-145.2764 C -625.47195,-145.2764 -624.21347,-147.33616 -624.21347,-150.20813 L -624.20927,-156.52979 L -624.38965,-156.52979 C -625.61038,-154.00112 -627.81691,-153.40663 -631.50426,-153.40663 C -635.1916,-153.40663 -639.31522,-154.75889 -640.93446,-157.71876 C -642.01256,-159.69061 -642.46141,-162.47048 -642.46141,-167.49013 L -642.46141,-184.78887 C -642.46141,-191.33242 -642.19294,-193.93225 -641.02255,-195.81619 C -639.4956,-198.236 -637.24712,-199.80595 -632.84244,-199.93992 C -629.17607,-200.04877 -626.55004,-199.42498 -624.21347,-196.82933 L -624.21347,-199.39986 L -615.04335,-199.39986 L -615.04335,-149.48805 C -615.04335,-143.30454 -619.08726,-136.13301 -628.79853,-136.13301 C -634.36939,-136.13301 -641.29103,-139.36083 -642.46141,-149.76017 L -633.2913,-149.76017 z M -633.2913,-167.93809 C -633.2913,-165.07031 -632.30129,-162.55839 -628.79853,-162.55839 C -626.18928,-162.55839 -624.21347,-164.62235 -624.21347,-167.49013 L -624.21347,-185.14891 C -624.21347,-188.46464 -626.0089,-190.79654 -628.79853,-190.79654 C -631.94472,-190.79654 -633.2913,-188.28462 -633.2913,-184.60885 L -633.2913,-167.93809"
       style="fill:black;fill-rule:nonzero;stroke:none"
       id="path136" />
    <path
       d="M -496.50301,-199.21147 L -487.33289,-199.21147 L -487.33289,-194.81979 L -487.15251,-194.81979 C -485.26479,-197.68756 -482.74783,-199.74734 -478.52353,-199.74734 C -474.56772,-199.74734 -471.96266,-197.41963 -470.34342,-195.17564 C -468.09494,-197.68756 -465.66607,-199.74734 -460.81254,-199.74734 C -456.22748,-199.74734 -450.8328,-196.79165 -450.8328,-188.6321 L -450.8328,-153.76249 L -460.00292,-153.76249 L -460.00292,-185.22845 C -460.00292,-188.54418 -461.62216,-190.60396 -464.49988,-190.60396 C -467.91456,-190.60396 -469.08494,-188.36416 -469.08494,-184.33253 L -469.08494,-153.76249 L -478.25506,-153.76249 L -478.25506,-185.22845 C -478.25506,-188.54418 -479.87011,-190.60396 -482.74783,-190.60396 C -486.1667,-190.60396 -487.33289,-188.36416 -487.33289,-184.33253 L -487.33289,-153.76249 L -496.50301,-153.76249 L -496.50301,-199.21147"
       style="fill:black;fill-rule:nonzero;stroke:none"
       id="path138" />
    <path
       d="M -569.2389,-199.15704 L -560.06879,-199.15704 L -560.07298,-196.93399 L -559.8926,-196.93399 C -556.71284,-200.09482 -556.73801,-200.09482 -552.51372,-200.09482 C -547.92866,-200.09482 -541.82084,-196.73722 -541.82084,-188.58187 L -541.82084,-153.71225 L -550.98676,-153.71225 L -550.98676,-185.17403 C -550.98676,-188.48976 -552.60601,-190.55372 -555.48373,-190.55372 C -558.8984,-190.55372 -560.06879,-188.31392 -560.06879,-184.27811 L -560.06879,-153.71225 L -569.2389,-153.71225 L -569.2389,-199.15704"
       style="fill:black;fill-rule:nonzero;stroke:none"
       id="path140" />
    <path
       d="M -533.38064,-183.74224 C -533.38064,-187.41801 -532.93178,-190.64582 -531.6733,-192.97353 C -529.51711,-196.92143 -524.97819,-199.51708 -519.40733,-199.51708 C -513.83226,-199.51708 -509.29754,-196.92143 -507.13715,-192.97772 C -505.87868,-190.64582 -505.42982,-187.41801 -505.42982,-183.74224 L -505.42982,-168.77539 C -505.42982,-165.09961 -505.87868,-161.8718 -507.13715,-159.53991 C -509.29754,-155.59619 -513.83226,-152.99636 -519.40733,-152.99636 C -524.97819,-152.99636 -529.51711,-155.59619 -531.6733,-159.53991 C -532.93178,-161.8718 -533.38064,-165.09543 -533.38064,-168.7712 L -533.38064,-183.74224 z M -524.21052,-167.33941 C -524.21052,-163.93158 -522.19276,-162.13974 -519.40733,-162.13974 C -516.6177,-162.13974 -514.59994,-163.93158 -514.59994,-167.33941 L -514.59994,-185.17821 C -514.59994,-188.58187 -516.6177,-190.37788 -519.40733,-190.37788 C -522.19276,-190.37788 -524.21052,-188.58187 -524.21052,-185.17821 L -524.21052,-167.33941"
       style="fill:black;fill-rule:nonzero;stroke:none"
       id="path142" />
    <path
       d="M -659.20758,-187.70269 C -659.29567,-190.75048 -662.07271,-190.81329 -664.50158,-190.81329 C -667.37511,-190.81329 -668.99435,-188.5693 -668.99435,-186.24159 C -668.99435,-184.53768 -669.14117,-183.12681 -665.7265,-181.78294 L -659.74033,-181.28893 C -649.27818,-179.04913 -650.7464,-171.98645 -650.7464,-166.61095 C -650.7464,-159.07938 -656.49765,-152.89588 -664.40929,-152.89588 C -671.6036,-152.89588 -677.71561,-157.64759 -678.07218,-166.61095 L -669.44321,-166.61095 C -669.08244,-164.09903 -667.91625,-161.4992 -664.50158,-161.4992 C -661.89233,-161.4992 -659.37537,-163.38314 -659.37537,-166.43093 C -659.37537,-168.93866 -658.59931,-172.30882 -663.96463,-173.53548 L -668.83075,-174.30998 C -674.58619,-176.46186 -677.62332,-180.05391 -677.62332,-186.14949 C -677.62332,-193.86108 -671.51131,-199.41661 -664.14081,-199.41661 C -656.67803,-199.41661 -650.6667,-195.23008 -650.57441,-187.70269 L -659.20758,-187.70269"
       style="fill:black;fill-rule:nonzero;stroke:none"
       id="path144" />
    <path
       d="M -686.87314,-153.77086 L -696.04326,-153.77086 L -696.04326,-156.61352 L -696.21945,-156.61352 C -698.2456,-154.30674 -698.81611,-153.55317 -703.0404,-153.55317 C -706.39635,-153.55317 -714.34574,-157.5178 -714.2996,-166.82865 L -714.2954,-199.21984 L -705.12528,-199.21984 L -705.12528,-167.75388 C -705.12528,-164.43814 -703.50604,-162.37837 -700.62832,-162.37837 C -697.21365,-162.37837 -696.04326,-164.61817 -696.04326,-168.64979 L -696.04326,-199.21984 L -686.87314,-199.21984 L -686.87314,-153.77086"
       style="fill:black;fill-rule:nonzero;stroke:none"
       id="path146" />
    <path
       d="M -377.71097,-172.41349 L -377.71097,-166.84958 C -377.71097,-163.98181 -376.00363,-162.36581 -373.2182,-162.36581 C -369.71124,-162.36581 -368.90161,-164.34604 -368.72123,-166.3179 L -359.55111,-166.3179 C -359.55111,-162.55421 -360.90188,-159.67806 -363.23846,-157.25825 C -365.66732,-154.74633 -368.9939,-153.22243 -373.2182,-153.22243 C -378.79326,-153.22243 -383.01755,-155.82227 -385.17375,-159.76597 C -386.43223,-162.09787 -386.88109,-165.32569 -386.88109,-169.00146 L -386.88109,-183.97249 C -386.88109,-187.64408 -386.43223,-190.8719 -385.17375,-193.20379 C -383.01755,-197.14751 -378.79326,-199.74734 -373.2182,-199.74734 C -364.76541,-199.74734 -359.55111,-193.56384 -359.55111,-185.58431 L -359.55111,-172.41349 L -377.71097,-172.41349 z M -377.71097,-180.20461 L -368.72123,-180.20461 L -368.72123,-185.40429 C -368.72123,-188.81212 -370.42857,-190.60396 -373.2182,-190.60396 C -376.00363,-190.60396 -377.71097,-188.81212 -377.71097,-185.40429 L -377.71097,-180.20461"
       style="fill:black;fill-rule:nonzero;stroke:none"
       id="path148" />
    <path
       d="M -441.95213,-199.17378 L -432.78201,-199.17378 L -432.78201,-194.78211 L -432.60583,-194.78211 C -430.71811,-197.64989 -428.20115,-199.71385 -423.97266,-199.71385 C -420.01684,-199.71385 -417.41179,-197.38195 -415.79255,-195.14215 C -413.54406,-197.64989 -411.11939,-199.71385 -406.26586,-199.71385 C -401.6808,-199.71385 -396.28612,-196.75397 -396.28612,-188.59861 L -396.28612,-153.729 L -405.45624,-153.729 L -405.45624,-185.19077 C -405.45624,-188.50651 -407.07129,-190.57046 -409.94901,-190.57046 C -413.36368,-190.57046 -414.53407,-188.32649 -414.53407,-184.29486 L -414.53407,-153.729 L -423.70418,-153.729 L -423.70418,-185.19077 C -423.70418,-188.50651 -425.32343,-190.57046 -428.20115,-190.57046 C -431.61582,-190.57046 -432.78201,-188.32649 -432.78201,-184.29486 L -432.78201,-153.729 L -441.95213,-153.729 L -441.95213,-199.17378"
       style="fill:black;fill-rule:nonzero;stroke:none"
       id="path150" />
    <path
       d="M -350.47328,-199.20309 L -341.30317,-199.20309 L -341.30736,-196.98004 L -341.12698,-196.98004 C -337.94722,-200.14087 -337.97239,-200.14087 -333.7439,-200.14087 C -329.15884,-200.14087 -323.05102,-196.78328 -323.05102,-188.62791 L -323.05102,-153.75831 L -332.22114,-153.75831 L -332.22114,-185.22008 C -332.22114,-188.53581 -333.84039,-190.59978 -336.71811,-190.59978 C -340.13278,-190.59978 -341.30317,-188.35998 -341.30317,-184.32416 L -341.30317,-153.75831 L -350.47328,-153.75831 L -350.47328,-199.20309"
       style="fill:black;fill-rule:nonzero;stroke:none"
       id="path152" />
    <path
       d="M -515.0446,11.408684 C -522.91009,22.662076 -535.98569,30.038743 -550.75185,30.038743 C -562.3718,30.038743 -573.2954,25.525664 -581.50908,17.332624 C -589.72694,9.1437709 -594.25327,-1.7495807 -594.25327,-13.33371 C -594.25327,-24.917838 -589.72694,-35.81119 -581.50908,-44.00423 C -577.04567,-48.454511 -571.78103,-51.820482 -566.04237,-53.963985 L -568.93687,-62.914786 C -589.19838,-55.500442 -603.69187,-36.074942 -603.69187,-13.33371 C -603.69187,0.76652398 -598.18812,14.021078 -588.1874,23.989206 C -578.18669,33.961522 -564.89296,39.454249 -550.75185,39.454249 C -536.61074,39.454249 -523.317,33.961522 -513.32048,23.989206 C -512.82548,23.499383 -512.34306,22.996999 -511.86904,22.490429 L -515.0446,11.408684 M -464.08039,15.524043 L -486.05763,19.90734 L -499.99738,-27.978192 L -540.533,-27.978192 L -547.00158,-47.332522 L -523.47641,-47.332522 L -523.47641,-56.748028 L -550.14778,-56.748028 L -557.37984,-78.375642 C -556.00809,-78.044907 -554.58601,-77.852326 -553.11359,-77.852326 C -543.07512,-77.852326 -534.93696,-85.965822 -534.93696,-95.975816 C -534.93696,-105.98581 -543.07512,-114.0993 -553.11359,-114.0993 C -563.15206,-114.0993 -571.29023,-105.98581 -571.29023,-95.975816 C -571.29023,-94.71567 -571.16018,-93.489016 -570.91268,-92.304229 L -570.44285,-87.686486 L -547.33717,-18.566872 L -507.08682,-18.566872 L -492.70659,30.834184 L -488.45293,29.984318 L -462.22623,24.755342 L -464.08039,15.524043"
       style="fill:white;fill-rule:nonzero;stroke:none"
       id="path154" />
  </g>
</svg>
