<?xml version="1.0" encoding="UTF-8" standalone="no"?>
<!-- Created with Inkscape (http://www.inkscape.org/) -->
<svg
   xmlns:svg="http://www.w3.org/2000/svg"
   xmlns="http://www.w3.org/2000/svg"
   version="1.0"
   width="469.99997"
   height="470.00003"
   id="svg2706">
  <defs
     id="defs2708"><clipPath
   id="id70">
      <path
   d="M 408.02,532.06 L 521.06,532.06 L 521.06,420.1 L 408.02,420.1 L 408.02,532.06 z "
   id="path21" />

    </clipPath>

        
        
        
        
      </defs>
  <g
     transform="translate(776.0199,390.2296)"
     id="layer1">
    <path
       d="M -311.85924,-384.39025 C -315.62628,-388.1558 -320.63503,-390.22957 -325.96259,-390.22957 L -756.07715,-390.22957 C -767.07207,-390.22957 -776.01985,-381.28379 -776.01985,-370.28941 L -776.01985,59.830289 C -776.01985,65.153262 -773.94336,70.16139 -770.17631,73.931129 C -766.40927,77.696671 -761.40472,79.770447 -756.07715,79.770447 L -325.96259,79.770447 C -320.63503,79.770447 -315.62628,77.696671 -311.85924,73.931129 C -308.09219,70.16139 -306.01989,65.153262 -306.01989,59.830289 L -306.01989,-370.28941 C -306.01989,-375.61239 -308.09219,-380.62051 -311.85924,-384.39025 z "
       style="fill:black;fill-rule:nonzero;stroke:none"
       id="path2733" />
    <path
       d="M -310.21482,59.830289 C -310.21482,68.511604 -317.27909,75.572519 -325.96259,75.572519 L -756.07715,75.572519 C -760.28047,75.572519 -764.23629,73.935327 -767.2105,70.963194 C -770.1847,67.986863 -771.82073,64.032415 -771.82073,59.830289 L -771.82073,-370.28941 C -771.82073,-374.49154 -770.1847,-378.44599 -767.2105,-381.42232 C -764.23629,-384.39445 -760.28047,-386.03164 -756.07715,-386.03164 L -325.96259,-386.03164 C -321.75508,-386.03164 -317.80345,-384.39445 -314.82925,-381.42232 C -311.85504,-378.44599 -310.21482,-374.49154 -310.21482,-370.28941 L -310.21482,59.830289"
       style="fill:white;fill-rule:nonzero;stroke:none"
       id="path120" />
    <path
       d="M -657.50049,-342.49493 L -657.50049,-188.62408 C -657.50049,-149.11738 -642.11349,-111.96991 -614.17526,-84.032703 C -586.23702,-56.095493 -549.09092,-40.705888 -509.57887,-40.705888 L -355.71304,-40.705888 L -355.71304,-128.83299 L -509.57887,-128.83299 C -525.55317,-128.83299 -540.56682,-135.05012 -551.85957,-146.34675 C -563.15232,-157.63917 -569.37341,-172.65516 -569.37341,-188.62408 L -569.37341,-342.49493 L -657.50049,-342.49493 M -729.19185,-68.475182 L -647.36135,-68.475182 L -647.36135,-109.38819 L -729.19185,-109.38819 L -729.19185,-68.475182 z M -629.65874,30.986326 L -588.74559,30.986326 L -588.74559,-50.843885 L -629.65874,-50.843885 L -629.65874,30.986326 z "
       style="fill:black;fill-rule:nonzero;stroke:none"
       id="path122" />
  </g>
</svg>
