<?xml version="1.0" encoding="UTF-8" standalone="no"?>
<!-- Created with Inkscape (http://www.inkscape.org/) -->
<svg
   xmlns:dc="http://purl.org/dc/elements/1.1/"
   xmlns:cc="http://web.resource.org/cc/"
   xmlns:rdf="http://www.w3.org/1999/02/22-rdf-syntax-ns#"
   xmlns:svg="http://www.w3.org/2000/svg"
   xmlns="http://www.w3.org/2000/svg"
   xmlns:sodipodi="http://sodipodi.sourceforge.net/DTD/sodipodi-0.dtd"
   xmlns:inkscape="http://www.inkscape.org/namespaces/inkscape"
   version="1.0"
   width="469.99997"
   height="230.00002"
   id="svg2414"
   sodipodi:version="0.32"
   inkscape:version="0.44"
   sodipodi:docname="Zusatztafel_c.svg"
   sodipodi:docbase="C:\Dokumente und Einstellungen\cfaerber\Desktop\AT-StVZO">
  <metadata
     id="metadata18">
    <rdf:RDF>
      <cc:Work
         rdf:about="">
        <dc:format>image/svg+xml</dc:format>
        <dc:type
           rdf:resource="http://purl.org/dc/dcmitype/StillImage" />
      </cc:Work>
    </rdf:RDF>
  </metadata>
  <sodipodi:namedview
     inkscape:window-height="968"
     inkscape:window-width="1280"
     inkscape:pageshadow="2"
     inkscape:pageopacity="0.0"
     guidetolerance="10.0"
     gridtolerance="10.0"
     objecttolerance="10.0"
     borderopacity="1.0"
     bordercolor="#666666"
     pagecolor="#ffffff"
     id="base"
     inkscape:zoom="1.6391303"
     inkscape:cx="234.99998"
     inkscape:cy="115.00001"
     inkscape:window-x="-4"
     inkscape:window-y="-4"
     inkscape:current-layer="svg2414" />
  <defs
     id="defs2416">
    <clipPath
       id="id69">
      <path
         d="M 408.02,680.2 L 521.06,680.2 L 521.06,624.22 L 408.02,624.22 L 408.02,680.2 z "
         id="path12" />
    </clipPath>
  </defs>
  <path
     style="fill:black;fill-rule:nonzero;stroke:none"
     d="M 464.15609,5.7909058 C 460.38904,2.0551943 455.38449,0.000137045 450.05693,0.000137045 L 19.942364,0.000137045 C 8.947452,0.000137045 -0.00033367,8.8651716 -0.00033367,19.764463 L -0.00033367,210.23583 C -0.00033367,215.51491 2.0719618,220.47783 5.8390089,224.20938 C 9.606056,227.94509 14.614802,230.00015 19.942364,230.00015 L 450.05693,230.00015 C 455.38449,230.00015 460.38904,227.94509 464.15609,224.20938 C 467.92313,220.47783 469.99962,215.51491 469.99962,210.23583 L 469.99962,19.764463 C 469.99962,14.485379 467.92313,9.5224572 464.15609,5.7909058 z "
     id="path1903" />
  <path
     style="fill:white;fill-rule:nonzero;stroke:none"
     d="M 465.8005,210.23583 C 465.8005,218.83878 458.74043,225.84012 450.05693,225.84012 L 19.942364,225.84012 C 15.734849,225.84012 11.783225,224.2177 8.8090193,221.26824 C 5.834814,218.32293 4.1945963,214.40418 4.1945963,210.23583 L 4.1945963,19.764463 C 4.1945963,15.596108 5.834814,11.677355 8.8090193,8.7320505 C 11.783225,5.7825857 15.734849,4.160172 19.942364,4.160172 L 450.05693,4.160172 C 454.26444,4.160172 458.21607,5.7825857 461.19027,8.7320505 C 464.16448,11.677355 465.8005,15.596108 465.8005,19.764463 L 465.8005,210.23583"
     id="path102" />
  <path
     d="M 219.07569,25.209949 L 167.67102,25.209949 L 167.67102,37.943816 L 186.95092,37.943816 L 186.95092,114.35534 L 199.79999,114.35534 L 199.79999,37.943816 L 219.07569,37.943816 L 219.07569,25.209949"
     style="fill:black;fill-rule:nonzero;stroke:none"
     id="path86" />
  <path
     d="M 229.31551,54.142993 C 229.31551,37.964616 242.55052,24.852186 258.87299,24.852186 C 275.19966,24.852186 288.43047,37.964616 288.43047,54.142993 L 288.43047,87.252711 C 288.43047,103.43109 275.19966,116.54352 258.87299,116.54352 C 242.55052,116.54352 229.31551,103.43109 229.31551,87.252711 L 229.31551,54.142993 z M 242.16878,87.252711 C 242.16878,96.396468 249.64834,103.80965 258.87299,103.80965 C 268.10184,103.80965 275.5814,96.396468 275.5814,87.252711 L 275.5814,54.142993 C 275.5814,44.999236 268.10184,37.586053 258.87299,37.586053 C 249.64834,37.586053 242.16878,44.999236 242.16878,54.142993 L 242.16878,87.252711"
     style="fill:black;fill-rule:nonzero;stroke:none"
     id="path88" />
  <path
     d="M 336.83996,25.209949 C 330.96286,25.209949 308.08372,25.209949 308.08372,25.209949 L 308.08372,114.35534 L 320.93698,114.35534 L 320.93698,82.518591 C 320.93698,82.518591 330.96286,82.518591 336.83996,82.518591 C 352.81006,82.518591 365.75561,69.689043 365.75561,53.86427 C 365.75561,38.039497 352.81006,25.209949 336.83996,25.209949 z M 336.83996,69.784724 C 328.73116,69.784724 320.93698,69.784724 320.93698,69.784724 L 320.93698,37.943816 C 320.93698,37.943816 331.31104,37.943816 336.83996,37.943816 C 345.71224,37.943816 352.90235,45.074116 352.90235,53.86427 C 352.90235,62.654424 345.71224,69.784724 336.83996,69.784724"
     style="fill:black;fill-rule:nonzero;stroke:none"
     id="path90" />
  <path
     d="M 99.54116,91.87451 C 100.60667,105.41958 113.13693,116.07343 128.40647,116.07343 C 144.37657,116.07343 157.32213,104.38374 157.32213,89.965054 C 157.32213,75.546373 144.37657,63.856674 128.40647,63.856674 C 119.5342,63.856674 112.34409,57.870384 112.34409,50.486322 C 112.34409,43.10226 119.5342,37.115969 128.40647,37.115969 C 135.92379,37.115969 142.27911,41.496486 144.02839,47.303895 L 157.0914,47.303895 C 155.32953,34.403626 143.16843,24.382102 128.40647,24.382102 C 112.43638,24.382102 99.490821,36.06764 99.490821,50.486322 C 99.490821,64.905003 112.43638,76.594701 128.40647,76.594701 C 137.27875,76.594701 144.46886,82.580992 144.46886,89.965054 C 144.46886,97.349116 137.27875,103.33541 128.40647,103.33541 C 120.31026,103.33541 113.61096,98.347524 112.50349,91.86203 L 99.54116,91.87451"
     style="fill:black;fill-rule:nonzero;stroke:none"
     id="path92" />
  <path
     d="M 184.8157,135.73376 C 174.1396,135.73376 165.48546,144.30759 165.48546,154.88656 L 165.48546,185.5377 C 165.48546,196.11667 174.1396,204.6905 184.8157,204.6905 C 195.49179,204.6905 204.14593,196.11667 204.14593,185.5377 L 204.14593,154.88656 C 204.14593,144.30759 195.49179,135.73376 184.8157,135.73376 z M 194.48082,185.5377 L 194.48082,185.5377 C 194.48082,190.8251 190.15165,195.1141 184.8157,195.1141 C 179.47975,195.1141 175.15058,190.8251 175.15058,185.5377 L 175.15058,154.88656 C 175.15058,149.59916 179.47975,145.31016 184.8157,145.31016 C 190.15165,145.31016 194.48082,149.59916 194.48082,154.88656 L 194.48082,185.5377"
     style="fill:black;fill-rule:nonzero;stroke:none"
     id="path94" />
  <path
     d="M 314.97179,155.1528 C 309.19537,155.1528 304.01463,157.66546 300.47411,161.64662 C 296.9294,157.66546 291.74866,155.1528 285.97643,155.1528 C 282.62049,155.1528 279.26455,156.42161 276.31132,158.51411 L 276.31132,156.10961 L 266.6462,156.10961 L 266.6462,203.99993 L 276.31132,203.99993 L 276.31132,174.30976 C 276.31132,169.0182 280.63629,164.7292 285.97643,164.7292 C 291.31239,164.7292 295.64155,169.0182 295.64155,174.30976 L 295.64155,203.99993 L 305.30667,203.99993 L 305.30667,174.30976 C 305.30667,169.0182 309.63164,164.7292 314.97179,164.7292 C 320.30774,164.7292 324.63271,169.0182 324.63271,174.30976 L 324.63271,203.99993 L 334.29783,203.99993 L 334.29783,174.30976 C 334.29783,163.73079 325.64369,155.1528 314.97179,155.1528"
     style="fill:black;fill-rule:nonzero;stroke:none"
     id="path96" />
  <path
     d="M 144.3556,136.95681 L 133.72564,148.05162 L 133.72564,161.85878 L 144.3556,150.82221 L 144.3556,203.99993 L 154.02072,203.99993 L 154.02072,136.95681 L 144.3556,136.95681"
     style="fill:black;fill-rule:nonzero;stroke:none"
     id="path98" />
  <path
     d="M 234.47108,135.73376 C 223.79918,135.73376 215.14504,144.30759 215.14504,154.88656 L 215.14504,185.5377 C 215.14504,196.11667 223.79918,204.6905 234.47108,204.6905 C 245.14718,204.6905 253.80132,196.11667 253.80132,185.5377 L 253.80132,154.88656 C 253.80132,144.30759 245.14718,135.73376 234.47108,135.73376 z M 244.1362,185.5377 L 244.1362,185.5377 C 244.1362,190.8251 239.81123,195.1141 234.47108,195.1141 C 229.13513,195.1141 224.81016,190.8251 224.81016,185.5377 L 224.81016,154.88656 C 224.81016,149.59916 229.13513,145.31016 234.47108,145.31016 C 239.81123,145.31016 244.1362,149.59916 244.1362,154.88656 L 244.1362,185.5377"
     style="fill:black;fill-rule:nonzero;stroke:none"
     id="path100" />
</svg>
