<?xml version="1.0" encoding="UTF-8" standalone="no"?>
<!-- Created with Inkscape (http://www.inkscape.org/) -->
<svg
   xmlns:svg="http://www.w3.org/2000/svg"
   xmlns="http://www.w3.org/2000/svg"
   version="1.0"
   width="470"
   height="310"
   id="svg2639">
  <defs
     id="defs2641" />
  <g
     transform="translate(796.0195,234.9395)"
     id="layer1">
    <path
       d="M -331.8589,-229.11404 C -335.62598,-232.86918 -340.63477,-234.93953 -345.95818,-234.93953 L -776.07662,-234.93953 C -787.07583,-234.93953 -796.0195,-226.01689 -796.0195,-215.05323 L -796.0195,55.178357 C -796.0195,60.488356 -793.94719,65.479838 -790.1801,69.239167 C -786.41302,72.994304 -781.40423,75.060468 -776.07662,75.060468 L -345.95818,75.060468 C -340.63477,75.060468 -335.62598,72.994304 -331.8589,69.239167 C -328.09181,65.479838 -326.0195,60.488356 -326.0195,55.178357 L -326.0195,-215.05323 C -326.0195,-220.36742 -328.09181,-225.3589 -331.8589,-229.11404 z "
       style="fill:black;fill-rule:nonzero;stroke:none"
       id="path2651" />
    <path
       d="M -330.21447,55.178357 C -330.21447,63.832775 -337.27879,70.877848 -345.95818,70.877848 L -776.07662,70.877848 C -780.28418,70.877848 -784.24003,69.243358 -787.21426,66.28032 C -790.18849,63.313091 -791.82453,59.369358 -791.82453,55.178357 L -791.82453,-215.05323 C -791.82453,-219.24842 -790.18849,-223.19215 -787.21426,-226.15519 C -784.24003,-229.12242 -780.28418,-230.75272 -776.07662,-230.75272 L -345.95818,-230.75272 C -341.75482,-230.75272 -337.79897,-229.12242 -334.82474,-226.15519 C -331.85051,-223.19215 -330.21447,-219.24842 -330.21447,-215.05323 L -330.21447,55.178357"
       style="fill:white;fill-rule:nonzero;stroke:none"
       id="path164" />
    <path
       d="M -440.96162,-56.528598 L -450.40449,-72.835785 L -487.65161,-51.39043 L -537.24032,-79.939533 L -487.65581,-108.48864 L -450.40449,-87.04328 L -440.96162,-103.35047 L -468.77006,-119.36009 L -441.65798,-134.96738 L -453.54652,-155.50329 L -480.6586,-139.89181 L -480.66279,-171.90687 L -499.54434,-171.90687 L -499.54434,-129.02035 L -549.12886,-100.47544 L -549.12886,-157.56526 L -511.88174,-179.00643 L -521.32462,-195.31361 L -549.12886,-179.30818 L -549.12886,-210.52276 L -572.91014,-210.52276 L -572.91014,-179.30818 L -600.71858,-195.31361 L -610.15726,-179.00643 L -572.91014,-157.56526 L -572.91014,-100.47544 L -622.49466,-129.02035 L -622.49466,-171.90687 L -641.3804,-171.90687 L -641.3804,-139.89181 L -668.49248,-155.4991 L -680.38102,-134.96319 L -653.26894,-119.3559 L -681.07319,-103.35047 L -671.63451,-87.04328 L -634.38319,-108.48444 L -584.79868,-79.939533 L -634.38319,-51.39043 L -671.63451,-72.831594 L -681.07319,-56.524407 L -653.26894,-40.518972 L -680.38102,-24.911683 L -668.49248,-4.375775 L -641.37621,-19.987256 L -641.37621,12.027805 L -622.49466,12.027805 L -622.49466,-30.858714 L -572.91014,-59.403625 L -572.91014,-2.3138023 L -610.15726,19.131553 L -600.71438,35.43874 L -572.91014,19.429114 L -572.90594,50.647884 L -549.12886,50.643693 L -549.12886,19.429114 L -521.32042,35.434549 L -511.88174,19.131553 L -549.12886,-2.3138023 L -549.12886,-59.403625 L -499.54434,-30.858714 L -499.54434,12.027805 L -480.6586,12.027805 L -480.6586,-19.987256 L -453.54652,-4.379966 L -441.65798,-24.911683 L -468.77006,-40.518972 L -440.96162,-56.528598"
       style="fill:black;fill-rule:nonzero;stroke:none"
       id="path166" />
  </g>
</svg>
