<?xml version="1.0" encoding="UTF-8" standalone="no"?>
<!-- Created with Inkscape (http://www.inkscape.org/) -->
<svg
   xmlns:svg="http://www.w3.org/2000/svg"
   xmlns="http://www.w3.org/2000/svg"
   version="1.0"
   width="470"
   height="310"
   id="svg2600">
  <defs
     id="defs2602" />
  <g
     transform="translate(804.5514,232.0824)"
     id="layer1">
    <path
       d="M -340.39075,-226.26109 C -344.16049,-230.01623 -349.16861,-232.08239 -354.49159,-232.08239 L -784.61127,-232.08239 C -795.60565,-232.08239 -804.55143,-223.16394 -804.55143,-212.20028 L -804.55143,58.031309 C -804.55143,63.345499 -802.47765,68.336982 -798.71211,72.092119 C -794.94237,75.847256 -789.93844,77.917611 -784.61127,77.917611 L -354.49159,77.917611 C -349.16861,77.917611 -344.16049,75.847256 -340.39075,72.092119 C -336.62521,68.336982 -334.55143,63.345499 -334.55143,58.031309 L -334.55143,-212.20028 C -334.55143,-217.51028 -336.62521,-222.50595 -340.39075,-226.26109 z "
       style="fill:black;fill-rule:nonzero;stroke:none"
       id="path2629" />
    <path
       d="M -338.74936,58.031309 C -338.74936,66.689918 -345.81027,73.7308 -354.49159,73.7308 L -784.61127,73.7308 C -788.8134,73.7308 -792.76785,72.100501 -795.74418,69.133272 C -798.71631,66.170234 -800.3535,62.226501 -800.3535,58.031309 L -800.3535,-212.20028 C -800.3535,-216.39128 -798.71631,-220.33501 -795.74418,-223.30224 C -792.76785,-226.26528 -788.8134,-227.89977 -784.61127,-227.89977 L -354.49159,-227.89977 C -350.28946,-227.89977 -346.33501,-226.26528 -343.35868,-223.30224 C -340.38655,-220.33501 -338.74936,-216.39128 -338.74936,-212.20028 L -338.74936,58.031309"
       style="fill:white;fill-rule:nonzero;stroke:none"
       id="path208" />
    <path
       d="M -516.04884,-68.394443 C -510.78044,-68.394443 -505.66736,-67.749029 -500.76838,-66.562976 C -499.75668,-73.398499 -499.16058,-80.548348 -502.58189,-87.027636 L -502.93451,-88.075386 C -503.984,-91.5623 -508.93335,-93.661991 -508.53035,-96.092772 C -508.17773,-98.184082 -509.08868,-101.89312 -508.53035,-103.93833 C -505.90665,-113.52734 -508.61431,-118.15001 -508.61431,-118.15001 C -507.48087,-121.20106 -508.70247,-122.32844 -509.22721,-123.64023 C -509.41192,-124.09704 -511.6746,-124.68798 -513.07671,-124.68798 C -515.5241,-124.33593 -516.92201,-123.64023 -519.3694,-122.59247 C -520.41888,-122.24462 -522.12744,-121.5573 -523.56733,-121.20106 C -526.36315,-120.50117 -526.27499,-120.02339 -528.37396,-118.97564 C -529.77187,-118.27993 -530.9095,-115.88268 -530.20845,-115.18278 C -529.15897,-113.79137 -526.10288,-115.18278 -525.31367,-114.92294 C -525.31367,-114.57509 -524.35234,-115.01095 -524.96524,-113.79137 C -525.851,-112.02696 -528.8987,-111.2181 -528.63843,-107.73118 C -527.93737,-107.38333 -527.32447,-107.33723 -526.62762,-107.33723 C -526.62762,-107.33723 -526.12806,-104.26103 -525.31367,-102.71875 C -522.606,-97.576387 -519.3694,-99.231832 -519.3694,-99.231832 C -517.97149,-98.184082 -519.02097,-92.258006 -519.71783,-88.771093 C -520.41888,-85.979886 -523.2147,-83.540723 -524.96524,-81.449413 C -528.11368,-78.310353 -529.86002,-75.87119 -532.66004,-72.384277 C -533.70532,-70.988673 -534.40638,-69.245217 -534.75481,-67.849613 C -535.04866,-67.049132 -535.25016,-66.244459 -535.40968,-65.439787 C -529.2975,-67.355075 -522.79491,-68.394443 -516.04884,-68.394443 M -577.61985,-4.0374238 C -577.61985,-37.946817 -550.05206,-65.435596 -516.04884,-65.435596 C -482.04143,-65.435596 -454.47363,-37.946817 -454.47363,-4.0374238 C -454.47363,29.867779 -482.04143,57.356558 -516.04884,57.356558 C -550.05206,57.356558 -577.61985,29.867779 -577.61985,-4.0374238 z M -516.04884,29.24751 C -497.61154,29.24751 -482.66272,14.344309 -482.66272,-4.0374238 C -482.66272,-22.423348 -497.61154,-37.326549 -516.04884,-37.326549 C -534.48194,-37.326549 -549.43076,-22.423348 -549.43076,-4.0374238 C -549.43076,14.344309 -534.48194,29.24751 -516.04884,29.24751 M -420.05482,11.129811 L -451.78696,11.129811 C -450.63253,6.2598669 -450.02383,1.1803731 -450.02383,-4.0374238 L -420.05482,-4.0374238 L -420.05482,11.129811 M -516.04884,8.5355807 C -509.08028,8.5355807 -503.43407,2.9070657 -503.43407,-4.0374238 C -503.43407,-10.986104 -509.08028,-16.614619 -516.04884,-16.614619 C -523.0132,-16.614619 -528.65941,-10.986104 -528.65941,-4.0374238 C -528.65941,2.9070657 -523.0132,8.5355807 -516.04884,8.5355807 M -691.55161,32.575165 C -691.55161,17.86475 -679.59591,5.9455418 -664.84439,5.9455418 C -650.09707,5.9455418 -638.14137,17.86475 -638.14137,32.575165 C -638.14137,47.28139 -650.09707,59.200598 -664.84439,59.200598 C -679.59591,59.200598 -691.55161,47.28139 -691.55161,32.575165 z M -664.84439,51.80348 C -654.19425,51.80348 -645.55911,43.195163 -645.55911,32.575165 C -645.55911,21.950977 -654.19425,13.342659 -664.84439,13.342659 C -675.49873,13.342659 -684.13387,21.950977 -684.13387,32.575165 C -684.13387,43.195163 -675.49873,51.80348 -664.84439,51.80348 M -664.84439,41.942054 C -659.65575,41.942054 -655.44943,37.746861 -655.44943,32.575165 C -655.44943,27.399279 -659.65575,23.204086 -664.84439,23.204086 C -670.03303,23.204086 -674.24355,27.399279 -674.24355,32.575165 C -674.24355,37.746861 -670.03303,41.942054 -664.84439,41.942054 M -468.80956,-50.029475 L -468.83894,-147.8726 L -565.3535,-147.8726 L -565.3535,-68.373488 L -664.84439,-68.373488 L -664.84439,-94.001463 L -679.88137,-94.001463 L -679.88137,-68.373488 L -700.18675,-68.373488 L -706.81108,-62.27139 L -704.5274,-25.222937 C -708.22578,-27.846503 -712.75534,-28.273986 -712.75534,-28.273986 L -712.75534,-4.2134459 C -712.75534,-4.2134459 -707.28544,-4.586445 -703.45693,-7.8638082 L -702.28571,11.142384 L -684.57465,11.142384 C -679.38182,6.385597 -672.45523,3.4770419 -664.84439,3.4770419 C -657.23775,3.4770419 -650.30697,6.385597 -645.11413,11.142384 L -577.33019,11.142384 C -577.7164,9.5246571 -578.33769,7.5590774 -578.60216,5.8994408 C -578.61476,5.7904747 -581.30563,6.0084068 -581.32242,5.9036318 C -581.81358,2.6597966 -582.06965,-0.6594766 -582.06965,-4.0374238 C -582.06965,-26.396417 -570.89057,-46.152798 -553.8008,-58.051051 L -553.8134,-135.32055 L -481.42853,-135.32055 L -481.42853,-60.071114 C -476.80661,-57.229615 -472.5793,-53.881005 -468.80956,-50.029475"
       style="fill:black;fill-rule:nonzero;stroke:none"
       id="path210" />
    <path
       d="M -544.97256,-188.16908 L -544.97256,-188.16908 C -544.97256,-195.39017 -550.84127,-201.245 -558.08689,-201.245 C -565.32831,-201.245 -571.20122,-195.39017 -571.20122,-188.16908 L -571.20122,-180.32352 C -571.20122,-173.10243 -565.32831,-167.24341 -558.08689,-167.24341 C -550.84127,-167.24341 -544.97256,-173.10243 -544.97256,-180.32352 L -544.97256,-188.16908 z M -558.08689,-173.78556 C -561.7055,-173.78556 -564.64405,-176.71088 -564.64405,-180.32352 L -564.64405,-188.16908 C -564.64405,-191.78172 -561.7055,-194.70704 -558.08689,-194.70704 C -554.46408,-194.70704 -551.52973,-191.78172 -551.52973,-188.16908 L -551.52973,-180.32352 C -551.52973,-176.71088 -554.46408,-173.78556 -558.08689,-173.78556"
       style="fill:black;fill-rule:nonzero;stroke:none"
       id="path224" />
    <path
       d="M -591.35967,-201.38749 C -593.63914,-201.38749 -595.91442,-200.51996 -597.91683,-199.09083 L -597.91683,-200.7337 L -604.47399,-200.7337 L -604.47399,-168.0397 L -597.91683,-168.0397 L -597.91683,-188.30738 C -597.91683,-191.92002 -594.98248,-194.84534 -591.35967,-194.84534 C -587.74105,-194.84534 -584.8025,-191.92002 -584.8025,-188.30738 L -584.8025,-168.0397 L -578.24534,-168.0397 L -578.24534,-188.30738 C -578.24534,-195.53267 -584.11824,-201.38749 -591.35967,-201.38749"
       style="fill:black;fill-rule:nonzero;stroke:none"
       id="path226" />
    <path
       d="M -721.17219,-167.3859 C -718.89271,-167.3859 -716.61744,-168.25344 -714.61502,-169.68257 L -714.61502,-168.0397 L -708.05366,-168.0397 L -708.05786,-200.7337 L -714.61502,-200.7337 L -714.61502,-180.46182 C -714.61502,-176.85337 -717.54938,-173.92386 -721.17219,-173.92386 C -724.7908,-173.92386 -727.72935,-176.85337 -727.72935,-180.46182 L -727.72935,-200.72951 L -734.28651,-200.72951 L -734.28651,-180.46182 C -734.28651,-173.24073 -728.41361,-167.3859 -721.17219,-167.3859"
       style="fill:black;fill-rule:nonzero;stroke:none"
       id="path228" />
    <path
       d="M -504.61368,-201.38749 C -508.53035,-201.38749 -512.04821,-199.66918 -514.44943,-196.95342 C -516.85484,-199.66918 -520.36851,-201.38749 -524.28517,-201.38749 C -526.56465,-201.38749 -528.83993,-200.51996 -530.84234,-199.09083 L -530.84234,-200.7337 L -537.3995,-200.7337 L -537.3995,-168.0397 L -530.84234,-168.0397 L -530.84234,-188.30738 C -530.84234,-191.92002 -527.90799,-194.84534 -524.28517,-194.84534 C -520.66656,-194.84534 -517.72801,-191.92002 -517.72801,-188.30738 L -517.72801,-168.0397 L -511.17085,-168.0397 L -511.17085,-188.30738 C -511.17085,-191.92002 -508.2365,-194.84534 -504.61368,-194.84534 C -500.99087,-194.84534 -498.05652,-191.92002 -498.05652,-188.30738 L -498.05652,-168.0397 L -491.49936,-168.0397 L -491.49936,-188.30738 C -491.49936,-195.53267 -497.37226,-201.38749 -504.61368,-201.38749"
       style="fill:black;fill-rule:nonzero;stroke:none"
       id="path230" />
    <path
       d="M -623.24293,-201.25757 C -630.48855,-201.25757 -636.36145,-195.40274 -636.36145,-188.18165 L -636.36145,-180.33609 C -636.36145,-173.115 -630.48855,-167.26017 -623.24293,-167.26017 C -617.61351,-167.26017 -612.81527,-170.79737 -610.95559,-175.76371 L -618.55384,-175.7679 C -619.74605,-174.55251 -621.40423,-173.79813 -623.24293,-173.79813 C -626.86574,-173.79813 -629.80429,-176.72345 -629.80429,-180.33609 L -629.80429,-180.98989 L -610.1286,-180.98989 L -610.1286,-188.18165 C -610.1286,-195.40274 -616.0015,-201.25757 -623.24293,-201.25757 z M -616.68576,-187.52785 L -629.80429,-187.52785 L -629.80429,-188.18165 C -629.80429,-191.79429 -626.86574,-194.71961 -623.24293,-194.71961 C -619.62431,-194.71961 -616.68576,-191.79429 -616.68576,-188.18165 L -616.68576,-187.52785"
       style="fill:black;fill-rule:nonzero;stroke:none"
       id="path232" />
    <path
       d="M -650.96604,-200.7337 L -650.96604,-199.63147 C -652.89709,-200.74627 -655.13458,-201.38749 -657.52321,-201.38749 C -664.76883,-201.38749 -670.63753,-195.53267 -670.63753,-188.30738 L -670.63753,-181.11562 C -670.63753,-173.89452 -664.76883,-168.0397 -657.52321,-168.0397 C -655.13458,-168.0397 -652.89709,-168.68092 -650.96604,-169.79573 L -650.96604,-168.0397 C -650.96604,-164.42705 -653.90459,-160.84794 -657.52321,-160.84794 C -660.22247,-160.84794 -662.56072,-162.44471 -663.56822,-164.77071 L -670.41084,-164.77071 C -669.21024,-158.78177 -663.88307,-154.30997 -657.52321,-154.30997 C -650.28178,-154.30997 -644.40888,-160.8186 -644.40888,-168.0397 L -644.40888,-200.7337 L -650.96604,-200.7337 z M -657.52321,-174.57766 C -661.14602,-174.57766 -664.08037,-177.50717 -664.08037,-181.11562 L -664.08037,-188.30738 C -664.08037,-191.92002 -661.14602,-194.84534 -657.52321,-194.84534 C -653.90459,-194.84534 -650.96604,-191.92002 -650.96604,-188.30738 L -650.96604,-181.11562 C -650.96604,-177.50717 -653.90459,-174.57766 -657.52321,-174.57766"
       style="fill:black;fill-rule:nonzero;stroke:none"
       id="path234" />
    <path
       d="M -695.64459,-175.814 C -694.51535,-174.62795 -692.3828,-173.85261 -689.9396,-173.85261 C -686.31679,-173.85261 -683.38244,-175.60864 -683.38244,-177.77539 C -683.38244,-179.94214 -686.31679,-181.69817 -689.9396,-181.69817 C -696.82001,-181.69817 -702.39905,-186.09034 -702.39905,-191.50511 C -702.39905,-196.91989 -696.82001,-201.31206 -689.9396,-201.31206 C -683.64691,-201.31206 -678.44148,-197.58626 -677.60189,-192.81271 L -684.53687,-192.82109 C -685.44782,-193.96942 -687.5258,-194.77409 -689.9396,-194.77409 C -693.1972,-194.77409 -695.84189,-193.31143 -695.84189,-191.50511 C -695.84189,-189.69879 -693.1972,-188.23613 -689.9396,-188.23613 C -682.69818,-188.23613 -676.82528,-183.55059 -676.82528,-177.77539 C -676.82528,-171.996 -682.69818,-167.31465 -689.9396,-167.31465 C -696.37503,-167.31465 -701.76097,-170.93568 -702.87342,-175.814 L -695.64459,-175.814"
       style="fill:black;fill-rule:nonzero;stroke:none"
       id="path236" />
    <path
       d="M -754.74302,-201.38749 C -760.60752,-201.38749 -765.61565,-197.52758 -767.29062,-192.23016 L -759.98623,-192.23016 C -758.78982,-193.80178 -756.87556,-194.84534 -754.74302,-194.84534 C -751.1202,-194.84534 -748.18585,-191.92002 -748.18585,-188.30738 C -749.68871,-187.37698 -758.0216,-187.65358 -758.0216,-187.65358 C -763.81474,-187.65358 -768.51222,-183.62603 -768.51222,-177.84664 C -768.51222,-172.07144 -763.81474,-167.3859 -758.0216,-167.3859 C -758.0216,-167.3859 -751.51901,-166.69019 -748.18585,-170.30703 L -748.18585,-168.0397 L -741.62869,-168.0397 L -741.62869,-188.30738 C -741.62869,-195.53267 -747.49739,-201.38749 -754.74302,-201.38749 z M -748.18585,-177.84664 C -749.55438,-172.62884 -758.0216,-173.92386 -758.0216,-173.92386 C -759.8309,-173.92386 -761.95506,-175.55416 -761.95506,-177.84664 C -761.95506,-180.05111 -759.8309,-181.76942 -758.0216,-181.76942 C -758.0216,-181.76942 -748.8953,-181.52215 -748.18585,-183.07701 L -748.18585,-177.84664"
       style="fill:black;fill-rule:nonzero;stroke:none"
       id="path238" />
    <path
       d="M -384.05339,-201.38749 C -386.33287,-201.38749 -388.60815,-200.51996 -390.61476,-199.09083 L -390.61476,-200.7337 L -397.17192,-200.7337 L -397.17192,-168.0397 L -390.61476,-168.0397 L -390.61476,-188.30738 C -390.61476,-191.92002 -387.67621,-194.84534 -384.05339,-194.84534 C -380.43478,-194.84534 -377.49623,-191.92002 -377.49623,-188.30738 L -377.49623,-168.0397 L -370.93907,-168.0397 L -370.93907,-188.30738 C -370.93907,-195.53267 -376.81197,-201.38749 -384.05339,-201.38749"
       style="fill:black;fill-rule:nonzero;stroke:none"
       id="path240" />
    <path
       d="M -450.41004,-201.38749 C -454.32671,-201.38749 -457.84457,-199.66918 -460.24579,-196.95342 C -462.6512,-199.66918 -466.16486,-201.38749 -470.08153,-201.38749 C -472.361,-201.38749 -474.63628,-200.51996 -476.63869,-199.09083 L -476.63869,-200.7337 L -483.19586,-200.7337 L -483.19586,-168.0397 L -476.63869,-168.0397 L -476.63869,-188.30738 C -476.63869,-191.92002 -473.70434,-194.84534 -470.08153,-194.84534 C -466.46292,-194.84534 -463.52437,-191.92002 -463.52437,-188.30738 L -463.52437,-168.0397 L -456.9672,-168.0397 L -456.9672,-188.30738 C -456.9672,-191.92002 -454.03285,-194.84534 -450.41004,-194.84534 C -446.78723,-194.84534 -443.85288,-191.92002 -443.85288,-188.30738 L -443.85288,-168.0397 L -437.29571,-168.0397 L -437.29571,-188.30738 C -437.29571,-195.53267 -443.16861,-201.38749 -450.41004,-201.38749"
       style="fill:black;fill-rule:nonzero;stroke:none"
       id="path242" />
    <path
       d="M -417.85091,-201.39588 C -425.09234,-201.39588 -430.96524,-195.54105 -430.96524,-188.31995 L -430.96524,-180.4744 C -430.96524,-173.24911 -425.09234,-167.39428 -417.85091,-167.39428 C -412.22149,-167.39428 -407.41906,-170.93149 -405.55938,-175.89782 L -413.15763,-175.90621 C -414.34984,-174.68662 -416.01222,-173.93224 -417.85091,-173.93224 C -421.46953,-173.93224 -424.40808,-176.86175 -424.40808,-180.4744 L -424.40808,-181.12819 L -404.73659,-181.12819 L -404.73659,-188.31995 C -404.73659,-195.54105 -410.60529,-201.39588 -417.85091,-201.39588 z M -411.29375,-187.66616 L -424.40808,-187.66616 L -424.40808,-188.31995 C -424.40808,-191.9284 -421.46953,-194.85791 -417.85091,-194.85791 C -414.2281,-194.85791 -411.29375,-191.9284 -411.29375,-188.31995 L -411.29375,-187.66616"
       style="fill:black;fill-rule:nonzero;stroke:none"
       id="path244" />
  </g>
</svg>
