<?xml version="1.0" encoding="UTF-8" standalone="no"?>
<!DOCTYPE svg PUBLIC "-//W3C//DTD SVG 1.1//EN" "http://www.w3.org/Graphics/SVG/1.1/DTD/svg11.dtd">
<svg
   xmlns:svg="http://www.w3.org/2000/svg"
   xmlns="http://www.w3.org/2000/svg"
   id="svg8"
   version="1.1"
   viewBox="0 0 310 150"
   height="150mm"
   width="310mm">
  <title
     id="title4508">Zusatztafel &quot;Ausgenommen Elektrofahrzeuge während des Ladevorgangs&quot; (§ 54 Abs. 5 lit. m StVO 1960)</title>
  <defs
     id="defs2" />
  <g
     style="display:inline;opacity:1"
     transform="translate(0,-147)"
     id="layer1">
    <rect
       rx="15.999998"
       ry="15.999999"
       y="148"
       x="0.99999994"
       height="147.99998"
       width="308"
       id="rect4771"
       style="display:inline;opacity:1;fill:#ffffff;fill-opacity:1;stroke:#000000;stroke-width:2;stroke-linecap:round;stroke-linejoin:miter;stroke-miterlimit:4;stroke-dasharray:none;stroke-dashoffset:0;stroke-opacity:1;paint-order:normal" />
    <path
       id="path4634"
       d="m 82.579735,222.53962 c 32.649055,0 32.649055,0 32.649055,0"
       style="fill:none;fill-rule:evenodd;stroke:#000000;stroke-width:10.99999905;stroke-linecap:round;stroke-linejoin:miter;stroke-miterlimit:4;stroke-dasharray:none;stroke-opacity:1" />
    <path
       id="path4634-4"
       d="m 82.579735,262.1849 c 32.649055,0 32.649055,0 32.649055,0"
       style="display:inline;fill:none;fill-rule:evenodd;stroke:#000000;stroke-width:10.99999905;stroke-linecap:round;stroke-linejoin:miter;stroke-miterlimit:4;stroke-dasharray:none;stroke-opacity:1" />
    <path
       id="path4747"
       d="m 114.06275,202.71698 v 79.29056 h 25.65283 l 24.48679,-24.48679 v -30.31698 l -24.48679,-24.48679 z"
       style="fill:#000000;fill-opacity:1;fill-rule:evenodd;stroke:#000000;stroke-width:0.26499999;stroke-linecap:butt;stroke-linejoin:miter;stroke-miterlimit:4;stroke-dasharray:none;stroke-opacity:1" />
    <path
       d="m -242.36225,179.36087 a 13.992453,13.992453 0 0 1 -13.99246,13.99245"
       transform="rotate(-90)"
       id="path4968"
       style="opacity:1;fill:none;fill-opacity:1;fill-rule:nonzero;stroke:#000000;stroke-width:10.99999905;stroke-linecap:round;stroke-linejoin:miter;stroke-miterlimit:4;stroke-dasharray:none;stroke-dashoffset:0;stroke-opacity:1;paint-order:normal" />
    <path
       d="m 276.17736,-207.34576 a 13.992453,13.992453 0 0 1 -13.99245,13.99245"
       transform="rotate(90)"
       id="path4968-6"
       style="display:inline;opacity:1;fill:none;fill-opacity:1;fill-rule:nonzero;stroke:#000000;stroke-width:10.99999905;stroke-linecap:round;stroke-linejoin:miter;stroke-miterlimit:4;stroke-dasharray:none;stroke-dashoffset:0;stroke-opacity:1;paint-order:normal" />
    <path
       id="path4985"
       d="m 163.03634,242.36226 h 16.32451"
       style="fill:none;fill-rule:evenodd;stroke:#000000;stroke-width:10.99999905;stroke-linecap:round;stroke-linejoin:miter;stroke-miterlimit:4;stroke-dasharray:none;stroke-opacity:1" />
    <path
       id="path4987"
       d="m 193.35332,256.35471 v 5.83019"
       style="fill:none;fill-rule:evenodd;stroke:#000000;stroke-width:10.99999905;stroke-linecap:round;stroke-linejoin:miter;stroke-miterlimit:4;stroke-dasharray:none;stroke-opacity:1" />
    <path
       id="path4989"
       d="m 207.34577,276.17735 h 12.82641"
       style="fill:none;fill-rule:evenodd;stroke:#000000;stroke-width:10.99999905;stroke-linecap:round;stroke-linejoin:miter;stroke-miterlimit:4;stroke-dasharray:none;stroke-opacity:1" />
    <path
       id="path4989-9"
       d="M 217.84011,276.17735 H 232.9986"
       style="display:inline;fill:none;fill-rule:evenodd;stroke:#000000;stroke-width:10.99999905;stroke-linecap:butt;stroke-linejoin:miter;stroke-miterlimit:4;stroke-dasharray:none;stroke-opacity:1" />
    <path
       d="m 28.720372,175.30371 q 0,-1.82831 -1.092785,-2.83703 -1.071769,-1.00873 -3.047186,-1.00873 -1.260905,0 -2.47978,0.39929 -1.218875,0.39929 -2.185568,1.1138 l -3.341398,-2.81602 q 1.28192,-1.49207 3.362413,-2.31166 2.080493,-0.8406 4.623318,-0.8406 2.77399,0 4.749408,0.96669 1.975418,0.94568 3.005157,2.77399 1.050754,1.8073 1.050754,4.37114 v 14.01706 h -4.644333 z m -5.716102,14.14315 q -3.7617,0 -5.632042,-1.66019 -1.870343,-1.6812 -1.870343,-5.08565 0,-3.23632 1.891358,-4.85448 1.891357,-1.61816 5.674072,-1.61816 h 5.842192 l 0.294212,3.9088 H 23.08833 q -1.492071,0 -2.248614,0.63045 -0.735528,0.63046 -0.735528,1.93339 0,1.36598 0.966694,2.03847 0.966694,0.65146 2.921096,0.65146 2.39572,0 3.551549,-0.52537 1.176845,-0.52538 1.176845,-1.63918 l 0.441316,3.11023 q -0.357256,1.02974 -1.260904,1.72324 -0.882634,0.6935 -2.143539,1.05075 -1.260905,0.33624 -2.752975,0.33624 z"
       style="fill:#000000;fill-opacity:1;stroke:none;stroke-width:0.26458332"
       id="path901" />
    <path
       d="m 52.341323,167.31798 h 5.00159 v 21.81366 h -5.00159 z m -7.81761,13.26052 q 0,1.93339 1.029739,3.00516 1.029739,1.05075 2.900081,1.05075 1.870343,0 2.879067,-0.98771 1.008723,-1.00872 1.008723,-2.87907 l 0.294212,4.66535 q -0.630453,1.70222 -2.101509,2.85805 -1.471055,1.15583 -3.593578,1.15583 -3.551549,0 -5.505952,-2.29064 -1.933387,-2.29064 -1.933387,-6.47265 v -13.36559 h 5.022604 z"
       style="fill:#000000;fill-opacity:1;stroke:none;stroke-width:0.26458332"
       id="path903" />
    <path
       d="m 71.486063,189.44686 q -1.954402,0 -3.719669,-0.35725 -1.765267,-0.37827 -3.320383,-1.09279 -1.534101,-0.71451 -2.773991,-1.74425 v 0 l 3.047187,-3.78271 v 0 q 1.660191,1.17684 3.383428,1.78628 1.744252,0.60944 3.383428,0.60944 2.290644,0 3.467489,-0.60944 1.197859,-0.63045 1.197859,-1.8073 0,-0.90365 -0.588422,-1.34496 -0.588422,-0.46234 -1.492071,-0.63046 -0.882633,-0.16812 -2.500794,-0.31522 -0.273197,-0.021 -0.567408,-0.042 -0.294211,-0.021 -0.567407,-0.0631 -0.08406,0 -0.168121,0 -0.08406,-0.021 -0.16812,-0.021 -2.290644,-0.25218 -3.7617,-0.6935 -1.471055,-0.46233 -2.479779,-1.74425 -0.987709,-1.28192 -0.987709,-3.67764 0,-2.24861 0.987709,-3.78272 1.008724,-1.55511 2.942111,-2.33267 1.933388,-0.79857 4.749408,-0.79857 1.681207,0 3.278353,0.33624 1.597146,0.31523 3.047187,0.94568 1.471056,0.60943 2.773991,1.5341 v 0 l -3.005157,3.65662 v 0 q -1.534101,-0.92466 -3.110232,-1.40801 -1.555116,-0.48335 -3.026172,-0.48335 -1.975417,0 -3.005156,0.56741 -1.029739,0.56741 -1.029739,1.68121 0,0.71451 0.567407,1.09278 0.567407,0.37827 1.40801,0.52538 0.861619,0.12609 2.47978,0.2732 0.168121,0.021 0.315226,0.042 0.168121,0 0.336241,0.021 0.06305,0 0.147106,0 0.08406,0 0.168121,0.021 2.416734,0.23116 4.01388,0.69349 1.597146,0.46234 2.710946,1.84933 1.113799,1.36598 1.113799,3.99287 0,2.31166 -1.050754,3.9088 -1.050754,1.57613 -3.131247,2.39572 -2.059478,0.79857 -5.064635,0.79857 z"
       style="fill:#000000;fill-opacity:1;stroke:none;stroke-width:0.26458332"
       id="path905" />
    <path
       d="m 93.341748,198 q -2.52181,0 -4.518243,-0.92466 -1.996433,-0.90365 -3.110232,-2.56384 v 0 l 3.383428,-3.08922 v 0 q 0.777558,0.98771 1.870342,1.51309 1.1138,0.52537 2.311659,0.52537 2.143539,0 3.383429,-1.17684 1.239889,-1.15583 1.239889,-3.27835 v -21.68757 h 5.0226 v 21.16219 q 0,3.00516 -1.13481,5.1487 -1.1138,2.14353 -3.278352,3.25733 Q 96.367919,198 93.341748,198 Z m -0.714513,-8.51111 q -2.353689,0 -4.034896,-1.07177 -1.660191,-1.09278 -2.542825,-3.13124 -0.861618,-2.05948 -0.861618,-4.95956 v -4.16099 q 0,-2.90008 0.861618,-4.95956 0.861619,-2.08049 2.500795,-3.15226 1.660191,-1.09278 3.97185,-1.09278 1.849328,0 3.362413,1.02974 1.534101,1.02973 2.458765,2.90008 l -0.441317,4.64433 q 0,-1.26091 -0.441316,-2.14354 -0.441317,-0.88263 -1.28192,-1.34496 -0.840604,-0.46234 -2.038463,-0.46234 -1.870343,0 -2.900082,1.21888 -1.029739,1.21887 -1.029739,3.40444 v 4.11896 q 0,2.16455 1.029739,3.36241 1.029739,1.17685 2.900082,1.17685 1.197859,0 2.038463,-0.46234 0.840603,-0.48334 1.28192,-1.36598 0.441316,-0.88263 0.441316,-2.12252 l 0.294211,4.79144 q -0.651467,1.70222 -2.101508,2.75297 -1.429025,1.02974 -3.467488,1.02974 z"
       style="fill:#000000;fill-opacity:1;stroke:none;stroke-width:0.26458332"
       id="path907" />
    <path
       d="m 118.16055,189.44686 q -3.08921,0 -5.27478,-1.13481 -2.18557,-1.13482 -3.3414,-3.32038 -1.15583,-2.20659 -1.15583,-5.31682 v -2.45876 q 0,-3.23633 1.09279,-5.52697 1.11379,-2.29064 3.2153,-3.4885 2.12253,-1.19786 5.08565,-1.19786 2.79501,0 4.77043,1.40801 1.99643,1.38699 3.02617,4.03489 1.05075,2.6479 1.05075,6.38859 v 1.42902 H 111.814 v -3.67764 h 10.15028 l -0.021,-0.23116 q -0.21015,-2.29065 -1.28192,-3.55155 -1.07177,-1.26091 -2.87907,-1.26091 -2.26963,0 -3.50952,1.42903 -1.23989,1.40801 -1.23989,4.01388 v 2.77399 q 0,2.47978 1.34497,3.82475 1.34496,1.32395 3.78271,1.32395 1.23989,0 2.43775,-0.46234 1.21888,-0.48334 2.18557,-1.32395 v 0 l 3.27836,3.06821 v 0 q -1.6602,1.55511 -3.74069,2.41673 -2.05948,0.8406 -4.16099,0.8406 z"
       style="fill:#000000;fill-opacity:1;stroke:none;stroke-width:0.26458332"
       id="path909" />
    <path
       d="m 132.13559,167.31798 h 5.0226 v 21.81366 h -5.0226 z m 12.92427,8.59517 q 0,-1.9544 -1.05075,-3.02617 -1.05076,-1.07177 -2.98414,-1.07177 -1.84933,0 -2.85806,1.00872 -1.00872,0.98771 -1.00872,2.81602 l -0.44132,-4.51824 q 0.98771,-2.01745 2.47978,-3.0682 1.51309,-1.05075 3.55155,-1.05075 3.48851,0 5.40088,2.33267 1.93339,2.31166 1.93339,6.55671 v 13.2395 h -5.02261 z"
       style="fill:#000000;fill-opacity:1;stroke:none;stroke-width:0.26458332"
       id="path911" />
    <path
       d="m 164.751,189.44686 q -2.90008,0 -4.98058,-1.1138 -2.05947,-1.1138 -3.15226,-3.23632 -1.07177,-2.14354 -1.07177,-5.14869 v -3.55155 q 0,-2.96313 1.07177,-5.06464 1.09279,-2.12252 3.15226,-3.2153 2.0805,-1.1138 4.98058,-1.1138 2.90008,0 4.95956,1.1138 2.08049,1.09278 3.15226,3.2153 1.09279,2.10151 1.09279,5.06464 v 3.61459 q 0,2.98414 -1.09279,5.10667 -1.07177,2.1015 -3.15226,3.2153 -2.05948,1.1138 -4.95956,1.1138 z m 0,-4.81245 q 1.99643,0 3.08922,-1.19786 1.09278,-1.21887 1.09278,-3.42546 v -3.61459 q 0,-2.18557 -1.09278,-3.38343 -1.09279,-1.19786 -3.08922,-1.19786 -1.99643,0 -3.08922,1.19786 -1.09278,1.19786 -1.09278,3.38343 v 3.61459 q 0,2.20659 1.07177,3.42546 1.09278,1.19786 3.11023,1.19786 z"
       style="fill:#000000;fill-opacity:1;stroke:none;stroke-width:0.26458332"
       id="path913" />
    <path
       d="m 205.37314,176.22838 q 0,-2.12253 -1.05075,-3.25734 -1.05076,-1.15583 -2.98414,-1.15583 -1.82832,0 -2.83704,1.1138 -0.98771,1.09278 -0.98771,3.13125 l -0.96669,-4.62332 q 1.02974,-2.12252 2.68993,-3.27835 1.6812,-1.15583 3.71967,-1.15583 2.35369,0 4.01388,1.07177 1.6812,1.07176 2.54282,3.15226 0.88264,2.05948 0.88264,4.98057 v 12.92428 h -5.02261 z m -25.74347,-8.9104 h 5.0226 v 21.81366 h -5.0226 z m 12.88224,8.9104 q 0,-2.12253 -1.05075,-3.25734 -1.02974,-1.15583 -2.94211,-1.15583 -1.84933,0 -2.85806,1.00872 -1.00872,0.98771 -1.00872,2.81602 l -0.44132,-4.51824 q 0.98771,-1.99643 2.52181,-3.04718 1.5341,-1.07177 3.50952,-1.07177 2.29065,0 3.92982,1.07177 1.63918,1.07176 2.47978,3.15226 0.86162,2.05948 0.86162,4.98057 v 12.92428 h -5.00159 z"
       style="fill:#000000;fill-opacity:1;stroke:none;stroke-width:0.26458332"
       id="path915" />
    <path
       d="m 242.27564,176.22838 q 0,-2.12253 -1.05076,-3.25734 -1.05075,-1.15583 -2.98414,-1.15583 -1.82831,0 -2.83703,1.1138 -0.98771,1.09278 -0.98771,3.13125 l -0.9667,-4.62332 q 1.02974,-2.12252 2.68993,-3.27835 1.68121,-1.15583 3.71967,-1.15583 2.35369,0 4.01388,1.07177 1.68121,1.07176 2.54283,3.15226 0.88263,2.05948 0.88263,4.98057 v 12.92428 h -5.0226 z m -25.74348,-8.9104 h 5.02261 v 21.81366 h -5.02261 z m 12.88225,8.9104 q 0,-2.12253 -1.05076,-3.25734 -1.02974,-1.15583 -2.94211,-1.15583 -1.84933,0 -2.85805,1.00872 -1.00872,0.98771 -1.00872,2.81602 l -0.44132,-4.51824 q 0.98771,-1.99643 2.52181,-3.04718 1.5341,-1.07177 3.50952,-1.07177 2.29064,0 3.92982,1.07177 1.63918,1.07176 2.47978,3.15226 0.86162,2.05948 0.86162,4.98057 v 12.92428 h -5.00159 z"
       style="fill:#000000;fill-opacity:1;stroke:none;stroke-width:0.26458332"
       id="path917" />
    <path
       d="m 262.5762,189.44686 q -3.08921,0 -5.27478,-1.13481 -2.18557,-1.13482 -3.3414,-3.32038 -1.15583,-2.20659 -1.15583,-5.31682 v -2.45876 q 0,-3.23633 1.09279,-5.52697 1.11379,-2.29064 3.2153,-3.4885 2.12253,-1.19786 5.08565,-1.19786 2.79501,0 4.77043,1.40801 1.99643,1.38699 3.02617,4.03489 1.05075,2.6479 1.05075,6.38859 v 1.42902 h -14.81563 v -3.67764 h 10.15028 l -0.021,-0.23116 q -0.21015,-2.29065 -1.28192,-3.55155 -1.07177,-1.26091 -2.87907,-1.26091 -2.26963,0 -3.50952,1.42903 -1.23989,1.40801 -1.23989,4.01388 v 2.77399 q 0,2.47978 1.34497,3.82475 1.34496,1.32395 3.78271,1.32395 1.23989,0 2.43775,-0.46234 1.21888,-0.48334 2.18557,-1.32395 v 0 l 3.27835,3.06821 v 0 q -1.66019,1.55511 -3.74068,2.41673 -2.05948,0.8406 -4.16099,0.8406 z"
       style="fill:#000000;fill-opacity:1;stroke:none;stroke-width:0.26458332"
       id="path919" />
    <path
       d="m 276.55124,167.31798 h 5.0226 v 21.81366 h -5.0226 z m 12.92427,8.59517 q 0,-1.9544 -1.05075,-3.02617 -1.05076,-1.07177 -2.98414,-1.07177 -1.84933,0 -2.85806,1.00872 -1.00872,0.98771 -1.00872,2.81602 l -0.44132,-4.51824 q 0.98771,-2.01745 2.47978,-3.0682 1.51309,-1.05075 3.55155,-1.05075 3.48851,0 5.40088,2.33267 1.93339,2.31166 1.93339,6.55671 v 13.2395 h -5.02261 z"
       style="fill:#000000;fill-opacity:1;stroke:none;stroke-width:0.26458332"
       id="path921" />
  </g>
</svg>
