<?xml version="1.0" encoding="UTF-8" standalone="no"?>
<!-- Created with Inkscape (http://www.inkscape.org/) -->
<svg
   xmlns:svg="http://www.w3.org/2000/svg"
   xmlns="http://www.w3.org/2000/svg"
   version="1.0"
   width="470.00003"
   height="310.00003"
   id="svg2653">
  <defs
     id="defs2655"><clipPath
   id="id71">
      <path
   d="M 409.1,327.94 L 521.06,327.94 L 521.06,253.06 L 409.1,253.06 L 409.1,327.94 z "
   id="path15" />

    </clipPath>

        
        
        
        
        
        
        
        
        
        
        
        
        
        
        
        
        
        
        
      </defs>
  <g
     transform="translate(770.2657,243.5114)"
     id="layer1">
    <path
       d="M -306.10495,-237.69006 C -309.87469,-241.4452 -314.88282,-243.51137 -320.20579,-243.51137 L -750.3255,-243.51137 C -761.31987,-243.51137 -770.26566,-234.59291 -770.26566,-223.62925 L -770.26566,46.602366 C -770.26566,51.916556 -768.19188,56.90804 -764.42634,60.663178 C -760.6566,64.418315 -755.64847,66.48867 -750.3255,66.48867 L -320.20579,66.48867 C -314.88282,66.48867 -309.87469,64.418315 -306.10495,60.663178 C -302.33941,56.90804 -300.26564,51.916556 -300.26564,46.602366 L -300.26564,-223.62925 C -300.26564,-228.93925 -302.33941,-233.93493 -306.10495,-237.69006 z "
       style="fill:black;fill-rule:nonzero;stroke:none"
       id="path2704" />
    <path
       d="M -304.46356,46.602366 C -304.46356,55.260976 -311.52448,62.301859 -320.20579,62.301859 L -750.3255,62.301859 C -754.52762,62.301859 -758.48207,60.67156 -761.4584,57.70433 C -764.43054,54.741292 -766.06773,50.797559 -766.06773,46.602366 L -766.06773,-223.62925 C -766.06773,-227.82025 -764.43054,-231.76399 -761.4584,-234.73122 C -758.48207,-237.69425 -754.52762,-239.32875 -750.3255,-239.32875 L -320.20579,-239.32875 C -316.00367,-239.32875 -312.04922,-237.69425 -309.07289,-234.73122 C -306.10076,-231.76399 -304.46356,-227.82025 -304.46356,-223.62925 L -304.46356,46.602366"
       style="fill:white;fill-rule:nonzero;stroke:none"
       id="path170" />
    <path
       d="M -646.84237,-62.891752 L -662.03887,-69.995501 L -697.52816,5.4551082 L -682.33166,12.558857 L -646.84237,-62.891752"
       style="fill:black;fill-rule:nonzero;stroke:none"
       id="path172" />
    <path
       d="M -612.85175,-64.278974 L -628.04825,-71.386913 L -664.16722,5.4090072 L -648.97072,12.512756 L -612.85175,-64.278974"
       style="fill:black;fill-rule:nonzero;stroke:none"
       id="path174" />
    <path
       d="M -585.78771,-51.039599 L -600.98421,-58.143347 L -630.7937,5.2246031 L -615.593,12.332542 L -585.78771,-51.039599"
       style="fill:black;fill-rule:nonzero;stroke:none"
       id="path176" />
    <path
       d="M -559.57585,-35.763396 L -574.77235,-42.871336 L -597.63426,5.7317143 L -582.43776,12.839654 L -559.57585,-35.763396"
       style="fill:black;fill-rule:nonzero;stroke:none"
       id="path178" />
    <path
       d="M -525.24519,-38.336672 L -540.44169,-45.444611 L -564.56718,5.8448714 L -549.37068,12.952811 L -525.24519,-38.336672"
       style="fill:black;fill-rule:nonzero;stroke:none"
       id="path180" />
    <path
       d="M -484.78556,-53.277594 L -499.98626,-60.385533 L -531.05512,5.6688493 L -515.85862,12.776789 L -484.78556,-53.277594"
       style="fill:black;fill-rule:nonzero;stroke:none"
       id="path182" />
    <path
       d="M -451.57575,-53.017752 L -466.77645,-60.125691 L -497.84532,5.9286914 L -482.64882,13.036631 L -451.57575,-53.017752"
       style="fill:black;fill-rule:nonzero;stroke:none"
       id="path184" />
    <path
       d="M -418.74796,-52.045439 L -433.94446,-59.153379 L -464.38363,5.5598832 L -449.18713,12.667823 L -418.74796,-52.045439"
       style="fill:black;fill-rule:nonzero;stroke:none"
       id="path186" />
    <path
       d="M -607.34407,-146.86686 L -622.54057,-153.97061 L -658.02985,-78.519999 L -642.83335,-71.41625 L -607.34407,-146.86686"
       style="fill:black;fill-rule:nonzero;stroke:none"
       id="path188" />
    <path
       d="M -573.57174,-147.78469 L -588.76824,-154.88844 L -624.25752,-79.437828 L -609.06102,-72.33408 L -573.57174,-147.78469"
       style="fill:black;fill-rule:nonzero;stroke:none"
       id="path190" />
    <path
       d="M -555.31495,-115.82411 L -566.49403,-131.46912 L -595.9341,-68.884885 L -580.7376,-61.776946 L -555.31495,-115.82411"
       style="fill:black;fill-rule:nonzero;stroke:none"
       id="path192" />
    <path
       d="M -527.71357,-103.50256 L -543.53137,-109.29453 L -571.6155,-49.58113 L -556.419,-42.477382 L -527.71357,-103.50256"
       style="fill:black;fill-rule:nonzero;stroke:none"
       id="path194" />
    <path
       d="M -492.8162,-107.28285 L -485.33549,-123.18351 L -512.01752,-105.87467 L -536.02547,-54.840838 L -520.82897,-47.732898 L -492.8162,-107.28285"
       style="fill:black;fill-rule:nonzero;stroke:none"
       id="path196" />
    <path
       d="M -444.24617,-139.46974 L -459.44267,-146.57349 L -494.93195,-71.12288 L -479.73545,-64.019132 L -444.24617,-139.46974"
       style="fill:black;fill-rule:nonzero;stroke:none"
       id="path198" />
    <path
       d="M -411.03636,-139.20571 L -426.23286,-146.31365 L -461.72215,-70.863038 L -446.52565,-63.755099 L -411.03636,-139.20571"
       style="fill:black;fill-rule:nonzero;stroke:none"
       id="path200" />
    <path
       d="M -378.20857,-138.2334 L -393.40506,-145.34133 L -428.89435,-69.890726 L -413.69785,-62.782786 L -378.20857,-138.2334"
       style="fill:black;fill-rule:nonzero;stroke:none"
       id="path202" />
    <path
       d="M -313.99286,-192.23027 L -319.88255,-192.23446 L -338.81521,-192.2596 C -338.81521,-192.2596 -346.45964,-192.26798 -346.45964,-192.26379 L -344.75108,-185.51209 C -344.89801,-183.98656 -345.97268,-181.44682 -353.76823,-181.44682 C -356.53886,-181.44682 -361.22795,-181.83239 -362.49152,-184.28413 C -362.70562,-185.62525 -362.76019,-186.27904 -362.77278,-186.44249 L -362.77278,-192.2596 L -393.03565,-192.2596 L -393.22036,-186.51793 C -393.24135,-185.84318 -393.18677,-184.78705 -393.00206,-181.55159 L -392.88872,-179.55248 C -392.88872,-179.55248 -392.88452,-179.43933 -392.88452,-179.43514 L -392.87193,-179.32198 C -391.92739,-169.33482 -392.82575,-156.38043 -398.17811,-149.98496 C -399.90346,-147.92299 -403.11907,-145.18627 -411.12032,-145.18627 C -417.70267,-145.18627 -422.48831,-146.99678 -426.17409,-150.88603 C -435.49349,-160.72231 -435.74956,-180.244 -435.69919,-184.20869 C -435.65301,-185.3193 -435.64462,-186.0192 -435.64042,-186.2078 L -435.59424,-192.16321 L -441.56789,-192.18416 L -460.49635,-192.25541 L -466.11318,-192.28056 L -466.45321,-186.68976 C -466.47,-186.41735 -466.47,-186.19941 -466.47,-185.92281 L -466.4784,-184.66132 C -467.00734,-173.06062 -472.04905,-116.59106 -519.52761,-116.59106 C -532.62515,-116.59106 -542.62881,-120.45097 -550.11372,-128.38873 C -568.40829,-147.80145 -566.46465,-185.59591 -566.44366,-185.96053 L -566.04905,-192.26798 L -572.38792,-192.2596 L -591.62283,-192.22188 L -595.99287,-192.2135 L -597.29003,-188.05184 C -599.61149,-180.617 -607.31049,-163.31654 -628.63596,-163.31654 C -638.05611,-163.31654 -644.47894,-166.48913 -648.27387,-173.01452 C -651.46009,-178.50054 -651.77914,-184.64455 -651.80013,-186.40058 L -651.87569,-192.26379 L -657.75699,-192.2596 L -676.68964,-192.23446 L -681.65159,-192.22607 L -682.53316,-187.35613 C -683.2636,-183.32858 -686.59255,-176.56849 -700.6766,-176.56849 C -714.93277,-176.56849 -718.65213,-183.50041 -719.60086,-187.63274 L -720.65454,-192.23446 L -725.394,-192.23865 L -744.55754,-192.2596 L -750.9216,-192.26379 L -750.49761,-185.93119 C -749.45653,-170.44544 -735.01146,-145.87778 -700.6766,-145.87778 C -689.45134,-145.87778 -679.78771,-148.37981 -671.84523,-153.31681 C -662.27816,-139.92237 -647.18241,-132.62583 -628.63596,-132.62583 C -615.02208,-132.62583 -602.64239,-136.57795 -592.2945,-144.11337 C -588.12176,-129.23951 -581.52681,-116.93053 -572.61461,-107.44629 C -559.17704,-93.150787 -541.31906,-85.900353 -519.52761,-85.900353 C -487.69892,-85.900353 -463.48527,-101.23523 -449.03601,-130.35431 C -448.89748,-130.20344 -448.76314,-130.0358 -448.62041,-129.88492 C -438.98197,-119.67145 -426.3672,-114.49556 -411.12032,-114.49556 C -395.82307,-114.49556 -383.15792,-119.98996 -374.4892,-130.38784 C -369.66998,-136.16723 -366.20669,-143.33804 -364.09933,-151.72423 C -360.85853,-151.0872 -357.40783,-150.75611 -353.76823,-150.75611 C -341.0611,-150.75611 -330.9357,-154.56573 -323.67328,-162.07601 C -314.53859,-171.52252 -313.9173,-183.04778 -313.94249,-186.35448 L -313.99286,-192.23027"
       style="fill:white;fill-rule:nonzero;stroke:none"
       id="path204" />
    <path
       d="M -319.89095,-186.30419 L -338.81941,-186.32514 C -338.77323,-186.14493 -338.77323,-186.14493 -338.77323,-186.14493 C -338.77743,-182.17605 -340.73366,-175.51655 -353.76823,-175.51655 C -363.3479,-175.51655 -366.97071,-179.10405 -368.23429,-182.59096 C -368.72125,-185.39055 -368.72125,-186.32514 -368.72125,-186.32514 L -387.27609,-186.32514 C -387.29288,-185.76774 -387.14595,-183.3621 -386.94865,-179.87938 C -386.07968,-170.68432 -386.32316,-154.89263 -393.61076,-146.18792 C -397.51484,-141.51914 -403.24081,-139.25181 -411.12032,-139.25181 C -419.33986,-139.25181 -425.67874,-141.72869 -430.49796,-146.81238 C -441.23626,-158.14904 -441.71902,-178.78553 -441.64346,-184.35118 C -441.59728,-185.44503 -441.58888,-186.10721 -441.58888,-186.2539 L -460.51734,-186.32514 C -460.52993,-186.12817 -460.51314,-185.84737 -460.52993,-184.50206 C -461.06307,-172.51579 -466.39864,-110.66079 -519.52761,-110.66079 C -534.35889,-110.66079 -545.78146,-115.13259 -554.44598,-124.32765 C -574.63801,-145.74786 -572.40471,-185.93119 -572.37953,-186.32514 L -591.61024,-186.29162 C -593.77637,-179.35551 -602.68017,-157.38627 -628.63596,-157.38627 C -655.96447,-157.38627 -657.68982,-181.48454 -657.74859,-186.32514 L -676.68125,-186.30419 C -677.42008,-182.22634 -681.236,-170.63403 -700.6766,-170.63403 C -719.94089,-170.63403 -724.39909,-181.94974 -725.3982,-186.30838 L -744.56174,-186.32514 C -743.77673,-174.60291 -732.24502,-151.80805 -700.6766,-151.80805 C -686.67651,-151.80805 -676.86596,-156.09545 -670.18705,-161.88741 C -662.15642,-146.84171 -647.45947,-138.5561 -628.63596,-138.5561 C -610.76538,-138.5561 -597.78539,-145.76043 -588.77663,-154.96388 C -585.93883,-140.59712 -580.10371,-124.08876 -568.27395,-111.49899 C -556.00761,-98.448213 -539.6063,-91.830621 -519.52761,-91.830621 C -487.62756,-91.830621 -463.96384,-108.57367 -451.08879,-140.25346 C -450.84531,-140.84858 -450.61443,-141.4437 -450.38354,-142.03463 C -448.65819,-139.18056 -446.64319,-136.44803 -444.28815,-133.95019 C -435.81673,-124.97307 -424.65864,-120.42583 -411.12032,-120.42583 C -397.64917,-120.42583 -386.56244,-125.18262 -379.06494,-134.1807 C -372.98215,-141.47304 -369.98482,-150.51722 -368.63729,-159.11716 C -364.29663,-157.50362 -359.33048,-156.69057 -353.76823,-156.69057 C -342.73607,-156.69057 -334.05476,-159.88411 -327.95517,-166.19157 C -320.26037,-174.15028 -319.87416,-184.04105 -319.89095,-186.30419"
       style="fill:black;fill-rule:nonzero;stroke:none"
       id="path206" />
  </g>
</svg>
