<?xml version="1.0" encoding="UTF-8" standalone="no"?>
<!-- Created with Inkscape (http://www.inkscape.org/) -->
<svg
   xmlns:svg="http://www.w3.org/2000/svg"
   xmlns="http://www.w3.org/2000/svg"
   version="1.0"
   width="470"
   height="230"
   id="svg2536">
  <defs
     id="defs2538" />
  <g
     transform="translate(767.4086,178.6137)"
     id="layer1">
    <path
       d="M -303.24789,-172.8253 C -307.01763,-176.55508 -312.02575,-178.61375 -317.34873,-178.61375 L -747.46841,-178.61375 C -758.46279,-178.61375 -767.40857,-169.74563 -767.40857,-158.84802 L -767.40857,31.624699 C -767.40857,36.904726 -765.33479,41.868035 -761.56925,45.59781 C -757.79951,49.331752 -752.79139,51.386254 -747.46841,51.386254 L -317.34873,51.386254 C -312.02575,51.386254 -307.01763,49.331752 -303.24789,45.59781 C -299.48235,41.868035 -297.40857,36.904726 -297.40857,31.624699 L -297.40857,-158.84802 C -297.40857,-164.12805 -299.48235,-169.09136 -303.24789,-172.8253 z "
       style="fill:black;fill-rule:nonzero;stroke:none"
       id="path2562" />
    <path
       d="M -301.6065,31.624699 C -301.6065,40.230268 -308.66741,47.227243 -317.34873,47.227243 L -747.46841,47.227243 C -751.67054,47.227243 -755.62499,45.606145 -758.60132,42.659831 C -761.57345,39.70935 -763.21064,35.792045 -763.21064,31.624699 L -763.21064,-158.84802 C -763.21064,-163.01537 -761.57345,-166.93684 -758.60132,-169.88316 C -755.62499,-172.82947 -751.67054,-174.45473 -747.46841,-174.45473 L -317.34873,-174.45473 C -313.1466,-174.45473 -309.19215,-172.82947 -306.21582,-169.88316 C -303.24369,-166.93684 -301.6065,-163.01537 -301.6065,-158.84802 L -301.6065,31.624699"
       style="fill:white;fill-rule:nonzero;stroke:none"
       id="path252" />
    <path
       d="M -705.78299,27.761569 L -699.52388,27.757401 L -711.55934,-14.007741 L -717.57917,-14.007741 L -729.61882,27.761569 L -723.35552,27.761569 L -721.63856,21.798097 L -707.50414,21.798097 L -705.78299,27.761569 z M -719.91741,15.830457 L -714.56925,-2.7267354 L -709.22109,15.830457 L -719.91741,15.830457"
       style="fill:black;fill-rule:nonzero;stroke:none"
       id="path254" />
    <path
       d="M -401.21073,8.9960092 L -401.21073,8.9960092 C -401.21073,2.4032676 -406.60507,-2.9392701 -413.25459,-2.9392701 C -419.9083,-2.9392701 -425.29844,2.4032676 -425.29844,8.9960092 L -425.29844,16.159677 C -425.29844,22.748251 -419.9083,28.094957 -413.25459,28.094957 C -406.60507,28.094957 -401.21073,22.748251 -401.21073,16.159677 L -401.21073,8.9960092 z M -413.25459,22.127317 C -416.58354,22.127317 -419.27861,19.451881 -419.27861,16.159677 L -419.27861,8.9960092 C -419.27861,5.6996384 -416.58354,3.0283696 -413.25459,3.0283696 C -409.92983,3.0283696 -407.23476,5.6996384 -407.23476,8.9960092 L -407.23476,16.159677 C -407.23476,19.451881 -409.92983,22.127317 -413.25459,22.127317"
       style="fill:black;fill-rule:nonzero;stroke:none"
       id="path256" />
    <path
       d="M -496.0923,9.0460174 L -496.0923,9.0460174 C -496.0923,2.4532758 -501.48663,-2.8892619 -508.13615,-2.8892619 C -510.33167,-2.8892619 -512.38865,-2.3058335 -514.16018,-1.289001 L -514.16018,-2.2933314 L -520.18001,-2.2933314 L -520.18001,39.480146 L -514.16018,39.480146 L -514.16018,26.540536 C -512.38865,27.557369 -510.33167,28.140797 -508.13615,28.140797 C -501.48663,28.140797 -496.0923,22.79826 -496.0923,16.205518 L -496.0923,9.0460174 z M -502.11632,16.205518 C -502.11632,19.501889 -504.81139,22.173158 -508.13615,22.173158 C -511.46511,22.173158 -514.16018,19.501889 -514.16018,16.205518 L -514.16018,9.0460174 C -514.16018,5.7496466 -511.46511,3.0783777 -508.13615,3.0783777 C -504.81139,3.0783777 -502.11632,5.7496466 -502.11632,9.0460174 L -502.11632,16.205518"
       style="fill:black;fill-rule:nonzero;stroke:none"
       id="path258" />
    <path
       d="M -670.18876,9.258552 L -670.18876,9.258552 C -670.18876,2.6658104 -675.5831,-2.6767273 -682.23261,-2.6767273 C -684.42813,-2.6767273 -686.48512,-2.0932988 -688.25664,-1.0764664 L -688.25664,-14.016076 L -694.27647,-14.016076 L -694.27647,27.757401 L -688.25664,27.757401 L -688.25664,26.753071 C -686.48512,27.769904 -684.42813,28.353332 -682.23261,28.353332 C -675.5831,28.353332 -670.18876,23.010794 -670.18876,16.418053 L -670.18876,9.258552 z M -676.21279,16.418053 C -676.21279,19.714423 -678.90786,22.385692 -682.23261,22.385692 C -685.55737,22.385692 -688.25664,19.714423 -688.25664,16.418053 L -688.25664,9.258552 C -688.25664,5.9621812 -685.55737,3.2909124 -682.23261,3.2909124 C -678.90786,3.2909124 -676.21279,5.9621812 -676.21279,9.258552 L -676.21279,16.418053"
       style="fill:black;fill-rule:nonzero;stroke:none"
       id="path260" />
    <path
       d="M -381.48887,-2.6767273 C -383.57943,-2.6767273 -385.67,-1.8890989 -387.51289,-0.58055218 L -387.51289,-2.0807968 L -393.53272,-2.0807968 L -393.53272,27.757401 L -387.51289,27.757401 L -387.51289,9.258552 C -387.51289,5.9621812 -384.81363,3.2909124 -381.48887,3.2909124 C -378.16411,3.2909124 -375.46904,5.9621812 -375.46904,9.258552 L -375.46904,27.757401 L -369.44501,27.757401 L -369.44501,9.258552 C -369.44501,2.6658104 -374.83935,-2.6767273 -381.48887,-2.6767273"
       style="fill:black;fill-rule:nonzero;stroke:none"
       id="path262" />
    <path
       d="M -614.23458,6.6706301 C -615.17072,4.5786223 -617.29067,3.0867124 -619.74646,3.0867124 C -623.07122,3.0867124 -625.77048,5.7579813 -625.77048,9.0543521 L -625.77048,16.21802 C -625.77048,19.514391 -623.07122,22.18566 -619.74646,22.18566 C -617.25289,22.18566 -615.12454,20.697917 -614.21779,18.605909 L -607.95448,18.605909 C -609.07533,24.044296 -613.92813,28.153299 -619.74646,28.153299 C -626.40017,28.153299 -631.79031,22.806594 -631.79031,16.21802 L -631.79031,9.0543521 C -631.79031,2.4657778 -626.40017,-2.8809272 -619.74646,-2.8809272 C -613.92813,-2.8809272 -609.06273,1.228076 -607.93769,6.6706301 L -614.23458,6.6706301"
       style="fill:black;fill-rule:nonzero;stroke:none"
       id="path264" />
    <path
       d="M -540.39723,-3.0851272 C -547.05094,-3.0851272 -552.44108,2.2615779 -552.44108,8.8501521 L -552.44108,16.01382 C -552.44108,22.606562 -547.05094,27.949099 -540.39723,27.949099 C -535.22958,27.949099 -530.81756,24.719406 -529.109,20.189501 L -536.09015,20.181166 C -537.18161,21.293848 -538.70966,21.98146 -540.39723,21.98146 C -543.72199,21.98146 -546.42125,19.310191 -546.42125,16.01382 L -546.42125,15.41789 L -528.35337,15.41789 L -528.35337,8.8501521 C -528.35337,2.2615779 -533.74771,-3.0851272 -540.39723,-3.0851272 z M -534.3774,9.4502499 L -546.42125,9.4502499 L -546.42125,8.8501521 C -546.42125,5.5579487 -543.72199,2.8866798 -540.39723,2.8866798 C -537.07247,2.8866798 -534.3774,5.5579487 -534.3774,8.8501521 L -534.3774,9.4502499"
       style="fill:black;fill-rule:nonzero;stroke:none"
       id="path266" />
    <path
       d="M -587.81282,-2.6767273 C -589.90339,-2.6767273 -591.99816,-1.8890989 -593.83685,-0.58055218 L -593.83685,-14.016076 L -599.85668,-14.016076 L -599.85668,27.757401 L -593.83685,27.757401 L -593.83685,9.258552 C -593.83685,5.9621812 -591.13758,3.2909124 -587.81282,3.2909124 C -584.48806,3.2909124 -581.79299,5.9621812 -581.79299,9.258552 L -581.79299,27.757401 L -575.76897,27.757401 L -575.76897,9.258552 C -575.76897,2.6658104 -581.1633,-2.6767273 -587.81282,-2.6767273"
       style="fill:black;fill-rule:nonzero;stroke:none"
       id="path268" />
    <path
       d="M -562.02075,21.731419 L -562.02075,21.731419 C -562.68822,21.731419 -563.22556,21.197999 -563.22556,20.539558 L -563.22556,-14.074419 L -569.24958,-14.074419 L -569.24958,20.539558 L -569.23699,20.539558 C -569.23699,24.490202 -566.00878,27.690724 -562.02075,27.690724 L -560.21564,27.690724 L -560.21564,21.731419 L -562.02075,21.731419"
       style="fill:black;fill-rule:nonzero;stroke:none"
       id="path270" />
    <path
       d="M -656.35239,20.247844 C -655.3197,21.331354 -653.35927,22.039803 -651.11757,22.039803 C -647.78862,22.039803 -645.09355,20.435374 -645.09355,18.460052 C -645.09355,16.480563 -647.78862,14.880302 -651.11757,14.880302 C -657.43545,14.880302 -662.55693,10.871315 -662.55693,5.9288425 C -662.55693,0.98220261 -657.43545,-3.022617 -651.11757,-3.022617 C -645.33703,-3.022617 -640.55559,0.37793743 -639.78317,4.7328141 L -646.15142,4.7286468 C -646.99101,3.6784756 -648.89687,2.9450226 -651.11757,2.9450226 C -654.1107,2.9450226 -656.5371,4.2785734 -656.5371,5.9288425 C -656.5371,7.5749442 -654.1107,8.9126623 -651.11757,8.9126623 C -644.46386,8.9126623 -639.06952,13.188359 -639.06952,18.460052 C -639.06952,23.731745 -644.46386,28.007442 -651.11757,28.007442 C -657.02406,28.007442 -661.96922,24.698569 -662.99351,20.247844 L -656.35239,20.247844"
       style="fill:black;fill-rule:nonzero;stroke:none"
       id="path272" />
    <path
       d="M -432.52308,-2.0807968 L -456.01048,-2.0807968 L -456.01048,3.8868429 L -440.5789,3.8868429 L -456.61498,21.789762 L -456.61498,27.757401 L -432.52308,27.757401 L -432.52308,21.789762 L -448.56756,21.789762 L -432.52308,3.8868429 L -432.52308,-2.0807968"
       style="fill:black;fill-rule:nonzero;stroke:none"
       id="path274" />
    <path
       d="M -463.44921,8.920997 L -463.44921,8.920997 C -463.44921,2.3282554 -468.84355,-3.0142823 -475.49306,-3.0142823 C -477.68858,-3.0142823 -479.74557,-2.4308539 -481.51709,-1.4140214 L -481.51709,-2.4183518 L -487.53692,-2.4183518 L -487.53692,39.355126 L -481.51709,39.355126 L -481.51709,26.415516 C -479.74557,27.432348 -477.68858,28.015777 -475.49306,28.015777 C -468.84355,28.015777 -463.44921,22.673239 -463.44921,16.080498 L -463.44921,8.920997 z M -469.47324,16.080498 C -469.47324,19.376868 -472.16831,22.048137 -475.49306,22.048137 C -478.82202,22.048137 -481.51709,19.376868 -481.51709,16.080498 L -481.51709,8.920997 C -481.51709,5.6246262 -478.82202,2.9533573 -475.49306,2.9533573 C -472.16831,2.9533573 -469.47324,5.6246262 -469.47324,8.920997 L -469.47324,16.080498"
       style="fill:black;fill-rule:nonzero;stroke:none"
       id="path276" />
    <path
       d="M -348.16152,-2.8850946 C -354.81104,-2.8850946 -360.20537,2.4574431 -360.20537,9.0501847 L -360.20537,16.213853 C -360.20537,22.802427 -354.81104,28.149132 -348.16152,28.149132 C -342.98967,28.149132 -338.58185,24.919439 -336.87329,20.385366 L -343.85025,20.381199 C -344.9459,21.489713 -346.46975,22.181492 -348.16152,22.181492 C -351.48628,22.181492 -354.18135,19.506056 -354.18135,16.213853 L -354.18135,15.613755 L -336.11346,15.613755 L -336.11346,9.0501847 C -336.11346,2.4574431 -341.5078,-2.8850946 -348.16152,-2.8850946 z M -342.13749,9.6461152 L -354.18135,9.6461152 L -354.18135,9.0501847 C -354.18135,5.7538139 -351.48628,3.0825451 -348.16152,3.0825451 C -344.83256,3.0825451 -342.13749,5.7538139 -342.13749,9.0501847 L -342.13749,9.6461152"
       style="fill:black;fill-rule:nonzero;stroke:none"
       id="path278" />
    <path
       d="M -559.46002,-31.827313 C -551.37061,-34.640272 -545.56068,-42.254013 -545.56068,-51.234644 L -520.34373,-51.234644 L -520.34373,-67.174743 L -553.19671,-67.174743 C -556.77334,-70.075216 -561.34489,-71.817167 -566.32783,-71.817167 C -571.31497,-71.817167 -575.88651,-70.075216 -579.46314,-67.174743 L -642.56639,-67.174743 L -642.56639,-124.77163 L -676.13722,-124.77163 C -681.32166,-124.77163 -685.60775,-121.00019 -686.38436,-116.07438 L -693.13883,-83.83996 L -714.66161,-83.83996 C -719.17018,-83.83996 -722.82238,-80.218537 -722.82238,-75.751142 L -722.82238,-51.234644 L -700.42643,-51.234644 C -700.42643,-42.254013 -694.6165,-34.640272 -686.52709,-31.827313 L -722.99869,-31.827313 L -722.99869,-24.20107 L -341.82265,-24.20107 L -341.82265,-31.827313 L -559.46002,-31.827313 z M -658.88374,-51.234644 L -587.09917,-51.234644 C -587.09917,-42.254013 -581.28924,-34.640272 -573.19983,-31.827313 L -672.78308,-31.827313 C -664.69367,-34.640272 -658.88374,-42.254013 -658.88374,-51.234644"
       style="fill:black;fill-rule:nonzero;stroke:none"
       id="path280" />
    <path
       d="M -353.92947,-59.852716 C -357.67402,-61.794699 -364.26057,-65.049397 -368.49628,-67.128902 C -368.71877,-72.663138 -369.13856,-82.073006 -369.57515,-86.49456 C -370.21323,-92.97895 -374.07533,-94.604215 -374.07533,-94.604215 L -428.14044,-117.38293 C -434.62204,-119.54578 -443.89526,-109.89421 -447.262,-107.36046 C -450.62874,-104.82255 -456.55201,-105.62685 -456.55201,-105.62685 C -456.55201,-105.62685 -474.88856,-109.39413 -482.74289,-111.01106 C -490.60141,-112.62382 -494.37954,-109.13158 -494.37954,-109.13158 L -499.34989,-103.79321 L -515.49512,-163.87801 C -515.79317,-164.98236 -516.93501,-165.63663 -518.04746,-165.35325 C -518.04746,-165.35325 -599.90285,-111.18609 -606.54398,-106.68118 C -613.1893,-102.17628 -612.13981,-97.325492 -612.13981,-97.325492 L -611.87954,-88.486551 L -634.17054,-88.486551 L -634.17054,-73.934179 L -519.81898,-73.934179 L -519.81898,-88.486551 L -591.507,-88.486551 L -591.507,-101.4845 L -518.17759,-157.69784 L -502.43956,-99.129953 C -502.34301,-98.771562 -501.92322,-98.188133 -501.92322,-98.188133 L -501.85185,-98.158962 C -501.49083,-97.821407 -501.01647,-97.621374 -500.51271,-97.59637 L -487.49494,-92.112142 C -491.0212,-83.889969 -487.15491,-74.396754 -478.8598,-70.900351 C -470.5647,-67.408115 -460.98083,-71.237906 -457.45457,-79.46008 L -398.6458,-54.685207 C -398.71716,-54.526848 -398.80532,-54.376823 -398.87249,-54.218464 C -402.39875,-45.99629 -398.53245,-36.498908 -390.23735,-33.006672 C -381.94224,-29.510269 -372.35837,-33.34006 -368.83631,-41.562234 C -368.76495,-41.72476 -368.71877,-41.887287 -368.6516,-42.049813 L -351.78853,-34.944488 L -349.53004,-40.207846 L -348.21609,-49.255155 C -348.21609,-49.255155 -348.09855,-56.83139 -353.92947,-59.852716"
       style="fill:black;fill-rule:nonzero;stroke:none"
       id="path282" />
  </g>
</svg>
